<svg xmlns="http://www.w3.org/2000/svg" width="417.131" height="330.771" viewBox="0 0 417.131 330.771">
  <g id="Grupo_97089" data-name="Grupo 97089" transform="translate(-800.549 -853.755)">
    <g id="Grupo_97026" data-name="Grupo 97026" transform="translate(800.918 883.492)" opacity="0.4">
      <path id="Trazado_213023" data-name="Trazado 213023" d="M1212.713,1041.029c6.2-40.62,11.182-84.762-14.257-120.274-7.631-10.652-17.422-21.337-29.6-26.478-15.289-6.454-31.548-8.1-48.034-7.921a277.683,277.683,0,0,0-89.918,16.032c-20.867,7.428-41.318,17.467-63.4,19-37.4,2.591-75.626-19.517-111.136-7.424-18.862,6.423-33.73,22.024-42.482,40.022s-11.925,38.267-12.7,58.29c-2.366,60.844,13.427,125.277,48.557,174.8h309.3c6.835-12.048,12.392-24.79,17.205-35.263C1192.175,1117.139,1206.943,1078.864,1212.713,1041.029Z" transform="translate(-800.953 -886.344)" fill="#e5e5ff"/>
    </g>
    <g id="Grupo_97027" data-name="Grupo 97027" transform="translate(979.283 1074.64)">
      <rect id="Rectángulo_40447" data-name="Rectángulo 40447" width="28.529" height="11.565" rx="5.783" fill="#e0e0ff"/>
      <rect id="Rectángulo_40448" data-name="Rectángulo 40448" width="28.529" height="11.565" rx="5.783" transform="translate(32.925)" fill="#e0e0ff"/>
      <rect id="Rectángulo_40449" data-name="Rectángulo 40449" width="28.529" height="11.565" rx="5.783" transform="translate(47.845 14.971)" fill="#e0e0ff"/>
      <rect id="Rectángulo_40450" data-name="Rectángulo 40450" width="28.529" height="11.565" rx="5.783" transform="translate(14.87 14.768)" fill="#e0e0ff"/>
      <rect id="Rectángulo_40451" data-name="Rectángulo 40451" width="28.529" height="11.565" rx="5.783" transform="translate(0.101 29.537)" fill="#e0e0ff"/>
    </g>
    <g id="Grupo_97050" data-name="Grupo 97050" transform="translate(875.426 853.755)">
      <g id="Grupo_97030" data-name="Grupo 97030">
        <g id="Grupo_97028" data-name="Grupo 97028" transform="translate(9.127 7.333)">
          <rect id="Rectángulo_40452" data-name="Rectángulo 40452" width="209.34" height="152.109" transform="translate(0.304 0.303)" fill="#fff"/>
          <path id="Trazado_213024" data-name="Trazado 213024" d="M1102.555,1014.507H892.608V861.791h209.947Zm-209.34-.607h208.733V862.4H893.216Z" transform="translate(-892.608 -861.791)" fill="#5254cf"/>
        </g>
        <rect id="Rectángulo_40453" data-name="Rectángulo 40453" width="208.78" height="6.825" transform="translate(9.71 7.636)" fill="#e0e0ff" opacity="0.6"/>
        <g id="Grupo_97029" data-name="Grupo 97029">
          <rect id="Rectángulo_40454" data-name="Rectángulo 40454" width="227.595" height="8.216" transform="translate(0.303 0.303)" fill="#fff"/>
          <path id="Trazado_213025" data-name="Trazado 213025" d="M1110.807,862.578h-228.2v-8.823h228.2Zm-227.594-.607H1110.2v-7.609H883.213Z" transform="translate(-882.606 -853.755)" fill="#5254cf"/>
        </g>
      </g>
      <g id="Grupo_97049" data-name="Grupo 97049" transform="translate(23.899 24.69)">
        <g id="Grupo_97032" data-name="Grupo 97032" transform="translate(61.754 18.856)">
          <g id="Grupo_97031" data-name="Grupo 97031" transform="translate(11.301 7.435)">
            <path id="Trazado_213026" data-name="Trazado 213026" d="M1018.424,948.7H994.8v-8.079a17.753,17.753,0,1,1,23.626,0Zm-23.02-.607h22.413v-7.746l.1-.09a17.145,17.145,0,1,0-22.619,0l.1.09Z" transform="translate(-988.858 -909.625)" fill="#5254cf"/>
            <path id="Trazado_213027" data-name="Trazado 213027" d="M1018.993,960.037H995.367v-3.854h23.626Zm-23.02-.607h22.413V956.79H995.974Z" transform="translate(-989.427 -913.699)" fill="#5254cf"/>
            <path id="Trazado_213028" data-name="Trazado 213028" d="M1018.993,966.19H995.367v-3.854h23.626Zm-23.02-.607h22.413v-2.641H995.974Z" transform="translate(-989.427 -914.237)" fill="#5254cf"/>
            <path id="Trazado_213029" data-name="Trazado 213029" d="M1009.826,950.082h-3.612L1004.97,925.4h6.1Zm-3.034-.607h2.457l1.183-23.468h-4.823Z" transform="translate(-990.268 -911.005)" fill="#5254cf"/>
          </g>
          <circle id="Elipse_5372" data-name="Elipse 5372" cx="1.214" cy="1.214" r="1.214" transform="translate(28.222)" fill="#cbcbff"/>
          <circle id="Elipse_5373" data-name="Elipse 5373" cx="1.214" cy="1.214" r="1.214" transform="translate(0 28.98)" fill="#cbcbff"/>
          <circle id="Elipse_5374" data-name="Elipse 5374" cx="1.214" cy="1.214" r="1.214" transform="translate(55.533 28.98)" fill="#cbcbff"/>
          <circle id="Elipse_5375" data-name="Elipse 5375" cx="1.214" cy="1.214" r="1.214" transform="translate(28.07 69.644)" fill="#cbcbff"/>
        </g>
        <g id="Grupo_97035" data-name="Grupo 97035" transform="translate(0 2.296)">
          <g id="Grupo_97033" data-name="Grupo 97033" transform="translate(38.893 14.74)">
            <circle id="Elipse_5376" data-name="Elipse 5376" cx="1.214" cy="1.214" r="1.214" transform="translate(26.957 10.469)" fill="#cbcbff"/>
            <path id="Trazado_213030" data-name="Trazado 213030" d="M979.319,911.3l-5.531-11.211H951.42v-.607h22.746l5.7,11.549Z" transform="translate(-951.42 -899.482)" fill="#cbcbff"/>
          </g>
          <g id="Grupo_97034" data-name="Grupo 97034">
            <rect id="Rectángulo_40455" data-name="Rectángulo 40455" width="4.639" height="9.097" transform="translate(0 15.201)" fill="#cbcbff"/>
            <rect id="Rectángulo_40456" data-name="Rectángulo 40456" width="4.639" height="13.538" transform="translate(7.603 10.761)" fill="#cbcbff"/>
            <rect id="Rectángulo_40457" data-name="Rectángulo 40457" width="4.639" height="10.878" transform="translate(15.205 13.421)" fill="#cbcbff"/>
            <rect id="Rectángulo_40458" data-name="Rectángulo 40458" width="4.639" height="16.698" transform="translate(22.808 7.601)" fill="#cbcbff"/>
            <rect id="Rectángulo_40459" data-name="Rectángulo 40459" width="4.639" height="24.299" transform="translate(30.411)" fill="#cbcbff"/>
          </g>
        </g>
        <g id="Grupo_97039" data-name="Grupo 97039" transform="translate(113.191)">
          <g id="Grupo_97036" data-name="Grupo 97036" transform="translate(0 13.697)">
            <circle id="Elipse_5377" data-name="Elipse 5377" cx="1.214" cy="1.214" r="1.214" transform="translate(0 12.442)" fill="#cbcbff"/>
            <path id="Trazado_213031" data-name="Trazado 213031" d="M1034.42,909.61l-.548-.261,6.455-13.525h20.523v.607h-20.14Z" transform="translate(-1032.932 -895.824)" fill="#cbcbff"/>
          </g>
          <g id="Grupo_97038" data-name="Grupo 97038" transform="translate(30.614)">
            <path id="Trazado_213032" data-name="Trazado 213032" d="M1097.878,903.592h-28.319a3.17,3.17,0,0,1-3.167-3.166V883.979a3.169,3.169,0,0,1,3.167-3.166h28.319a3.169,3.169,0,0,1,3.166,3.166v16.446A3.17,3.17,0,0,1,1097.878,903.592Zm-28.319-22.172a2.562,2.562,0,0,0-2.56,2.56v16.446a2.562,2.562,0,0,0,2.56,2.559h28.319a2.562,2.562,0,0,0,2.559-2.559V883.979a2.562,2.562,0,0,0-2.559-2.56Z" transform="translate(-1066.392 -880.813)" fill="#cbcbff"/>
            <g id="Grupo_97037" data-name="Grupo 97037" transform="translate(5.187 4.865)">
              <rect id="Rectángulo_40460" data-name="Rectángulo 40460" width="24.277" height="0.607" fill="#cbcbff"/>
              <rect id="Rectángulo_40461" data-name="Rectángulo 40461" width="17.499" height="0.607" transform="translate(0 4.147)" fill="#cbcbff"/>
              <rect id="Rectángulo_40462" data-name="Rectángulo 40462" width="21.344" height="0.607" transform="translate(0 8.294)" fill="#cbcbff"/>
              <rect id="Rectángulo_40463" data-name="Rectángulo 40463" width="24.277" height="0.607" transform="translate(0 12.442)" fill="#cbcbff"/>
            </g>
          </g>
        </g>
        <g id="Grupo_97042" data-name="Grupo 97042" transform="translate(112.786 70.092)">
          <g id="Grupo_97040" data-name="Grupo 97040" transform="translate(0 9.051)">
            <circle id="Elipse_5378" data-name="Elipse 5378" cx="1.214" cy="1.214" r="1.214" fill="#cbcbff"/>
            <path id="Trazado_213033" data-name="Trazado 213033" d="M1060.407,982.519h-20.523l-6.455-13.525.547-.261,6.29,13.179h20.141Z" transform="translate(-1032.489 -967.65)" fill="#cbcbff"/>
          </g>
          <g id="Grupo_97041" data-name="Grupo 97041" transform="translate(34.745)">
            <path id="Trazado_213034" data-name="Trazado 213034" d="M1088.093,992.835a17.578,17.578,0,1,1,12.313-5.039A17.643,17.643,0,0,1,1088.093,992.835Zm.01-34.6a17,17,0,1,0,15.617,23.631h0a16.991,16.991,0,0,0-15.617-23.631Z" transform="translate(-1070.476 -957.627)" fill="#cbcbff"/>
            <path id="Trazado_213035" data-name="Trazado 213035" d="M1105.7,983.151a17.233,17.233,0,0,1-3.805,5.6l-11.971-12.183,16.28-5.588A17.21,17.21,0,0,1,1105.7,983.151Z" transform="translate(-1072.177 -958.795)" fill="#cbcbff"/>
          </g>
        </g>
        <g id="Grupo_97048" data-name="Grupo 97048" transform="translate(3.085 60.481)">
          <g id="Grupo_97043" data-name="Grupo 97043" transform="translate(37.022 18.51)">
            <circle id="Elipse_5379" data-name="Elipse 5379" cx="1.214" cy="1.214" r="1.214" transform="translate(25.491)" fill="#cbcbff"/>
            <path id="Trazado_213036" data-name="Trazado 213036" d="M973.274,982.353H952.751v-.607h20.14l6.29-13.18.548.261Z" transform="translate(-952.751 -967.483)" fill="#cbcbff"/>
          </g>
          <g id="Grupo_97045" data-name="Grupo 97045">
            <path id="Trazado_213037" data-name="Trazado 213037" d="M942.929,965.908H912.178V947.094h30.751Zm-30.143-.607h29.537V947.7H912.786Z" transform="translate(-912.178 -947.094)" fill="#cbcbff"/>
            <g id="Grupo_97044" data-name="Grupo 97044" transform="translate(3.364 4.804)">
              <rect id="Rectángulo_40464" data-name="Rectángulo 40464" width="24.024" height="0.607" fill="#f5f5ff"/>
              <rect id="Rectángulo_40465" data-name="Rectángulo 40465" width="24.024" height="0.607" transform="translate(0 4.299)" fill="#f5f5ff"/>
              <rect id="Rectángulo_40466" data-name="Rectángulo 40466" width="24.024" height="0.607" transform="translate(0 8.598)" fill="#f5f5ff"/>
            </g>
            <path id="Trazado_213038" data-name="Trazado 213038" d="M918.387,962.752l-2.139-4.13-1.288,3.8-.575-.195,1.746-5.151,2.261,4.367,4.742-8.948,3,7.66,2.4-5.661,4.591,4.9L938,950.946l.526.3-5.287,9.154-4.513-4.813-2.612,6.173-3.065-7.816Z" transform="translate(-912.371 -947.431)" fill="#cbcbff"/>
          </g>
          <g id="Grupo_97047" data-name="Grupo 97047" transform="translate(0 26.704)">
            <path id="Trazado_213039" data-name="Trazado 213039" d="M942.929,995.173H912.178V976.359h30.751Zm-30.143-.607h29.537v-17.6H912.786Z" transform="translate(-912.178 -976.359)" fill="#cbcbff"/>
            <g id="Grupo_97046" data-name="Grupo 97046" transform="translate(3.364 4.804)">
              <rect id="Rectángulo_40467" data-name="Rectángulo 40467" width="24.024" height="0.607" fill="#f5f5ff"/>
              <rect id="Rectángulo_40468" data-name="Rectángulo 40468" width="24.024" height="0.607" transform="translate(0 4.299)" fill="#f5f5ff"/>
              <rect id="Rectángulo_40469" data-name="Rectángulo 40469" width="24.024" height="0.607" transform="translate(0 8.598)" fill="#f5f5ff"/>
            </g>
            <path id="Trazado_213040" data-name="Trazado 213040" d="M933.507,990.8l-4.094-3.385-3.965,3.343-2.473-4.728-2.187,4.6-5.3-9.148.525-.3,4.718,8.149,2.213-4.656,2.686,5.135,3.774-3.182,3.8,3.139,2.879-8.878,3.1,9.377-.576.19-2.516-7.616Z" transform="translate(-912.468 -976.755)" fill="#cbcbff"/>
          </g>
        </g>
      </g>
    </g>
    <g id="Grupo_97051" data-name="Grupo 97051" transform="translate(820.994 1008.817)">
      <path id="Trazado_213041" data-name="Trazado 213041" d="M823.166,1031.364s-5.179-9.492,35.787-7.367l22.76,73.741-38.539-.608Z" transform="translate(-822.955 -1023.686)" fill="#e0e0ff"/>
      <path id="Trazado_213042" data-name="Trazado 213042" d="M837.677,1206.315H831.81l13.959-100.344h7.688Z" transform="translate(-823.729 -1030.886)" fill="#e0e0ff"/>
      <path id="Trazado_213043" data-name="Trazado 213043" d="M911.663,1206.315h5.867L903.57,1105.971h-7.688Z" transform="translate(-829.336 -1030.886)" fill="#e0e0ff"/>
      <rect id="Rectángulo_40470" data-name="Rectángulo 40470" width="58.585" height="6.069" transform="translate(23.337 70.813)" fill="#cbcbff"/>
      <path id="Trazado_213044" data-name="Trazado 213044" d="M846.3,1094.885l-17.439-64.614a2.937,2.937,0,0,0-3.9-1.973h0a2.938,2.938,0,0,0-1.786,3.451l15.857,63.429a7.627,7.627,0,0,0,7.268,5.776h0Z" transform="translate(-822.967 -1024.072)" fill="#cbcbff"/>
    </g>
    <g id="Grupo_97053" data-name="Grupo 97053" transform="translate(1099.558 1008.759)">
      <g id="Grupo_97052" data-name="Grupo 97052" transform="translate(3.36 75.12)">
        <path id="Trazado_213045" data-name="Trazado 213045" d="M1206.566,1206.29h5.485L1199,1105.946h-7.187Z" transform="translate(-1137.154 -1105.946)" fill="#e0e0ff"/>
        <path id="Trazado_213046" data-name="Trazado 213046" d="M1137.4,1206.29h-5.485l13.05-100.344h7.187Z" transform="translate(-1131.913 -1105.946)" fill="#e0e0ff"/>
      </g>
      <rect id="Rectángulo_40471" data-name="Rectángulo 40471" width="81.54" height="6.069" transform="translate(81.578 76.918) rotate(180)" fill="#cbcbff"/>
      <path id="Trazado_213047" data-name="Trazado 213047" d="M1209.811,1094.471h-81.58c8.386-15.9,12.5-37.307,14.421-61.167a10.535,10.535,0,0,1,10.5-9.681h31.708a10.532,10.532,0,0,1,10.508,9.728C1197.225,1057.923,1201.429,1079.274,1209.811,1094.471Z" transform="translate(-1128.231 -1023.623)" fill="#e0e0ff"/>
    </g>
    <g id="Grupo_97065" data-name="Grupo 97065" transform="translate(838.773 939.252)">
      <g id="Grupo_97054" data-name="Grupo 97054" transform="translate(19.698 19.553)">
        <path id="Trazado_213048" data-name="Trazado 213048" d="M879.973,968.9s-23.088,13.58-9.13,22.684l12.341,4.653,4.046-19.219C885.954,972.053,883.934,968.56,879.973,968.9Z" transform="translate(-864.229 -968.879)" fill="#1b1b43"/>
        <path id="Trazado_213049" data-name="Trazado 213049" d="M879.2,970.585a33.167,33.167,0,0,0-3.457,1.481,35.168,35.168,0,0,0-3.289,1.812,20.71,20.71,0,0,0-5.6,4.861,11.707,11.707,0,0,0-1.774,3.211,9.194,9.194,0,0,0-.487,3.615,10.83,10.83,0,0,0,.818,3.593,15.044,15.044,0,0,0,.767,1.7c.285.557.634,1.078.948,1.621l-.194.135a13.961,13.961,0,0,1-2.869-7.016,9.4,9.4,0,0,1,.469-3.835,11.8,11.8,0,0,1,1.843-3.392,20.445,20.445,0,0,1,5.814-4.933,32.627,32.627,0,0,1,6.942-3.082Z" transform="translate(-864.024 -969.008)" fill="#1b1b43"/>
      </g>
      <g id="Grupo_97059" data-name="Grupo 97059" transform="translate(11.056 100.22)">
        <g id="Grupo_97056" data-name="Grupo 97056" transform="translate(24.461)">
          <g id="Grupo_97055" data-name="Grupo 97055" transform="translate(58.884 113.307)">
            <path id="Trazado_213050" data-name="Trazado 213050" d="M969.3,1198.789c-1.424-1.217-2.824-2.438-4.156-3.759q-1.714-1.7-3.334-3.486c-.343-.376-1.135-.973-1.308-1.466l-12.672,4.26,4.425,19.314,2.436.018.223-9.044a47.788,47.788,0,0,0,12.225,4.492c2.638.489,6.081.7,8.593-.386C982.022,1206.024,970.986,1200.224,969.3,1198.789Z" transform="translate(-946.061 -1182.208)" fill="#1b1b43"/>
            <path id="Trazado_213051" data-name="Trazado 213051" d="M957.573,1181.453l-11.681,4.4,1.771,7.728,12.672-4.259Z" transform="translate(-945.891 -1181.453)" fill="#ffbc96"/>
          </g>
          <path id="Trazado_213052" data-name="Trazado 213052" d="M901.086,1060.316l29.212,9.657a20.325,20.325,0,0,1,11.364,9.383h0a20.343,20.343,0,0,1,2.414,7.3l11.331,87.157-17.6,3.035-23.973-88.61-32.47-14.87,5.766-16.084Z" transform="translate(-881.361 -1057.281)" fill="#393a8f"/>
        </g>
        <g id="Grupo_97058" data-name="Grupo 97058" transform="translate(0 2.124)">
          <g id="Grupo_97057" data-name="Grupo 97057" transform="translate(8.05 112.9)">
            <path id="Trazado_213053" data-name="Trazado 213053" d="M891.517,1208.9c-4.438-1.794-7.838-13.693-7.838-13.693l-12.907-3.581-7.4,18.123,1.983,1.417,5.383-7.272,13.126,9.915h10.388S895.956,1210.691,891.517,1208.9Z" transform="translate(-863.376 -1184.06)" fill="#1b1b43"/>
            <path id="Trazado_213054" data-name="Trazado 213054" d="M886.655,1186.451l-12.088-3.116-3.086,7.563,12.908,3.58Z" transform="translate(-864.085 -1183.335)" fill="#ffbc96"/>
          </g>
          <path id="Trazado_213055" data-name="Trazado 213055" d="M916.213,1098.555l-28.2,79.81-3.338-1-12.1-3.6-1.553-.462,15.172-75.051c-17.193,4.248-26.716-.389-30.139-8.1a19.675,19.675,0,0,1-1.487-7.326c-.328-10.627,5.128-23.221,5.128-23.221l16.284,1.214,29.951,13.594a19.415,19.415,0,0,1,10.281,24.137Z" transform="translate(-854.555 -1059.609)" fill="#5254cf"/>
        </g>
        <path id="Trazado_213056" data-name="Trazado 213056" d="M886.2,1100.479c-17.193,4.248-26.716-.389-30.139-8.1a19.674,19.674,0,0,1-1.487-7.325C863.516,1100.794,886.2,1100.479,886.2,1100.479Z" transform="translate(-854.556 -1059.711)" fill="#393a8f" opacity="0.6"/>
      </g>
      <g id="Grupo_97062" data-name="Grupo 97062" transform="translate(0 37.374)">
        <path id="Trazado_213057" data-name="Trazado 213057" d="M875.149,988.408l-18.341,42.364,4.855,7.738s-4.934,11.177-7.738,18.966c0,0,32.419,9.154,60.338,2.174l-4.653-23.872-1.973-36.567L896,988.675Z" transform="translate(-843.443 -988.408)" fill="#fd8f25"/>
        <path id="Trazado_213058" data-name="Trazado 213058" d="M907.082,1045.841l-2.681.354-5.38-20.8,2.117-.6Z" transform="translate(-847.389 -991.593)" fill="#1b1b43"/>
        <g id="Grupo_97060" data-name="Grupo 97060" transform="translate(52.56 0.267)">
          <path id="Trazado_213059" data-name="Trazado 213059" d="M936.534,1032.888a52.3,52.3,0,0,1-8.931-2.243l-6.979-27.76a15.771,15.771,0,0,0-10.409-11.155l-8.934-2.543a6.643,6.643,0,0,1-1.244-.485l8.221,55.372s14.086,1.413,24.2,1.669C932.218,1040.909,934.052,1035.349,936.534,1032.888Z" transform="translate(-900.038 -988.701)" fill="#fd8f25"/>
          <path id="Trazado_213060" data-name="Trazado 213060" d="M954.691,1036.1a17.092,17.092,0,0,0-8.6,1.112,23.252,23.252,0,0,1-6.546-.185c-1.875,2.765-5.3,8.4-5.061,13.234,2.115.054,7.55-.136,8.876-.227,7.662-.531,14.718-8.422,14.718-8.422s5.614,5.538,6.069,2.958S959.623,1036.7,954.691,1036.1Z" transform="translate(-903.051 -992.837)" fill="#fd8f25"/>
        </g>
        <rect id="Rectángulo_40472" data-name="Rectángulo 40472" width="33.132" height="2.784" transform="translate(46.341 54.006)" fill="#fff"/>
        <path id="Trazado_213061" data-name="Trazado 213061" d="M881.172,1049.2s14.187,1.973,17.07-.683c0,0,3.414.076,4.248-1.9a5.374,5.374,0,0,0,1.9-2.5s1.214-1.973.834-3.262l-4.779-2.428s-.02-.166-.063-.409a2.288,2.288,0,0,0-2.22-1.894l-8.263-.11a6.076,6.076,0,0,0-2.2.382l-8.494,3.168Z" transform="translate(-845.655 -992.574)" fill="#ffbc96"/>
        <path id="Trazado_213062" data-name="Trazado 213062" d="M867.335,1010.743l-8.5,18.966,26.7,2.124c-7.889,3.793-7.586,13.2-7.586,13.2l-24.222.631A11,11,0,0,1,843,1031.209l9.935-30.013a14.987,14.987,0,0,1,10.47-9.8l9.7-2.507c.364-.151.716-.315,1.044-.485Z" transform="translate(-842.438 -988.408)" fill="#fd8f25"/>
        <g id="Grupo_97061" data-name="Grupo 97061" transform="translate(49.5 47.797)">
          <path id="Trazado_213063" data-name="Trazado 213063" d="M906.11,1044.638a36.889,36.889,0,0,1-3.37-1.66,30.871,30.871,0,0,1-3.193-1.981l.115-.208a30.865,30.865,0,0,1,3.371,1.661,36.787,36.787,0,0,1,3.192,1.981Z" transform="translate(-896.935 -1040.789)" fill="#d28572"/>
          <path id="Trazado_213064" data-name="Trazado 213064" d="M904.078,1047.5a29.47,29.47,0,0,1-3.179-1.082,24.63,24.63,0,0,1-3.042-1.422l.089-.22a24.72,24.72,0,0,1,3.179,1.081,29.489,29.489,0,0,1,3.042,1.422Z" transform="translate(-896.788 -1041.137)" fill="#d28572"/>
          <path id="Trazado_213065" data-name="Trazado 213065" d="M899.72,1049.671a7.617,7.617,0,0,1-1.6-.575,6.336,6.336,0,0,1-1.437-.905l.1-.213a6.309,6.309,0,0,1,1.6.575,7.573,7.573,0,0,1,1.437.9Z" transform="translate(-896.685 -1041.418)" fill="#d28572"/>
        </g>
        <path id="Trazado_213066" data-name="Trazado 213066" d="M859.272,1047.5a.3.3,0,0,1,0-.607l19.827-.349a14.387,14.387,0,0,1,6.8-12.644l.015-.367-.03.3-23.448-2.354,5.96-22.194a.3.3,0,0,1,.586.157l-5.774,21.5,22.737,2.283a.641.641,0,0,1,.273,1.184,13.815,13.815,0,0,0-6.5,12.42l.006.3-20.434.359Z" transform="translate(-843.884 -990.215)" fill="#1b1b43"/>
        <path id="Trazado_213067" data-name="Trazado 213067" d="M916.458,1044.159a.3.3,0,0,1-.3-.277l-3.034-35.657a.3.3,0,0,1,.276-.328.3.3,0,0,1,.328.276l3.035,35.657a.3.3,0,0,1-.276.328Z" transform="translate(-848.623 -990.113)" fill="#1b1b43"/>
        <path id="Trazado_213068" data-name="Trazado 213068" d="M935.522,1051.088a.3.3,0,0,1-.3-.248c-1.182-6.458,3.91-13.62,4.127-13.922a.3.3,0,0,1,.493.355c-.052.071-5.157,7.256-4.023,13.458a.3.3,0,0,1-.244.353A.376.376,0,0,1,935.522,1051.088Z" transform="translate(-850.542 -992.642)" fill="#1b1b43"/>
        <circle id="Elipse_5380" data-name="Elipse 5380" cx="1.669" cy="1.669" r="1.669" transform="translate(45.531 13.99)" fill="#1b1b43"/>
      </g>
      <g id="Grupo_97064" data-name="Grupo 97064" transform="translate(29.791)">
        <path id="Trazado_213069" data-name="Trazado 213069" d="M898.038,986.932c-.728,4.412-3.708,10.239-8.346,7.957-3.411-1.675-9.068-6.064-12.509-8.224,9.413-4.922,4.773-17.783,4.646-18.177l11.5,4.249s0,.073.006.2a55.721,55.721,0,0,0,.837,8.17c.086.431.176.85.274,1.262A6.951,6.951,0,0,0,898.038,986.932Z" transform="translate(-875.269 -949.291)" fill="#ffbc96"/>
        <path id="Trazado_213070" data-name="Trazado 213070" d="M895,981.477c-6.761-1.559-8.4-8.552-8.4-8.745l7.563.576A55.716,55.716,0,0,0,895,981.477Z" transform="translate(-876.093 -949.663)" fill="#d28572"/>
        <path id="Trazado_213071" data-name="Trazado 213071" d="M899.486,959.734S900.7,973.466,894.4,974.6c-6.187,1.119-13.124-7.358-13.124-7.358l1.062-12.67,7.055-4.627C894.4,951.977,897.667,954.812,899.486,959.734Z" transform="translate(-875.628 -947.669)" fill="#ffbc96"/>
        <path id="Trazado_213072" data-name="Trazado 213072" d="M881.19,964.3c3.338-1.138,4.551-4.021,5.386-7.966,1.284-6.067,10.015-1.214,12.518,3.186,0,0,1.365-12.29-11.228-12.062,0,0-14.642.531-10.242,16.007Z" transform="translate(-875.236 -947.451)" fill="#1b1b43"/>
        <ellipse id="Elipse_5381" data-name="Elipse 5381" cx="3.3" cy="4.324" rx="3.3" ry="4.324" transform="translate(0 16.025) rotate(-34.106)" fill="#ffbc96"/>
        <g id="Grupo_97063" data-name="Grupo 97063" transform="translate(11.531 12.144)">
          <path id="Trazado_213073" data-name="Trazado 213073" d="M898.6,963.81a.809.809,0,1,0,.809-.809A.81.81,0,0,0,898.6,963.81Z" transform="translate(-888.674 -960.955)" fill="#1b1b43"/>
          <path id="Trazado_213074" data-name="Trazado 213074" d="M891.629,963.994a.809.809,0,1,0,.809-.809A.809.809,0,0,0,891.629,963.994Z" transform="translate(-888.064 -960.971)" fill="#1b1b43"/>
          <path id="Trazado_213075" data-name="Trazado 213075" d="M896.394,969.191a.3.3,0,0,1-.023-.606,3.1,3.1,0,0,0,1.323-.4.416.416,0,0,0,.192-.374,3.049,3.049,0,0,0-1.457-1.833.3.3,0,0,1,.336-.506,3.542,3.542,0,0,1,1.728,2.325,1.02,1.02,0,0,1-.44.878,3.746,3.746,0,0,1-1.635.518Z" transform="translate(-888.455 -961.166)" fill="#d28572"/>
          <path id="Trazado_213076" data-name="Trazado 213076" d="M900.782,961.84a5.831,5.831,0,0,0-.75-.161,3.191,3.191,0,0,0-.7-.013,4.615,4.615,0,0,0-.7.136c-.244.062-.491.152-.785.222l-.015,0a.19.19,0,0,1-.228-.141.192.192,0,0,1,.023-.142,1.961,1.961,0,0,1,.678-.672,2.156,2.156,0,0,1,.952-.309,2.057,2.057,0,0,1,1,.173,1.678,1.678,0,0,1,.76.639.182.182,0,0,1-.2.274Z" transform="translate(-888.587 -960.759)" fill="#1b1b43"/>
          <path id="Trazado_213077" data-name="Trazado 213077" d="M890.241,961.825a2.338,2.338,0,0,1,.85-.682,2.525,2.525,0,0,1,1.1-.261,2.067,2.067,0,0,1,1.121.307,1.939,1.939,0,0,1,.756.814.185.185,0,0,1-.234.256l-.023-.009a7.049,7.049,0,0,0-.838-.337,2.57,2.57,0,0,0-.788-.125,5.932,5.932,0,0,0-1.727.318l-.022.005a.183.183,0,0,1-.227-.125A.187.187,0,0,1,890.241,961.825Z" transform="translate(-887.94 -960.769)" fill="#1b1b43"/>
          <ellipse id="Elipse_5382" data-name="Elipse 5382" cx="1.948" cy="1.933" rx="1.948" ry="1.933" transform="translate(0 4.529)" fill="#fe5b52" opacity="0.4"/>
          <path id="Trazado_213078" data-name="Trazado 213078" d="M895.127,972.059a2.907,2.907,0,0,1-1.9-.633.3.3,0,0,1,.41-.447,2.628,2.628,0,0,0,2.515.313.3.3,0,0,1,.176.581A4.127,4.127,0,0,1,895.127,972.059Z" transform="translate(-888.195 -961.646)" fill="#1b1b43"/>
        </g>
        <path id="Trazado_213079" data-name="Trazado 213079" d="M882.477,967.872a.3.3,0,0,1-.278-.182c-.051-.117-1.274-2.85-3.271-2.017a.3.3,0,1,1-.234-.559c2.038-.85,3.549,1.154,4.063,2.333a.3.3,0,0,1-.157.4A.319.319,0,0,1,882.477,967.872Z" transform="translate(-875.385 -948.978)" fill="#1b1b43"/>
        <path id="Trazado_213080" data-name="Trazado 213080" d="M891.7,997.421a4.893,4.893,0,0,1-2.166-.546,72.4,72.4,0,0,1-8.016-5.164c-1.669-1.17-3.246-2.275-4.52-3.075a.3.3,0,1,1,.323-.514c1.287.808,2.87,1.917,4.546,3.092a72.129,72.129,0,0,0,7.935,5.116,3.768,3.768,0,0,0,3.541.073c2.326-1.2,3.871-4.783,4.371-7.806a.3.3,0,0,1,.349-.25.3.3,0,0,1,.25.349c-.524,3.174-2.178,6.954-4.692,8.247A4.156,4.156,0,0,1,891.7,997.421Z" transform="translate(-875.24 -951.005)" fill="#1b1b43"/>
      </g>
    </g>
    <g id="Grupo_97081" data-name="Grupo 97081" transform="translate(1048.02 898.366)">
      <g id="Grupo_97067" data-name="Grupo 97067" transform="translate(7.431 153.852)">
        <g id="Grupo_97066" data-name="Grupo 97066">
          <path id="Trazado_213081" data-name="Trazado 213081" d="M1135.06,1071.249q-.528,5.4-1.208,10.985c-3.677,30.789-10.39,65.474-18.213,101.6-11.38,5.11-17.449,2.882-17.449,2.882,8.193-40.968,11.531-112.584,11.531-112.584Z" transform="translate(-1081.496 -1071.249)" fill="#ffbc96"/>
          <path id="Trazado_213082" data-name="Trazado 213082" d="M1096.589,1197.511s-16.993,9.862-16.69,16.387h22.608l5.007-3.793,1.214,3.945h6.677s1.516-6.069-1.366-19.421C1102.658,1199.737,1096.589,1197.511,1096.589,1197.511Z" transform="translate(-1079.895 -1082.045)" fill="#1b1b43"/>
          <path id="Trazado_213083" data-name="Trazado 213083" d="M1136.166,1071.249q-.528,5.4-1.208,10.985c-13.133-.9-24.131-8.1-24.131-8.1Z" transform="translate(-1082.601 -1071.249)" fill="#d28572"/>
        </g>
        <path id="Trazado_213084" data-name="Trazado 213084" d="M1180.179,1183.92l-9.608,7.282-6.64-4.4s-9.941-81.236-17.193-109.045c-.571-2.191-1.123-4.048-1.657-5.511l23.366,3.641q.865,3.952,1.644,7.909C1176.665,1116.934,1179.074,1150.381,1180.179,1183.92Z" transform="translate(-1085.599 -1071.336)" fill="#ffbc96"/>
        <path id="Trazado_213085" data-name="Trazado 213085" d="M1164.253,1197.511s-15.82,9.862-15.537,16.387h21.045l4.661-3.793,1.131,3.945h6.214s1.412-6.069-1.271-19.421C1169.9,1199.737,1164.253,1197.511,1164.253,1197.511Z" transform="translate(-1085.916 -1082.045)" fill="#1b1b43"/>
        <path id="Trazado_213086" data-name="Trazado 213086" d="M1170.092,1083.8c-11.519-.158-23.19-5.936-23.19-5.936l-.163-.1c-.571-2.191-1.123-4.048-1.657-5.511l23.366,3.641Q1169.312,1079.839,1170.092,1083.8Z" transform="translate(-1085.599 -1071.336)" fill="#d28572"/>
        <path id="Trazado_213087" data-name="Trazado 213087" d="M1107.391,1126.224l7.739,1.214c.382.06.547-.525.161-.585l-7.738-1.214c-.382-.06-.547.525-.162.585Z" transform="translate(-1082.281 -1076.008)" fill="#d28572"/>
        <path id="Trazado_213088" data-name="Trazado 213088" d="M1157.357,1130.749l7.131.151a.3.3,0,0,0,0-.607l-7.131-.151a.3.3,0,0,0,0,.607Z" transform="translate(-1086.647 -1076.402)" fill="#d28572"/>
      </g>
      <g id="Grupo_97077" data-name="Grupo 97077" transform="translate(0 12.371)">
        <path id="Trazado_213089" data-name="Trazado 213089" d="M1071.751,949.1s1.923-9.559,16.742-13.2l-7.334,13.5Z" transform="translate(-1071.751 -917.924)" fill="#1b1b43"/>
        <g id="Grupo_97069" data-name="Grupo 97069" transform="translate(0.057)">
          <path id="Trazado_213090" data-name="Trazado 213090" d="M1083.19,925.859c-.229,1.809-.86,3.793-1.868,3.793s-1.328-1.632-1.245-3.869c.137-3.694.735-4.324,1.743-4.324S1083.646,922.255,1083.19,925.859Z" transform="translate(-1072.536 -916.661)" fill="#ffbc96"/>
          <path id="Trazado_213091" data-name="Trazado 213091" d="M1071.814,916.522l2.051,2.352,20.9,8.421a1.442,1.442,0,0,0,1.078-2.674l-20.9-8.421Z" transform="translate(-1071.814 -916.201)" fill="#1b1b43"/>
          <path id="Trazado_213092" data-name="Trazado 213092" d="M1088.683,934.351l-3.034,6.98-8.594,4.807a43.394,43.394,0,0,1-1.966-6.531,44.962,44.962,0,0,1-1.123-9.807l8.552-3.441.2-4.449c.455-6.142,2.938-3.677,3.569.68A74.238,74.238,0,0,0,1088.683,934.351Z" transform="translate(-1072.002 -916.378)" fill="#ffbc96"/>
          <path id="Trazado_213093" data-name="Trazado 213093" d="M1088.791,935.9l-3.034,6.98-8.594,4.807a43.364,43.364,0,0,1-1.966-6.531Z" transform="translate(-1072.11 -917.924)" fill="#d28572"/>
          <path id="Trazado_213094" data-name="Trazado 213094" d="M1080.219,926.746c-.262,1.809-.979,3.793-2.129,3.793s-1.513-1.632-1.419-3.87c.156-3.693.838-4.324,1.987-4.324S1080.739,923.142,1080.219,926.746Z" transform="translate(-1072.238 -916.739)" fill="#ffbc96"/>
          <path id="Trazado_213095" data-name="Trazado 213095" d="M1077.185,928.658c-.286,1.809-1.075,3.793-2.336,3.793s-1.662-1.632-1.558-3.869c.172-3.694.919-4.324,2.18-4.324S1077.755,925.055,1077.185,928.658Z" transform="translate(-1071.942 -916.906)" fill="#ffbc96"/>
          <g id="Grupo_97068" data-name="Grupo 97068" transform="translate(0.855 7.344)">
            <path id="Trazado_213096" data-name="Trazado 213096" d="M1080.456,930.889c-.411-.04-.872-.525-1.081-2.295a.318.318,0,0,1,.2-.355c.134-.03.255.076.274.24.142,1.2.422,1.865.741,1.8.751-.165,1.911-3.232,1.689-5.679a.315.315,0,0,1,.214-.347c.134-.027.252.087.266.252.23,2.544-.951,6.116-2.107,6.37A.627.627,0,0,1,1080.456,930.889Z" transform="translate(-1073.33 -924.25)" fill="#d28572"/>
            <path id="Trazado_213097" data-name="Trazado 213097" d="M1077.334,931.907a1.122,1.122,0,0,1-.768-.464c-.526-.682-.6-1.964-.22-3.811a.286.286,0,0,1,.338-.235.3.3,0,0,1,.216.359c-.441,2.144-.132,2.976.091,3.28a.583.583,0,0,0,.414.267,1.144,1.144,0,0,0,.894-.419c1.073-1.214.912-4.482.911-4.515a.3.3,0,0,1,.266-.324.287.287,0,0,1,.3.281c.008.145.175,3.567-1.067,4.971a1.689,1.689,0,0,1-1.31.612C1077.391,931.909,1077.368,931.909,1077.334,931.907Z" transform="translate(-1073.045 -924.407)" fill="#d28572"/>
            <path id="Trazado_213098" data-name="Trazado 213098" d="M1073.886,932.476c-.043,0-.087-.009-.13-.017a.949.949,0,0,1-.65-.443c-.638-.973-.234-3.292-.185-3.553a.284.284,0,1,1,.556.109c-.118.64-.33,2.443.095,3.092a.4.4,0,0,0,.275.2c.864.135,1.476-.432,2-1.845a.281.281,0,0,1,.369-.174.306.306,0,0,1,.158.392C1076.151,930.833,1075.484,932.632,1073.886,932.476Z" transform="translate(-1072.751 -924.597)" fill="#d28572"/>
          </g>
        </g>
        <g id="Grupo_97070" data-name="Grupo 97070" transform="translate(35.353 24.649)">
          <path id="Trazado_213099" data-name="Trazado 213099" d="M1170.4,963.849l-20.484-20.635-15.021.3-16.01,57.493,52.151,2.551C1171.692,988.665,1171.626,975.253,1170.4,963.849Z" transform="translate(-1111.229 -943.214)" fill="#fff"/>
          <path id="Trazado_213100" data-name="Trazado 213100" d="M1118.184,1006.552l-4.019,14.427c0,18.207-3.338,47.339-3.338,47.339,20.939,7.587,54.623,1.821,54.623,1.821,2.18-21.969,4.08-42.636,4.885-61.036Z" transform="translate(-1110.524 -948.756)" fill="#35e9d0"/>
          <path id="Trazado_213101" data-name="Trazado 213101" d="M1144.534,955.453a14.581,14.581,0,0,1-7.619-2.264,4.275,4.275,0,0,0-.4-.231.278.278,0,0,1-.275-.3.326.326,0,0,1,.333-.3c.146,0,.276.078.66.311,4.924,2.979,10.06,2.891,15.265-.267a.3.3,0,1,1,.316.519A15.888,15.888,0,0,1,1144.534,955.453Z" transform="translate(-1112.747 -944.014)" fill="#1b1b43"/>
          <path id="Trazado_213102" data-name="Trazado 213102" d="M1141.258,1078.352c-18.864,0-30.4-3.8-30.557-3.852a.3.3,0,1,1,.194-.575c.215.073,21.863,7.193,54.476,1.809a.3.3,0,1,1,.1.6A148.632,148.632,0,0,1,1141.258,1078.352Z" transform="translate(-1110.494 -954.65)" fill="#1b1b43"/>
        </g>
        <path id="Trazado_213103" data-name="Trazado 213103" d="M1130.774,942.877l-8.285.071a15.019,15.019,0,0,0-6.539,1.562l-20.985,10.4-6.473-19.017-16.742,13.2,10.052,20.821a10.641,10.641,0,0,0,8.877,5.992h0a10.641,10.641,0,0,0,5.53-1.131l15.9-8.081s1.062,35.05-6.676,55.533c0,0,16.083,4.855,27.311-.151C1132.747,1022.08,1140.333,964.423,1130.774,942.877Z" transform="translate(-1071.751 -917.924)" fill="#5254cf"/>
        <path id="Trazado_213104" data-name="Trazado 213104" d="M1195.648,1009.368c-2.124-20.638-9.029-41.388-12.348-50.472a18.413,18.413,0,0,0-5.552-7.856h0a18.456,18.456,0,0,0-7.568-3.759l-17.37-4.068c-2.385,23.844.386,51.657,3.793,79.961,0,0,26.1-1.214,34.443-6.373Z" transform="translate(-1078.766 -918.565)" fill="#5254cf"/>
        <path id="Trazado_213105" data-name="Trazado 213105" d="M1179.105,984.742a.3.3,0,0,1-.3-.256l-3.238-20.635a.3.3,0,0,1,.6-.094l3.237,20.635a.3.3,0,0,1-.253.347A.286.286,0,0,1,1179.105,984.742Z" transform="translate(-1080.835 -920.34)" fill="#1b1b43"/>
        <g id="Grupo_97071" data-name="Grupo 97071" transform="translate(83.739 58.262)">
          <path id="Trazado_213106" data-name="Trazado 213106" d="M1188.419,1019.538l-24.476-8.353,10.661-30.713,24.476,8.353Z" transform="translate(-1163.557 -980.087)" fill="#fff"/>
          <path id="Trazado_213107" data-name="Trazado 213107" d="M1188.57,1019.886l-25.05-8.549.1-.288,10.76-31,25.051,8.549-.1.288Zm-24.277-8.927,23.9,8.158,10.464-30.14-23.9-8.158Z" transform="translate(-1163.52 -980.05)" fill="#1b1b43"/>
        </g>
        <g id="Grupo_97074" data-name="Grupo 97074" transform="translate(98.675 68.852)">
          <g id="Grupo_97072" data-name="Grupo 97072">
            <line id="Línea_1214" data-name="Línea 1214" x2="12.644" y2="4.147" transform="translate(0.304 0.304)" fill="#fff"/>
            <path id="Trazado_213108" data-name="Trazado 213108" d="M1192.836,996.41a.316.316,0,0,1-.095-.015l-12.645-4.147a.3.3,0,1,1,.19-.577l12.645,4.147a.3.3,0,0,1-.095.591Z" transform="translate(-1179.888 -991.656)" fill="#1b1b43"/>
          </g>
          <g id="Grupo_97073" data-name="Grupo 97073" transform="translate(0.556 4.45)">
            <line id="Línea_1215" data-name="Línea 1215" x2="8.295" y2="2.63" transform="translate(0.304 0.304)" fill="#fff"/>
            <path id="Trazado_213109" data-name="Trazado 213109" d="M1189.1,999.771a.312.312,0,0,1-.091-.014l-8.3-2.631a.3.3,0,0,1,.184-.578l8.295,2.631a.3.3,0,0,1-.092.592Z" transform="translate(-1180.498 -996.533)" fill="#1b1b43"/>
          </g>
        </g>
        <rect id="Rectángulo_40473" data-name="Rectángulo 40473" width="7.789" height="4.305" transform="matrix(0.946, 0.324, -0.324, 0.946, 105.089, 59.757)" fill="#1b1b43"/>
        <path id="Trazado_213110" data-name="Trazado 213110" d="M1108.138,973.009a.3.3,0,0,1-.147-.569l13.958-7.738a.3.3,0,0,1,.295.531l-13.959,7.738A.3.3,0,0,1,1108.138,973.009Z" transform="translate(-1074.908 -920.442)" fill="#1b1b43"/>
        <g id="Grupo_97076" data-name="Grupo 97076" transform="translate(99.707 80.954)">
          <path id="Trazado_213111" data-name="Trazado 213111" d="M1199.106,1021.544s3.642-9.408-9.306-16.488c0,0-3.136-1.214-.809,3.54,0,0-4.957-5.664-3.743.911,0,0-3.945-3.945-1.922,3.541,0,0-3.945-2.124-1.517,6.777S1193.947,1032.266,1199.106,1021.544Z" transform="translate(-1181.019 -1004.918)" fill="#ffbc96"/>
          <g id="Grupo_97075" data-name="Grupo 97075" transform="translate(2.003 3.375)">
            <path id="Trazado_213112" data-name="Trazado 213112" d="M1194.277,1014.787a.3.3,0,0,1-.252-.135,55.046,55.046,0,0,0-4.522-5.524.3.3,0,0,1,.444-.415,55.847,55.847,0,0,1,4.583,5.6.3.3,0,0,1-.253.472Z" transform="translate(-1183.757 -1008.617)" fill="#d28572"/>
            <path id="Trazado_213113" data-name="Trazado 213113" d="M1189.377,1016.1a.3.3,0,0,1-.283-.193,20.8,20.8,0,0,0-3.581-5.67.3.3,0,1,1,.445-.412,21.006,21.006,0,0,1,3.7,5.862.3.3,0,0,1-.173.393A.309.309,0,0,1,1189.377,1016.1Z" transform="translate(-1183.408 -1008.714)" fill="#d28572"/>
            <path id="Trazado_213114" data-name="Trazado 213114" d="M1185.338,1018.349a.3.3,0,0,1-.3-.284c-.095-1.521-1.755-4.076-1.772-4.1a.3.3,0,0,1,.508-.332c.072.11,1.766,2.717,1.87,4.4a.3.3,0,0,1-.284.322Z" transform="translate(-1183.214 -1009.044)" fill="#d28572"/>
          </g>
        </g>
        <path id="Trazado_213115" data-name="Trazado 213115" d="M1159.387,984.74a.3.3,0,0,1-.3-.27c-.191-1.73-.417-3.571-.649-5.456-.8-6.5-1.627-13.228-1.376-18.161l.015-.079,2.486-7.555-4.682-7.771a.3.3,0,0,1,.52-.313l4.825,8.009-2.56,7.782c-.241,4.876.58,11.555,1.374,18.015.233,1.889.459,3.731.65,5.464a.3.3,0,0,1-.268.335A.2.2,0,0,1,1159.387,984.74Z" transform="translate(-1079.021 -918.72)" fill="#1b1b43"/>
        <path id="Trazado_213116" data-name="Trazado 213116" d="M1134.138,985.054a.325.325,0,0,1-.065-.007.3.3,0,0,1-.232-.361,58.553,58.553,0,0,0,.818-22.178l-4.813-7.681,4.728-9.559a.3.3,0,0,1,.545.269l-4.578,9.255,4.706,7.55a59.122,59.122,0,0,1-.811,22.474A.3.3,0,0,1,1134.138,985.054Z" transform="translate(-1076.834 -918.73)" fill="#1b1b43"/>
      </g>
      <g id="Grupo_97080" data-name="Grupo 97080" transform="translate(57.358)">
        <path id="Trazado_213117" data-name="Trazado 213117" d="M1151.456,941.754c-2.731,5.462-9.711,7.889-15.022.3.382-1.469.838-2.98,1.281-4.528a36.862,36.862,0,0,0,1.681-9.292c.012-.564.006-1.134-.03-1.706l11.332,1.062Z" transform="translate(-1134.769 -904.734)" fill="#ffbc96"/>
        <path id="Trazado_213118" data-name="Trazado 213118" d="M1148.289,929.627s-2.622,5.851-10.451,8.066a36.862,36.862,0,0,0,1.681-9.292Z" transform="translate(-1134.892 -904.897)" fill="#d28572"/>
        <path id="Trazado_213119" data-name="Trazado 213119" d="M1153.875,914.067l-3.842,12.745s-6.476,5.991-12.849,2.938c-1.724-.832-2.4-3.3-2.543-6.2-.042-.8-.042-1.639-.005-2.483a60.8,60.8,0,0,1,1.438-10.238l9.5-4.752Z" transform="translate(-1134.61 -902.944)" fill="#ffbc96"/>
        <path id="Trazado_213120" data-name="Trazado 213120" d="M1153.074,921.355s-9.61-5.766-10.52-11.43a65.6,65.6,0,0,0-6.7,2.2,10.66,10.66,0,0,1,10.015-9.408c8.7-.884,19.143,6.146,21.469,24.96l-16.184,8.649-.809-14.161Z" transform="translate(-1134.718 -902.643)" fill="#1b1b43"/>
        <g id="Grupo_97078" data-name="Grupo 97078" transform="translate(10.607 13.265)">
          <ellipse id="Elipse_5383" data-name="Elipse 5383" cx="4.552" cy="3.389" rx="4.552" ry="3.389" transform="translate(0 8.358) rotate(-66.643)" fill="#ffbc96"/>
          <path id="Trazado_213121" data-name="Trazado 213121" d="M1150.118,923.709a.3.3,0,0,1-.259-.461c.016-.025,1.514-2.435,3.87-1.768a.3.3,0,0,1-.166.584c-1.916-.545-3.173,1.478-3.185,1.5A.3.3,0,0,1,1150.118,923.709Z" transform="translate(-1146.548 -917.547)" fill="#1b1b43"/>
        </g>
        <g id="Grupo_97079" data-name="Grupo 97079" transform="translate(0 12.704)">
          <path id="Trazado_213122" data-name="Trazado 213122" d="M1137.222,919.829a.809.809,0,1,1-.809-.809A.809.809,0,0,1,1137.222,919.829Z" transform="translate(-1134.697 -916.78)" fill="#1b1b43"/>
          <path id="Trazado_213123" data-name="Trazado 213123" d="M1143.6,919.967a.809.809,0,1,1-.809-.809A.809.809,0,0,1,1143.6,919.967Z" transform="translate(-1135.255 -916.793)" fill="#1b1b43"/>
          <path id="Trazado_213124" data-name="Trazado 213124" d="M1139.2,925.24h-.026a3.45,3.45,0,0,1-1.647-.59,1.162,1.162,0,0,1-.425-.955,4.053,4.053,0,0,1,1.714-2.59.3.3,0,1,1,.365.484,3.489,3.489,0,0,0-1.472,2.119.553.553,0,0,0,.206.474,2.886,2.886,0,0,0,1.312.453.3.3,0,0,1-.026.6Z" transform="translate(-1134.828 -916.957)" fill="#d28572"/>
          <path id="Trazado_213125" data-name="Trazado 213125" d="M1139.12,928.174a.3.3,0,0,1-.033-.6,4.689,4.689,0,0,0,2.783-1.509.3.3,0,0,1,.47.385,5.226,5.226,0,0,1-3.186,1.727Z" transform="translate(-1134.978 -917.387)" fill="#1b1b43"/>
          <path id="Trazado_213126" data-name="Trazado 213126" d="M1134.97,917.384a1.678,1.678,0,0,1,.76-.639,2.068,2.068,0,0,1,1-.173,2.171,2.171,0,0,1,.952.308,1.961,1.961,0,0,1,.678.672.189.189,0,0,1-.205.283l-.015,0c-.295-.069-.541-.161-.785-.223a4.726,4.726,0,0,0-.7-.136,3.14,3.14,0,0,0-.7.014,5.679,5.679,0,0,0-.75.16l-.038.01a.183.183,0,0,1-.2-.274Z" transform="translate(-1134.639 -916.566)" fill="#1b1b43"/>
          <path id="Trazado_213127" data-name="Trazado 213127" d="M1144.823,918a5.933,5.933,0,0,0-1.694-.466,2.579,2.579,0,0,0-.8.056,7.2,7.2,0,0,0-.864.263l-.022.007a.185.185,0,0,1-.232-.121.188.188,0,0,1,.02-.154,1.939,1.939,0,0,1,.823-.746,2.078,2.078,0,0,1,1.144-.208,2.537,2.537,0,0,1,1.074.355,2.331,2.331,0,0,1,.787.755.183.183,0,0,1-.221.268Z" transform="translate(-1135.187 -916.571)" fill="#1b1b43"/>
          <path id="Trazado_213128" data-name="Trazado 213128" d="M1146.626,923.194a1.251,1.251,0,1,1-1.251-1.241A1.246,1.246,0,0,1,1146.626,923.194Z" transform="translate(-1135.442 -917.037)" fill="#fe5b52" opacity="0.4"/>
          <path id="Trazado_213129" data-name="Trazado 213129" d="M1135.88,923.746a1.249,1.249,0,0,1-1.238,1.245c-.042-.8-.042-1.639-.005-2.483A1.241,1.241,0,0,1,1135.88,923.746Z" transform="translate(-1134.61 -917.086)" fill="#fe5b52" opacity="0.4"/>
        </g>
        <path id="Trazado_213130" data-name="Trazado 213130" d="M1143.143,908.581a26.65,26.65,0,0,0,.285,3.339,14.2,14.2,0,0,0,.825,3.2,5.627,5.627,0,0,0,1.842,2.583,4.5,4.5,0,0,0,3.069.755h0a.118.118,0,0,1,.031.234,5.449,5.449,0,0,1-1.741.079,4.323,4.323,0,0,1-1.663-.632,5.863,5.863,0,0,1-2.1-2.8,12.991,12.991,0,0,1-.776-3.359,16.863,16.863,0,0,1-.013-3.418.119.119,0,0,1,.237.009Z" transform="translate(-1135.329 -903.153)" fill="#1b1b43"/>
        <path id="Trazado_213131" data-name="Trazado 213131" d="M1151.49,903.012a20.87,20.87,0,0,1,7.453,3.28,30,30,0,0,1,6.032,5.5l1.258,1.615c.422.536.759,1.133,1.142,1.7a35.093,35.093,0,0,1,2.037,3.541,20.237,20.237,0,0,1,.854,1.852l.808,1.872c.452,1.282.864,2.576,1.3,3.86a.118.118,0,0,1-.223.081l0-.009c-.49-1.259-.961-2.524-1.464-3.772l-.849-1.833a19.937,19.937,0,0,0-.892-1.809,39.5,39.5,0,0,0-2.049-3.467c-.382-.551-.717-1.137-1.138-1.66l-1.24-1.583a31.093,31.093,0,0,0-5.862-5.465,19.1,19.1,0,0,0-1.684-1.1c-.289-.168-.573-.349-.869-.506l-.9-.456a17.787,17.787,0,0,0-3.753-1.41l-.011,0a.119.119,0,0,1,.05-.232Z" transform="translate(-1136.074 -902.675)" fill="#1b1b43"/>
      </g>
    </g>
    <g id="Grupo_97082" data-name="Grupo 97082" transform="translate(929.276 998.56)">
      <rect id="Rectángulo_40474" data-name="Rectángulo 40474" width="23.063" height="5.159" transform="translate(23.063 34.843) rotate(180)" fill="#1b1b43"/>
      <path id="Trazado_213132" data-name="Trazado 213132" d="M1000.074,1016.937l-3.5,8.606-8.1,19.943a2.8,2.8,0,0,1-2.537,1.845H953.487l12.065-29.733a7.825,7.825,0,0,1,7.1-5.153h24.877C999.57,1012.446,1000.923,1014.837,1000.074,1016.937Z" transform="translate(-942.658 -1012.446)" fill="#cbcbff"/>
      <path id="Trazado_213133" data-name="Trazado 213133" d="M997.656,1026.8l-8.1,19.943a2.8,2.8,0,0,1-2.537,1.845H965.811C981.761,1043.277,991.672,1034.477,997.656,1026.8Z" transform="translate(-943.737 -1013.702)" fill="#1b1b43" opacity="0.1"/>
    </g>
    <g id="Grupo_97083" data-name="Grupo 97083" transform="translate(1015.456 998.56)">
      <rect id="Rectángulo_40475" data-name="Rectángulo 40475" width="23.063" height="5.159" transform="translate(34.611 29.684)" fill="#1b1b43"/>
      <path id="Trazado_213134" data-name="Trazado 213134" d="M1082.91,1047.332h-32.458a2.8,2.8,0,0,1-2.537-1.845l-7.4-18.238-4.188-10.311c-.85-2.1.5-4.491,2.543-4.491h24.884a7.822,7.822,0,0,1,7.095,5.153Z" transform="translate(-1036.064 -1012.446)" fill="#cbcbff"/>
      <path id="Trazado_213135" data-name="Trazado 213135" d="M1067.453,1048.751h-16.575a2.8,2.8,0,0,1-2.537-1.845l-7.4-18.238C1046.666,1035.393,1056.1,1044.612,1067.453,1048.751Z" transform="translate(-1036.491 -1013.865)" fill="#1b1b43" opacity="0.1"/>
    </g>
    <g id="Grupo_97088" data-name="Grupo 97088" transform="translate(865.186 1033.04)">
      <g id="Grupo_97086" data-name="Grupo 97086" transform="translate(41.691 4.217)">
        <g id="Grupo_97084" data-name="Grupo 97084">
          <rect id="Rectángulo_40476" data-name="Rectángulo 40476" width="6.949" height="146.663" transform="translate(0.303 0.303)" fill="#fff"/>
          <path id="Trazado_213136" data-name="Trazado 213136" d="M924.628,1202.123h-7.555v-147.27h7.555Zm-6.949-.607h6.342V1055.46H917.68Z" transform="translate(-917.073 -1054.853)" fill="#1b1b43"/>
        </g>
        <g id="Grupo_97085" data-name="Grupo 97085" transform="translate(158.203)">
          <rect id="Rectángulo_40477" data-name="Rectángulo 40477" width="6.949" height="146.663" transform="translate(0.304 0.303)" fill="#fff"/>
          <path id="Trazado_213137" data-name="Trazado 213137" d="M1098,1202.123h-7.556v-147.27H1098Zm-6.949-.607h6.342V1055.46h-6.342Z" transform="translate(-1090.447 -1054.853)" fill="#1b1b43"/>
        </g>
      </g>
      <g id="Grupo_97087" data-name="Grupo 97087">
        <rect id="Rectángulo_40478" data-name="Rectángulo 40478" width="248.534" height="5.766" transform="translate(0.304 0.303)" fill="#fff"/>
        <path id="Trazado_213138" data-name="Trazado 213138" d="M1120.525,1056.6H871.384v-6.373h249.141ZM871.991,1056h247.927v-5.159H871.991Z" transform="translate(-871.384 -1050.232)" fill="#1b1b43"/>
      </g>
    </g>
    <rect id="Rectángulo_40479" data-name="Rectángulo 40479" width="404.208" height="0.607" transform="translate(800.549 1183.919)" fill="#1b1b43"/>
  </g>
</svg>
