<svg xmlns="http://www.w3.org/2000/svg" width="413.85" height="308.198" viewBox="0 0 413.85 308.198">
  <g id="Grupo_97217" data-name="Grupo 97217" transform="translate(-81.608 -70.786)">
    <path id="Trazado_213371" data-name="Trazado 213371" d="M116.871,375.32c-11.667-5.715-39.559-13.772-34.7-48.335,1.558-11.081,15.792-27.949,26.174-32.124,40.061-16.108,30.506-29.647,13.162-58.876-13.488-31.154-7-86.091,23.719-102.555,19.839-10.633,55.373,4.929,76.221-3.554,22.494-9.153,24.742-34.974,46.433-45.894,65.075-32.761,160.1-2.826,163.058,70.96,5.393,134.524,110.858,83.178,37.438,222.209Z" fill="#e3e9ff"/>
    <g id="Grupo_97156" data-name="Grupo 97156" transform="translate(122.207 316.105)">
      <g id="Grupo_97151" data-name="Grupo 97151" transform="translate(5.479)">
        <path id="Trazado_213372" data-name="Trazado 213372" d="M367.43,1562.121l-.632-.312c-.249-.123-6.115-3.059-7.612-7.5a13.291,13.291,0,0,1-.684-6.122c.305-1.951,1.193-3.268,2.5-3.709,2.584-.872,5.834,2.08,7.4,6.721,1.486,4.4-.628,10.022-.719,10.259Zm-6.605-16.071a3.943,3.943,0,0,0-1.055,2.341,12,12,0,0,0,.632,5.512c1.054,3.122,4.795,5.53,6.315,6.4.5-1.59,1.517-5.576.466-8.69l.608-.205-.608.205c-1.291-3.826-3.935-6.535-5.773-5.915A1.685,1.685,0,0,0,360.825,1546.05Z" transform="translate(-358.387 -1544.331)" fill="#f7f9ff"/>
      </g>
      <g id="Grupo_97152" data-name="Grupo 97152" transform="translate(0 17.261)">
        <path id="Trazado_213373" data-name="Trazado 213373" d="M343.606,1656.054l-.627.321c-.247.127-6.1,3.08-10.558,1.633-4.658-1.513-7.647-4.731-6.8-7.324.426-1.311,1.733-2.213,3.681-2.541a13.292,13.292,0,0,1,6.129.615h0c4.419,1.436,7.666,6.487,7.8,6.7Zm-16.241-5.749a1.789,1.789,0,0,0-.527.775c-.6,1.845,2.139,4.458,5.98,5.706,3.133,1.018,7.3-.546,8.905-1.245-.98-1.347-3.568-4.546-6.693-5.562a12,12,0,0,0-5.519-.57A4.28,4.28,0,0,0,327.365,1650.305Z" transform="translate(-325.475 -1648.01)" fill="#f7f9ff"/>
      </g>
      <g id="Grupo_97153" data-name="Grupo 97153" transform="translate(16.086 9.235)">
        <path id="Trazado_213374" data-name="Trazado 213374" d="M429.811,1612.546a20.64,20.64,0,0,1-6.383,3.684l-.667.226-.163-.685c-.064-.27-1.546-6.661.915-10.644a13.294,13.294,0,0,1,4.277-4.433c1.7-1.01,3.278-1.167,4.45-.442s1.74,2.208,1.6,4.178a13.292,13.292,0,0,1-2.05,5.808h0A10.683,10.683,0,0,1,429.811,1612.546Zm-6.106,2.2c1.54-.633,5.262-2.39,6.989-5.185h0a12,12,0,0,0,1.862-5.227c.105-1.447-.256-2.538-.991-2.992s-1.871-.288-3.119.453a12,12,0,0,0-3.841,4C422.872,1608.6,423.405,1613.022,423.7,1614.748Z" transform="translate(-422.096 -1599.803)" fill="#f7f9ff"/>
      </g>
      <g id="Grupo_97155" data-name="Grupo 97155" transform="translate(11.993 14.183)">
        <g id="Grupo_97154" data-name="Grupo 97154">
          <path id="Trazado_213375" data-name="Trazado 213375" d="M411.636,1653.013l-1.515.954-.034-.036-.155.073-.516.242-.3-.483c-.743-1.19-1.441-2.332-2.074-3.393-7.924-13.261-9.332-19.425-9.388-19.68l-.138-.628,2.488-.54.13.631c.033.145,1.5,6.27,9.315,19.3.6,1,1.224,2.015,1.852,3.021Z" transform="translate(-397.515 -1629.521)" fill="#f7f9ff"/>
        </g>
      </g>
    </g>
    <path id="Trazado_213376" data-name="Trazado 213376" d="M494.524,1590.985a21.877,21.877,0,0,0-42.573-7.089,8.3,8.3,0,0,0-12.348,9.13,17.569,17.569,0,0,0-20.175,17.363c0,9.7,7.612,16.663,17.309,16.663,4.076,0,41.181-1.624,41.181-1.624S494.524,1600.375,494.524,1590.985Z" transform="translate(-281.579 -1248.881)" fill="#3f964f"/>
    <path id="Trazado_213377" data-name="Trazado 213377" d="M1871.013,1545.573a12.582,12.582,0,0,1-.213,2.32H1756.525l7.213-36.881c-5.347-3.393-8.807-8.812-8.807-14.917,0-10.276,9.807-18.607,21.9-18.607s21.9,8.331,21.9,18.607a15.923,15.923,0,0,1-.531,4.082c.869-.084,1.752-.13,2.648-.13,10.036,0,18.561,5.493,21.641,13.131a9.8,9.8,0,0,1,4.5-1.07c4.79,0,8.672,3.3,8.672,7.367a6.338,6.338,0,0,1-.266,1.812,21.87,21.87,0,0,1,2.738-.173c8.712,0,16.007,5.157,17.886,12.072a12.613,12.613,0,0,1,14.988,12.386Z" transform="translate(-1394.743 -1172.511)" fill="#3f964f"/>
    <g id="Grupo_97158" data-name="Grupo 97158" transform="translate(360.439 250.767)">
      <path id="Trazado_213378" data-name="Trazado 213378" d="M1916.543,1163.595c-3.769,4.06-11.122,5.033-11.122,5.033s-.314-8.091,3.454-12.151,8.54-5.758,10.658-3.792S1920.312,1159.535,1916.543,1163.595Z" transform="translate(-1880.613 -1151.867)" fill="#3f964f"/>
      <path id="Trazado_213379" data-name="Trazado 213379" d="M1825.432,1184.86c1.007,5.447-2.6,11.928-2.6,11.928s-6.679-4.578-7.687-10.025.479-10.289,3.32-10.814S1824.425,1179.413,1825.432,1184.86Z" transform="translate(-1805.109 -1171.901)" fill="#3f964f"/>
      <path id="Trazado_213380" data-name="Trazado 213380" d="M1765.469,1289.8c-.369.889-.67,1.483-.748,1.634a.194.194,0,0,1-.02.037v0a.008.008,0,0,1,0,0l-.023-.013c-.073-.051-.289-.2-.608-.433-1.709-1.261-6.335-5.022-7.239-9.428-1.109-5.427.286-10.3,3.116-10.874s6.026,3.351,7.136,8.775a15.866,15.866,0,0,1-.549,7.275A26.5,26.5,0,0,1,1765.469,1289.8Z" transform="translate(-1756.444 -1250.886)" fill="#3f964f"/>
      <path id="Trazado_213381" data-name="Trazado 213381" d="M1873.867,1281.145c-5.531-.311-10.972-5.353-10.972-5.353s6.03-5.4,11.56-5.093,9.882,2.9,9.72,5.787S1879.4,1281.457,1873.867,1281.145Z" transform="translate(-1845.173 -1250.905)" fill="#3f964f"/>
      <path id="Trazado_213382" data-name="Trazado 213382" d="M1814.44,1365.849c-5.533.267-11.47-4.18-11.47-4.18s5.433-6,10.967-6.27,10.131,1.856,10.27,4.742S1819.973,1365.582,1814.44,1365.849Z" transform="translate(-1795.224 -1321.495)" fill="#3f964f"/>
      <g id="Grupo_97157" data-name="Grupo 97157" transform="translate(7.62 14.22)">
        <path id="Trazado_213383" data-name="Trazado 213383" d="M1821.419,1238.457c-.063.053-5.938,5.236-15.688,21.756q-1.07,1.817-2.2,3.816l-.081-.045-.6-.337v0h-.005l-.023-.013c-.073-.051-.29-.2-.608-.433q1.272-2.245,2.463-4.251c9.719-16.4,15.468-21.441,15.727-21.665Z" transform="translate(-1802.216 -1237.28)" fill="#3f964f"/>
      </g>
    </g>
    <g id="Grupo_97160" data-name="Grupo 97160" transform="translate(137.882 209.627)">
      <path id="Trazado_213384" data-name="Trazado 213384" d="M431.11,908.477c4.057,3.592,5.178,10.762,5.178,10.762s-7.906.494-11.963-3.1-5.828-8.22-3.954-10.336S427.053,904.885,431.11,908.477Z" transform="translate(-419.624 -904.759)" fill="#3f964f"/>
      <path id="Trazado_213385" data-name="Trazado 213385" d="M454.885,1017.478c5.3-1.111,11.725,2.27,11.725,2.27s-4.323,6.637-9.627,7.748-10.073-.231-10.652-3S449.581,1018.589,454.885,1017.478Z" transform="translate(-441.836 -998.526)" fill="#3f964f"/>
      <path id="Trazado_213386" data-name="Trazado 213386" d="M558.9,1073.354c.878.34,1.465.621,1.615.694a.184.184,0,0,1,.037.019h0a.008.008,0,0,1,0,0l-.012.023c-.048.073-.188.287-.41.6-1.194,1.7-4.766,6.311-9.054,7.3-5.282,1.21-10.077-.043-10.707-2.8s3.139-5.97,8.418-7.18a15.521,15.521,0,0,1,7.128.37A26.051,26.051,0,0,1,558.9,1073.354Z" transform="translate(-520.209 -1043.948)" fill="#3f964f"/>
      <path id="Trazado_213387" data-name="Trazado 213387" d="M547.125,917.1c-.177,5.416-4.983,10.854-4.983,10.854s-5.424-5.773-5.247-11.189,2.612-9.732,5.436-9.639S547.3,911.681,547.125,917.1Z" transform="translate(-517.368 -906.728)" fill="#3f964f"/>
      <path id="Trazado_213388" data-name="Trazado 213388" d="M631.224,973.57c.388,5.405-3.824,11.314-3.824,11.314s-6-5.175-6.385-10.581,1.583-9.951,4.4-10.153S630.835,968.165,631.224,973.57Z" transform="translate(-587.446 -954.257)" fill="#3f964f"/>
      <g id="Grupo_97159" data-name="Grupo 97159" transform="translate(14.156 12.54)">
        <path id="Trazado_213389" data-name="Trazado 213389" d="M505.78,980.079c.053.061,5.257,5.687,21.638,14.842q1.8,1,3.782,2.067l-.042.08-.316.59h0v0l-.012.023c-.048.073-.188.287-.41.6q-2.224-1.193-4.215-2.311c-16.26-9.127-21.325-14.634-21.549-14.882Z" transform="translate(-504.652 -980.079)" fill="#3f964f"/>
      </g>
    </g>
    <g id="Grupo_97162" data-name="Grupo 97162" transform="translate(149.174 258.396)">
      <path id="Trazado_213390" data-name="Trazado 213390" d="M492.925,1322.042c4.013-2.21,10.04-1.066,10.04-1.066s-1.853,6.435-5.866,8.645-8.2,2.305-9.353.212S488.912,1324.252,492.925,1322.042Z" transform="translate(-487.451 -1300.205)" fill="#3f964f"/>
      <path id="Trazado_213391" data-name="Trazado 213391" d="M595.128,1303.867c.622-4.539,5.138-8.691,5.138-8.691s4.057,5.328,3.434,9.866-3.046,7.955-5.413,7.631S594.506,1308.406,595.128,1303.867Z" transform="translate(-577.079 -1278.947)" fill="#3f964f"/>
      <path id="Trazado_213392" data-name="Trazado 213392" d="M669.357,1237c.52-.6.911-.99,1.012-1.089a.153.153,0,0,1,.025-.024v0a.006.006,0,0,1,0,0l.015.016c.044.059.176.231.365.5,1.015,1.434,3.672,5.588,3.238,9.282-.537,4.55-2.9,8.012-5.268,7.731s-3.862-4.195-3.326-8.743a13.119,13.119,0,0,1,2.319-5.57A21.94,21.94,0,0,1,669.357,1237Z" transform="translate(-635.701 -1229.523)" fill="#3f964f"/>
      <path id="Trazado_213393" data-name="Trazado 213393" d="M535.922,1247.716c4.262,1.68,7.227,7.051,7.227,7.051s-6.137,2.679-10.4,1-7.007-4.844-6.131-7.067S531.66,1246.036,535.922,1247.716Z" transform="translate(-519.962 -1238.537)" fill="#3f964f"/>
      <path id="Trazado_213394" data-name="Trazado 213394" d="M603.785,1198.247c4.414,1.226,7.922,6.259,7.922,6.259s-5.825,3.3-10.239,2.078-7.474-4.087-6.834-6.389S599.371,1197.021,603.785,1198.247Z" transform="translate(-576.72 -1197.692)" fill="#3f964f"/>
      <g id="Grupo_97161" data-name="Grupo 97161" transform="translate(13.577 5.882)">
        <path id="Trazado_213395" data-name="Trazado 213395" d="M569,1248.462c.063-.025,6.022-2.571,17.965-13.013q1.311-1.149,2.721-2.424l.052.056.38.419v0l0,0,.015.016c.044.059.176.231.365.5q-1.581,1.432-3.037,2.7c-11.887,10.354-17.71,12.823-17.972,12.931Z" transform="translate(-569.002 -1233.025)" fill="#3f964f"/>
      </g>
    </g>
    <g id="Grupo_97170" data-name="Grupo 97170" transform="translate(450.902 302.47)">
      <g id="Grupo_97163" data-name="Grupo 97163" transform="translate(17.18)">
        <path id="Trazado_213396" data-name="Trazado 213396" d="M2403.426,1477.614l-.122-.646c-.048-.254-1.15-6.276,1.317-9.882,1.936-2.828,4.554-4.655,6.67-4.655a2.912,2.912,0,0,1,1.678.491c2.1,1.437,1.723,5.518-.858,9.29-2.449,3.579-7.825,5.155-8.053,5.221Zm7.865-13.985c-1.679,0-4.015,1.7-5.681,4.134-1.737,2.537-1.433,6.678-1.229,8.3,1.464-.523,5.009-2,6.741-4.529,2.129-3.11,2.665-6.6,1.171-7.624A1.738,1.738,0,0,0,2411.291,1463.629Z" transform="translate(-2403.017 -1462.431)" fill="#f7f9ff"/>
      </g>
      <g id="Grupo_97164" data-name="Grupo 97164" transform="translate(5.507 5.516)">
        <path id="Trazado_213397" data-name="Trazado 213397" d="M2341.4,1512.138l-.591-.287c-.233-.114-5.722-2.824-7.142-6.956-1.485-4.323-.763-8.356,1.643-9.183a2.746,2.746,0,0,1,.9-.148c2.268,0,4.754,2.624,6.045,6.382,1.409,4.1-.535,9.356-.618,9.577Zm-5.2-15.375a1.555,1.555,0,0,0-.506.083c-1.712.588-2.124,4.1-.9,7.66,1,2.908,4.5,5.136,5.926,5.942.454-1.487,1.387-5.212.391-8.112C2340.029,1499.158,2337.917,1496.763,2336.209,1496.763Z" transform="translate(-2332.9 -1495.564)" fill="#f7f9ff"/>
      </g>
      <g id="Grupo_97165" data-name="Grupo 97165" transform="translate(0 18.353)">
        <path id="Trazado_213398" data-name="Trazado 213398" d="M2308.692,1589.011l-.836-.138-.056-.078c-.1-.048-.233-.117-.4-.208-1.615-.856-5.5-3.208-6.72-6.54a12.412,12.412,0,0,1-.776-5.7c.241-1.828,1.039-3.076,2.247-3.516a2.748,2.748,0,0,1,.947-.165c2.251,0,4.763,2.577,6.11,6.265a12.289,12.289,0,0,1,.43,5.761,20.473,20.473,0,0,1-.465,2.443c-.174.694-.333,1.18-.385,1.333Zm-5.6-15.143a1.565,1.565,0,0,0-.536.092c-.757.276-1.293,1.2-1.469,2.547a11.2,11.2,0,0,0,.715,5.129c1.07,2.929,4.749,5.132,6.037,5.829.051-.177.107-.385.166-.62a19.331,19.331,0,0,0,.438-2.3,11.126,11.126,0,0,0-.367-5.2C2306.937,1576.223,2304.794,1573.869,2303.093,1573.869Z" transform="translate(-2299.824 -1572.67)" fill="#f7f9ff"/>
      </g>
      <g id="Grupo_97166" data-name="Grupo 97166" transform="translate(12.801 15.527)">
        <path id="Trazado_213399" data-name="Trazado 213399" d="M2385.643,1564.832c-4.087,0-8.213-2.786-8.387-2.9l-.543-.371.419-.506c.165-.2,4.1-4.89,8.449-5.291.46-.042.923-.064,1.376-.064,4.006,0,6.949,1.577,7.156,3.835.233,2.534-3.15,4.847-7.7,5.266C2386.164,1564.821,2385.9,1564.832,2385.643,1564.832Zm-7.127-3.53a15.5,15.5,0,0,0,7.127,2.331c.225,0,.448-.01.661-.03,3.753-.345,6.783-2.16,6.617-3.962-.144-1.566-2.708-2.747-5.963-2.747-.417,0-.843.02-1.266.059C2382.624,1557.236,2379.633,1560.111,2378.515,1561.3Z" transform="translate(-2376.713 -1555.696)" fill="#f7f9ff"/>
      </g>
      <g id="Grupo_97167" data-name="Grupo 97167" transform="translate(7.087 26.997)">
        <path id="Trazado_213400" data-name="Trazado 213400" d="M2350.6,1633.942a18.418,18.418,0,0,1-7.629-2.066l-.578-.312.364-.547c.144-.216,3.567-5.291,7.852-6.143a14.444,14.444,0,0,1,2.8-.284c3.311,0,5.7,1.235,6.075,3.145.5,2.5-2.627,5.149-7.11,6.04A9.158,9.158,0,0,1,2350.6,1633.942Zm-6.441-2.819a16.7,16.7,0,0,0,6.441,1.62,7.959,7.959,0,0,0,1.544-.143c3.7-.735,6.521-2.855,6.168-4.631-.255-1.284-2.27-2.181-4.9-2.181a13.194,13.194,0,0,0-2.57.261C2347.821,1626.65,2345.146,1629.822,2344.159,1631.123Z" transform="translate(-2342.393 -1624.59)" fill="#f7f9ff"/>
      </g>
      <g id="Grupo_97169" data-name="Grupo 97169" transform="translate(7.102 11.576)">
        <g id="Grupo_97168" data-name="Grupo 97168">
          <path id="Trazado_213401" data-name="Trazado 213401" d="M2344.65,1555.374l-1.562-.6.008-.046-.14-.073-.469-.249.191-.5c.47-1.22.929-2.381,1.366-3.451,5.438-13.343,9.246-17.858,9.406-18.044l.392-.456,1.8,1.551-.4.454c-.033.039-3.8,4.545-9.161,17.773-.409,1.011-.818,2.046-1.214,3.076Z" transform="translate(-2342.485 -1531.963)" fill="#f7f9ff"/>
        </g>
      </g>
    </g>
    <g id="Grupo_97171" data-name="Grupo 97171" transform="translate(327.875 95.214)">
      <path id="Trazado_213402" data-name="Trazado 213402" d="M1568.3,232.413a7.447,7.447,0,1,1,7.447-7.447A7.455,7.455,0,0,1,1568.3,232.413Zm0-13.353a5.906,5.906,0,1,0,5.906,5.906A5.913,5.913,0,0,0,1568.3,219.06Z" transform="translate(-1560.849 -217.519)" fill="#f7f9ff"/>
    </g>
    <path id="Trazado_213403" data-name="Trazado 213403" d="M649.87,1903.677H284.249a1.832,1.832,0,0,1-1.832-1.832h0a1.832,1.832,0,0,1,1.832-1.832H649.87a1.832,1.832,0,0,1,1.832,1.832h0A1.832,1.832,0,0,1,649.87,1903.677Z" transform="translate(-167.378 -1524.694)" fill="#2c2858"/>
    <g id="Grupo_97172" data-name="Grupo 97172" transform="translate(133.688 288.044)">
      <path id="Trazado_213404" data-name="Trazado 213404" d="M401.881,1390.673a7.447,7.447,0,1,1,7.447-7.447A7.455,7.455,0,0,1,401.881,1390.673Zm0-13.353a5.906,5.906,0,1,0,5.906,5.906A5.913,5.913,0,0,0,401.881,1377.32Z" transform="translate(-394.434 -1375.779)" fill="#f7f9ff"/>
    </g>
    <circle id="Elipse_5384" data-name="Elipse 5384" cx="4.472" cy="4.472" r="4.472" transform="translate(153.301 316.725) rotate(-88.494)" fill="#f7f9ff"/>
    <path id="Trazado_213405" data-name="Trazado 213405" d="M1491.945,153.086a4.472,4.472,0,1,1-4.472-4.472A4.472,4.472,0,0,1,1491.945,153.086Z" transform="translate(-1168.086 -64.871)" fill="#f7f9ff"/>
    <path id="Trazado_213406" data-name="Trazado 213406" d="M2365.655,1286.05a4.472,4.472,0,1,1-4.472-4.472A4.472,4.472,0,0,1,2365.655,1286.05Z" transform="translate(-1896.339 -1009.217)" fill="#f7f9ff"/>
    <path id="Rectángulo_40505" data-name="Rectángulo 40505" d="M31.126,0H160.993a31.126,31.126,0,0,1,31.126,31.126v193.51a31.125,31.125,0,0,1-31.125,31.125H31.125A31.125,31.125,0,0,1,0,224.637V31.126A31.126,31.126,0,0,1,31.126,0Z" transform="translate(177.121 119.62)" fill="#8ea5ed"/>
    <g id="Grupo_97173" data-name="Grupo 97173" transform="translate(159.026 134.491)">
      <rect id="Rectángulo_40506" data-name="Rectángulo 40506" width="53.128" height="50.294" transform="translate(0 19.232) rotate(-21.223)" fill="#f5a3b7"/>
      <path id="Trazado_213407" data-name="Trazado 213407" d="M737.908,488.4v53.874l3.082-.938V487.189Z" transform="translate(-706.064 -481.571)" fill="#f291a9"/>
    </g>
    <g id="Grupo_97174" data-name="Grupo 97174" transform="translate(194.107 126.504)">
      <path id="Trazado_213408" data-name="Trazado 213408" d="M934.559,643.269H802.843l-30.71-22.041V405.465H934.559Z" transform="translate(-769.671 -405.465)" fill="#5f7fcf"/>
      <path id="Trazado_213409" data-name="Trazado 213409" d="M919.773,641.457H788.058L757.348,619.6V405.616H919.773Z" transform="translate(-757.348 -405.591)" fill="#fff"/>
      <path id="Trazado_213410" data-name="Trazado 213410" d="M788.116,1692.2l-30.7-21.952,20.377-4.132Z" transform="translate(-757.406 -1456.237)" fill="#cdd8fa"/>
      <path id="Trazado_213411" data-name="Trazado 213411" d="M757.418,1690.93l33.16,23.8S765.528,1707.325,757.418,1690.93Z" transform="translate(-757.406 -1476.923)" fill="#5f7fcf"/>
    </g>
    <g id="Grupo_97175" data-name="Grupo 97175" transform="translate(228.254 95.131)">
      <path id="Trazado_213412" data-name="Trazado 213412" d="M1057.305,324.253v11.839a2.218,2.218,0,0,1-2.219,2.217H964.68a2.218,2.218,0,0,1-2.219-2.217V324.253a9.185,9.185,0,0,1,9.185-9.183h76.476a9.183,9.183,0,0,1,9.183,9.183Z" transform="translate(-962.461 -298.746)" fill="#f37a50"/>
      <path id="Trazado_213413" data-name="Trazado 213413" d="M1169.177,236.517h-39a19.5,19.5,0,1,1,39,0Z" transform="translate(-1102.254 -217.017)" fill="#f37a50"/>
      <path id="Trazado_213414" data-name="Trazado 213414" d="M1054.271,235.7l-91.81,16.437v-9.617a9.184,9.184,0,0,1,9.185-9.183h18.995a19.5,19.5,0,0,1,38.485,0h19A9.15,9.15,0,0,1,1054.271,235.7Z" transform="translate(-962.461 -217.017)" fill="#de623c"/>
      <path id="Trazado_213415" data-name="Trazado 213415" d="M1223.945,250.925a5.832,5.832,0,1,1-5.832-5.832A5.832,5.832,0,0,1,1223.945,250.925Z" transform="translate(-1170.69 -240.419)" fill="#e3e9ff"/>
    </g>
    <g id="Grupo_97180" data-name="Grupo 97180" transform="translate(201.412 160.567)">
      <g id="Grupo_97178" data-name="Grupo 97178" transform="translate(0)">
        <g id="Grupo_97176" data-name="Grupo 97176" transform="translate(2.19 3.918)">
          <path id="Trazado_213416" data-name="Trazado 213416" d="M843.463,664.265h-27.5a1.577,1.577,0,0,1-1.577-1.577v-27.5a1.577,1.577,0,0,1,1.577-1.577h27.5a1.577,1.577,0,0,1,1.577,1.577v27.5A1.577,1.577,0,0,1,843.463,664.265Zm-25.927-3.154h24.35v-24.35h-24.35Z" transform="translate(-814.382 -633.607)" fill="#8ea5ed"/>
        </g>
        <g id="Grupo_97177" data-name="Grupo 97177">
          <path id="Trazado_213417" data-name="Trazado 213417" d="M815.966,642.73l-14.737-17.081,5.228-4.51,9.558,11.079,19.47-22.147,5.185,4.558Z" transform="translate(-801.229 -610.071)" fill="#e62552"/>
        </g>
      </g>
      <g id="Grupo_97179" data-name="Grupo 97179" transform="translate(45.685 5.989)">
        <rect id="Rectángulo_40507" data-name="Rectángulo 40507" width="63.438" height="5.653" fill="#cdd8fa"/>
        <rect id="Rectángulo_40508" data-name="Rectángulo 40508" width="34.173" height="5.653" transform="translate(67.77)" fill="#cdd8fa"/>
        <rect id="Rectángulo_40509" data-name="Rectángulo 40509" width="36.404" height="5.653" transform="translate(0 11.238)" fill="#cdd8fa"/>
        <rect id="Rectángulo_40510" data-name="Rectángulo 40510" width="79.811" height="5.653" transform="translate(0 22.476)" fill="#cdd8fa"/>
        <rect id="Rectángulo_40511" data-name="Rectángulo 40511" width="61.453" height="5.653" transform="translate(40.49 11.238)" fill="#cdd8fa"/>
      </g>
    </g>
    <g id="Grupo_97185" data-name="Grupo 97185" transform="translate(201.412 223.286)">
      <g id="Grupo_97183" data-name="Grupo 97183" transform="translate(0)">
        <g id="Grupo_97181" data-name="Grupo 97181" transform="translate(2.19 3.918)">
          <path id="Trazado_213418" data-name="Trazado 213418" d="M843.463,1041h-27.5a1.577,1.577,0,0,1-1.577-1.577v-27.5a1.577,1.577,0,0,1,1.577-1.577h27.5a1.577,1.577,0,0,1,1.577,1.577v27.5A1.577,1.577,0,0,1,843.463,1041Zm-25.927-3.154h24.35v-24.351h-24.35Z" transform="translate(-814.382 -1010.338)" fill="#8ea5ed"/>
        </g>
        <g id="Grupo_97182" data-name="Grupo 97182">
          <path id="Trazado_213419" data-name="Trazado 213419" d="M815.966,1019.461l-14.737-17.082,5.228-4.51,9.558,11.079,19.47-22.147,5.185,4.558Z" transform="translate(-801.229 -986.802)" fill="#e62552"/>
        </g>
      </g>
      <g id="Grupo_97184" data-name="Grupo 97184" transform="translate(45.685 5.196)">
        <rect id="Rectángulo_40512" data-name="Rectángulo 40512" width="89.146" height="5.653" fill="#cdd8fa"/>
        <rect id="Rectángulo_40513" data-name="Rectángulo 40513" width="56.306" height="5.653" transform="translate(0 11.238)" fill="#cdd8fa"/>
        <rect id="Rectángulo_40514" data-name="Rectángulo 40514" width="22.163" height="5.653" transform="translate(0 22.475)" fill="#cdd8fa"/>
        <rect id="Rectángulo_40515" data-name="Rectángulo 40515" width="75.719" height="5.653" transform="translate(25.766 22.475)" fill="#cdd8fa"/>
        <rect id="Rectángulo_40516" data-name="Rectángulo 40516" width="40.602" height="5.653" transform="translate(60.884 11.238)" fill="#cdd8fa"/>
      </g>
    </g>
    <g id="Grupo_97190" data-name="Grupo 97190" transform="translate(201.412 285.73)">
      <g id="Grupo_97188" data-name="Grupo 97188" transform="translate(0 0)">
        <g id="Grupo_97186" data-name="Grupo 97186" transform="translate(2.19 3.918)">
          <path id="Trazado_213420" data-name="Trazado 213420" d="M843.463,1416.071h-27.5a1.577,1.577,0,0,1-1.577-1.577v-27.5a1.577,1.577,0,0,1,1.577-1.577h27.5a1.577,1.577,0,0,1,1.577,1.577v27.5A1.577,1.577,0,0,1,843.463,1416.071Zm-25.927-3.153h24.35v-24.351h-24.35Z" transform="translate(-814.382 -1385.413)" fill="#8ea5ed"/>
        </g>
        <g id="Grupo_97187" data-name="Grupo 97187">
          <path id="Trazado_213421" data-name="Trazado 213421" d="M815.966,1394.536l-14.737-17.081,5.228-4.51,9.558,11.079,19.47-22.147,5.185,4.559Z" transform="translate(-801.229 -1361.877)" fill="#e62552"/>
        </g>
      </g>
      <g id="Grupo_97189" data-name="Grupo 97189" transform="translate(45.685 4.954)">
        <rect id="Rectángulo_40517" data-name="Rectángulo 40517" width="27.354" height="5.653" fill="#cdd8fa"/>
        <rect id="Rectángulo_40518" data-name="Rectángulo 40518" width="70.844" height="5.653" transform="translate(30.379)" fill="#cdd8fa"/>
        <rect id="Rectángulo_40519" data-name="Rectángulo 40519" width="73.962" height="5.653" transform="translate(0 11.238)" fill="#cdd8fa"/>
        <rect id="Rectángulo_40520" data-name="Rectángulo 40520" width="47.026" height="5.653" transform="translate(0 22.476)" fill="#cdd8fa"/>
        <rect id="Rectángulo_40521" data-name="Rectángulo 40521" width="36.493" height="5.653" transform="translate(50.176 22.476)" fill="#cdd8fa"/>
        <rect id="Rectángulo_40522" data-name="Rectángulo 40522" width="23.288" height="5.653" transform="translate(78.198 11.238)" fill="#cdd8fa"/>
      </g>
    </g>
    <g id="Grupo_97216" data-name="Grupo 97216" transform="translate(295.224 160.46)">
      <g id="Grupo_97194" data-name="Grupo 97194" transform="translate(82.9 28.631)">
        <g id="Grupo_97193" data-name="Grupo 97193">
          <g id="Grupo_97192" data-name="Grupo 97192">
            <g id="Grupo_97191" data-name="Grupo 97191">
              <path id="Trazado_213422" data-name="Trazado 213422" d="M1905.763,798.1c-.408-5.591-5.006-5.377-5.006-5.377-3.272-.167-16.728,6.165-25.024,11.433-.161.1-.318.2-.475.3-1.4-6.736-7.131-17.291-7.854-22.952-.005-.036-.011-.07-.016-.106-1.527,1.516-3.307,2.884-4.717,4.507.113.185.183.3.188.32,1.511,5.268,2.234,25.654,7.064,28.933,3.386,2.3,30.046-9.943,30.046-9.943S1906.129,803.089,1905.763,798.1Z" transform="translate(-1862.672 -781.401)" fill="#f37a50"/>
            </g>
          </g>
        </g>
      </g>
      <g id="Grupo_97195" data-name="Grupo 97195" transform="translate(0 2.128)">
        <rect id="Rectángulo_40523" data-name="Rectángulo 40523" width="147.792" height="24.495" transform="matrix(0.976, -0.219, 0.219, 0.976, 31.394, 35.437)" fill="#b0173e"/>
        <path id="Trazado_213423" data-name="Trazado 213423" d="M2437.613,646.315l-12.751,2.855-5.351-23.9,12.751-2.854a8.35,8.35,0,0,1,9.973,6.324l1.7,7.606A8.35,8.35,0,0,1,2437.613,646.315Z" transform="translate(-2243.907 -622.208)" fill="#e62552"/>
        <rect id="Rectángulo_40524" data-name="Rectángulo 40524" width="11.686" height="24.521" transform="translate(164.839 5.441) rotate(-12.618)" fill="#f3c8b9"/>
        <path id="Trazado_213424" data-name="Trazado 213424" d="M2418.453,661.545l-.507.113a.725.725,0,0,1-.866-.549l-5.314-23.737a.725.725,0,0,1,.549-.866l.507-.114a.725.725,0,0,1,.866.549L2419,660.679A.725.725,0,0,1,2418.453,661.545Z" transform="translate(-2237.437 -634.016)" fill="#f3ae9c"/>
        <path id="Trazado_213425" data-name="Trazado 213425" d="M2385.605,669.374l-.507.114a.725.725,0,0,1-.866-.549l-5.313-23.737a.725.725,0,0,1,.549-.866l.507-.114a.726.726,0,0,1,.866.549l5.314,23.737A.725.725,0,0,1,2385.605,669.374Z" transform="translate(-2210.059 -640.542)" fill="#f3ae9c"/>
        <path id="Trazado_213426" data-name="Trazado 213426" d="M2351.05,676.738l-.507.114a.726.726,0,0,1-.866-.549l-5.314-23.737a.725.725,0,0,1,.55-.866l.507-.113a.725.725,0,0,1,.866.549l5.314,23.737A.726.726,0,0,1,2351.05,676.738Z" transform="translate(-2181.256 -646.68)" fill="#f3ae9c"/>
        <path id="Trazado_213427" data-name="Trazado 213427" d="M1402.037,846.144c-1.477-6.6-4.114-11.629-5.889-11.231l-.023.008v0l-.008,0a1.047,1.047,0,0,0-.477.289l-17.9,10.852-12.759,7.734a.528.528,0,0,0,.215.977l14.753,1.645,20.958,2.337a1.055,1.055,0,0,0,.554.062l.017,0v0l.024,0C1403.274,858.417,1403.515,852.744,1402.037,846.144Z" transform="translate(-1364.723 -799.483)" fill="#f3c8b9"/>
        <path id="Trazado_213428" data-name="Trazado 213428" d="M1379.52,906.865a17.621,17.621,0,0,1,.426,5.5l-14.753-1.645a.528.528,0,0,1-.215-.977l12.759-7.734A18.183,18.183,0,0,1,1379.52,906.865Z" transform="translate(-1364.723 -855.426)" fill="#e62552"/>
      </g>
      <path id="Trazado_213429" data-name="Trazado 213429" d="M2002.313,656.729c-4.162-5.411-3.746-16.233-.624-20.187s3.271-6.934,1.457-10.822c-4.37-9.365,12.487-17.065,19.979-16.233s22.059,4.162,22.476,15.192,1.041,11.654,6.035,14.36,6.868,11.238,5,15.192-8.533,9.365-5.827,13.735,6.036,9.989,2.289,14.776-7.7,13.943-10.613,15.192-11.862.208-11.862.208Z" transform="translate(-1893.628 -609.426)" fill="#201d40"/>
      <g id="Grupo_97198" data-name="Grupo 97198" transform="translate(126.081 31.89)">
        <g id="Grupo_97197" data-name="Grupo 97197">
          <g id="Grupo_97196" data-name="Grupo 97196">
            <path id="Trazado_213430" data-name="Trazado 213430" d="M2125.032,802.188l8.073-1.209-.643,7.493s-4.088,7.367-7.967,6.1-1.988-4.523-1.988-4.523Z" transform="translate(-2122.046 -800.979)" fill="#f37a50"/>
          </g>
        </g>
      </g>
      <g id="Grupo_97203" data-name="Grupo 97203" transform="translate(116.31 1.669)">
        <path id="Trazado_213431" data-name="Trazado 213431" d="M2089.651,649.1c-.3,8.944-4.646,14.531-11.672,14.294s-12.474-7.681-12.172-16.626,6.243-16,13.268-15.765S2089.954,640.155,2089.651,649.1Z" transform="translate(-2065.389 -629.074)" fill="#f37a50"/>
        <g id="Grupo_97199" data-name="Grupo 97199" transform="translate(11.195 15.406)">
          <path id="Trazado_213432" data-name="Trazado 213432" d="M2134.244,714.256a.458.458,0,0,1-.265-.149,3.506,3.506,0,0,0-2.857-.94.461.461,0,0,1-.521-.389.8.8,0,0,1,.732-.773,4.036,4.036,0,0,1,3.386,1.3.73.73,0,0,1-.091.84A.459.459,0,0,1,2134.244,714.256Z" transform="translate(-2130.597 -711.987)" fill="#201d40"/>
        </g>
        <g id="Grupo_97200" data-name="Grupo 97200" transform="translate(0.686 16.533)">
          <path id="Trazado_213433" data-name="Trazado 213433" d="M2067.813,720.883a.46.46,0,0,1-.264-.7,3.231,3.231,0,0,1,2.985-1.412.46.46,0,0,1-.118.913,2.309,2.309,0,0,0-2.1,1.011A.46.46,0,0,1,2067.813,720.883Z" transform="translate(-2067.472 -718.756)" fill="#201d40"/>
        </g>
        <path id="Trazado_213434" data-name="Trazado 213434" d="M2098.246,749.888a11.656,11.656,0,0,1-1.429,2.046.462.462,0,0,0-.026.633,6.338,6.338,0,0,0,3.15,1.366.123.123,0,0,0,.085-.228,5.979,5.979,0,0,1-1.739-1.351.55.55,0,0,1-.1-.489c.107-.39.316-1.183.435-1.829A.207.207,0,0,0,2098.246,749.888Z" transform="translate(-2091.129 -728.092)" fill="#de623c"/>
        <path id="Trazado_213435" data-name="Trazado 213435" d="M2107.437,783.646a.367.367,0,0,0-.433-.518,26.017,26.017,0,0,1-6.805,1.19.367.367,0,0,0-.231.634,4.578,4.578,0,0,0,7.469-1.306Z" transform="translate(-2093.775 -755.865)" fill="#fff"/>
        <path id="Trazado_213436" data-name="Trazado 213436" d="M2127.35,638.513c-8.213.56-20.234-7.394-22-11.386.522-5.337,4.295-8.748,9.422-7.371S2129.448,631.5,2127.35,638.513Z" transform="translate(-2098.355 -619.449)" fill="#201d40"/>
        <path id="Trazado_213437" data-name="Trazado 213437" d="M2072.45,639.778s-4.3,5.5-9.1,7.185c1.067-5.961,1.8-10.471,4.594-12.223a19.893,19.893,0,0,1,6.028-2.369Z" transform="translate(-2063.354 -630.22)" fill="#201d40"/>
        <g id="Grupo_97202" data-name="Grupo 97202" transform="translate(20.397 15.968)">
          <path id="Trazado_213438" data-name="Trazado 213438" d="M2186.931,716.868c-1.369,1.6-1.419,3.8-.111,4.923s3.479.733,4.848-.865,1.419-3.8.111-4.923S2188.3,715.27,2186.931,716.868Z" transform="translate(-2185.871 -715.363)" fill="#f37a50"/>
          <g id="Grupo_97201" data-name="Grupo 97201" transform="translate(1.842 1.752)">
            <path id="Trazado_213439" data-name="Trazado 213439" d="M2197.962,729.766a.459.459,0,0,1-.186-.1,2.08,2.08,0,0,1-.667-2.467,2.217,2.217,0,0,1,2.214-1.3.46.46,0,1,1-.109.914,1.313,1.313,0,0,0-1.265.765,1.178,1.178,0,0,0,.438,1.4.46.46,0,0,1-.424.789Z" transform="translate(-2196.936 -725.883)" fill="#de623c"/>
          </g>
        </g>
        <path id="Trazado_213440" data-name="Trazado 213440" d="M2078.052,735.194a1.256,1.256,0,1,1-1.39-1.106A1.256,1.256,0,0,1,2078.052,735.194Z" transform="translate(-2073.519 -714.996)"/>
        <path id="Trazado_213441" data-name="Trazado 213441" d="M2133.791,727.513a1.34,1.34,0,1,1-1.483-1.18A1.34,1.34,0,0,1,2133.791,727.513Z" transform="translate(-2119.838 -708.532)"/>
      </g>
      <g id="Grupo_97205" data-name="Grupo 97205" transform="translate(105.082 94.453)">
        <path id="Trazado_213442" data-name="Trazado 213442" d="M2052.964,1285.088c.541-5.391-2.241-46.422-2.241-46.422-7.867-36.071-4.776-61.893-4.776-61.893l13.521.95,5.329,20.384-2.528,34.041s.949,2.62,1.449,4.716c2.715,11.363.011,24.943-1.661,33.995-.775,4.194-1.98,13.01-2.011,15.013l1.06,3.4-16.455,8.041C2049.7,1292.123,2052.809,1286.632,2052.964,1285.088Z" transform="translate(-2036.536 -1176.773)" fill="#f37a50"/>
        <g id="Grupo_97204" data-name="Grupo 97204" transform="translate(0 108.736)">
          <path id="Trazado_213443" data-name="Trazado 213443" d="M2015.539,1833.509c-1.1-3.213-3.531-3.6-3.531-3.6-4.806,6.7-16.372,2.425-16.092,11.567,17.662.084,25,.284,25,.284a69.373,69.373,0,0,0-.677-9.039l-.922.165Z" transform="translate(-1995.911 -1829.912)" fill="#201d40"/>
        </g>
      </g>
      <g id="Grupo_97207" data-name="Grupo 97207" transform="translate(120.479 94.453)">
        <path id="Trazado_213444" data-name="Trazado 213444" d="M2094,1179.4l19.048-2.624c7.286,16.486,9.662,45.189,11.64,55.414,7.94,13.313,10.461,53.685,10.461,53.685l1.029,4.071-10.186,6.341c-3.272-2.525,1.814-7.887,2.141-9.4.492-2.28-15.417-47.067-15.417-47.067l-1.7-4.25c-19.432-32.095-22.62-56.358-22.62-56.358Z" transform="translate(-2088.395 -1176.773)" fill="#f37a50"/>
        <g id="Grupo_97206" data-name="Grupo 97206" transform="translate(23.452 110.358)">
          <path id="Trazado_213445" data-name="Trazado 213445" d="M2248.888,1843.249c-1.1-3.213-3.531-3.6-3.531-3.6-4.806,6.7-16.373,2.425-16.092,11.567,17.662.083,25,.284,25,.284a69.327,69.327,0,0,0-.677-9.039l-.922.164Z" transform="translate(-2229.261 -1839.652)" fill="#201d40"/>
        </g>
      </g>
      <g id="Grupo_97211" data-name="Grupo 97211" transform="translate(105.752 83.686)">
        <g id="Grupo_97210" data-name="Grupo 97210">
          <g id="Grupo_97209" data-name="Grupo 97209">
            <g id="Grupo_97208" data-name="Grupo 97208">
              <path id="Trazado_213446" data-name="Trazado 213446" d="M2062,1171.474c-1.9-6.364-7.392-46.986-24.185-59.373l-28.9,3.045c-6.678,10.809-8.121,31.79-8.977,57.612C2026.9,1162.344,2025.188,1184.6,2062,1171.474Z" transform="translate(-1999.936 -1112.101)" fill="#201d40"/>
            </g>
          </g>
        </g>
      </g>
      <g id="Grupo_97214" data-name="Grupo 97214" transform="translate(110.808 38.555)">
        <g id="Grupo_97213" data-name="Grupo 97213">
          <g id="Grupo_97212" data-name="Grupo 97212">
            <path id="Trazado_213447" data-name="Trazado 213447" d="M2033.874,882.059c0-6.329-5.485-15.81-2.855-22.2,1.915-5.139,5.677-16.733,9.776-17.516,1.664-.318,3.49,0,5.793-.635,0,0-1.2,5.367,1.5,5.584,5.212.418,7.951-6.264,7.951-6.264,2.81-.268,12.61,2.656,12.6,3.715-.03,8.29-3.676,21.7-5.879,30.658a40.229,40.229,0,0,0,.372,10.686c.834,2.692,1.854,4.233,1.86,4.815,0,0-19.318,6.563-31.609-.2C2033.391,890.7,2033.874,886.334,2033.874,882.059Z" transform="translate(-2030.305 -841.014)" fill="#8ea5ed"/>
          </g>
        </g>
      </g>
      <g id="Grupo_97215" data-name="Grupo 97215" transform="translate(136.355 83.179)">
        <path id="Trazado_213448" data-name="Trazado 213448" d="M2202.683,1113.653c-2.233,4.846-6.214,4.267-7.355,3.948-1.244-.348-2.952-.317-3.6.547-.666.889-1.012,1.879-1.9,1.572-1.24-.429-.033-3.629,2.5-3.759,0,0-1.991.067-2.647,1.076-.719,1.105-1.252,1.926-2.009,1.811a.854.854,0,0,1-.637-1.071c-.474.4-1.551.743-1.645-.011a5.857,5.857,0,0,1,4.784-6.2c-4.1-.623-4.389,3.023-5.67,3.092-.77.042-.838-.909-.679-1.523a5.523,5.523,0,0,1,4.114-3.929c1.979-.465,5.018.093,6.158,1.777,0,0,2.394.869,3.36-.6Z" transform="translate(-2183.757 -1109.052)" fill="#f37a50"/>
      </g>
      <path id="Trazado_213449" data-name="Trazado 213449" d="M2225.7,860.448s13.764,8.063,20.429,27.388c-5.986,6.636-11.029,1.684-11.029,1.684l-13.334-13.176s-3.92-4.815-2.046-10.7C2221.349,860.525,2225.7,860.448,2225.7,860.448Z" transform="translate(-2076.952 -818.657)" fill="#f37a50"/>
      <path id="Trazado_213450" data-name="Trazado 213450" d="M2266.06,1035.6l8.311-12.995s2.273-5.406,10.806-2.344c.413,4.588-.244,8.877-13.993,18.625A9.681,9.681,0,0,1,2266.06,1035.6Z" transform="translate(-2116.003 -951.08)" fill="#f37a50"/>
      <path id="Trazado_213451" data-name="Trazado 213451" d="M2225.7,860.448s13.764,8.063,20.429,27.388c-5.986,6.636-11.549,1.171-11.549,1.171l-12.815-12.663s-3.92-4.815-2.046-10.7C2221.349,860.525,2225.7,860.448,2225.7,860.448Z" transform="translate(-2076.952 -818.657)" fill="#f37a50"/>
      <path id="c" d="M1858.894,742.759a1.255,1.255,0,0,1,.363.148c0-.022.007-.044.012-.067.287-1.32,1.287-2.222,2.233-2.016a1.3,1.3,0,0,1,.43.183,1.808,1.808,0,0,1,1.829-1,1.357,1.357,0,0,1,.695.4,1.807,1.807,0,0,1,1.922-1.044,2.119,2.119,0,0,1-.886,4.079,1.514,1.514,0,0,1-.639-.311c-.376,1.116-1.274,1.837-2.13,1.651a1.3,1.3,0,0,1-.43-.183,1.807,1.807,0,0,1-1.829,1,1.342,1.342,0,0,1-.653-.361,1.545,1.545,0,0,1-1.664.963,1.79,1.79,0,0,1,.748-3.446Z" transform="translate(-1775.065 -717.702)" fill="#f37a50"/>
    </g>
  </g>
</svg>
