<svg xmlns="http://www.w3.org/2000/svg" width="505" height="140.953" viewBox="0 0 505 140.953">
  <g id="Grupo_113380" data-name="Grupo 113380" transform="translate(-2179.585 1755.994)">
    <path id="Trazado_216537" data-name="Trazado 216537" d="M3345.61-1693.582c-3.327,8.564-6.488,16.948-9.825,25.227-3.364,8.344-6.892,16.591-10.376,24.862-.516,1.226-.288,1.656.813,1.65,4.656-.025,9.311,0,13.966-.044a1.708,1.708,0,0,0,1.78-1.315c2.191-5.85,4.416-11.685,6.759-17.448,2.142-5.269,4.674-10.319,6.621-15.687,1.97-5.43,4.388-10.6,6.193-16.1.99-3.018-1.256-7.19-4.335-8.863a14.474,14.474,0,0,0-6.931-1.507c-3.47-.047-6.942-.081-10.411.016-1.627.046-2.437-.246-1.541-2.479,1.633-4.065,3.152-8.2,4.777-12.268,1.758-4.4,3.592-8.76,5.378-13.146,1.355-3.33,2.638-6.705,4.05-10,.611-1.427,1.886-1.055,2.926-1.056a84.043,84.043,0,0,1,36.88,8.088,76.041,76.041,0,0,1,26.557,21.015,60.686,60.686,0,0,1,9.318,16.247c2.352,6.033,3.4,12.318,4.377,18.849,1.058,7.094-.035,13.781-1.478,20.174a61.463,61.463,0,0,1-14.837,28.215c-15.4,16.868-33.765,24.4-54.11,25.851-2.111.15-4.226.229-6.339.309-1.384.053-1.541-.531-.9-2.041,1.88-4.452,3.514-9.061,5.444-13.479,2.543-5.821,5.244-11.672,7.064-17.759,1.693-5.661,4.421-5.811,8.21-5.644,4.9.217,9.818.1,14.727.039,5.431-.069,9.3-2.591,11.787-9.566,2.146-6.016,4.709-11.872,7.077-17.79,2.2-5.5,4.612-10.883,6.652-16.487.906-2.489,2.2-4.746,2.312-7.606.169-4.179-1-6.5-4.242-8.026a15.974,15.974,0,0,0-6.925-1.475c-8.634.005-17.272.178-25.9-.1-2.68-.087-3.881,1.312-4.781,3.873-3.209,9.139-7.281,17.767-10.682,26.8-2.53,6.721-5.271,13.344-7.956,19.988-2.782,6.885-5.993,13.528-8.549,20.529-2.183,5.981-4.855,11.667-6.887,17.726-.749,2.232-1.9,4.219-2.538,6.556a2.641,2.641,0,0,1-3.541,2.1c-13.474-3.492-25.955-9.746-36.637-20.432a65.943,65.943,0,0,1-15.045-22.5c-2.385-6.018-3.457-12.291-4.4-18.834-1.008-6.97.169-13.465,1.387-19.881a56.569,56.569,0,0,1,9.92-22.225c10.034-14.116,22.87-22.717,37.409-27.892,1.939-.69,3.923-1.194,5.892-1.754a2.023,2.023,0,0,1,.773.115c-1.647,4.058-3.29,8.048-4.89,12.063-3.528,8.849-7.011,17.725-10.557,26.564q-5.785,14.419-11.659,28.785c-3.5,8.513-6.967,17.042-10.229,25.7-1.451,3.849-1.565,3.786,1.874,3.786,3.64,0,7.282-.093,10.918.047a2.645,2.645,0,0,0,2.834-1.867c1.322-4.021,3.037-7.8,4.58-11.677,2.506-6.306,5.1-12.567,7.55-18.9,2.111-5.452,4.6-10.682,6.483-16.257.711-2.1,1.662-3.242,3.69-3.124C3339.183-1693.448,3342.3-1693.582,3345.61-1693.582Z" transform="translate(-916.414 -12.404)" fill="#0296d5"/>
    <path id="Trazado_216538" data-name="Trazado 216538" d="M2845.906-724.395c-20.131-.251-36.319-4.887-51.118-15.984a73.391,73.391,0,0,1-19.581-22.325c-8.086-13.974-9.961-29.512-6.974-45.836a57.017,57.017,0,0,1,10.163-23.414c19.867-27.269,45.35-34.939,73.641-32.638a73.514,73.514,0,0,1,39.254,15.329,72.647,72.647,0,0,1,19.615,22.294c7.959,14.076,9.943,29.538,6.945,45.865a60.456,60.456,0,0,1-10.732,24.438c-12.094,16.832-27.636,25.638-45.036,30.046C2855.8-725.026,2849.381-724.216,2845.906-724.395Zm-8.155-133.194c-18.724,1.171-40.293,8.91-55.3,34.352a48.019,48.019,0,0,0-6.514,17.38c-1.862,12.779-.868,25.067,4.927,36.49a65.031,65.031,0,0,0,17.873,22.183,67.36,67.36,0,0,0,35.009,14.531c24.013,2.552,45.936-3.668,64-24.769a52.224,52.224,0,0,0,12.016-24.561c2.555-13.786,1.5-27.127-5-39.4a65.117,65.117,0,0,0-19.507-22.745C2872.212-853.553,2858.028-857.674,2837.75-857.589Z" transform="translate(-234.592 -891.018)" fill="#047db8"/>
    <path id="Trazado_216539" data-name="Trazado 216539" d="M3872.316-1504.943c-1.448,4.513-3.9,8.111-5.463,12.119-1.149,2.943-3.056,5.581-4.48,8.427-2.215,4.428-4.329,8.907-6.428,13.392a1.476,1.476,0,0,1-1.535,1c-3.132-.02-6.264-.045-9.4,0-1.228.017-1.518-.359-.955-1.467,2.342-4.611,4.756-9.19,6.955-13.869,1.545-3.287,3.057-6.585,4.719-9.818,1.507-2.93,2.87-5.936,4.23-8.939.365-.8.949-.848,1.64-.848Z" transform="translate(-1386.275 -197.293)" fill="#0296d5"/>
    <path id="Trazado_216540" data-name="Trazado 216540" d="M2935.18-1083.2a14.647,14.647,0,0,1,10.729,3.407c3.948,3.5,4.114,6.167.063,9.393-5.1,4.057-11.048,4.757-17.346,3.037-3.254-.889-6.168-2.054-8.181-5.014-1.234-1.815-1.368-3.26-.048-5.087C2923.911-1082.322,2928.945-1083.226,2935.18-1083.2Zm-.4,12.274a6.6,6.6,0,0,0,5.383-1.728,2.652,2.652,0,0,0,.046-4.4c-2.46-2.146-7.653-2.816-10.528-1.358-2.9,1.472-3.009,4.238-.506,6.277C2930.74-1070.858,2932.39-1071,2934.78-1070.925Z" transform="translate(-616.317 -548.579)" fill="#c50d20"/>
    <path id="Trazado_216541" data-name="Trazado 216541" d="M2765.99-1083.032c1.569,0,2.922.047,4.27-.012,1.577-.069,2.167.508,2.242,2.189.1,2.18-.589,2.578-2.6,2.082a13.851,13.851,0,0,0-7.236.218c-2.342.667-3.621,1.757-3.347,4.324.258,2.421,2.249,2.992,3.964,3.269,2.3.373,4.718.022,7.073.172.658.042,1.963-1.348,2.064.563.076,1.431.5,3.11-1.733,3.483a22.868,22.868,0,0,1-10.739-.537c-2.454-.766-4.99-1.335-6.736-3.584-2.986-3.848-2.664-6.378,1.307-9.244A16.751,16.751,0,0,1,2765.99-1083.032Z" transform="translate(-476.17 -548.687)" fill="#c50d20"/>
    <path id="Trazado_216542" data-name="Trazado 216542" d="M2610.351-1082.885c.962,0,2.319.078,3.663-.019,1.791-.13,2.052.818,1.987,2.306-.08,1.8-1.133,1.141-2.108,1.039a15.977,15.977,0,0,0-6.28.094c-.736.215-1.239.376-1.221,1.264.018.929.643,1.119,1.336,1.182a33.418,33.418,0,0,1,7.065,1.656c2.007.633,2.4,2.238,2.491,3.656a3.544,3.544,0,0,1-2.21,3.575,22.9,22.9,0,0,1-10.3,1.889c-1.432-.069-2.858-.343-4.287-.341-1.469,0-1.744-.644-1.79-2-.062-1.822.341-2.274,2.254-1.878,2.785.577,5.665.887,8.467-.193.388-.15.857-.131.935-.664.1-.693-.444-.694-.9-.934a10.627,10.627,0,0,0-4.768-1.4c-2.021-.033-3.36-1.267-4.884-2.211-1.637-1.014-1.782-3.768,1.154-5.514C2603.792-1083.065,2606.863-1082.985,2610.351-1082.885Z" transform="translate(-349.074 -548.83)" fill="#c50d20"/>
    <path id="Trazado_216543" data-name="Trazado 216543" d="M2337.222-1082.963c.89,0,2.329.066,3.76-.018,1.453-.086,2.106.3,2.126,1.948.026,2.094-.133,3.2-2.74,2.324a12.816,12.816,0,0,0-7,.117c-2.134.5-3.489,1.615-3.444,3.931.035,1.789,2.122,3.771,4.195,3.855,2.358.1,4.725-.05,7.086-.009.636.011,1.9-1.01,1.8.647-.07,1.164.943,2.948-1.157,3.339-6.617,1.229-12.823.305-18.286-3.891-1.865-1.432-1.566-6.859.351-8.477C2326.721-1081.572,2330.786-1083.375,2337.222-1082.963Z" transform="translate(-118.884 -548.753)" fill="#c50d20"/>
    <path id="Trazado_216544" data-name="Trazado 216544" d="M2821.441-1533.606c.834-2.767,2.775-2.715,4.892-2.691,7.109.08,14.219.052,21.328.011,1.337-.008,2.2.014,2.176,1.819-.022,1.771-.832,1.843-2.2,1.81-3.214-.078-6.434-.1-9.647,0-1.507.05-2.649-.055-2.685-2.253-.67,2.153-2.052,2.284-3.757,2.26-6.769-.094-13.541-.04-20.312-.04-5.1,0-10.21.015-15.315-.008-1.187-.005-2.479.4-2.5-1.771-.019-2.113,1.125-1.806,2.392-1.8,7.109.01,14.22.08,21.327-.044C2819.207-1536.349,2820.795-1536.157,2821.441-1533.606Z" transform="translate(-511.329 -171.159)" fill="#116cc1"/>
    <path id="Trazado_216545" data-name="Trazado 216545" d="M2455.192-1416.676c-.508,2.919-2.2,3.544-4.933,3.517-14.709-.143-29.42-.065-44.13-.07-1.2,0-2.476.412-2.475-1.731,0-2.03,1.087-1.85,2.4-1.848q23.461.022,46.921.015C2453.719-1416.793,2454.46-1416.717,2455.192-1416.676Z" transform="translate(-186.648 -270.705)" fill="#116cc1"/>
    <path id="Trazado_216546" data-name="Trazado 216546" d="M2455.018-1612.028c-16.548,0-32.936-.013-49.324.024-1.373,0-1.914-.317-1.932-1.816-.02-1.587.687-1.727,1.972-1.724,15.46.031,30.921.066,46.381-.023C2454.855-1615.583,2454.5-1613.687,2455.018-1612.028Z" transform="translate(-186.739 -105.143)" fill="#116cc1"/>
    <path id="Trazado_216547" data-name="Trazado 216547" d="M2448.183-1376.8a15.959,15.959,0,0,1-10.246,3.5c-11.234.015-22.468,0-33.7.01-1.141,0-2.261.122-2.289-1.54-.026-1.532.686-2,2.179-2Q2426.154-1376.761,2448.183-1376.8Z" transform="translate(-185.226 -304.018)" fill="#116cc1"/>
    <path id="Trazado_216548" data-name="Trazado 216548" d="M2920.956-1264.87c0,3.294-.1,6.592.031,9.881.1,2.65-1.722,2.737-3.481,2.835-1.9.105-2.937-.772-2.918-2.865.06-6.588.032-13.176.018-19.764,0-2.125.943-3,3.115-2.85,1.936.132,3.418.292,3.276,2.884C2920.819-1271.465,2920.955-1268.164,2920.956-1264.87Z" transform="translate(-612.256 -386.629)" fill="#123a3c"/>
    <path id="Trazado_216549" data-name="Trazado 216549" d="M2464.36-1264.805c0-3.372.074-6.747-.028-10.116-.064-2.1,1.014-2.578,2.809-2.525,1.777.053,3.534.206,3.558,2.495q.106,10.242,0,20.487c-.02,2.091-1.77,2.448-3.332,2.461-1.492.012-3.071-.212-3.025-2.431C2464.413-1257.891,2464.361-1261.348,2464.36-1264.805Z" transform="translate(-237.191 -386.794)" fill="#123a3c"/>
    <path id="Trazado_216550" data-name="Trazado 216550" d="M2497.535-1536.079c-1.775,2.22-3.319,3.6-5.886,3.584-10.739-.056-21.479-.033-32.218.008-1.362.005-2.184-.074-2.17-1.845s.851-1.777,2.2-1.772C2471.974-1536.062,2484.486-1536.079,2497.535-1536.079Z" transform="translate(-231.303 -171.335)" fill="#116cc1"/>
    <path id="Trazado_216551" data-name="Trazado 216551" d="M2497.742-1492.7c-13.307,0-25.991-.021-38.674.029-1.475.006-1.623-.685-1.654-1.858-.035-1.315.415-1.731,1.763-1.725,11,.052,22.009.034,33.014.023C2494.556-1496.23,2495.918-1494.712,2497.742-1492.7Z" transform="translate(-231.429 -204.534)" fill="#116cc1"/>
    <path id="Trazado_216552" data-name="Trazado 216552" d="M2449.6-1652.116c-.6.625-1.213.411-1.758.412-13.955.012-27.91,0-41.865.027-1.423,0-2.477-.032-2.284-1.959.107-1.067.369-1.459,1.476-1.454,12.009.051,24.019-.012,36.026.135A15.153,15.153,0,0,1,2449.6-1652.116Z" transform="translate(-186.66 -72.221)" fill="#116cc1"/>
    <path id="Trazado_216553" data-name="Trazado 216553" d="M2195.876-1416.884c4.817,0,9.635.05,14.451-.027,1.432-.023,1.875.414,1.9,1.856.029,1.532-.585,1.774-1.924,1.767q-14.325-.07-28.65-.01c-1.212,0-2.044,0-2.044-1.673,0-1.635.576-1.97,2.066-1.944C2186.409-1416.835,2191.143-1416.886,2195.876-1416.884Z" transform="translate(-0.022 -270.618)" fill="#116cc1"/>
    <path id="Trazado_216554" data-name="Trazado 216554" d="M2195.8-1611.927c-4.64,0-9.28-.007-13.92.005-1.194,0-2.288.235-2.3-1.684-.009-1.77.8-1.832,2.148-1.826q14.173.055,28.346.005c1.287,0,2.165-.025,2.144,1.79-.021,1.868-1.008,1.745-2.247,1.738-4.724-.024-9.448-.01-14.173-.01Z" transform="translate(0 -105.256)" fill="#116cc1"/>
    <path id="Trazado_216555" data-name="Trazado 216555" d="M2195.829-1373.326c-4.726,0-9.452-.026-14.177.017-1.249.011-2.047-.067-2.007-1.708.036-1.453.493-1.852,1.9-1.845q14.43.075,28.861-.006c1.484-.01,1.792.5,1.851,1.883.071,1.674-.77,1.687-2,1.677C2205.449-1373.351,2200.639-1373.326,2195.829-1373.326Z" transform="translate(-0.048 -303.979)" fill="#116cc1"/>
    <path id="Trazado_216556" data-name="Trazado 216556" d="M2769.875-1612.026H2757.69c-5.82,0-11.639-.034-17.458.032-1.379.015-1.7-.5-1.688-1.772.009-1.237.25-1.782,1.658-1.772,8.771.062,17.544.111,26.314-.012C2769.045-1615.586,2768.7-1613.541,2769.875-1612.026Z" transform="translate(-465.612 -105.156)" fill="#116cc1"/>
    <path id="Trazado_216557" data-name="Trazado 216557" d="M3015.738-1611.917c-4.39,0-8.779.028-13.168-.031-.638-.009-1.85.594-1.865-.5-.014-1.042.139-2.446,1.59-2.822a7.123,7.123,0,0,1,1.757-.12c8.357-.005,16.714.026,25.07-.026,1.405-.008,2.128.139,2.094,1.86-.033,1.659-.833,1.688-2.058,1.677-4.473-.04-8.947-.016-13.421-.016Z" transform="translate(-683.991 -105.265)" fill="#116cc1"/>
    <path id="Trazado_216558" data-name="Trazado 216558" d="M2509.329-1075.064c0,2.026-.078,4.057.024,6.079.073,1.448-.223,2.059-1.9,2.052-4.658-.017-4.658.075-4.656-4.6,0-3.378.037-6.756-.018-10.133-.019-1.154.28-1.58,1.542-1.637,5.009-.227,5.007-.281,5.007,4.692Q2509.33-1076.837,2509.329-1075.064Z" transform="translate(-269.222 -548.455)" fill="#c50d20"/>
    <path id="Trazado_216559" data-name="Trazado 216559" d="M2196.189-1655.144c4.724,0,9.448.043,14.172-.029,1.365-.021,1.921.282,1.9,1.785-.021,1.4-.546,1.65-1.789,1.645q-14.425-.061-28.85,0c-1.342.005-1.94-.28-1.963-1.8-.027-1.752.979-1.6,2.108-1.6C2186.572-1655.136,2191.381-1655.143,2196.189-1655.144Z" transform="translate(-0.059 -72.151)" fill="#116cc1"/>
    <path id="Trazado_216560" data-name="Trazado 216560" d="M3017.542-1652.045c.7-3.034,2.62-3.46,5.291-3.383,6.757.193,13.524.07,20.287.059,1.13,0,2.091-.148,2.118,1.6.027,1.764-.784,1.863-2.149,1.856-8.031-.041-16.062-.018-24.092-.025C3018.512-1651.939,3018.028-1652.008,3017.542-1652.045Z" transform="translate(-698.017 -71.932)" fill="#116cc1"/>
    <path id="Trazado_216561" data-name="Trazado 216561" d="M2581.525-1224.925c0,1.35-.019,2.7,0,4.051.041,2.379-1.488,2.888-3.427,2.9-1.924.016-3.825-.034-3.833-2.719-.008-2.785-.015-5.57,0-8.356.015-2.5,1.754-2.693,3.635-2.669s3.563.32,3.613,2.737C2581.548-1227.626,2581.525-1226.275,2581.525-1224.925Z" transform="translate(-328.765 -424.893)" fill="#123a3c"/>
    <path id="Trazado_216562" data-name="Trazado 216562" d="M2804.444-1572.2c-3.461,0-6.921,0-10.381,0-1.171,0-2.118-.036-2.162-1.691-.048-1.767.9-1.875,2.219-1.871,6.583.02,13.167.031,19.75-.015a2.605,2.605,0,0,1,2.411.98c.462.676,1.046,1.523.663,2.3-.3.608-1.226.273-1.865.278C2811.534-1572.191,2807.989-1572.206,2804.444-1572.2Z" transform="translate(-510.056 -138.288)" fill="#116cc1"/>
    <path id="Trazado_216563" data-name="Trazado 216563" d="M2980.385-1572.677c.673-2.7,2.241-3.532,5-3.424,6.169.24,12.354.113,18.532.041,1.451-.017,1.636.6,1.621,1.821s-.223,1.81-1.668,1.8c-7.616-.066-15.234-.021-22.851-.027A2.14,2.14,0,0,1,2980.385-1572.677Z" transform="translate(-667.065 -138.011)" fill="#116cc1"/>
    <path id="Trazado_216564" data-name="Trazado 216564" d="M2799.883-1225.067q0-1.514,0-3.027c.006-3.039.529-3.6,3.393-3.61,2.775-.014,3.344.611,3.349,3.7,0,2.438-.024,4.877.008,7.316.031,2.329-1.417,2.793-3.32,2.726-1.858-.065-3.595-.241-3.444-2.82C2799.952-1222.2,2799.883-1223.638,2799.883-1225.067Z" transform="translate(-516.688 -424.901)" fill="#123a3c"/>
    <path id="Trazado_216565" data-name="Trazado 216565" d="M2752.747-1651.693c-4.055,0-8.111-.015-12.167.013-1.262.009-2.248.1-2.219-1.777.026-1.724.888-1.627,2.059-1.624q11.279.035,22.559,0a2.646,2.646,0,0,1,2.583,1.064c.407.636,1,1.357.7,2.035s-1.219.267-1.852.272C2760.52-1651.68,2756.633-1651.7,2752.747-1651.693Z" transform="translate(-465.459 -72.226)" fill="#116cc1"/>
    <path id="Trazado_216566" data-name="Trazado 216566" d="M2750.3-1416.894c3.3,0,6.6.051,9.9-.023,1.405-.031,1.869.407,1.907,1.865.042,1.587-.625,1.763-1.939,1.753q-9.9-.076-19.8,0c-1.386.013-1.892-.33-1.886-1.808s.514-1.86,1.919-1.821C2743.7-1416.833,2747-1416.894,2750.3-1416.894Z" transform="translate(-465.564 -270.612)" fill="#116cc1"/>
    <path id="Trazado_216567" data-name="Trazado 216567" d="M2750.254-1373.34c-3.29,0-6.581-.026-9.871.01-1.115.012-1.939,0-1.859-1.545.065-1.254.125-2.026,1.737-2.008,6.664.073,13.33.054,19.994,0,1.429-.012,1.834.47,1.886,1.894.062,1.689-.808,1.687-2.017,1.671C2756.835-1373.365,2753.544-1373.337,2750.254-1373.34Z" transform="translate(-465.591 -303.964)" fill="#116cc1"/>
    <path id="Trazado_216568" data-name="Trazado 216568" d="M3057.311-1373.315c-3.2,0-6.406-.066-9.6.03-1.4.043-1.671-.511-1.659-1.763.01-1.224.227-1.819,1.651-1.805q9.858.1,19.716,0c1.563-.017,1.5.82,1.532,1.911.035,1.14-.246,1.678-1.525,1.652C3064.052-1373.361,3060.681-1373.315,3057.311-1373.315Z" transform="translate(-721.761 -303.991)" fill="#116cc1"/>
    <path id="Trazado_216569" data-name="Trazado 216569" d="M3057.4-1413.324c-3.208,0-6.417-.046-9.624.023-1.246.027-1.833-.226-1.772-1.649.054-1.269.151-2,1.753-1.98,6.5.083,13,.068,19.5,0,1.414-.014,1.67.569,1.659,1.807-.01,1.206-.2,1.863-1.641,1.823C3063.986-1413.386,3060.692-1413.324,3057.4-1413.324Z" transform="translate(-721.722 -270.608)" fill="#116cc1"/>
    <path id="Trazado_216570" data-name="Trazado 216570" d="M3027.074-1225.092a37.541,37.541,0,0,0-.022-3.781c-.257-2.509,1.037-3.077,3.249-3.125,2.331-.051,3.18.965,3.14,3.147-.048,2.605-.017,5.212-.01,7.819.006,2.125-1.03,2.93-3.149,2.869-2.026-.058-3.417-.447-3.226-2.894C3027.159-1222.395,3027.074-1223.746,3027.074-1225.092Z" transform="translate(-705.911 -424.655)" fill="#123a3c"/>
    <path id="Trazado_216571" data-name="Trazado 216571" d="M2354.855-1224.957c0,1.519-.025,3.039.008,4.558s-.44,2.394-2.167,2.344c-1.795-.052-3.861.034-4.08-2.218a49.591,49.591,0,0,1,0-9.355c.214-2.287,2.281-2.184,4.082-2.225,1.7-.039,2.213.814,2.17,2.339S2354.854-1226.476,2354.855-1224.957Z" transform="translate(-140.616 -424.776)" fill="#123a3c"/>
    <path id="Trazado_216572" data-name="Trazado 216572" d="M2917.946-1496.13c-.023,2.7-1.1,3.693-3.73,3.578-4.8-.21-9.612-.188-14.409.005-1.943.078-2.565-1.12-3.306-2.326-.384-.625-.3-1.274.787-1.27C2904.174-1496.118,2911.06-1496.13,2917.946-1496.13Z" transform="translate(-597.016 -204.624)" fill="#116cc1"/>
    <path id="Trazado_216573" data-name="Trazado 216573" d="M3144.509-1194.759c-.02,4.174-.405,4.641-3.8,4.612-2.427-.021-3.4-1.2-3.383-4.124.014-2.882,1.007-4.022,3.521-4.045C3143.9-1198.344,3144.523-1197.743,3144.509-1194.759Z" transform="translate(-797.796 -452.712)" fill="#123a3c"/>
    <path id="Trazado_216574" data-name="Trazado 216574" d="M2632.654-1576.013c1.775,0,3.552-.053,5.322.025.681.03,1.878-.6,1.807.94-.053,1.177,0,2.508-1.7,2.545-2.449.053-4.9.032-7.351.039-1.352,0-2.7-.017-4.056,0-1.219.02-2.1-.136-2.115-1.751-.019-1.566.727-1.839,2.011-1.813C2628.6-1575.982,2630.626-1576.012,2632.654-1576.013Z" transform="translate(-370.662 -138.028)" fill="#116cc1"/>
    <path id="Trazado_216575" data-name="Trazado 216575" d="M2639.7-1453.556c-4.545.976-9.146.307-13.719.458-1.332.044-1.316-.9-1.356-1.9-.042-1.061.333-1.615,1.388-1.62,4.045-.019,8.092-.088,12.135.005,2.123.049,1.538,1.742,1.519,3.02Z" transform="translate(-370.716 -237.515)" fill="#116cc1"/>
    <path id="Trazado_216576" data-name="Trazado 216576" d="M2799.234-1453.086c-1.858,0-3.716-.028-5.573.01-1.233.026-1.823-.359-1.81-1.743.012-1.286.39-1.854,1.714-1.841,3.8.038,7.6.077,11.4-.008,1.525-.034,1.525.757,1.572,1.891.055,1.338-.414,1.779-1.73,1.714C2802.953-1453.155,2801.091-1453.086,2799.234-1453.086Z" transform="translate(-510.016 -237.505)" fill="#116cc1"/>
    <path id="Trazado_216577" data-name="Trazado 216577" d="M2923.516-1453.408c-1.683,0-3.366.016-5.048-.007-.644-.009-1.432.157-1.7-.7s-1.062-1.769-.605-2.588c.348-.625,1.4-.248,2.13-.254,3.7-.026,7.4-.058,11.1.023.75.016,2.4-.573,2.107.616-.24.988-.476,2.934-2.439,2.914C2927.218-1453.423,2925.366-1453.409,2923.516-1453.408Z" transform="translate(-613.455 -237.174)" fill="#116cc1"/>
    <path id="Trazado_216578" data-name="Trazado 216578" d="M2799.392-1492.654c-1.854,0-3.711-.057-5.562.019-1.4.057-1.924-.422-1.914-1.883.01-1.431.677-1.682,1.864-1.672,3.793.032,7.587.063,11.379-.009,1.408-.027,1.421.731,1.4,1.75-.017.97.1,1.863-1.354,1.805-1.936-.077-3.877-.019-5.815-.019Z" transform="translate(-510.071 -204.576)" fill="#116cc1"/>
    <path id="Trazado_216579" data-name="Trazado 216579" d="M2693.93-1194.155c0,3.894-.153,4.086-3.3,4.1-2.553.009-3.486-1.038-3.475-3.9.012-3.166.975-4.315,3.56-4.251C2693.475-1198.141,2693.928-1197.57,2693.93-1194.155Z" transform="translate(-422.804 -452.8)" fill="#123a3c"/>
    <path id="Trazado_216580" data-name="Trazado 216580" d="M2464.292-1572.263c-1.681,0-3.368-.085-5.042.026-1.406.094-1.924-.333-1.933-1.8s.541-1.832,1.921-1.8c3.528.085,7.062.1,10.589,0,1.435-.042,1.645.55,1.611,1.763-.032,1.146-.109,1.942-1.6,1.853-1.843-.109-3.7-.026-5.546-.026Z" transform="translate(-231.35 -138.232)" fill="#116cc1"/>
    <path id="Trazado_216581" data-name="Trazado 216581" d="M2464.635-1456.681c1.681,0,3.366.081,5.041-.023,1.414-.089,1.855.385,1.87,1.824.015,1.5-.546,1.816-1.907,1.786-3.528-.079-7.062-.1-10.588.009-1.5.047-1.591-.69-1.623-1.829-.035-1.225.231-1.881,1.661-1.794C2460.932-1456.6,2462.786-1456.682,2464.635-1456.681Z" transform="translate(-231.441 -237.466)" fill="#116cc1"/>
    <path id="Trazado_216582" data-name="Trazado 216582" d="M3053.148-1492.7c-1.768,0-3.54-.08-5.3.025-1.4.084-1.883-.349-1.9-1.814-.02-1.554.63-1.782,1.949-1.755,3.534.071,7.071.088,10.6,0,1.428-.036,1.646.59,1.656,1.8.01,1.26-.316,1.854-1.7,1.772C3056.688-1492.776,3054.916-1492.7,3053.148-1492.7Z" transform="translate(-721.677 -204.538)" fill="#116cc1"/>
    <path id="Trazado_216583" data-name="Trazado 216583" d="M3053.157-1453.166c-1.775,0-3.556-.086-5.324.026-1.417.09-1.866-.354-1.874-1.81-.008-1.517.562-1.836,1.934-1.807,3.548.075,7.1.093,10.649-.017,1.517-.047,1.57.7,1.615,1.849.049,1.275-.277,1.865-1.676,1.784C3056.711-1453.242,3054.932-1453.165,3053.157-1453.166Z" transform="translate(-721.689 -237.417)" fill="#116cc1"/>
    <path id="Trazado_216584" data-name="Trazado 216584" d="M2237.309-1194.4c0-3.278.521-3.9,3.259-3.9,2.949,0,3.469.651,3.463,4.343-.005,3.123-.634,3.8-3.538,3.826C2237.633-1190.113,2237.309-1190.547,2237.309-1194.4Z" transform="translate(-48.084 -452.724)" fill="#123a3c"/>
    <path id="Trazado_216585" data-name="Trazado 216585" d="M2243.009-1575.761c1.516,0,3.031,0,4.547,0,1.161,0,2.25-.272,2.253,1.674,0,1.967-.995,1.913-2.356,1.892-2.947-.045-5.894-.037-8.841,0-1.331.016-2.393.143-2.384-1.865.009-2.148,1.321-1.669,2.487-1.691C2240.145-1575.781,2241.577-1575.761,2243.009-1575.761Z" transform="translate(-47.183 -138.282)" fill="#116cc1"/>
    <path id="Trazado_216586" data-name="Trazado 216586" d="M2243.222-1456.685c1.687,0,3.379.086,5.059-.026,1.387-.093,1.723.457,1.664,1.741-.052,1.112-.007,1.926-1.552,1.879-3.455-.1-6.919-.138-10.371,0-1.627.066-1.477-.826-1.551-1.866-.092-1.28.316-1.842,1.693-1.756C2239.844-1456.606,2241.536-1456.685,2243.222-1456.685Z" transform="translate(-47.375 -237.462)" fill="#116cc1"/>
    <path id="Trazado_216587" data-name="Trazado 216587" d="M2242.909-1492.731c-1.6,0-3.2-.077-4.791.025-1.321.085-1.742-.367-1.735-1.694.007-1.373.361-1.929,1.844-1.882,3.276.1,6.559.1,9.835,0,1.425-.041,1.862.386,1.854,1.831-.01,1.52-.644,1.809-1.963,1.738C2246.277-1492.8,2244.591-1492.732,2242.909-1492.731Z" transform="translate(-47.313 -204.505)" fill="#116cc1"/>
    <path id="Trazado_216588" data-name="Trazado 216588" d="M2242.926-1532.6c-1.518,0-3.043-.083-4.554.024-1.478.1-2.086-.282-2.068-1.923.019-1.6.741-1.713,2-1.69,3.289.06,6.582.08,9.869-.023,1.434-.045,1.677.575,1.64,1.791-.033,1.114-.033,1.965-1.578,1.85C2246.477-1532.7,2244.7-1532.6,2242.926-1532.6Z" transform="translate(-47.247 -171.246)" fill="#116cc1"/>
    <path id="Trazado_216589" data-name="Trazado 216589" d="M2942.309-1416.854c.023,3.075-1.48,3.875-4.038,3.6-1.9-.2-4.068.57-5.2-1.808-.543-1.146-.615-1.892,1.069-1.813,2.027.1,4.062.021,6.094.02Z" transform="translate(-627.369 -270.65)" fill="#116cc1"/>
    <path id="Trazado_216590" data-name="Trazado 216590" d="M2951.469-1376.856c1.365.019,2.971-1.029,3.542.362.252.614-1.01,2.648-1.649,2.679C2951.457-1373.725,2952.469-1375.959,2951.469-1376.856Z" transform="translate(-642.978 -303.689)" fill="#116cc1"/>
    <path id="Trazado_216591" data-name="Trazado 216591" d="M2714.714-1438.287l.1.041s-.069-.011-.067-.01Z" transform="translate(-445.762 -252.818)" fill="#116cc1"/>
    <path id="Trazado_216592" data-name="Trazado 216592" d="M2929.165-595.729c1.978,2.075,3.677,1.625,5.688.34,3.718-2.376,7.6-4.508,11.456-6.652a3.023,3.023,0,0,0,1.771-3.154c-.071-1.994-.934-4.593.371-5.855s3.87-.356,5.88-.377c5.271-.056,5.271-.019,5.271,5.188,0,3.384.087,6.771-.038,10.15-.06,1.629.515,2.017,2.033,1.944,2.448-.118,4.907.03,7.358-.056,1.356-.048,1.674.474,1.714,1.764.167,5.336.212,5.335-4.973,5.335-5.161,0-10.323-.079-15.482.042-1.835.043-2.372-.574-2.219-2.309.133-1.511.022-3.043.026-4.566,0-1.364-.37-1.6-1.636-.841-5.082,3.033-10.331,5.8-15.3,9.005-1.766,1.141-2.852.71-4.268-.126-4.6-2.713-9.213-5.4-13.818-8.1-.647-.38-1.144-.941-1.841.112-2.808,4.242-7.1,5.926-11.911,6.474-5.309.605-10.651.138-15.976.276-1.255.032-1.777-.412-1.765-1.773.061-6.936.043-13.874.012-20.81,0-1,.225-1.732,1.322-1.7,6.493.188,13.058-.795,19.462.664,3.5.8,6.747,2.495,8.741,5.771.65,1.068,1.17.775,2.022.274,4.313-2.536,8.822-4.773,12.951-7.573,2.366-1.6,4.049-1.42,6.251,0,3.152,2.033,3.228,1.915.024,3.8-3.379,1.988-6.779,3.941-10.119,5.993-.676.415-2.468.461-1.558,1.781a2.491,2.491,0,0,0,3.542.654c2.675-1.7,5.453-3.23,8.178-4.848,1.507-.894,3.064-1.724,4.474-2.754,1.951-1.426,3.353-.018,4.733.876.94.608,2.7.741,2.674,1.923-.021,1.123-1.722,1.413-2.678,2C2937.5-600.4,2933.348-598.117,2929.165-595.729Zm-36.474-3.865c0,6.016,1.255,6.9,6.6,4.678,2.637-1.1,3.8-3.2,3.154-5.677-.669-2.549-4.529-4.522-8.33-3.989-2.969.416-.73,2.881-1.411,4.239C2892.6-600.142,2892.691-599.846,2892.691-599.594Z" transform="translate(-330.067 -1086.927)" fill="#047db8"/>
    <path id="Trazado_216593" data-name="Trazado 216593" d="M3434.591-589.671c0-3.464.05-6.929-.026-10.391-.028-1.307.365-1.8,1.71-1.756,2.7.081,5.41.1,8.109-.006,1.444-.056,1.869.419,1.842,1.848-.083,4.307.095,8.622-.082,12.923-.09,2.178.636,2.752,2.695,2.578,2.181-.184,4.394.04,6.585-.069,1.482-.074,1.82.5,1.844,1.9.09,5.2.142,5.2-5.118,5.2-5.239,0-10.478-.045-15.715.03-1.435.021-1.912-.409-1.873-1.859C3434.653-582.742,3434.591-586.207,3434.591-589.671Z" transform="translate(-790.758 -1096.578)" fill="#047db8"/>
  </g>
</svg>
