<svg xmlns="http://www.w3.org/2000/svg" width="384.759" height="179.101" viewBox="0 0 384.759 179.101">
  <g id="Grupo_100558" data-name="Grupo 100558" transform="translate(-652.094 -572.564)">
    <rect id="Rectángulo_40982" data-name="Rectángulo 40982" width="352.658" height="124.324" rx="62.162" transform="translate(661.131 582.033)" fill="#f9ee28"/>
    <g id="Grupo_100547" data-name="Grupo 100547" transform="translate(652.094 572.565)">
      <path id="Trazado_218570" data-name="Trazado 218570" d="M1206.92,576.644h-57.764a2.04,2.04,0,0,1,0-4.079h57.764a2.04,2.04,0,0,1,0,4.079Z" transform="translate(-1040.507 -572.565)" fill="#231f20"/>
      <path id="Trazado_218571" data-name="Trazado 218571" d="M1463.548,576.644h-74.771a2.04,2.04,0,0,1,0-4.079h74.771a2.04,2.04,0,0,1,0,4.079Z" transform="translate(-1228.522 -572.565)" fill="#231f20"/>
      <path id="Trazado_218572" data-name="Trazado 218572" d="M729.566,700.968H716.3a64.2,64.2,0,0,1,0-128.4h30.56a2.04,2.04,0,1,1,0,4.079H716.3a60.122,60.122,0,0,0,0,120.244h13.271a2.04,2.04,0,0,1,0,4.079Z" transform="translate(-652.094 -572.565)" fill="#231f20"/>
      <path id="Trazado_218573" data-name="Trazado 218573" d="M1168.717,1153.916h-28.129a2.04,2.04,0,1,1,0-4.079h28.129a2.04,2.04,0,0,1,0,4.079Z" transform="translate(-1033.784 -1025.513)" fill="#231f20"/>
      <path id="Trazado_218574" data-name="Trazado 218574" d="M1493.613,700.968H1353.8a2.04,2.04,0,0,1,0-4.079h139.815a60.122,60.122,0,1,0,0-120.244H1472.07a2.04,2.04,0,0,1,0-4.079h21.543a64.2,64.2,0,0,1,0,128.4Z" transform="translate(-1201.076 -572.565)" fill="#231f20"/>
    </g>
    <g id="Grupo_100552" data-name="Grupo 100552" transform="translate(945.958 661.048)">
      <g id="Grupo_100548" data-name="Grupo 100548" transform="translate(14.955 15.936)">
        <path id="Trazado_218575" data-name="Trazado 218575" d="M2159.164,1094.187l-.032.023-12.49-21.356c-1.791-3.061-5.25-4.466-7.688-3.124s-2.969,4.946-1.18,8.006l2.459,4.2-.2.1-3.59-6.028c-1.812-3.043-5.471-4.4-8.13-3.017h0c-2.66,1.383-3.353,5-1.542,8.047l3.459,5.808-.243.119-4.9-7.992c-1.853-3.022-5.491-4.274-8.084-2.782h0c-2.594,1.492-3.2,5.186-1.347,8.208l2.8,4.571-15.75-22.427a5.8,5.8,0,0,0-7.984-1.685h0a5.8,5.8,0,0,0-1.013,8.1l27.835,39.385-8.253-5.2c-2.941-1.854-6.4-1.126-7.676,1.618h0c-1.28,2.744.079,6.506,3.021,8.361l19.847,12.949c9.121,6.6,20.383,7.779,28.443,2.035C2167.646,1124.466,2168.645,1107.491,2159.164,1094.187Z" transform="translate(-2091.129 -1062.508)" fill="#fff"/>
        <path id="Trazado_218576" data-name="Trazado 218576" d="M2142.261,1131.979h0c-6.558.644-13.539-1.437-19.66-5.857l-19.82-12.93c-3.506-2.21-5.095-6.756-3.523-10.123a5.9,5.9,0,0,1,4.9-3.419,7.663,7.663,0,0,1,4.786,1.209l2.313,1.458-23.783-33.651a7.624,7.624,0,0,1-1.385-5.376,6.655,6.655,0,0,1,2.729-4.666,6.564,6.564,0,0,1,3.164-1.179,7.493,7.493,0,0,1,6.771,3.191l9.484,13.5c.024-.116.05-.233.079-.348a6.2,6.2,0,0,1,2.9-3.908,6.115,6.115,0,0,1,2.472-.785,7.669,7.669,0,0,1,5.713,1.936q.057-.3.14-.592a6.077,6.077,0,0,1,3.036-3.789,6.213,6.213,0,0,1,2.27-.668,7.827,7.827,0,0,1,5.47,1.69,7.246,7.246,0,0,1,.159-.726,5.7,5.7,0,0,1,2.708-3.543,5.5,5.5,0,0,1,2.131-.655c2.786-.273,5.775,1.453,7.438,4.3l12.324,21.072a1.309,1.309,0,0,1,.131.156,34.726,34.726,0,0,1,6.714,21.977c-.447,7.592-3.741,13.945-9.274,17.888A21.229,21.229,0,0,1,2142.261,1131.979Zm-37.829-29.546a3.13,3.13,0,0,0-2.642,1.819c-.979,2.1.165,5.116,2.5,6.587l19.866,12.961.056.038c5.574,4.033,11.887,5.937,17.775,5.359h0a18.458,18.458,0,0,0,9.034-3.33c4.831-3.442,7.709-9.044,8.106-15.775a31.86,31.86,0,0,0-6.028-19.945,1.3,1.3,0,0,1-.272-.327l-12.491-21.356c-1.1-1.888-3.059-3.091-4.751-2.925a2.727,2.727,0,0,0-1.055.321,2.926,2.926,0,0,0-1.362,1.837,5.673,5.673,0,0,0,.715,4.239l2.459,4.2a1.4,1.4,0,0,1-.591,1.961l-.2.1a1.4,1.4,0,0,1-1.817-.54l-3.59-6.028a5.594,5.594,0,0,0-5.03-2.858,3.432,3.432,0,0,0-1.254.366,3.289,3.289,0,0,0-1.637,2.073,5.185,5.185,0,0,0,.652,4.018l3.459,5.808a1.4,1.4,0,0,1-.585,1.97l-.243.12a1.4,1.4,0,0,1-1.809-.524l-4.9-7.992a5.369,5.369,0,0,0-4.844-2.726,3.334,3.334,0,0,0-1.35.425,3.413,3.413,0,0,0-1.581,2.175,5.382,5.382,0,0,0,.729,4.09l2.8,4.571a1.4,1.4,0,0,1-2.336,1.534l-15.75-22.427a4.687,4.687,0,0,0-4.214-2.023,3.711,3.711,0,0,0-1.815.673,3.891,3.891,0,0,0-1.577,2.736,4.838,4.838,0,0,0,.891,3.411l27.838,39.389a1.4,1.4,0,0,1-1.888,1.99l-8.252-5.2A4.861,4.861,0,0,0,2104.432,1102.433Z" transform="translate(-2086.031 -1057.412)" fill="#231f20"/>
      </g>
      <g id="Grupo_100551" data-name="Grupo 100551" transform="translate(0 0)">
        <path id="Trazado_218577" data-name="Trazado 218577" d="M2055.7,992.893a1.154,1.154,0,0,0-.388,1.581l4.284,7.07a1.151,1.151,0,0,0,1.969-1.193l-4.284-7.07A1.154,1.154,0,0,0,2055.7,992.893Z" transform="translate(-2046.842 -990.723)" fill="#231f20"/>
        <g id="Grupo_100549" data-name="Grupo 100549" transform="translate(18.598)">
          <path id="Trazado_218578" data-name="Trazado 218578" d="M2105.954,983.441a1.154,1.154,0,0,0-1.355.9l-1.628,8.1a1.151,1.151,0,1,0,2.257.454l1.629-8.1A1.155,1.155,0,0,0,2105.954,983.441Z" transform="translate(-2102.948 -983.419)" fill="#231f20"/>
          <path id="Trazado_218579" data-name="Trazado 218579" d="M2131.475,1014.78a1.154,1.154,0,0,0-1.617-.181l-6.46,5.158a1.151,1.151,0,0,0,1.436,1.8l6.46-5.158A1.155,1.155,0,0,0,2131.475,1014.78Z" transform="translate(-2118.656 -1007.687)" fill="#231f20"/>
        </g>
        <g id="Grupo_100550" data-name="Grupo 100550" transform="translate(0 11.324)">
          <path id="Trazado_218580" data-name="Trazado 218580" d="M2016.638,1036.827a1.154,1.154,0,0,1,1.427-.784l7.938,2.308a1.151,1.151,0,1,1-.643,2.21l-7.938-2.308A1.154,1.154,0,0,1,2016.638,1036.827Z" transform="translate(-2016.592 -1035.998)" fill="#231f20"/>
          <path id="Trazado_218581" data-name="Trazado 218581" d="M2024.453,1077.392a1.155,1.155,0,0,1,.588-1.518l7.562-3.338a1.151,1.151,0,0,1,.93,2.106l-7.563,3.338A1.154,1.154,0,0,1,2024.453,1077.392Z" transform="translate(-2022.684 -1064.59)" fill="#231f20"/>
        </g>
      </g>
    </g>
    <g id="Grupo_100557" data-name="Grupo 100557" transform="translate(683.531 602.692)">
      <g id="Grupo_100556" data-name="Grupo 100556" transform="translate(0 0)">
        <circle id="Elipse_5410" data-name="Elipse 5410" cx="4.549" cy="4.549" r="4.549" transform="translate(12.154 53.296) rotate(-22.198)" fill="#231f20"/>
        <circle id="Elipse_5411" data-name="Elipse 5411" cx="4.549" cy="4.549" r="4.549" transform="translate(35.647 58.219) rotate(-67.191)" fill="#231f20"/>
        <g id="Grupo_100553" data-name="Grupo 100553" transform="translate(58.045)">
          <path id="Trazado_218582" data-name="Trazado 218582" d="M1078.888,716.368h-8.909a1.521,1.521,0,0,1-1.516-1.516h0a1.521,1.521,0,0,1,1.516-1.516h8.909a1.521,1.521,0,0,1,1.517,1.516h0A1.521,1.521,0,0,1,1078.888,716.368Z" transform="translate(-1068.274 -713.145)" fill="#231f20"/>
          <path id="Trazado_218583" data-name="Trazado 218583" d="M1078.2,715.866h-8.909a1.706,1.706,0,0,1,0-3.412h8.909a1.706,1.706,0,1,1,0,3.412Zm-8.909-3.033a1.327,1.327,0,0,0,0,2.654h8.909a1.327,1.327,0,0,0,0-2.654Z" transform="translate(-1067.584 -712.454)" fill="#231f20"/>
        </g>
        <g id="Grupo_100554" data-name="Grupo 100554" transform="translate(9.803 46.185)">
          <path id="Trazado_218584" data-name="Trazado 218584" d="M881.71,930.817H845.979a1.521,1.521,0,0,1-1.516-1.517h0a1.521,1.521,0,0,1,1.516-1.516H881.71a1.521,1.521,0,0,1,1.516,1.516h0A1.521,1.521,0,0,1,881.71,930.817Z" transform="translate(-844.273 -927.594)" fill="#231f20"/>
          <path id="Trazado_218585" data-name="Trazado 218585" d="M881.02,930.316H845.289a1.706,1.706,0,0,1,0-3.412H881.02a1.706,1.706,0,0,1,0,3.412Zm-35.731-3.033a1.327,1.327,0,1,0,0,2.654H881.02a1.327,1.327,0,1,0,0-2.654Z" transform="translate(-843.583 -926.904)" fill="#231f20"/>
        </g>
        <rect id="Rectángulo_40983" data-name="Rectángulo 40983" width="2.275" height="28.887" transform="matrix(0.976, -0.219, 0.219, 0.976, 11.547, 11.301)" fill="#231f20"/>
        <rect id="Rectángulo_40984" data-name="Rectángulo 40984" width="28.19" height="2.275" transform="translate(27.646 39.226) rotate(-89.309)" fill="#231f20"/>
        <rect id="Rectángulo_40985" data-name="Rectángulo 40985" width="28.499" height="2.274" transform="translate(39.014 39.072) rotate(-81.518)" fill="#231f20"/>
        <rect id="Rectángulo_40986" data-name="Rectángulo 40986" width="52.605" height="2.275" transform="matrix(1, -0.004, 0.004, 1, 2.396, 18.921)" fill="#231f20"/>
        <rect id="Rectángulo_40987" data-name="Rectángulo 40987" width="48.297" height="2.275" transform="translate(5.275 28.115) rotate(-0.148)" fill="#231f20"/>
        <g id="Grupo_100555" data-name="Grupo 100555" transform="translate(45.829)">
          <path id="Trazado_218586" data-name="Trazado 218586" d="M1011.794,760.5l11.979-46.028a1.521,1.521,0,0,1,1.85-1.085h0a1.521,1.521,0,0,1,1.086,1.849l-11.979,46.028a1.521,1.521,0,0,1-1.849,1.086h0A1.521,1.521,0,0,1,1011.794,760.5Z" transform="translate(-1011.555 -713.146)" fill="#231f20"/>
          <path id="Trazado_218587" data-name="Trazado 218587" d="M1012.567,761.894a1.709,1.709,0,0,1-1.648-2.135L1022.9,713.73a1.706,1.706,0,1,1,3.3.86l-11.98,46.028A1.708,1.708,0,0,1,1012.567,761.894Zm11.984-49.061a1.329,1.329,0,0,0-1.286.993l-11.98,46.028a1.327,1.327,0,0,0,2.569.668l11.979-46.028a1.329,1.329,0,0,0-.95-1.618A1.315,1.315,0,0,0,1024.551,712.833Z" transform="translate(-1010.863 -712.454)" fill="#231f20"/>
        </g>
        <path id="Trazado_218588" data-name="Trazado 218588" d="M847.85,791.611H806.2l-8.132-26.429v-.171a3.206,3.206,0,0,1,2.576-2.844c1.8-.545,42.021-.175,54.307-.049l-.024,2.274c-20.461-.211-51.557-.394-53.655-.039a1.372,1.372,0,0,0-.892.606l7.5,24.377H847.85Z" transform="translate(-798.066 -751.234)" fill="#231f20"/>
      </g>
    </g>
    <text id="COMPRAR" transform="translate(757.094 614.328)" fill="#12263f" font-size="40" font-family="Roboto-Black, Roboto" font-weight="800"><tspan x="0" y="38">COMPRAR</tspan></text>
  </g>
</svg>
