<svg id="Grupo_98512" data-name="Grupo 98512" xmlns="http://www.w3.org/2000/svg" xmlns:xlink="http://www.w3.org/1999/xlink" width="505" height="169" viewBox="0 0 505 169">
  <defs>
    <clipPath id="clip-path">
      <rect id="Rectángulo_40830" data-name="Rectángulo 40830" width="169" height="169" fill="none"/>
    </clipPath>
    <clipPath id="clip-path-2">
      <rect id="Rectángulo_40849" data-name="Rectángulo 40849" width="168" height="169" transform="translate(-0.095)" fill="none"/>
    </clipPath>
    <clipPath id="clip-path-3">
      <rect id="Rectángulo_40888" data-name="Rectángulo 40888" width="168" height="168" transform="translate(-0.047)" fill="#5d5aae"/>
    </clipPath>
  </defs>
  <g id="Grupo_98367" data-name="Grupo 98367">
    <g id="Grupo_98366" data-name="Grupo 98366" clip-path="url(#clip-path)">
      <rect id="Rectángulo_40812" data-name="Rectángulo 40812" width="169" height="169" fill="#bbabf5"/>
      <path id="Trazado_216936" data-name="Trazado 216936" d="M153.833,192.745a3.744,3.744,0,0,1-3.745,3.745H33.245a3.744,3.744,0,0,1-3.745-3.745h0A3.745,3.745,0,0,1,33.245,189H150.088a3.745,3.745,0,0,1,3.745,3.745Z" transform="translate(-7.405 -47.44)" fill="#9f8aeb"/>
      <path id="Rectángulo_40813" data-name="Rectángulo 40813" d="M6.218,0H44.462A6.218,6.218,0,0,1,50.68,6.218V8.686A6.217,6.217,0,0,1,44.463,14.9H6.218A6.218,6.218,0,0,1,0,8.685V6.218A6.218,6.218,0,0,1,6.218,0Z" transform="translate(58.922 139.765)" fill="#9f8aeb"/>
      <g id="Grupo_98365" data-name="Grupo 98365" transform="translate(26.601 -34.586)">
        <g id="Grupo_98340" data-name="Grupo 98340" transform="translate(35.174 172.438)">
          <g id="Grupo_98339" data-name="Grupo 98339">
            <path id="Trazado_216937" data-name="Trazado 216937" d="M123.038,184.049H86.892a4.416,4.416,0,0,0-4.415,4.413h44.974A4.414,4.414,0,0,0,123.038,184.049Z" transform="translate(-82.477 -184.049)" fill="#ddd"/>
          </g>
        </g>
        <rect id="Rectángulo_40814" data-name="Rectángulo 40814" width="44.974" height="9.681" transform="translate(35.174 176.851)" fill="#ddd"/>
        <path id="Trazado_216938" data-name="Trazado 216938" d="M150.837,83.437V76.9a3.205,3.205,0,0,0-3.2-3.206H38.721a3.206,3.206,0,0,0-3.2,3.206v6.533Z" transform="translate(-35.516 16.087)" fill="#fff"/>
        <g id="Grupo_98341" data-name="Grupo 98341" transform="translate(36.266 91.069)">
          <rect id="Rectángulo_40815" data-name="Rectángulo 40815" width="42.789" height="2.032" fill="#c1bfb2"/>
          <rect id="Rectángulo_40816" data-name="Rectángulo 40816" width="42.789" height="0.836" transform="translate(0 1.245)" fill="#444443"/>
        </g>
        <g id="Grupo_98349" data-name="Grupo 98349" transform="translate(0 94.128)">
          <g id="Grupo_98348" data-name="Grupo 98348" transform="translate(0 0)">
            <g id="Grupo_98347" data-name="Grupo 98347">
              <g id="Grupo_98343" data-name="Grupo 98343" transform="translate(45.111 77.383)">
                <g id="Grupo_98342" data-name="Grupo 98342">
                  <rect id="Rectángulo_40817" data-name="Rectángulo 40817" width="25.099" height="6.266" fill="#a9a9a9"/>
                </g>
              </g>
              <rect id="Rectángulo_40818" data-name="Rectángulo 40818" width="115.322" height="77.383" rx="4.279" fill="#52544f"/>
              <path id="Trazado_216939" data-name="Trazado 216939" d="M35.516,172.294v4.672a3.205,3.205,0,0,0,3.2,3.2H147.632a3.205,3.205,0,0,0,3.2-3.2v-4.672Z" transform="translate(-35.516 -102.789)" fill="#fff"/>
              <rect id="Rectángulo_40819" data-name="Rectángulo 40819" width="104.962" height="59.11" transform="translate(5.146 5.216)" fill="#517e93"/>
              <g id="Grupo_98344" data-name="Grupo 98344" transform="translate(35.174 87.991)">
                <path id="Trazado_216940" data-name="Trazado 216940" d="M123.037,196.975H86.892a4.415,4.415,0,0,0-4.415,4.413h44.974A4.415,4.415,0,0,0,123.037,196.975Z" transform="translate(-82.477 -196.975)" fill="#fff"/>
              </g>
              <g id="Grupo_98346" data-name="Grupo 98346" transform="translate(54.105 72.07)">
                <g id="Grupo_98345" data-name="Grupo 98345">
                  <path id="Trazado_216941" data-name="Trazado 216941" d="M114.863,177.319a1.6,1.6,0,0,1-1.6,1.6h-3.9a1.6,1.6,0,0,1-1.6-1.6h0a1.6,1.6,0,0,1,1.6-1.6h3.9a1.6,1.6,0,0,1,1.6,1.6Z" transform="translate(-107.752 -175.718)" fill="#fdb23d"/>
                </g>
              </g>
            </g>
            <rect id="Rectángulo_40820" data-name="Rectángulo 40820" width="104.962" height="2.837" transform="translate(5.146 61.488)" fill="#a9a9a9"/>
          </g>
        </g>
        <g id="Grupo_98362" data-name="Grupo 98362" transform="translate(37.82)">
          <g id="Grupo_98361" data-name="Grupo 98361">
            <g id="Grupo_98351" data-name="Grupo 98351" transform="translate(0 79.679)">
              <g id="Grupo_98350" data-name="Grupo 98350">
                <rect id="Rectángulo_40821" data-name="Rectángulo 40821" width="39.315" height="13.471" fill="#fff"/>
              </g>
            </g>
            <g id="Grupo_98360" data-name="Grupo 98360" transform="translate(5.403)">
              <path id="Trazado_216942" data-name="Trazado 216942" d="M93.283,42.461a2.666,2.666,0,0,0,2.053,3.167h0a2.669,2.669,0,0,0,3.167-2.06l3.649-17.154a2.664,2.664,0,0,0-2.052-3.166h0A2.674,2.674,0,0,0,96.931,25.3Z" transform="translate(-93.224 28.766)" fill="#ffc697"/>
              <g id="Grupo_98359" data-name="Grupo 98359" transform="translate(2.653 50.742)">
                <g id="Grupo_98358" data-name="Grupo 98358" transform="translate(0 0)">
                  <g id="Grupo_98356" data-name="Grupo 98356" transform="translate(0 0.525)">
                    <g id="Grupo_98355" data-name="Grupo 98355">
                      <g id="Grupo_98354" data-name="Grupo 98354">
                        <g id="Grupo_98353" data-name="Grupo 98353">
                          <g id="Grupo_98352" data-name="Grupo 98352">
                            <path id="Trazado_216943" data-name="Trazado 216943" d="M96.766,31.32V26.425a4.154,4.154,0,1,1,8.307,0V31.32Z" transform="translate(-96.766 -22.271)" fill="#ffc697"/>
                          </g>
                        </g>
                      </g>
                    </g>
                  </g>
                  <path id="Trazado_216944" data-name="Trazado 216944" d="M98.9,42.366V25.505a3.236,3.236,0,0,1,3.234-3.234h15.981a3.235,3.235,0,0,1,3.233,3.234V42.366Z" transform="translate(-97.303 -21.746)" fill="#ffe1c0"/>
                  <g id="Grupo_98357" data-name="Grupo 98357" transform="translate(1.368)">
                    <path id="Trazado_216945" data-name="Trazado 216945" d="M98.592,57.473a2.665,2.665,0,0,0,2.668,2.669h0a2.669,2.669,0,0,0,2.672-2.669V24.239a2.669,2.669,0,0,0-2.672-2.669h0a2.672,2.672,0,0,0-2.668,2.669Z" transform="translate(-98.592 -21.57)" fill="#ffe1c0"/>
                    <path id="Trazado_216946" data-name="Trazado 216946" d="M106.438,63.918a2.666,2.666,0,0,0,2.671,2.67h0a2.669,2.669,0,0,0,2.665-2.67v-22.6a2.5,2.5,0,0,0-2.665-2.46h0a2.5,2.5,0,0,0-2.671,2.46Z" transform="translate(-100.561 -25.909)" fill="#ffe1c0"/>
                    <path id="Trazado_216947" data-name="Trazado 216947" d="M114.283,61.65a2.666,2.666,0,0,0,2.67,2.669h0a2.67,2.67,0,0,0,2.671-2.669l0-20.771a2.661,2.661,0,0,0-2.663-2.669h0a2.67,2.67,0,0,0-2.673,2.669Z" transform="translate(-102.531 -25.746)" fill="#ffe1c0"/>
                    <path id="Trazado_216948" data-name="Trazado 216948" d="M122.222,55.612a2.488,2.488,0,0,0,2.49,2.491h0a2.492,2.492,0,0,0,2.493-2.491V33.91a2.49,2.49,0,0,0-2.493-2.49h0a2.493,2.493,0,0,0-2.49,2.494Z" transform="translate(-104.523 -24.042)" fill="#ffe1c0"/>
                    <path id="Trazado_216949" data-name="Trazado 216949" d="M123.162,62.078v.977a1.916,1.916,0,1,0,3.831,0v-.977c0-.54-.858-.977-1.916-.977S123.162,61.539,123.162,62.078Z" transform="translate(-104.759 -31.492)" fill="#ffead4"/>
                    <path id="Trazado_216950" data-name="Trazado 216950" d="M115.291,68.024V69a1.915,1.915,0,1,0,3.83,0v-.978c0-.54-.856-.977-1.915-.977S115.291,67.484,115.291,68.024Z" transform="translate(-102.784 -32.984)" fill="#ffead4"/>
                    <path id="Trazado_216951" data-name="Trazado 216951" d="M107.443,70.607v.977a1.916,1.916,0,0,0,3.832,0v-.978c0-.54-.858-.978-1.916-.976S107.443,70.068,107.443,70.607Z" transform="translate(-100.814 -33.633)" fill="#ffead4"/>
                    <path id="Trazado_216952" data-name="Trazado 216952" d="M99.6,68.024V69a1.916,1.916,0,1,0,3.831,0v-.978c0-.54-.858-.977-1.917-.977S99.6,67.484,99.6,68.024Z" transform="translate(-98.845 -32.984)" fill="#ffead4"/>
                  </g>
                </g>
              </g>
              <path id="Trazado_216953" data-name="Trazado 216953" d="M94.5-32.241l-.05,38.984,27.906.035.051-38.983a13.953,13.953,0,0,0-13.935-13.972A13.954,13.954,0,0,0,94.5-32.241Z" transform="translate(-93.532 46.177)" fill="#5d5d5d"/>
              <path id="Trazado_216954" data-name="Trazado 216954" d="M113.009,6.76l14.006.017.049-38.981a13.952,13.952,0,0,0-13.934-13.973Z" transform="translate(-98.19 46.177)" fill="#444443"/>
            </g>
          </g>
        </g>
        <g id="Grupo_98364" data-name="Grupo 98364" transform="translate(14.034 99.525)">
          <rect id="Rectángulo_40822" data-name="Rectángulo 40822" width="87.254" height="11.551" transform="translate(0 17.777)" fill="#fd6220"/>
          <rect id="Rectángulo_40823" data-name="Rectángulo 40823" width="81.414" height="26.764" transform="translate(2.92 29.328)" fill="#ed0000"/>
          <rect id="Rectángulo_40824" data-name="Rectángulo 40824" width="81.414" height="6.377" transform="translate(2.92 29.328)" fill="#c60000"/>
          <rect id="Rectángulo_40825" data-name="Rectángulo 40825" width="87.254" height="4.885" transform="translate(0 29.328)" fill="#ed0000"/>
          <g id="Grupo_98363" data-name="Grupo 98363" transform="translate(22.232 0)">
            <rect id="Rectángulo_40826" data-name="Rectángulo 40826" width="42.789" height="3.15" transform="translate(0 21.978)" fill="#c60000"/>
            <rect id="Rectángulo_40827" data-name="Rectángulo 40827" width="42.789" height="0.837" transform="translate(0 24.34)" fill="#444443"/>
            <rect id="Rectángulo_40828" data-name="Rectángulo 40828" width="39.315" height="25.127" transform="translate(1.554)" fill="#fff"/>
          </g>
          <rect id="Rectángulo_40829" data-name="Rectángulo 40829" width="64.704" height="13.357" transform="translate(11.275 37.957)" fill="#fff"/>
        </g>
      </g>
    </g>
  </g>
  <g id="Grupo_98379" data-name="Grupo 98379" transform="translate(55.816 105.882)">
    <g id="Grupo_98374" data-name="Grupo 98374" transform="translate(25.401)">
      <g id="Grupo_98368" data-name="Grupo 98368" transform="translate(27.823 0)">
        <path id="Trazado_216955" data-name="Trazado 216955" d="M149.247,141.366v.965h-2.719v1.822h2.719v.965h-2.72v1.933h2.719v.964h-3.665l0-6.649Z" transform="translate(-145.582 -141.366)" fill="#f23333"/>
      </g>
      <g id="Grupo_98369" data-name="Grupo 98369" transform="translate(17.647 0)">
        <path id="Trazado_216956" data-name="Trazado 216956" d="M134.17,141.366v.965h-.614v4.72h.614v.964H132v-.964h.614l0-4.72H132v-.965Z" transform="translate(-131.996 -141.366)" fill="#f23333"/>
      </g>
      <g id="Grupo_98370" data-name="Grupo 98370">
        <path id="Trazado_216957" data-name="Trazado 216957" d="M111.409,141.366l.626.641,0,5.375-.625.633h-2.35l-.625-.633v-5.375l.625-.641Zm-.294,5.713,0-4.768h-1.755l0,4.768Z" transform="translate(-108.435 -141.366)" fill="#f23333"/>
      </g>
      <g id="Grupo_98371" data-name="Grupo 98371" transform="translate(6.039 0)">
        <path id="Trazado_216958" data-name="Trazado 216958" d="M120.047,141.366l0,6.649h-.989l-1.66-4.628v4.628h-.9l0-6.649h.989l1.659,4.317v-4.317Z" transform="translate(-116.498 -141.366)" fill="#f23333"/>
      </g>
      <g id="Grupo_98372" data-name="Grupo 98372" transform="translate(21.868 0)">
        <path id="Trazado_216959" data-name="Trazado 216959" d="M141.18,141.366l0,6.649h-.989l-1.66-4.628v4.628h-.9l0-6.649h.989l1.659,4.317v-4.317Z" transform="translate(-137.631 -141.366)" fill="#f23333"/>
      </g>
      <g id="Grupo_98373" data-name="Grupo 98373" transform="translate(12.046 0)">
        <path id="Trazado_216960" data-name="Trazado 216960" d="M125.427,141.366l0,5.722h2.651v.927h-3.561l0-6.649Z" transform="translate(-124.518 -141.366)" fill="#f23333"/>
      </g>
    </g>
    <g id="Grupo_98375" data-name="Grupo 98375" transform="translate(0 0.008)">
      <path id="Trazado_216961" data-name="Trazado 216961" d="M78.168,141.377l-1.289,6.641H75.815l-1.293-6.641h.958l.867,4.459.865-4.459Z" transform="translate(-74.521 -141.377)" fill="#225e87"/>
    </g>
    <g id="Grupo_98376" data-name="Grupo 98376" transform="translate(16.434 0)">
      <path id="Trazado_216962" data-name="Trazado 216962" d="M100.127,141.366v.965H97.408v1.821h2.719v.966H97.409v1.933h2.719v.964H96.464v-6.649Z" transform="translate(-96.463 -141.366)" fill="#225e87"/>
    </g>
    <g id="Grupo_98377" data-name="Grupo 98377" transform="translate(5.504 0.007)">
      <path id="Trazado_216963" data-name="Trazado 216963" d="M84.843,141.376l.626.637,0,5.374-.625.63H82.5l-.625-.63,0-5.374.624-.637Zm-.294,5.71,0-4.769H82.793v4.769Z" transform="translate(-81.87 -141.376)" fill="#225e87"/>
    </g>
    <g id="Grupo_98378" data-name="Grupo 98378" transform="translate(10.923 0.008)">
      <path id="Trazado_216964" data-name="Trazado 216964" d="M92.831,141.377v.987h-1.38l0,5.653h-.968l0-5.653H89.1v-.987Z" transform="translate(-89.104 -141.377)" fill="#225e87"/>
    </g>
  </g>
  <g id="Grupo_98405" data-name="Grupo 98405" transform="translate(169.095)">
    <g id="Grupo_98404" data-name="Grupo 98404" transform="translate(0)" clip-path="url(#clip-path-2)">
      <rect id="Rectángulo_40831" data-name="Rectángulo 40831" width="168" height="169" transform="translate(-0.095)" fill="#35e9d0"/>
      <path id="Trazado_216965" data-name="Trazado 216965" d="M378.833,192.745a3.744,3.744,0,0,1-3.745,3.745H258.245a3.744,3.744,0,0,1-3.745-3.745h0A3.745,3.745,0,0,1,258.245,189H375.088a3.745,3.745,0,0,1,3.745,3.745Z" transform="translate(-232.976 -47.44)" fill="#1ecbb3"/>
      <path id="Rectángulo_40832" data-name="Rectángulo 40832" d="M6.218,0H44.463A6.217,6.217,0,0,1,50.68,6.217V8.685A6.218,6.218,0,0,1,44.462,14.9H6.218A6.218,6.218,0,0,1,0,8.685V6.218A6.218,6.218,0,0,1,6.218,0Z" transform="translate(58.351 139.765)" fill="#1ecbb3"/>
      <g id="Grupo_98403" data-name="Grupo 98403" transform="translate(26.03 -17.256)">
        <g id="Grupo_98381" data-name="Grupo 98381" transform="translate(35.174 155.107)">
          <g id="Grupo_98380" data-name="Grupo 98380">
            <path id="Trazado_216966" data-name="Trazado 216966" d="M348.038,184.049H311.892a4.416,4.416,0,0,0-4.415,4.413h44.974A4.414,4.414,0,0,0,348.038,184.049Z" transform="translate(-307.477 -184.049)" fill="#ddd"/>
          </g>
        </g>
        <rect id="Rectángulo_40833" data-name="Rectángulo 40833" width="44.974" height="9.681" transform="translate(35.174 159.521)" fill="#ddd"/>
        <path id="Trazado_216967" data-name="Trazado 216967" d="M375.837,83.437V76.9a3.205,3.205,0,0,0-3.2-3.206H263.721a3.206,3.206,0,0,0-3.205,3.206v6.533Z" transform="translate(-260.516 -1.243)" fill="#fff"/>
        <g id="Grupo_98382" data-name="Grupo 98382" transform="translate(36.266 73.738)">
          <rect id="Rectángulo_40834" data-name="Rectángulo 40834" width="42.789" height="2.032" fill="#c1bfb2"/>
          <rect id="Rectángulo_40835" data-name="Rectángulo 40835" width="42.789" height="0.836" transform="translate(0 1.245)" fill="#444443"/>
        </g>
        <g id="Grupo_98390" data-name="Grupo 98390" transform="translate(0 76.798)">
          <g id="Grupo_98389" data-name="Grupo 98389">
            <g id="Grupo_98388" data-name="Grupo 98388">
              <g id="Grupo_98384" data-name="Grupo 98384" transform="translate(45.111 77.383)">
                <g id="Grupo_98383" data-name="Grupo 98383">
                  <rect id="Rectángulo_40836" data-name="Rectángulo 40836" width="25.099" height="6.266" fill="#a9a9a9"/>
                </g>
              </g>
              <rect id="Rectángulo_40837" data-name="Rectángulo 40837" width="115.322" height="77.383" rx="4.279" fill="#52544f"/>
              <path id="Trazado_216968" data-name="Trazado 216968" d="M260.516,172.294v4.672a3.205,3.205,0,0,0,3.205,3.2H372.632a3.205,3.205,0,0,0,3.2-3.2v-4.672Z" transform="translate(-260.516 -102.789)" fill="#fff"/>
              <rect id="Rectángulo_40838" data-name="Rectángulo 40838" width="104.962" height="59.11" transform="translate(5.146 5.216)" fill="#517e93"/>
              <g id="Grupo_98385" data-name="Grupo 98385" transform="translate(35.174 87.991)">
                <path id="Trazado_216969" data-name="Trazado 216969" d="M348.037,196.975H311.892a4.415,4.415,0,0,0-4.415,4.413h44.974A4.415,4.415,0,0,0,348.037,196.975Z" transform="translate(-307.477 -196.975)" fill="#fff"/>
              </g>
              <g id="Grupo_98387" data-name="Grupo 98387" transform="translate(54.105 72.07)">
                <g id="Grupo_98386" data-name="Grupo 98386">
                  <path id="Trazado_216970" data-name="Trazado 216970" d="M339.863,177.319a1.6,1.6,0,0,1-1.6,1.6h-3.9a1.6,1.6,0,0,1-1.6-1.6h0a1.6,1.6,0,0,1,1.6-1.6h3.9a1.6,1.6,0,0,1,1.6,1.6Z" transform="translate(-332.752 -175.718)" fill="#fdb23d"/>
                </g>
              </g>
            </g>
            <rect id="Rectángulo_40839" data-name="Rectángulo 40839" width="104.962" height="2.837" transform="translate(5.146 61.488)" fill="#a9a9a9"/>
          </g>
        </g>
        <g id="Grupo_98400" data-name="Grupo 98400" transform="translate(37.82)">
          <g id="Grupo_98399" data-name="Grupo 98399">
            <g id="Grupo_98398" data-name="Grupo 98398" transform="translate(0 31.384)">
              <g id="Grupo_98397" data-name="Grupo 98397" transform="translate(0 0)">
                <g id="Grupo_98392" data-name="Grupo 98392" transform="translate(17.996 4.85)">
                  <g id="Grupo_98391" data-name="Grupo 98391">
                    <path id="Trazado_216971" data-name="Trazado 216971" d="M343.26,29.453a4.113,4.113,0,0,0-4.113-4.115h0a4.111,4.111,0,0,0-4.11,4.115V50.546a4.11,4.11,0,0,0,4.11,4.112h0a4.112,4.112,0,0,0,4.113-4.112Z" transform="translate(-335.037 -25.338)" fill="#ffc697"/>
                  </g>
                </g>
                <rect id="Rectángulo_40840" data-name="Rectángulo 40840" width="39.315" height="13.471" transform="translate(0 30.964)" fill="#fff"/>
                <g id="Grupo_98396" data-name="Grupo 98396" transform="translate(14.643)">
                  <g id="Grupo_98395" data-name="Grupo 98395">
                    <g id="Grupo_98394" data-name="Grupo 98394" transform="translate(0 8.378)">
                      <g id="Grupo_98393" data-name="Grupo 98393">
                        <path id="Trazado_216972" data-name="Trazado 216972" d="M338.782,34.162a4.112,4.112,0,0,0-4.111-4.114h0a4.111,4.111,0,0,0-4.111,4.114V55.255a4.111,4.111,0,0,0,4.111,4.112h0a4.111,4.111,0,0,0,4.111-4.112Z" transform="translate(-330.56 -30.048)" fill="#ffe1c0"/>
                      </g>
                    </g>
                    <path id="Trazado_216973" data-name="Trazado 216973" d="M355.232,31.2a12.336,12.336,0,1,0-12.34,12.342A12.337,12.337,0,0,0,355.232,31.2Z" transform="translate(-330.56 -18.863)" fill="#ffe1c0"/>
                  </g>
                </g>
              </g>
              <path id="Trazado_216974" data-name="Trazado 216974" d="M335.108,59.744c-1.65-.023-2.9.762-2.918,1.607l-.013,1.3a3.036,3.036,0,0,0,2.747,3.258,2.982,2.982,0,0,0,3.039-2.947s0-.687.017-1.535S336.824,59.768,335.108,59.744Z" transform="translate(-316.322 -29.124)" fill="#ffead4"/>
            </g>
            <path id="Trazado_216975" data-name="Trazado 216975" d="M360.389-18.427l-21.245,26.7L358.26,23.483,379.5-3.22a12.214,12.214,0,0,0-1.953-17.162A12.212,12.212,0,0,0,360.389-18.427Z" transform="translate(-318.072 23.038)" fill="#fff"/>
            <path id="Trazado_216976" data-name="Trazado 216976" d="M351.857,16.741l9.594,7.632,21.244-26.7a12.214,12.214,0,0,0-1.953-17.162Z" transform="translate(-321.263 22.148)" fill="#e8e7df"/>
          </g>
        </g>
        <g id="Grupo_98402" data-name="Grupo 98402" transform="translate(14.034 82.194)">
          <rect id="Rectángulo_40841" data-name="Rectángulo 40841" width="87.254" height="11.551" transform="translate(0 17.777)" fill="#e8e7df"/>
          <rect id="Rectángulo_40842" data-name="Rectángulo 40842" width="81.414" height="26.764" transform="translate(2.92 29.328)" fill="#d6d4cc"/>
          <rect id="Rectángulo_40843" data-name="Rectángulo 40843" width="81.414" height="6.377" transform="translate(2.92 29.328)" fill="#c1bfb2"/>
          <rect id="Rectángulo_40844" data-name="Rectángulo 40844" width="87.254" height="4.885" transform="translate(0 29.328)" fill="#d6d4cc"/>
          <g id="Grupo_98401" data-name="Grupo 98401" transform="translate(22.232)">
            <rect id="Rectángulo_40845" data-name="Rectángulo 40845" width="42.789" height="3.15" transform="translate(0 21.978)" fill="#c1bfb2"/>
            <rect id="Rectángulo_40846" data-name="Rectángulo 40846" width="42.789" height="0.837" transform="translate(0 24.34)" fill="#444443"/>
            <rect id="Rectángulo_40847" data-name="Rectángulo 40847" width="39.315" height="25.127" transform="translate(1.554)" fill="#fff"/>
          </g>
          <rect id="Rectángulo_40848" data-name="Rectángulo 40848" width="64.704" height="13.357" transform="translate(11.275 37.957)" fill="#fff"/>
        </g>
      </g>
    </g>
  </g>
  <g id="Grupo_98417" data-name="Grupo 98417" transform="translate(224.34 105.882)">
    <g id="Grupo_98412" data-name="Grupo 98412" transform="translate(25.401)">
      <g id="Grupo_98406" data-name="Grupo 98406" transform="translate(27.823 0)">
        <path id="Trazado_216977" data-name="Trazado 216977" d="M374.246,141.366v.965h-2.719v1.822h2.719v.965h-2.72v1.933h2.719v.964h-3.665l0-6.649Z" transform="translate(-370.582 -141.366)" fill="#f23333"/>
      </g>
      <g id="Grupo_98407" data-name="Grupo 98407" transform="translate(17.647 0)">
        <path id="Trazado_216978" data-name="Trazado 216978" d="M359.17,141.366v.965h-.614v4.72h.614v.964H357v-.964h.614l0-4.72H357v-.965Z" transform="translate(-356.996 -141.366)" fill="#f23333"/>
      </g>
      <g id="Grupo_98408" data-name="Grupo 98408">
        <path id="Trazado_216979" data-name="Trazado 216979" d="M336.409,141.366l.626.641,0,5.375-.625.633h-2.35l-.625-.633,0-5.375.625-.641Zm-.294,5.713,0-4.768h-1.755l0,4.768Z" transform="translate(-333.435 -141.366)" fill="#f23333"/>
      </g>
      <g id="Grupo_98409" data-name="Grupo 98409" transform="translate(6.039 0)">
        <path id="Trazado_216980" data-name="Trazado 216980" d="M345.047,141.366l0,6.649h-.989l-1.66-4.628,0,4.628h-.9l0-6.649h.989l1.659,4.317v-4.317Z" transform="translate(-341.498 -141.366)" fill="#f23333"/>
      </g>
      <g id="Grupo_98410" data-name="Grupo 98410" transform="translate(21.868 0)">
        <path id="Trazado_216981" data-name="Trazado 216981" d="M366.18,141.366l0,6.649h-.989l-1.66-4.628,0,4.628h-.9l0-6.649h.989l1.659,4.317v-4.317Z" transform="translate(-362.631 -141.366)" fill="#f23333"/>
      </g>
      <g id="Grupo_98411" data-name="Grupo 98411" transform="translate(12.046 0)">
        <path id="Trazado_216982" data-name="Trazado 216982" d="M350.427,141.366l0,5.722h2.651v.927H349.52l0-6.649Z" transform="translate(-349.518 -141.366)" fill="#f23333"/>
      </g>
    </g>
    <g id="Grupo_98413" data-name="Grupo 98413" transform="translate(0 0.008)">
      <path id="Trazado_216983" data-name="Trazado 216983" d="M303.168,141.377l-1.289,6.641h-1.065l-1.293-6.641h.958l.867,4.459.865-4.459Z" transform="translate(-299.521 -141.377)" fill="#225e87"/>
    </g>
    <g id="Grupo_98414" data-name="Grupo 98414" transform="translate(16.434 0)">
      <path id="Trazado_216984" data-name="Trazado 216984" d="M325.127,141.366v.965h-2.719v1.821h2.719v.966h-2.719v1.933h2.719v.964h-3.665v-6.649Z" transform="translate(-321.463 -141.366)" fill="#225e87"/>
    </g>
    <g id="Grupo_98415" data-name="Grupo 98415" transform="translate(5.504 0.007)">
      <path id="Trazado_216985" data-name="Trazado 216985" d="M309.843,141.376l.626.637v5.374l-.625.63H307.5l-.625-.63,0-5.374.624-.637Zm-.294,5.71,0-4.769h-1.754v4.769Z" transform="translate(-306.87 -141.376)" fill="#225e87"/>
    </g>
    <g id="Grupo_98416" data-name="Grupo 98416" transform="translate(10.923 0.008)">
      <path id="Trazado_216986" data-name="Trazado 216986" d="M317.831,141.377v.987h-1.379l0,5.653h-.968l0-5.653H314.1v-.987Z" transform="translate(-314.104 -141.377)" fill="#225e87"/>
    </g>
  </g>
  <g id="Grupo_98499" data-name="Grupo 98499" transform="translate(337.048)">
    <rect id="Rectángulo_40869" data-name="Rectángulo 40869" width="168" height="168" transform="translate(-0.047)" fill="#4aad5b"/>
    <g id="Grupo_98498" data-name="Grupo 98498" transform="translate(0)" clip-path="url(#clip-path-3)">
      <path id="Trazado_217057" data-name="Trazado 217057" d="M0,0H168V168H0Z" transform="translate(-0.047)" fill="#5d5aae"/>
      <path id="Trazado_217023" data-name="Trazado 217023" d="M378.833,417.745a3.744,3.744,0,0,1-3.745,3.745H258.245a3.744,3.744,0,0,1-3.745-3.745h0A3.745,3.745,0,0,1,258.245,414H375.088a3.745,3.745,0,0,1,3.745,3.745Z" transform="translate(-232.976 -273.011)" fill="#3b3897"/>
      <path id="Rectángulo_40871" data-name="Rectángulo 40871" d="M6.218,0H44.463A6.217,6.217,0,0,1,50.68,6.217V8.685A6.218,6.218,0,0,1,44.462,14.9H6.218A6.218,6.218,0,0,1,0,8.685V6.218A6.218,6.218,0,0,1,6.218,0Z" transform="translate(58.351 139.194)" fill="#3b3897"/>
      <g id="Grupo_98497" data-name="Grupo 98497" transform="translate(26.03 -22.401)">
        <g id="Grupo_98465" data-name="Grupo 98465" transform="translate(35.174 159.681)">
          <g id="Grupo_98464" data-name="Grupo 98464">
            <path id="Trazado_217024" data-name="Trazado 217024" d="M348.038,409.049H311.892a4.416,4.416,0,0,0-4.415,4.413h44.974A4.414,4.414,0,0,0,348.038,409.049Z" transform="translate(-307.477 -409.049)" fill="#ddd"/>
          </g>
        </g>
        <rect id="Rectángulo_40872" data-name="Rectángulo 40872" width="44.974" height="9.681" transform="translate(35.174 164.095)" fill="#ddd"/>
        <path id="Trazado_217025" data-name="Trazado 217025" d="M375.837,308.438V301.9a3.206,3.206,0,0,0-3.2-3.2H263.721a3.206,3.206,0,0,0-3.205,3.2v6.534Z" transform="translate(-260.516 -221.669)" fill="#fff"/>
        <g id="Grupo_98466" data-name="Grupo 98466" transform="translate(36.266 78.312)">
          <rect id="Rectángulo_40873" data-name="Rectángulo 40873" width="42.789" height="2.032" fill="#c1bfb2"/>
          <rect id="Rectángulo_40874" data-name="Rectángulo 40874" width="42.789" height="0.836" transform="translate(0 1.245)" fill="#444443"/>
        </g>
        <g id="Grupo_98474" data-name="Grupo 98474" transform="translate(0 81.372)">
          <g id="Grupo_98473" data-name="Grupo 98473">
            <g id="Grupo_98472" data-name="Grupo 98472">
              <g id="Grupo_98468" data-name="Grupo 98468" transform="translate(45.111 77.383)">
                <g id="Grupo_98467" data-name="Grupo 98467">
                  <rect id="Rectángulo_40875" data-name="Rectángulo 40875" width="25.099" height="6.266" fill="#a9a9a9"/>
                </g>
              </g>
              <rect id="Rectángulo_40876" data-name="Rectángulo 40876" width="115.322" height="77.383" rx="4.279" fill="#52544f"/>
              <path id="Trazado_217026" data-name="Trazado 217026" d="M260.516,397.294v4.672a3.2,3.2,0,0,0,3.205,3.2H372.632a3.2,3.2,0,0,0,3.2-3.2v-4.672Z" transform="translate(-260.516 -327.789)" fill="#fff"/>
              <rect id="Rectángulo_40877" data-name="Rectángulo 40877" width="104.962" height="59.11" transform="translate(5.146 5.216)" fill="#517e93"/>
              <g id="Grupo_98469" data-name="Grupo 98469" transform="translate(35.174 87.991)">
                <path id="Trazado_217027" data-name="Trazado 217027" d="M348.037,421.975H311.892a4.415,4.415,0,0,0-4.415,4.413h44.974A4.415,4.415,0,0,0,348.037,421.975Z" transform="translate(-307.477 -421.975)" fill="#fff"/>
              </g>
              <g id="Grupo_98471" data-name="Grupo 98471" transform="translate(54.105 72.07)">
                <g id="Grupo_98470" data-name="Grupo 98470">
                  <path id="Trazado_217028" data-name="Trazado 217028" d="M339.863,402.319a1.6,1.6,0,0,1-1.6,1.6h-3.9a1.6,1.6,0,0,1-1.6-1.6h0a1.6,1.6,0,0,1,1.6-1.6h3.9a1.6,1.6,0,0,1,1.6,1.6Z" transform="translate(-332.752 -400.718)" fill="#fdb23d"/>
                </g>
              </g>
            </g>
            <rect id="Rectángulo_40878" data-name="Rectángulo 40878" width="104.962" height="2.837" transform="translate(5.146 61.488)" fill="#a9a9a9"/>
          </g>
        </g>
        <g id="Grupo_98494" data-name="Grupo 98494" transform="translate(37.82)">
          <g id="Grupo_98477" data-name="Grupo 98477" transform="translate(0 66.922)">
            <g id="Grupo_98476" data-name="Grupo 98476">
              <g id="Grupo_98475" data-name="Grupo 98475">
                <rect id="Rectángulo_40879" data-name="Rectángulo 40879" width="39.315" height="13.471" fill="#fff"/>
              </g>
            </g>
          </g>
          <g id="Grupo_98493" data-name="Grupo 98493" transform="translate(3.226)">
            <g id="Grupo_98492" data-name="Grupo 98492">
              <g id="Grupo_98491" data-name="Grupo 98491">
                <g id="Grupo_98490" data-name="Grupo 98490" transform="translate(0 31.368)">
                  <path id="Trazado_217029" data-name="Trazado 217029" d="M345.534,238.847a9.971,9.971,0,0,0-13.438,4.3l-9.98,19.365,22.3.272,5.41-10.5A9.972,9.972,0,0,0,345.534,238.847Z" transform="translate(-317.023 -237.736)" fill="#ffe1c0"/>
                  <g id="Grupo_98479" data-name="Grupo 98479" transform="translate(6.887 9.15)">
                    <g id="Grupo_98478" data-name="Grupo 98478">
                      <path id="Trazado_217030" data-name="Trazado 217030" d="M343.551,255.948a3.292,3.292,0,0,0,.817-4.588h0a3.3,3.3,0,0,0-4.589-.814l-13.858,9.674a3.294,3.294,0,0,0-.816,4.588h0a3.293,3.293,0,0,0,4.587.816Z" transform="translate(-324.512 -249.951)" fill="#ffe1c0"/>
                    </g>
                  </g>
                  <path id="Trazado_217031" data-name="Trazado 217031" d="M342.057,250.546l-8.47,5.933,3.772,5.4,8.47-5.934a3.294,3.294,0,1,0-3.772-5.4Z" transform="translate(-319.903 -240.802)" fill="#ffe1c0"/>
                  <g id="Grupo_98480" data-name="Grupo 98480" transform="translate(0.018 31.867)">
                    <path id="Trazado_217032" data-name="Trazado 217032" d="M322.084,283.65a3.3,3.3,0,0,0-3.222-3.367h0a3.293,3.293,0,0,0-3.364,3.226l-.157,7.193a3.292,3.292,0,0,0,3.222,3.365h0a3.294,3.294,0,0,0,3.365-3.223Z" transform="translate(-315.341 -280.282)" fill="#ffe1c0"/>
                  </g>
                  <path id="Trazado_217033" data-name="Trazado 217033" d="M328.349,268.055a3.3,3.3,0,0,0-1.108-4.527h0a3.3,3.3,0,0,0-4.526,1.111l-6.42,12.4a3.3,3.3,0,0,0,1.109,4.527h0a3.3,3.3,0,0,0,4.526-1.109Z" transform="translate(-315.443 -244.09)" fill="#ffe1c0"/>
                  <path id="Trazado_217034" data-name="Trazado 217034" d="M317.276,291.112c-1.082-.04-1.911.588-1.931,1.281l-.023,1.068c-.07,1.405.721,2.615,1.767,2.7s1.955-.971,2.025-2.375c0,0,.007-.564.028-1.258S318.4,291.154,317.276,291.112Z" transform="translate(-315.317 -251.133)" fill="#ffead4"/>
                  <g id="Grupo_98489" data-name="Grupo 98489" transform="translate(10.11 11.646)">
                    <g id="Grupo_98484" data-name="Grupo 98484" transform="translate(6.055)">
                      <g id="Grupo_98481" data-name="Grupo 98481" transform="translate(5.388 14.394)">
                        <path id="Trazado_217035" data-name="Trazado 217035" d="M349.709,273.46a3.3,3.3,0,0,0-4.662.016h0a3.294,3.294,0,0,0,.019,4.659l5.729,5.508a3.293,3.293,0,0,0,4.66-.019h0a3.294,3.294,0,0,0-.019-4.659Z" transform="translate(-344.092 -272.502)" fill="#ffe1c0"/>
                      </g>
                      <path id="Trazado_217036" data-name="Trazado 217036" d="M352.19,256.808a3.3,3.3,0,0,0-3.06-3.516h0a3.3,3.3,0,0,0-3.513,3.063l-.733,13.915a3.293,3.293,0,0,0,3.06,3.513h0a3.292,3.292,0,0,0,3.513-3.061Z" transform="translate(-338.901 -253.285)" fill="#ffe1c0"/>
                      <path id="Trazado_217037" data-name="Trazado 217037" d="M352.362,283.149a1.692,1.692,0,0,0-.4,2.283l.759.753c.97,1.017,2.392,1.278,3.176.582s.643-2.086-.327-3.1c0,0-.4-.395-.892-.886A1.707,1.707,0,0,0,352.362,283.149Z" transform="translate(-340.606 -260.61)" fill="#ffead4"/>
                      <g id="Grupo_98483" data-name="Grupo 98483" transform="translate(0 18.248)">
                        <g id="Grupo_98482" data-name="Grupo 98482">
                          <path id="Trazado_217038" data-name="Trazado 217038" d="M342.516,278.606a3.294,3.294,0,0,0-4.661.016h0a3.3,3.3,0,0,0,.019,4.66l6.835,7.053a3.294,3.294,0,0,0,4.659-.018h0a3.3,3.3,0,0,0-.019-4.66Z" transform="translate(-336.899 -277.648)" fill="#ffe1c0"/>
                        </g>
                        <path id="Trazado_217039" data-name="Trazado 217039" d="M346.644,290.358a1.692,1.692,0,0,0-.4,2.283l.759.753c.97,1.017,2.393,1.278,3.177.582s.643-2.086-.327-3.1c0,0-.4-.395-.894-.887A1.707,1.707,0,0,0,346.644,290.358Z" transform="translate(-339.171 -280.668)" fill="#ffead4"/>
                      </g>
                    </g>
                    <g id="Grupo_98485" data-name="Grupo 98485" transform="translate(6.028 4.292)">
                      <path id="Trazado_217040" data-name="Trazado 217040" d="M344.177,262.539a3.3,3.3,0,0,0-3.06-3.516h0a3.3,3.3,0,0,0-3.513,3.063L336.871,276a3.292,3.292,0,0,0,3.061,3.514h0a3.293,3.293,0,0,0,3.512-3.06Z" transform="translate(-336.863 -259.016)" fill="#ffe1c0"/>
                    </g>
                    <g id="Grupo_98487" data-name="Grupo 98487" transform="translate(0.024 21.014)">
                      <g id="Grupo_98486" data-name="Grupo 98486">
                        <path id="Trazado_217041" data-name="Trazado 217041" d="M334.66,282.511a3.294,3.294,0,0,0-4.644-.392h0a3.294,3.294,0,0,0-.389,4.644l6.188,7.625a3.293,3.293,0,0,0,4.644.39h0a3.294,3.294,0,0,0,.39-4.642Z" transform="translate(-328.848 -281.341)" fill="#ffe1c0"/>
                      </g>
                      <path id="Trazado_217042" data-name="Trazado 217042" d="M337.778,294.551a1.693,1.693,0,0,0-.6,2.24l.691.816c.877,1.1,2.271,1.482,3.114.858s.822-2.022-.054-3.121c0,0-.368-.428-.812-.961A1.707,1.707,0,0,0,337.778,294.551Z" transform="translate(-330.881 -284.518)" fill="#ffead4"/>
                    </g>
                    <g id="Grupo_98488" data-name="Grupo 98488" transform="translate(0 7.175)">
                      <path id="Trazado_217043" data-name="Trazado 217043" d="M337.315,266.675a3.3,3.3,0,0,0-2.741-3.77h0a3.293,3.293,0,0,0-3.767,2.744l-1.951,13.8a3.293,3.293,0,0,0,2.741,3.768h0a3.293,3.293,0,0,0,3.767-2.741Z" transform="translate(-328.816 -262.863)" fill="#ffe1c0"/>
                    </g>
                  </g>
                  <path id="Trazado_217044" data-name="Trazado 217044" d="M343.754,250.546l-3.406,2.362,3.771,5.4,3.407-2.363a3.294,3.294,0,1,0-3.772-5.4Z" transform="translate(-321.6 -240.802)" fill="#ffe1c0"/>
                </g>
                <path id="Trazado_217045" data-name="Trazado 217045" d="M349.128,202.306l-15.95,29.99,21.467,11.418L370.6,213.724a12.158,12.158,0,0,0-21.468-11.418Z" transform="translate(-319.8 -195.855)" fill="#fcbf29"/>
                <path id="Trazado_217046" data-name="Trazado 217046" d="M347.453,238.461l10.775,5.731L374.179,214.2a12.157,12.157,0,0,0-5.024-16.443Z" transform="translate(-323.384 -196.333)" fill="#e29c00"/>
              </g>
            </g>
          </g>
        </g>
        <g id="Grupo_98496" data-name="Grupo 98496" transform="translate(14.034 86.769)">
          <rect id="Rectángulo_40880" data-name="Rectángulo 40880" width="87.254" height="11.551" transform="translate(0 17.776)" fill="#4ee3ea"/>
          <rect id="Rectángulo_40881" data-name="Rectángulo 40881" width="81.414" height="26.764" transform="translate(2.92 29.327)" fill="#0dc9c9"/>
          <rect id="Rectángulo_40882" data-name="Rectángulo 40882" width="81.414" height="6.377" transform="translate(2.92 29.327)" fill="#00a09c"/>
          <rect id="Rectángulo_40883" data-name="Rectángulo 40883" width="87.254" height="4.885" transform="translate(0 29.327)" fill="#0dc9c9"/>
          <g id="Grupo_98495" data-name="Grupo 98495" transform="translate(22.232)">
            <rect id="Rectángulo_40884" data-name="Rectángulo 40884" width="42.789" height="3.15" transform="translate(0 21.977)" fill="#00a09c"/>
            <rect id="Rectángulo_40885" data-name="Rectángulo 40885" width="42.789" height="0.837" transform="translate(0 24.339)" fill="#444443"/>
            <rect id="Rectángulo_40886" data-name="Rectángulo 40886" width="39.315" height="25.126" transform="translate(1.554)" fill="#fff"/>
          </g>
          <rect id="Rectángulo_40887" data-name="Rectángulo 40887" width="64.704" height="13.357" transform="translate(11.275 37.956)" fill="#fff"/>
        </g>
      </g>
    </g>
  </g>
  <g id="Grupo_98511" data-name="Grupo 98511" transform="translate(392.578 105.882)">
    <g id="Grupo_98506" data-name="Grupo 98506" transform="translate(25.401)">
      <g id="Grupo_98500" data-name="Grupo 98500" transform="translate(27.823 0)">
        <path id="Trazado_217047" data-name="Trazado 217047" d="M374.246,366.366v.965h-2.719v1.822h2.719v.965h-2.72v1.933h2.719v.964h-3.665l0-6.649Z" transform="translate(-370.582 -366.366)" fill="#f23333"/>
      </g>
      <g id="Grupo_98501" data-name="Grupo 98501" transform="translate(17.647 0)">
        <path id="Trazado_217048" data-name="Trazado 217048" d="M359.17,366.366v.965h-.614v4.72h.614v.964H357v-.964h.614l0-4.72H357v-.965Z" transform="translate(-356.996 -366.366)" fill="#f23333"/>
      </g>
      <g id="Grupo_98502" data-name="Grupo 98502">
        <path id="Trazado_217049" data-name="Trazado 217049" d="M336.409,366.366l.626.641,0,5.374-.625.634h-2.35l-.625-.634,0-5.374.625-.641Zm-.294,5.713,0-4.768h-1.755l0,4.768Z" transform="translate(-333.435 -366.366)" fill="#f23333"/>
      </g>
      <g id="Grupo_98503" data-name="Grupo 98503" transform="translate(6.039 0)">
        <path id="Trazado_217050" data-name="Trazado 217050" d="M345.047,366.366l0,6.649h-.989l-1.66-4.628,0,4.628h-.9l0-6.649h.989l1.659,4.317v-4.317Z" transform="translate(-341.498 -366.366)" fill="#f23333"/>
      </g>
      <g id="Grupo_98504" data-name="Grupo 98504" transform="translate(21.868 0)">
        <path id="Trazado_217051" data-name="Trazado 217051" d="M366.18,366.366l0,6.649h-.989l-1.66-4.628,0,4.628h-.9l0-6.649h.989l1.659,4.317v-4.317Z" transform="translate(-362.631 -366.366)" fill="#f23333"/>
      </g>
      <g id="Grupo_98505" data-name="Grupo 98505" transform="translate(12.046 0)">
        <path id="Trazado_217052" data-name="Trazado 217052" d="M350.427,366.366l0,5.722h2.651v.927H349.52l0-6.649Z" transform="translate(-349.518 -366.366)" fill="#f23333"/>
      </g>
    </g>
    <g id="Grupo_98507" data-name="Grupo 98507" transform="translate(0 0.008)">
      <path id="Trazado_217053" data-name="Trazado 217053" d="M303.168,366.377l-1.289,6.641h-1.065l-1.293-6.641h.958l.867,4.459.865-4.459Z" transform="translate(-299.521 -366.377)" fill="#225e87"/>
    </g>
    <g id="Grupo_98508" data-name="Grupo 98508" transform="translate(16.434 0)">
      <path id="Trazado_217054" data-name="Trazado 217054" d="M325.127,366.366v.965h-2.719v1.821h2.719v.966h-2.719v1.933h2.719v.964h-3.665v-6.649Z" transform="translate(-321.463 -366.366)" fill="#225e87"/>
    </g>
    <g id="Grupo_98509" data-name="Grupo 98509" transform="translate(5.504 0.007)">
      <path id="Trazado_217055" data-name="Trazado 217055" d="M309.843,366.376l.626.637v5.374l-.625.63H307.5l-.625-.63,0-5.374.624-.637Zm-.294,5.71,0-4.769h-1.754v4.769Z" transform="translate(-306.87 -366.376)" fill="#225e87"/>
    </g>
    <g id="Grupo_98510" data-name="Grupo 98510" transform="translate(10.923 0.008)">
      <path id="Trazado_217056" data-name="Trazado 217056" d="M317.831,366.377v.987h-1.379l0,5.653h-.968l0-5.653H314.1v-.987Z" transform="translate(-314.104 -366.377)" fill="#225e87"/>
    </g>
  </g>
</svg>
