<svg xmlns="http://www.w3.org/2000/svg" xmlns:xlink="http://www.w3.org/1999/xlink" width="295" height="270" viewBox="0 0 295 270">
  <defs>
    <clipPath id="clip-path">
      <rect id="Rectángulo_41686" data-name="Rectángulo 41686" width="295" height="270" transform="translate(915 2778)" fill="#fff" stroke="#707070" stroke-width="1"/>
    </clipPath>
  </defs>
  <g id="Enmascarar_grupo_203" data-name="Enmascarar grupo 203" transform="translate(-915 -2778)" clip-path="url(#clip-path)">
    <g id="Grupo_106927" data-name="Grupo 106927" transform="translate(234.796 2690.868)">
      <g id="Grupo_106916" data-name="Grupo 106916" transform="translate(785.204 101.604)">
        <g id="Grupo_106909" data-name="Grupo 106909" transform="translate(14.27 414.86)">
          <path id="Trazado_220560" data-name="Trazado 220560" d="M722.943,340.974l.041.474.163,1.523v.02l.35,2.924.145,1.318c.6.039,1.194.061,1.791.122,1.255.063,2.512.1,3.726.1a17.485,17.485,0,0,0,7.925-1.525l.022-3.109-7.536-.988-1.3-.163-.742-.1-4.425-.555Z" transform="translate(-682.409 -325.961)" fill="#2f2e29"/>
          <g id="Grupo_106908" data-name="Grupo 106908">
            <path id="Trazado_220561" data-name="Trazado 220561" d="M700.383,343.542v.02l.289,3.933c8.151,3.066,21.43,3.294,38.907.1.618-.1,1.236-.226,1.873-.35,1.031-.185,2.079-.392,3.13-.618.144-.02.268-.061.411-.083,3.233-.679,6.567-1.482,10.068-2.388l-.022-.144-.144-1.893-.1-1.318c-.022-.1-.022-.226-.041-.35l-.041-.514V339.9l-.041-.6h-.041l-4.3.331-1.214.1-1.832.144-1.442.124-4.24.329Z" transform="translate(-700.364 -327.293)" fill="#2f2e29"/>
            <path id="Trazado_220562" data-name="Trazado 220562" d="M754.8,346.121a25.662,25.662,0,0,1-7.268,2.376c-1.927.426-4.087.81-6.411,1.139-.207.025-.411.065-.616.092-15.378,2.151-37,2.466-40.125-.858-.2-2.7,4.184-5.616,12.126-8.753.779-.3,1.588-.607,2.449-.928.6-.216,1.218-.431,1.861-.673.823-.282,1.67-.576,2.546-.873h.013c.589-.2,1.219-.4,1.835-.6h.013c.862-.282,1.751-.549,2.669-.846q1.6-.5,3.285-1.006c1.189-.348,2.406-.7,3.665-1.058,5.98-1.7,10.473-1.839,13.843-1.054a12.04,12.04,0,0,1,8.728,7.219,17.265,17.265,0,0,1,1.219,4.324c.065.424.1.806.142,1.148C754.786,345.889,754.786,346.011,754.8,346.121Z" transform="translate(-700.372 -332.614)" fill="#2f2e29"/>
          </g>
        </g>
        <g id="Grupo_106911" data-name="Grupo 106911" transform="translate(139.74 412.382)">
          <path id="Trazado_220563" data-name="Trazado 220563" d="M770.41,343.03l.393,3.069c2.828.925,6.181.81,9.64.354,1.7-.217,3.423-.521,5.109-.817.093-.013.172-.036.268-.048l-.007-1.34.009-2.164.009-.8.007-1.546-.005-.465-.185.05-7.034,1.708-1.035.257-.77.18Z" transform="translate(-770.103 -324.833)" fill="#2f2e29"/>
          <g id="Grupo_106910" data-name="Grupo 106910">
            <path id="Trazado_220564" data-name="Trazado 220564" d="M770.546,343.858c3.083.659,6.048,1.169,8.85,1.562.643.1,1.268.181,1.893.251a35.163,35.163,0,0,0,4.4.792c5.266.612,14.866.67,26.674-4.276l-.246-3.951-31.8.566-3.918.077-3.577.061-2.539.052-.041,0,.077,1.14a1.354,1.354,0,0,0,.014.217c.007.054,0,.1,0,.137Z" transform="translate(-770.239 -325.66)" fill="#2f2e29"/>
            <path id="Trazado_220565" data-name="Trazado 220565" d="M770.316,346.064a16.8,16.8,0,0,0,5.829,1.7c.251.038.517.084.781.106.295.059.6.088.905.131,1.056.124,2.178.228,3.337.3.153.007.318.027.483.034,1.379.083,2.823.131,4.288.149,11.3.169,24.415-1.51,26.158-4.675-.181-2.7-3.881-5.2-10.3-7.578-.63-.219-1.289-.451-1.993-.7-.2-.07-.413-.126-.612-.2-.287-.1-.587-.2-.887-.3-.655-.2-1.34-.417-2.036-.628l-.014,0c-.471-.145-.968-.287-1.465-.443l-.015,0c-.7-.2-1.4-.383-2.128-.591-.864-.232-1.729-.463-2.634-.69-.948-.248-1.909-.481-2.911-.722-4.772-1.142-8.212-.866-10.673.23a8.937,8.937,0,0,0-3,2.121,11.95,11.95,0,0,0-2.769,5.844,22.047,22.047,0,0,0-.4,4.4c0,.424.02.8.036,1.144a1.354,1.354,0,0,0,.014.217C770.32,345.982,770.311,346.023,770.316,346.064Z" transform="translate(-770.221 -331.234)" fill="#2f2e29"/>
          </g>
        </g>
        <g id="Grupo_106912" data-name="Grupo 106912" transform="translate(0 0)">
          <path id="Trazado_220566" data-name="Trazado 220566" d="M713.5,137.468l-14.164,1.812-1.34-10.461c-3.15-2.076-4.687-4.8-5.115-11.856l-.42-9.394c7.031-1.191,12.316-2.119,20.069-2.793l1.047,8.18,3.619-.56v.009c-.016.354-.23,7.974-.3,8.572a8.317,8.317,0,0,1-3.525,5.7l-1.16.7Z" transform="translate(-692.401 -99.079)" fill="#e3b788"/>
          <path id="Trazado_220567" data-name="Trazado 220567" d="M698.81,112.282a3.068,3.068,0,0,0,.981,1.979,2.528,2.528,0,0,0,1.954.659l.478-.05a2.735,2.735,0,0,0,2.284-3.1l-.727-7.336a2.859,2.859,0,0,0-.916-1.846,2.353,2.353,0,0,0-1.823-.616l-.984.1a2.385,2.385,0,0,0-1.992,2.7Z" transform="translate(-687.95 -101.324)" fill="#ffce99"/>
          <path id="Trazado_220568" data-name="Trazado 220568" d="M701.934,111.93a3.073,3.073,0,0,0,.982,1.977,2.519,2.519,0,0,0,1.952.661l.48-.052a2.735,2.735,0,0,0,2.284-3.1l-.727-7.336a2.865,2.865,0,0,0-.918-1.846,2.348,2.348,0,0,0-1.823-.616l-.982.1a2.384,2.384,0,0,0-1.992,2.7Z" transform="translate(-685.463 -101.604)" fill="#ffce99"/>
          <path id="Trazado_220569" data-name="Trazado 220569" d="M695.733,112.32a2.789,2.789,0,0,0,2.936,2.593l.481-.052a2.493,2.493,0,0,0,1.753-1.036,3.022,3.022,0,0,0,.535-2.112l-.655-5.806a2.605,2.605,0,0,0-2.744-2.421l-.988.1a2.173,2.173,0,0,0-1.528.905,2.622,2.622,0,0,0-.467,1.839Z" transform="translate(-690.348 -100.116)" fill="#ffce99"/>
          <path id="Trazado_220570" data-name="Trazado 220570" d="M692.952,111.685a2.256,2.256,0,0,0,2.507,1.961l.415-.045a2.238,2.238,0,0,0,2.017-2.448l-.5-4.461a2.108,2.108,0,0,0-2.342-1.832l-.857.093a1.949,1.949,0,0,0-1.756,2.135Z" transform="translate(-692.427 -99.022)" fill="#ffce99"/>
          <path id="Trazado_220571" data-name="Trazado 220571" d="M700.074,133.285l-.695-5.926a9.288,9.288,0,0,1,5.908-11.422l.047-1.009a1.649,1.649,0,0,0-.553-1.295l-2.227-2a3.892,3.892,0,0,1-.277-5.522l.409-.449a1.85,1.85,0,0,1,2.6-.129l2.414,2.139,3.588,3.188a2.034,2.034,0,0,1,.677,1.306v.009c-.016.354-.23,7.974-.3,8.572a8.317,8.317,0,0,1-3.525,5.7l-1.16.7.427,2.994-.043.014Z" transform="translate(-687.174 -98.851)" fill="#ffce99"/>
        </g>
        <path id="Trazado_220572" data-name="Trazado 220572" d="M710.43,178.18a3.034,3.034,0,0,1,.3.291.334.334,0,0,0,.077.072,18.608,18.608,0,0,1,1.606,1.848c.2.248.379.5.549.763q.326.474.614.95a9.39,9.39,0,0,1,.548.968,11.036,11.036,0,0,1,.512,1c.154.35.307.688.447,1.038.133.284.235.558.341.846.018.04.025.093.045.131a.42.42,0,0,1,.041.119c.045.131.088.248.131.381a47.049,47.049,0,0,1,2.234,11.565,2.159,2.159,0,0,0,.025.312c.1,1.069.178,2.139.259,3.2.025.311.056.648.072.99.656,9.619,1.5,27.575,3.313,43.754l.016.12c1.582,13.963,3.55,23.892,7.072,28.629,22,5.393,44.241,2.385,66.633-5.792,4.551-12.461-2.255-51.525-2.29-64.631,3.581,7.986,6.6,16.631,10.85,24.9a81.083,81.083,0,0,0,6.111,10.112l.016.011c.7.964,1.424,1.94,2.187,2.881.018.025.032.038.05.063s.047.048.063.074.016.013.018.025l5.328-2.954,14.451-8.035c-3.128-7.113-5.494-11.915-7.974-17.071-1.812-3.778-3.689-7.755-5.971-12.962-3.69-8.41-7.562-17.071-14.351-23.264-4.631-4.226-12.5-5.845-17.5-9.5a13.684,13.684,0,0,1-2.555-2.423l-.031-.025c-1.961-.35-3.9-.663-5.845-.977l-.014,0c-1.3-.2-2.595-.393-3.881-.6-1.762-.295-3.509-.593-5.251-.93l-.04.005a66.268,66.268,0,0,1-13.415-3.771c-1.085-.449-2.15-.957-3.218-1.5-.571-.282-1.13-.594-1.692-.919a47.269,47.269,0,0,1-8.839.228,25.622,25.622,0,0,1-13.869-5.068c-4.6,6.584-9.27,13.641-13.894,20.392C712.614,175.027,711.516,176.618,710.43,178.18Z" transform="translate(-678.098 -60.676)" fill="#b8b0da"/>
        <path id="Trazado_220573" data-name="Trazado 220573" d="M731.58,175.484l27.291,4.719,4.49-26.407-28.676-3.515Z" transform="translate(-661.266 -62.863)" fill="#e3b788"/>
        <path id="Trazado_220575" data-name="Trazado 220575" d="M696.95,161.6c.178,1.383.365,2.766.6,4.141a39.715,39.715,0,0,0,1.983,7.72c1.791,4.687,4.793,8.819,7.97,12.7,4.757,5.817,9.373,11.323,15.015,16.278a.725.725,0,0,0,.083.081c1.223-1.51,2.439-3.083,3.64-4.684A138.168,138.168,0,0,0,739.4,177.012c-8.229-6.081-14.265-10.491-17.978-20.024a127.711,127.711,0,0,1-4.858-16.057c-1.548-6.084-2.25-12.7-4.472-18.027l-16.17,2.069a36.62,36.62,0,0,0-.253,7.085C695.862,142.1,695.666,151.642,696.95,161.6Z" transform="translate(-689.893 -84.651)" fill="#b8b0da"/>
        <rect id="Rectángulo_41682" data-name="Rectángulo 41682" width="16.304" height="8.654" transform="translate(4.921 31.734) rotate(-7.294)" fill="#472ea6"/>
        <path id="Trazado_220576" data-name="Trazado 220576" d="M696.27,122.07a1.443,1.443,0,1,0,1.248-1.614A1.442,1.442,0,0,0,696.27,122.07Z" transform="translate(-689.377 -86.61)" fill="#fff"/>
        <g id="Grupo_106913" data-name="Grupo 106913" transform="translate(64.318 41.338)">
          <path id="Trazado_220577" data-name="Trazado 220577" d="M752.715,125.968c11.822.295,21.024,8.344,19.742,22.328a36.611,36.611,0,0,1-.744,4.795c2.674-1.412,4.9,1.255,3.863,5.213-.733,2.789-2.209,6.523-3.782,7.045-1.886.625-2.421-.553-2.527-.593-.95,4.025-1.392,7.631-2.9,9.737a68.028,68.028,0,0,1-4.421,5.77c-2.873,3.184-5.2,3.926-10.513,3.807l-.029,0h-.031c-5.308-.119-7.6-.966-10.33-4.276a68.371,68.371,0,0,1-4.157-5.964c-1.408-2.171-1.686-5.793-2.455-9.857-.109.036-.695,1.189-2.55.478-1.548-.593-2.857-4.387-3.462-7.209-.862-4,1.487-6.564,4.093-5.032a36.624,36.624,0,0,1-.526-4.824C731.337,133.357,740.893,125.73,752.715,125.968Z" transform="translate(-728.241 -123.556)" fill="#ffce99"/>
          <path id="Trazado_220578" data-name="Trazado 220578" d="M768.612,131.591c4.389,5.422,5.646,11.352,3.559,22.186-1.807.948-2.784,2.247-3.617,7.634-1.3.329-1.862.4-3.049.763,7.895-28.64-3.263-29.468-6.314-30.154A76.991,76.991,0,0,0,744,131.679c-3.08.548-14.265.873-7.667,29.84-1.169-.422-1.728-.515-3.01-.9-.591-5.42-1.508-6.761-3.27-7.79-1.6-10.917.492-16.333,4.554-22C740.245,122.955,760.768,121.9,768.612,131.591Z" transform="translate(-727.228 -124.623)" fill="#2f2e29"/>
          <path id="Trazado_220701" data-name="Trazado 220701" d="M815.979,126.6a5.872,5.872,0,0,1-1.081,2.3c1.986-.5,5.984-3.441,7.491-3.527-3.723,10.292-13.8,21.284-23.082,23.131q1.468-1.756,2.94-3.509-7.3,2.155-14.591,4.312,2.478-5.013,4.958-10.026l-5.253,1.9c4.646-8.3,13.4-13.192,21.827-12.194-.449-.413-1.271-1.428-1.869-1.977,2.053.2,2.714.041,4.87,1.428A11.608,11.608,0,0,1,815.979,126.6Z" transform="translate(-788.368 -133.025)" fill="#2f2e29"/>
          <path id="Trazado_220702" data-name="Trazado 220702" d="M803.414,139.025a20.717,20.717,0,0,0,9.516,4.3q-1.01-1.39-2.022-2.778l12.666,2.107a21.609,21.609,0,0,0-4.565-9.707l2.861.1c-4.817-5.247-13.024-6.706-18.734-2.881a5.708,5.708,0,0,0-2.3,4.5C800.79,136.512,802.112,137.983,803.414,139.025Z" transform="translate(-777.648 -130.924)" fill="#2f2e29"/>
        </g>
        <path id="Trazado_220579" data-name="Trazado 220579" d="M696.693,146.754a39.521,39.521,0,0,0,1.975,7.726c1.789,4.685,4.795,8.816,7.975,12.706,4.754,5.811,9.373,11.323,15.017,16.281a.334.334,0,0,0,.077.072,18.608,18.608,0,0,1,1.606,1.848c.2.248.379.5.549.763q.326.474.614.95c.19.316.368.636.548.968s.347.668.512,1c.154.35.307.688.447,1.038.118.286.235.558.341.846.018.04.025.093.045.131s.023.079.041.119c.045.131.088.248.131.381a49.72,49.72,0,0,1,2.234,11.565,2.159,2.159,0,0,0,.025.312c.1,1.069.178,2.139.259,3.2.025.311.056.648.072.99.722,9.391,2.065,26.505,3.272,43.1.015.217.029.435.041.652l.016.12c1.582,13.963,3.55,23.892,7.072,28.63l17.72-2.268c-8.379-5.168-18.973-12.449-21.134-27.4,3.883,7.14,11.506,9.708,18.817,11.553-10.759-4.728-14.259-13.257-17.145-21.689-2.645-7.722-3.994-19.018-3.795-27.187a61.3,61.3,0,0,1,7.2-27.252,67.99,67.99,0,0,1-15.847-7.047c-.251-.145-.487-.278-.74-.438A73.427,73.427,0,0,1,696.693,146.754Z" transform="translate(-689.031 -65.671)" fill="#1d1d1b" opacity="0.05"/>
        <path id="Trazado_220581" data-name="Trazado 220581" d="M747.921,182l16.282-17-7.879-7.048-18.1,12.455Z" transform="translate(-655.976 -56.754)" fill="#472ea6"/>
        <path id="Trazado_220582" data-name="Trazado 220582" d="M732.71,178.863l-5.045-22.475,9.156-1.672,9.813,18.28Z" transform="translate(-664.382 -59.335)" fill="#472ea6"/>
        <g id="Grupo_106914" data-name="Grupo 106914" transform="translate(159.325 113.103)">
          <path id="Trazado_220584" data-name="Trazado 220584" d="M781.145,193.555l10.843,8.018,5.923-8.008c3.554-.26,6.077-1.8,9.68-7.419l4.675-7.553c-5.249-4.22-9.179-7.42-15.259-11.547l-4.633,6.262-2.724-2.13-.005.007c-.149.3-3.484,6.681-3.7,7.209a7.852,7.852,0,0,0,.28,6.323l.632,1.115Z" transform="translate(-781.145 -162.624)" fill="#e3b788"/>
          <path id="Trazado_220585" data-name="Trazado 220585" d="M795.091,176.237a2.9,2.9,0,0,1-1.72,1.18,2.38,2.38,0,0,1-1.914-.357l-.37-.262a2.581,2.581,0,0,1-.454-3.61l3.978-5.713a2.705,2.705,0,0,1,1.607-1.1,2.22,2.22,0,0,1,1.787.332l.763.539a2.253,2.253,0,0,1,.4,3.148Z" transform="translate(-774.015 -163.207)" fill="#ffce99"/>
          <path id="Trazado_220586" data-name="Trazado 220586" d="M792.677,174.506a2.9,2.9,0,0,1-1.72,1.18,2.38,2.38,0,0,1-1.914-.357l-.37-.26a2.583,2.583,0,0,1-.454-3.611l3.978-5.713a2.719,2.719,0,0,1,1.607-1.1,2.227,2.227,0,0,1,1.787.332l.763.539a2.252,2.252,0,0,1,.4,3.148Z" transform="translate(-775.936 -164.584)" fill="#ffce99"/>
          <path id="Trazado_220587" data-name="Trazado 220587" d="M797.281,177.69a2.636,2.636,0,0,1-3.617.785l-.374-.264a2.362,2.362,0,0,1-.968-1.663,2.854,2.854,0,0,1,.532-1.986l3.216-4.486a2.462,2.462,0,0,1,3.376-.733l.769.542a2.051,2.051,0,0,1,.842,1.449,2.491,2.491,0,0,1-.462,1.733Z" transform="translate(-772.263 -161.11)" fill="#ffce99"/>
          <path id="Trazado_220588" data-name="Trazado 220588" d="M799.054,178.363a2.132,2.132,0,0,1-2.97.463l-.323-.23a2.115,2.115,0,0,1-.533-2.947l2.466-3.45a1.99,1.99,0,0,1,2.773-.431l.664.471a1.842,1.842,0,0,1,.465,2.57Z" transform="translate(-770.241 -159.167)" fill="#ffce99"/>
          <path id="Trazado_220589" data-name="Trazado 220589" d="M787.96,193.317l3.3-4.565a8.777,8.777,0,0,0,.39-12.142l.426-.853a1.561,1.561,0,0,1,1.052-.814l2.757-.618a3.676,3.676,0,0,0,2.771-4.427l-.129-.559a1.748,1.748,0,0,0-2.083-1.306l-2.978.652-4.425.975a1.922,1.922,0,0,0-1.16.763l-.005.007c-.149.3-3.484,6.681-3.7,7.209a7.852,7.852,0,0,0,.28,6.323l.632,1.115-1.731,2.272.029.031Z" transform="translate(-779.381 -161.871)" fill="#ffce99"/>
        </g>
        <path id="Trazado_220590" data-name="Trazado 220590" d="M762.06,204.836a108.613,108.613,0,0,0,6.786,12.284l.016.011a34.2,34.2,0,0,0,2.3,3.021l.018.022h0a15.948,15.948,0,0,0,5.969,4.628c4.729-.262,12.5-.532,26.1-25.264,1.476-2.679,3.013-5.641,4.621-8.911l-.7-.528-2.313-1.7-8.527-6.312-.831-.62-.013,0c-2.52,2.347-7.178,6.474-12.5,10.646-5.749,4.5-12.266,9.069-17.691,11.488A26.266,26.266,0,0,1,762.06,204.836Z" transform="translate(-637.008 -38.048)" fill="#b8b0da"/>
        <rect id="Rectángulo_41683" data-name="Rectángulo 41683" width="8.174" height="15.399" transform="translate(158.487 143.412) rotate(-53.513)" fill="#472ea6"/>
        <path id="Trazado_220591" data-name="Trazado 220591" d="M789.506,185.068a1.362,1.362,0,1,1-.286-1.905A1.362,1.362,0,0,1,789.506,185.068Z" transform="translate(-617.121 -36.908)" fill="#fff"/>
        <path id="Trazado_220592" data-name="Trazado 220592" d="M743,253.777l26.351-3.373c4.551-12.461-2.255-51.525-2.29-64.631,3.581,7.986,6.6,16.631,10.85,24.9a81.084,81.084,0,0,0,6.111,10.112l.016.011c.724,1.058,1.478,2.042,2.238,2.943.016.025.047.048.063.074s.016.013.018.025a16.028,16.028,0,0,0,5.971,4.628c4.729-.262,12.5-.532,26.1-25.264-7.717,9.746-19.537,23.057-25.582,18.589-.393-.293-.772-.585-1.156-.907-4.247-3.466-7.947-8.3-11.213-13.618-6.551-10.658-11.307-23.229-15.06-30.413a84.952,84.952,0,0,1-.119,8.8c-.628,10.276-1.208,41.143-17.68,58.293,13.2-7.85,16.588-13.469,18.943-19.984C765.315,234.087,762.494,243.153,743,253.777Z" transform="translate(-652.18 -41.715)" fill="#1d1d1b" opacity="0.05"/>
        <path id="Trazado_220593" data-name="Trazado 220593" d="M708.3,317.968s4.962,100.544,6.424,111.763c.083.679.144,1.029.2,1.029,1.113.022,2.184.041,3.213.083h.02a55.288,55.288,0,0,1,21.636,4.736c.452.185.907.39,1.379.618.535.246,1.07.514,1.627.781.391.185.8.391,1.214.6.72.37,1.462.761,2.2,1.151.37.206.72.391,1.09.618.413.226.844.474,1.277.722.207.124.433.246.659.37.144.083.309.185.474.268,0,0-5.971-115.427-6.835-114.892-1.07.679,14.843-37.982,20.936-52.64.02-.02.02-.041.02-.083,1.3-3.109,2.121-5.125,2.265-5.434a.061.061,0,0,0,.022-.041l27.5,63.056,24.6,107.543c.474-.268.927-.515,1.379-.761.844-.453,1.668-.927,2.491-1.421,1.009-.576,2-1.153,3.006-1.749,7.183-4.22,14.369-8.194,23.386-7.411a10.894,10.894,0,0,1,1.153.122s-20.69-107.687-21.78-108.242c-.433-.206-24.251-69.747-24.251-69.747s-2.326-12.824-4.055-22.439c-.1-.514-.185-1.029-.268-1.523-.37-1.956-.679-3.726-.927-5.147-.1-.535-.185-1.049-.287-1.605-.226-1.236-.35-1.975-.35-2.058-.022,0-.022.02-.041.02a74.014,74.014,0,0,1-8.832,3.85c-18.3,6.813-40.575,8.234-55.418,4.364-1.462-.391-2.861-.822-4.179-1.316h-.022l-.081,2-.206,6.382-.061,1.647-.742,20.009Z" transform="translate(-679.79 -10.378)" fill="#2c2b27"/>
        <g id="Grupo_106915" data-name="Grupo 106915" transform="translate(49.15 207.915)">
          <path id="Trazado_220594" data-name="Trazado 220594" d="M719.795,230.605c17.741,5.914,48.037,3.822,70.432-6.517-.627-3.409-.961-4.834-1.282-6.709-21.512,10.5-51.676,12.745-68.921,6.849Z" transform="translate(-719.795 -217.379)" fill="#2f2e29"/>
          <path id="Trazado_220595" data-name="Trazado 220595" d="M736.388,223.521c2.5-.14,5.045-.415,7.6-.765l.612,5.185c-2.679.356-5.352.629-7.974.761Z" transform="translate(-706.589 -213.1)" fill="#c6c6c6"/>
          <path id="Trazado_220596" data-name="Trazado 220596" d="M748.452,221.107c1-.257,1.981-.553,2.97-.837l1.426,7.133c-.977.271-1.95.555-2.936.8Z" transform="translate(-696.988 -215.078)" fill="#2f2e29"/>
          <path id="Trazado_220597" data-name="Trazado 220597" d="M729.479,222.7l-.383,7.162c-.98-.093-1.927-.219-2.88-.339l.343-7.151C727.525,222.487,728.484,222.611,729.479,222.7Z" transform="translate(-714.685 -213.407)" fill="#2f2e29"/>
        </g>
        <path id="Trazado_220598" data-name="Trazado 220598" d="M728.918,430.277a19.8,19.8,0,0,1-.35,2.121,11.622,11.622,0,0,1,2.471.124A17.485,17.485,0,0,0,738.964,431l.022-3.109-.022-.144-.144-1.893c.207.124.433.246.659.37.144.083.309.185.474.268,0,0-5.971-115.427-6.835-114.892-1.07.679,14.843-37.982,20.936-52.64.02-.02.02-.041.02-.083a23.112,23.112,0,0,1,2.265-5.434.061.061,0,0,0,.022-.041l27.5,63.056L808.464,424c.474-.268.927-.515,1.379-.761.021.061,0,.1.021.144l.2,3.357.392,3.067c2.821.927,6.176.823,9.635.37-.411-.618-.8-1.236-1.174-1.873a31.235,31.235,0,0,1-1.543-2.985,1.91,1.91,0,0,1-.144-.309c-.474-1.051-.927-2.141-1.318-3.254-.207-.533-.411-1.11-.577-1.686-.927-2.719-1.668-5.5-2.326-8.194-.021-.083-.021-.165-.041-.246q-5.59-22.822-10.973-45.661c-4.138-17.519-8.214-35.45-6.361-53.36-6.733-3.046-10.109-10.477-12.909-17.312q-6.177-14.977-12.311-29.953c-2.1-5.167-4.261-10.644-3.459-16.139.866-5.828,4.86-10.644,8.708-15.11-9.674,8.11-27.545,9.9-38.559,3.766,5.456,4.138,10.685,16.181-.2,47.328-2.821,8.071-9.346,20.3-16.324,25.239,13.318,31.621,12.391,76.211,10.333,101.8-.287,3.418-.6,6.485-.885,9.141-.083.822-.185,1.625-.268,2.367-.124,1.07-.226,2.038-.35,2.9a6.915,6.915,0,0,1-.083.7C729.186,428.506,729.042,429.5,728.918,430.277Z" transform="translate(-670.019 3.836)" fill="#1d1d1b" opacity="0.15"/>
      </g>
      <g id="Grupo_106926" data-name="Grupo 106926" transform="translate(686.474 142.397)">
        <g id="Grupo_106925" data-name="Grupo 106925">
          <g id="Grupo_106921" data-name="Grupo 106921" transform="translate(14.867 160.829)">
            <g id="Grupo_106919" data-name="Grupo 106919" transform="translate(0 1.112)">
              <g id="Grupo_106917" data-name="Grupo 106917" transform="translate(0 213.832)">
                <path id="Trazado_220599" data-name="Trazado 220599" d="M812.887,335.417c.991.316,2.421.923,2.306,12.314H768.109C768.109,332.265,801.593,331.82,812.887,335.417Z" transform="translate(-768.109 -333.564)" fill="#16191e"/>
                <rect id="Rectángulo_41684" data-name="Rectángulo 41684" width="47.083" height="4.718" transform="translate(0.001 12.858)" fill="#16191e"/>
              </g>
              <g id="Grupo_106918" data-name="Grupo 106918" transform="translate(75.238 213.832)">
                <path id="Trazado_220600" data-name="Trazado 220600" d="M812.315,335.417c-.99.316-2.419.923-2.3,12.314h47.084C857.095,332.265,823.611,331.82,812.315,335.417Z" transform="translate(-810.004 -333.564)" fill="#16191e"/>
                <rect id="Rectángulo_41685" data-name="Rectángulo 41685" width="47.084" height="4.718" transform="translate(0.006 12.858)" fill="#16191e"/>
              </g>
              <path id="Trazado_220601" data-name="Trazado 220601" d="M864.943,327.175V429.292c-6.752-.045-10.885,2.681-15.25,5.244-.483.278-.966.571-1.464.835s-.982.557-1.494.806c-.542.293-1.1.557-1.685.8q-.749.331-1.539.616c-.278.1-.571.2-.864.293s-.6.176-.894.264-.614.162-.937.233l-.176.045c-.293.059-.6.131-.923.176s-.673.117-1.025.145a4.612,4.612,0,0,1-.643.074,13.3,13.3,0,0,1-1.349.1c-.366.014-.747.031-1.142.031H835.5v-.045c-.2-.966-.381-1.977-.557-3.048-.1-.673-.219-1.376-.322-2.094s-.19-1.451-.293-2.212c-.045-.307-.088-.63-.119-.952-.088-.6-.16-1.216-.219-1.832s-.131-1.259-.19-1.918q-.2-1.934-.4-3.956c-.176-2.02-.352-4.086-.5-6.2-.088-1.3-.19-2.622-.278-3.954-.043-.821-.088-1.641-.145-2.462s-.1-1.656-.147-2.475c-.131-2.139-.219-4.292-.321-6.431v-.162c-.074-2.182-.176-4.337-.278-6.445-.059-1.421-.1-2.812-.147-4.161-.058-1.392-.1-2.724-.16-4.014q-.024-.989-.045-1.934c-.029-.629-.043-1.245-.074-1.861-.029-1.23-.074-2.417-.1-3.545s-.074-2.225-.1-3.25c-.073-2.257-.131-4.63-.145-7.047-.045-4.042,0-8.263.131-12.481.029-1.011.074-2.036.117-3.062.147-4.028.4-8.027.718-11.82.057-.7.117-1.408.19-2.11s.131-1.377.2-2.051.147-1.349.219-2.008c.059-.571.133-1.128.207-1.67.088-.747.19-1.464.293-2.168.2-1.406.424-2.753.659-4.028-.25-.776-.5-1.582-.747-2.4-.133-.409-.25-.835-.366-1.259-.25-.849-.483-1.715-.733-2.608-.2-.747-.4-1.494-.6-2.272-.162-.614-.309-1.245-.469-1.875-.454-1.9-.923-3.866-1.363-5.874s-.878-4.087-1.289-6.181q-.264-1.363-.526-2.769c-.192-1.011-.383-2.036-.557-3.06q-.706-3.957-1.3-7.941c-.147-.878-.278-1.773-.4-2.651-.4-2.667-.747-5.332-1.04-7.925-.131-1.011-.233-2.008-.336-3s-.207-1.977-.295-2.945c-.174-1.86-.321-3.676-.438-5.434-.133-1.905-.235-3.75-.293-5.522a3.878,3.878,0,0,0-.454-.016c-.557,0-1.334.031-2.051.016h-.483c-.016.541-.045,1.1-.074,1.654,0,.25-.014.5-.031.747-.19,3.721-.512,7.735-.966,11.91-.074.792-.162,1.582-.264,2.388-.1.849-.2,1.713-.307,2.577-.293,2.3-.616,4.63-.952,6.973-.074.542-.147,1.07-.25,1.627-.131.819-.264,1.64-.409,2.46-.352,2.27-.747,4.527-1.158,6.752q-.2,1.056-.4,2.11c-.4,2.11-.821,4.19-1.261,6.241-.278,1.363-.585,2.7-.878,4.014-.338,1.508-.688,2.974-1.054,4.409s-.718,2.812-1.085,4.161-.733,2.636-1.114,3.883c-.176.614-.366,1.23-.557,1.816.6,3.281,1.1,7.031,1.494,11.061.2,2.094.4,4.262.542,6.488.293,4.351.5,8.877.616,13.39.088,3.471.117,6.943.088,10.283,0,.6-.016,1.216-.03,1.817-.029,1.844-.057,3.662-.131,5.406-.088,2.577-.176,5.508-.278,8.656q-.067,1.913-.133,3.911c-.014.176-.014.338-.014.514-.072,2.006-.146,4.1-.234,6.226-.514,12.919-1.3,27.437-2.812,38.027-.059.426-.119.866-.19,1.275-.059.426-.119.835-.19,1.245-.192,1.085-.366,2.124-.573,3.092h-.014c-6.255,0-10.328-2.184-14.223-4.468-4.351-2.564-8.467-5.246-15.177-5.2V327.175l1.846-25.065,3.383-46.232.5-6.988.1-1.523,2.7-29.694.264-3.179.25.031H787l3.443.2h.043l4.1.233.323.016,7.076.453,10.576.659,7.09.426,1.787-.131,1.8.131,6.153-.381,7.939-.483h.014c.014,0,.014,0,.014-.014l2.241-.133,12.731-.8h.057l.894-.045,2.446-.131c.117,0,.264-.031.4-.031l.221,2.974.717,9.552,2.55,27.392Z" transform="translate(-760.283 -214.494)" fill="#5b2e20"/>
            </g>
            <g id="Grupo_106920" data-name="Grupo 106920" transform="translate(26.185)">
              <path id="Trazado_220602" data-name="Trazado 220602" d="M852.647,220.128c-16.863,7.6-46.883,8.584-69.957.659.276-3.418.462-4.852.589-6.731,22.222,8.171,52.126,7.352,68.5-.181Z" transform="translate(-782.69 -213.875)" fill="#2f2e29"/>
              <path id="Trazado_220603" data-name="Trazado 220603" d="M808.544,217.486c-2.475.113-5.005.1-7.55.009l-.084,5.163c2.674.081,5.33.083,7.922-.052Z" transform="translate(-768.19 -211.001)" fill="#c6c6c6"/>
            </g>
            <path id="Trazado_220604" data-name="Trazado 220604" d="M842.968,418.369c-3.852,2.261-7.907,4.414-14.132,4.414h-.047c-.2-.968-.39-2.013-.562-3.089-.233-1.358-.436-2.793-.623-4.3-.2-1.514-.375-3.073-.546-4.711-.625-5.865-1.078-12.433-1.435-19.031-.126-2.2-.235-4.4-.329-6.584-.11-2.184-.2-4.351-.28-6.458-.063-1.419-.11-2.807-.156-4.165s-.093-2.714-.14-4.008c-.047-1.311-.079-2.575-.126-3.791-.031-1.232-.077-2.417-.108-3.558-.032-1.122-.079-2.214-.11-3.243-.063-2.263-.126-4.633-.142-7.051-.124-14.2.734-30.481,2.731-41.4-5.289-16.567-10.093-44.846-10.748-63.737-.609-.016-1.967.047-2.979,0a244.266,244.266,0,0,1-2.606,26.268c-.077.546-.154,1.076-.25,1.624-2.028,13.149-4.881,26.392-7.907,35.845,2,10.888,2.854,27.08,2.73,41.227v.016c-.016,2.48-.063,4.9-.142,7.207-.56,16.471-1.279,47.373-4.414,62.941h-.031c-6.255,0-10.326-2.184-14.227-4.461,9.563-18.221,14.74-42.555,14.773-65.719.016-16.924-2.714-33.225-8.5-46.078,5.476-.124,12.136-14.976,14.756-31.431.077-.532.156-1.061.234-1.591,2.153-15.335.672-31.7-8.625-38.686,11.528,5.413,21.121,6.707,31.478.3-16.784,18.953,1.544,61.257,7.036,75.467C826.372,329.44,826.122,387.342,842.968,418.369Z" transform="translate(-753.559 -197.208)" fill="#1d1d1b" opacity="0.6"/>
          </g>
          <g id="Grupo_106924" data-name="Grupo 106924">
            <path id="Trazado_220605" data-name="Trazado 220605" d="M859.3,192.866v.014l-3.473,65.773c-.131,0-.278.031-.4.031-6.724,2.505-14.414,3.457-21.958,4.628-7.706,1.2-15.279,2.652-21.534,6.271-16.628,9.784-11.206,21.987-28.567,23.466-.219.031-.424.031-.645.059,0,0-.057-95.394-1.7-101.137-1.23-4.321-2.432-5.889-2.681-6.093v-.014a1.9,1.9,0,0,0-.014-.278,10.971,10.971,0,0,1,1.011-5.2c2.505-5.815,9.507-11.705,19.279-15.821h.014c.849-.366,1.7-.717,2.593-1.04q2.877-1.078,6.02-1.918c.1-.031.221-.059.338-.088.528-.147,1.07-.278,1.611-.411a76.708,76.708,0,0,1,21.7-2.006h.014c.366.014.7.043,1.07.057a.7.7,0,0,0,.19.016c2.241.145,4.511.381,6.8.747.659.086,1.318.2,1.977.321a78.922,78.922,0,0,1,15.381,4.335c-.1.806-.147,1.641-.176,2.433-.147,6.591,1.816,13.2,2.724,19.8A44.2,44.2,0,0,1,859.3,192.866Z" transform="translate(-745.121 -96.713)" fill="#f1eaea"/>
            <path id="Trazado_220606" data-name="Trazado 220606" d="M799.958,128.219a1,1,0,0,1-.048.153,7.045,7.045,0,0,1-2.209,3.27,16.4,16.4,0,0,1-3.525,2.209,15.421,15.421,0,0,1-5.768,1.839,7.768,7.768,0,0,1-2.274-.176c.162-.266.314-.53.474-.8a16.093,16.093,0,0,1,3.27-4.274c.673-.368,1.349-.763,2.008-1.173a50.006,50.006,0,0,0,4.242-2.843,6.575,6.575,0,0,1,1.453-.9,1.969,1.969,0,0,1,1.663.056A2.331,2.331,0,0,1,799.958,128.219Z" transform="translate(-738.897 -123.48)" fill="#f2c799"/>
            <path id="Trazado_220608" data-name="Trazado 220608" d="M865.179,162.925c0,.014,0,.029-.014.029a19.473,19.473,0,0,1-4,5.874.014.014,0,0,1-.014.014c-.014.029-.045.045-.059.074a.358.358,0,0,1-.074.088c-8.642,9.317-20.171,17.109-28.051,30.4v.014h-.016a22.5,22.5,0,0,1-4.628-2.974l-.014-.014c-6.885-5.641-12.876-15.791-15.983-23.043-.074-.147-.131-.307-.19-.454v-.014a6.739,6.739,0,0,1-.63-3.971,6.287,6.287,0,0,1,1.13-2.489,5.593,5.593,0,0,1,.659-.778,5.19,5.19,0,0,1,2.313-1.361c7.911-2.081,14.841-7.325,22.091-10.021h.016c7.28-2.7,13.593-4.966,20.889-2.329,3.076,1.1,6.167,3.15,6.988,6.314A7.33,7.33,0,0,1,865.179,162.925Z" transform="translate(-718.785 -103.247)" fill="#f1eaea"/>
            <path id="Trazado_220609" data-name="Trazado 220609" d="M815.178,170.058v.059a10.185,10.185,0,0,1-.909,3.267c-.176.4-.352.79-.542,1.187a.014.014,0,0,0-.014.014,39.794,39.794,0,0,1-11.587,14.428c-.029.016-.045.045-.074.059a39.045,39.045,0,0,1-7.53,4.556c-.747-.5-1.478-.7-2.211-1.216H792.3V192.4a159.479,159.479,0,0,1-26.733-23.409,20.968,20.968,0,0,1-4.014-5.714,1.427,1.427,0,0,1-.133-.307c0-.014-.014-.029-.029-.043s-.014-.031-.014-.045a7.392,7.392,0,0,1-.366-4.6c.806-3.164,3.911-5.215,6.988-6.314,7.28-2.636,13.623-.366,20.889,2.329,7.1,2.636,13.887,7.72,21.577,9.874.162.059.338.088.514.147a6.185,6.185,0,0,1,4.116,4.628A4.7,4.7,0,0,1,815.178,170.058Z" transform="translate(-759.066 -103.247)" fill="#f1eaea"/>
            <path id="Trazado_220610" data-name="Trazado 220610" d="M793.231,161.327c2.773,9.439,3.7,15.857,10.134,17.978,1.386,2.1,2.825,6.916,3.565,8.423.8-1.834,1.474-6.562,3.053-8.936,9.238-2.209,8.369-8.572,12.194-17.554l-1.119-11.31-26.372.742Z" transform="translate(-733.249 -103.939)" fill="#e6bd91"/>
            <path id="Trazado_220611" data-name="Trazado 220611" d="M822.649,159.987l-9.342,23.134-4.466-3.881-1.895-1.647-4.387-3.814c7.255-2.845,8.974-9.89,12.2-17.553Z" transform="translate(-725.825 -98.926)" fill="#e2dbdb"/>
            <path id="Trazado_220612" data-name="Trazado 220612" d="M807.237,174.253l-3.585,2.658-1.975,1.471-5.8,4.3-7.512-22.813,8.74-3.592C799.676,163.144,800.624,170.493,807.237,174.253Z" transform="translate(-737.121 -98.887)" fill="#e2dbdb"/>
            <g id="Grupo_106923" data-name="Grupo 106923" transform="translate(49.439 1.893)">
              <g id="Grupo_106922" data-name="Grupo 106922" transform="translate(0.467 4.459)">
                <path id="Trazado_220613" data-name="Trazado 220613" d="M811.8,129.215c-12.012.029-21.541,7.993-20.559,22.225a36.881,36.881,0,0,0,.645,4.887c-2.683-1.5-5.009,1.162-4.042,5.2.681,2.85,2.094,6.675,3.68,7.241,1.9.679,2.471-.5,2.58-.542.873,4.109,1.237,7.781,2.719,9.954a69.186,69.186,0,0,0,4.357,5.96c2.847,3.3,5.2,4.107,10.588,4.107h.063c5.393,0,7.742-.808,10.588-4.107a69.186,69.186,0,0,0,4.357-5.96c1.482-2.173,1.846-5.846,2.719-9.954.109.038.679,1.221,2.581.542,1.586-.566,3-4.391,3.68-7.241.966-4.042-1.359-6.7-4.042-5.2a36.861,36.861,0,0,0,.645-4.887C833.339,137.208,823.81,129.244,811.8,129.215Z" transform="translate(-787.62 -126.775)" fill="#ffd2a1"/>
                <path id="Trazado_220614" data-name="Trazado 220614" d="M793.645,134.536c-4.581,5.406-5.993,11.4-4.121,22.45,1.812,1.006,2.775,2.345,3.5,7.837,1.313.363,1.882.444,3.078.844-7.361-29.265,3.989-29.852,7.1-30.477a78.087,78.087,0,0,1,15.439,0c3.114.625,14.464,1.212,7.1,30.477,1.2-.4,1.765-.481,3.078-.844.724-5.492,1.686-6.831,3.5-7.837,1.871-11.05-.126-16.6-4.122-22.45C822.652,126.416,801.832,124.877,793.645,134.536Z" transform="translate(-786.743 -127.856)" fill="#2f2e29"/>
              </g>
            </g>
            <path id="Trazado_220617" data-name="Trazado 220617" d="M814.355,131.4c-.307.957-1.543,1.149-2.546,1.221a37.459,37.459,0,0,0-8.724,1.64,6.273,6.273,0,0,0-5.375,5.021,60.331,60.331,0,0,1-2.063,7.013,10.543,10.543,0,0,1-4.587,5.51,5.893,5.893,0,0,1-6.781-.754,6.333,6.333,0,0,1-1.309-5.713,18.782,18.782,0,0,1,2.523-5.526c1.1-1.848,2.209-3.7,3.3-5.551.162-.266.314-.53.474-.8a16.093,16.093,0,0,1,3.27-4.274,5.943,5.943,0,0,1,.69-.5,7.569,7.569,0,0,1,1.318-.668,14.367,14.367,0,0,1,5.142-.738c.963,0,1.92-.081,2.882-.162,3.206-.264,6.4-.553,9.423,1.816.506.393,1.254.361,1.744.772A1.66,1.66,0,0,1,814.355,131.4Z" transform="translate(-741.556 -122.228)" fill="#ffd2a1"/>
            <path id="Trazado_220618" data-name="Trazado 220618" d="M801.888,150.038c-4.989,5.986-8.893,10.621-12.242,14.146-9.335,9.809-14.493,11.062-27.3,8.782-.025-.009-.057-.009-.081-.018a1.193,1.193,0,0,1-.1-.137.946.946,0,0,1-.088-.111,12.533,12.533,0,0,1-1.431-11.664,20.56,20.56,0,0,1,7.841-9.575,61.775,61.775,0,0,1,11.167-5.72q7.723-3.3,15.423-6.6c.594-.257,1.2-.514,1.792-.77C798.176,140.888,800.57,147.508,801.888,150.038Z" transform="translate(-759.831 -113.139)" fill="#f1eaea"/>
            <path id="Trazado_220619" data-name="Trazado 220619" d="M792.389,146.266l-6.025,5.222-7.025-10.757,5.954-4.189Z" transform="translate(-744.305 -114.592)" fill="#e2dbdb"/>
            <path id="Trazado_220620" data-name="Trazado 220620" d="M808.7,128.219a1.269,1.269,0,0,0,.049.153,7.057,7.057,0,0,0,2.209,3.27,16.414,16.414,0,0,0,3.527,2.209,15.422,15.422,0,0,0,5.768,1.839,7.767,7.767,0,0,0,2.274-.176c-.162-.266-.314-.53-.474-.8a16.093,16.093,0,0,0-3.27-4.274c-.675-.368-1.349-.763-2.008-1.173a50.026,50.026,0,0,1-4.242-2.843,6.586,6.586,0,0,0-1.455-.9,1.965,1.965,0,0,0-1.661.056A2.335,2.335,0,0,0,808.7,128.219Z" transform="translate(-721.029 -123.48)" fill="#f2c799"/>
            <path id="Trazado_220621" data-name="Trazado 220621" d="M802.139,131.4c.305.957,1.543,1.149,2.547,1.221a37.493,37.493,0,0,1,8.724,1.64,6.266,6.266,0,0,1,5.373,5.021,60.339,60.339,0,0,0,2.065,7.013,10.536,10.536,0,0,0,4.587,5.51,5.89,5.89,0,0,0,6.779-.754,6.324,6.324,0,0,0,1.309-5.713A18.737,18.737,0,0,0,831,139.813c-1.1-1.848-2.209-3.7-3.3-5.551-.162-.266-.314-.53-.474-.8a16.093,16.093,0,0,0-3.27-4.274,5.963,5.963,0,0,0-.691-.5,7.49,7.49,0,0,0-1.316-.668,14.372,14.372,0,0,0-5.142-.738c-.964,0-1.92-.081-2.884-.162-3.206-.264-6.393-.553-9.423,1.816-.506.393-1.254.361-1.742.772A1.661,1.661,0,0,0,802.139,131.4Z" transform="translate(-726.204 -122.228)" fill="#ffd2a1"/>
            <path id="Trazado_220622" data-name="Trazado 220622" d="M858.86,172.948c2.647-3.249,3.033-7.968,1.62-11.914a20.545,20.545,0,0,0-7.841-9.568,61.151,61.151,0,0,0-11.167-5.722l-17.211-7.379c-1.318,2.529-3.71,9.143-5.03,11.671C838.109,172.662,841.365,176.08,858.86,172.948Z" transform="translate(-712.557 -113.14)" fill="#f1eaea"/>
            <path id="Trazado_220623" data-name="Trazado 220623" d="M815.876,146.266l6.025,5.222,7.025-10.757-5.954-4.189Z" transform="translate(-715.227 -114.592)" fill="#e2dbdb"/>
            <path id="Trazado_220626" data-name="Trazado 220626" d="M811.419,220.58C799.8,232.5,805.69,246.492,788.2,249.174l-9.229,48.093,3.383-46.232.5-6.988C800.212,242.567,794.791,230.364,811.419,220.58Z" transform="translate(-744.598 -47.71)" fill="#1d1d1b" opacity="0.6"/>
            <path id="Trazado_220627" data-name="Trazado 220627" d="M825.617,270.743c-16.628,9.784-11.206,21.987-28.567,23.466-.219.031-.424.031-.645.059,0,0-.057-95.394-1.7-101.137-1.23-4.321-2.432-5.889-2.681-6.093v-.014a159.479,159.479,0,0,1-26.733-23.409,20.968,20.968,0,0,1-4.014-5.714.58.58,0,0,0-.045-.145,1.034,1.034,0,0,1-.088-.162c0-.014-.014-.029-.014-.043.074.057.117.057.176.145,5.1,7.661,20.114,19.117,31.715,23.849a25.168,25.168,0,0,0,8.76,2.153,8.592,8.592,0,0,0,2.462-.321c-1.905,3.559-6.959,54.172,3.719,76.906.176.381.352.747.542,1.113,1.86,3.619,4.161,6.445,7,8.115A13.147,13.147,0,0,0,825.617,270.743Z" transform="translate(-758.796 -97.872)" fill="#1d1d1b" opacity="0.1"/>
            <path id="Trazado_220628" data-name="Trazado 220628" d="M863.069,160.837l-.088.088a.358.358,0,0,1-.074.088c-8.642,9.317-20.171,17.109-28.051,30.4v.014L831.383,257.2c-.131,0-.278.031-.4.031-6.724,2.505-14.414,3.457-21.958,4.628.16-.131.321-.264.483-.409.512-.454,1-.909,1.465-1.392h.014c.557-.542,1.1-1.113,1.6-1.7h.014c.014,0,.014,0,.014-.014,11.47-12.8,14.765-33.035,14.737-42.014-.014-3.136,1.261-11.353.894-16.656-.221-3.148-3.926-7.983-7.016-7.28a30.168,30.168,0,0,0,8.965-3.94h.014a50.893,50.893,0,0,0,4.219-3.091,113.292,113.292,0,0,0,10.021-9.655c5.477-5.786,11.382-11.763,18.589-14.853a.014.014,0,0,0,.014-.014Z" transform="translate(-720.675 -95.256)" fill="#1d1d1b" opacity="0.1"/>
            <path id="Trazado_220629" data-name="Trazado 220629" d="M738.853,169.841c1.771.611,3.159.467,4.932,1.079-3.067,8.419-1.345,17.179,2.11,24.81s6.106,12.118,12.327,17.926c-1.753,4.028-2.426,8.241-4.667,13.135-4.678-1.543-8.2-3.762-12.88-5.3-3-5.833-6.156-11.644-7.246-17.623A50.446,50.446,0,0,1,738.853,169.841Z" transform="translate(-669.075 -86.09)" fill="#1d1d1b" opacity="0.1"/>
            <path id="Trazado_220630" data-name="Trazado 220630" d="M735.352,173.715l6.182,1.518,4.376-9-10.122-1.814Z" transform="translate(-666.824 -90.403)" fill="#d4542b"/>
            <path id="Trazado_220631" data-name="Trazado 220631" d="M737.026,169.6c1.76.436,4.422,1.083,6.181,1.519a31.471,31.471,0,0,0,3.29,23.7c4.113,7.3,7.121,11.524,13.688,16.723-1.254,4.206-1.453,8.487-3.082,13.609-4.641-1.083-8.247-2.956-12.887-4.037-3.486-5.542-7.121-11.048-8.794-16.924A52.762,52.762,0,0,1,737.026,169.6Z" transform="translate(-668.499 -86.285)" fill="#fd8f25"/>
          </g>
        </g>
      </g>
    </g>
  </g>
</svg>
