<svg xmlns="http://www.w3.org/2000/svg" xmlns:xlink="http://www.w3.org/1999/xlink" width="346" height="275" viewBox="0 0 346 275">
  <defs>
    <clipPath id="clip-path">
      <rect id="Rectángulo_41691" data-name="Rectángulo 41691" width="346" height="275" transform="translate(875 2773)" fill="#fff" stroke="#707070" stroke-width="1"/>
    </clipPath>
  </defs>
  <g id="Enmascarar_grupo_204" data-name="Enmascarar grupo 204" transform="translate(-875 -2773)" clip-path="url(#clip-path)">
    <g id="Grupo_106947" data-name="Grupo 106947" transform="translate(234.796 2690.868)">
      <g id="Grupo_106936" data-name="Grupo 106936" transform="translate(799.131 96.299)">
        <g id="Grupo_106929" data-name="Grupo 106929" transform="translate(115.993 394.286)">
          <path id="Trazado_220703" data-name="Trazado 220703" d="M736.4,340.974l-.039.451-.155,1.447v.019l-.333,2.779-.138,1.253c-.567.037-1.135.058-1.7.116-1.193.06-2.388.1-3.542.1a16.618,16.618,0,0,1-7.532-1.449l-.021-2.954,7.162-.939,1.232-.155.7-.1,4.206-.527Z" transform="translate(-722.943 -326.705)" fill="#2f2e29"/>
          <g id="Grupo_106928" data-name="Grupo 106928">
            <path id="Trazado_220704" data-name="Trazado 220704" d="M752.35,343.331v.019l-.275,3.738c-7.747,2.914-20.367,3.13-36.977.1-.587-.1-1.174-.215-1.78-.333-.98-.176-1.976-.372-2.975-.587-.137-.019-.254-.058-.391-.079-3.072-.645-6.242-1.408-9.568-2.27l.021-.137.137-1.8.1-1.253c.021-.1.021-.215.039-.333l.039-.488v-.039l.039-.568h.039l4.089.314,1.154.1,1.741.137,1.371.118,4.03.312Z" transform="translate(-700.383 -327.888)" fill="#2f2e29"/>
            <path id="Trazado_220705" data-name="Trazado 220705" d="M700.372,345.451a24.39,24.39,0,0,0,6.907,2.258c1.831.4,3.885.77,6.093,1.082.2.024.391.061.586.087,14.615,2.045,35.167,2.343,38.135-.816.193-2.57-3.977-5.337-11.524-8.319-.741-.282-1.509-.577-2.328-.882-.572-.2-1.157-.41-1.768-.64-.782-.268-1.587-.548-2.42-.829h-.012c-.56-.191-1.159-.382-1.744-.574h-.012c-.819-.268-1.664-.522-2.536-.8q-1.521-.479-3.122-.956c-1.13-.331-2.287-.662-3.484-1.005-5.684-1.616-9.954-1.748-13.156-1a11.442,11.442,0,0,0-8.295,6.861,16.408,16.408,0,0,0-1.159,4.11c-.061.4-.1.766-.135,1.091C700.384,345.231,700.384,345.347,700.372,345.451Z" transform="translate(-700.115 -332.614)" fill="#2f2e29"/>
          </g>
        </g>
        <g id="Grupo_106931" data-name="Grupo 106931" transform="translate(8.696 391.93)">
          <path id="Trazado_220706" data-name="Trazado 220706" d="M785.073,342.844l-.374,2.917c-2.688.879-5.875.77-9.162.336-1.611-.207-3.253-.495-4.856-.777-.089-.012-.164-.034-.254-.046l.007-1.273-.009-2.057-.009-.756-.007-1.47.005-.442.176.048,6.685,1.623.983.244.732.171Z" transform="translate(-745.33 -325.549)" fill="#2f2e29"/>
          <g id="Grupo_106930" data-name="Grupo 106930">
            <path id="Trazado_220707" data-name="Trazado 220707" d="M809.982,343.579c-2.931.626-5.748,1.111-8.411,1.485-.611.092-1.2.172-1.8.239a33.414,33.414,0,0,1-4.182.753c-5,.582-14.129.637-25.351-4.064l.234-3.755,30.224.538,3.724.073,3.4.058,2.413.049.039,0-.073,1.084a1.288,1.288,0,0,1-.014.206c-.007.051,0,.091,0,.13Z" transform="translate(-770.239 -326.284)" fill="#2f2e29"/>
            <path id="Trazado_220708" data-name="Trazado 220708" d="M809.972,345.329a15.963,15.963,0,0,1-5.54,1.618c-.239.036-.492.08-.742.1-.28.056-.57.084-.86.125-1,.118-2.07.217-3.171.283-.145.007-.3.026-.459.032-1.311.079-2.683.125-4.076.142-10.739.16-23.2-1.435-24.861-4.443.172-2.567,3.688-4.939,9.792-7.2.6-.208,1.225-.428,1.895-.667.189-.067.392-.119.582-.186.273-.1.558-.188.843-.282.623-.195,1.273-.4,1.935-.6l.014,0c.447-.138.92-.273,1.393-.421l.014,0c.662-.189,1.333-.364,2.023-.562.821-.22,1.643-.44,2.5-.655.9-.236,1.814-.457,2.767-.686,4.535-1.086,7.805-.823,10.144.218a8.493,8.493,0,0,1,2.85,2.016,11.357,11.357,0,0,1,2.632,5.554,20.955,20.955,0,0,1,.375,4.185c0,.4-.019.765-.034,1.087a1.281,1.281,0,0,1-.014.206C809.968,345.25,809.977,345.29,809.972,345.329Z" transform="translate(-770.028 -331.234)" fill="#2f2e29"/>
          </g>
        </g>
        <g id="Grupo_106932" data-name="Grupo 106932" transform="translate(157.976 0)">
          <path id="Trazado_220709" data-name="Trazado 220709" d="M695.972,135.846l13.461,1.722,1.273-9.942c2.994-1.973,4.455-4.562,4.861-11.268l.4-8.928c-6.682-1.132-11.705-2.014-19.073-2.654l-1,7.774-3.439-.533v.009c.015.336.218,7.578.287,8.146a7.9,7.9,0,0,0,3.35,5.419l1.1.667Z" transform="translate(-692.459 -99.362)" fill="#e3b788"/>
          <path id="Trazado_220710" data-name="Trazado 220710" d="M703.48,111.77a2.915,2.915,0,0,1-.932,1.881,2.4,2.4,0,0,1-1.857.626l-.454-.048a2.6,2.6,0,0,1-2.171-2.949l.691-6.972a2.718,2.718,0,0,1,.87-1.755,2.236,2.236,0,0,1,1.732-.585l.935.1a2.267,2.267,0,0,1,1.893,2.57Z" transform="translate(-690.239 -101.355)" fill="#ffce99"/>
          <path id="Trazado_220711" data-name="Trazado 220711" d="M706.607,111.418a2.921,2.921,0,0,1-.934,1.879,2.394,2.394,0,0,1-1.855.628l-.456-.049a2.6,2.6,0,0,1-2.171-2.948l.691-6.972a2.723,2.723,0,0,1,.872-1.755,2.231,2.231,0,0,1,1.732-.585l.934.1a2.265,2.265,0,0,1,1.893,2.57Z" transform="translate(-698.698 -101.604)" fill="#ffce99"/>
          <path id="Trazado_220712" data-name="Trazado 220712" d="M700.48,111.882a2.651,2.651,0,0,1-2.791,2.465l-.457-.049a2.37,2.37,0,0,1-1.666-.985,2.872,2.872,0,0,1-.508-2.007l.623-5.518a2.476,2.476,0,0,1,2.608-2.3l.939.1a2.065,2.065,0,0,1,1.453.86,2.493,2.493,0,0,1,.444,1.748Z" transform="translate(-682.034 -100.282)" fill="#ffce99"/>
          <path id="Trazado_220713" data-name="Trazado 220713" d="M697.133,111.346a2.144,2.144,0,0,1-2.383,1.864l-.394-.043a2.127,2.127,0,0,1-1.917-2.326l.473-4.24a2,2,0,0,1,2.226-1.741l.814.089a1.853,1.853,0,0,1,1.669,2.029Z" transform="translate(-674.069 -99.311)" fill="#ffce99"/>
          <path id="Trazado_220714" data-name="Trazado 220714" d="M710.329,131.885l.661-5.632a8.828,8.828,0,0,0-5.615-10.855l-.044-.959a1.567,1.567,0,0,1,.526-1.231l2.116-1.9a3.7,3.7,0,0,0,.263-5.248l-.389-.427a1.759,1.759,0,0,0-2.471-.123l-2.294,2.033-3.41,3.03a1.933,1.933,0,0,0-.643,1.241v.009c.015.336.219,7.578.287,8.146a7.9,7.9,0,0,0,3.35,5.419l1.1.667-.406,2.845.041.014Z" transform="translate(-699.027 -99.159)" fill="#ffce99"/>
        </g>
        <path id="Trazado_220715" data-name="Trazado 220715" d="M826.019,176.933a2.881,2.881,0,0,0-.283.277.317.317,0,0,1-.073.068,17.692,17.692,0,0,0-1.526,1.756c-.186.236-.36.474-.522.725q-.31.451-.584.9a8.912,8.912,0,0,0-.521.92,10.481,10.481,0,0,0-.486.952c-.147.333-.292.654-.425.987-.126.27-.224.531-.324.8-.017.038-.024.089-.043.125a.4.4,0,0,0-.039.113c-.043.125-.084.236-.125.362a44.714,44.714,0,0,0-2.123,10.992,2.05,2.05,0,0,1-.024.3c-.09,1.016-.169,2.033-.246,3.038-.024.3-.053.616-.068.94-.623,9.142-1.429,26.208-3.149,41.584l-.015.114c-1.5,13.27-3.374,22.707-6.721,27.21-20.906,5.125-42.047,2.267-63.329-5.5-4.325-11.843,2.144-48.969,2.176-61.426-3.4,7.59-6.276,15.807-10.312,23.666a77.068,77.068,0,0,1-5.808,9.611l-.015.01c-.662.917-1.353,1.843-2.079,2.738-.017.024-.031.036-.048.06s-.044.046-.06.07-.015.012-.017.024l-5.064-2.808L710.43,227.9c2.973-6.761,5.221-11.325,7.578-16.225,1.722-3.591,3.506-7.37,5.675-12.32,3.507-7.993,7.187-16.225,13.639-22.11,4.4-4.016,11.883-5.556,16.633-9.032a13.005,13.005,0,0,0,2.429-2.3l.029-.024c1.864-.333,3.709-.63,5.556-.928l.014,0c1.234-.195,2.466-.374,3.688-.568,1.674-.28,3.335-.563,4.991-.884l.038.005a62.98,62.98,0,0,0,12.75-3.584c1.031-.427,2.043-.91,3.059-1.43.543-.268,1.074-.565,1.608-.874a44.925,44.925,0,0,0,8.4.217,24.352,24.352,0,0,0,13.182-4.817c4.376,6.257,8.81,12.965,13.205,19.381C823.943,173.936,824.986,175.448,826.019,176.933Z" transform="translate(-675.208 -65.256)" fill="#b8b0da"/>
        <path id="Trazado_220716" data-name="Trazado 220716" d="M761.785,174.234l-25.937,4.485-4.267-25.1,27.254-3.34Z" transform="translate(-647.072 -67.199)" fill="#e3b788"/>
        <path id="Trazado_220717" data-name="Trazado 220717" d="M735.95,159.68c-.169,1.314-.347,2.628-.574,3.936a37.744,37.744,0,0,1-1.884,7.337,44.792,44.792,0,0,1-7.575,12.074,126,126,0,0,1-14.27,15.47.693.693,0,0,1-.079.077c-1.162-1.435-2.318-2.931-3.46-4.451a131.313,131.313,0,0,1-12.5-19.794c7.821-5.779,13.557-9.971,17.087-19.031a121.366,121.366,0,0,0,4.617-15.26c1.471-5.783,2.139-12.067,4.25-17.133l15.368,1.966a34.805,34.805,0,0,1,.241,6.733C736.984,141.151,737.17,150.217,735.95,159.68Z" transform="translate(-561.117 -86.549)" fill="#b8b0da"/>
        <rect id="Rectángulo_41687" data-name="Rectángulo 41687" width="15.496" height="8.225" transform="translate(175.818 38.318) rotate(-172.706)" fill="#472ea6"/>
        <path id="Trazado_220718" data-name="Trazado 220718" d="M698.99,121.989a1.371,1.371,0,1,1-1.186-1.534A1.37,1.37,0,0,1,698.99,121.989Z" transform="translate(-524.002 -88.288)" fill="#fff"/>
        <g id="Grupo_106933" data-name="Grupo 106933" transform="translate(75.176 32.015)">
          <path id="Trazado_220719" data-name="Trazado 220719" d="M750.216,125.968c-11.236.28-19.981,7.93-18.763,21.22a34.79,34.79,0,0,0,.707,4.557c-2.541-1.342-4.659,1.193-3.671,4.955.7,2.651,2.1,6.2,3.595,6.7,1.792.594,2.3-.526,2.4-.563.9,3.825,1.323,7.252,2.753,9.254a64.656,64.656,0,0,0,4.2,5.484c2.731,3.026,4.946,3.731,9.992,3.618l.027,0h.029c5.045-.113,7.227-.918,9.817-4.064a64.993,64.993,0,0,0,3.951-5.668c1.338-2.063,1.6-5.506,2.333-9.369.1.034.66,1.13,2.424.454,1.471-.563,2.715-4.17,3.291-6.851.819-3.8-1.413-6.238-3.89-4.782a34.8,34.8,0,0,0,.5-4.584C770.534,132.99,761.452,125.741,750.216,125.968Z" transform="translate(-728.241 -116.402)" fill="#ffce99"/>
          <path id="Trazado_220720" data-name="Trazado 220720" d="M733.831,131.246c-4.171,5.153-5.366,10.789-3.383,21.086,1.717.9,2.646,2.135,3.438,7.256,1.236.312,1.77.377,2.9.725-7.5-27.22,3.1-28.007,6-28.659a73.171,73.171,0,0,1,14.439-.324c2.927.521,13.557.829,7.286,28.36,1.111-.4,1.642-.49,2.861-.855.562-5.151,1.434-6.426,3.108-7.4,1.519-10.376-.468-15.523-4.328-20.912C760.791,123.038,741.286,122.036,733.831,131.246Z" transform="translate(-727.926 -117.35)" fill="#2f2e29"/>
          <path id="Trazado_220721" data-name="Trazado 220721" d="M793.452,126.542a5.581,5.581,0,0,0,1.028,2.183c-1.888-.478-5.687-3.27-7.119-3.352,3.538,9.782,13.112,20.229,21.937,21.983q-1.4-1.669-2.794-3.335,6.935,2.048,13.868,4.1-2.355-4.764-4.712-9.529l4.992,1.807c-4.415-7.892-12.731-12.538-20.744-11.589.427-.393,1.208-1.357,1.777-1.879-1.951.195-2.579.039-4.629,1.357A11.033,11.033,0,0,0,793.452,126.542Z" transform="translate(-774.457 -125.373)" fill="#2f2e29"/>
          <path id="Trazado_220722" data-name="Trazado 220722" d="M819.991,138.479a19.69,19.69,0,0,1-9.044,4.091q.96-1.321,1.922-2.64l-12.038,2a20.537,20.537,0,0,1,4.339-9.225l-2.719.092c4.578-4.987,12.378-6.373,17.805-2.738a5.425,5.425,0,0,1,2.19,4.276C822.485,136.091,821.228,137.489,819.991,138.479Z" transform="translate(-799.244 -123.507)" fill="#2f2e29"/>
        </g>
        <path id="Trazado_220723" data-name="Trazado 220723" d="M754.278,146.754A37.564,37.564,0,0,1,752.4,154.1a44.8,44.8,0,0,1-7.58,12.076,126.242,126.242,0,0,1-14.272,15.474.318.318,0,0,1-.073.068,17.676,17.676,0,0,0-1.526,1.756c-.186.236-.36.474-.522.725q-.31.451-.584.9c-.181.3-.35.6-.521.92s-.329.635-.486.952c-.147.333-.292.654-.425.987-.112.271-.224.531-.324.8-.017.038-.024.089-.043.125s-.022.075-.039.113c-.043.125-.084.236-.125.362a47.253,47.253,0,0,0-2.123,10.992,2.059,2.059,0,0,1-.024.3c-.091,1.016-.169,2.033-.246,3.038-.024.3-.053.616-.068.94-.686,8.925-1.963,25.191-3.11,40.965-.014.207-.027.413-.039.62l-.015.114c-1.5,13.27-3.374,22.707-6.721,27.21l-16.841-2.156c7.964-4.912,18.032-11.832,20.085-26.046-3.69,6.786-10.935,9.227-17.884,10.98,10.225-4.494,13.552-12.6,16.295-20.613,2.514-7.339,3.8-18.075,3.606-25.839a58.26,58.26,0,0,0-6.844-25.9,64.618,64.618,0,0,0,15.061-6.7c.239-.138.463-.265.7-.416A69.785,69.785,0,0,0,754.278,146.754Z" transform="translate(-580.021 -69.692)" fill="#1d1d1b" opacity="0.05"/>
        <path id="Trazado_220724" data-name="Trazado 220724" d="M753.7,180.811l-15.475-16.154,7.488-6.7,17.2,11.837Z" transform="translate(-659.547 -61.773)" fill="#472ea6"/>
        <path id="Trazado_220725" data-name="Trazado 220725" d="M740.9,177.665l4.8-21.361-8.7-1.589-9.327,17.373Z" transform="translate(-624.296 -64.066)" fill="#472ea6"/>
        <g id="Grupo_106934" data-name="Grupo 106934" transform="translate(0 107.493)">
          <path id="Trazado_220726" data-name="Trazado 220726" d="M810.722,192.24l-10.306,7.621-5.629-7.611c-3.378-.247-5.776-1.71-9.2-7.051l-4.443-7.179c4.989-4.011,8.724-7.052,14.5-10.975l4.4,5.952,2.589-2.024.005.007c.142.285,3.311,6.349,3.516,6.851a7.462,7.462,0,0,1-.266,6.01l-.6,1.06Z" transform="translate(-780.606 -162.844)" fill="#e3b788"/>
          <path id="Trazado_220727" data-name="Trazado 220727" d="M794.41,175.744a2.756,2.756,0,0,0,1.635,1.121,2.262,2.262,0,0,0,1.82-.34l.352-.249a2.453,2.453,0,0,0,.432-3.431l-3.781-5.429a2.571,2.571,0,0,0-1.528-1.046,2.11,2.11,0,0,0-1.7.316l-.725.512a2.141,2.141,0,0,0-.376,2.992Z" transform="translate(-784.325 -163.361)" fill="#ffce99"/>
          <path id="Trazado_220728" data-name="Trazado 220728" d="M792,174.014a2.756,2.756,0,0,0,1.635,1.121,2.262,2.262,0,0,0,1.82-.34l.352-.247a2.455,2.455,0,0,0,.432-3.432l-3.781-5.429a2.584,2.584,0,0,0-1.528-1.046,2.116,2.116,0,0,0-1.7.316l-.725.512a2.14,2.14,0,0,0-.376,2.992Z" transform="translate(-777.792 -164.584)" fill="#ffce99"/>
          <path id="Trazado_220729" data-name="Trazado 220729" d="M795.91,177.256a2.505,2.505,0,0,0,3.437.746l.355-.251a2.244,2.244,0,0,0,.92-1.581,2.712,2.712,0,0,0-.505-1.888l-3.057-4.264a2.34,2.34,0,0,0-3.209-.7l-.731.515a1.95,1.95,0,0,0-.8,1.377,2.368,2.368,0,0,0,.439,1.647Z" transform="translate(-789.571 -161.499)" fill="#ffce99"/>
          <path id="Trazado_220730" data-name="Trazado 220730" d="M797.578,178.017a2.027,2.027,0,0,0,2.823.44l.307-.218a2.01,2.01,0,0,0,.507-2.8l-2.343-3.279a1.891,1.891,0,0,0-2.635-.41l-.631.447a1.75,1.75,0,0,0-.442,2.442Z" transform="translate(-794.846 -159.773)" fill="#ffce99"/>
          <path id="Trazado_220731" data-name="Trazado 220731" d="M793.623,192.061l-3.141-4.339a8.342,8.342,0,0,1-.37-11.54l-.4-.811a1.483,1.483,0,0,0-1-.773l-2.62-.587a3.494,3.494,0,0,1-2.634-4.207l.123-.531a1.661,1.661,0,0,1,1.98-1.241l2.83.62,4.206.927a1.827,1.827,0,0,1,1.1.725l.005.007c.142.285,3.311,6.349,3.516,6.851a7.462,7.462,0,0,1-.266,6.01l-.6,1.06,1.645,2.159-.027.029Z" transform="translate(-771.661 -162.175)" fill="#ffce99"/>
        </g>
        <path id="Trazado_220732" data-name="Trazado 220732" d="M805.6,203.677a103.223,103.223,0,0,1-6.45,11.674l-.015.01a32.5,32.5,0,0,1-2.186,2.871l-.017.021h0a15.157,15.157,0,0,1-5.673,4.4c-4.494-.249-11.876-.505-24.8-24.011-1.4-2.546-2.864-5.361-4.392-8.469l.662-.5,2.2-1.618,8.1-6,.79-.589.012,0c2.395,2.231,6.822,6.153,11.881,10.118,5.463,4.275,11.657,8.619,16.814,10.918A24.962,24.962,0,0,0,805.6,203.677Z" transform="translate(-742.907 -45.16)" fill="#b8b0da"/>
        <rect id="Rectángulo_41688" data-name="Rectángulo 41688" width="7.768" height="14.636" transform="translate(19.146 145.003) rotate(-126.487)" fill="#472ea6"/>
        <path id="Trazado_220733" data-name="Trazado 220733" d="M787.3,184.96a1.295,1.295,0,1,0,.271-1.811A1.295,1.295,0,0,0,787.3,184.96Z" transform="translate(-769.598 -44.148)" fill="#fff"/>
        <path id="Trazado_220734" data-name="Trazado 220734" d="M814.679,249.962l-25.044-3.205c-4.325-11.843,2.144-48.969,2.176-61.426-3.4,7.59-6.276,15.807-10.312,23.666a77.062,77.062,0,0,1-5.808,9.611l-.015.01c-.688,1.005-1.4,1.941-2.127,2.8-.015.024-.044.046-.06.07s-.015.012-.017.024a15.233,15.233,0,0,1-5.675,4.4c-4.494-.249-11.876-.505-24.8-24.011,7.334,9.263,18.568,21.913,24.313,17.667.374-.278.734-.556,1.1-.862a51.3,51.3,0,0,0,10.657-12.943c6.226-10.13,10.746-22.077,14.313-28.9a80.738,80.738,0,0,0,.113,8.365c.6,9.766,1.149,39.1,16.8,55.4-12.547-7.46-15.766-12.8-18-18.993C793.467,231.249,796.149,239.865,814.679,249.962Z" transform="translate(-719.451 -48.417)" fill="#1d1d1b" opacity="0.05"/>
        <path id="Trazado_220735" data-name="Trazado 220735" d="M842.64,312.922s-4.716,95.558-6.105,106.22c-.078.645-.137.978-.195.978-1.058.02-2.075.039-3.053.079h-.019a52.546,52.546,0,0,0-20.563,4.5c-.43.176-.862.37-1.311.587-.509.234-1.017.488-1.546.742-.372.176-.763.372-1.154.568-.684.352-1.389.724-2.094,1.094-.352.2-.684.372-1.036.587-.393.215-.8.451-1.214.686-.2.118-.411.234-.626.352-.137.078-.294.176-.451.254,0,0,5.675-109.7,6.5-109.194,1.017.645-14.107-36.1-19.9-50.029-.019-.019-.019-.039-.019-.079-1.232-2.954-2.016-4.871-2.152-5.165a.058.058,0,0,1-.021-.039l-26.14,59.929L738.161,427.2c-.451-.254-.881-.49-1.311-.724-.8-.43-1.586-.881-2.367-1.35-.959-.548-1.9-1.1-2.857-1.662-6.827-4.011-13.656-7.788-22.226-7.044a10.359,10.359,0,0,0-1.1.116S727.968,314.194,729,313.667c.411-.2,23.048-66.288,23.048-66.288s2.21-12.188,3.854-21.326c.1-.488.176-.978.254-1.447.352-1.859.645-3.542.881-4.892.1-.509.176-1,.273-1.526.215-1.174.333-1.877.333-1.956.021,0,.021.019.039.019a70.342,70.342,0,0,0,8.394,3.659c17.394,6.476,38.563,7.826,52.67,4.148,1.389-.372,2.719-.782,3.972-1.251h.021l.077,1.9.2,6.066.058,1.565.705,19.017Z" transform="translate(-688.2 -20.587)" fill="#2f2e29"/>
        <g id="Grupo_106935" data-name="Grupo 106935" transform="translate(67.889 197.604)">
          <path id="Trazado_220736" data-name="Trazado 220736" d="M786.733,229.95c-16.862,5.62-45.655,3.632-66.939-6.194.6-3.24.913-4.595,1.219-6.377,20.446,9.98,49.113,12.113,65.5,6.51Z" transform="translate(-719.795 -217.379)" fill="#2f2e29"/>
          <path id="Trazado_220737" data-name="Trazado 220737" d="M744.19,223.483c-2.376-.133-4.794-.394-7.22-.727l-.582,4.928c2.547.338,5.086.6,7.578.724Z" transform="translate(-705.572 -213.579)" fill="#c6c6c6"/>
          <path id="Trazado_220738" data-name="Trazado 220738" d="M752.63,221.065c-.949-.244-1.882-.526-2.823-.8l-1.355,6.779c.929.258,1.854.527,2.791.765Z" transform="translate(-734.603 -215.336)" fill="#2f2e29"/>
          <path id="Trazado_220739" data-name="Trazado 220739" d="M726.216,222.682l.364,6.807c.932-.089,1.831-.208,2.738-.323l-.326-6.8C728.073,222.481,727.162,222.6,726.216,222.682Z" transform="translate(-673.338 -213.851)" fill="#2f2e29"/>
        </g>
        <path id="Trazado_220740" data-name="Trazado 220740" d="M807.237,420.548a18.811,18.811,0,0,0,.333,2.016,11.046,11.046,0,0,0-2.349.118,16.618,16.618,0,0,1-7.532-1.449l-.021-2.954.021-.137.137-1.8c-.2.118-.411.234-.626.352-.137.078-.294.176-.451.254,0,0,5.675-109.7,6.5-109.194,1.017.645-14.107-36.1-19.9-50.029-.019-.019-.019-.039-.019-.078a21.965,21.965,0,0,0-2.152-5.165.058.058,0,0,1-.021-.039l-26.14,59.929-23.38,102.21c-.451-.254-.881-.49-1.311-.724-.02.058,0,.1-.02.137l-.195,3.19-.372,2.915a21.2,21.2,0,0,1-9.157.352c.391-.587.763-1.174,1.116-1.78a29.676,29.676,0,0,0,1.466-2.837,1.817,1.817,0,0,0,.137-.294c.451-1,.881-2.034,1.253-3.093.2-.507.391-1.055.548-1.6.881-2.584,1.586-5.224,2.21-7.788.02-.079.02-.157.039-.234q5.312-21.69,10.428-43.4c3.932-16.65,7.807-33.692,6.045-50.714,6.4-2.895,9.608-9.957,12.268-16.453q5.871-14.235,11.7-28.468c2-4.91,4.05-10.116,3.287-15.339-.823-5.539-4.619-10.116-8.276-14.361,9.195,7.708,26.179,9.41,36.646,3.579-5.185,3.932-10.155,15.378.195,44.981,2.681,7.67,8.882,19.292,15.515,23.987-12.658,30.053-11.777,72.431-9.821,96.751.273,3.248.566,6.163.841,8.688.079.782.176,1.545.254,2.25.118,1.017.215,1.937.333,2.758a6.562,6.562,0,0,0,.078.666C806.983,418.865,807.119,419.805,807.237,420.548Z" transform="translate(-681.676 -7.963)" fill="#1d1d1b" opacity="0.15"/>
      </g>
      <g id="Grupo_106948" data-name="Grupo 106948" transform="translate(644.426 92.498)">
        <g id="Grupo_106881" data-name="Grupo 106881" transform="translate(13.562 394.285)">
          <path id="Trazado_220421" data-name="Trazado 220421" d="M722.943,340.974l.039.451.155,1.447v.019l.333,2.779.138,1.253c.567.037,1.135.058,1.7.116,1.193.06,2.388.1,3.542.1a16.618,16.618,0,0,0,7.532-1.449l.021-2.954-7.162-.939-1.232-.155-.7-.1-4.206-.527Z" transform="translate(-684.42 -326.705)" fill="#2f2e29"/>
          <g id="Grupo_106880" data-name="Grupo 106880">
            <path id="Trazado_220422" data-name="Trazado 220422" d="M700.383,343.331v.019l.275,3.738c7.747,2.914,20.367,3.13,36.977.1.587-.1,1.174-.215,1.78-.333.98-.176,1.976-.372,2.975-.587.137-.019.254-.058.391-.079,3.072-.645,6.242-1.408,9.568-2.27l-.021-.137-.137-1.8-.1-1.253c-.021-.1-.021-.215-.039-.333l-.039-.488v-.039l-.039-.568h-.039l-4.089.314-1.154.1-1.741.137-1.371.118-4.03.312Z" transform="translate(-700.365 -327.888)" fill="#2f2e29"/>
            <path id="Trazado_220423" data-name="Trazado 220423" d="M752.1,345.451a24.39,24.39,0,0,1-6.907,2.258c-1.831.4-3.885.77-6.093,1.082-.2.024-.391.061-.586.087-14.615,2.045-35.167,2.343-38.135-.816-.193-2.57,3.977-5.337,11.524-8.319.741-.282,1.509-.577,2.328-.882.572-.2,1.157-.41,1.768-.64.782-.268,1.587-.548,2.42-.829h.012c.56-.191,1.159-.382,1.744-.574h.012c.819-.268,1.664-.522,2.536-.8q1.521-.479,3.122-.956c1.13-.331,2.287-.662,3.484-1.005,5.684-1.616,9.954-1.748,13.156-1a11.442,11.442,0,0,1,8.295,6.861,16.408,16.408,0,0,1,1.159,4.11c.061.4.1.766.135,1.091C752.088,345.231,752.088,345.347,752.1,345.451Z" transform="translate(-700.372 -332.614)" fill="#2f2e29"/>
          </g>
        </g>
        <g id="Grupo_106883" data-name="Grupo 106883" transform="translate(132.81 391.93)">
          <path id="Trazado_220424" data-name="Trazado 220424" d="M770.41,342.844l.374,2.917c2.688.879,5.875.77,9.162.336,1.611-.207,3.253-.495,4.856-.777.089-.012.164-.034.254-.046L785.049,344l.009-2.057.009-.756.007-1.47-.005-.442-.176.048-6.685,1.623-.983.244-.732.171Z" transform="translate(-770.118 -325.549)" fill="#2f2e29"/>
          <g id="Grupo_106882" data-name="Grupo 106882">
            <path id="Trazado_220425" data-name="Trazado 220425" d="M770.531,343.579c2.931.626,5.748,1.111,8.411,1.485.611.092,1.2.172,1.8.239a33.414,33.414,0,0,0,4.182.753c5,.582,14.129.637,25.351-4.064l-.234-3.755-30.224.538-3.724.073-3.4.058-2.413.049-.039,0,.073,1.084a1.281,1.281,0,0,0,.014.206c.007.051,0,.091,0,.13Z" transform="translate(-770.239 -326.284)" fill="#2f2e29"/>
            <path id="Trazado_220426" data-name="Trazado 220426" d="M770.314,345.329a15.962,15.962,0,0,0,5.54,1.618c.239.036.492.08.742.1.28.056.57.084.86.125,1,.118,2.07.217,3.171.283.145.007.3.026.459.032,1.311.079,2.683.125,4.076.142,10.739.16,23.2-1.435,24.861-4.443-.172-2.567-3.688-4.939-9.792-7.2-.6-.208-1.225-.428-1.895-.667-.189-.067-.393-.12-.582-.186-.273-.1-.558-.188-.843-.282-.623-.195-1.273-.4-1.935-.6l-.014,0c-.447-.138-.92-.273-1.393-.421l-.014,0c-.662-.189-1.333-.364-2.023-.562-.821-.22-1.643-.44-2.5-.655-.9-.236-1.814-.457-2.767-.686-4.535-1.086-7.805-.823-10.144.218a8.493,8.493,0,0,0-2.85,2.016,11.357,11.357,0,0,0-2.632,5.554,20.955,20.955,0,0,0-.375,4.185c0,.4.019.765.034,1.087a1.288,1.288,0,0,0,.014.206C770.317,345.25,770.308,345.289,770.314,345.329Z" transform="translate(-770.223 -331.234)" fill="#2f2e29"/>
          </g>
        </g>
        <g id="Grupo_106884" data-name="Grupo 106884">
          <path id="Trazado_220427" data-name="Trazado 220427" d="M712.454,135.846l-13.461,1.722-1.273-9.942c-2.994-1.973-4.455-4.562-4.861-11.268l-.4-8.928c6.682-1.132,11.705-2.014,19.073-2.654l1,7.774,3.439-.533v.009c-.015.336-.218,7.578-.287,8.146a7.9,7.9,0,0,1-3.35,5.419l-1.1.667Z" transform="translate(-692.403 -99.362)" fill="#e3b788"/>
          <path id="Trazado_220428" data-name="Trazado 220428" d="M698.773,111.77a2.916,2.916,0,0,0,.932,1.881,2.4,2.4,0,0,0,1.857.626l.454-.048a2.6,2.6,0,0,0,2.171-2.949l-.691-6.972a2.718,2.718,0,0,0-.87-1.755,2.236,2.236,0,0,0-1.733-.585l-.935.1a2.267,2.267,0,0,0-1.893,2.57Z" transform="translate(-688.451 -101.355)" fill="#ffce99"/>
          <path id="Trazado_220429" data-name="Trazado 220429" d="M701.9,111.418a2.92,2.92,0,0,0,.934,1.879,2.394,2.394,0,0,0,1.855.628l.456-.049a2.6,2.6,0,0,0,2.171-2.948l-.691-6.972a2.723,2.723,0,0,0-.872-1.755,2.231,2.231,0,0,0-1.732-.585l-.934.1a2.265,2.265,0,0,0-1.893,2.57Z" transform="translate(-686.242 -101.604)" fill="#ffce99"/>
          <path id="Trazado_220430" data-name="Trazado 220430" d="M695.7,111.882a2.651,2.651,0,0,0,2.791,2.465l.457-.049a2.369,2.369,0,0,0,1.666-.985,2.872,2.872,0,0,0,.509-2.007l-.623-5.518a2.476,2.476,0,0,0-2.608-2.3l-.939.1a2.066,2.066,0,0,0-1.453.86,2.492,2.492,0,0,0-.444,1.748Z" transform="translate(-690.581 -100.282)" fill="#ffce99"/>
          <path id="Trazado_220431" data-name="Trazado 220431" d="M692.926,111.346a2.144,2.144,0,0,0,2.383,1.864l.394-.043a2.127,2.127,0,0,0,1.917-2.326l-.473-4.24a2,2,0,0,0-2.226-1.741l-.814.089a1.853,1.853,0,0,0-1.669,2.029Z" transform="translate(-692.426 -99.311)" fill="#ffce99"/>
          <path id="Trazado_220432" data-name="Trazado 220432" d="M700.022,131.885l-.66-5.632a8.828,8.828,0,0,1,5.615-10.855l.044-.959a1.567,1.567,0,0,0-.526-1.231l-2.116-1.9a3.7,3.7,0,0,1-.263-5.248l.389-.427a1.759,1.759,0,0,1,2.471-.123l2.294,2.033,3.41,3.03a1.933,1.933,0,0,1,.643,1.241v.009c-.015.336-.218,7.578-.287,8.146a7.9,7.9,0,0,1-3.35,5.419l-1.1.667.406,2.845-.041.014Z" transform="translate(-687.762 -99.159)" fill="#ffce99"/>
        </g>
        <path id="Trazado_220433" data-name="Trazado 220433" d="M710.43,176.933a2.883,2.883,0,0,1,.283.277.318.318,0,0,0,.073.068,17.685,17.685,0,0,1,1.526,1.756c.186.236.36.474.522.725q.31.451.584.9a8.912,8.912,0,0,1,.521.92,10.48,10.48,0,0,1,.486.952c.147.333.292.654.425.987.126.27.224.531.324.8.017.038.024.089.043.125a.4.4,0,0,1,.039.113c.043.125.084.236.125.362a44.717,44.717,0,0,1,2.123,10.992,2.042,2.042,0,0,0,.024.3c.09,1.016.169,2.033.246,3.038.024.3.053.616.068.94.623,9.142,1.429,26.208,3.149,41.584l.015.114c1.5,13.27,3.374,22.707,6.721,27.21,20.906,5.125,42.047,2.267,63.329-5.5,4.325-11.843-2.144-48.969-2.176-61.426,3.4,7.59,6.276,15.807,10.312,23.666A77.061,77.061,0,0,0,805,235.447l.015.01c.662.917,1.353,1.843,2.079,2.738.017.024.031.036.048.06s.044.046.06.07.015.012.017.024l5.064-2.808,13.734-7.636c-2.973-6.761-5.221-11.325-7.578-16.225-1.722-3.591-3.506-7.37-5.675-12.32-3.507-7.993-7.187-16.225-13.639-22.11-4.4-4.016-11.883-5.556-16.633-9.032a13.008,13.008,0,0,1-2.429-2.3l-.029-.024c-1.864-.333-3.709-.63-5.556-.928l-.014,0c-1.234-.195-2.466-.374-3.688-.568-1.674-.28-3.335-.563-4.991-.884l-.038.005A62.98,62.98,0,0,1,753,159.935c-1.031-.427-2.043-.91-3.059-1.43-.543-.268-1.074-.565-1.608-.874a44.925,44.925,0,0,1-8.4.217,24.352,24.352,0,0,1-13.182-4.817c-4.376,6.257-8.81,12.965-13.205,19.381C712.506,173.936,711.463,175.448,710.43,176.933Z" transform="translate(-679.702 -65.256)" fill="#faf0f0"/>
        <path id="Trazado_220434" data-name="Trazado 220434" d="M731.58,174.234l25.937,4.485,4.267-25.1-27.254-3.34Z" transform="translate(-664.753 -67.199)" fill="#e3b788"/>
        <path id="Trazado_220435" data-name="Trazado 220435" d="M738.539,169.841c1.683.58,3,.444,4.687,1.026-2.915,8-1.279,16.327,2.005,23.579s5.8,11.517,11.715,17.037c-1.666,3.828-2.306,7.832-4.436,12.483-4.446-1.466-7.793-3.576-12.241-5.042-2.85-5.544-5.851-11.067-6.887-16.749A47.944,47.944,0,0,1,738.539,169.841Z" transform="translate(-664.086 -53.375)" fill="#1d1d1b" opacity="0.1"/>
        <path id="Trazado_220436" data-name="Trazado 220436" d="M696.884,159.679c.169,1.314.346,2.628.574,3.936a37.748,37.748,0,0,0,1.884,7.337,44.794,44.794,0,0,0,7.575,12.074,126.009,126.009,0,0,0,14.27,15.47.683.683,0,0,0,.079.077c1.162-1.435,2.318-2.931,3.46-4.451a131.32,131.32,0,0,0,12.5-19.794c-7.821-5.779-13.557-9.971-17.087-19.031a121.385,121.385,0,0,1-4.617-15.26c-1.471-5.783-2.139-12.067-4.25-17.133L695.9,124.871a34.806,34.806,0,0,0-.241,6.733C695.849,141.151,695.663,150.217,696.884,159.679Z" transform="translate(-690.177 -86.549)" fill="#faf0f0"/>
        <rect id="Rectángulo_41677" data-name="Rectángulo 41677" width="15.496" height="8.225" transform="translate(4.677 30.16) rotate(-7.294)" fill="#e6dcdc"/>
        <path id="Trazado_220437" data-name="Trazado 220437" d="M696.27,121.989a1.371,1.371,0,1,0,1.186-1.534A1.37,1.37,0,0,0,696.27,121.989Z" transform="translate(-689.718 -88.288)" fill="#fff"/>
        <g id="Grupo_106885" data-name="Grupo 106885" transform="translate(61.128 39.288)">
          <path id="Trazado_220438" data-name="Trazado 220438" d="M751.5,125.968c11.236.28,19.981,7.93,18.763,21.22a34.79,34.79,0,0,1-.707,4.557c2.541-1.342,4.659,1.193,3.671,4.955-.7,2.651-2.1,6.2-3.595,6.7-1.792.594-2.3-.526-2.4-.563-.9,3.825-1.323,7.252-2.753,9.254a64.66,64.66,0,0,1-4.2,5.484c-2.731,3.026-4.946,3.731-9.992,3.618l-.027,0h-.029c-5.045-.113-7.227-.918-9.817-4.064a64.993,64.993,0,0,1-3.951-5.668c-1.338-2.063-1.6-5.506-2.333-9.369-.1.034-.66,1.13-2.424.454-1.471-.563-2.715-4.17-3.291-6.851-.819-3.8,1.413-6.238,3.89-4.782a34.8,34.8,0,0,1-.5-4.584C731.184,132.99,740.265,125.741,751.5,125.968Z" transform="translate(-728.241 -123.675)" fill="#ffce99"/>
          <path id="Trazado_220439" data-name="Trazado 220439" d="M766.673,131.246c4.172,5.153,5.366,10.789,3.383,21.086-1.717.9-2.646,2.135-3.438,7.256-1.236.312-1.77.377-2.9.725,7.5-27.22-3.1-28.007-6-28.659a73.171,73.171,0,0,0-14.439-.324c-2.927.521-13.557.829-7.286,28.36-1.111-.4-1.642-.49-2.861-.855-.562-5.151-1.434-6.426-3.108-7.4-1.519-10.376.468-15.523,4.328-20.912C739.713,123.038,759.218,122.036,766.673,131.246Z" transform="translate(-727.342 -124.623)" fill="#2f2e29"/>
        </g>
        <path id="Trazado_220440" data-name="Trazado 220440" d="M696.693,146.754a37.56,37.56,0,0,0,1.877,7.343,44.8,44.8,0,0,0,7.58,12.076,126.242,126.242,0,0,0,14.272,15.474.318.318,0,0,0,.073.068,17.687,17.687,0,0,1,1.526,1.756c.186.236.36.474.522.725q.31.451.584.9c.181.3.35.6.521.92s.329.635.486.952c.147.333.292.654.425.987.112.271.224.531.324.8.017.038.024.089.043.125s.022.075.039.113c.043.125.084.236.125.362a47.253,47.253,0,0,1,2.123,10.992,2.05,2.05,0,0,0,.024.3c.091,1.016.169,2.033.246,3.038.024.3.053.616.068.94.686,8.925,1.963,25.19,3.11,40.965.014.207.027.413.039.62l.015.114c1.5,13.27,3.374,22.707,6.721,27.21l16.841-2.156c-7.964-4.912-18.032-11.831-20.085-26.046,3.69,6.786,10.935,9.227,17.884,10.98-10.225-4.494-13.552-12.6-16.295-20.613-2.514-7.339-3.8-18.075-3.606-25.839a58.26,58.26,0,0,1,6.844-25.9,64.619,64.619,0,0,1-15.061-6.7c-.239-.138-.463-.265-.7-.416A69.785,69.785,0,0,1,696.693,146.754Z" transform="translate(-689.411 -69.692)" fill="#1d1d1b" opacity="0.05"/>
        <path id="Trazado_220441" data-name="Trazado 220441" d="M735.352,173.254l5.875,1.443,4.159-8.552-9.62-1.724Z" transform="translate(-662.087 -57.206)" fill="#d4542b"/>
        <path id="Trazado_220442" data-name="Trazado 220442" d="M747.441,180.811l15.475-16.154-7.488-6.7-17.2,11.837Z" transform="translate(-660.055 -61.773)" fill="#e6dcdc"/>
        <path id="Trazado_220443" data-name="Trazado 220443" d="M732.459,177.665l-4.8-21.361,8.7-1.589,9.327,17.373Z" transform="translate(-667.521 -64.066)" fill="#e6dcdc"/>
        <path id="Trazado_220444" data-name="Trazado 220444" d="M736.839,169.6c1.673.415,4.2,1.029,5.875,1.444a29.911,29.911,0,0,0,3.127,22.524c3.909,6.935,6.767,10.952,13.009,15.894-1.191,4-1.381,8.066-2.929,12.934-4.41-1.029-7.838-2.809-12.248-3.837-3.313-5.267-6.767-10.5-8.358-16.085A50.146,50.146,0,0,1,736.839,169.6Z" transform="translate(-663.574 -53.548)" fill="#fd8f25"/>
        <g id="Grupo_106886" data-name="Grupo 106886" transform="translate(151.424 107.493)">
          <path id="Trazado_220445" data-name="Trazado 220445" d="M781.145,192.24l10.306,7.621,5.629-7.611c3.378-.247,5.776-1.71,9.2-7.051l4.443-7.179c-4.989-4.011-8.724-7.052-14.5-10.975l-4.4,5.952-2.589-2.024-.005.007c-.142.285-3.311,6.349-3.516,6.851a7.462,7.462,0,0,0,.266,6.01l.6,1.06Z" transform="translate(-781.145 -162.844)" fill="#e3b788"/>
          <path id="Trazado_220446" data-name="Trazado 220446" d="M794.844,175.744a2.755,2.755,0,0,1-1.635,1.121,2.262,2.262,0,0,1-1.82-.34l-.352-.249a2.453,2.453,0,0,1-.432-3.431l3.781-5.429a2.571,2.571,0,0,1,1.528-1.046,2.11,2.11,0,0,1,1.7.316l.725.512a2.141,2.141,0,0,1,.376,2.992Z" transform="translate(-774.813 -163.361)" fill="#ffce99"/>
          <path id="Trazado_220447" data-name="Trazado 220447" d="M792.43,174.014a2.756,2.756,0,0,1-1.635,1.121,2.262,2.262,0,0,1-1.819-.34l-.352-.247a2.455,2.455,0,0,1-.432-3.432l3.781-5.429a2.583,2.583,0,0,1,1.528-1.046,2.116,2.116,0,0,1,1.7.316l.725.512a2.14,2.14,0,0,1,.376,2.992Z" transform="translate(-776.519 -164.584)" fill="#ffce99"/>
          <path id="Trazado_220448" data-name="Trazado 220448" d="M797.035,177.256A2.505,2.505,0,0,1,793.6,178l-.355-.251a2.245,2.245,0,0,1-.92-1.581,2.712,2.712,0,0,1,.505-1.888l3.057-4.264a2.34,2.34,0,0,1,3.209-.7l.731.515a1.95,1.95,0,0,1,.8,1.377,2.367,2.367,0,0,1-.439,1.647Z" transform="translate(-773.258 -161.499)" fill="#ffce99"/>
          <path id="Trazado_220449" data-name="Trazado 220449" d="M798.845,178.017a2.027,2.027,0,0,1-2.823.44l-.307-.218a2.01,2.01,0,0,1-.507-2.8l2.343-3.279a1.891,1.891,0,0,1,2.635-.41l.631.447a1.75,1.75,0,0,1,.442,2.442Z" transform="translate(-771.462 -159.773)" fill="#ffce99"/>
          <path id="Trazado_220450" data-name="Trazado 220450" d="M787.732,192.061l3.141-4.339a8.342,8.342,0,0,0,.37-11.54l.4-.811a1.483,1.483,0,0,1,1-.773l2.62-.587A3.494,3.494,0,0,0,797.9,169.8l-.123-.531a1.661,1.661,0,0,0-1.98-1.241l-2.83.62-4.206.927a1.827,1.827,0,0,0-1.1.725l-.005.007c-.142.285-3.311,6.349-3.516,6.851a7.462,7.462,0,0,0,.266,6.01l.6,1.06-1.645,2.159.027.029Z" transform="translate(-779.579 -162.175)" fill="#ffce99"/>
        </g>
        <path id="Trazado_220451" data-name="Trazado 220451" d="M762.06,203.677a103.225,103.225,0,0,0,6.45,11.674l.015.01a32.511,32.511,0,0,0,2.186,2.871l.017.021h0a15.158,15.158,0,0,0,5.673,4.4c4.494-.249,11.876-.505,24.8-24.011,1.4-2.546,2.864-5.361,4.392-8.469l-.662-.5-2.2-1.618-8.1-6-.79-.589-.012,0c-2.395,2.231-6.822,6.153-11.881,10.118-5.463,4.275-11.657,8.619-16.814,10.918A24.965,24.965,0,0,1,762.06,203.677Z" transform="translate(-643.21 -45.161)" fill="#faf0f0"/>
        <rect id="Rectángulo_41678" data-name="Rectángulo 41678" width="7.768" height="14.636" transform="matrix(0.595, -0.804, 0.804, 0.595, 150.627, 136.3)" fill="#e6dcdc"/>
        <path id="Trazado_220452" data-name="Trazado 220452" d="M789.384,184.96a1.295,1.295,0,1,1-.271-1.811A1.295,1.295,0,0,1,789.384,184.96Z" transform="translate(-625.549 -44.148)" fill="#fff"/>
        <path id="Trazado_220453" data-name="Trazado 220453" d="M743,249.962l25.044-3.205c4.325-11.843-2.144-48.969-2.176-61.426,3.4,7.59,6.276,15.807,10.312,23.666a77.054,77.054,0,0,0,5.808,9.611l.015.01c.688,1.005,1.4,1.941,2.127,2.8.015.024.044.046.06.07s.015.012.017.024a15.233,15.233,0,0,0,5.675,4.4c4.494-.249,11.876-.505,24.8-24.011-7.334,9.263-18.568,21.913-24.313,17.667-.374-.278-.734-.556-1.1-.862a51.294,51.294,0,0,1-10.657-12.943c-6.226-10.13-10.746-22.077-14.313-28.9a80.738,80.738,0,0,1-.113,8.365c-.6,9.766-1.149,39.1-16.8,55.4,12.547-7.46,15.766-12.8,18-18.993C764.208,231.249,761.527,239.865,743,249.962Z" transform="translate(-656.684 -48.417)" fill="#1d1d1b" opacity="0.05"/>
        <path id="Trazado_220454" data-name="Trazado 220454" d="M708.3,312.922s4.716,95.558,6.105,106.22c.079.645.137.978.195.978,1.058.02,2.075.039,3.053.079h.019a52.546,52.546,0,0,1,20.563,4.5c.43.176.862.37,1.311.587.509.234,1.017.488,1.546.742.372.176.763.372,1.154.568.684.352,1.389.724,2.094,1.094.352.2.684.372,1.036.587.393.215.8.451,1.214.686.2.118.411.234.626.352.137.078.294.176.451.254,0,0-5.675-109.7-6.5-109.193-1.017.645,14.107-36.1,19.9-50.029.019-.019.019-.039.019-.079,1.232-2.954,2.016-4.871,2.152-5.165a.058.058,0,0,0,.021-.039l26.14,59.929L812.783,427.2c.451-.254.881-.49,1.311-.724.8-.43,1.586-.881,2.367-1.35.959-.548,1.9-1.1,2.857-1.662,6.827-4.011,13.656-7.788,22.226-7.044a10.352,10.352,0,0,1,1.1.116s-19.664-102.346-20.7-102.873c-.411-.2-23.048-66.288-23.048-66.288s-2.21-12.188-3.854-21.326c-.1-.488-.176-.978-.254-1.447-.352-1.859-.645-3.542-.881-4.892-.1-.509-.176-1-.273-1.526-.215-1.174-.333-1.877-.333-1.956-.021,0-.021.019-.039.019a70.341,70.341,0,0,1-8.394,3.659c-17.394,6.476-38.563,7.826-52.67,4.147-1.389-.372-2.719-.782-3.972-1.251H728.2l-.077,1.9-.2,6.066-.058,1.565-.705,19.017Z" transform="translate(-681.204 -20.587)" fill="#5b2e20"/>
        <g id="Grupo_106887" data-name="Grupo 106887" transform="translate(46.712 197.603)">
          <path id="Trazado_220455" data-name="Trazado 220455" d="M719.795,229.949c16.861,5.62,45.655,3.632,66.939-6.194-.6-3.24-.913-4.595-1.219-6.377-20.446,9.98-49.113,12.113-65.5,6.51Z" transform="translate(-719.795 -217.379)" fill="#2f2e29"/>
          <path id="Trazado_220456" data-name="Trazado 220456" d="M736.388,223.483c2.376-.133,4.794-.394,7.22-.727l.582,4.928c-2.547.338-5.086.6-7.578.724Z" transform="translate(-708.067 -213.579)" fill="#c6c6c6"/>
          <path id="Trazado_220457" data-name="Trazado 220457" d="M748.452,221.065c.949-.244,1.883-.526,2.823-.8l1.355,6.779c-.928.258-1.854.527-2.791.765Z" transform="translate(-699.541 -215.336)" fill="#2f2e29"/>
          <path id="Trazado_220458" data-name="Trazado 220458" d="M729.317,222.682l-.364,6.807c-.932-.089-1.831-.208-2.738-.323l.326-6.8C727.46,222.481,728.372,222.6,729.317,222.682Z" transform="translate(-715.257 -213.851)" fill="#2f2e29"/>
        </g>
        <path id="Trazado_220459" data-name="Trazado 220459" d="M728.505,420.547a18.811,18.811,0,0,1-.333,2.016,11.044,11.044,0,0,1,2.349.118,16.618,16.618,0,0,0,7.532-1.449l.021-2.954-.021-.137-.137-1.8c.2.118.411.234.626.352.137.078.294.176.451.254,0,0-5.675-109.7-6.5-109.193-1.017.645,14.107-36.1,19.9-50.029.019-.019.019-.039.019-.078a21.965,21.965,0,0,1,2.152-5.165.058.058,0,0,0,.021-.039l26.14,59.929,23.38,102.209c.451-.254.881-.49,1.311-.724.02.058,0,.1.02.136l.195,3.19L806,420.1a21.2,21.2,0,0,0,9.157.352c-.391-.587-.763-1.174-1.116-1.78a29.677,29.677,0,0,1-1.466-2.837,1.815,1.815,0,0,1-.137-.294c-.451-1-.881-2.034-1.253-3.093-.2-.507-.391-1.055-.548-1.6-.881-2.584-1.586-5.224-2.21-7.788-.02-.079-.02-.157-.039-.234q-5.312-21.69-10.429-43.4c-3.932-16.65-7.807-33.692-6.045-50.714-6.4-2.895-9.608-9.957-12.268-16.453q-5.871-14.235-11.7-28.468c-2-4.91-4.05-10.116-3.287-15.339.823-5.539,4.619-10.116,8.276-14.361-9.195,7.708-26.179,9.41-36.646,3.579,5.185,3.932,10.155,15.378-.195,44.981-2.681,7.67-8.882,19.292-15.515,23.987,12.658,30.053,11.777,72.431,9.821,96.751-.273,3.248-.567,6.163-.841,8.688-.079.782-.176,1.545-.254,2.25-.118,1.017-.215,1.937-.333,2.758a6.562,6.562,0,0,1-.079.666C728.759,418.864,728.623,419.8,728.505,420.547Z" transform="translate(-672.526 -7.964)" fill="#1d1d1b" opacity="0.15"/>
      </g>
    </g>
  </g>
</svg>
