<svg xmlns="http://www.w3.org/2000/svg" xmlns:xlink="http://www.w3.org/1999/xlink" width="318" height="270" viewBox="0 0 318 270">
  <defs>
    <clipPath id="clip-path">
      <rect id="Rectángulo_41696" data-name="Rectángulo 41696" width="318" height="270" transform="translate(915 2778)" fill="#fff" stroke="#707070" stroke-width="1"/>
    </clipPath>
  </defs>
  <g id="Enmascarar_grupo_205" data-name="Enmascarar grupo 205" transform="translate(-915 -2778)" clip-path="url(#clip-path)">
    <g id="Grupo_106968" data-name="Grupo 106968" transform="translate(234.796 2690.868)">
      <g id="Grupo_106967" data-name="Grupo 106967" transform="translate(686.474 142.397)">
        <g id="Grupo_106966" data-name="Grupo 106966">
          <g id="Grupo_106962" data-name="Grupo 106962" transform="translate(14.867 160.829)">
            <g id="Grupo_106960" data-name="Grupo 106960" transform="translate(0 1.112)">
              <g id="Grupo_106958" data-name="Grupo 106958" transform="translate(0 213.832)">
                <path id="Trazado_220779" data-name="Trazado 220779" d="M812.887,335.417c.991.316,2.421.923,2.306,12.314H768.109C768.109,332.265,801.593,331.82,812.887,335.417Z" transform="translate(-768.109 -333.564)" fill="#16191e"/>
                <rect id="Rectángulo_41694" data-name="Rectángulo 41694" width="47.083" height="4.718" transform="translate(0.001 12.858)" fill="#16191e"/>
              </g>
              <g id="Grupo_106959" data-name="Grupo 106959" transform="translate(75.238 213.832)">
                <path id="Trazado_220780" data-name="Trazado 220780" d="M812.315,335.417c-.99.316-2.419.923-2.3,12.314h47.084C857.095,332.265,823.611,331.82,812.315,335.417Z" transform="translate(-810.004 -333.564)" fill="#16191e"/>
                <rect id="Rectángulo_41695" data-name="Rectángulo 41695" width="47.084" height="4.718" transform="translate(0.006 12.858)" fill="#16191e"/>
              </g>
              <path id="Trazado_220781" data-name="Trazado 220781" d="M864.943,327.175V429.292c-6.752-.045-10.885,2.681-15.25,5.244-.483.278-.966.571-1.464.835s-.982.557-1.494.806c-.542.293-1.1.557-1.685.8q-.749.331-1.539.616c-.278.1-.571.2-.864.293s-.6.176-.894.264-.614.162-.937.233l-.176.045c-.293.059-.6.131-.923.176s-.673.117-1.025.145a4.612,4.612,0,0,1-.643.074,13.3,13.3,0,0,1-1.349.1c-.366.014-.747.031-1.142.031H835.5v-.045c-.2-.966-.381-1.977-.557-3.048-.1-.673-.219-1.376-.322-2.094s-.19-1.451-.293-2.212c-.045-.307-.088-.63-.119-.952-.088-.6-.16-1.216-.219-1.832s-.131-1.259-.19-1.918q-.2-1.934-.4-3.956c-.176-2.02-.352-4.086-.5-6.2-.088-1.3-.19-2.622-.278-3.954-.043-.821-.088-1.641-.145-2.462s-.1-1.656-.147-2.475c-.131-2.139-.219-4.292-.321-6.431v-.162c-.074-2.182-.176-4.337-.278-6.445-.059-1.421-.1-2.812-.147-4.161-.058-1.392-.1-2.724-.16-4.014q-.024-.989-.045-1.934c-.029-.629-.043-1.245-.074-1.861-.029-1.23-.074-2.417-.1-3.545s-.074-2.225-.1-3.25c-.073-2.257-.131-4.63-.145-7.047-.045-4.042,0-8.263.131-12.481.029-1.011.074-2.036.117-3.062.147-4.028.4-8.027.718-11.82.057-.7.117-1.408.19-2.11s.131-1.377.2-2.051.147-1.349.219-2.008c.059-.571.133-1.128.207-1.67.088-.747.19-1.464.293-2.168.2-1.406.424-2.753.659-4.028-.25-.776-.5-1.582-.747-2.4-.133-.409-.25-.835-.366-1.259-.25-.849-.483-1.715-.733-2.608-.2-.747-.4-1.494-.6-2.272-.162-.614-.309-1.245-.469-1.875-.454-1.9-.923-3.866-1.363-5.874s-.878-4.087-1.289-6.181q-.264-1.363-.526-2.769c-.192-1.011-.383-2.036-.557-3.06q-.706-3.957-1.3-7.941c-.147-.878-.278-1.773-.4-2.651-.4-2.667-.747-5.332-1.04-7.925-.131-1.011-.233-2.008-.336-3s-.207-1.977-.295-2.945c-.174-1.86-.321-3.676-.438-5.434-.133-1.905-.235-3.75-.293-5.522a3.878,3.878,0,0,0-.454-.016c-.557,0-1.334.031-2.051.016h-.483c-.016.541-.045,1.1-.074,1.654,0,.25-.014.5-.031.747-.19,3.721-.512,7.735-.966,11.91-.074.792-.162,1.582-.264,2.388-.1.849-.2,1.713-.307,2.577-.293,2.3-.616,4.63-.952,6.973-.074.542-.147,1.07-.25,1.627-.131.819-.264,1.64-.409,2.46-.352,2.27-.747,4.527-1.158,6.752q-.2,1.056-.4,2.11c-.4,2.11-.821,4.19-1.261,6.241-.278,1.363-.585,2.7-.878,4.014-.338,1.508-.688,2.974-1.054,4.409s-.718,2.812-1.085,4.161-.733,2.636-1.114,3.883c-.176.614-.366,1.23-.557,1.816.6,3.281,1.1,7.031,1.494,11.061.2,2.094.4,4.262.542,6.488.293,4.351.5,8.877.616,13.39.088,3.471.117,6.943.088,10.283,0,.6-.016,1.216-.03,1.817-.029,1.844-.057,3.662-.131,5.406-.088,2.577-.176,5.508-.278,8.656q-.067,1.913-.133,3.911c-.014.176-.014.338-.014.514-.072,2.006-.146,4.1-.234,6.226-.514,12.919-1.3,27.437-2.812,38.027-.059.426-.119.866-.19,1.275-.059.426-.119.835-.19,1.245-.192,1.085-.366,2.124-.573,3.092h-.014c-6.255,0-10.328-2.184-14.223-4.468-4.351-2.564-8.467-5.246-15.177-5.2V327.175l1.846-25.065,3.383-46.232.5-6.988.1-1.523,2.7-29.694.264-3.179.25.031H787l3.443.2h.043l4.1.233.323.016,7.076.453,10.576.659,7.09.426,1.787-.131,1.8.131,6.153-.381,7.939-.483h.014c.014,0,.014,0,.014-.014l2.241-.133,12.731-.8h.057l.894-.045,2.446-.131c.117,0,.264-.031.4-.031l.221,2.974.717,9.552,2.55,27.392Z" transform="translate(-760.283 -214.494)" fill="#5b2e20"/>
            </g>
            <g id="Grupo_106961" data-name="Grupo 106961" transform="translate(26.185)">
              <path id="Trazado_220782" data-name="Trazado 220782" d="M852.647,220.128c-16.863,7.6-46.883,8.584-69.957.659.276-3.418.462-4.852.589-6.731,22.222,8.171,52.126,7.352,68.5-.181Z" transform="translate(-782.69 -213.875)" fill="#2f2e29"/>
              <path id="Trazado_220783" data-name="Trazado 220783" d="M808.544,217.486c-2.475.113-5.005.1-7.55.009l-.084,5.163c2.674.081,5.33.083,7.922-.052Z" transform="translate(-768.19 -211.001)" fill="#c6c6c6"/>
            </g>
            <path id="Trazado_220784" data-name="Trazado 220784" d="M842.968,418.369c-3.852,2.261-7.907,4.414-14.132,4.414h-.047c-.2-.968-.39-2.013-.562-3.089-.233-1.358-.436-2.793-.623-4.3-.2-1.514-.375-3.073-.546-4.711-.625-5.865-1.078-12.433-1.435-19.031-.126-2.2-.235-4.4-.329-6.584-.11-2.184-.2-4.351-.28-6.458-.063-1.419-.11-2.807-.156-4.165s-.093-2.714-.14-4.008c-.047-1.311-.079-2.575-.126-3.791-.031-1.232-.077-2.417-.108-3.558-.032-1.122-.079-2.214-.11-3.243-.063-2.263-.126-4.633-.142-7.051-.124-14.2.734-30.481,2.731-41.4-5.289-16.567-10.093-44.846-10.748-63.737-.609-.016-1.967.047-2.979,0a244.266,244.266,0,0,1-2.606,26.268c-.077.546-.154,1.076-.25,1.624-2.028,13.149-4.881,26.392-7.907,35.845,2,10.888,2.854,27.08,2.73,41.227v.016c-.016,2.48-.063,4.9-.142,7.207-.56,16.471-1.279,47.373-4.414,62.941h-.031c-6.255,0-10.326-2.184-14.227-4.461,9.563-18.221,14.74-42.555,14.773-65.719.016-16.924-2.714-33.225-8.5-46.078,5.476-.124,12.136-14.976,14.756-31.431.077-.532.156-1.061.234-1.591,2.153-15.335.672-31.7-8.625-38.686,11.528,5.413,21.121,6.707,31.478.3-16.784,18.953,1.544,61.257,7.036,75.467C826.372,329.44,826.122,387.342,842.968,418.369Z" transform="translate(-753.559 -197.208)" fill="#1d1d1b" opacity="0.6"/>
          </g>
          <g id="Grupo_106965" data-name="Grupo 106965">
            <path id="Trazado_220785" data-name="Trazado 220785" d="M859.3,192.866v.014l-3.473,65.773c-.131,0-.278.031-.4.031-6.724,2.505-14.414,3.457-21.958,4.628-7.706,1.2-15.279,2.652-21.534,6.271-16.628,9.784-11.206,21.987-28.567,23.466-.219.031-.424.031-.645.059,0,0-.057-95.394-1.7-101.137-1.23-4.321-2.432-5.889-2.681-6.093v-.014a1.9,1.9,0,0,0-.014-.278,10.971,10.971,0,0,1,1.011-5.2c2.505-5.815,9.507-11.705,19.279-15.821h.014c.849-.366,1.7-.717,2.593-1.04q2.877-1.078,6.02-1.918c.1-.031.221-.059.338-.088.528-.147,1.07-.278,1.611-.411a76.708,76.708,0,0,1,21.7-2.006h.014c.366.014.7.043,1.07.057a.7.7,0,0,0,.19.016c2.241.145,4.511.381,6.8.747.659.086,1.318.2,1.977.321a78.922,78.922,0,0,1,15.381,4.335c-.1.806-.147,1.641-.176,2.433-.147,6.591,1.816,13.2,2.724,19.8A44.2,44.2,0,0,1,859.3,192.866Z" transform="translate(-745.121 -96.713)" fill="#f1eaea"/>
            <path id="Trazado_220786" data-name="Trazado 220786" d="M799.958,128.219a1,1,0,0,1-.048.153,7.045,7.045,0,0,1-2.209,3.27,16.4,16.4,0,0,1-3.525,2.209,15.421,15.421,0,0,1-5.768,1.839,7.768,7.768,0,0,1-2.274-.176c.162-.266.314-.53.474-.8a16.093,16.093,0,0,1,3.27-4.274c.673-.368,1.349-.763,2.008-1.173a50.006,50.006,0,0,0,4.242-2.843,6.575,6.575,0,0,1,1.453-.9,1.969,1.969,0,0,1,1.663.056A2.331,2.331,0,0,1,799.958,128.219Z" transform="translate(-738.897 -123.48)" fill="#f2c799"/>
            <path id="Trazado_220787" data-name="Trazado 220787" d="M865.179,162.925c0,.014,0,.029-.014.029a19.473,19.473,0,0,1-4,5.874.014.014,0,0,1-.014.014c-.014.029-.045.045-.059.074a.358.358,0,0,1-.074.088c-8.642,9.317-20.171,17.109-28.051,30.4v.014h-.016a22.5,22.5,0,0,1-4.628-2.974l-.014-.014c-6.885-5.641-12.876-15.791-15.983-23.043-.074-.147-.131-.307-.19-.454v-.014a6.739,6.739,0,0,1-.63-3.971,6.287,6.287,0,0,1,1.13-2.489,5.593,5.593,0,0,1,.659-.778,5.19,5.19,0,0,1,2.313-1.361c7.911-2.081,14.841-7.325,22.091-10.021h.016c7.28-2.7,13.593-4.966,20.889-2.329,3.076,1.1,6.167,3.15,6.988,6.314A7.33,7.33,0,0,1,865.179,162.925Z" transform="translate(-718.785 -103.247)" fill="#f1eaea"/>
            <path id="Trazado_220788" data-name="Trazado 220788" d="M815.178,170.058v.059a10.185,10.185,0,0,1-.909,3.267c-.176.4-.352.79-.542,1.187a.014.014,0,0,0-.014.014,39.794,39.794,0,0,1-11.587,14.428c-.029.016-.045.045-.074.059a39.045,39.045,0,0,1-7.53,4.556c-.747-.5-1.478-.7-2.211-1.216H792.3V192.4a159.479,159.479,0,0,1-26.733-23.409,20.968,20.968,0,0,1-4.014-5.714,1.427,1.427,0,0,1-.133-.307c0-.014-.014-.029-.029-.043s-.014-.031-.014-.045a7.392,7.392,0,0,1-.366-4.6c.806-3.164,3.911-5.215,6.988-6.314,7.28-2.636,13.623-.366,20.889,2.329,7.1,2.636,13.887,7.72,21.577,9.874.162.059.338.088.514.147a6.185,6.185,0,0,1,4.116,4.628A4.7,4.7,0,0,1,815.178,170.058Z" transform="translate(-759.066 -103.247)" fill="#f1eaea"/>
            <path id="Trazado_220789" data-name="Trazado 220789" d="M793.231,161.327c2.773,9.439,3.7,15.857,10.134,17.978,1.386,2.1,2.825,6.916,3.565,8.423.8-1.834,1.474-6.562,3.053-8.936,9.238-2.209,8.369-8.572,12.194-17.554l-1.119-11.31-26.372.742Z" transform="translate(-733.249 -103.939)" fill="#e6bd91"/>
            <path id="Trazado_220790" data-name="Trazado 220790" d="M822.649,159.987l-9.342,23.134-4.466-3.881-1.895-1.647-4.387-3.814c7.255-2.845,8.974-9.89,12.2-17.553Z" transform="translate(-725.825 -98.926)" fill="#e2dbdb"/>
            <path id="Trazado_220791" data-name="Trazado 220791" d="M807.237,174.253l-3.585,2.658-1.975,1.471-5.8,4.3-7.512-22.813,8.74-3.592C799.676,163.144,800.624,170.493,807.237,174.253Z" transform="translate(-737.121 -98.887)" fill="#e2dbdb"/>
            <g id="Grupo_106964" data-name="Grupo 106964" transform="translate(49.439 1.893)">
              <g id="Grupo_106963" data-name="Grupo 106963" transform="translate(0.467 4.459)">
                <path id="Trazado_220792" data-name="Trazado 220792" d="M811.8,129.215c-12.012.029-21.541,7.993-20.559,22.225a36.881,36.881,0,0,0,.645,4.887c-2.683-1.5-5.009,1.162-4.042,5.2.681,2.85,2.094,6.675,3.68,7.241,1.9.679,2.471-.5,2.58-.542.873,4.109,1.237,7.781,2.719,9.954a69.186,69.186,0,0,0,4.357,5.96c2.847,3.3,5.2,4.107,10.588,4.107h.063c5.393,0,7.742-.808,10.588-4.107a69.186,69.186,0,0,0,4.357-5.96c1.482-2.173,1.846-5.846,2.719-9.954.109.038.679,1.221,2.581.542,1.586-.566,3-4.391,3.68-7.241.966-4.042-1.359-6.7-4.042-5.2a36.861,36.861,0,0,0,.645-4.887C833.339,137.208,823.81,129.244,811.8,129.215Z" transform="translate(-787.62 -126.775)" fill="#ffd2a1"/>
                <path id="Trazado_220793" data-name="Trazado 220793" d="M793.645,134.536c-4.581,5.406-5.993,11.4-4.121,22.45,1.812,1.006,2.775,2.345,3.5,7.837,1.313.363,1.882.444,3.078.844-7.361-29.265,3.989-29.852,7.1-30.477a78.087,78.087,0,0,1,15.439,0c3.114.625,14.464,1.212,7.1,30.477,1.2-.4,1.765-.481,3.078-.844.724-5.492,1.686-6.831,3.5-7.837,1.871-11.05-.126-16.6-4.122-22.45C822.652,126.416,801.832,124.877,793.645,134.536Z" transform="translate(-786.743 -127.856)" fill="#2f2e29"/>
              </g>
            </g>
            <path id="Trazado_220794" data-name="Trazado 220794" d="M814.355,131.4c-.307.957-1.543,1.149-2.546,1.221a37.459,37.459,0,0,0-8.724,1.64,6.273,6.273,0,0,0-5.375,5.021,60.331,60.331,0,0,1-2.063,7.013,10.543,10.543,0,0,1-4.587,5.51,5.893,5.893,0,0,1-6.781-.754,6.333,6.333,0,0,1-1.309-5.713,18.782,18.782,0,0,1,2.523-5.526c1.1-1.848,2.209-3.7,3.3-5.551.162-.266.314-.53.474-.8a16.093,16.093,0,0,1,3.27-4.274,5.943,5.943,0,0,1,.69-.5,7.569,7.569,0,0,1,1.318-.668,14.367,14.367,0,0,1,5.142-.738c.963,0,1.92-.081,2.882-.162,3.206-.264,6.4-.553,9.423,1.816.506.393,1.254.361,1.744.772A1.66,1.66,0,0,1,814.355,131.4Z" transform="translate(-741.556 -122.228)" fill="#ffd2a1"/>
            <path id="Trazado_220795" data-name="Trazado 220795" d="M801.888,150.038c-4.989,5.986-8.893,10.621-12.242,14.146-9.335,9.809-14.493,11.062-27.3,8.782-.025-.009-.057-.009-.081-.018a1.193,1.193,0,0,1-.1-.137.946.946,0,0,1-.088-.111,12.533,12.533,0,0,1-1.431-11.664,20.56,20.56,0,0,1,7.841-9.575,61.775,61.775,0,0,1,11.167-5.72q7.723-3.3,15.423-6.6c.594-.257,1.2-.514,1.792-.77C798.176,140.888,800.57,147.508,801.888,150.038Z" transform="translate(-759.831 -113.139)" fill="#f1eaea"/>
            <path id="Trazado_220796" data-name="Trazado 220796" d="M792.389,146.266l-6.025,5.222-7.025-10.757,5.954-4.189Z" transform="translate(-744.305 -114.592)" fill="#e2dbdb"/>
            <path id="Trazado_220797" data-name="Trazado 220797" d="M808.7,128.219a1.269,1.269,0,0,0,.049.153,7.057,7.057,0,0,0,2.209,3.27,16.414,16.414,0,0,0,3.527,2.209,15.422,15.422,0,0,0,5.768,1.839,7.767,7.767,0,0,0,2.274-.176c-.162-.266-.314-.53-.474-.8a16.093,16.093,0,0,0-3.27-4.274c-.675-.368-1.349-.763-2.008-1.173a50.026,50.026,0,0,1-4.242-2.843,6.586,6.586,0,0,0-1.455-.9,1.965,1.965,0,0,0-1.661.056A2.335,2.335,0,0,0,808.7,128.219Z" transform="translate(-721.029 -123.48)" fill="#f2c799"/>
            <path id="Trazado_220798" data-name="Trazado 220798" d="M802.139,131.4c.305.957,1.543,1.149,2.547,1.221a37.493,37.493,0,0,1,8.724,1.64,6.266,6.266,0,0,1,5.373,5.021,60.339,60.339,0,0,0,2.065,7.013,10.536,10.536,0,0,0,4.587,5.51,5.89,5.89,0,0,0,6.779-.754,6.324,6.324,0,0,0,1.309-5.713A18.737,18.737,0,0,0,831,139.813c-1.1-1.848-2.209-3.7-3.3-5.551-.162-.266-.314-.53-.474-.8a16.093,16.093,0,0,0-3.27-4.274,5.963,5.963,0,0,0-.691-.5,7.49,7.49,0,0,0-1.316-.668,14.372,14.372,0,0,0-5.142-.738c-.964,0-1.92-.081-2.884-.162-3.206-.264-6.393-.553-9.423,1.816-.506.393-1.254.361-1.742.772A1.661,1.661,0,0,0,802.139,131.4Z" transform="translate(-726.204 -122.228)" fill="#ffd2a1"/>
            <path id="Trazado_220799" data-name="Trazado 220799" d="M858.86,172.948c2.647-3.249,3.033-7.968,1.62-11.914a20.545,20.545,0,0,0-7.841-9.568,61.151,61.151,0,0,0-11.167-5.722l-17.211-7.379c-1.318,2.529-3.71,9.143-5.03,11.671C838.109,172.662,841.365,176.08,858.86,172.948Z" transform="translate(-712.557 -113.14)" fill="#f1eaea"/>
            <path id="Trazado_220800" data-name="Trazado 220800" d="M815.876,146.266l6.025,5.222,7.025-10.757-5.954-4.189Z" transform="translate(-715.227 -114.592)" fill="#e2dbdb"/>
            <path id="Trazado_220801" data-name="Trazado 220801" d="M811.419,220.58C799.8,232.5,805.69,246.492,788.2,249.174l-9.229,48.093,3.383-46.232.5-6.988C800.212,242.567,794.791,230.364,811.419,220.58Z" transform="translate(-744.598 -47.71)" fill="#1d1d1b" opacity="0.6"/>
            <path id="Trazado_220802" data-name="Trazado 220802" d="M825.617,270.743c-16.628,9.784-11.206,21.987-28.567,23.466-.219.031-.424.031-.645.059,0,0-.057-95.394-1.7-101.137-1.23-4.321-2.432-5.889-2.681-6.093v-.014a159.479,159.479,0,0,1-26.733-23.409,20.968,20.968,0,0,1-4.014-5.714.58.58,0,0,0-.045-.145,1.034,1.034,0,0,1-.088-.162c0-.014-.014-.029-.014-.043.074.057.117.057.176.145,5.1,7.661,20.114,19.117,31.715,23.849a25.168,25.168,0,0,0,8.76,2.153,8.592,8.592,0,0,0,2.462-.321c-1.905,3.559-6.959,54.172,3.719,76.906.176.381.352.747.542,1.113,1.86,3.619,4.161,6.445,7,8.115A13.147,13.147,0,0,0,825.617,270.743Z" transform="translate(-758.796 -97.872)" fill="#1d1d1b" opacity="0.1"/>
            <path id="Trazado_220803" data-name="Trazado 220803" d="M863.069,160.837l-.088.088a.358.358,0,0,1-.074.088c-8.642,9.317-20.171,17.109-28.051,30.4v.014L831.383,257.2c-.131,0-.278.031-.4.031-6.724,2.505-14.414,3.457-21.958,4.628.16-.131.321-.264.483-.409.512-.454,1-.909,1.465-1.392h.014c.557-.542,1.1-1.113,1.6-1.7h.014c.014,0,.014,0,.014-.014,11.47-12.8,14.765-33.035,14.737-42.014-.014-3.136,1.261-11.353.894-16.656-.221-3.148-3.926-7.983-7.016-7.28a30.168,30.168,0,0,0,8.965-3.94h.014a50.893,50.893,0,0,0,4.219-3.091,113.292,113.292,0,0,0,10.021-9.655c5.477-5.786,11.382-11.763,18.589-14.853a.014.014,0,0,0,.014-.014Z" transform="translate(-720.675 -95.256)" fill="#1d1d1b" opacity="0.1"/>
            <path id="Trazado_220804" data-name="Trazado 220804" d="M738.853,169.841c1.771.611,3.159.467,4.932,1.079-3.067,8.419-1.345,17.179,2.11,24.81s6.106,12.118,12.327,17.926c-1.753,4.028-2.426,8.241-4.667,13.135-4.678-1.543-8.2-3.762-12.88-5.3-3-5.833-6.156-11.644-7.246-17.623A50.446,50.446,0,0,1,738.853,169.841Z" transform="translate(-669.075 -86.09)" fill="#1d1d1b" opacity="0.1"/>
            <path id="Trazado_220805" data-name="Trazado 220805" d="M735.352,173.715l6.182,1.518,4.376-9-10.122-1.814Z" transform="translate(-666.824 -90.403)" fill="#d4542b"/>
            <path id="Trazado_220806" data-name="Trazado 220806" d="M737.026,169.6c1.76.436,4.422,1.083,6.181,1.519a31.471,31.471,0,0,0,3.29,23.7c4.113,7.3,7.121,11.524,13.688,16.723-1.254,4.206-1.453,8.487-3.082,13.609-4.641-1.083-8.247-2.956-12.887-4.037-3.486-5.542-7.121-11.048-8.794-16.924A52.762,52.762,0,0,1,737.026,169.6Z" transform="translate(-668.499 -86.285)" fill="#fd8f25"/>
          </g>
        </g>
      </g>
      <g id="Grupo_106969" data-name="Grupo 106969" transform="translate(840.204 142.396)">
        <g id="Grupo_106897" data-name="Grupo 106897">
          <g id="Grupo_106893" data-name="Grupo 106893" transform="translate(11.535 160.829)">
            <g id="Grupo_106891" data-name="Grupo 106891" transform="translate(0 1.112)">
              <g id="Grupo_106889" data-name="Grupo 106889" transform="translate(75.238 213.832)">
                <path id="Trazado_220460" data-name="Trazado 220460" d="M770.422,335.417c-.991.316-2.421.923-2.306,12.314H815.2C815.2,332.265,781.716,331.82,770.422,335.417Z" transform="translate(-768.109 -333.564)" fill="#16191e"/>
                <rect id="Rectángulo_41679" data-name="Rectángulo 41679" width="47.083" height="4.718" transform="translate(0.006 12.858)" fill="#16191e"/>
              </g>
              <g id="Grupo_106890" data-name="Grupo 106890" transform="translate(0 213.832)">
                <path id="Trazado_220461" data-name="Trazado 220461" d="M854.784,335.417c.99.316,2.419.923,2.3,12.314H810C810,332.265,843.488,331.82,854.784,335.417Z" transform="translate(-810.004 -333.564)" fill="#16191e"/>
                <rect id="Rectángulo_41680" data-name="Rectángulo 41680" width="47.084" height="4.718" transform="translate(0.001 12.858)" fill="#16191e"/>
              </g>
              <path id="Trazado_220462" data-name="Trazado 220462" d="M777.943,327.175V429.292c6.752-.045,10.885,2.681,15.25,5.244.483.278.966.571,1.464.835s.982.557,1.494.806c.542.293,1.1.557,1.685.8q.749.331,1.539.616c.278.1.571.2.864.293s.6.176.894.264.614.162.937.233l.176.045c.293.059.6.131.923.176s.673.117,1.025.145a4.612,4.612,0,0,0,.643.074,13.3,13.3,0,0,0,1.349.1c.366.014.747.031,1.142.031h.059v-.045c.2-.966.381-1.977.557-3.048.1-.673.219-1.376.322-2.094s.19-1.451.293-2.212c.045-.307.088-.63.119-.952.088-.6.16-1.216.219-1.832s.131-1.259.19-1.918q.2-1.934.4-3.956c.176-2.02.352-4.086.5-6.2.088-1.3.19-2.622.278-3.954.043-.821.088-1.641.145-2.462s.1-1.656.147-2.475c.131-2.139.219-4.292.321-6.431v-.162c.074-2.182.176-4.337.278-6.445.059-1.421.1-2.812.147-4.161.058-1.392.1-2.724.16-4.014q.024-.989.045-1.934c.029-.629.043-1.245.074-1.861.029-1.23.074-2.417.1-3.545s.074-2.225.1-3.25c.073-2.257.131-4.63.145-7.047.045-4.042,0-8.263-.131-12.481-.029-1.011-.074-2.036-.117-3.062-.147-4.028-.4-8.027-.718-11.82-.057-.7-.117-1.408-.19-2.11s-.131-1.377-.2-2.051-.147-1.349-.219-2.008c-.059-.571-.133-1.128-.207-1.67-.088-.747-.19-1.464-.293-2.168-.2-1.406-.424-2.753-.659-4.028.25-.776.5-1.582.747-2.4.133-.409.25-.835.366-1.259.25-.849.483-1.715.733-2.608.2-.747.4-1.494.6-2.272.162-.614.309-1.245.469-1.875.454-1.9.923-3.866,1.363-5.874s.878-4.087,1.289-6.181q.264-1.363.526-2.769c.192-1.011.383-2.036.557-3.06q.706-3.957,1.3-7.941c.147-.878.278-1.773.4-2.651.4-2.667.747-5.332,1.04-7.925.131-1.011.233-2.008.336-3s.207-1.977.295-2.945c.174-1.86.321-3.676.438-5.434.133-1.905.235-3.75.293-5.522a3.878,3.878,0,0,1,.454-.016c.557,0,1.334.031,2.051.016h.483c.016.541.045,1.1.074,1.654,0,.25.014.5.031.747.19,3.721.512,7.735.966,11.91.074.792.162,1.582.264,2.388.1.849.2,1.713.307,2.577.293,2.3.616,4.63.952,6.973.074.542.147,1.07.25,1.627.131.819.264,1.64.409,2.46.352,2.27.747,4.527,1.158,6.752q.2,1.056.4,2.11c.4,2.11.821,4.19,1.261,6.241.278,1.363.585,2.7.878,4.014.338,1.508.688,2.974,1.054,4.409s.718,2.812,1.085,4.161.733,2.636,1.114,3.883c.176.614.366,1.23.557,1.816-.6,3.281-1.1,7.031-1.494,11.061-.2,2.094-.4,4.262-.542,6.488-.293,4.351-.5,8.877-.616,13.39-.088,3.471-.117,6.943-.088,10.283,0,.6.016,1.216.03,1.817.029,1.844.057,3.662.131,5.406.088,2.577.176,5.508.278,8.656q.067,1.913.133,3.911c.014.176.014.338.014.514.072,2.006.146,4.1.234,6.226.514,12.919,1.3,27.437,2.812,38.027.059.426.119.866.19,1.275.059.426.119.835.19,1.245.192,1.085.366,2.124.573,3.092h.014c6.255,0,10.328-2.184,14.223-4.468,4.351-2.564,8.467-5.246,15.177-5.2V327.175L863.1,302.11l-3.383-46.232-.5-6.988-.1-1.523-2.7-29.694-.264-3.179-.25.031h-.014l-3.443.2H852.4l-4.1.233-.323.016-7.076.453-10.576.659-7.09.426-1.787-.131-1.8.131-6.153-.381-7.939-.483h-.014c-.014,0-.014,0-.014-.014l-2.241-.133-12.731-.8H790.5l-.894-.045-2.446-.131c-.117,0-.264-.031-.4-.031l-.221,2.974-.717,9.552-2.55,27.392Z" transform="translate(-760.275 -214.494)" fill="#2f2e29"/>
            </g>
            <g id="Grupo_106892" data-name="Grupo 106892" transform="translate(26.185)">
              <path id="Trazado_220463" data-name="Trazado 220463" d="M782.69,220.128c16.863,7.6,46.883,8.584,69.957.659-.276-3.418-.462-4.852-.589-6.731-22.222,8.171-52.126,7.352-68.5-.181Z" transform="translate(-782.69 -213.875)" fill="#47463e"/>
              <path id="Trazado_220464" data-name="Trazado 220464" d="M801.2,217.486c2.475.113,5.005.1,7.55.009l.084,5.163c-2.674.081-5.33.083-7.922-.052Z" transform="translate(-771.595 -211.001)" fill="#c6c6c6"/>
            </g>
            <path id="Trazado_220465" data-name="Trazado 220465" d="M786.391,418.369c3.852,2.261,7.907,4.414,14.132,4.414h.047c.2-.968.39-2.013.562-3.089.233-1.358.436-2.793.623-4.3.2-1.514.375-3.073.546-4.711.625-5.865,1.078-12.433,1.435-19.031.126-2.2.235-4.4.329-6.584.11-2.184.2-4.351.28-6.458.063-1.419.11-2.807.156-4.165s.093-2.714.14-4.008c.047-1.311.079-2.575.126-3.791.031-1.232.077-2.417.108-3.558.032-1.122.079-2.214.11-3.243.063-2.263.126-4.633.142-7.051.124-14.2-.734-30.481-2.731-41.4,5.289-16.567,10.093-44.846,10.748-63.737.609-.016,1.967.047,2.979,0a244.266,244.266,0,0,0,2.606,26.268c.077.546.154,1.076.25,1.624,2.028,13.149,4.881,26.392,7.907,35.845-2,10.888-2.854,27.08-2.73,41.227v.016c.016,2.48.063,4.9.142,7.207.56,16.471,1.279,47.373,4.414,62.941h.031c6.255,0,10.326-2.184,14.227-4.461-9.563-18.221-14.74-42.555-14.773-65.719-.016-16.924,2.714-33.225,8.5-46.078-5.476-.124-12.136-14.976-14.756-31.431-.077-.532-.156-1.061-.234-1.591-2.153-15.335-.672-31.7,8.625-38.686-11.528,5.413-21.121,6.707-31.478.3,16.784,18.953-1.544,61.257-7.036,75.467C802.986,329.44,803.236,387.342,786.391,418.369Z" transform="translate(-753.471 -197.208)" fill="#1d1d1b" opacity="0.6"/>
          </g>
          <g id="Grupo_106896" data-name="Grupo 106896">
            <path id="Trazado_220466" data-name="Trazado 220466" d="M778.315,192.866v.014l3.473,65.773c.131,0,.278.031.4.031,6.724,2.505,14.414,3.457,21.958,4.628,7.706,1.2,15.279,2.652,21.534,6.271,16.628,9.784,11.206,21.987,28.567,23.466.219.031.424.031.645.059,0,0,.057-95.394,1.7-101.137,1.23-4.321,2.432-5.889,2.681-6.093v-.014a1.9,1.9,0,0,1,.014-.278,10.971,10.971,0,0,0-1.011-5.2c-2.505-5.815-9.507-11.705-19.279-15.821h-.014c-.849-.366-1.7-.717-2.593-1.04q-2.877-1.078-6.02-1.918c-.1-.031-.221-.059-.338-.088-.528-.147-1.07-.278-1.611-.411a76.708,76.708,0,0,0-21.7-2.006h-.014c-.366.014-.7.043-1.07.057a.7.7,0,0,1-.19.016c-2.241.145-4.511.381-6.8.747-.659.086-1.318.2-1.977.321a78.923,78.923,0,0,0-15.381,4.335c.1.806.147,1.641.176,2.433.147,6.591-1.816,13.2-2.724,19.8A44.2,44.2,0,0,0,778.315,192.866Z" transform="translate(-743.766 -96.713)" fill="#b8b0da"/>
            <path id="Trazado_220467" data-name="Trazado 220467" d="M786.249,128.219a1,1,0,0,0,.048.153,7.045,7.045,0,0,0,2.209,3.27,16.4,16.4,0,0,0,3.525,2.209,15.421,15.421,0,0,0,5.768,1.839,7.768,7.768,0,0,0,2.274-.176c-.162-.266-.314-.53-.474-.8a16.093,16.093,0,0,0-3.27-4.274c-.673-.368-1.349-.763-2.008-1.173a50.006,50.006,0,0,1-4.242-2.843,6.575,6.575,0,0,0-1.453-.9,1.969,1.969,0,0,0-1.663.056A2.331,2.331,0,0,0,786.249,128.219Z" transform="translate(-698.581 -123.48)" fill="#f2c799"/>
            <path id="Trazado_220468" data-name="Trazado 220468" d="M804.72,124.319a15.314,15.314,0,0,1-.7,4.13,5.171,5.171,0,0,1-2.683,3.082c-1.293.541-7.577-.542-8.361-1.7C796.541,129.55,802.23,128.546,804.72,124.319Z" transform="translate(-715.509 -124.319)" fill="#2f2e29"/>
            <path id="Trazado_220469" data-name="Trazado 220469" d="M812.025,162.925c0,.014,0,.029.014.029a19.473,19.473,0,0,0,4,5.874.014.014,0,0,0,.014.014c.014.029.045.045.059.074a.358.358,0,0,0,.074.088c8.642,9.317,20.171,17.109,28.051,30.4v.014h.016a22.5,22.5,0,0,0,4.628-2.974l.014-.014c6.885-5.641,12.876-15.791,15.983-23.043.074-.147.131-.307.19-.454v-.014a6.739,6.739,0,0,0,.63-3.971,6.287,6.287,0,0,0-1.13-2.489,5.593,5.593,0,0,0-.659-.778,5.19,5.19,0,0,0-2.313-1.361c-7.911-2.081-14.841-7.325-22.091-10.021h-.016c-7.28-2.7-13.593-4.966-20.889-2.329-3.076,1.1-6.167,3.15-6.988,6.314A7.33,7.33,0,0,0,812.025,162.925Z" transform="translate(-809.689 -103.247)" fill="#b8b0da"/>
            <path id="Trazado_220470" data-name="Trazado 220470" d="M760.8,170.058v.059a10.185,10.185,0,0,0,.909,3.267c.176.4.352.79.542,1.187a.014.014,0,0,1,.014.014,39.794,39.794,0,0,0,11.587,14.428c.029.016.045.045.074.059a39.045,39.045,0,0,0,7.53,4.556c.747-.5,1.478-.7,2.211-1.216h.016V192.4a159.477,159.477,0,0,0,26.733-23.409,20.968,20.968,0,0,0,4.014-5.714,1.427,1.427,0,0,0,.133-.307c0-.014.014-.029.029-.043s.014-.031.014-.045a7.392,7.392,0,0,0,.366-4.6c-.806-3.164-3.911-5.215-6.988-6.314-7.28-2.636-13.623-.366-20.889,2.329-7.1,2.636-13.887,7.72-21.577,9.874-.162.059-.338.088-.514.147a6.185,6.185,0,0,0-4.116,4.628A4.7,4.7,0,0,0,760.8,170.058Z" transform="translate(-668.177 -103.247)" fill="#b8b0da"/>
            <path id="Trazado_220471" data-name="Trazado 220471" d="M822.176,161.327c-2.773,9.439-3.7,15.857-10.134,17.978-1.386,2.1-2.825,6.916-3.565,8.423-.8-1.834-1.474-6.562-3.053-8.936-9.238-2.209-8.369-8.572-12.194-17.554l1.119-11.31,26.372.742Z" transform="translate(-733.429 -103.939)" fill="#e6bd91"/>
            <path id="Trazado_220472" data-name="Trazado 220472" d="M802.559,159.987l9.342,23.134,4.466-3.881,1.895-1.647,4.387-3.814c-7.255-2.845-8.974-9.89-12.2-17.553Z" transform="translate(-750.653 -98.926)" fill="#472ea6"/>
            <path id="Trazado_220473" data-name="Trazado 220473" d="M788.366,174.253l3.585,2.658,1.975,1.471,5.8,4.3,7.512-22.813-8.74-3.592C795.927,163.144,794.979,170.493,788.366,174.253Z" transform="translate(-709.753 -98.887)" fill="#472ea6"/>
            <g id="Grupo_106895" data-name="Grupo 106895" transform="translate(50.467 1.893)">
              <g id="Grupo_106894" data-name="Grupo 106894" transform="translate(0 4.459)">
                <path id="Trazado_220474" data-name="Trazado 220474" d="M811.8,129.215c12.012.029,21.541,7.993,20.559,22.225a36.881,36.881,0,0,1-.645,4.887c2.683-1.5,5.009,1.162,4.042,5.2-.681,2.85-2.094,6.675-3.68,7.241-1.9.679-2.471-.5-2.58-.542-.873,4.109-1.237,7.781-2.719,9.954a69.186,69.186,0,0,1-4.357,5.96c-2.847,3.3-5.2,4.107-10.588,4.107h-.063c-5.393,0-7.742-.808-10.588-4.107a69.186,69.186,0,0,1-4.357-5.96c-1.482-2.173-1.846-5.846-2.719-9.954-.109.038-.679,1.221-2.581.542-1.586-.566-3-4.391-3.68-7.241-.966-4.042,1.359-6.7,4.042-5.2a36.861,36.861,0,0,1-.645-4.887C790.258,137.208,799.787,129.244,811.8,129.215Z" transform="translate(-787.62 -126.775)" fill="#ffd2a1"/>
                <path id="Trazado_220475" data-name="Trazado 220475" d="M828.1,134.536c4.581,5.406,5.993,11.4,4.121,22.45-1.812,1.006-2.775,2.345-3.5,7.837-1.313.363-1.882.444-3.078.844,7.361-29.265-3.989-29.852-7.1-30.477a78.087,78.087,0,0,0-15.439,0c-3.114.625-14.464,1.212-7.1,30.477-1.2-.4-1.765-.481-3.078-.844-.724-5.492-1.686-6.831-3.5-7.837-1.871-11.05.126-16.6,4.122-22.45C799.1,126.416,819.917,124.877,828.1,134.536Z" transform="translate(-786.649 -127.856)" fill="#2f2e29"/>
              </g>
              <path id="Trazado_220476" data-name="Trazado 220476" d="M793.769,126.6a5.872,5.872,0,0,0,1.081,2.3c-1.986-.5-5.984-3.441-7.491-3.527,3.723,10.292,13.8,21.284,23.082,23.131q-1.468-1.756-2.94-3.509,7.3,2.155,14.591,4.312-2.478-5.013-4.958-10.026l5.253,1.9c-4.646-8.3-13.4-13.192-21.827-12.194.449-.413,1.271-1.428,1.869-1.977-2.053.2-2.714.041-4.87,1.428A11.608,11.608,0,0,0,793.769,126.6Z" transform="translate(-773.564 -125.373)" fill="#2f2e29"/>
              <path id="Trazado_220477" data-name="Trazado 220477" d="M820.991,139.025a20.717,20.717,0,0,1-9.516,4.3q1.01-1.39,2.022-2.778l-12.666,2.107a21.609,21.609,0,0,1,4.565-9.707l-2.861.1c4.817-5.247,13.024-6.706,18.734-2.881a5.708,5.708,0,0,1,2.3,4.5C823.615,136.512,822.293,137.983,820.991,139.025Z" transform="translate(-798.941 -123.272)" fill="#2f2e29"/>
            </g>
            <path id="Trazado_220478" data-name="Trazado 220478" d="M782.85,131.4c.307.957,1.543,1.149,2.546,1.221a37.459,37.459,0,0,1,8.724,1.64,6.273,6.273,0,0,1,5.375,5.021,60.331,60.331,0,0,0,2.063,7.013,10.543,10.543,0,0,0,4.587,5.51,5.893,5.893,0,0,0,6.781-.754,6.333,6.333,0,0,0,1.309-5.713,18.782,18.782,0,0,0-2.523-5.526c-1.1-1.848-2.209-3.7-3.3-5.551-.162-.266-.314-.53-.474-.8a16.093,16.093,0,0,0-3.27-4.274,5.943,5.943,0,0,0-.69-.5,7.569,7.569,0,0,0-1.318-.668,14.367,14.367,0,0,0-5.142-.738c-.963,0-1.92-.081-2.882-.162-3.206-.264-6.4-.553-9.423,1.816-.506.393-1.254.361-1.744.772A1.66,1.66,0,0,0,782.85,131.4Z" transform="translate(-706.919 -122.228)" fill="#ffd2a1"/>
            <path id="Trazado_220479" data-name="Trazado 220479" d="M759.831,150.038c4.989,5.986,8.893,10.621,12.242,14.146,9.335,9.809,14.493,11.062,27.3,8.782.025-.009.057-.009.081-.018a1.193,1.193,0,0,0,.1-.137.946.946,0,0,0,.088-.111,12.533,12.533,0,0,0,1.431-11.664,20.56,20.56,0,0,0-7.841-9.575,61.775,61.775,0,0,0-11.167-5.72q-7.723-3.3-15.423-6.6c-.594-.257-1.2-.514-1.792-.77C763.543,140.888,761.149,147.508,759.831,150.038Z" transform="translate(-653.159 -113.139)" fill="#b8b0da"/>
            <path id="Trazado_220480" data-name="Trazado 220480" d="M779.339,146.266l6.025,5.222,7.025-10.757-5.954-4.189Z" transform="translate(-678.693 -114.592)" fill="#472ea6"/>
            <path id="Trazado_220481" data-name="Trazado 220481" d="M822.412,128.219a1.269,1.269,0,0,1-.049.153,7.057,7.057,0,0,1-2.209,3.27,16.414,16.414,0,0,1-3.527,2.209,15.422,15.422,0,0,1-5.768,1.839,7.767,7.767,0,0,1-2.274-.176c.162-.266.314-.53.474-.8a16.093,16.093,0,0,1,3.27-4.274c.675-.368,1.349-.763,2.008-1.173a50.026,50.026,0,0,0,4.242-2.843,6.586,6.586,0,0,1,1.455-.9,1.965,1.965,0,0,1,1.661.056A2.335,2.335,0,0,1,822.412,128.219Z" transform="translate(-761.353 -123.48)" fill="#f2c799"/>
            <path id="Trazado_220482" data-name="Trazado 220482" d="M833.644,131.4c-.305.957-1.543,1.149-2.547,1.221a37.493,37.493,0,0,0-8.724,1.64A6.266,6.266,0,0,0,817,139.283a60.339,60.339,0,0,1-2.065,7.013,10.536,10.536,0,0,1-4.587,5.51,5.89,5.89,0,0,1-6.779-.754,6.324,6.324,0,0,1-1.309-5.713,18.737,18.737,0,0,1,2.521-5.526c1.1-1.848,2.209-3.7,3.3-5.551.162-.266.314-.53.474-.8a16.093,16.093,0,0,1,3.27-4.274,5.963,5.963,0,0,1,.691-.5,7.49,7.49,0,0,1,1.316-.668,14.372,14.372,0,0,1,5.142-.738c.964,0,1.92-.081,2.884-.162,3.206-.264,6.393-.553,9.423,1.816.506.393,1.254.361,1.742.772A1.661,1.661,0,0,1,833.644,131.4Z" transform="translate(-760.849 -122.228)" fill="#ffd2a1"/>
            <path id="Trazado_220483" data-name="Trazado 220483" d="M821.658,172.948c-2.647-3.249-3.033-7.968-1.62-11.914a20.545,20.545,0,0,1,7.841-9.568,61.151,61.151,0,0,1,11.167-5.722l17.211-7.379c1.318,2.529,3.71,9.143,5.03,11.671C842.408,172.662,839.153,176.08,821.658,172.948Z" transform="translate(-819.231 -113.14)" fill="#b8b0da"/>
            <path id="Trazado_220484" data-name="Trazado 220484" d="M828.926,146.266l-6.025,5.222-7.025-10.757,5.954-4.189Z" transform="translate(-780.846 -114.592)" fill="#472ea6"/>
            <path id="Trazado_220485" data-name="Trazado 220485" d="M801.734,133.679a8.093,8.093,0,0,1-9.364-1.221q6.958-1.694,13.918-3.385A15.818,15.818,0,0,1,801.734,133.679Z" transform="translate(-715.994 -120.536)" fill="#2f2e29"/>
            <path id="Trazado_220486" data-name="Trazado 220486" d="M811.349,131.378a27.088,27.088,0,0,0-7.97-1.722c1.32.472,1.911,2.069,3.146,2.733a3.39,3.39,0,0,0,2.525.171A8.327,8.327,0,0,0,811.349,131.378Z" transform="translate(-740.826 -120.072)" fill="#2f2e29"/>
            <path id="Trazado_220487" data-name="Trazado 220487" d="M778.971,220.58c11.617,11.923,5.729,25.912,23.219,28.594l9.229,48.093-3.383-46.232-.5-6.988C790.177,242.567,795.6,230.364,778.971,220.58Z" transform="translate(-697.062 -47.71)" fill="#1d1d1b" opacity="0.6"/>
            <path id="Trazado_220488" data-name="Trazado 220488" d="M761.131,270.743c16.628,9.784,11.206,21.987,28.567,23.466.219.031.424.031.645.059,0,0,.057-95.394,1.7-101.137,1.23-4.321,2.432-5.889,2.681-6.093v-.014a159.476,159.476,0,0,0,26.733-23.409,20.968,20.968,0,0,0,4.014-5.714.58.58,0,0,1,.045-.145,1.034,1.034,0,0,0,.088-.162c0-.014.014-.029.014-.043-.074.057-.117.057-.176.145-5.1,7.661-20.113,19.117-31.715,23.849a25.168,25.168,0,0,1-8.76,2.153,8.592,8.592,0,0,1-2.462-.321c1.905,3.559,6.959,54.172-3.719,76.906-.176.381-.352.747-.542,1.113-1.86,3.619-4.161,6.445-7,8.115A13.147,13.147,0,0,1,761.131,270.743Z" transform="translate(-679.222 -97.872)" fill="#1d1d1b" opacity="0.1"/>
            <path id="Trazado_220489" data-name="Trazado 220489" d="M809.03,160.837l.088.088a.358.358,0,0,0,.074.088c8.642,9.317,20.171,17.109,28.051,30.4v.014l3.473,65.773c.131,0,.278.031.4.031,6.724,2.505,14.414,3.457,21.958,4.628-.16-.131-.321-.264-.483-.409-.512-.454-1-.909-1.465-1.392h-.014c-.557-.542-1.1-1.113-1.6-1.7H859.5c-.014,0-.014,0-.014-.014-11.47-12.8-14.765-33.035-14.737-42.014.014-3.136-1.261-11.353-.894-16.656.221-3.148,3.926-7.983,7.016-7.28a30.168,30.168,0,0,1-8.965-3.94h-.014a50.893,50.893,0,0,1-4.219-3.091,113.292,113.292,0,0,1-10.021-9.655c-5.477-5.786-11.382-11.763-18.589-14.853a.014.014,0,0,1-.014-.014Z" transform="translate(-802.694 -95.256)" fill="#1d1d1b" opacity="0.1"/>
          </g>
        </g>
      </g>
    </g>
  </g>
</svg>
