<svg xmlns="http://www.w3.org/2000/svg" width="190" height="190" viewBox="0 0 190 190">
  <g id="Grupo_113392" data-name="Grupo 113392" transform="translate(-285 -6061)">
    <g id="Grupo_106974" data-name="Grupo 106974" transform="translate(285 6061)">
      <g id="Elipse_4980" data-name="Elipse 4980" fill="#fff" stroke="#005045" stroke-width="3" stroke-dasharray="3 4">
        <circle cx="95" cy="95" r="95" stroke="none"/>
        <circle cx="95" cy="95" r="93.5" fill="none"/>
      </g>
      <circle id="Elipse_4981" data-name="Elipse 4981" cx="76" cy="76" r="76" transform="translate(19 19)" fill="#35e9d0"/>
    </g>
    <g id="Grupo_106977" data-name="Grupo 106977" transform="translate(-1725.272 6123.068)">
      <path id="Trazado_220820" data-name="Trazado 220820" d="M2087.856,160.928c0-2.926,0-5.709,0-8.492,0-2.275,1.16-3.449,3.413-3.45q14.48-.005,28.96,0c2.31,0,3.457,1.164,3.459,3.507q.006,8.111,0,16.222v1.17h1.161q11.1,0,22.193,0,3.514,0,3.517,3.451.006,14.58,0,29.159a3.007,3.007,0,0,1-1.975,3.033,2.681,2.681,0,0,1-3.15-.8,4.639,4.639,0,0,1-.813-2.452c-.058-8.359-.035-16.719-.035-25.079v-1.26h-20.9V177q0,12.838,0,25.676a2.983,2.983,0,0,1-5.826.989,5.061,5.061,0,0,1-.141-1.468q-.011-22.989-.007-45.978v-1.173h-23.883v1.234q0,23.139,0,46.277a2.973,2.973,0,0,1-2.08,3.043,2.834,2.834,0,0,1-3.319-1.138,4.165,4.165,0,0,1-.553-2.047q-.049-17.117-.023-34.235v-1.22h-20.9v1.148q0,16.919,0,33.837c0,.3.01.6-.008.9a2.982,2.982,0,0,1-5.961-.009c-.015-.265-.007-.531-.007-.8q0-18.709,0-37.419c0-2.607,1.072-3.685,3.677-3.685q11,0,21.994,0Z" transform="translate(0 -132.131)" fill="#12263f"/>
      <path id="Trazado_220821" data-name="Trazado 220821" d="M2314.59,96.423a1.875,1.875,0,0,0-.156.287c-.495,1.986-1.7,2.962-3.39,2.744-1.619-.208-2.586-1.483-2.595-3.437-.006-1.293-.024-2.586.007-3.878a2.952,2.952,0,0,1,4.117-2.867c7.889,2.93,15.762,5.9,23.641,8.858a3,3,0,0,1,2.1,3.049c0,5.3.013,10.608-.006,15.911a3,3,0,0,1-3.056,3.294c-1.724-.03-2.906-1.37-2.911-3.345-.01-4.309-.021-8.619.011-12.928a1.269,1.269,0,0,0-.964-1.448c-5.289-1.934-10.555-3.93-15.83-5.9C2315.249,96.644,2314.938,96.544,2314.59,96.423Z" transform="translate(-198.198 -84.124)" fill="#12263f"/>
      <path id="Trazado_220822" data-name="Trazado 220822" d="M2132.826,88.593l-20.9,5.807c0,2.574.009,5.121-.008,7.669a4.911,4.911,0,0,1-.186,1.465,2.958,2.958,0,0,1-5.756-.748q-.075-5.42,0-10.843c.019-1.406.956-2.36,2.537-2.8q7.132-1.992,14.268-3.969c3.927-1.091,7.851-2.19,11.781-3.269,2.565-.7,4.229.589,4.235,3.265,0,1.758.014,3.515,0,5.272a2.99,2.99,0,1,1-5.969-.013C2132.819,89.868,2132.826,89.307,2132.826,88.593Z" transform="translate(-36.011 -78.253)" fill="#12263f"/>
      <path id="Trazado_220823" data-name="Trazado 220823" d="M2422.084,13.854c.922.858,1.672,1.509,2.368,2.213a2.978,2.978,0,0,1,.044,4.493q-2.853,2.912-5.763,5.769a2.989,2.989,0,1,1-4.208-4.239c.6-.623,1.209-1.229,1.833-1.823s1.269-1.162,2.206-2.016c-.9-.762-1.7-1.351-2.393-2.038a2.985,2.985,0,0,1-.019-4.7q2.021-2.057,4.071-4.085a3,3,0,1,1,4.222,4.232C2423.748,12.363,2423,13.011,2422.084,13.854Z" transform="translate(-282.391 -17.906)" fill="#12263f"/>
      <path id="Trazado_220824" data-name="Trazado 220824" d="M2090.58,11.053c1.312,1.294,2.495,2.448,3.663,3.617,1.417,1.418,1.516,3.246.259,4.494s-3.051,1.149-4.493-.283q-2.751-2.732-5.482-5.483a2.99,2.99,0,0,1,0-4.632c.7-.693,1.48-1.307,2.45-2.154-.97-.855-1.719-1.457-2.4-2.127a2.993,2.993,0,1,1,4.183-4.246c1.373,1.345,2.738,2.7,4.076,4.077a2.977,2.977,0,0,1,.008,4.564C2092.161,9.592,2091.419,10.253,2090.58,11.053Z" transform="translate(-17.982 -12.138)" fill="#12263f"/>
      <path id="Trazado_220825" data-name="Trazado 220825" d="M2263.433-4.045c-1.489,0-2.842.009-4.2,0a3.026,3.026,0,0,1-3.266-3.3c-.009-1.825-.013-3.649,0-5.474a2.993,2.993,0,0,1,2.991-3.166,3.02,3.02,0,0,1,2.975,3.192c.012.888,0,1.777,0,2.776,1.439,0,2.788-.007,4.138,0a3.032,3.032,0,0,1,3.327,3.339c.013,1.791.022,3.583,0,5.374a3,3,0,0,1-3.035,3.228,3.017,3.017,0,0,1-2.936-3.229C2263.421-2.166,2263.433-3.027,2263.433-4.045Z" transform="translate(-156.17)" fill="#12263f"/>
      <path id="Trazado_220826" data-name="Trazado 220826" d="M2154.731,267.48a10.619,10.619,0,0,1-1.753-.258,2.965,2.965,0,0,1,.59-5.74,11.664,11.664,0,0,1,1.98-.03,2.977,2.977,0,0,1-.015,5.952c-.264.016-.529,0-.793,0Z" transform="translate(-72.091 -222.189)" fill="#12263f"/>
      <path id="Trazado_220827" data-name="Trazado 220827" d="M2102.3,267.4a10.1,10.1,0,0,1-1.09-.006,2.95,2.95,0,0,1-2.664-2.953,2.908,2.908,0,0,1,2.646-2.958,12.321,12.321,0,0,1,1.882-.022,2.977,2.977,0,0,1,.019,5.953c-.264.016-.529,0-.793,0Z" transform="translate(-30.091 -222.197)" fill="#12263f"/>
      <path id="Trazado_220828" data-name="Trazado 220828" d="M2244.788,222.456c-2.374.01-3.762-1.09-3.764-2.972,0-1.9,1.375-3,3.741-3,.3,0,.6-.008.892.014a2.98,2.98,0,0,1,.023,5.95C2245.385,222.477,2245.085,222.456,2244.788,222.456Z" transform="translate(-144.204 -186.198)" fill="#12263f"/>
      <path id="Trazado_220829" data-name="Trazado 220829" d="M2244.836,276.448a3.128,3.128,0,0,1,3.172,1.432,2.95,2.95,0,0,1-.811,3.974,5.285,5.285,0,0,1-5.008-.051,2.913,2.913,0,0,1-.99-3.452C2241.879,276.71,2243.235,276.312,2244.836,276.448Z" transform="translate(-144.17 -234.202)" fill="#12263f"/>
      <path id="Trazado_220830" data-name="Trazado 220830" d="M2297.245,282.484a10.373,10.373,0,0,1-1.751-.265,2.936,2.936,0,0,1-1.941-3.121,2.884,2.884,0,0,1,2.571-2.611,11.273,11.273,0,0,1,2.177-.016,2.973,2.973,0,0,1,.043,5.914,9.422,9.422,0,0,1-1.089.006Z" transform="translate(-186.263 -234.204)" fill="#12263f"/>
      <path id="Trazado_220831" data-name="Trazado 220831" d="M2244.78,342.457c-2.371.009-3.759-1.1-3.757-2.979,0-1.9,1.378-3,3.748-2.988.3,0,.6-.008.893.014a2.98,2.98,0,0,1,.009,5.95C2245.377,342.477,2245.078,342.457,2244.78,342.457Z" transform="translate(-144.203 -282.311)" fill="#12263f"/>
      <path id="Trazado_220832" data-name="Trazado 220832" d="M2387.047,357.681a12.105,12.105,0,0,1-2.638-1.109,2.6,2.6,0,0,1-.824-3.053,2.772,2.772,0,0,1,2.443-2.034,11.5,11.5,0,0,1,1.881-.035,2.98,2.98,0,0,1,.038,5.96c-.264.014-.529,0-.793,0Z" transform="translate(-258.249 -294.277)" fill="#12263f"/>
      <path id="Trazado_220833" data-name="Trazado 220833" d="M2297.271,222.432c-.4-.019-.8-.007-1.187-.062a2.952,2.952,0,0,1-2.548-2.955,2.917,2.917,0,0,1,2.573-2.925,11.851,11.851,0,0,1,1.98-.036,2.978,2.978,0,0,1-.024,5.954c-.264.014-.529,0-.793,0Z" transform="translate(-186.263 -186.151)" fill="#12263f"/>
      <path id="Trazado_220834" data-name="Trazado 220834" d="M2297.3,342.422c-.264,0-.53.012-.793,0a2.98,2.98,0,0,1-.029-5.96c.495-.025.992-.024,1.487-.006a2.983,2.983,0,1,1,.029,5.965C2297.761,342.43,2297.529,342.422,2297.3,342.422Z" transform="translate(-186.263 -282.274)" fill="#12263f"/>
      <path id="Trazado_220835" data-name="Trazado 220835" d="M2439.734,357.4c-.331,0-.664.026-.991,0a2.976,2.976,0,0,1,.07-5.937,14.07,14.07,0,0,1,1.784,0,2.977,2.977,0,0,1,.029,5.948c-.3.021-.595,0-.892,0Z" transform="translate(-300.379 -294.279)" fill="#12263f"/>
      <path id="Trazado_220836" data-name="Trazado 220836" d="M2387.274,305.065a11.227,11.227,0,0,1-2.168-.539,2.814,2.814,0,0,1-1.509-3.241,2.967,2.967,0,0,1,2.75-2.318c.527-.032,1.058-.023,1.586-.008a2.986,2.986,0,1,1-.032,5.969c-.2.005-.4,0-.595,0Z" transform="translate(-258.335 -252.241)" fill="#12263f"/>
      <path id="Trazado_220837" data-name="Trazado 220837" d="M2102.33,313.881a9.457,9.457,0,0,1,1.281.09,2.978,2.978,0,0,1-.365,5.889,15.424,15.424,0,0,1-1.684.014,2.983,2.983,0,1,1-.027-5.967c.264-.009.529,0,.793,0Z" transform="translate(-30.088 -264.204)" fill="#12263f"/>
      <path id="Trazado_220838" data-name="Trazado 220838" d="M2154.686,319.935a9.414,9.414,0,0,1-1.186-.062,3.027,3.027,0,0,1-2.484-3.123,2.994,2.994,0,0,1,2.84-2.793,16.693,16.693,0,0,1,1.685,0,2.982,2.982,0,0,1,.037,5.962c-.3.016-.594,0-.892,0Z" transform="translate(-72.11 -264.246)" fill="#12263f"/>
      <path id="Trazado_220839" data-name="Trazado 220839" d="M2439.773,298.882a9.647,9.647,0,0,1,1.282.085,2.979,2.979,0,0,1-.31,5.891,14.578,14.578,0,0,1-1.684.017,2.986,2.986,0,1,1,.016-5.969c.231-.007.462,0,.694,0Z" transform="translate(-300.375 -252.19)" fill="#12263f"/>
    </g>
  </g>
</svg>
