<svg xmlns="http://www.w3.org/2000/svg" xmlns:xlink="http://www.w3.org/1999/xlink" width="275.829" height="385.51" viewBox="0 0 275.829 385.51">
  <defs>
    <linearGradient id="linear-gradient" x1="0.146" y1="0.854" x2="0.854" y2="0.146" gradientUnits="objectBoundingBox">
      <stop offset="0" stop-opacity="0.102"/>
      <stop offset="1" stop-opacity="0.302"/>
    </linearGradient>
    <linearGradient id="linear-gradient-2" x1="0.154" y1="1.028" x2="0.846" y2="-0.028" gradientUnits="objectBoundingBox">
      <stop offset="0" stop-opacity="0"/>
      <stop offset="1" stop-opacity="0.302"/>
    </linearGradient>
  </defs>
  <g id="Grupo_113379" data-name="Grupo 113379" transform="translate(8783 10274.81)">
    <path id="Trazado_213139" data-name="Trazado 213139" d="M526.9,731.05l2.217-1.844c-.14-3.231.389-12.922,11.516-14.674,8.589-1.347,13.164,6.729,15.312,12.531l3.022,1.089a37.682,37.682,0,0,0-2.826-6.749c-3.9-7.125-9.4-10.353-15.895-9.333-4.677.734-8.23,2.77-10.576,6.055-3.943,5.52-2.945,12.43-2.933,12.5A1.243,1.243,0,0,0,526.9,731.05Z" transform="translate(-9201.206 -10884.692)" fill="#637575"/>
    <path id="Trazado_213140" data-name="Trazado 213140" d="M382.033,872.867A136.374,136.374,0,1,0,263.3,1024.844,136.373,136.373,0,0,0,382.033,872.867ZM236.775,786.276a8.828,8.828,0,1,1,8.024-9.563A8.828,8.828,0,0,1,236.775,786.276Z" transform="translate(-8893.288 -10915.174)" fill="#fff"/>
    <g id="Grupo_97090" data-name="Grupo 97090" transform="translate(-8779.946 -10165.375)">
      <path id="Trazado_213141" data-name="Trazado 213141" d="M393.761,860.2a136.374,136.374,0,1,0-118.737,151.977A136.373,136.373,0,0,0,393.761,860.2ZM245.449,776.9a8.827,8.827,0,1,1,8.024-9.563A8.828,8.828,0,0,1,245.449,776.9Z" transform="translate(-122.017 -740.427)" fill="#fd8f25"/>
    </g>
    <path id="Trazado_213142" data-name="Trazado 213142" d="M393.761,860.2a136.374,136.374,0,1,0-118.737,151.977A136.373,136.373,0,0,0,393.761,860.2ZM245.449,776.9a8.827,8.827,0,1,1,8.024-9.563A8.828,8.828,0,0,1,245.449,776.9Z" transform="translate(-8901.963 -10905.802)" opacity="0.32" fill="url(#linear-gradient)" style="mix-blend-mode: multiply;isolation: isolate"/>
    <path id="Trazado_223635" data-name="Trazado 223635" d="M0,0H171.34V1.3H0Z" transform="matrix(0.996, -0.087, 0.087, 0.996, -8722.766, -9951.338)" fill="#e9ed4f"/>
    <g id="Grupo_97094" data-name="Grupo 97094" transform="translate(-8682 -10189.077)">
      <g id="Grupo_97091" data-name="Grupo 97091" transform="translate(1.48 2.507)" opacity="0.3" style="mix-blend-mode: overlay;isolation: isolate">
        <path id="Trazado_213144" data-name="Trazado 213144" d="M654.045,704.216l-7.1-28.488a22.019,22.019,0,0,0-26.693-16.039l-99.708,24.86A22.019,22.019,0,0,0,504.5,711.242l7.1,28.488A22.02,22.02,0,0,0,538.3,755.769l99.708-24.86A22.019,22.019,0,0,0,654.045,704.216ZM529.127,717.53a8.827,8.827,0,1,1,8.19-9.422A8.828,8.828,0,0,1,529.127,717.53Z" transform="translate(-503.844 -659.029)"/>
      </g>
      <g id="Grupo_97092" data-name="Grupo 97092">
        <path id="Trazado_213145" data-name="Trazado 213145" d="M648.315,694.088l-7.6-28.36a22.019,22.019,0,0,0-26.969-15.57l-99.26,26.6a22.019,22.019,0,0,0-15.57,26.969l7.6,28.36a22.02,22.02,0,0,0,26.969,15.571l99.259-26.6A22.02,22.02,0,0,0,648.315,694.088ZM523.648,709.582a8.828,8.828,0,1,1,8.024-9.563A8.828,8.828,0,0,1,523.648,709.582Z" transform="translate(-498.162 -649.402)" fill="#2cffe2"/>
      </g>
      <g id="Grupo_97093" data-name="Grupo 97093">
        <path id="Trazado_213146" data-name="Trazado 213146" d="M648.315,694.088l-7.6-28.36a22.019,22.019,0,0,0-26.969-15.57l-99.26,26.6a22.019,22.019,0,0,0-15.57,26.969l7.6,28.36a22.02,22.02,0,0,0,26.969,15.571l99.259-26.6A22.02,22.02,0,0,0,648.315,694.088ZM523.648,709.582a8.828,8.828,0,1,1,8.024-9.563A8.828,8.828,0,0,1,523.648,709.582Z" transform="translate(-498.162 -649.402)" fill="url(#linear-gradient-2)"/>
      </g>
    </g>
    <g id="Grupo_97095" data-name="Grupo 97095" transform="translate(-8670.524 -10150.935)">
      <path id="Trazado_213147" data-name="Trazado 213147" d="M554.318,795.935a13.241,13.241,0,1,0,14.345,12.037A13.241,13.241,0,0,0,554.318,795.935Zm1.924,21.985a8.828,8.828,0,1,1,8.024-9.563A8.828,8.828,0,0,1,556.241,817.92Z" transform="translate(-542.23 -795.884)" fill="#637575"/>
    </g>
    <g id="Grupo_97096" data-name="Grupo 97096" transform="translate(-8680.95 -10272.964)">
      <path id="Trazado_213148" data-name="Trazado 213148" d="M522.531,456.549c-.028.005-.057.009-.085.012a1.248,1.248,0,0,1-1.372-1.108c-.014-.135-1.491-13.947-7.175-59.069-5.671-45.033-11.6-67.343-11.664-67.562a1.247,1.247,0,0,1,2.408-.649c.059.221,6.034,22.669,11.73,67.9,5.688,45.156,7.167,58.982,7.181,59.116A1.247,1.247,0,0,1,522.531,456.549Z" transform="translate(-502.192 -327.251)" fill="#637575"/>
    </g>
    <g id="Grupo_97097" data-name="Grupo 97097" transform="translate(-8660.664 -10274.81)">
      <path id="Trazado_213149" data-name="Trazado 213149" d="M585.821,450.809a1.2,1.2,0,0,1-.132.017,1.247,1.247,0,0,1-1.329-1.159c-.01-.135-.955-14.006-3.2-59.465-2.244-45.532-.258-68.677-.238-68.905a1.247,1.247,0,0,1,2.484.221c-.02.227-1.989,23.227.245,68.561,2.238,45.423,3.183,59.283,3.191,59.418A1.246,1.246,0,0,1,585.821,450.809Z" transform="translate(-580.097 -320.161)" fill="#637575"/>
    </g>
    <g id="Grupo_97101" data-name="Grupo 97101" transform="translate(-8752.596 -10091.243)">
      <g id="Grupo_97098" data-name="Grupo 97098" transform="translate(0 7.155)">
        <path id="Trazado_213150" data-name="Trazado 213150" d="M283.6,1081.167a10.716,10.716,0,0,1-.328,3.913,7.876,7.876,0,0,1-1.83,3.207,9.651,9.651,0,0,1-3.581,2.322,19.676,19.676,0,0,1-5.523,1.187L249.2,1093.82l-1.324,16.255q2.684-.7,5.191-1.157t4.9-.663a36.491,36.491,0,0,1,13.7,1.145,28.58,28.58,0,0,1,10.394,5.486,26.469,26.469,0,0,1,6.842,8.91,32.947,32.947,0,0,1,3.042,11.42,35.687,35.687,0,0,1-1.518,14.43,33.1,33.1,0,0,1-6.71,11.737,34.638,34.638,0,0,1-11.1,8.238,42.331,42.331,0,0,1-14.7,3.864,39.826,39.826,0,0,1-9.1-.209,43.345,43.345,0,0,1-15.569-5.3,46,46,0,0,1-6.2-4.246l5.638-9.065a6.965,6.965,0,0,1,2.15-2.231,6.083,6.083,0,0,1,2.8-.947,7.018,7.018,0,0,1,3.852.767q1.857.943,4.065,2.056a28.821,28.821,0,0,0,5.093,1.932,19.633,19.633,0,0,0,7.007.458,16.652,16.652,0,0,0,6.928-1.979,12.7,12.7,0,0,0,4.427-4.137,15.281,15.281,0,0,0,2.177-5.749,26.525,26.525,0,0,0,.241-6.818q-.616-7.044-4.928-10.384t-11.624-2.7a34.73,34.73,0,0,0-12.549,3.576l-13.066-2.339,4-49.169,49.593-4.339Z" transform="translate(-227.052 -1067.435)" fill="#fff"/>
        <path id="Trazado_213151" data-name="Trazado 213151" d="M567.036,1099.035a79.027,79.027,0,0,1-.8,22.236,45.34,45.34,0,0,1-6.2,16.079,30.551,30.551,0,0,1-10.638,10.105,34.517,34.517,0,0,1-14.064,4.244,34.037,34.037,0,0,1-14.521-1.744,30.4,30.4,0,0,1-12.131-8.113,45.247,45.247,0,0,1-8.828-14.764,91.562,91.562,0,0,1-3.849-44,45.261,45.261,0,0,1,6.13-16.072,30.109,30.109,0,0,1,10.541-10.063,34.372,34.372,0,0,1,14-4.2,34.843,34.843,0,0,1,14.585,1.7,30.254,30.254,0,0,1,12.228,8.071,45.352,45.352,0,0,1,8.894,14.758A79.051,79.051,0,0,1,567.036,1099.035Zm-21.273,1.862a88.124,88.124,0,0,0-2.7-16.338,33.858,33.858,0,0,0-4.238-9.775,12.226,12.226,0,0,0-5.192-4.6,11.75,11.75,0,0,0-5.5-.892,11.552,11.552,0,0,0-5.232,1.831,11.919,11.919,0,0,0-4.214,5.425A34.7,34.7,0,0,0,516.3,1086.9a111.249,111.249,0,0,0,2.881,32.93,35.153,35.153,0,0,0,4.139,9.783,11.88,11.88,0,0,0,5.1,4.643,11.541,11.541,0,0,0,5.471.895,11.744,11.744,0,0,0,5.266-1.834,12.183,12.183,0,0,0,4.311-5.466,34.309,34.309,0,0,0,2.476-10.362A88,88,0,0,0,545.762,1100.9Z" transform="translate(-425.099 -1052.594)" fill="#fff"/>
      </g>
      <g id="Grupo_97099" data-name="Grupo 97099" transform="translate(152.693 66.394)">
        <path id="Trazado_213152" data-name="Trazado 213152" d="M824.849,1319.709a6.1,6.1,0,0,1-.023,2.368,5.447,5.447,0,0,1-.887,2.03,5.557,5.557,0,0,1-1.664,1.526,6.741,6.741,0,0,1-2.358.859l-4.452.786-2.023-11.455,4.452-.787a6.687,6.687,0,0,1,2.51,0,5.633,5.633,0,0,1,2.087.864,5.4,5.4,0,0,1,1.527,1.6A6.066,6.066,0,0,1,824.849,1319.709Zm-2.721.481a5.067,5.067,0,0,0-.491-1.494,3.331,3.331,0,0,0-.838-1.048,2.8,2.8,0,0,0-1.14-.552,3.483,3.483,0,0,0-1.406-.015l-1.777.314,1.3,7.367,1.777-.314a3.49,3.49,0,0,0,1.315-.5,2.785,2.785,0,0,0,.881-.91,3.319,3.319,0,0,0,.428-1.271A5.1,5.1,0,0,0,822.128,1320.19Z" transform="translate(-813.441 -1305.849)" fill="#fff"/>
        <path id="Trazado_213153" data-name="Trazado 213153" d="M862.7,1320.356a4.276,4.276,0,0,1,1.527-.01,3.278,3.278,0,0,1,1.285.527,3.39,3.39,0,0,1,.962,1.042,4.373,4.373,0,0,1,.55,1.528,3.44,3.44,0,0,1,.055.453.714.714,0,0,1-.038.29.335.335,0,0,1-.144.172.81.81,0,0,1-.264.088l-4.7.831a2.336,2.336,0,0,0,.883,1.372,1.878,1.878,0,0,0,1.379.23,2.357,2.357,0,0,0,.714-.231,3.772,3.772,0,0,0,.506-.325q.218-.168.4-.306a.933.933,0,0,1,.4-.177.513.513,0,0,1,.478.135l.862.748a3.7,3.7,0,0,1-.69.848,4.331,4.331,0,0,1-.822.583,4.937,4.937,0,0,1-.883.375,7.025,7.025,0,0,1-.866.214,4.664,4.664,0,0,1-1.658,0,3.753,3.753,0,0,1-1.46-.6,3.972,3.972,0,0,1-1.131-1.211,5.2,5.2,0,0,1-.662-1.845,4.36,4.36,0,0,1,.005-1.6,3.822,3.822,0,0,1,1.688-2.52A4.248,4.248,0,0,1,862.7,1320.356Zm.344,1.675a1.49,1.49,0,0,0-1.023.59,2.1,2.1,0,0,0-.317,1.236l3.043-.538a2.164,2.164,0,0,0-.175-.553,1.387,1.387,0,0,0-.33-.448,1.252,1.252,0,0,0-.506-.272A1.547,1.547,0,0,0,863.04,1322.03Z" transform="translate(-847.366 -1309.816)" fill="#fff"/>
        <path id="Trazado_213154" data-name="Trazado 213154" d="M895.328,1316.856a.639.639,0,0,1-.163.248.533.533,0,0,1-.26.111.884.884,0,0,1-.359-.014l-.4-.1a4.128,4.128,0,0,0-.481-.081,2.051,2.051,0,0,0-.587.027,1.232,1.232,0,0,0-.68.3.578.578,0,0,0-.161.535.5.5,0,0,0,.228.349,1.5,1.5,0,0,0,.475.188,5.976,5.976,0,0,0,.644.109q.356.043.732.106a6.289,6.289,0,0,1,.744.173,2.647,2.647,0,0,1,.679.31,1.889,1.889,0,0,1,.535.526,2.072,2.072,0,0,1,.311.821,2.832,2.832,0,0,1-.023,1.155,2.4,2.4,0,0,1-.5,1,3.156,3.156,0,0,1-.976.765,4.925,4.925,0,0,1-1.438.465,4.592,4.592,0,0,1-.848.068,5.81,5.81,0,0,1-.844-.07,4.453,4.453,0,0,1-.776-.191,3.188,3.188,0,0,1-.636-.3l.408-1a.829.829,0,0,1,.2-.291.69.69,0,0,1,.354-.156.782.782,0,0,1,.4.027l.4.14a3.041,3.041,0,0,0,.5.123,2.016,2.016,0,0,0,.681-.023,1.714,1.714,0,0,0,.469-.144.859.859,0,0,0,.286-.217.64.64,0,0,0,.142-.528.537.537,0,0,0-.236-.372,1.464,1.464,0,0,0-.481-.2,5.459,5.459,0,0,0-.647-.1q-.359-.038-.735-.1a5.62,5.62,0,0,1-.75-.18,2.432,2.432,0,0,1-.689-.34,2.118,2.118,0,0,1-.55-.588,2.5,2.5,0,0,1-.333-.922,2.521,2.521,0,0,1,.026-1.022,2.326,2.326,0,0,1,.456-.928,3,3,0,0,1,.907-.74,4.412,4.412,0,0,1,1.379-.459,4.638,4.638,0,0,1,.867-.072,4.406,4.406,0,0,1,.813.083,3.758,3.758,0,0,1,.72.217,3.236,3.236,0,0,1,.6.328Z" transform="translate(-870.003 -1306.112)" fill="#fff"/>
        <path id="Trazado_213155" data-name="Trazado 213155" d="M921.905,1311.98a1.373,1.373,0,0,1-.175.25.475.475,0,0,1-.277.13.637.637,0,0,1-.342-.029l-.36-.135a2.515,2.515,0,0,0-.459-.118,1.857,1.857,0,0,0-.621.021,1.724,1.724,0,0,0-.745.3,1.456,1.456,0,0,0-.455.567,2.181,2.181,0,0,0-.182.806,4.572,4.572,0,0,0,.075,1.021,3.105,3.105,0,0,0,.77,1.72,1.474,1.474,0,0,0,1.358.409,1.764,1.764,0,0,0,.654-.225,2.041,2.041,0,0,0,.379-.31l.276-.3a.6.6,0,0,1,.346-.175.512.512,0,0,1,.478.134l.862.748a3.911,3.911,0,0,1-.67.844,4.057,4.057,0,0,1-.778.575,4.5,4.5,0,0,1-.839.367,6.558,6.558,0,0,1-.847.21,3.729,3.729,0,0,1-1.478-.031,3.547,3.547,0,0,1-1.34-.61,3.991,3.991,0,0,1-1.052-1.18,5.039,5.039,0,0,1-.62-1.739,5.106,5.106,0,0,1-.027-1.694,3.8,3.8,0,0,1,.544-1.466,3.683,3.683,0,0,1,1.118-1.11,4.544,4.544,0,0,1,1.7-.633,4.358,4.358,0,0,1,1.737.009,4.111,4.111,0,0,1,1.464.666Z" transform="translate(-889.13 -1302.397)" fill="#fff"/>
        <path id="Trazado_213156" data-name="Trazado 213156" d="M945.086,1304.5l.914,5.173a1.444,1.444,0,0,0,.44.887,1.011,1.011,0,0,0,.868.187,1.767,1.767,0,0,0,.722-.3,2.856,2.856,0,0,0,.6-.584l-1.027-5.81,2.438-.431,1.44,8.153-1.51.267a.582.582,0,0,1-.67-.3l-.233-.445a4.838,4.838,0,0,1-.415.5,3.048,3.048,0,0,1-.483.41,3.238,3.238,0,0,1-1.292.516,2.914,2.914,0,0,1-1.225-.023,2.471,2.471,0,0,1-.984-.5,2.879,2.879,0,0,1-.709-.888,4.12,4.12,0,0,1-.4-1.21l-.914-5.173Z" transform="translate(-909.003 -1297.496)" fill="#fff"/>
        <path id="Trazado_213157" data-name="Trazado 213157" d="M980.482,1299.548a4.269,4.269,0,0,1,1.527-.01,3.281,3.281,0,0,1,1.286.527,3.4,3.4,0,0,1,.962,1.042,4.383,4.383,0,0,1,.55,1.529,3.472,3.472,0,0,1,.055.453.716.716,0,0,1-.038.291.332.332,0,0,1-.144.171.8.8,0,0,1-.265.087l-4.7.831a2.336,2.336,0,0,0,.883,1.372,1.879,1.879,0,0,0,1.379.231,2.361,2.361,0,0,0,.714-.232,3.775,3.775,0,0,0,.506-.324q.217-.168.4-.306a.934.934,0,0,1,.4-.177.513.513,0,0,1,.478.135l.862.748a3.7,3.7,0,0,1-.689.847,4.3,4.3,0,0,1-.822.583,4.9,4.9,0,0,1-.882.375,7.052,7.052,0,0,1-.866.214,4.656,4.656,0,0,1-1.658,0,3.75,3.75,0,0,1-1.46-.6,3.972,3.972,0,0,1-1.13-1.211,5.184,5.184,0,0,1-.662-1.845,4.362,4.362,0,0,1,.005-1.6,3.822,3.822,0,0,1,1.688-2.52A4.242,4.242,0,0,1,980.482,1299.548Zm.344,1.674a1.493,1.493,0,0,0-1.023.59,2.1,2.1,0,0,0-.317,1.235l3.043-.537a2.162,2.162,0,0,0-.175-.553,1.4,1.4,0,0,0-.33-.449,1.262,1.262,0,0,0-.506-.271A1.546,1.546,0,0,0,980.826,1301.223Z" transform="translate(-934.481 -1294.427)" fill="#fff"/>
        <path id="Trazado_213158" data-name="Trazado 213158" d="M1009.564,1302.4l-1.44-8.153,1.51-.267a.68.68,0,0,1,.4.035.555.555,0,0,1,.27.269l.225.446a6.1,6.1,0,0,1,.416-.495,2.942,2.942,0,0,1,.482-.414,3.284,3.284,0,0,1,.585-.314,3.4,3.4,0,0,1,.715-.2,2.912,2.912,0,0,1,1.225.023,2.494,2.494,0,0,1,.983.491,2.82,2.82,0,0,1,.708.888,4.13,4.13,0,0,1,.4,1.206l.916,5.181-2.438.431-.915-5.181a1.451,1.451,0,0,0-.44-.883,1,1,0,0,0-.869-.191,1.722,1.722,0,0,0-.725.306,2.988,2.988,0,0,0-.594.583l1.027,5.81Z" transform="translate(-957.43 -1289.82)" fill="#fff"/>
        <path id="Trazado_213159" data-name="Trazado 213159" d="M1044.178,1290.743a2.927,2.927,0,0,1-1.057.012,2.012,2.012,0,0,1-1.425-1.017,2.951,2.951,0,0,1-.331-.955l-.745-4.214-.692.122a.446.446,0,0,1-.541-.4l-.168-.952,1.253-.48.128-2.074a.492.492,0,0,1,.468-.472l1.274-.225.421,2.382,1.982-.35.295,1.667-1.982.35.715,4.049a.773.773,0,0,0,.22.443.47.47,0,0,0,.43.115.774.774,0,0,0,.219-.067.919.919,0,0,0,.146-.091c.041-.031.078-.06.115-.085a.327.327,0,0,1,.133-.052.288.288,0,0,1,.186.02.648.648,0,0,1,.166.137l.943,1.025a3.413,3.413,0,0,1-.968.718A4.294,4.294,0,0,1,1044.178,1290.743Z" transform="translate(-980.429 -1280.089)" fill="#fff"/>
        <path id="Trazado_213160" data-name="Trazado 213160" d="M1068.135,1283.962a4.779,4.779,0,0,1,1.742-.008,3.77,3.77,0,0,1,1.457.6,3.812,3.812,0,0,1,1.082,1.167,4.826,4.826,0,0,1,.61,1.688,4.9,4.9,0,0,1,.007,1.811,3.837,3.837,0,0,1-.614,1.479,3.786,3.786,0,0,1-1.161,1.073,4.724,4.724,0,0,1-1.639.594,4.785,4.785,0,0,1-1.755.006,3.854,3.854,0,0,1-1.47-.608,3.783,3.783,0,0,1-1.092-1.177,4.905,4.905,0,0,1-.613-1.7,4.818,4.818,0,0,1-.005-1.8,3.755,3.755,0,0,1,.625-1.469,3.841,3.841,0,0,1,1.174-1.067A4.846,4.846,0,0,1,1068.135,1283.962Zm1.165,6.6a1.407,1.407,0,0,0,1.133-.812,4.354,4.354,0,0,0-.636-3.6,1.41,1.41,0,0,0-1.343-.371,1.443,1.443,0,0,0-1.162.813,4.313,4.313,0,0,0,.637,3.6A1.441,1.441,0,0,0,1069.3,1290.559Z" transform="translate(-999.202 -1282.892)" fill="#fff"/>
      </g>
      <g id="Grupo_97100" data-name="Grupo 97100" transform="translate(149.216)">
        <path id="Trazado_213161" data-name="Trazado 213161" d="M828.979,1042.506a14.869,14.869,0,0,1-.67,6.129,15.049,15.049,0,0,1-2.768,4.961,14.089,14.089,0,0,1-4.337,3.435,14.347,14.347,0,0,1-5.375,1.551,15.1,15.1,0,0,1-5.851-.569,13.4,13.4,0,0,1-4.806-2.635,13.922,13.922,0,0,1-3.4-4.422,16.348,16.348,0,0,1-1.6-5.93,17.2,17.2,0,0,1,.53-6.3,14.016,14.016,0,0,1,2.575-5.027,13.525,13.525,0,0,1,4.271-3.472,14.875,14.875,0,0,1,5.662-1.6,15.178,15.178,0,0,1,5.895.586,13.429,13.429,0,0,1,4.85,2.673,14.034,14.034,0,0,1,3.41,4.5A17.217,17.217,0,0,1,828.979,1042.506Zm17.8-14.322a7.624,7.624,0,0,1,1.413-1.433,4.564,4.564,0,0,1,2.465-.819l9.328-.816-40.218,62.268a5.111,5.111,0,0,1-1.434,1.436,4.583,4.583,0,0,1-2.2.712l-9.576.838Zm-27.618,15.181a14.586,14.586,0,0,0-.656-3.456,6.24,6.24,0,0,0-1.163-2.123,3.371,3.371,0,0,0-1.566-1.027,5.028,5.028,0,0,0-1.866-.169,4.858,4.858,0,0,0-1.787.489,3.139,3.139,0,0,0-1.3,1.279,6.48,6.48,0,0,0-.715,2.286,15.409,15.409,0,0,0-.025,3.516,13.923,13.923,0,0,0,.619,3.272,5.994,5.994,0,0,0,1.092,2.026,3.22,3.22,0,0,0,1.5.991,4.859,4.859,0,0,0,1.845.171,5.021,5.021,0,0,0,1.808-.491,3.468,3.468,0,0,0,1.368-1.242,5.777,5.777,0,0,0,.786-2.189A13.174,13.174,0,0,0,819.156,1043.365Zm47.162,27.555a15,15,0,0,1-3.435,11.132,14.082,14.082,0,0,1-4.337,3.435,14.366,14.366,0,0,1-5.375,1.552,15.123,15.123,0,0,1-5.852-.569,13.4,13.4,0,0,1-4.805-2.636,13.872,13.872,0,0,1-3.4-4.442,16.511,16.511,0,0,1-1.6-5.951,17.2,17.2,0,0,1,.53-6.3,14.02,14.02,0,0,1,2.576-5.027,13.51,13.51,0,0,1,4.271-3.471,14.875,14.875,0,0,1,5.662-1.6,15.187,15.187,0,0,1,5.895.586,13.427,13.427,0,0,1,4.85,2.673,14.048,14.048,0,0,1,3.41,4.5A17.226,17.226,0,0,1,866.318,1070.921Zm-9.823.86a14.376,14.376,0,0,0-.652-3.415,6.241,6.241,0,0,0-1.163-2.123,3.37,3.37,0,0,0-1.566-1.027,5.04,5.04,0,0,0-1.865-.169,4.873,4.873,0,0,0-1.787.489,3.133,3.133,0,0,0-1.3,1.278,6.493,6.493,0,0,0-.715,2.287,15.175,15.175,0,0,0-.029,3.474,13.89,13.89,0,0,0,.619,3.272,5.988,5.988,0,0,0,1.092,2.025,3.218,3.218,0,0,0,1.5.991,4.848,4.848,0,0,0,1.845.171,5.018,5.018,0,0,0,1.808-.491,3.468,3.468,0,0,0,1.368-1.242,5.773,5.773,0,0,0,.786-2.189A13.158,13.158,0,0,0,856.495,1071.78Z" transform="translate(-800.09 -1025.116)" fill="#fff"/>
      </g>
    </g>
    <g id="Grupo_97102" data-name="Grupo 97102" transform="translate(-8651.56 -10160.539)">
      <path id="Trazado_213162" data-name="Trazado 213162" d="M656.294,790.359a.869.869,0,0,1,.237,0,.67.67,0,0,1,.229.084,2.22,2.22,0,0,1,.253.175l12.052,9.108q-.128-.342-.236-.677t-.187-.629L665.794,787.8l2.321-.622,4.367,16.3-1.348.361a1.189,1.189,0,0,1-.549.032,1.254,1.254,0,0,1-.5-.247l-12.037-9.1q.122.319.226.637t.176.59l2.872,10.719-2.332.625-4.367-16.3,1.381-.37A2.127,2.127,0,0,1,656.294,790.359Z" transform="translate(-644.319 -779.836)" fill="#fff"/>
      <path id="Trazado_213163" data-name="Trazado 213163" d="M725.686,794.088l1.968,7.346a2.845,2.845,0,0,0,1.023,1.667,2.08,2.08,0,0,0,1.809.207,3.274,3.274,0,0,0,1.4-.77,5.245,5.245,0,0,0,1.036-1.363l-2.256-8.421,2.434-.652,3.094,11.545-1.472.394a.611.611,0,0,1-.747-.3l-.469-1.027a6.678,6.678,0,0,1-1.291,1.68,4.47,4.47,0,0,1-1.939,1.029,4.3,4.3,0,0,1-1.761.132,3.45,3.45,0,0,1-1.457-.568,3.985,3.985,0,0,1-1.113-1.188,6.247,6.247,0,0,1-.727-1.716l-1.968-7.346Z" transform="translate(-695.08 -783.481)" fill="#fff"/>
      <path id="Trazado_213164" data-name="Trazado 213164" d="M778.939,782.783A5.683,5.683,0,0,1,781,782.6a4.475,4.475,0,0,1,1.834.594,4.832,4.832,0,0,1,1.463,1.361,6.387,6.387,0,0,1,.958,2.1,1.605,1.605,0,0,1,.079.792.516.516,0,0,1-.4.314l-7.416,1.987a5.989,5.989,0,0,0,.762,1.621,3.626,3.626,0,0,0,1.016,1.007,2.8,2.8,0,0,0,1.231.428,3.883,3.883,0,0,0,1.415-.13,4.281,4.281,0,0,0,1.19-.495,6.015,6.015,0,0,0,.809-.605q.332-.3.56-.538a1.019,1.019,0,0,1,.454-.3.539.539,0,0,1,.514.105l.93.709a4.527,4.527,0,0,1-.743,1.121,5.872,5.872,0,0,1-1,.881,6.787,6.787,0,0,1-1.172.654,8.88,8.88,0,0,1-1.231.433,6.262,6.262,0,0,1-2.333.194,5.122,5.122,0,0,1-2.094-.706,5.647,5.647,0,0,1-1.7-1.62,7.95,7.95,0,0,1-1.137-2.546,6.717,6.717,0,0,1-.221-2.342,5.532,5.532,0,0,1,.6-2.1,5.285,5.285,0,0,1,1.395-1.678A5.826,5.826,0,0,1,778.939,782.783Zm.519,1.754a2.913,2.913,0,0,0-1.88,1.317,3.807,3.807,0,0,0-.392,2.386l5.74-1.538a3.71,3.71,0,0,0-.48-1.091,2.757,2.757,0,0,0-.761-.779,2.436,2.436,0,0,0-1.007-.385A2.972,2.972,0,0,0,779.458,784.536Z" transform="translate(-733.165 -776.434)" fill="#fff"/>
      <path id="Trazado_213165" data-name="Trazado 213165" d="M812.558,769.569l2-.537a.783.783,0,0,1,.508.016.669.669,0,0,1,.333.269l4.361,6.037q.289.444.536.869t.465.876q-.034-.489-.034-.986t.04-1.03l.8-7.421a.718.718,0,0,1,.158-.406.74.74,0,0,1,.405-.254l1.9-.51-1.549,12.789-2.2.588Z" transform="translate(-761.131 -764.541)" fill="#fff"/>
      <path id="Trazado_213166" data-name="Trazado 213166" d="M873,770.122a1.092,1.092,0,0,1-.561.035.854.854,0,0,1-.423-.354l-.489-.876a9.241,9.241,0,0,1-.681.947,5.961,5.961,0,0,1-.749.759,4.541,4.541,0,0,1-.9.587,6.061,6.061,0,0,1-1.132.418,4.447,4.447,0,0,1-1.359.158,2.97,2.97,0,0,1-1.2-.3,2.854,2.854,0,0,1-.956-.781,3.453,3.453,0,0,1-.619-1.29,2.715,2.715,0,0,1,.008-1.4,3.368,3.368,0,0,1,.873-1.453,7.911,7.911,0,0,1,1.939-1.411,16.27,16.27,0,0,1,3.212-1.261l-.206-.77a2.864,2.864,0,0,0-1.03-1.714,2.029,2.029,0,0,0-1.726-.192,3.545,3.545,0,0,0-1.13.491,5.505,5.505,0,0,0-.725.6q-.3.3-.521.546a1.082,1.082,0,0,1-.53.33.716.716,0,0,1-.459-.016,1.111,1.111,0,0,1-.376-.246l-.654-.674a6.846,6.846,0,0,1,4.177-3.072,4.745,4.745,0,0,1,1.858-.152,3.676,3.676,0,0,1,1.546.562,4.176,4.176,0,0,1,1.178,1.182,5.709,5.709,0,0,1,.758,1.72l1.965,7.334Zm-4.652-.379a3.63,3.63,0,0,0,1.541-.795,5.431,5.431,0,0,0,1.056-1.381l-.577-2.151a17.764,17.764,0,0,0-2.139.8,6.093,6.093,0,0,0-1.337.807,2.046,2.046,0,0,0-.636.819,1.342,1.342,0,0,0-.039.829,1.745,1.745,0,0,0,.317.661,1.317,1.317,0,0,0,.49.379,1.527,1.527,0,0,0,.616.126A2.681,2.681,0,0,0,868.349,769.743Z" transform="translate(-798.146 -758.997)" fill="#fff"/>
      <path id="Trazado_213167" data-name="Trazado 213167" d="M626.455,890.213l.526,1.962-4.519,1.211,3.356,12.526-2.345.628-3.356-12.526-4.529,1.214-.526-1.962Z" transform="translate(-615.063 -856.045)" fill="#fff"/>
      <path id="Trazado_213168" data-name="Trazado 213168" d="M665.743,901.719a5.057,5.057,0,0,1,1.833-.162,3.984,3.984,0,0,1,1.63.528,4.3,4.3,0,0,1,1.3,1.21,5.677,5.677,0,0,1,.851,1.869,1.43,1.43,0,0,1,.07.7.458.458,0,0,1-.357.279l-6.592,1.767a5.323,5.323,0,0,0,.677,1.441,3.229,3.229,0,0,0,.9.9,2.489,2.489,0,0,0,1.094.381,3.458,3.458,0,0,0,1.258-.116,3.787,3.787,0,0,0,1.058-.44,5.305,5.305,0,0,0,.719-.537q.295-.268.5-.478a.907.907,0,0,1,.4-.265.479.479,0,0,1,.456.093l.827.631a4.039,4.039,0,0,1-.661,1,5.2,5.2,0,0,1-.89.783,5.984,5.984,0,0,1-1.042.581,7.812,7.812,0,0,1-1.094.385,5.557,5.557,0,0,1-2.073.173,4.548,4.548,0,0,1-1.862-.628,5.019,5.019,0,0,1-1.508-1.44,7.068,7.068,0,0,1-1.011-2.263,5.979,5.979,0,0,1-.2-2.083,4.916,4.916,0,0,1,.535-1.868,4.7,4.7,0,0,1,1.24-1.492A5.174,5.174,0,0,1,665.743,901.719Zm.461,1.559a2.589,2.589,0,0,0-1.671,1.171,3.384,3.384,0,0,0-.349,2.12l5.1-1.367a3.294,3.294,0,0,0-.427-.969,2.454,2.454,0,0,0-.676-.692,2.166,2.166,0,0,0-.9-.342A2.633,2.633,0,0,0,666.2,903.278Z" transform="translate(-649.789 -864.417)" fill="#fff"/>
      <path id="Trazado_213169" data-name="Trazado 213169" d="M703.787,897.5l-2.75-10.262,1.308-.35a.55.55,0,0,1,.674.261l.381.858a6.653,6.653,0,0,1,.426-.745,3.947,3.947,0,0,1,.525-.637,3.445,3.445,0,0,1,.663-.506,3.31,3.31,0,0,1,.831-.341,2.876,2.876,0,0,1,.944-.1,2.4,2.4,0,0,1,.837.206,2.688,2.688,0,0,1,.718.487,3.945,3.945,0,0,1,.606.733,3.349,3.349,0,0,1,.339-1.072,3.257,3.257,0,0,1,.618-.834,3.7,3.7,0,0,1,.825-.6,4.439,4.439,0,0,1,.96-.381,4.062,4.062,0,0,1,1.544-.134,3.027,3.027,0,0,1,1.3.466,3.424,3.424,0,0,1,1.007,1.041,5.611,5.611,0,0,1,.674,1.588l1.75,6.529-2.164.58-1.75-6.529a2.55,2.55,0,0,0-.906-1.51,1.78,1.78,0,0,0-1.531-.177,2.2,2.2,0,0,0-.737.348,1.887,1.887,0,0,0-.523.583,1.979,1.979,0,0,0-.246.794,2.743,2.743,0,0,0,.1.993l1.749,6.529-2.164.58-1.75-6.529a2.6,2.6,0,0,0-.9-1.534,1.711,1.711,0,0,0-1.47-.172,2.21,2.21,0,0,0-1.035.606,3.743,3.743,0,0,0-.721,1.093l2.027,7.566Z" transform="translate(-678.65 -851.492)" fill="#fff"/>
      <path id="Trazado_213170" data-name="Trazado 213170" d="M768.9,887.7l-3.663-13.673,1.308-.35a.551.551,0,0,1,.674.261l.46,1.031a6.817,6.817,0,0,1,.5-.868,4.383,4.383,0,0,1,.637-.742,4.128,4.128,0,0,1,.8-.582,4.3,4.3,0,0,1,.989-.394,3.622,3.622,0,0,1,1.663-.073,3.5,3.5,0,0,1,1.479.688,5.081,5.081,0,0,1,1.221,1.435,8.61,8.61,0,0,1,.879,2.175,7.309,7.309,0,0,1,.261,2.2,5.357,5.357,0,0,1-.425,1.936,4.134,4.134,0,0,1-2.819,2.4,3.595,3.595,0,0,1-2.968-.369l1.164,4.346Zm1.451-13.382a2.819,2.819,0,0,0-1.333.74,4.214,4.214,0,0,0-.833,1.318l1.275,4.759a2.7,2.7,0,0,0,1.211.555,3.033,3.033,0,0,0,1.256-.083,2.432,2.432,0,0,0,1.73-1.455,4.649,4.649,0,0,0-.029-2.947,7.253,7.253,0,0,0-.594-1.572,3.231,3.231,0,0,0-.756-.968,1.846,1.846,0,0,0-.9-.417A2.483,2.483,0,0,0,770.347,874.318Z" transform="translate(-726.129 -842.756)" fill="#fff"/>
      <path id="Trazado_213171" data-name="Trazado 213171" d="M814.833,861.6a5.649,5.649,0,0,1,2.158-.179,4.574,4.574,0,0,1,1.853.636,4.854,4.854,0,0,1,1.446,1.391,7.25,7.25,0,0,1,1.175,4.387,4.909,4.909,0,0,1-.555,1.933,4.534,4.534,0,0,1-1.285,1.482,6.114,6.114,0,0,1-4.126,1.106,4.584,4.584,0,0,1-1.859-.64,4.863,4.863,0,0,1-1.452-1.4,7.255,7.255,0,0,1-1.175-4.387,4.817,4.817,0,0,1,.562-1.93,4.621,4.621,0,0,1,1.292-1.479A5.674,5.674,0,0,1,814.833,861.6Zm2.38,8.884A2.476,2.476,0,0,0,819.032,869a4.617,4.617,0,0,0-.034-2.843,4.668,4.668,0,0,0-1.395-2.489,2.466,2.466,0,0,0-2.32-.386,2.5,2.5,0,0,0-1.841,1.5,4.64,4.64,0,0,0,.031,2.854,4.592,4.592,0,0,0,1.4,2.478A2.513,2.513,0,0,0,817.213,870.485Z" transform="translate(-759.972 -834.724)" fill="#fff"/>
      <path id="Trazado_213172" data-name="Trazado 213172" d="M855.753,861.339,853,851.077l1.258-.337a.71.71,0,0,1,.507,0,.8.8,0,0,1,.3.389l.479,1.306a4.8,4.8,0,0,1,.766-1.85,2.6,2.6,0,0,1,1.491-1,2.57,2.57,0,0,1,.644-.092,1.826,1.826,0,0,1,.584.086l.286,1.67a.418.418,0,0,1-.062.27.375.375,0,0,1-.209.126,2.5,2.5,0,0,1-.448.061,3.2,3.2,0,0,0-.609.1,2.393,2.393,0,0,0-.77.346,1.938,1.938,0,0,0-.521.549,2.744,2.744,0,0,0-.318.743,6.151,6.151,0,0,0-.171.93l1.709,6.379Z" transform="translate(-791.045 -825.929)" fill="#fff"/>
      <path id="Trazado_213173" data-name="Trazado 213173" d="M890.691,852.595a.974.974,0,0,1-.5.031.758.758,0,0,1-.375-.314l-.435-.779a8.247,8.247,0,0,1-.6.842,5.316,5.316,0,0,1-.666.674,4.034,4.034,0,0,1-.8.521,5.369,5.369,0,0,1-1.006.372,3.957,3.957,0,0,1-1.208.141,2.647,2.647,0,0,1-1.07-.269,2.539,2.539,0,0,1-.849-.694,3.076,3.076,0,0,1-.55-1.147,2.415,2.415,0,0,1,.007-1.241,3,3,0,0,1,.776-1.292,7.042,7.042,0,0,1,1.724-1.255,14.49,14.49,0,0,1,2.854-1.121l-.183-.684a2.545,2.545,0,0,0-.915-1.523,1.8,1.8,0,0,0-1.534-.171,3.149,3.149,0,0,0-1,.436,4.875,4.875,0,0,0-.644.534c-.176.176-.33.339-.463.485a.96.96,0,0,1-.471.293.636.636,0,0,1-.409-.014.984.984,0,0,1-.333-.218l-.581-.6a6.085,6.085,0,0,1,3.712-2.731,4.212,4.212,0,0,1,1.652-.135,3.263,3.263,0,0,1,1.374.5,3.707,3.707,0,0,1,1.048,1.051,5.071,5.071,0,0,1,.674,1.529l1.747,6.52Zm-4.135-.337a3.222,3.222,0,0,0,1.369-.707,4.805,4.805,0,0,0,.939-1.228l-.512-1.911a15.78,15.78,0,0,0-1.9.714,5.433,5.433,0,0,0-1.188.717,1.817,1.817,0,0,0-.565.729,1.19,1.19,0,0,0-.034.737,1.551,1.551,0,0,0,.281.588,1.162,1.162,0,0,0,.435.336,1.347,1.347,0,0,0,.548.112A2.383,2.383,0,0,0,886.555,852.258Z" transform="translate(-812.084 -820.909)" fill="#fff"/>
      <path id="Trazado_213174" data-name="Trazado 213174" d="M931.568,826.177a.544.544,0,0,1-.664-.264l-.488-1.055a6.442,6.442,0,0,1-.5.862,4.5,4.5,0,0,1-.639.737,4.13,4.13,0,0,1-.8.581,4.228,4.228,0,0,1-.984.393,3.627,3.627,0,0,1-1.663.074,3.5,3.5,0,0,1-1.479-.687,5.068,5.068,0,0,1-1.221-1.436,8.591,8.591,0,0,1-.879-2.175,7.3,7.3,0,0,1-.262-2.2,5.357,5.357,0,0,1,.427-1.931,4.152,4.152,0,0,1,2.819-2.4,3.6,3.6,0,0,1,2.968.369l-1.48-5.523,2.164-.58,3.99,14.89Zm-3.817-.681a2.827,2.827,0,0,0,1.325-.733,4.264,4.264,0,0,0,.845-1.315l-1.28-4.779a2.8,2.8,0,0,0-1.219-.542,2.983,2.983,0,0,0-1.236.078,2.442,2.442,0,0,0-1.733,1.462,4.624,4.624,0,0,0,.023,2.943,7.248,7.248,0,0,0,.594,1.572,3.233,3.233,0,0,0,.755.968,1.845,1.845,0,0,0,.9.417A2.479,2.479,0,0,0,927.75,825.5Z" transform="translate(-842.062 -797.411)" fill="#fff"/>
      <path id="Trazado_213175" data-name="Trazado 213175" d="M973.127,830.506a.971.971,0,0,1-.5.031.755.755,0,0,1-.375-.314l-.435-.779a8.134,8.134,0,0,1-.605.842,5.3,5.3,0,0,1-.666.674,4.025,4.025,0,0,1-.8.521,5.36,5.36,0,0,1-1.006.372,3.949,3.949,0,0,1-1.208.14,2.643,2.643,0,0,1-1.07-.269,2.538,2.538,0,0,1-.849-.694,3.08,3.08,0,0,1-.55-1.147,2.415,2.415,0,0,1,.007-1.242,3,3,0,0,1,.776-1.292,7.034,7.034,0,0,1,1.724-1.255,14.5,14.5,0,0,1,2.855-1.121l-.183-.684a2.548,2.548,0,0,0-.915-1.523,1.8,1.8,0,0,0-1.534-.171,3.146,3.146,0,0,0-1.005.436,4.871,4.871,0,0,0-.644.534q-.264.265-.463.485a.961.961,0,0,1-.472.294.637.637,0,0,1-.408-.015.986.986,0,0,1-.334-.218l-.581-.6a6.086,6.086,0,0,1,3.712-2.731,4.213,4.213,0,0,1,1.652-.135,3.262,3.262,0,0,1,1.374.5,3.712,3.712,0,0,1,1.048,1.051,5.073,5.073,0,0,1,.674,1.529l1.747,6.519Zm-4.135-.337a3.221,3.221,0,0,0,1.369-.707,4.805,4.805,0,0,0,.938-1.227l-.512-1.912a15.854,15.854,0,0,0-1.9.714,5.442,5.442,0,0,0-1.188.717,1.814,1.814,0,0,0-.565.729,1.193,1.193,0,0,0-.035.737,1.557,1.557,0,0,0,.282.588,1.166,1.166,0,0,0,.435.336,1.352,1.352,0,0,0,.548.112A2.384,2.384,0,0,0,968.991,830.169Z" transform="translate(-873.054 -804.572)" fill="#fff"/>
    </g>
    <g id="Grupo_97104" data-name="Grupo 97104" transform="translate(-9168.977 -11547.968)">
      <path id="Trazado_213176" data-name="Trazado 213176" d="M488.7,1632.18a.43.43,0,0,1,.337.119l1,.912A5.833,5.833,0,0,1,488.06,1635a7.321,7.321,0,0,1-2.956.827,7.083,7.083,0,0,1-2.851-.29,6.18,6.18,0,0,1-2.267-1.305,6.647,6.647,0,0,1-1.56-2.164,8.59,8.59,0,0,1-.731-2.874,8.189,8.189,0,0,1,.25-2.966,6.728,6.728,0,0,1,1.224-2.412,6.417,6.417,0,0,1,2.07-1.68,7.348,7.348,0,0,1,2.777-.778,6.936,6.936,0,0,1,2.749.259,6.724,6.724,0,0,1,2.154,1.143l-.663,1.136a.84.84,0,0,1-.17.2.492.492,0,0,1-.288.1.8.8,0,0,1-.463-.142,7.129,7.129,0,0,0-.674-.347,4.729,4.729,0,0,0-2.482-.371,4.775,4.775,0,0,0-1.825.516,4.025,4.025,0,0,0-1.363,1.158,4.807,4.807,0,0,0-.8,1.733,6.715,6.715,0,0,0-.146,2.239,6.533,6.533,0,0,0,.548,2.193,4.847,4.847,0,0,0,1.117,1.564,4.165,4.165,0,0,0,1.544.9,4.58,4.58,0,0,0,1.828.2,8,8,0,0,0,1.05-.156,4.18,4.18,0,0,0,.841-.282,3.987,3.987,0,0,0,.71-.423,4.729,4.729,0,0,0,.646-.591A.591.591,0,0,1,488.7,1632.18Z" transform="translate(0 -16.304)" fill="#fff"/>
      <path id="Trazado_213177" data-name="Trazado 213177" d="M524.77,1631.9a5.334,5.334,0,0,1,2.04.188,4.328,4.328,0,0,1,1.622.9,4.594,4.594,0,0,1,1.119,1.535,6.861,6.861,0,0,1,.375,4.281,4.647,4.647,0,0,1-.835,1.711,4.291,4.291,0,0,1-1.441,1.17,5.786,5.786,0,0,1-4.027.352,4.329,4.329,0,0,1-1.628-.9,4.6,4.6,0,0,1-1.124-1.539,6.862,6.862,0,0,1-.375-4.281,4.557,4.557,0,0,1,.84-1.706,4.372,4.372,0,0,1,1.447-1.165A5.365,5.365,0,0,1,524.77,1631.9Zm.758,8.669a2.342,2.342,0,0,0,1.939-1.084,4.371,4.371,0,0,0,.436-2.655,4.416,4.416,0,0,0-.891-2.548,2.335,2.335,0,0,0-2.1-.742,2.369,2.369,0,0,0-1.962,1.1,4.392,4.392,0,0,0-.44,2.666,4.346,4.346,0,0,0,.9,2.538A2.377,2.377,0,0,0,525.529,1640.57Z" transform="translate(-29.717 -23.654)" fill="#fff"/>
      <path id="Trazado_213178" data-name="Trazado 213178" d="M558.64,1638l-.876-10.015,1.277-.112a.521.521,0,0,1,.585.354l.214.862a6.327,6.327,0,0,1,.52-.624,3.755,3.755,0,0,1,.594-.507,3.257,3.257,0,0,1,.7-.363,3.16,3.16,0,0,1,.83-.181,2.752,2.752,0,0,1,.9.06,2.274,2.274,0,0,1,.747.33,2.521,2.521,0,0,1,.589.572,3.77,3.77,0,0,1,.445.782,3.172,3.172,0,0,1,.491-.943,3.084,3.084,0,0,1,.713-.676,3.5,3.5,0,0,1,.868-.428,4.229,4.229,0,0,1,.957-.2,3.853,3.853,0,0,1,1.461.129,2.865,2.865,0,0,1,1.135.648,3.241,3.241,0,0,1,.767,1.135,5.3,5.3,0,0,1,.367,1.591l.557,6.372-2.112.184-.557-6.372a2.412,2.412,0,0,0-.6-1.555,1.684,1.684,0,0,0-1.4-.417,2.089,2.089,0,0,0-.744.2,1.777,1.777,0,0,0-.583.457,1.861,1.861,0,0,0-.359.7,2.592,2.592,0,0,0-.071.941l.557,6.372-2.112.185-.558-6.372a2.458,2.458,0,0,0-.583-1.577,1.622,1.622,0,0,0-1.342-.4,2.093,2.093,0,0,0-1.064.4,3.54,3.54,0,0,0-.852.9l.646,7.383Z" transform="translate(-55.813 -20.187)" fill="#fff"/>
      <path id="Trazado_213179" data-name="Trazado 213179" d="M612.724,1637.6l-1.167-13.343,1.277-.112a.521.521,0,0,1,.585.354l.259,1.036a6.466,6.466,0,0,1,.609-.726,4.114,4.114,0,0,1,.715-.587,3.891,3.891,0,0,1,.845-.411,4.067,4.067,0,0,1,.986-.2,3.439,3.439,0,0,1,1.562.2,3.31,3.31,0,0,1,1.265.884,4.8,4.8,0,0,1,.9,1.539,8.135,8.135,0,0,1,.462,2.171,6.909,6.909,0,0,1-.119,2.093,5.075,5.075,0,0,1-.714,1.734,4.028,4.028,0,0,1-1.259,1.219,3.983,3.983,0,0,1-1.763.555,3.405,3.405,0,0,1-2.705-.832l.371,4.241Zm3.551-12.232a2.667,2.667,0,0,0-1.364.471,3.984,3.984,0,0,0-.993,1.091l.406,4.644a2.547,2.547,0,0,0,1.037.715,2.874,2.874,0,0,0,1.184.129,2.3,2.3,0,0,0,1.851-1.072,4.4,4.4,0,0,0,.457-2.751,6.857,6.857,0,0,0-.3-1.562,3.064,3.064,0,0,0-.545-1.026,1.755,1.755,0,0,0-.77-.536A2.351,2.351,0,0,0,616.276,1625.365Z" transform="translate(-93.293 -17.881)" fill="#fff"/>
      <path id="Trazado_213180" data-name="Trazado 213180" d="M649,1631.194l-.876-10.014,1.228-.108a.67.67,0,0,1,.472.083.755.755,0,0,1,.214.411l.232,1.3a4.544,4.544,0,0,1,1.018-1.6,2.459,2.459,0,0,1,1.553-.684,2.425,2.425,0,0,1,.616.02,1.728,1.728,0,0,1,.53.176l-.008,1.6a.4.4,0,0,1-.1.241.354.354,0,0,1-.215.083,2.36,2.36,0,0,1-.427-.017,3.015,3.015,0,0,0-.584,0,2.273,2.273,0,0,0-.774.2,1.834,1.834,0,0,0-.576.427,2.594,2.594,0,0,0-.419.64,5.768,5.768,0,0,0-.313.838l.545,6.225Z" transform="translate(-118.768 -15.776)" fill="#fff"/>
      <path id="Trazado_213181" data-name="Trazado 213181" d="M678.589,1628.747a.921.921,0,0,1-.47-.053.718.718,0,0,1-.3-.355l-.277-.8a7.737,7.737,0,0,1-.7.684,4.966,4.966,0,0,1-.731.519,3.8,3.8,0,0,1-.83.355,5.052,5.052,0,0,1-1,.181,3.747,3.747,0,0,1-1.149-.068,2.5,2.5,0,0,1-.953-.426,2.4,2.4,0,0,1-.678-.787,2.909,2.909,0,0,1-.324-1.159,2.285,2.285,0,0,1,.211-1.156,2.831,2.831,0,0,1,.935-1.076,6.634,6.634,0,0,1,1.813-.886,13.67,13.67,0,0,1,2.845-.576l-.059-.668a2.411,2.411,0,0,0-.6-1.57,1.708,1.708,0,0,0-1.4-.411,2.975,2.975,0,0,0-1.008.242,4.624,4.624,0,0,0-.688.391q-.289.2-.511.376a.913.913,0,0,1-.488.2.6.6,0,0,1-.378-.081.933.933,0,0,1-.275-.258l-.443-.654a5.762,5.762,0,0,1,3.908-1.935,3.981,3.981,0,0,1,1.561.146,3.086,3.086,0,0,1,1.2.691,3.508,3.508,0,0,1,.8,1.152,4.789,4.789,0,0,1,.377,1.535l.556,6.362Zm-3.8-.994a3.04,3.04,0,0,0,1.392-.434,4.552,4.552,0,0,0,1.077-.989l-.163-1.866a15.035,15.035,0,0,0-1.889.353,5.112,5.112,0,0,0-1.225.474,1.716,1.716,0,0,0-.646.585,1.128,1.128,0,0,0-.153.681,1.475,1.475,0,0,0,.166.594,1.113,1.113,0,0,0,.35.385,1.3,1.3,0,0,0,.492.195A2.286,2.286,0,0,0,674.791,1627.753Z" transform="translate(-134.798 -14.516)" fill="#fff"/>
      <path id="Trazado_213182" data-name="Trazado 213182" d="M727.264,1624.488a.926.926,0,0,1-.47-.053.719.719,0,0,1-.3-.355l-.277-.8a7.751,7.751,0,0,1-.7.685,5.018,5.018,0,0,1-.731.519,3.8,3.8,0,0,1-.83.354,5.04,5.04,0,0,1-1,.182,3.752,3.752,0,0,1-1.149-.068,2.506,2.506,0,0,1-.953-.426,2.406,2.406,0,0,1-.677-.786,2.911,2.911,0,0,1-.324-1.159,2.283,2.283,0,0,1,.21-1.156,2.837,2.837,0,0,1,.935-1.076,6.656,6.656,0,0,1,1.813-.885,13.672,13.672,0,0,1,2.844-.575l-.058-.668a2.409,2.409,0,0,0-.6-1.569,1.706,1.706,0,0,0-1.4-.412,2.987,2.987,0,0,0-1.008.242,4.653,4.653,0,0,0-.688.391q-.289.2-.511.376a.909.909,0,0,1-.488.2.6.6,0,0,1-.378-.081.93.93,0,0,1-.275-.258l-.443-.654a5.76,5.76,0,0,1,3.908-1.935,4,4,0,0,1,1.561.145,3.092,3.092,0,0,1,1.2.692,3.516,3.516,0,0,1,.8,1.151,4.8,4.8,0,0,1,.377,1.536l.556,6.362Zm-3.8-.994a3.047,3.047,0,0,0,1.392-.434,4.546,4.546,0,0,0,1.076-.989l-.163-1.866a15,15,0,0,0-1.889.353,5.15,5.15,0,0,0-1.225.473,1.728,1.728,0,0,0-.647.586,1.132,1.132,0,0,0-.153.681,1.469,1.469,0,0,0,.166.594,1.1,1.1,0,0,0,.35.385,1.283,1.283,0,0,0,.492.194A2.245,2.245,0,0,0,723.466,1623.495Z" transform="translate(-168.712 -11.548)" fill="#fff"/>
      <path id="Trazado_213183" data-name="Trazado 213183" d="M752.725,1612.642l-1.271-14.531,2.112-.185.5,5.7a5.337,5.337,0,0,1,1.27-1.1,3.819,3.819,0,0,1,1.686-.519,3.584,3.584,0,0,1,1.473.148,2.906,2.906,0,0,1,1.119.684,3.35,3.35,0,0,1,.749,1.146,5.256,5.256,0,0,1,.351,1.528l.558,6.372-2.1.184-.557-6.372a2.4,2.4,0,0,0-.6-1.531,1.751,1.751,0,0,0-1.468-.435,2.739,2.739,0,0,0-1.283.439,4.507,4.507,0,0,0-1.057.983l.638,7.3Z" transform="translate(-190.765)" fill="#fff"/>
      <path id="Trazado_213184" data-name="Trazado 213184" d="M793.083,1608.425a5.346,5.346,0,0,1,2.04.187,4.328,4.328,0,0,1,1.622.9,4.593,4.593,0,0,1,1.119,1.534,6.861,6.861,0,0,1,.375,4.281,4.641,4.641,0,0,1-.835,1.71,4.288,4.288,0,0,1-1.441,1.17,5.788,5.788,0,0,1-4.027.353,4.34,4.34,0,0,1-1.628-.9,4.6,4.6,0,0,1-1.125-1.539,6.861,6.861,0,0,1-.375-4.281,4.552,4.552,0,0,1,.841-1.706,4.37,4.37,0,0,1,1.447-1.165A5.364,5.364,0,0,1,793.083,1608.425Zm.758,8.669a2.344,2.344,0,0,0,1.939-1.085,4.37,4.37,0,0,0,.435-2.655,4.417,4.417,0,0,0-.891-2.549,2.332,2.332,0,0,0-2.1-.741,2.367,2.367,0,0,0-1.963,1.1,4.392,4.392,0,0,0-.44,2.665,4.343,4.343,0,0,0,.9,2.538A2.377,2.377,0,0,0,793.842,1617.095Z" transform="translate(-216.663 -7.298)" fill="#fff"/>
      <path id="Trazado_213185" data-name="Trazado 213185" d="M826.953,1615.624l-.876-10.014,1.228-.107a.668.668,0,0,1,.472.083.754.754,0,0,1,.214.411l.232,1.3a4.544,4.544,0,0,1,1.018-1.6,2.618,2.618,0,0,1,2.169-.664,1.712,1.712,0,0,1,.53.177l-.008,1.6a.4.4,0,0,1-.1.241.354.354,0,0,1-.215.083,2.37,2.37,0,0,1-.427-.017,3.066,3.066,0,0,0-.584,0,2.255,2.255,0,0,0-.774.2,1.831,1.831,0,0,0-.577.426,2.592,2.592,0,0,0-.419.641,5.763,5.763,0,0,0-.313.838l.545,6.225Z" transform="translate(-242.759 -4.928)" fill="#fff"/>
      <path id="Trazado_213186" data-name="Trazado 213186" d="M856.547,1613.177a.915.915,0,0,1-.469-.053.715.715,0,0,1-.3-.355l-.277-.8a7.727,7.727,0,0,1-.7.685,5.058,5.058,0,0,1-.731.519,3.831,3.831,0,0,1-.83.354,5.067,5.067,0,0,1-1,.181,3.74,3.74,0,0,1-1.149-.068,2.5,2.5,0,0,1-.953-.426,2.4,2.4,0,0,1-.677-.787,2.914,2.914,0,0,1-.324-1.158,2.285,2.285,0,0,1,.211-1.156,2.837,2.837,0,0,1,.935-1.076,6.66,6.66,0,0,1,1.813-.886,13.689,13.689,0,0,1,2.844-.575l-.059-.668a2.411,2.411,0,0,0-.6-1.57,1.707,1.707,0,0,0-1.4-.411,2.978,2.978,0,0,0-1.008.242,4.642,4.642,0,0,0-.688.391q-.289.2-.511.376a.912.912,0,0,1-.488.2.6.6,0,0,1-.378-.081.93.93,0,0,1-.275-.258l-.443-.654a5.76,5.76,0,0,1,3.908-1.935,3.981,3.981,0,0,1,1.561.145,3.092,3.092,0,0,1,1.2.692,3.5,3.5,0,0,1,.8,1.152,4.8,4.8,0,0,1,.377,1.535l.557,6.362Zm-3.8-.993a3.056,3.056,0,0,0,1.392-.433,4.558,4.558,0,0,0,1.076-.99l-.163-1.866a15.023,15.023,0,0,0-1.889.354,5.122,5.122,0,0,0-1.225.473,1.719,1.719,0,0,0-.647.586,1.127,1.127,0,0,0-.153.681,1.463,1.463,0,0,0,.166.594,1.1,1.1,0,0,0,.35.385,1.283,1.283,0,0,0,.492.194A2.273,2.273,0,0,0,852.749,1612.184Z" transform="translate(-258.789 -3.668)" fill="#fff"/>
    </g>
  </g>
</svg>
