<svg xmlns="http://www.w3.org/2000/svg" width="258.933" height="259.876" viewBox="0 0 258.933 259.876">
  <g id="Grupo_97378" data-name="Grupo 97378" transform="translate(-27.503 -23.886)">
    <g id="Background_Complete" data-name="Background Complete" transform="translate(39.442 23.886)">
      <g id="Grupo_97269" data-name="Grupo 97269" transform="translate(31.481 19.785)">
        <path id="Trazado_213505" data-name="Trazado 213505" d="M122,97.763h0a19.955,19.955,0,0,1-19.955-19.955h0A19.955,19.955,0,0,1,122,57.853h0a19.955,19.955,0,0,1,19.955,19.955h0A19.955,19.955,0,0,1,122,97.763Z" transform="translate(-102.047 -57.853)" fill="#ebebeb"/>
        <g id="Grupo_97268" data-name="Grupo 97268" transform="translate(10.51 8.836)">
          <g id="Grupo_97267" data-name="Grupo 97267">
            <rect id="Rectángulo_40526" data-name="Rectángulo 40526" width="4.13" height="13.342" transform="translate(0.397 6.671)" fill="#fff"/>
            <path id="Trazado_213506" data-name="Trazado 213506" d="M122.532,77.946a2.462,2.462,0,1,0-2.442-2.463A2.452,2.452,0,0,0,122.532,77.946Z" transform="translate(-120.09 -73.022)" fill="#fff"/>
          </g>
          <path id="Trazado_213507" data-name="Trazado 213507" d="M136.356,90.522c0-1.876.863-2.993,2.516-2.993,1.518,0,2.248,1.073,2.248,2.993v7h4.11V89.078c0-3.574-2.026-5.3-4.854-5.3a4.652,4.652,0,0,0-4.021,2.2v-1.8H132.4V97.525h3.961Z" transform="translate(-125.228 -77.512)" fill="#fff"/>
        </g>
      </g>
      <path id="Trazado_213508" data-name="Trazado 213508" d="M176.68,23.886l2.733,5,5,2.732-5,2.733-2.733,5-2.733-5-5-2.733,5-2.732Z" transform="translate(-98.501 -23.886)" fill="#f5f5f5"/>
      <path id="Trazado_213509" data-name="Trazado 213509" d="M373.715,256.273l2.049,3.747,3.747,2.049-3.747,2.049-2.049,3.747-2.049-3.747-3.747-2.049,3.747-2.049Z" transform="translate(-181.575 -120.914)" fill="#ebebeb"/>
      <path id="Trazado_213510" data-name="Trazado 213510" d="M385.947,224.508l.925,1.691,1.691.925-1.691.925-.925,1.691-.925-1.691-1.691-.925,1.691-.925Z" transform="translate(-188.01 -107.651)" fill="#e0e0e0"/>
      <path id="Trazado_213511" data-name="Trazado 213511" d="M146.839,27.112l.925,1.691,1.691.925-1.691.925-.925,1.691-.925-1.691-1.691-.925,1.691-.925Z" transform="translate(-88.176 -25.233)" fill="#e0e0e0"/>
      <g id="Grupo_97271" data-name="Grupo 97271" transform="translate(0 147.31)">
        <g id="Grupo_97270" data-name="Grupo 97270">
          <path id="Trazado_213512" data-name="Trazado 213512" d="M60.309,288.422a6.041,6.041,0,0,0,3.527-5.635,5.677,5.677,0,1,0-11.331.094,6.031,6.031,0,0,0,3.683,5.594c-8.7,1.426-8.183,10.9-8.183,10.9l20.617-.172S68.968,289.614,60.309,288.422Z" transform="translate(-48 -276.792)" fill="#e0e0e0"/>
        </g>
      </g>
      <g id="Grupo_97272" data-name="Grupo 97272" transform="translate(197.345 218.779)">
        <path id="Trazado_213513" data-name="Trazado 213513" d="M399.521,402.081a3.209,3.209,0,0,0-6.329.188,3.209,3.209,0,0,0-6.33-.133,4.332,4.332,0,0,0,.778,3.126,12.9,12.9,0,0,0,2.263,2.392c1.152,1.025,2.217,1.989,3.369,3.014,1.143-1.035,2.115-2.008,3.258-3.043a12.837,12.837,0,0,0,2.242-2.412A4.331,4.331,0,0,0,399.521,402.081Z" transform="translate(-386.806 -399.49)" fill="#ebebeb"/>
      </g>
      <g id="Grupo_97275" data-name="Grupo 97275" transform="translate(216.923 86.021)">
        <g id="Grupo_97273" data-name="Grupo 97273" transform="translate(6.564)">
          <path id="Trazado_213514" data-name="Trazado 213514" d="M431.688,184.139l2.209-.438,3.489-7.675-.875-4.41s3.373-.887,4.116,4.967.887,4.3.887,4.3,7.256-1.41,7.983-.9c.529.37,2.155,7.533,3.006,11.424a4.312,4.312,0,0,1-2.152,4.854,3.247,3.247,0,0,1-.76.26c-1.809.359-11.34.721-11.34.721l-3.816.757Z" transform="translate(-431.688 -171.569)" fill="#e0e0e0"/>
        </g>
        <g id="Grupo_97274" data-name="Grupo 97274" transform="translate(0 11.899)">
          <path id="Trazado_213515" data-name="Trazado 213515" d="M420.418,192.712l4.355,14.84,3.783-.75L425.621,192Z" transform="translate(-420.418 -191.997)" fill="#e0e0e0"/>
        </g>
      </g>
    </g>
    <g id="Floor" transform="translate(27.503 283.189)">
      <g id="Grupo_97276" data-name="Grupo 97276">
        <path id="Trazado_213516" data-name="Trazado 213516" d="M285.518,469.214c0,.084-57.763.151-129,.151-71.263,0-129.014-.068-129.014-.151s57.751-.151,129.014-.151C227.755,469.063,285.518,469.131,285.518,469.214Z" transform="translate(-27.503 -469.063)" fill="#263238"/>
      </g>
    </g>
    <g id="Icons" transform="translate(39.595 71.699)">
      <g id="Grupo_97277" data-name="Grupo 97277" transform="translate(167.029 0)">
        <path id="Trazado_213517" data-name="Trazado 213517" d="M369.045,150.926h0A23.666,23.666,0,0,1,337.411,140h0a23.666,23.666,0,0,1,10.931-31.633h0a23.667,23.667,0,0,1,31.633,10.931h0A23.667,23.667,0,0,1,369.045,150.926Z" transform="translate(-335.022 -105.973)" fill="#e8505b"/>
        <path id="Trazado_213518" data-name="Trazado 213518" d="M360.91,141.8a.556.556,0,0,0,.55-.716c-.058-.287-.211-1.007-.271-1.309-.08-.412-.179-.521-.6-.707a4.662,4.662,0,0,1-2.343-2.382,7.646,7.646,0,0,1,3.766-10.43c3.9-1.9,7.2-.556,8.747,2.627,2.036,4.186,1.9,8.619-.849,9.957a2.5,2.5,0,0,1-3.652-1.681c-.457-2.053-.578-4.448-1.224-5.776a2.162,2.162,0,0,0-3.018-1.227c-1.553.755-2.019,2.968-.973,5.12a6.214,6.214,0,0,0,1.581,2.072s1.686,7.506,1.98,8.82a18.084,18.084,0,0,0,2.64,5.538.215.215,0,0,0,.386-.084,17.216,17.216,0,0,0,.309-6.026c-.135-.732-.919-4.487-.919-4.487a4.628,4.628,0,0,0,4.426.084c4.668-2.27,5.765-8.065,2.995-13.76-2.095-4.307-7.692-6.543-13.237-3.847-6.9,3.355-7.971,9.992-5.965,14.117C356.453,140.193,358.48,141.955,360.91,141.8Z" transform="translate(-343.087 -112.834)" fill="#fff"/>
      </g>
      <g id="Grupo_97279" data-name="Grupo 97279" transform="translate(214.188 80.134)">
        <path id="Trazado_213519" data-name="Trazado 213519" d="M426.486,275.122h0a16.323,16.323,0,0,1-9.421-21.073h0a16.323,16.323,0,0,1,21.073-9.421h0a16.323,16.323,0,0,1,9.422,21.073h0A16.322,16.322,0,0,1,426.486,275.122Z" transform="translate(-415.985 -243.548)" fill="#e8505b"/>
        <g id="Grupo_97278" data-name="Grupo 97278" transform="translate(4.767 7.435)">
          <path id="Trazado_213520" data-name="Trazado 213520" d="M444.25,267.975a8.792,8.792,0,0,0-16.354-6.421c-.049.118-.1.235-.144.355a8.66,8.66,0,0,0-.432,4.659l-3.151,3.805,5.1.292a8.8,8.8,0,0,0,14.9-2.481C444.2,268.115,444.227,268.046,444.25,267.975Zm-10.9,3.922a7.361,7.361,0,0,1-3.365-2.585l-2.975-.168,1.833-2.216a7.26,7.26,0,0,1,.221-4.519,6.815,6.815,0,0,1,.288-.652,7.394,7.394,0,0,1,13.7,5.385c-.052.183-.112.362-.181.543A7.37,7.37,0,0,1,433.345,271.9Z" transform="translate(-424.169 -256.312)" fill="#fff" fill-rule="evenodd"/>
          <path id="Trazado_213521" data-name="Trazado 213521" d="M445.054,270.934c-.165-.178-.969-1.04-1.128-1.175s-.281-.222-.492-.073-.771.45-.937.536-.291.06-.457-.118a5.842,5.842,0,0,1-1.24-1.61,6.4,6.4,0,0,1-.591-1.808c-.039-.243.106-.312.244-.373s.289-.158.437-.234l.109-.069a2.351,2.351,0,0,0,.218-.19.385.385,0,0,0,.118-.355c-.012-.119-.04-1.258-.056-1.722s-.208-.458-.327-.5-.242-.114-.377-.166a.8.8,0,0,0-.634.044,2.4,2.4,0,0,0-1.341,1.4,2.721,2.721,0,0,0-.157.721,4.848,4.848,0,0,0,.19,1.658,8.841,8.841,0,0,0,2.283,4.331c1.745,1.579,1.846,1.313,2.229,1.42a2.15,2.15,0,0,0,1.72-.431,1.764,1.764,0,0,0,.482-.9C445.331,271.212,445.215,271.111,445.054,270.934Z" transform="translate(-430.125 -259.116)" fill="#fff" fill-rule="evenodd"/>
        </g>
      </g>
      <g id="Grupo_97280" data-name="Grupo 97280" transform="translate(0 11.376)">
        <path id="Trazado_213522" data-name="Trazado 213522" d="M60.709,150.4h0A12.447,12.447,0,0,1,48.263,137.95h0A12.446,12.446,0,0,1,60.709,125.5h0A12.447,12.447,0,0,1,73.156,137.95h0A12.447,12.447,0,0,1,60.709,150.4Z" transform="translate(-48.263 -125.504)" fill="#e8505b"/>
        <path id="Trazado_213523" data-name="Trazado 213523" d="M58.246,147.176A7.739,7.739,0,0,0,70.151,140.3a5.516,5.516,0,0,0,1.358-1.408,5.434,5.434,0,0,1-1.563.428,2.728,2.728,0,0,0,1.2-1.505,5.467,5.467,0,0,1-1.728.661,2.723,2.723,0,0,0-4.637,2.482,7.722,7.722,0,0,1-5.608-2.844,2.725,2.725,0,0,0,.842,3.633,2.706,2.706,0,0,1-1.233-.341,2.723,2.723,0,0,0,2.183,2.7,2.724,2.724,0,0,1-1.228.047,2.722,2.722,0,0,0,2.541,1.89A5.467,5.467,0,0,1,58.246,147.176Z" transform="translate(-52.431 -130.563)" fill="#fff"/>
      </g>
      <g id="Grupo_97282" data-name="Grupo 97282" transform="translate(8.404 133.402)">
        <path id="Trazado_213524" data-name="Trazado 213524" d="M89.1,377.295h0A21.437,21.437,0,0,1,63.279,361.41h0a21.437,21.437,0,0,1,15.886-25.822h0a21.437,21.437,0,0,1,25.822,15.886h0A21.437,21.437,0,0,1,89.1,377.295Z" transform="translate(-62.691 -335)" fill="#455a64"/>
        <g id="Grupo_97281" data-name="Grupo 97281" transform="translate(8.755 8.755)">
          <path id="Trazado_213525" data-name="Trazado 213525" d="M88.176,353.344c3.053-.727,3.417-.8,4.636-1.034a6.515,6.515,0,0,1,2.217-.112,3.894,3.894,0,0,1,2.687,1.653,6.526,6.526,0,0,1,.9,2.029c.342,1.193.44,1.552,1.167,4.6s.8,3.417,1.034,4.636a6.517,6.517,0,0,1,.112,2.217,3.891,3.891,0,0,1-1.653,2.686,6.5,6.5,0,0,1-2.029.9c-1.193.342-1.551.44-4.6,1.167s-3.418.8-4.636,1.034a6.491,6.491,0,0,1-2.217.111,3.89,3.89,0,0,1-2.687-1.652,6.512,6.512,0,0,1-.9-2.029c-.342-1.193-.44-1.552-1.167-4.6s-.8-3.417-1.034-4.636a6.511,6.511,0,0,1-.112-2.217,3.894,3.894,0,0,1,1.653-2.687,6.512,6.512,0,0,1,2.029-.9c1.192-.342,1.552-.44,4.6-1.168m-.49-2.06c-3.106.74-3.492.846-4.7,1.192a8.618,8.618,0,0,0-2.648,1.193,6,6,0,0,0-2.547,4.141,8.612,8.612,0,0,0,.129,2.9c.235,1.233.315,1.625,1.054,4.73s.846,3.492,1.192,4.7a8.617,8.617,0,0,0,1.193,2.649,6.009,6.009,0,0,0,4.14,2.548,8.649,8.649,0,0,0,2.9-.13c1.233-.235,1.625-.315,4.73-1.054s3.491-.846,4.7-1.192a8.623,8.623,0,0,0,2.648-1.193,6.008,6.008,0,0,0,2.548-4.141,8.646,8.646,0,0,0-.13-2.9c-.235-1.233-.315-1.625-1.054-4.73s-.846-3.492-1.192-4.7a8.623,8.623,0,0,0-1.193-2.648,6.008,6.008,0,0,0-4.141-2.548,8.645,8.645,0,0,0-2.9.13c-1.233.235-1.625.315-4.73,1.054" transform="translate(-77.722 -350.031)" fill="#fff"/>
          <path id="Trazado_213526" data-name="Trazado 213526" d="M93.777,361.613a6.036,6.036,0,1,0,7.27,4.473,6.035,6.035,0,0,0-7.27-4.473m2.307,9.682a3.918,3.918,0,1,1,2.9-4.719,3.918,3.918,0,0,1-2.9,4.719" transform="translate(-82.489 -354.798)" fill="#fff"/>
          <path id="Trazado_213527" data-name="Trazado 213527" d="M107.846,357.5a1.411,1.411,0,1,1-1.7-1.046,1.411,1.411,0,0,1,1.7,1.046" transform="translate(-89.137 -352.696)" fill="#fff"/>
        </g>
      </g>
      <g id="Grupo_97283" data-name="Grupo 97283" transform="translate(187.195 136.836)">
        <path id="Trazado_213528" data-name="Trazado 213528" d="M379.641,360.89h0a10,10,0,0,1-10-10h0a10,10,0,0,1,10-10h0a10,10,0,0,1,10,10h0A10,10,0,0,1,379.641,360.89Z" transform="translate(-369.644 -340.895)" fill="#455a64"/>
        <path id="Trazado_213529" data-name="Trazado 213529" d="M383.284,359.77h2.434v-6.094h1.7l.181-2.04h-1.879v-1.162c0-.481.1-.671.562-.671H387.6v-2.118h-1.685c-1.811,0-2.628.8-2.628,2.324v1.627h-1.266V353.7h1.266Z" transform="translate(-374.81 -343.73)" fill="#fff"/>
      </g>
    </g>
    <g id="Device" transform="translate(104.891 47.372)">
      <g id="Grupo_97349" data-name="Grupo 97349">
        <g id="Grupo_97348" data-name="Grupo 97348">
          <g id="Grupo_97343" data-name="Grupo 97343">
            <g id="Grupo_97291" data-name="Grupo 97291">
              <g id="Grupo_97290" data-name="Grupo 97290">
                <g id="Grupo_97286" data-name="Grupo 97286">
                  <g id="Grupo_97285" data-name="Grupo 97285">
                    <g id="Grupo_97284" data-name="Grupo 97284">
                      <path id="Trazado_213530" data-name="Trazado 213530" d="M258.165,300.6l-80.315-.047a17.5,17.5,0,0,1-17.485-17.5L160.4,81.7A17.5,17.5,0,0,1,177.91,64.207l80.316.048a17.5,17.5,0,0,1,17.485,17.5l-.04,201.352A17.494,17.494,0,0,1,258.165,300.6Z" transform="translate(-160.365 -64.207)" fill="#263238"/>
                    </g>
                  </g>
                </g>
                <g id="Grupo_97289" data-name="Grupo 97289" transform="translate(5.322 7.122)">
                  <g id="Grupo_97288" data-name="Grupo 97288">
                    <g id="Grupo_97287" data-name="Grupo 97287">
                      <path id="Trazado_213531" data-name="Trazado 213531" d="M261.955,76.482l-15.572-.009a3.868,3.868,0,0,0-3.781,3.95v2.825a3.868,3.868,0,0,1-3.781,3.95l-30.353-.018a3.871,3.871,0,0,1-3.78-3.955V80.4a3.872,3.872,0,0,0-3.781-3.955l-5.476,0L181.8,76.435a12.252,12.252,0,0,0-12.26,12.25L169.5,285.219a12.253,12.253,0,0,0,12.245,12.256l80.155.047a12.252,12.252,0,0,0,12.259-12.25L274.2,88.737A12.252,12.252,0,0,0,261.955,76.482Z" transform="translate(-169.502 -76.435)" fill="#fff"/>
                    </g>
                  </g>
                </g>
              </g>
            </g>
            <g id="Grupo_97301" data-name="Grupo 97301" transform="translate(89.901 23.071)">
              <g id="Grupo_97294" data-name="Grupo 97294">
                <g id="Grupo_97293" data-name="Grupo 97293">
                  <g id="Grupo_97292" data-name="Grupo 97292">
                    <path id="Trazado_213532" data-name="Trazado 213532" d="M323.755,103.88c0,.052-2.024.112-4.522.133s-4.523-.005-4.524-.058,2.024-.112,4.523-.133S323.755,103.827,323.755,103.88Z" transform="translate(-314.709 -103.815)" fill="#263238"/>
                  </g>
                </g>
              </g>
              <g id="Grupo_97297" data-name="Grupo 97297" transform="translate(0.019 2.315)">
                <g id="Grupo_97296" data-name="Grupo 97296">
                  <g id="Grupo_97295" data-name="Grupo 97295">
                    <path id="Trazado_213533" data-name="Trazado 213533" d="M323.788,107.854c0,.052-2.025.112-4.522.133s-4.523-.006-4.524-.058,2.024-.112,4.522-.133S323.788,107.8,323.788,107.854Z" transform="translate(-314.742 -107.789)" fill="#263238"/>
                  </g>
                </g>
              </g>
              <g id="Grupo_97300" data-name="Grupo 97300" transform="translate(0.038 4.629)">
                <g id="Grupo_97299" data-name="Grupo 97299">
                  <g id="Grupo_97298" data-name="Grupo 97298">
                    <path id="Trazado_213534" data-name="Trazado 213534" d="M323.821,111.827c0,.053-2.025.112-4.522.133s-4.524-.005-4.524-.058,2.024-.112,4.522-.133S323.821,111.775,323.821,111.827Z" transform="translate(-314.775 -111.763)" fill="#263238"/>
                  </g>
                </g>
              </g>
            </g>
            <g id="Grupo_97304" data-name="Grupo 97304" transform="translate(13.657 20.479)">
              <g id="Grupo_97303" data-name="Grupo 97303">
                <g id="Grupo_97302" data-name="Grupo 97302">
                  <path id="Trazado_213535" data-name="Trazado 213535" d="M183.932,108.909a1.857,1.857,0,0,1,.237-.016l.659-.022,2.435-.058-.068.069q-.013-.81-.029-1.765c0-.328-.028-.637,0-1.016a.936.936,0,0,1,.817-.75c.392-.008.737-.026,1.163-.006a.945.945,0,0,1,.8.94c.009.823.019,1.683.029,2.575l-.113-.111,3.071-.031-.116.119c-.011-1.237-.023-2.516-.034-3.826q0-.49-.008-.974a.992.992,0,0,0-.432-.726L191,101.986l-1.295-1.278-.628-.62c-.216-.208-.385-.423-.635-.474a.827.827,0,0,0-.7.135c-.186.157-.384.38-.571.562l-1.1,1.111c-.693.72-1.415,1.378-1.94,2a2.171,2.171,0,0,0-.154,1.146q0,.571,0,1.082-.006,1-.011,1.743c-.005.445-.009.813-.012,1.114a3.955,3.955,0,0,1-.015.4,2.92,2.92,0,0,1-.021-.369c-.008-.3-.019-.659-.031-1.1q-.017-.753-.04-1.757-.01-.522-.02-1.1,0-.294-.009-.6a1.278,1.278,0,0,1,.169-.643c.568-.7,1.246-1.312,1.944-2.053l1.093-1.12c.2-.193.358-.386.593-.587a1.043,1.043,0,0,1,.89-.175,1.658,1.658,0,0,1,.737.527l.63.617,1.3,1.274,1.345,1.32a2.558,2.558,0,0,1,.343.372,1.006,1.006,0,0,1,.161.518q0,.487.009.979c.01,1.311.02,2.59.029,3.827v.118h-.118l-3.071.02h-.112v-.112c0-.891-.009-1.751-.013-2.575a.741.741,0,0,0-.62-.746c-.354-.019-.77-.006-1.114,0a.754.754,0,0,0-.662.6c-.03.309-.007.669-.013.981q0,.954,0,1.765v.069h-.068l-2.475-.017-.644-.011A1.209,1.209,0,0,1,183.932,108.909Z" transform="translate(-183.811 -99.366)" fill="#263238"/>
                </g>
              </g>
            </g>
            <g id="Grupo_97323" data-name="Grupo 97323" transform="translate(11.714 176.461)">
              <g id="Grupo_97309" data-name="Grupo 97309" transform="translate(33.63 6.983)">
                <g id="Grupo_97308" data-name="Grupo 97308">
                  <g id="Grupo_97305" data-name="Grupo 97305">
                    <path id="Trazado_213536" data-name="Trazado 213536" d="M259.628,379.3a4.457,4.457,0,0,1-.842.059l-2.295.048c-1.938.027-4.615.044-7.572.044s-5.635-.017-7.572-.044l-2.295-.048a4.456,4.456,0,0,1-.842-.059,4.5,4.5,0,0,1,.842-.059l2.295-.048c1.937-.027,4.615-.044,7.572-.044s5.634.017,7.572.044l2.295.048A4.505,4.505,0,0,1,259.628,379.3Z" transform="translate(-238.211 -379.146)" fill="#455a64"/>
                  </g>
                  <g id="Grupo_97306" data-name="Grupo 97306" transform="translate(0 5.269)">
                    <path id="Trazado_213537" data-name="Trazado 213537" d="M293.29,388.343c0,.084-12.331.151-27.538.151s-27.54-.068-27.54-.151,12.328-.151,27.54-.151S293.29,388.26,293.29,388.343Z" transform="translate(-238.211 -388.192)" fill="#455a64"/>
                  </g>
                  <g id="Grupo_97307" data-name="Grupo 97307" transform="translate(0 10.225)">
                    <path id="Trazado_213538" data-name="Trazado 213538" d="M276.078,396.853c0,.083-8.477.151-18.932.151s-18.934-.068-18.934-.151,8.476-.152,18.934-.152S276.078,396.769,276.078,396.853Z" transform="translate(-238.211 -396.701)" fill="#455a64"/>
                  </g>
                </g>
              </g>
              <g id="Grupo_97310" data-name="Grupo 97310" transform="translate(86.456 22.003)">
                <path id="Trazado_213539" data-name="Trazado 213539" d="M332.245,409.939l-1.711-1.717-1.629,1.625.008-4.913,3.34.005Zm-1.711-1.93.054.054,1.506,1.511.007-4.483-3.038,0-.007,4.4Z" transform="translate(-328.905 -404.934)" fill="#263238"/>
              </g>
              <g id="Grupo_97311" data-name="Grupo 97311" transform="translate(41.152 22.983)">
                <path id="Trazado_213540" data-name="Trazado 213540" d="M254.2,410l-.6-.269a1.654,1.654,0,1,1,.882-1.453,1.672,1.672,0,0,1-.418,1.118Zm-1.411-3.271a1.563,1.563,0,1,0,.025,3.125,1.611,1.611,0,0,0,.752-.237l.025-.015.446.2-.1-.438.02-.022a1.56,1.56,0,0,0-1.167-2.612Z" transform="translate(-251.126 -406.616)" fill="#263238"/>
              </g>
              <g id="Grupo_97312" data-name="Grupo 97312" transform="translate(46.121 23.213)">
                <path id="Trazado_213541" data-name="Trazado 213541" d="M261.647,409.907l-.693-1.689-1.3-1.183,3.148-.025Zm-1.7-2.759,1.106,1.015.589,1.439.989-2.475Z" transform="translate(-259.657 -407.01)" fill="#263238"/>
              </g>
              <g id="Grupo_97313" data-name="Grupo 97313" transform="translate(47.49 23.212)">
                <rect id="Rectángulo_40527" data-name="Rectángulo 40527" width="2.048" height="0.115" transform="translate(0 1.117) rotate(-33.054)" fill="#263238"/>
              </g>
              <g id="Grupo_97314" data-name="Grupo 97314" transform="translate(35.418 22.808)">
                <path id="Trazado_213542" data-name="Trazado 213542" d="M245.139,407.1a2.156,2.156,0,0,1-2.861-.767,1.006,1.006,0,0,0-.981.8,1.314,1.314,0,0,0,.239.948,3.91,3.91,0,0,0,.689.723c.351.31.675.6,1.026.911.345-.315.64-.612.985-.927a3.873,3.873,0,0,0,.678-.734A1.318,1.318,0,0,0,245.139,407.1Z" transform="translate(-241.281 -406.316)" fill="#e8505b"/>
              </g>
              <g id="Grupo_97315" data-name="Grupo 97315">
                <path id="Trazado_213543" data-name="Trazado 213543" d="M273.779,398.512s-.007-.189-.01-.548-.006-.9-.01-1.594c-.006-1.406-.014-3.473-.024-6.15-.013-5.353-.031-13.142-.055-22.912l.1.1-93.147.052h-.006l.152-.152c0,10.844,0,21.363-.005,31.2l-.147-.147,66.655.068,19.457.041,5.222.019,1.353.009c.305,0,.466.009.466.009s-.148.006-.447.009l-1.336.009-5.19.019-19.424.041-66.755.068h-.147v-.147c0-9.84,0-20.359,0-31.2v-.151h.157l93.147.052h.1v.1c-.023,9.8-.042,17.6-.055,22.972-.01,2.668-.019,4.727-.024,6.127q-.007,1.034-.01,1.576C273.786,398.337,273.779,398.512,273.779,398.512Z" transform="translate(-180.475 -367.158)" fill="#263238"/>
              </g>
              <g id="Grupo_97322" data-name="Grupo 97322" transform="translate(3.754 5.228)">
                <g id="Grupo_97319" data-name="Grupo 97319">
                  <g id="Grupo_97318" data-name="Grupo 97318">
                    <g id="Grupo_97317" data-name="Grupo 97317">
                      <rect id="Rectángulo_40528" data-name="Rectángulo 40528" width="20.629" height="25.803" transform="matrix(0.006, -1, 1, 0.006, 0.154, 20.766)" fill="#ebebeb"/>
                      <g id="Grupo_97316" data-name="Grupo 97316">
                        <path id="Trazado_213544" data-name="Trazado 213544" d="M212.994,376.418a1.018,1.018,0,0,1-.129.007l-.366.006-1.408.008-5.291.006-18.609-.038.136-.135c-.03,6.142-.065,13.18-.1,20.627.032.036-.283-.287-.146-.151h.44l.447,0,.889.005,1.766.01,3.477.021,6.694.043,12.085.087-.127.125c.062-6.194.114-11.333.15-14.941.024-1.794.043-3.207.057-4.188q.013-.711.02-1.11c.006-.252.016-.389.016-.389s.009.119.012.362q0,.391.008,1.086c0,.974.005,2.378.009,4.16-.005,3.627-.012,8.794-.02,15.021v.126h-.127l-12.084-.05-6.695-.033-3.477-.019-1.766-.01-.889,0-.447,0-.223,0h-.217c.133.136-.189-.185-.156-.154.048-7.448.094-14.485.133-20.626v-.136h.136l18.7.174,5.26.066,1.382.024.351.01A.5.5,0,0,1,212.994,376.418Z" transform="translate(-186.92 -376.134)" fill="#263238"/>
                      </g>
                    </g>
                  </g>
                </g>
                <rect id="Rectángulo_40529" data-name="Rectángulo 40529" width="18.032" height="23.991" transform="matrix(0.006, -1, 1, 0.006, 1.051, 19.472)" fill="#e0e0e0"/>
                <path id="Trazado_213545" data-name="Trazado 213545" d="M188.725,401.564l8.443-11.161,5.151,7.042,3.542-3.729,6.855,7.984Z" transform="translate(-187.673 -382.092)" fill="#f5f5f5"/>
                <g id="Grupo_97321" data-name="Grupo 97321" transform="translate(13.118 5.081)">
                  <g id="Grupo_97320" data-name="Grupo 97320">
                    <path id="Trazado_213546" data-name="Trazado 213546" d="M213.219,386.756a1.889,1.889,0,1,1-1.878-1.9A1.89,1.89,0,0,1,213.219,386.756Z" transform="translate(-209.441 -384.857)" fill="#f5f5f5"/>
                  </g>
                </g>
              </g>
            </g>
            <g id="Grupo_97338" data-name="Grupo 97338" transform="translate(15.455 43.947)">
              <g id="Grupo_97333" data-name="Grupo 97333">
                <g id="Grupo_97326" data-name="Grupo 97326" transform="translate(16.676 4.052)">
                  <g id="Grupo_97325" data-name="Grupo 97325">
                    <g id="Grupo_97324" data-name="Grupo 97324">
                      <path id="Trazado_213547" data-name="Trazado 213547" d="M242.647,146.763a.951.951,0,0,1-.276.031l-.79.029-2.906.048c-2.454.028-5.844.045-9.588.045s-7.135-.017-9.589-.045l-2.905-.048-.79-.029a.952.952,0,0,1-.276-.031.971.971,0,0,1,.276-.03l.79-.029,2.905-.048c2.454-.027,5.845-.044,9.589-.044s7.134.017,9.588.044l2.906.048.79.029A.971.971,0,0,1,242.647,146.763Z" transform="translate(-215.527 -146.612)" fill="#263238"/>
                    </g>
                  </g>
                </g>
                <g id="Grupo_97332" data-name="Grupo 97332" transform="translate(0 110.463)">
                  <g id="Grupo_97327" data-name="Grupo 97327" transform="translate(76.951 0.34)">
                    <path id="Trazado_213548" data-name="Trazado 213548" d="M323.973,337.322l-2.543-2.551-2.422,2.415.012-7.3,4.964.008Zm-2.542-2.868.079.079,2.239,2.247.01-6.662-4.515-.007-.01,6.535Z" transform="translate(-319.009 -329.885)" fill="#263238"/>
                  </g>
                  <g id="Grupo_97328" data-name="Grupo 97328" transform="translate(11.288 0.344)">
                    <path id="Trazado_213549" data-name="Trazado 213549" d="M212.333,336.557l-1.189-.53a3.256,3.256,0,1,1,1.736-2.86,3.29,3.29,0,0,1-.822,2.2Zm-2.779-6.439a3.076,3.076,0,1,0,.05,6.151,3.17,3.17,0,0,0,1.481-.467l.049-.027.876.391-.2-.861.04-.044a3.072,3.072,0,0,0-2.3-5.143Z" transform="translate(-206.277 -329.892)" fill="#263238"/>
                  </g>
                  <g id="Grupo_97329" data-name="Grupo 97329" transform="translate(21.069 0.796)">
                    <path id="Trazado_213550" data-name="Trazado 213550" d="M226.986,336.371l-1.362-3.325-2.555-2.328,6.2-.049Zm-3.339-5.432,2.176,2,1.16,2.833,1.947-4.872Z" transform="translate(-223.069 -330.668)" fill="#263238"/>
                  </g>
                  <g id="Grupo_97330" data-name="Grupo 97330" transform="translate(23.762 0.796)">
                    <rect id="Rectángulo_40530" data-name="Rectángulo 40530" width="4.031" height="0.226" transform="matrix(0.838, -0.545, 0.545, 0.838, 0, 2.198)" fill="#263238"/>
                  </g>
                  <g id="Grupo_97331" data-name="Grupo 97331">
                    <path id="Trazado_213551" data-name="Trazado 213551" d="M194.491,330.841a1.917,1.917,0,0,0-3.78.126,1.916,1.916,0,0,0-3.781-.065,2.586,2.586,0,0,0,.471,1.865,7.654,7.654,0,0,0,1.357,1.424c.69.61,1.328,1.184,2.018,1.793.68-.621,1.259-1.2,1.94-1.825a7.683,7.683,0,0,0,1.334-1.445A2.587,2.587,0,0,0,194.491,330.841Z" transform="translate(-186.898 -329.301)" fill="#e8505b"/>
                  </g>
                </g>
                <circle id="Elipse_5391" data-name="Elipse 5391" cx="4.203" cy="4.203" r="4.203" transform="translate(2.824)" fill="#ebebeb"/>
              </g>
              <g id="Grupo_97337" data-name="Grupo 97337" transform="translate(1.599 87.419)">
                <g id="Grupo_97334" data-name="Grupo 97334" transform="translate(0 6.556)">
                  <path id="Trazado_213552" data-name="Trazado 213552" d="M268.372,301.146c0,.084-17.626.151-39.363.151s-39.366-.068-39.366-.151,17.622-.152,39.366-.152S268.372,301.062,268.372,301.146Z" transform="translate(-189.643 -300.994)" fill="#455a64"/>
                </g>
                <g id="Grupo_97335" data-name="Grupo 97335">
                  <path id="Trazado_213553" data-name="Trazado 213553" d="M268.372,289.89c0,.084-17.626.152-39.363.152s-39.366-.068-39.366-.152,17.622-.151,39.366-.151S268.372,289.807,268.372,289.89Z" transform="translate(-189.643 -289.739)" fill="#455a64"/>
                </g>
                <g id="Grupo_97336" data-name="Grupo 97336" transform="translate(0 13.199)">
                  <path id="Trazado_213554" data-name="Trazado 213554" d="M232.5,312.551c0,.084-9.594.152-21.426.152s-21.427-.068-21.427-.152,9.592-.151,21.427-.151S232.5,312.468,232.5,312.551Z" transform="translate(-189.643 -312.4)" fill="#455a64"/>
                </g>
              </g>
            </g>
            <g id="Grupo_97342" data-name="Grupo 97342" transform="translate(51.273 214.441)">
              <g id="Grupo_97339" data-name="Grupo 97339">
                <path id="Trazado_213555" data-name="Trazado 213555" d="M251.737,434.068a1.673,1.673,0,1,1-1.665-1.7A1.684,1.684,0,0,1,251.737,434.068Z" transform="translate(-248.392 -432.363)" fill="#263238"/>
              </g>
              <g id="Grupo_97340" data-name="Grupo 97340" transform="translate(5.183 0.024)">
                <path id="Trazado_213556" data-name="Trazado 213556" d="M260.635,434.109a1.673,1.673,0,1,1-1.665-1.7A1.684,1.684,0,0,1,260.635,434.109Z" transform="translate(-257.29 -432.404)" fill="#263238"/>
              </g>
              <g id="Grupo_97341" data-name="Grupo 97341" transform="translate(10.366 0.048)">
                <path id="Trazado_213557" data-name="Trazado 213557" d="M269.533,434.15a1.673,1.673,0,1,1-1.665-1.7A1.683,1.683,0,0,1,269.533,434.15Z" transform="translate(-266.188 -432.445)" fill="#263238"/>
              </g>
            </g>
          </g>
          <g id="Grupo_97346" data-name="Grupo 97346" transform="translate(12.423 56.469)">
            <rect id="Rectángulo_40531" data-name="Rectángulo 40531" width="93.153" height="56.968" fill="#e0e0e0"/>
            <path id="Trazado_213558" data-name="Trazado 213558" d="M196.457,233.365l26.693-35.728L239.7,219.98l11.216-11.95,22,25.313Z" transform="translate(-187.858 -176.387)" fill="#f5f5f5"/>
            <g id="Grupo_97345" data-name="Grupo 97345" transform="translate(46.815 10.85)">
              <g id="Grupo_97344" data-name="Grupo 97344">
                <path id="Trazado_213559" data-name="Trazado 213559" d="M274.107,185.8a6.02,6.02,0,1,1-6.022-6.018A6.02,6.02,0,0,1,274.107,185.8Z" transform="translate(-262.067 -179.781)" fill="#f5f5f5"/>
              </g>
            </g>
          </g>
          <g id="Grupo_97347" data-name="Grupo 97347" transform="translate(12.021 37.363)">
            <path id="Trazado_213560" data-name="Trazado 213560" d="M274.307,257.371c0-1.219-.056-52.682-.137-128.866l.137.138-93.142.014h-.01l.151-.152c-.01,48.193-.02,92.794-.029,128.866l-.123-.123,93.152.123-93.152.123h-.123v-.123C181.023,221.3,181.013,176.7,181,128.5v-.151h.163l93.142.014h.137v.137c-.028,38.13-.051,70.36-.068,93.063-.016,11.335-.028,20.29-.037,26.416-.007,3.054-.013,5.4-.016,6.991q-.005,1.183-.008,1.793C274.313,257.171,274.307,257.371,274.307,257.371Z" transform="translate(-181.003 -128.353)" fill="#263238"/>
          </g>
        </g>
      </g>
    </g>
    <g id="Megaphone" transform="translate(66.822 81.65)">
      <g id="Grupo_97376" data-name="Grupo 97376">
        <g id="Grupo_97370" data-name="Grupo 97370">
          <g id="Grupo_97368" data-name="Grupo 97368">
            <g id="Grupo_97350" data-name="Grupo 97350" transform="translate(61.885 116.467)">
              <path id="Trazado_213561" data-name="Trazado 213561" d="M238.991,354.63l2.061-6.924c.359-1.5.837-3.273,1.479-5.294a14.286,14.286,0,0,1,3.411-5.1c2.1-2.139,3.1-2.154,4.518-3.289.129-.083.272-.2.394-.266a2.23,2.23,0,0,0,.687-.595c1.219-1.318.048-3.358-2.426-3.164-1.863.146-4.9.679-9.841,5.776-.062.077-.126.142-.187.221-2.593,3.37-5.028-6.251-5.467-9.832a3.753,3.753,0,0,0-5.073-2.911l-12.034,5.629A5.617,5.617,0,0,0,213,329a3.577,3.577,0,0,0-2.293,4.246l4.881,19.484-14.336,47.7h30.9Z" transform="translate(-201.252 -323.009)" fill="#ffbe9d"/>
            </g>
            <g id="Grupo_97366" data-name="Grupo 97366">
              <g id="Grupo_97358" data-name="Grupo 97358">
                <g id="Grupo_97352" data-name="Grupo 97352" transform="translate(69.132 97.544)">
                  <g id="Grupo_97351" data-name="Grupo 97351">
                    <path id="Trazado_213562" data-name="Trazado 213562" d="M267.923,297.257l-9.552,18.717-4.776-1.327-24.007,19.529a4.863,4.863,0,0,1-6.755-.6l-9.14-10.621s18.43-7.94,21.839-14.511-.53-8.063-.53-8.063l8.674-9.857Z" transform="translate(-213.694 -290.522)" fill="#e8505b"/>
                  </g>
                </g>
                <g id="Grupo_97353" data-name="Grupo 97353">
                  <path id="Trazado_213563" data-name="Trazado 213563" d="M205.979,189.1S192,186.009,172.322,167.088s-28.92-44.045-31.328-43.922-12.924-4.759-32.924,38.746-12.122,53.608-8.142,53.527,31-7.612,47.882-5.694,38.574,10.716,38.574,10.716Z" transform="translate(-95.007 -123.056)" fill="#e8505b"/>
                </g>
                <g id="Grupo_97354" data-name="Grupo 97354" transform="translate(88.372 57.846)">
                  <path id="Trazado_213564" data-name="Trazado 213564" d="M299.028,254.28l-4.77,9.069-2.137,4.062a11.836,11.836,0,0,1-15.428,5.242l-29.968-10.441,17.453-39.843,29.94,15.956A11.837,11.837,0,0,1,299.028,254.28Z" transform="translate(-246.725 -222.368)" fill="#e8505b"/>
                </g>
                <g id="Grupo_97355" data-name="Grupo 97355" transform="translate(88.372 57.846)" opacity="0.4">
                  <path id="Trazado_213565" data-name="Trazado 213565" d="M299.028,254.28l-4.77,9.069-2.137,4.062a11.836,11.836,0,0,1-15.428,5.242l-29.968-10.441,17.453-39.843,29.94,15.956A11.837,11.837,0,0,1,299.028,254.28Z" transform="translate(-246.725 -222.368)"/>
                </g>
                <g id="Grupo_97356" data-name="Grupo 97356" transform="translate(2.619 0.998)">
                  <path id="Trazado_213566" data-name="Trazado 213566" d="M111.564,163.419c-10.644,23.567-15.074,44.568-9.9,46.907s18-14.871,28.649-38.438,15.074-44.568,9.9-46.906S122.208,139.851,111.564,163.419Z" transform="translate(-99.503 -124.769)" fill="#e8505b"/>
                </g>
                <g id="Grupo_97357" data-name="Grupo 97357" transform="translate(2.619 0.998)" opacity="0.5">
                  <path id="Trazado_213567" data-name="Trazado 213567" d="M111.564,163.419c-10.644,23.567-15.074,44.568-9.9,46.907s18-14.871,28.649-38.438,15.074-44.568,9.9-46.906S122.208,139.851,111.564,163.419Z" transform="translate(-99.503 -124.769)"/>
                </g>
              </g>
              <g id="Grupo_97359" data-name="Grupo 97359" transform="translate(135.124 90.754)">
                <path id="Trazado_213568" data-name="Trazado 213568" d="M335.113,290.973l-8.123-2.551,5.026-9.557,6.092,3.787Z" transform="translate(-326.991 -278.865)" fill="#e8505b"/>
              </g>
              <g id="Grupo_97360" data-name="Grupo 97360" transform="translate(135.124 90.754)" opacity="0.6">
                <path id="Trazado_213569" data-name="Trazado 213569" d="M332.017,278.865l-5.026,9.557,1.669.525,4.087-9.629Z" transform="translate(-326.991 -278.865)"/>
              </g>
              <g id="Grupo_97361" data-name="Grupo 97361" transform="translate(116.873 84.941)">
                <path id="Trazado_213570" data-name="Trazado 213570" d="M313.338,276.9c-.119.263-4.173-1.313-9.053-3.519s-8.745-4.208-8.625-4.47,4.171,1.313,9.054,3.52S313.455,276.64,313.338,276.9Z" transform="translate(-295.656 -268.884)" fill="#e8505b"/>
              </g>
              <g id="Grupo_97362" data-name="Grupo 97362" transform="translate(121.122 79.395)">
                <path id="Trazado_213571" data-name="Trazado 213571" d="M318.881,267.235c-.128.259-3.8-1.287-8.194-3.453s-7.86-4.132-7.732-4.391,3.794,1.288,8.193,3.455S319.008,266.977,318.881,267.235Z" transform="translate(-302.952 -259.364)" fill="#e8505b"/>
              </g>
              <g id="Grupo_97363" data-name="Grupo 97363" transform="translate(115.284 91.735)">
                <path id="Trazado_213572" data-name="Trazado 213572" d="M309.048,287.743c-.043.139-1.008-.084-2.547-.56-.769-.238-1.68-.538-2.688-.887s-2.041-.889-3.155-1.393c-4.444-2.063-7.837-4.083-7.725-4.322.131-.283,3.758,1.331,8.16,3.374,1.1.5,2.129,1.051,3.095,1.455s1.839.758,2.565,1.08C308.205,287.135,309.09,287.6,309.048,287.743Z" transform="translate(-292.929 -280.549)" fill="#e8505b"/>
              </g>
              <g id="Grupo_97364" data-name="Grupo 97364" transform="translate(15.663 32.68)">
                <path id="Trazado_213573" data-name="Trazado 213573" d="M142.614,180.889s-12.152-7.535-18.8,8.883,6.137,19.118,6.137,19.118A109.388,109.388,0,0,0,142.614,180.889Z" transform="translate(-121.897 -179.163)" fill="#e8505b"/>
              </g>
              <g id="Grupo_97365" data-name="Grupo 97365" transform="translate(14.487 14.839)" opacity="0.5">
                <path id="Trazado_213574" data-name="Trazado 213574" d="M154.7,148.533a18.3,18.3,0,0,1-.476,3.137c-.384,2.007-.928,4.919-1.707,8.494-.514,1.761-1.075,3.684-1.678,5.745l-.944,3.2-.5,1.673c-.182.561-.418,1.111-.63,1.678l-2.745,7.083q-.358.922-.723,1.858c-.236.627-.571,1.217-.854,1.835l-1.806,3.724-1.812,3.723c-.31.605-.568,1.233-.914,1.807l-1.013,1.718-3.872,6.539c-.316.517-.6,1.043-.93,1.532s-.677.958-1.01,1.427l-1.935,2.725-3.484,4.875c-2.323,2.816-4.272,5.037-5.611,6.578a18.454,18.454,0,0,1-2.173,2.315,18.525,18.525,0,0,1,1.86-2.574l5.354-6.788,3.353-4.914,1.874-2.729.981-1.425c.32-.49.6-1.017.906-1.534L138,193.712l1-1.71c.342-.571.6-1.2.9-1.8l1.793-3.7,1.8-3.7c.284-.612.618-1.2.854-1.82l.727-1.841,2.783-7.014c.216-.561.458-1.1.645-1.659s.345-1.111.514-1.655q.509-1.631.988-3.165c.642-2.037,1.241-3.938,1.791-5.679l2.022-8.386A18.762,18.762,0,0,1,154.7,148.533Z" transform="translate(-119.877 -148.533)"/>
              </g>
            </g>
            <g id="Grupo_97367" data-name="Grupo 97367" transform="translate(72.044 112.025)" opacity="0.4">
              <path id="Trazado_213575" data-name="Trazado 213575" d="M218.693,332.029a23.662,23.662,0,0,0,3.88,5.665,7.99,7.99,0,0,0,6.179,2.517c2.286-.23,4.452-2.129,4.476-4.426a2.863,2.863,0,0,0,3.688-.651,6.452,6.452,0,0,0,1.313-3.825,3.608,3.608,0,0,0,4.557-1.234,5.892,5.892,0,0,0,.574-4.984,17.452,17.452,0,0,0-2.392-4.582,6.336,6.336,0,0,0,3.389-.348,2.183,2.183,0,0,0,1.121-2.861,2.851,2.851,0,0,0-1.671-1.065,10.786,10.786,0,0,0-4.931-.8c-.435,0,.749,4.937-11,11.684A98.713,98.713,0,0,1,218.693,332.029Z" transform="translate(-218.693 -315.383)"/>
            </g>
          </g>
          <g id="Grupo_97369" data-name="Grupo 97369" transform="translate(86.565 135.52)">
            <path id="Trazado_213576" data-name="Trazado 213576" d="M255.558,356c-.008.054-.79-.1-2.057-.062a11.631,11.631,0,0,0-8.635,4.14c-.82.967-1.193,1.671-1.24,1.643a1.8,1.8,0,0,1,.23-.51,9.308,9.308,0,0,1,.844-1.269,11.005,11.005,0,0,1,8.8-4.218,9.376,9.376,0,0,1,1.518.136A1.792,1.792,0,0,1,255.558,356Z" transform="translate(-243.624 -355.72)" fill="#eb996e"/>
          </g>
          <path id="Trazado_213577" data-name="Trazado 213577" d="M220.008,331.178c1.892,1.818,3.187,3.825,5.172,5.656.9.832,2.3,2.408,3.512,2.618s1.983.049,2.462-1.081c.387-.915-.309-2.166-.789-2.92-1.265-1.983-2.474-3.534-3.421-5.077-.444-.722.13-.871.34-.537.911.944,2.269,1.763,3.085,2.791,1.117,1.408,1.32,3.272,4.243,2.682a2.635,2.635,0,0,0,1.085-.451,2.923,2.923,0,0,0,.683-3.48,9.525,9.525,0,0,0-1.627-2.462c1.244,1.4,2.6,2.884,4.581,3.044a2.725,2.725,0,0,0,2.77-1.5c.585-1.329-.254-2.614-1.1-3.653a38.049,38.049,0,0,0-4.968-5.075,3.78,3.78,0,0,0-2.415-.9,3.52,3.52,0,0,0-2.936,1.076,3.972,3.972,0,0,0-.794,3.045s-2.566-1.3-4.628.059a6.54,6.54,0,0,0-2.572,3.7Z" transform="translate(-147.198 -205.635)" fill="#ffbe9d"/>
          <path id="Trazado_213578" data-name="Trazado 213578" d="M242.93,315.895a3.074,3.074,0,0,1-.363-3.472c.436-.855.987-1.686,1.545-1.875,2.441-.824,13.107,1.022,13.01,3.389-.1,2.431-.876,3.5-6.665,2.664-1.018-.147-2.616-.348-2.616-.348l-1.4,2.1Z" transform="translate(-156.464 -201.256)" fill="#ffbe9d"/>
        </g>
        <g id="Grupo_97371" data-name="Grupo 97371" transform="translate(82.498 119.216)">
          <path id="Trazado_213579" data-name="Trazado 213579" d="M242.519,333.063a14,14,0,0,0-5.877-5.328,3.408,3.408,0,0,1,1.129.4,10.13,10.13,0,0,1,4.242,3.845A3.407,3.407,0,0,1,242.519,333.063Z" transform="translate(-236.641 -327.729)" fill="#eb996e"/>
        </g>
        <g id="Grupo_97372" data-name="Grupo 97372" transform="translate(86.654 115.195)">
          <path id="Trazado_213580" data-name="Trazado 213580" d="M247.293,322.907c-.054.05-.757-.525-1.718-1.112a12.071,12.071,0,0,0-1.252-.69c-.33-.155-.548-.2-.548-.243s.251-.07.621.042a5.733,5.733,0,0,1,1.337.633A4.128,4.128,0,0,1,247.293,322.907Z" transform="translate(-243.776 -320.826)" fill="#eb996e"/>
        </g>
        <g id="Grupo_97373" data-name="Grupo 97373" transform="translate(88.202 113.67)">
          <path id="Trazado_213581" data-name="Trazado 213581" d="M250.193,319.613a4.609,4.609,0,0,1-2.054-.231,3.755,3.755,0,0,1-1.315-.689c-.293-.249-.415-.457-.386-.482a8.6,8.6,0,0,0,1.791.881A15.317,15.317,0,0,1,250.193,319.613Z" transform="translate(-246.434 -318.208)" fill="#eb996e"/>
        </g>
        <g id="Grupo_97374" data-name="Grupo 97374" transform="translate(73.121 122.168)">
          <path id="Trazado_213582" data-name="Trazado 213582" d="M229.016,338.109a7.43,7.43,0,0,1-.972-1.264,11.469,11.469,0,0,0-2.49-2.83,5.018,5.018,0,0,0-3.526-.934,6.41,6.41,0,0,0-1.485.472c-.01-.013.1-.122.34-.269a3.32,3.32,0,0,1,1.111-.415,4.955,4.955,0,0,1,3.738.9,10.133,10.133,0,0,1,2.492,2.958A9.472,9.472,0,0,1,229.016,338.109Z" transform="translate(-220.542 -332.796)" fill="#eb996e"/>
        </g>
        <g id="Grupo_97375" data-name="Grupo 97375" transform="translate(81.003 151.048)">
          <path id="Trazado_213583" data-name="Trazado 213583" d="M242.826,382.4a63.93,63.93,0,0,1-8.752.952,63.917,63.917,0,0,1,8.752-.952Z" transform="translate(-234.074 -382.378)" fill="#eb996e"/>
        </g>
      </g>
    </g>
    <g id="Stars" transform="translate(39.856 39.006)">
      <g id="Grupo_97377" data-name="Grupo 97377">
        <path id="Trazado_213584" data-name="Trazado 213584" d="M405.3,49.844l.658,1.2,1.2.657-1.2.658-.658,1.2-.658-1.2-1.2-.658,1.2-.657Z" transform="translate(-196.819 -49.844)" fill="#e8505b"/>
        <path id="Trazado_213585" data-name="Trazado 213585" d="M428.9,101.014l.658,1.2,1.2.658-1.2.658-.658,1.2-.658-1.2-1.2-.658,1.2-.658Z" transform="translate(-206.675 -71.209)" fill="#e8505b"/>
        <path id="Trazado_213586" data-name="Trazado 213586" d="M50.57,237.533l.658,1.2,1.2.658-1.2.657-.658,1.2-.657-1.2-1.2-.657,1.2-.658Z" transform="translate(-48.711 -128.209)" fill="#e8505b"/>
        <path id="Trazado_213587" data-name="Trazado 213587" d="M372.583,62.562l1.518,2.776,2.776,1.519L374.1,68.375l-1.518,2.776-1.518-2.776-2.776-1.518,2.776-1.519Z" transform="translate(-182.143 -55.154)" fill="#e8505b"/>
        <path id="Trazado_213588" data-name="Trazado 213588" d="M69.989,205.1l1.515,2.77,2.77,1.515L71.5,210.9l-1.515,2.77-1.515-2.77-2.77-1.515,2.77-1.515Z" transform="translate(-55.806 -114.666)" fill="#e8505b"/>
        <path id="Trazado_213589" data-name="Trazado 213589" d="M433.586,318.565l1.515,2.77,2.77,1.515-2.77,1.515-1.515,2.77-1.515-2.77-2.77-1.515,2.77-1.515Z" transform="translate(-207.618 -162.042)" fill="#e8505b"/>
      </g>
    </g>
  </g>
</svg>
