<svg xmlns="http://www.w3.org/2000/svg" width="478.129" height="266.354" viewBox="0 0 478.129 266.354">
  <g id="Grupo_97484" data-name="Grupo 97484" transform="translate(-162.16 -181.825)">
    <g id="Grupo_97384" data-name="Grupo 97384" transform="translate(229.958 231.167)">
      <path id="Trazado_213590" data-name="Trazado 213590" d="M954.69,527.678H943.078v-25.9l-.538-.309h-3.462v-.013H918.938v.013h-.017v3.883h.017v2.67h-.017V511.9h.017v2.68h-.017v3.883h.017v.014l-2.134-.014v-20.31H894.2v2.573h-.011v3.881h.011v3.412h-.011V511.9h.011v2.68h-.011v3.883h.011v2.479h-.011v3.883h.011v2.479h-.011v3.883h.011v2.335h-.011v2.466h.011v.269H868.73v22.22h-9.517v5.6H848.952v-9.639H830.493V528.248h-2.887v-2.609h-.413v2.609H824.8v0H812.826v-2.6h-.413v2.6h-3.12v13.17l-15.505-.073v8.129H780.642V499.221H741.695v53.83H729.8V523.943H690.853V712.261l266.141-1.015Z" transform="translate(-671.329 -495.25)" fill="#dfebfa"/>
      <path id="Trazado_213591" data-name="Trazado 213591" d="M592.2,861.9v152.743H572.643V861.9Z" transform="translate(-572.643 -798.918)" fill="#dfebfa"/>
      <rect id="Rectángulo_40533" data-name="Rectángulo 40533" width="28.927" height="8.517" transform="translate(80.387 3.971)" fill="#eef6ff"/>
      <rect id="Rectángulo_40534" data-name="Rectángulo 40534" width="28.927" height="8.517" transform="translate(80.387 17.081)" fill="#eef6ff"/>
      <rect id="Rectángulo_40535" data-name="Rectángulo 40535" width="28.927" height="8.517" transform="translate(80.387 30.464)" fill="#eef6ff"/>
      <rect id="Rectángulo_40536" data-name="Rectángulo 40536" width="28.927" height="8.517" transform="translate(80.387 44.061)" fill="#eef6ff"/>
      <rect id="Rectángulo_40537" data-name="Rectángulo 40537" width="28.927" height="8.517" transform="translate(80.387 57.18)" fill="#eef6ff"/>
      <g id="Grupo_97379" data-name="Grupo 97379" transform="translate(222.88 2.905)">
        <rect id="Rectángulo_40538" data-name="Rectángulo 40538" width="14.464" height="5.173" fill="#eef6ff"/>
        <rect id="Rectángulo_40539" data-name="Rectángulo 40539" width="14.464" height="5.173" transform="translate(0 7.962)" fill="#eef6ff"/>
        <rect id="Rectángulo_40540" data-name="Rectángulo 40540" width="14.464" height="5.173" transform="translate(0 16.09)" fill="#eef6ff"/>
        <rect id="Rectángulo_40541" data-name="Rectángulo 40541" width="14.464" height="5.173" transform="translate(0 24.347)" fill="#eef6ff"/>
        <rect id="Rectángulo_40542" data-name="Rectángulo 40542" width="14.464" height="5.173" transform="translate(0 32.314)" fill="#eef6ff"/>
      </g>
      <g id="Grupo_97380" data-name="Grupo 97380" transform="translate(222.88 43.988)">
        <rect id="Rectángulo_40543" data-name="Rectángulo 40543" width="14.464" height="5.173" fill="#eef6ff"/>
        <rect id="Rectángulo_40544" data-name="Rectángulo 40544" width="14.464" height="5.173" transform="translate(0 7.962)" fill="#eef6ff"/>
        <rect id="Rectángulo_40545" data-name="Rectángulo 40545" width="14.464" height="5.173" transform="translate(0 16.09)" fill="#eef6ff"/>
        <rect id="Rectángulo_40546" data-name="Rectángulo 40546" width="14.464" height="5.173" transform="translate(0 24.347)" fill="#eef6ff"/>
        <rect id="Rectángulo_40547" data-name="Rectángulo 40547" width="14.464" height="5.173" transform="translate(0 32.314)" fill="#eef6ff"/>
      </g>
      <g id="Grupo_97381" data-name="Grupo 97381" transform="translate(247.637 6.297)">
        <rect id="Rectángulo_40548" data-name="Rectángulo 40548" width="14.463" height="5.173" fill="#eef6ff"/>
        <rect id="Rectángulo_40549" data-name="Rectángulo 40549" width="14.463" height="5.173" transform="translate(0 7.962)" fill="#eef6ff"/>
        <rect id="Rectángulo_40550" data-name="Rectángulo 40550" width="14.463" height="5.173" transform="translate(0 16.09)" fill="#eef6ff"/>
        <rect id="Rectángulo_40551" data-name="Rectángulo 40551" width="14.463" height="5.173" transform="translate(0 24.347)" fill="#eef6ff"/>
        <rect id="Rectángulo_40552" data-name="Rectángulo 40552" width="14.463" height="5.173" transform="translate(0 32.314)" fill="#eef6ff"/>
      </g>
      <g id="Grupo_97382" data-name="Grupo 97382" transform="translate(247.637 46.917)">
        <rect id="Rectángulo_40553" data-name="Rectángulo 40553" width="14.463" height="5.173" fill="#eef6ff"/>
        <rect id="Rectángulo_40554" data-name="Rectángulo 40554" width="14.463" height="5.173" transform="translate(0 7.962)" fill="#eef6ff"/>
        <rect id="Rectángulo_40555" data-name="Rectángulo 40555" width="14.463" height="5.173" transform="translate(0 16.09)" fill="#eef6ff"/>
        <rect id="Rectángulo_40556" data-name="Rectángulo 40556" width="14.463" height="5.173" transform="translate(0 24.347)" fill="#eef6ff"/>
        <rect id="Rectángulo_40557" data-name="Rectángulo 40557" width="14.463" height="5.173" transform="translate(0 32.314)" fill="#eef6ff"/>
      </g>
      <g id="Grupo_97383" data-name="Grupo 97383" transform="translate(247.637 88.369)">
        <rect id="Rectángulo_40558" data-name="Rectángulo 40558" width="14.463" height="5.173" fill="#eef6ff"/>
        <rect id="Rectángulo_40559" data-name="Rectángulo 40559" width="14.463" height="5.173" transform="translate(0 7.962)" fill="#eef6ff"/>
        <rect id="Rectángulo_40560" data-name="Rectángulo 40560" width="14.463" height="5.173" transform="translate(0 16.089)" fill="#eef6ff"/>
        <rect id="Rectángulo_40561" data-name="Rectángulo 40561" width="14.463" height="5.173" transform="translate(0 24.347)" fill="#eef6ff"/>
        <rect id="Rectángulo_40562" data-name="Rectángulo 40562" width="14.463" height="5.173" transform="translate(0 32.314)" fill="#eef6ff"/>
      </g>
      <rect id="Rectángulo_40563" data-name="Rectángulo 40563" width="0.717" height="10.554" transform="translate(202.145 30.644)" fill="#dfebfa"/>
      <rect id="Rectángulo_40564" data-name="Rectángulo 40564" width="1.116" height="20.438" transform="translate(214.236 21.58)" fill="#dfebfa"/>
      <rect id="Rectángulo_40565" data-name="Rectángulo 40565" width="0.465" height="3.763" transform="translate(72.952 0.208)" fill="#dfebfa"/>
      <rect id="Rectángulo_40566" data-name="Rectángulo 40566" width="0.465" height="3.763" transform="translate(82.811 0.208)" fill="#dfebfa"/>
      <rect id="Rectángulo_40567" data-name="Rectángulo 40567" width="0.465" height="3.763" transform="translate(105.413 0.208)" fill="#dfebfa"/>
      <rect id="Rectángulo_40568" data-name="Rectángulo 40568" width="0.359" height="2.905" transform="translate(225.119 0)" fill="#dfebfa"/>
      <rect id="Rectángulo_40569" data-name="Rectángulo 40569" width="0.359" height="2.905" transform="translate(242.086 0)" fill="#dfebfa"/>
      <rect id="Rectángulo_40570" data-name="Rectángulo 40570" width="0.465" height="3.763" transform="translate(96.577 0.208)" fill="#dfebfa"/>
    </g>
    <path id="Trazado_213592" data-name="Trazado 213592" d="M1395.393,647.866c-3.953-9.867-20.775-4.669-20.775-4.669s-9.588,19.2-12.935,20.021,4.992-18.015,4.992-18.015c-6.656.134-22.482,10.164-22.482,10.164s3.5,20.68.051,20.653-2.162-18.469-2.162-18.469c-6.145,2.656-11.219,10.782-11.219,10.782-6.013,12.97,10.952,20.022,10.952,20.022a34.1,34.1,0,0,1-2.431,15.994h0a24.73,24.73,0,0,0-1.546,4.364l1.736-.2c.087-.482.191-.951.314-1.4a.01.01,0,0,1,0-.008l.005-.019c.088-.282.214-.684.372-1.174v0s0,0,0,0c.409-1.1.677-1.91.839-2.49a.027.027,0,0,0,0-.005c1.208-3.446,3-7.961,4.423-9.03a3.378,3.378,0,0,1-.465-.753l.465.753c3.718,6.021,18.7,5.342,26.782,2.675s4.2-4.58-.7-7.848-14.126-1.175-17.059-2.338.926-3.121,6.495-3.343,8.975,4.975,17.991,4.78,13.845-17.761,13.845-17.761c-5.933,2.631-17.369.527-18.042-1.546s15.7-3.775,18.171-4.71S1399.345,657.732,1395.393,647.866Z" transform="translate(-974.596 -384.027)" fill="#afcdfb"/>
    <path id="Trazado_213593" data-name="Trazado 213593" d="M1979.027,1448.26c-2.859-13.166-24.981-10.214-24.981-10.214s-16.029,21.977-20.386,22.3,10.036-21.465,10.036-21.465c-8.346-1.236-30.242,7.967-30.242,7.967s.013,26.583-4.288,25.823,1.189-23.539,1.189-23.539c-8.241,2.026-16.295,11.111-16.295,11.111-10.249,14.945,9.47,27.333,9.47,27.333a35.088,35.088,0,0,1-1.367,7.835q-.171.616-.375,1.269h4.082a4.683,4.683,0,0,1,1.038-.795,6.936,6.936,0,0,0,.382.795h35.2c-.437-.408-.9-.83-1.365-1.269l-.533-.5c-5.438-5.118-17.408-4.444-20.829-6.516s1.815-3.707,8.822-2.811,10.17,8.109,21.478,9.766q.26.04.52.059a9.049,9.049,0,0,0,1.562,0c10.4-.917,18.966-19.339,18.966-19.339-7.971,2.039-21.821-3-22.225-5.735s20.414-1.411,23.7-2.059S1981.888,1461.425,1979.027,1448.26Zm-72.121,47.62a3.134,3.134,0,0,1-.226-.47,5.51,5.51,0,0,1-.193-.566c.074.185.151.373.228.566C1906.779,1495.564,1906.842,1495.72,1906.906,1495.88Z" transform="translate(-1443.385 -1048.5)" fill="#c7dcfb"/>
    <path id="Trazado_213594" data-name="Trazado 213594" d="M324.2,809.353c2.5-9.595,18.674-6.764,18.674-6.764s11.13,16.637,14.324,17-6.739-16.083-6.739-16.083c6.174-.659,22,6.76,22,6.76s-.8,19.547,2.382,19.116-.172-17.344-.172-17.344c6,1.735,11.649,8.657,11.649,8.657,7.09,11.294-7.779,19.815-7.779,19.815a31.806,31.806,0,0,0,4.131,14.513h0a23.055,23.055,0,0,1,1.944,3.856l-1.63.016q-.206-.654-.455-1.261a.01.01,0,0,0,0-.007l-.007-.017c-.114-.251-.278-.608-.483-1.043v0s0,0,0,0c-.508-.97-.851-1.687-1.069-2.205l0,0c-1.523-3.046-3.713-7.013-5.155-7.835a3.162,3.162,0,0,0,.342-.751l-.342.751c-2.732,6.008-16.677,7.143-24.467,5.625s-4.423-3.744-.272-7.345,12.932-2.749,15.51-4.17-1.224-2.779-6.4-2.329-7.72,5.659-16.085,6.539-14.9-14.806-14.9-14.806c5.8,1.737,16.134-1.555,16.513-3.553s-14.969-1.646-17.368-2.221S321.7,818.948,324.2,809.353Z" transform="translate(-134.639 -517.91)" fill="#afcdfb" opacity="0.5"/>
    <path id="Trazado_213595" data-name="Trazado 213595" d="M640.289,1787.331v.185a.543.543,0,0,1-.542.542H162.7a.544.544,0,0,1-.542-.542v-.185a.545.545,0,0,1,.542-.542H639.747A.543.543,0,0,1,640.289,1787.331Z" transform="translate(0 -1339.879)" fill="#2e3552"/>
    <path id="Trazado_213596" data-name="Trazado 213596" d="M774.463,1020.789l-191.491,2.845a3.2,3.2,0,0,1-3.145-2.408l-36.52-143.708a3.2,3.2,0,0,1,3.083-3.983l192.006-.819a3.2,3.2,0,0,1,3.111,2.409l36.005,141.683A3.2,3.2,0,0,1,774.463,1020.789Z" transform="translate(-318.111 -576.779)" fill="#162b4c"/>
    <path id="Trazado_213597" data-name="Trazado 213597" d="M794.682,1020.776l-189.27.808c-2.076.009-5,1.33-5.513-.682l-34.21-141.715a4.523,4.523,0,0,1,4.364-5.637l189.27-.808a4.523,4.523,0,0,1,4.4,3.409l35.32,138.989A4.523,4.523,0,0,1,794.682,1020.776Z" transform="translate(-336.761 -576.801)" fill="#233862"/>
    <path id="Trazado_213598" data-name="Trazado 213598" d="M811.637,1029.278l-72.13.305-30.367.13-82.532.349a2.142,2.142,0,0,1-2.08-1.609l-32.094-125.16-2.693-10.506a2.139,2.139,0,0,1,2.063-2.671l181.409-.768,3.619-.015a2.139,2.139,0,0,1,2.08,1.609l3.167,12.351,8.183,31.914,7.266,28.337,16.17,63.064A2.139,2.139,0,0,1,811.637,1029.278Z" transform="translate(-356.903 -590.652)" fill="#9cc4ff"/>
    <path id="Trazado_213599" data-name="Trazado 213599" d="M782.081,903.293H592.435l-2.693-10.506a2.139,2.139,0,0,1,2.063-2.671l181.409-.768,3.619-.015a2.139,2.139,0,0,1,2.08,1.609Z" transform="translate(-356.903 -590.652)" fill="#cfe3ff"/>
    <g id="Grupo_97385" data-name="Grupo 97385" transform="translate(187.095 240.372)">
      <path id="Trazado_213600" data-name="Trazado 213600" d="M334.744,576.311l-21.616,3.083,14.345-9.777.729,3.134,5.257.952Z" transform="translate(-313.128 -564.114)" fill="#9ec3f6"/>
      <path id="Trazado_213601" data-name="Trazado 213601" d="M313.128,577.455l17.988-9.274,17.63-.887Z" transform="translate(-313.128 -562.174)" fill="#fff"/>
      <path id="Trazado_213602" data-name="Trazado 213602" d="M327.473,541.8l-14.345,9.777,11.1-15.28Z" transform="translate(-313.128 -536.298)" fill="#fff"/>
    </g>
    <g id="Grupo_97386" data-name="Grupo 97386" transform="translate(540.041 245.64)">
      <path id="Trazado_213603" data-name="Trazado 213603" d="M2538.72,610.049l22.61,3.225-15-10.227-.763,3.279-5.5,1Z" transform="translate(-2524.074 -597.291)" fill="#9ec3f6"/>
      <path id="Trazado_213604" data-name="Trazado 213604" d="M2487.3,611.245l-18.815-9.7-18.441-.928Z" transform="translate(-2450.046 -595.262)" fill="#fff"/>
      <path id="Trazado_213605" data-name="Trazado 213605" d="M2584.77,573.952l15,10.227L2588.158,568.2Z" transform="translate(-2562.518 -568.195)" fill="#fff"/>
    </g>
    <g id="Grupo_97468" data-name="Grupo 97468" transform="translate(312.439 181.825)">
      <g id="Grupo_97387" data-name="Grupo 97387" transform="translate(56.49 46.245)">
        <circle id="Elipse_5392" data-name="Elipse 5392" cx="7.97" cy="7.97" r="7.97" fill="#d5e5fb"/>
      </g>
      <g id="Grupo_97388" data-name="Grupo 97388" transform="translate(59.983 48.459)">
        <path id="Trazado_213606" data-name="Trazado 213606" d="M1446.81,477.779a2.558,2.558,0,1,1,2.558,2.558A2.558,2.558,0,0,1,1446.81,477.779Z" transform="translate(-1444.892 -475.221)" fill="#fff"/>
        <path id="Trazado_213607" data-name="Trazado 213607" d="M1439.671,506.195a4.477,4.477,0,0,0-4.476,4.477h8.953A4.477,4.477,0,0,0,1439.671,506.195Z" transform="translate(-1435.195 -501.079)" fill="#fff"/>
      </g>
      <g id="Grupo_97389" data-name="Grupo 97389" transform="translate(0 27.459)">
        <circle id="Elipse_5393" data-name="Elipse 5393" cx="5.376" cy="5.376" r="5.376" transform="translate(0 10.747) rotate(-88.093)" fill="#c6dcf7"/>
      </g>
      <g id="Grupo_97390" data-name="Grupo 97390" transform="translate(2.533 28.779)">
        <circle id="Elipse_5394" data-name="Elipse 5394" cx="1.726" cy="1.726" r="1.726" transform="translate(0.944 3.359) rotate(-76.718)" fill="#fff"/>
        <path id="Trazado_213608" data-name="Trazado 213608" d="M1090.38,379.083a3.02,3.02,0,0,0-3.02,3.02h6.04A3.02,3.02,0,0,0,1090.38,379.083Z" transform="translate(-1087.36 -375.281)" fill="#fff"/>
      </g>
      <g id="Grupo_97405" data-name="Grupo 97405" transform="translate(43.867 5.687)">
        <g id="Grupo_97397" data-name="Grupo 97397">
          <g id="Grupo_97393" data-name="Grupo 97393">
            <g id="Grupo_97391" data-name="Grupo 97391">
              <path id="Trazado_213609" data-name="Trazado 213609" d="M1337.643,216.59a.468.468,0,1,1,.31.585A.468.468,0,0,1,1337.643,216.59Z" transform="translate(-1337.622 -216.259)" fill="#d5e5fb"/>
              <path id="Trazado_213610" data-name="Trazado 213610" d="M1350.176,220.446a.468.468,0,1,1,.31.585A.468.468,0,0,1,1350.176,220.446Z" transform="translate(-1348.085 -219.479)" fill="#d5e5fb"/>
              <path id="Trazado_213611" data-name="Trazado 213611" d="M1363.183,224.938a.468.468,0,1,1,.585-.31A.468.468,0,0,1,1363.183,224.938Z" transform="translate(-1358.686 -222.74)" fill="#d5e5fb"/>
            </g>
            <g id="Grupo_97392" data-name="Grupo 97392" transform="translate(6.265 1.928)">
              <path id="Trazado_213612" data-name="Trazado 213612" d="M1375.572,228.26a.468.468,0,1,1,.31.585A.468.468,0,0,1,1375.572,228.26Z" transform="translate(-1375.551 -227.93)" fill="#d5e5fb"/>
              <path id="Trazado_213613" data-name="Trazado 213613" d="M1388.1,232.117a.468.468,0,1,1,.31.585A.468.468,0,0,1,1388.1,232.117Z" transform="translate(-1386.014 -231.149)" fill="#d5e5fb"/>
              <path id="Trazado_213614" data-name="Trazado 213614" d="M1401.113,236.608a.468.468,0,1,1,.585-.31A.468.468,0,0,1,1401.113,236.608Z" transform="translate(-1396.615 -234.41)" fill="#d5e5fb"/>
            </g>
          </g>
          <g id="Grupo_97396" data-name="Grupo 97396" transform="translate(12.445 3.829)">
            <g id="Grupo_97394" data-name="Grupo 97394">
              <path id="Trazado_213615" data-name="Trazado 213615" d="M1412.993,239.774a.468.468,0,1,1,.31.585A.468.468,0,0,1,1412.993,239.774Z" transform="translate(-1412.972 -239.443)" fill="#d5e5fb"/>
              <path id="Trazado_213616" data-name="Trazado 213616" d="M1425.526,243.63a.468.468,0,1,1,.31.585A.468.468,0,0,1,1425.526,243.63Z" transform="translate(-1423.435 -242.662)" fill="#d5e5fb"/>
              <path id="Trazado_213617" data-name="Trazado 213617" d="M1438.534,248.122a.468.468,0,1,1,.585-.31A.468.468,0,0,1,1438.534,248.122Z" transform="translate(-1434.036 -245.924)" fill="#d5e5fb"/>
            </g>
            <g id="Grupo_97395" data-name="Grupo 97395" transform="translate(6.265 1.928)">
              <path id="Trazado_213618" data-name="Trazado 213618" d="M1450.922,251.444a.468.468,0,1,1,.31.585A.468.468,0,0,1,1450.922,251.444Z" transform="translate(-1450.901 -251.113)" fill="#d5e5fb"/>
              <path id="Trazado_213619" data-name="Trazado 213619" d="M1463.455,255.3a.468.468,0,1,1,.31.585A.468.468,0,0,1,1463.455,255.3Z" transform="translate(-1461.364 -254.333)" fill="#d5e5fb"/>
              <path id="Trazado_213620" data-name="Trazado 213620" d="M1476.463,259.792a.468.468,0,1,1,.585-.31A.468.468,0,0,1,1476.463,259.792Z" transform="translate(-1471.965 -257.594)" fill="#d5e5fb"/>
            </g>
          </g>
        </g>
        <g id="Grupo_97404" data-name="Grupo 97404" transform="translate(24.98 7.686)">
          <g id="Grupo_97400" data-name="Grupo 97400">
            <g id="Grupo_97398" data-name="Grupo 97398">
              <path id="Trazado_213621" data-name="Trazado 213621" d="M1488.884,263.124a.468.468,0,1,1,.31.585A.468.468,0,0,1,1488.884,263.124Z" transform="translate(-1488.863 -262.793)" fill="#d5e5fb"/>
              <path id="Trazado_213622" data-name="Trazado 213622" d="M1501.416,266.98a.468.468,0,1,1,.31.585A.468.468,0,0,1,1501.416,266.98Z" transform="translate(-1499.325 -266.013)" fill="#d5e5fb"/>
              <path id="Trazado_213623" data-name="Trazado 213623" d="M1514.424,271.473a.468.468,0,1,1,.585-.31A.468.468,0,0,1,1514.424,271.473Z" transform="translate(-1509.927 -269.275)" fill="#d5e5fb"/>
            </g>
            <g id="Grupo_97399" data-name="Grupo 97399" transform="translate(6.265 1.928)">
              <path id="Trazado_213624" data-name="Trazado 213624" d="M1526.813,274.794a.468.468,0,1,1,.31.585A.468.468,0,0,1,1526.813,274.794Z" transform="translate(-1526.792 -274.464)" fill="#d5e5fb"/>
              <path id="Trazado_213625" data-name="Trazado 213625" d="M1539.346,278.651a.468.468,0,1,1,.31.585A.468.468,0,0,1,1539.346,278.651Z" transform="translate(-1537.255 -277.683)" fill="#d5e5fb"/>
              <path id="Trazado_213626" data-name="Trazado 213626" d="M1552.354,283.143a.468.468,0,1,1,.585-.31A.468.468,0,0,1,1552.354,283.143Z" transform="translate(-1547.856 -280.945)" fill="#d5e5fb"/>
            </g>
          </g>
          <g id="Grupo_97403" data-name="Grupo 97403" transform="translate(12.445 3.829)">
            <g id="Grupo_97401" data-name="Grupo 97401">
              <path id="Trazado_213627" data-name="Trazado 213627" d="M1564.234,286.308a.468.468,0,1,1,.31.585A.468.468,0,0,1,1564.234,286.308Z" transform="translate(-1564.213 -285.978)" fill="#d5e5fb"/>
              <path id="Trazado_213628" data-name="Trazado 213628" d="M1576.767,290.164a.468.468,0,1,1,.31.585A.468.468,0,0,1,1576.767,290.164Z" transform="translate(-1574.676 -289.196)" fill="#d5e5fb"/>
              <path id="Trazado_213629" data-name="Trazado 213629" d="M1589.774,294.656a.468.468,0,1,1,.585-.31A.468.468,0,0,1,1589.774,294.656Z" transform="translate(-1585.276 -292.458)" fill="#d5e5fb"/>
            </g>
            <g id="Grupo_97402" data-name="Grupo 97402" transform="translate(6.265 1.927)">
              <path id="Trazado_213630" data-name="Trazado 213630" d="M1602.163,297.978a.468.468,0,1,1,.31.585A.468.468,0,0,1,1602.163,297.978Z" transform="translate(-1602.142 -297.647)" fill="#d5e5fb"/>
              <path id="Trazado_213631" data-name="Trazado 213631" d="M1614.7,301.834a.468.468,0,1,1,.31.585A.468.468,0,0,1,1614.7,301.834Z" transform="translate(-1612.605 -300.867)" fill="#d5e5fb"/>
              <path id="Trazado_213632" data-name="Trazado 213632" d="M1627.7,306.327a.468.468,0,1,1,.585-.31A.468.468,0,0,1,1627.7,306.327Z" transform="translate(-1623.206 -304.129)" fill="#d5e5fb"/>
            </g>
          </g>
        </g>
      </g>
      <g id="Grupo_97417" data-name="Grupo 97417" transform="translate(69.853 15.327)">
        <g id="Grupo_97409" data-name="Grupo 97409" transform="translate(0 21.084)">
          <g id="Grupo_97408" data-name="Grupo 97408">
            <g id="Grupo_97406" data-name="Grupo 97406" transform="translate(0 5.288)">
              <path id="Trazado_213633" data-name="Trazado 213633" d="M1495.141,456.426a.468.468,0,1,1,.654-.1A.468.468,0,0,1,1495.141,456.426Z" transform="translate(-1494.95 -452.063)" fill="#d5e5fb"/>
              <path id="Trazado_213634" data-name="Trazado 213634" d="M1502.89,445.848a.468.468,0,1,1,.654-.1A.468.468,0,0,1,1502.89,445.848Z" transform="translate(-1501.419 -443.232)" fill="#d5e5fb"/>
              <path id="Trazado_213635" data-name="Trazado 213635" d="M1511.4,435.03a.468.468,0,1,1-.1-.654A.468.468,0,0,1,1511.4,435.03Z" transform="translate(-1507.974 -434.285)" fill="#d5e5fb"/>
            </g>
            <g id="Grupo_97407" data-name="Grupo 97407" transform="translate(3.873)">
              <path id="Trazado_213636" data-name="Trazado 213636" d="M1518.593,424.413a.468.468,0,1,1,.654-.1A.468.468,0,0,1,1518.593,424.413Z" transform="translate(-1518.401 -420.05)" fill="#d5e5fb"/>
              <path id="Trazado_213637" data-name="Trazado 213637" d="M1526.343,413.835a.468.468,0,1,1,.654-.1A.468.468,0,0,1,1526.343,413.835Z" transform="translate(-1524.871 -411.219)" fill="#d5e5fb"/>
              <path id="Trazado_213638" data-name="Trazado 213638" d="M1534.848,403.016a.468.468,0,1,1-.1-.654A.468.468,0,0,1,1534.848,403.016Z" transform="translate(-1531.425 -402.272)" fill="#d5e5fb"/>
            </g>
          </g>
        </g>
        <g id="Grupo_97416" data-name="Grupo 97416" transform="translate(7.75)">
          <g id="Grupo_97412" data-name="Grupo 97412" transform="translate(0 10.504)">
            <g id="Grupo_97410" data-name="Grupo 97410" transform="translate(0 5.288)">
              <path id="Trazado_213639" data-name="Trazado 213639" d="M1542.064,392.373a.468.468,0,1,1,.654-.1A.468.468,0,0,1,1542.064,392.373Z" transform="translate(-1541.873 -388.01)" fill="#d5e5fb"/>
              <path id="Trazado_213640" data-name="Trazado 213640" d="M1549.814,381.795a.468.468,0,1,1,.654-.1A.468.468,0,0,1,1549.814,381.795Z" transform="translate(-1548.342 -379.179)" fill="#d5e5fb"/>
              <path id="Trazado_213641" data-name="Trazado 213641" d="M1558.319,370.976a.468.468,0,1,1-.1-.654A.468.468,0,0,1,1558.319,370.976Z" transform="translate(-1554.897 -370.232)" fill="#d5e5fb"/>
            </g>
            <g id="Grupo_97411" data-name="Grupo 97411" transform="translate(3.873)">
              <path id="Trazado_213642" data-name="Trazado 213642" d="M1565.516,360.36a.468.468,0,1,1,.654-.1A.468.468,0,0,1,1565.516,360.36Z" transform="translate(-1565.325 -355.997)" fill="#d5e5fb"/>
              <path id="Trazado_213643" data-name="Trazado 213643" d="M1573.265,349.781a.468.468,0,1,1,.654-.1A.468.468,0,0,1,1573.265,349.781Z" transform="translate(-1571.794 -347.166)" fill="#d5e5fb"/>
              <path id="Trazado_213644" data-name="Trazado 213644" d="M1581.771,338.963a.468.468,0,1,1-.1-.654A.468.468,0,0,1,1581.771,338.963Z" transform="translate(-1578.348 -338.218)" fill="#d5e5fb"/>
            </g>
          </g>
          <g id="Grupo_97415" data-name="Grupo 97415" transform="translate(7.695)">
            <g id="Grupo_97413" data-name="Grupo 97413" transform="translate(0 5.287)">
              <path id="Trazado_213645" data-name="Trazado 213645" d="M1588.653,328.775a.468.468,0,1,1,.654-.1A.468.468,0,0,1,1588.653,328.775Z" transform="translate(-1588.462 -324.412)" fill="#d5e5fb"/>
              <path id="Trazado_213646" data-name="Trazado 213646" d="M1596.4,318.2a.468.468,0,1,1,.654-.1A.468.468,0,0,1,1596.4,318.2Z" transform="translate(-1594.931 -315.581)" fill="#d5e5fb"/>
              <path id="Trazado_213647" data-name="Trazado 213647" d="M1604.908,307.379a.468.468,0,1,1-.1-.654A.468.468,0,0,1,1604.908,307.379Z" transform="translate(-1601.485 -306.634)" fill="#d5e5fb"/>
            </g>
            <g id="Grupo_97414" data-name="Grupo 97414" transform="translate(3.873)">
              <path id="Trazado_213648" data-name="Trazado 213648" d="M1612.1,296.762a.468.468,0,1,1,.654-.1A.468.468,0,0,1,1612.1,296.762Z" transform="translate(-1611.913 -292.399)" fill="#d5e5fb"/>
              <path id="Trazado_213649" data-name="Trazado 213649" d="M1619.854,286.184a.468.468,0,1,1,.654-.1A.468.468,0,0,1,1619.854,286.184Z" transform="translate(-1618.382 -283.568)" fill="#d5e5fb"/>
              <path id="Trazado_213650" data-name="Trazado 213650" d="M1628.359,275.366a.468.468,0,1,1-.1-.654A.468.468,0,0,1,1628.359,275.366Z" transform="translate(-1624.937 -274.621)" fill="#d5e5fb"/>
            </g>
          </g>
        </g>
      </g>
      <g id="Grupo_97429" data-name="Grupo 97429" transform="translate(73.911 46.858)">
        <g id="Grupo_97421" data-name="Grupo 97421" transform="translate(0 4.228)">
          <g id="Grupo_97420" data-name="Grupo 97420">
            <g id="Grupo_97418" data-name="Grupo 97418" transform="translate(0 1.06)">
              <path id="Trazado_213651" data-name="Trazado 213651" d="M1519.531,502.36a.468.468,0,1,1,.538.386A.468.468,0,0,1,1519.531,502.36Z" transform="translate(-1519.524 -501.111)" fill="#d5e5fb"/>
              <path id="Trazado_213652" data-name="Trazado 213652" d="M1532.47,500.238a.468.468,0,1,1,.538.386A.468.468,0,0,1,1532.47,500.238Z" transform="translate(-1530.327 -499.34)" fill="#d5e5fb"/>
              <path id="Trazado_213653" data-name="Trazado 213653" d="M1546.119,498.475a.468.468,0,1,1,.386-.538A.468.468,0,0,1,1546.119,498.475Z" transform="translate(-1541.272 -497.545)" fill="#d5e5fb"/>
            </g>
            <g id="Grupo_97419" data-name="Grupo 97419" transform="translate(6.468)">
              <path id="Trazado_213654" data-name="Trazado 213654" d="M1558.692,495.94a.468.468,0,1,1,.538.386A.468.468,0,0,1,1558.692,495.94Z" transform="translate(-1558.685 -494.691)" fill="#d5e5fb"/>
              <path id="Trazado_213655" data-name="Trazado 213655" d="M1571.632,493.819a.468.468,0,1,1,.538.386A.468.468,0,0,1,1571.632,493.819Z" transform="translate(-1569.489 -492.92)" fill="#d5e5fb"/>
              <path id="Trazado_213656" data-name="Trazado 213656" d="M1585.28,492.056a.468.468,0,1,1,.386-.538A.468.468,0,0,1,1585.28,492.056Z" transform="translate(-1580.434 -491.126)" fill="#d5e5fb"/>
            </g>
          </g>
        </g>
        <g id="Grupo_97428" data-name="Grupo 97428" transform="translate(12.942)">
          <g id="Grupo_97424" data-name="Grupo 97424" transform="translate(0 2.106)">
            <g id="Grupo_97422" data-name="Grupo 97422" transform="translate(0 1.06)">
              <path id="Trazado_213657" data-name="Trazado 213657" d="M1597.886,489.515a.468.468,0,1,1,.538.386A.468.468,0,0,1,1597.886,489.515Z" transform="translate(-1597.88 -488.266)" fill="#d5e5fb"/>
              <path id="Trazado_213658" data-name="Trazado 213658" d="M1610.826,487.394a.468.468,0,1,1,.538.386A.468.468,0,0,1,1610.826,487.394Z" transform="translate(-1608.683 -486.495)" fill="#d5e5fb"/>
              <path id="Trazado_213659" data-name="Trazado 213659" d="M1624.475,485.631a.468.468,0,1,1,.386-.538A.468.468,0,0,1,1624.475,485.631Z" transform="translate(-1619.629 -484.701)" fill="#d5e5fb"/>
            </g>
            <g id="Grupo_97423" data-name="Grupo 97423" transform="translate(6.468)">
              <path id="Trazado_213660" data-name="Trazado 213660" d="M1637.047,483.1a.468.468,0,1,1,.538.386A.468.468,0,0,1,1637.047,483.1Z" transform="translate(-1637.041 -481.847)" fill="#d5e5fb"/>
              <path id="Trazado_213661" data-name="Trazado 213661" d="M1649.989,480.975a.468.468,0,1,1,.537.386A.468.468,0,0,1,1649.989,480.975Z" transform="translate(-1647.845 -480.076)" fill="#d5e5fb"/>
              <path id="Trazado_213662" data-name="Trazado 213662" d="M1663.636,479.211a.468.468,0,1,1,.386-.538A.468.468,0,0,1,1663.636,479.211Z" transform="translate(-1658.79 -478.281)" fill="#d5e5fb"/>
            </g>
          </g>
          <g id="Grupo_97427" data-name="Grupo 97427" transform="translate(12.85)">
            <g id="Grupo_97425" data-name="Grupo 97425" transform="translate(0 1.06)">
              <path id="Trazado_213663" data-name="Trazado 213663" d="M1675.684,476.763a.468.468,0,1,1,.538.386A.468.468,0,0,1,1675.684,476.763Z" transform="translate(-1675.678 -475.514)" fill="#d5e5fb"/>
              <path id="Trazado_213664" data-name="Trazado 213664" d="M1688.624,474.641a.468.468,0,1,1,.537.386A.468.468,0,0,1,1688.624,474.641Z" transform="translate(-1686.481 -473.742)" fill="#d5e5fb"/>
              <path id="Trazado_213665" data-name="Trazado 213665" d="M1702.273,472.878a.468.468,0,1,1,.386-.538A.468.468,0,0,1,1702.273,472.878Z" transform="translate(-1697.427 -471.948)" fill="#d5e5fb"/>
            </g>
            <g id="Grupo_97426" data-name="Grupo 97426" transform="translate(6.468)">
              <path id="Trazado_213666" data-name="Trazado 213666" d="M1714.845,470.343a.468.468,0,1,1,.538.386A.468.468,0,0,1,1714.845,470.343Z" transform="translate(-1714.839 -469.094)" fill="#d5e5fb"/>
              <path id="Trazado_213667" data-name="Trazado 213667" d="M1727.786,468.222a.468.468,0,1,1,.538.386A.468.468,0,0,1,1727.786,468.222Z" transform="translate(-1725.642 -467.323)" fill="#d5e5fb"/>
              <path id="Trazado_213668" data-name="Trazado 213668" d="M1741.434,466.459a.468.468,0,1,1,.386-.538A.468.468,0,0,1,1741.434,466.459Z" transform="translate(-1736.588 -465.529)" fill="#d5e5fb"/>
            </g>
          </g>
        </g>
      </g>
      <g id="Grupo_97441" data-name="Grupo 97441" transform="translate(49.723 8.653)">
        <g id="Grupo_97433" data-name="Grupo 97433" transform="translate(7.958 24.894)">
          <g id="Grupo_97432" data-name="Grupo 97432">
            <g id="Grupo_97430" data-name="Grupo 97430" transform="translate(1.996 6.243)">
              <path id="Trazado_213669" data-name="Trazado 213669" d="M1441.992,448.8a.468.468,0,1,1,.3-.588A.468.468,0,0,1,1441.992,448.8Z" transform="translate(-1440.054 -443.732)" fill="#d5e5fb"/>
              <path id="Trazado_213670" data-name="Trazado 213670" d="M1438,436.309a.468.468,0,1,1,.3-.588A.468.468,0,0,1,1438,436.309Z" transform="translate(-1436.72 -433.305)" fill="#d5e5fb"/>
              <path id="Trazado_213671" data-name="Trazado 213671" d="M1434.257,423.066a.468.468,0,1,1-.589-.3A.468.468,0,0,1,1434.257,423.066Z" transform="translate(-1433.343 -422.74)" fill="#d5e5fb"/>
            </g>
            <g id="Grupo_97431" data-name="Grupo 97431">
              <path id="Trazado_213672" data-name="Trazado 213672" d="M1429.908,411a.468.468,0,1,1,.3-.588A.468.468,0,0,1,1429.908,411Z" transform="translate(-1427.97 -405.932)" fill="#d5e5fb"/>
              <path id="Trazado_213673" data-name="Trazado 213673" d="M1425.915,398.509a.468.468,0,1,1,.3-.588A.468.468,0,0,1,1425.915,398.509Z" transform="translate(-1424.636 -395.505)" fill="#d5e5fb"/>
              <path id="Trazado_213674" data-name="Trazado 213674" d="M1422.172,385.266a.468.468,0,1,1-.588-.3A.468.468,0,0,1,1422.172,385.266Z" transform="translate(-1421.259 -384.941)" fill="#d5e5fb"/>
            </g>
          </g>
        </g>
        <g id="Grupo_97440" data-name="Grupo 97440">
          <g id="Grupo_97436" data-name="Grupo 97436" transform="translate(3.965 12.403)">
            <g id="Grupo_97434" data-name="Grupo 97434" transform="translate(1.996 6.243)">
              <path id="Trazado_213675" data-name="Trazado 213675" d="M1417.814,373.168a.468.468,0,1,1,.3-.588A.468.468,0,0,1,1417.814,373.168Z" transform="translate(-1415.875 -368.101)" fill="#d5e5fb"/>
              <path id="Trazado_213676" data-name="Trazado 213676" d="M1413.82,360.677a.468.468,0,1,1,.3-.588A.468.468,0,0,1,1413.82,360.677Z" transform="translate(-1412.542 -357.673)" fill="#d5e5fb"/>
              <path id="Trazado_213677" data-name="Trazado 213677" d="M1410.078,347.435a.468.468,0,1,1-.588-.3A.468.468,0,0,1,1410.078,347.435Z" transform="translate(-1409.165 -347.109)" fill="#d5e5fb"/>
            </g>
            <g id="Grupo_97435" data-name="Grupo 97435">
              <path id="Trazado_213678" data-name="Trazado 213678" d="M1405.729,335.368a.468.468,0,1,1,.3-.588A.468.468,0,0,1,1405.729,335.368Z" transform="translate(-1403.791 -330.301)" fill="#d5e5fb"/>
              <path id="Trazado_213679" data-name="Trazado 213679" d="M1401.737,322.878a.468.468,0,1,1,.3-.589A.468.468,0,0,1,1401.737,322.878Z" transform="translate(-1400.458 -319.874)" fill="#d5e5fb"/>
              <path id="Trazado_213680" data-name="Trazado 213680" d="M1397.995,309.635a.468.468,0,1,1-.588-.3A.468.468,0,0,1,1397.995,309.635Z" transform="translate(-1397.081 -309.31)" fill="#d5e5fb"/>
            </g>
          </g>
          <g id="Grupo_97439" data-name="Grupo 97439">
            <g id="Grupo_97437" data-name="Grupo 97437" transform="translate(1.996 6.243)">
              <path id="Trazado_213681" data-name="Trazado 213681" d="M1393.808,298.075a.468.468,0,1,1,.3-.588A.468.468,0,0,1,1393.808,298.075Z" transform="translate(-1391.87 -293.008)" fill="#d5e5fb"/>
              <path id="Trazado_213682" data-name="Trazado 213682" d="M1389.815,285.585a.468.468,0,1,1,.3-.588A.468.468,0,0,1,1389.815,285.585Z" transform="translate(-1388.536 -282.581)" fill="#d5e5fb"/>
              <path id="Trazado_213683" data-name="Trazado 213683" d="M1386.072,272.342a.468.468,0,1,1-.588-.3A.468.468,0,0,1,1386.072,272.342Z" transform="translate(-1385.158 -272.017)" fill="#d5e5fb"/>
            </g>
            <g id="Grupo_97438" data-name="Grupo 97438">
              <path id="Trazado_213684" data-name="Trazado 213684" d="M1381.724,260.276a.468.468,0,1,1,.3-.588A.468.468,0,0,1,1381.724,260.276Z" transform="translate(-1379.785 -255.209)" fill="#d5e5fb"/>
              <path id="Trazado_213685" data-name="Trazado 213685" d="M1377.731,247.786a.468.468,0,1,1,.3-.588A.468.468,0,0,1,1377.731,247.786Z" transform="translate(-1376.452 -244.782)" fill="#d5e5fb"/>
              <path id="Trazado_213686" data-name="Trazado 213686" d="M1373.989,234.543a.468.468,0,1,1-.588-.3A.468.468,0,0,1,1373.989,234.543Z" transform="translate(-1373.075 -234.217)" fill="#d5e5fb"/>
            </g>
          </g>
        </g>
      </g>
      <g id="Grupo_97453" data-name="Grupo 97453" transform="translate(8.464 8.607)">
        <g id="Grupo_97445" data-name="Grupo 97445" transform="translate(0 14.846)">
          <g id="Grupo_97444" data-name="Grupo 97444">
            <g id="Grupo_97442" data-name="Grupo 97442" transform="translate(0 3.723)">
              <path id="Trazado_213687" data-name="Trazado 213687" d="M1123.352,362.094a.468.468,0,1,1,.651.119A.468.468,0,0,1,1123.352,362.094Z" transform="translate(-1123.269 -358.883)" fill="#d5e5fb"/>
              <path id="Trazado_213688" data-name="Trazado 213688" d="M1134.144,354.645a.468.468,0,1,1,.651.119A.468.468,0,0,1,1134.144,354.645Z" transform="translate(-1132.279 -352.665)" fill="#d5e5fb"/>
              <path id="Trazado_213689" data-name="Trazado 213689" d="M1145.729,347.218a.468.468,0,1,1,.119-.651A.468.468,0,0,1,1145.729,347.218Z" transform="translate(-1141.406 -346.365)" fill="#d5e5fb"/>
            </g>
            <g id="Grupo_97443" data-name="Grupo 97443" transform="translate(5.394)">
              <path id="Trazado_213690" data-name="Trazado 213690" d="M1156.012,339.552a.468.468,0,1,1,.651.119A.468.468,0,0,1,1156.012,339.552Z" transform="translate(-1155.929 -336.341)" fill="#d5e5fb"/>
              <path id="Trazado_213691" data-name="Trazado 213691" d="M1166.8,332.1a.468.468,0,1,1,.651.119A.468.468,0,0,1,1166.8,332.1Z" transform="translate(-1164.938 -330.123)" fill="#d5e5fb"/>
              <path id="Trazado_213692" data-name="Trazado 213692" d="M1178.389,324.675a.468.468,0,1,1,.12-.651A.468.468,0,0,1,1178.389,324.675Z" transform="translate(-1174.066 -323.822)" fill="#d5e5fb"/>
            </g>
          </g>
        </g>
        <g id="Grupo_97452" data-name="Grupo 97452" transform="translate(10.793)">
          <g id="Grupo_97448" data-name="Grupo 97448" transform="translate(0 7.397)">
            <g id="Grupo_97446" data-name="Grupo 97446" transform="translate(0 3.723)">
              <path id="Trazado_213693" data-name="Trazado 213693" d="M1188.7,316.99a.468.468,0,1,1,.651.119A.468.468,0,0,1,1188.7,316.99Z" transform="translate(-1188.616 -313.779)" fill="#d5e5fb"/>
              <path id="Trazado_213694" data-name="Trazado 213694" d="M1199.491,309.541a.468.468,0,1,1,.651.119A.468.468,0,0,1,1199.491,309.541Z" transform="translate(-1197.626 -307.561)" fill="#d5e5fb"/>
              <path id="Trazado_213695" data-name="Trazado 213695" d="M1211.076,302.114a.468.468,0,1,1,.119-.651A.468.468,0,0,1,1211.076,302.114Z" transform="translate(-1206.754 -301.261)" fill="#d5e5fb"/>
            </g>
            <g id="Grupo_97447" data-name="Grupo 97447" transform="translate(5.394)">
              <path id="Trazado_213696" data-name="Trazado 213696" d="M1221.359,294.448a.468.468,0,1,1,.651.119A.468.468,0,0,1,1221.359,294.448Z" transform="translate(-1221.276 -291.237)" fill="#d5e5fb"/>
              <path id="Trazado_213697" data-name="Trazado 213697" d="M1232.151,287a.468.468,0,1,1,.651.119A.468.468,0,0,1,1232.151,287Z" transform="translate(-1230.286 -285.018)" fill="#d5e5fb"/>
              <path id="Trazado_213698" data-name="Trazado 213698" d="M1243.736,279.571a.468.468,0,1,1,.119-.651A.468.468,0,0,1,1243.736,279.571Z" transform="translate(-1239.414 -278.718)" fill="#d5e5fb"/>
            </g>
          </g>
          <g id="Grupo_97451" data-name="Grupo 97451" transform="translate(10.716)">
            <g id="Grupo_97449" data-name="Grupo 97449" transform="translate(0 3.723)">
              <path id="Trazado_213699" data-name="Trazado 213699" d="M1253.581,272.207a.468.468,0,1,1,.651.119A.468.468,0,0,1,1253.581,272.207Z" transform="translate(-1253.498 -268.997)" fill="#d5e5fb"/>
              <path id="Trazado_213700" data-name="Trazado 213700" d="M1264.373,264.759a.468.468,0,1,1,.651.119A.468.468,0,0,1,1264.373,264.759Z" transform="translate(-1262.508 -262.779)" fill="#d5e5fb"/>
              <path id="Trazado_213701" data-name="Trazado 213701" d="M1275.958,257.331a.468.468,0,1,1,.119-.651A.468.468,0,0,1,1275.958,257.331Z" transform="translate(-1271.636 -256.478)" fill="#d5e5fb"/>
            </g>
            <g id="Grupo_97450" data-name="Grupo 97450" transform="translate(5.394)">
              <path id="Trazado_213702" data-name="Trazado 213702" d="M1286.241,249.665a.468.468,0,1,1,.651.119A.468.468,0,0,1,1286.241,249.665Z" transform="translate(-1286.158 -246.455)" fill="#d5e5fb"/>
              <path id="Trazado_213703" data-name="Trazado 213703" d="M1297.033,242.216a.468.468,0,1,1,.651.119A.468.468,0,0,1,1297.033,242.216Z" transform="translate(-1295.167 -240.236)" fill="#d5e5fb"/>
              <path id="Trazado_213704" data-name="Trazado 213704" d="M1308.618,234.789a.468.468,0,1,1,.119-.651A.468.468,0,0,1,1308.618,234.789Z" transform="translate(-1304.296 -233.936)" fill="#d5e5fb"/>
            </g>
          </g>
        </g>
      </g>
      <g id="Grupo_97462" data-name="Grupo 97462" transform="translate(97.89 23.856)">
        <g id="Grupo_97457" data-name="Grupo 97457">
          <g id="Grupo_97456" data-name="Grupo 97456">
            <g id="Grupo_97454" data-name="Grupo 97454">
              <path id="Trazado_213705" data-name="Trazado 213705" d="M1664.845,326.393a.468.468,0,1,1-.014.662A.468.468,0,0,1,1664.845,326.393Z" transform="translate(-1664.701 -326.263)" fill="#d5e5fb"/>
              <path id="Trazado_213706" data-name="Trazado 213706" d="M1673.917,335.862a.468.468,0,1,1-.014.662A.468.468,0,0,1,1673.917,335.862Z" transform="translate(-1672.275 -334.168)" fill="#d5e5fb"/>
              <path id="Trazado_213707" data-name="Trazado 213707" d="M1683.094,346.116a.468.468,0,1,1,.662.014A.468.468,0,0,1,1683.094,346.116Z" transform="translate(-1679.948 -342.176)" fill="#d5e5fb"/>
            </g>
            <g id="Grupo_97455" data-name="Grupo 97455" transform="translate(4.534 4.733)">
              <path id="Trazado_213708" data-name="Trazado 213708" d="M1692.3,355.048a.468.468,0,1,1-.014.662A.468.468,0,0,1,1692.3,355.048Z" transform="translate(-1692.154 -354.918)" fill="#d5e5fb"/>
              <path id="Trazado_213709" data-name="Trazado 213709" d="M1701.371,364.516a.468.468,0,1,1-.014.662A.468.468,0,0,1,1701.371,364.516Z" transform="translate(-1699.728 -362.822)" fill="#d5e5fb"/>
              <path id="Trazado_213710" data-name="Trazado 213710" d="M1710.548,374.771a.468.468,0,1,1,.662.014A.468.468,0,0,1,1710.548,374.771Z" transform="translate(-1707.401 -370.831)" fill="#d5e5fb"/>
            </g>
          </g>
        </g>
        <g id="Grupo_97461" data-name="Grupo 97461" transform="translate(9.073 9.47)">
          <g id="Grupo_97460" data-name="Grupo 97460">
            <g id="Grupo_97458" data-name="Grupo 97458">
              <path id="Trazado_213711" data-name="Trazado 213711" d="M1719.776,383.727a.468.468,0,1,1-.014.662A.468.468,0,0,1,1719.776,383.727Z" transform="translate(-1719.632 -383.597)" fill="#d5e5fb"/>
              <path id="Trazado_213712" data-name="Trazado 213712" d="M1728.848,393.2a.468.468,0,1,1-.014.662A.468.468,0,0,1,1728.848,393.2Z" transform="translate(-1727.205 -391.502)" fill="#d5e5fb"/>
              <path id="Trazado_213713" data-name="Trazado 213713" d="M1738.026,403.45a.468.468,0,1,1,.662.014A.468.468,0,0,1,1738.026,403.45Z" transform="translate(-1734.879 -399.51)" fill="#d5e5fb"/>
            </g>
            <g id="Grupo_97459" data-name="Grupo 97459" transform="translate(4.534 4.733)">
              <path id="Trazado_213714" data-name="Trazado 213714" d="M1747.23,412.382a.468.468,0,1,1-.014.662A.468.468,0,0,1,1747.23,412.382Z" transform="translate(-1747.086 -412.252)" fill="#d5e5fb"/>
              <path id="Trazado_213715" data-name="Trazado 213715" d="M1756.3,421.85a.468.468,0,1,1-.014.662A.468.468,0,0,1,1756.3,421.85Z" transform="translate(-1754.659 -420.156)" fill="#d5e5fb"/>
              <path id="Trazado_213716" data-name="Trazado 213716" d="M1765.479,432.106a.468.468,0,1,1,.662.014A.468.468,0,0,1,1765.479,432.106Z" transform="translate(-1762.333 -428.165)" fill="#d5e5fb"/>
            </g>
          </g>
        </g>
      </g>
      <g id="Grupo_97463" data-name="Grupo 97463" transform="translate(41.052)">
        <circle id="Elipse_5395" data-name="Elipse 5395" cx="6.624" cy="6.624" r="6.624" fill="#d5e5fb"/>
      </g>
      <g id="Grupo_97464" data-name="Grupo 97464" transform="translate(43.955 1.84)">
        <path id="Trazado_213717" data-name="Trazado 213717" d="M1347.808,195.093a2.126,2.126,0,1,1,2.126,2.126A2.126,2.126,0,0,1,1347.808,195.093Z" transform="translate(-1346.213 -192.967)" fill="#fff"/>
        <path id="Trazado_213718" data-name="Trazado 213718" d="M1341.875,218.71a3.721,3.721,0,0,0-3.721,3.72h7.441A3.72,3.72,0,0,0,1341.875,218.71Z" transform="translate(-1338.154 -214.458)" fill="#fff"/>
      </g>
      <g id="Grupo_97465" data-name="Grupo 97465" transform="translate(83.362 8.101)">
        <circle id="Elipse_5396" data-name="Elipse 5396" cx="10.207" cy="10.207" r="10.207" fill="#c6dcf7"/>
      </g>
      <g id="Grupo_97466" data-name="Grupo 97466" transform="translate(87.836 10.937)">
        <circle id="Elipse_5397" data-name="Elipse 5397" cx="3.276" cy="3.276" r="3.276" transform="translate(2.457)" fill="#fff"/>
        <path id="Trazado_213719" data-name="Trazado 213719" d="M1609.565,287.709a5.733,5.733,0,0,0-5.733,5.733H1615.3A5.733,5.733,0,0,0,1609.565,287.709Z" transform="translate(-1603.832 -281.157)" fill="#fff"/>
      </g>
      <path id="Trazado_213720" data-name="Trazado 213720" d="M1751.526,427.177a6.891,6.891,0,1,1,6.891,6.891A6.891,6.891,0,0,1,1751.526,427.177Z" transform="translate(-1639.296 -380.9)" fill="#d5e5fb"/>
      <g id="Grupo_97467" data-name="Grupo 97467" transform="translate(116.159 41.331)">
        <path id="Trazado_213721" data-name="Trazado 213721" d="M1779.092,438.646a1.073,1.073,0,0,0-.054-.373.783.783,0,0,0-.191-.295,1.472,1.472,0,0,0-.346-.247,3.9,3.9,0,0,0-.52-.224,10.264,10.264,0,0,1-.959-.4,3.234,3.234,0,0,1-.736-.482,1.9,1.9,0,0,1-.47-.631,2.145,2.145,0,0,1,0-1.632,1.806,1.806,0,0,1,.442-.608,2.259,2.259,0,0,1,.681-.416,3.011,3.011,0,0,1,.884-.2l.016-1.077.867.013-.016,1.093a2.69,2.69,0,0,1,.842.259,2.036,2.036,0,0,1,1.037,1.2,2.7,2.7,0,0,1,.13.911l-1.566-.023a1.32,1.32,0,0,0-.255-.908.918.918,0,0,0-.714-.31,1.167,1.167,0,0,0-.421.062.788.788,0,0,0-.293.182.741.741,0,0,0-.172.277,1.089,1.089,0,0,0-.059.346.993.993,0,0,0,.049.338.737.737,0,0,0,.183.282,1.49,1.49,0,0,0,.349.247,4.965,4.965,0,0,0,.541.242q.523.2.951.417a3.271,3.271,0,0,1,.733.487,1.836,1.836,0,0,1,.629,1.482,1.959,1.959,0,0,1-.166.793,1.785,1.785,0,0,1-.445.6,2.181,2.181,0,0,1-.686.4,3.243,3.243,0,0,1-.889.188l-.015,1-.862-.013.015-1a3.645,3.645,0,0,1-.867-.209,2.309,2.309,0,0,1-.739-.446,2.065,2.065,0,0,1-.51-.725,2.514,2.514,0,0,1-.18-1.04l1.567.023a1.543,1.543,0,0,0,.092.6,1,1,0,0,0,.263.386.973.973,0,0,0,.379.207,1.669,1.669,0,0,0,.436.064,1.393,1.393,0,0,0,.448-.059.929.929,0,0,0,.325-.177.739.739,0,0,0,.2-.272A.9.9,0,0,0,1779.092,438.646Z" transform="translate(-1775.314 -432.061)" fill="#fff"/>
      </g>
    </g>
    <g id="Grupo_97470" data-name="Grupo 97470" transform="translate(553.725 322.153)">
      <g id="Grupo_97469" data-name="Grupo 97469" transform="translate(33.735 68.988)">
        <path id="Trazado_213722" data-name="Trazado 213722" d="M2753.057,1469.35l-11.922,1.7a2.858,2.858,0,0,1-3.223-2.419l-.736-5.167a2.858,2.858,0,0,1,2.419-3.223l11.922-1.7a2.858,2.858,0,0,1,3.223,2.419l.736,5.166A2.858,2.858,0,0,1,2753.057,1469.35Z" transform="translate(-2737.147 -1456.964)" fill="#233862"/>
        <path id="Trazado_213723" data-name="Trazado 213723" d="M2746.688,1455.406l.745,5.226a2.867,2.867,0,0,0,1.684,2.214,2.813,2.813,0,0,0,.929.234h0a2.772,2.772,0,0,0,.621-.02l11.9-1.7a2.868,2.868,0,0,0,2.428-3.235l-.744-5.227a2.869,2.869,0,0,0-3.236-2.428l-4.1.584-.159-1.115a.944.944,0,0,0-1.067-.8l-.449.064-2.493.355-.619.089a.944.944,0,0,0-.8,1.067l.158,1.115-2.374.338c-.094.013-.186.031-.275.053h0a2.87,2.87,0,0,0-1.975,1.725h0A2.839,2.839,0,0,0,2746.688,1455.406Zm9.646-4.264-4.258.607-.159-1.115a.353.353,0,0,1,.3-.4l1.069-.152,1.962-.28.53-.075a.362.362,0,0,1,.106,0,.354.354,0,0,1,.293.3Z" transform="translate(-2745.089 -1449.134)" fill="#2b478b"/>
      </g>
      <path id="Trazado_213724" data-name="Trazado 213724" d="M2778.584,1426.869a4.143,4.143,0,0,1,.651,1.167c.168,2.258-.864,2.571,1.808,3.825,0,0,1.141.435,1.16-.45s-.792-.9-.643-2.14c.171-1.43.154-1.443-.785-2.19l-.622-1.027Z" transform="translate(-2738.005 -1360.878)" fill="#ffb27d"/>
      <path id="Trazado_213725" data-name="Trazado 213725" d="M2779.805,1437s-.6.628-.641.89c-.122.839-.4,1.2-.262,1.293.292.189.678-.432.863-.989A2.55,2.55,0,0,0,2779.805,1437Z" transform="translate(-2738.238 -1370.017)" fill="#ffb27d"/>
      <path id="Trazado_213726" data-name="Trazado 213726" d="M2626.7,1734.286l.632-4.55-2.654-2.217-.836,6.024Z" transform="translate(-2608.82 -1612.552)" fill="#ffb27d"/>
      <path id="Trazado_213727" data-name="Trazado 213727" d="M2587.791,1763.981h10.818a5.942,5.942,0,0,0-.306-2.9c-.542-1.2-1.384-1.941-1.461-2.861a3.25,3.25,0,0,1-3.1.953,11.871,11.871,0,0,1-1.877,2.433C2591.161,1762.115,2588.009,1761.934,2587.791,1763.981Z" transform="translate(-2578.724 -1638.182)" fill="#233862"/>
      <path id="Trazado_213728" data-name="Trazado 213728" d="M2600.847,1366.563c.708,5.691,1.286,11.057,1.758,16.057,2.517,26.644,2.023,42.929,2.023,42.929s.182.482,1.743.49a8.933,8.933,0,0,0,1.746-.188s5.637-17.4,5.2-27.3a15.2,15.2,0,0,0-.44-3.2c-1.353-5.065,5-24.438-1.906-31.653S2600.522,1363.951,2600.847,1366.563Z" transform="translate(-2589.607 -1306.265)" fill="#f99746"/>
      <path id="Trazado_213729" data-name="Trazado 213729" d="M2600.847,1366.563c.708,5.691,1.286,11.057,1.758,16.057l10.715,15.931a15.2,15.2,0,0,0-.44-3.2c-1.353-5.065,5-24.438-1.906-31.653S2600.522,1363.951,2600.847,1366.563Z" transform="translate(-2589.607 -1306.265)" fill="#ed7d2b"/>
      <path id="Trazado_213730" data-name="Trazado 213730" d="M2535.623,1037.458s.261-1.3.554-2.292c.13-.439-.775-3.323-1.4-3.678s-2.259,1.587-1.8,3.078c.237.766.627,3.259.627,3.259Z" transform="translate(-2532.896 -1031.445)" fill="#ffb27d"/>
      <path id="Trazado_213731" data-name="Trazado 213731" d="M2549.4,1053.5s.341-.754.648-.876.638-1.355.864-1.844c0,0-.218-.32-.6.092-.233.251-.752.987-.752.987Z" transform="translate(-2546.676 -1047.491)" fill="#ffb27d"/>
      <path id="Trazado_213732" data-name="Trazado 213732" d="M2732.9,1729.968c.153-1.458.191-5.295.191-5.295s-3.91-1.25-3.766-.392a27.632,27.632,0,0,1,.515,6.307l1.581.945Z" transform="translate(-2696.88 -1609.598)" fill="#ffb27d"/>
      <path id="Trazado_213733" data-name="Trazado 213733" d="M2620.721,1390.816s15.1,41.4,18.076,59.358a3.01,3.01,0,0,0,1.974.316,2.207,2.207,0,0,0,1.856-1.19s2.729-21.524-2.694-29c-3.726-5.134,1.606-27.68-7.071-29.488S2620.721,1390.816,2620.721,1390.816Z" transform="translate(-2606.215 -1330.789)" fill="#f99746"/>
      <path id="Trazado_213734" data-name="Trazado 213734" d="M2633.659,1120.581a4.775,4.775,0,0,0,.228.505,4.066,4.066,0,0,0,.439.675,6.032,6.032,0,0,1-.183-.782v0c-.024-.138-.045-.286-.065-.446a16.718,16.718,0,0,1-.037-2.974,16.293,16.293,0,0,0,.253,2.95c.023.125.049.251.078.375a6.906,6.906,0,0,0,.373,1.19q.042.106.093.208a30.4,30.4,0,0,1,3.443,3.861c.846,1.088,1.7,2.273,2.511,3.468.312.461.618.921.914,1.378v0c.125.193.247.382.366.572,0,0,0,0,0,0,.15.236.294.469.437.7.4.643.764,1.266,1.094,1.858.076.134.15.267.22.4,1.02,1.872,1.629,3.357,1.49,3.926l.187-.129.115-.078c.418-.289,1.24-.854,2.282-1.561l.068-.21.52-1.611a3.735,3.735,0,0,1-.04,1.452c1.633-1.1,3.67-2.464,5.517-3.645h0c1.38-.884,2.651-1.667,3.569-2.174a23.484,23.484,0,0,0-.579-2.337c.539.239,1.054,1.37,1.3,1.966.062-.031.121-.058.175-.08,0,0,.1-4.616-5.927-8.97-3.158-2.282-5.4-3.366-4.926-5.6s.88-12.07-6.076-10.515a4.316,4.316,0,0,0-1.47-.625,1.31,1.31,0,0,1,.543.363,5.18,5.18,0,0,0-2.843.118,4.341,4.341,0,0,0-1.725,1.869h0c-.035.064-.073.126-.11.193-.248.433-.49.92-.724,1.444a24.308,24.308,0,0,0-1.1,3.04h0c-.1.356-.2.714-.288,1.079a.32.32,0,0,0-.012.054h0C2633.063,1115.4,2632.844,1118.5,2633.659,1120.581Z" transform="translate(-2616.581 -1092.293)" fill="#163560"/>
      <path id="Trazado_213735" data-name="Trazado 213735" d="M2644.873,1185.4a6.131,6.131,0,0,0,3.619,1.233,4.881,4.881,0,0,0,2.831-2.007c-.621-.222-.675-1.129-.1-4.906l-.3.014-5.008.24s-.117,1.547-.328,2.99C2645.414,1184.178,2645.17,1185.315,2644.873,1185.4Z" transform="translate(-2626.378 -1155.233)" fill="#ffb27d"/>
      <path id="Trazado_213736" data-name="Trazado 213736" d="M2649.547,1180.047s-.117,1.547-.328,2.99c2.733.328,4.542-1.941,5.336-3.229Z" transform="translate(-2630.007 -1155.303)" fill="#ed975d"/>
      <path id="Trazado_213737" data-name="Trazado 213737" d="M2646.23,1124.022a14.469,14.469,0,0,0,2.391-3.918c.449-1.339.507-6.544-4.728-6.572a7.038,7.038,0,0,0-3.05.662c-1.225.586-3.072,1.97-1.938,6.687l.243,1.573Z" transform="translate(-2621.101 -1099.972)" fill="#163560"/>
      <path id="Trazado_213738" data-name="Trazado 213738" d="M2594.7,1239.071s8.883,2.962,17.064.971c.1-.023,4.772-4.162,4.772-4.162-.114-.312-.972-5.442-1.084-5.729-1.451-3.746-4.1-24.074-6.32-25.077a5.021,5.021,0,0,1-3.567.915c-1.594-.141-2.128-.83-2-1.57-1.764.834-3.119,1.609-3.119,1.609C2598.832,1208.444,2594.7,1239.071,2594.7,1239.071Z" transform="translate(-2584.488 -1175.849)" fill="#fff"/>
      <path id="Trazado_213739" data-name="Trazado 213739" d="M2638.126,1134.984s6.424,1.064,7.025-2.947,1.835-6.575-2.241-7.424-5.1.562-5.631,1.852S2636.47,1134.6,2638.126,1134.984Z" transform="translate(-2619.697 -1109.01)" fill="#ffb27d"/>
      <path id="Trazado_213740" data-name="Trazado 213740" d="M2655.769,1119.609s1.063,4.969,3.666,6.067,3.884.548,3.884.548a7.747,7.747,0,0,1-1.833-4.9S2657.432,1117.567,2655.769,1119.609Z" transform="translate(-2635.475 -1104.539)" fill="#163560"/>
      <path id="Trazado_213741" data-name="Trazado 213741" d="M2639.446,1120.595a5.744,5.744,0,0,0-1.946,1.828c-.473.974-.93,3.055-1.533,2.892,0,0-.852-3.4.91-4.984C2638.745,1118.648,2639.446,1120.595,2639.446,1120.595Z" transform="translate(-2618.771 -1105.078)" fill="#163560"/>
      <path id="Trazado_213742" data-name="Trazado 213742" d="M2536.708,1066.582a4.1,4.1,0,0,1,1.148-.355,3.573,3.573,0,0,1,1.01.105s1.813,11.267,1.947,11.864,7.774,9.2,9.834,9.169a9.331,9.331,0,0,1,4.472,1.681,43.374,43.374,0,0,0-4.57,13.719c-.711,5.9-2.455,27.862-2.455,27.862s.133,1.341-2.373.62a8.562,8.562,0,0,1-3.133-1.318s2.3-22.7,2.785-29.755c.064-.948.484-4.248.008-4.9-3.168-4.349-8.171-11.4-8.45-12.893C2536.523,1080.181,2536.708,1066.582,2536.708,1066.582Z" transform="translate(-2536.044 -1060.477)" fill="#2b478b"/>
      <path id="Trazado_213743" data-name="Trazado 213743" d="M2696.416,1763.981h10.818a5.943,5.943,0,0,0-.306-2.9c-.541-1.2-1.384-1.941-1.461-2.861a3.25,3.25,0,0,1-3.1.953,11.863,11.863,0,0,1-1.877,2.433C2699.786,1762.115,2696.634,1761.934,2696.416,1763.981Z" transform="translate(-2669.408 -1638.182)" fill="#233862"/>
      <path id="Trazado_213744" data-name="Trazado 213744" d="M2664.448,1248.73s.73,3.528,4.075,3.305a40.05,40.05,0,0,0,8.194-1.9s-.226-3.677-.591-8.828c-.355-5-.841-11.378-1.383-17.13-.741-7.854-1.582-14.529-2.329-14.889a26.839,26.839,0,0,0-5.626-1.744s-2.455,10.488-2.876,15.667C2663.518,1228.06,2664.448,1248.73,2664.448,1248.73Z" transform="translate(-2642.191 -1178.459)" fill="#2b478b"/>
      <path id="Trazado_213745" data-name="Trazado 213745" d="M2644.7,1173.748a2.87,2.87,0,0,1-1.7.32c-.631-.095-.774-.844-.774-.844a2.488,2.488,0,0,1,1.139,0A4.857,4.857,0,0,1,2644.7,1173.748Z" transform="translate(-2624.167 -1149.757)" fill="#fff"/>
      <path id="Trazado_213746" data-name="Trazado 213746" d="M2705.384,1282.248s.048,11.5,4.051,19.662c.633,1.291,1.084,1.806,1.394,1.761-.354-5-.841-11.378-1.383-17.13Z" transform="translate(-2676.895 -1240.824)" fill="#233862"/>
      <path id="Trazado_213747" data-name="Trazado 213747" d="M2702.2,1214.01s3.69,1.086,5.36,3.471,7.074,15.818,8.505,20.747a78.7,78.7,0,0,1,2.067,12.2,7.5,7.5,0,0,1-4.4,0s-3.073-10.984-4.24-12.2-8.011-13.513-8.011-13.513Z" transform="translate(-2673.636 -1183.856)" fill="#2b478b"/>
    </g>
    <g id="Grupo_97471" data-name="Grupo 97471" transform="translate(285.931 269.778)">
      <path id="Trazado_213748" data-name="Trazado 213748" d="M1294.012,853.312s-29.6-10.272-92.687,2.007c-19.517,3.8-43.937,11.485-70.259,18L1115.5,818.893l.453-.117c7.958-2.05,34.588-9.458,65.442-20.939,27.854-10.363,59.31-23.862,82.448-50.018l22.35,78.152Z" transform="translate(-1081.813 -742.289)" fill="#ed7d2b"/>
      <path id="Trazado_213749" data-name="Trazado 213749" d="M1288.485,825.971c-9.973-2.363-39.541-7.121-90.623,2.753-19.878,3.843-44.735,11.678-71.539,18.3l-8.077-28.246c7.958-2.05,34.588-9.458,65.442-20.939,27.854-10.363,59.31-23.862,82.448-50.018Z" transform="translate(-1084.104 -742.289)" fill="#f99746"/>
      <path id="Trazado_213750" data-name="Trazado 213750" d="M2041.433,829.01h0a1.7,1.7,0,0,1-2.1-1.167l-31.84-111.335a1.7,1.7,0,0,1,1.167-2.1h0a1.7,1.7,0,0,1,2.1,1.167L2042.6,826.908A1.7,1.7,0,0,1,2041.433,829.01Z" transform="translate(-1826.422 -714.34)" fill="#ed7d2b"/>
      <path id="Trazado_213751" data-name="Trazado 213751" d="M928.9,1241.891l31.969-9.142-15.581-54.485-31.969,9.142a2.463,2.463,0,0,0-1.686,3.036l14.231,49.763A2.462,2.462,0,0,0,928.9,1241.891Z" transform="translate(-911.534 -1101.64)" fill="#d66316"/>
      <path id="Trazado_213752" data-name="Trazado 213752" d="M1324.7,1490.15l-28.388.121-14.164-30-5.234-11.087.01,0,25.889-8.174.468,1.051,4.809,10.8Z" transform="translate(-1216.569 -1320.989)" fill="#f99746"/>
      <path id="Trazado_213753" data-name="Trazado 213753" d="M1351.157,1550.026l-28.388.121-14.164-30,25.943-7.419Z" transform="translate(-1243.022 -1380.864)" fill="#ed7d2b"/>
    </g>
    <g id="Grupo_97472" data-name="Grupo 97472" transform="translate(496.21 281.723)">
      <path id="Trazado_213754" data-name="Trazado 213754" d="M2215.291,787.33h0a1.846,1.846,0,0,1-.256,2.59l-27.355,22.43a1.846,1.846,0,0,1-2.59-.256h0a1.846,1.846,0,0,1,.256-2.59l27.355-22.43A1.846,1.846,0,0,1,2215.291,787.33Z" transform="translate(-2184.674 -786.658)" fill="#f99746"/>
      <path id="Trazado_213755" data-name="Trazado 213755" d="M2271.339,1111.472h0a1.846,1.846,0,0,1-2.013,1.65l-35.2-3.483a1.846,1.846,0,0,1-1.65-2.013h0a1.846,1.846,0,0,1,2.013-1.651l35.2,3.483A1.846,1.846,0,0,1,2271.339,1111.472Z" transform="translate(-2224.57 -1053.229)" fill="#f99746"/>
      <path id="Trazado_213756" data-name="Trazado 213756" d="M2275.765,955.658h0a1.846,1.846,0,0,1-1.482,2.14l-49.327,8.972a1.846,1.846,0,0,1-2.14-1.482h0a1.846,1.846,0,0,1,1.481-2.14l49.327-8.972A1.846,1.846,0,0,1,2275.765,955.658Z" transform="translate(-2216.492 -926.483)" fill="#f99746"/>
    </g>
    <g id="Grupo_97473" data-name="Grupo 97473" transform="translate(391.799 318.553)">
      <path id="Trazado_213757" data-name="Trazado 213757" d="M1634.208,1717.1a10.418,10.418,0,0,1,.273-2.551c.273-.636,1.273-3.228,1.273-3.228h3.91a23.968,23.968,0,0,1,.773,3.137c.045.773,0,2.642,0,2.642Z" transform="translate(-1620.715 -1595.428)" fill="#233862"/>
      <path id="Trazado_213758" data-name="Trazado 213758" d="M1752.933,1717.1a10.409,10.409,0,0,0-.273-2.551c-.273-.636-1.273-3.228-1.273-3.228h-3.91a23.956,23.956,0,0,0-.773,3.137c-.046.773,0,2.642,0,2.642Z" transform="translate(-1714.614 -1595.428)" fill="#233862"/>
      <path id="Trazado_213759" data-name="Trazado 213759" d="M1664.4,1084.57a36.6,36.6,0,0,1-.683,6.172l-4.318,3.012,16.254,2.432-3.876-5.356s-1.17-5.715-.557-7.829S1664.4,1084.57,1664.4,1084.57Z" transform="translate(-1641.743 -1070.339)" fill="#ffb27d"/>
      <path id="Trazado_213760" data-name="Trazado 213760" d="M1689.533,1099.371s1.285,3.094,3.706,3.026,2.972-2.806,2.972-2.806Z" transform="translate(-1666.902 -1084.552)" fill="#ed985f"/>
      <path id="Trazado_213761" data-name="Trazado 213761" d="M1672.577,1021.961a38.817,38.817,0,0,0-1.328-5.085c-.546-1.182-1-6.456,5.047-6.729a6.967,6.967,0,0,0,3.592-.5s0,.773-.318,1.046a4.019,4.019,0,0,1,3.728,1.319c1.637,1.819-1.091,8.184-.955,9.684Z" transform="translate(-1651.391 -1009.647)" fill="#2c3a64"/>
      <path id="Trazado_213762" data-name="Trazado 213762" d="M1685.106,1051.346c-1.754-.031-4.983-2.367-4.983-5.26v-4.514a1.8,1.8,0,0,1,1.637-1.92h6.693a1.8,1.8,0,0,1,1.637,1.92v4.259C1690.089,1048.864,1687.118,1051.381,1685.106,1051.346Z" transform="translate(-1659.047 -1034.696)" fill="#ffb27d"/>
      <path id="Trazado_213763" data-name="Trazado 213763" d="M1678.995,1038.815s.009-2.712,2.157-3.129,6.956,1.322,7.638-.656-9.294-1.943-9.8-.682S1678.995,1038.815,1678.995,1038.815Z" transform="translate(-1657.918 -1029.528)" fill="#2c3a64"/>
      <path id="Trazado_213764" data-name="Trazado 213764" d="M1633.175,1344.942s.684,20.89-.339,32.81.007,28.507.007,28.507a7.736,7.736,0,0,0,6.818,0s3.889-23.027,3.865-28.507c-.026-5.836,4.233-31.9,4.233-31.9Z" transform="translate(-1619.192 -1289.563)" fill="#2b478b"/>
      <path id="Trazado_213765" data-name="Trazado 213765" d="M1708.274,1406.08a7.732,7.732,0,0,1-6.817,0s-3.889-23.027-3.864-28.507c.011-2.465-.742-8.538-1.616-14.731-1.2-8.472-2.618-17.167-2.618-17.167l15.15-.946s-1.249,20.926-.226,32.844S1708.274,1406.08,1708.274,1406.08Z" transform="translate(-1670.096 -1289.384)" fill="#2b478b"/>
      <path id="Trazado_213766" data-name="Trazado 213766" d="M1657.943,1171.628a75.813,75.813,0,0,1-12.351,1.251,59.719,59.719,0,0,1-7.585-.58c-2.458-.326-4.22-.671-4.22-.671s-1.309.115-.536-6.341a90.752,90.752,0,0,0,.273-13.913c-.015-.507,0-1.108.027-1.776.251-5.321,1.86-14.9,3.086-15.414a22.461,22.461,0,0,1,5.046-1.008c0,.063,1.87,2.8,4.089,3.1a7.694,7.694,0,0,0,3.971-3.014,43.232,43.232,0,0,1,6.224,1.2s.232,1.015,1.108,18.621C1657.422,1160.06,1659.8,1171.651,1657.943,1171.628Z" transform="translate(-1619.712 -1112.773)" fill="#fff"/>
      <path id="Trazado_213767" data-name="Trazado 213767" d="M1710.823,1432.436c.011-2.465-.742-8.538-1.616-14.731a29.152,29.152,0,0,1,3.117-7.259C1715.12,1418.289,1710.823,1432.436,1710.823,1432.436Z" transform="translate(-1683.327 -1344.248)" fill="#233862"/>
      <path id="Trazado_213768" data-name="Trazado 213768" d="M1560.358,1159.676c-.154.128.383,1.459,1.174,3.194,1.629,3.564,4.333,8.828,4.333,8.828a15.589,15.589,0,0,1-.821,2.4,57.308,57.308,0,0,1-9.357-8.949,17.255,17.255,0,0,1-3.173-5.161c10.132-20.623,17.262-21.384,17.262-21.384l-.842,13.629S1560.827,1159.285,1560.358,1159.676Z" transform="translate(-1552.515 -1117.307)" fill="#fff"/>
      <path id="Trazado_213769" data-name="Trazado 213769" d="M1628.2,1333.513s2.455-2.273,3.455-1,1.182,3.274.409,3.137-2.364-.864-2.592-.5-1.246,1.059-1.555.507S1628.2,1333.513,1628.2,1333.513Z" transform="translate(-1615.391 -1278.863)" fill="#ffb27d"/>
      <path id="Trazado_213770" data-name="Trazado 213770" d="M1581.9,1294.336a15.594,15.594,0,0,1-.821,2.4,57.306,57.306,0,0,1-9.357-8.949,11.672,11.672,0,0,0,5.844-2.282C1579.2,1289.072,1581.9,1294.336,1581.9,1294.336Z" transform="translate(-1568.551 -1239.945)" fill="#ffb27d"/>
      <path id="Trazado_213771" data-name="Trazado 213771" d="M1784.717,1161.013a17.255,17.255,0,0,1-3.172,5.161,57.312,57.312,0,0,1-9.357,8.949,15.635,15.635,0,0,1-.821-2.4s2.7-5.264,4.333-8.828c.791-1.735,1.328-3.066,1.174-3.195-.364-.3-5.317-4.606-7.526-6.525l-1.05-.914-.506-13.427S1774.585,1140.39,1784.717,1161.013Z" transform="translate(-1732.235 -1118.33)" fill="#fff"/>
      <path id="Trazado_213772" data-name="Trazado 213772" d="M1770.747,1333.513s-2.455-2.273-3.455-1-1.182,3.274-.409,3.137,2.364-.864,2.591-.5,1.246,1.059,1.555.507S1770.747,1333.513,1770.747,1333.513Z" transform="translate(-1731.076 -1278.863)" fill="#ffb27d"/>
      <path id="Trazado_213773" data-name="Trazado 213773" d="M1789.433,1294.336a15.612,15.612,0,0,0,.821,2.4,57.3,57.3,0,0,0,9.357-8.949,11.673,11.673,0,0,1-5.845-2.282C1792.138,1289.072,1789.433,1294.336,1789.433,1294.336Z" transform="translate(-1750.302 -1239.945)" fill="#ffb27d"/>
      <path id="Trazado_213774" data-name="Trazado 213774" d="M1682.227,1126.884a1.726,1.726,0,0,0-.926,1.119s2.895,2.978,4.789,3.023Z" transform="translate(-1660.03 -1107.52)" fill="#ed7d2b"/>
      <path id="Trazado_213775" data-name="Trazado 213775" d="M1710.3,1130.266l3.737-4.293a1.753,1.753,0,0,1,.76,1.343S1711.9,1130.38,1710.3,1130.266Z" transform="translate(-1684.237 -1106.76)" fill="#ed7d2b"/>
      <path id="Trazado_213776" data-name="Trazado 213776" d="M1695.76,1149.943s-2.852,24.62-1.859,27.621a20.516,20.516,0,0,0,1.74,3.814,1.011,1.011,0,0,0,1.75,0c.757-1.315,1.747-3.218,1.747-4.183,0-1.564-2.164-27.269-2.164-27.269Z" transform="translate(-1670.374 -1126.753)" fill="#f99746"/>
      <path id="Trazado_213777" data-name="Trazado 213777" d="M1700.526,1142.233a17.973,17.973,0,0,1,2.773-.066.291.291,0,0,1,.223.432c-.294.529-.895,1.448-1.522,1.448C1701.118,1144.046,1699.744,1142.294,1700.526,1142.233Z" transform="translate(-1675.886 -1120.25)" fill="#ed7d2b"/>
      <path id="Trazado_213778" data-name="Trazado 213778" d="M1701.832,1092.257a1.919,1.919,0,0,0,1.5.713,1.784,1.784,0,0,0,1.4-.713A9.521,9.521,0,0,0,1701.832,1092.257Z" transform="translate(-1677.17 -1078.514)" fill="#fff"/>
    </g>
    <g id="Grupo_97477" data-name="Grupo 97477" transform="translate(405.017 301.304)">
      <path id="Trazado_213779" data-name="Trazado 213779" d="M1668.52,946.689l-1.328.953-1.335-.943a1.635,1.635,0,0,1,2.664-.01Z" transform="translate(-1660.354 -939.271)" fill="#fff"/>
      <g id="Grupo_97474" data-name="Grupo 97474" transform="translate(3.606 4.415)">
        <path id="Trazado_213780" data-name="Trazado 213780" d="M1657.608,931.945a3.947,3.947,0,0,0-3.231,1.679l.843.592a2.92,2.92,0,0,1,4.762-.017l.84-.6A3.951,3.951,0,0,0,1657.608,931.945Z" transform="translate(-1654.377 -931.945)" fill="#fff"/>
      </g>
      <g id="Grupo_97475" data-name="Grupo 97475" transform="translate(0 0)">
        <path id="Trazado_213781" data-name="Trazado 213781" d="M1639.38,905.216a8.352,8.352,0,0,0-6.837,3.551l.843.592a7.332,7.332,0,0,1,11.958-.045l.836-.6A8.353,8.353,0,0,0,1639.38,905.216Z" transform="translate(-1632.543 -905.216)" fill="#fff"/>
      </g>
      <g id="Grupo_97476" data-name="Grupo 97476" transform="translate(1.962 2.416)">
        <path id="Trazado_213782" data-name="Trazado 213782" d="M1649.295,919.841a5.975,5.975,0,0,0-4.876,2.519l.843.592a4.953,4.953,0,0,1,8.045-.031l.836-.6A5.975,5.975,0,0,0,1649.295,919.841Z" transform="translate(-1644.419 -919.841)" fill="#fff"/>
      </g>
    </g>
    <g id="Grupo_97479" data-name="Grupo 97479" transform="translate(213.694 317.982)">
      <path id="Trazado_213783" data-name="Trazado 213783" d="M829.342,1060.42s-1.97-3.5,0-4.214,2.862-.055,2.956.742a21.83,21.83,0,0,1-.751,3.941Z" transform="translate(-769.949 -1047.692)" fill="#ffb27d"/>
      <path id="Trazado_213784" data-name="Trazado 213784" d="M700.709,1101.173a63.731,63.731,0,0,1-9.876,1.014,55.115,55.115,0,0,1-7.592-.341q-.9-.1-1.721-.229a34.172,34.172,0,0,1-9.028-2.446s5.314-11.124,9.607-10.7c5.037.5,13.571,5.021,14.419,3.754.955-1.428,1.755-13.675,1.755-13.675,2.233-1.529,3.566.083,3.566.083S706.2,1100.182,700.709,1101.173Z" transform="translate(-639.736 -1066.05)" fill="#f99746"/>
      <path id="Trazado_213785" data-name="Trazado 213785" d="M748.342,1187.943a63.7,63.7,0,0,1-9.876,1.014,55.1,55.1,0,0,1-7.591-.341c-1.34-4.262-2.3-8.614.391-5.99C736.02,1187.254,748.342,1187.943,748.342,1187.943Z" transform="translate(-687.37 -1152.82)" fill="#ed7d2b"/>
      <path id="Trazado_213786" data-name="Trazado 213786" d="M669.659,1753.988s-.382,4.422.553,4.882l11.963-.025s0-1.381-1.922-1.687-5.3-1.432-5.868-3.938S669.659,1753.988,669.659,1753.988Z" transform="translate(-637.307 -1629.049)" fill="#233862"/>
      <path id="Trazado_213787" data-name="Trazado 213787" d="M646.346,1368.566c-.059,2.892-.2,5.874-.47,8.555-1.292,12.72-1.746,28.089-1.932,31.052-.322,5.143-1.338,13.361-1.338,13.361s-2.015,1.913-5.944,1a133.755,133.755,0,0,1-3.982-24.3c-.011-.2-.022-.41-.033-.616-.084-1.648-.173-3.532-.263-5.563-.6-13.607-1.249-33.82-1.249-33.82l15.012-3.525S646.494,1361.357,646.346,1368.566Z" transform="translate(-605.211 -1297.149)" fill="#2a4e96"/>
      <path id="Trazado_213788" data-name="Trazado 213788" d="M632.385,1392.058c-.6-13.607-1.249-33.82-1.249-33.82l15.012-3.525S635.29,1387.223,632.385,1392.058Z" transform="translate(-605.211 -1297.149)" fill="#233862"/>
      <path id="Trazado_213789" data-name="Trazado 213789" d="M477.3,1361.6a23.3,23.3,0,0,0-2.663,3.669,15.984,15.984,0,0,0-.4,4.529c.21.862,1.834-2.4,2.424-2.753s-.443,1.3-.241,1.574,1.368-.962,1.823-1.381.41-2.672.956-4S477.3,1361.6,477.3,1361.6Z" transform="translate(-474.172 -1302.897)" fill="#ffb27d"/>
      <path id="Trazado_213790" data-name="Trazado 213790" d="M480.682,1727.557s-2.129,1.943-1.714,3.324,2.337,2.3,2.6,3.989,1.3,2.608,2.233,2.608h4.457s.688-1.187-.974-1.545-2.289-2.341-2.185-4.182a32.449,32.449,0,0,0-.156-4.3l-3.531-.818Z" transform="translate(-478.131 -1607.644)" fill="#233862"/>
      <path id="Trazado_213791" data-name="Trazado 213791" d="M525.637,1354.827s-14.053,30.068-21.532,43.262-9.815,16.875-9.815,16.875-4.285-1.687-4.674-2.838c0,0,2.86-25.47,7.868-31.679,2.83-3.508,6.154-14.037,6.31-17.719s3.439-12.469,3.439-12.469Z" transform="translate(-487.065 -1293.43)" fill="#2a4e96"/>
      <path id="Trazado_213792" data-name="Trazado 213792" d="M605.784,1166.05a24.353,24.353,0,0,1-13.5,3.389c-3.471-.152-10.357-1.136-11.468-3.9a4.344,4.344,0,0,1,.322-2.733c1.016-3.281,3.384-9.53,2.669-23.385a22.722,22.722,0,0,1,.093-3.636c.745-6.824,4.656-10.866,8.436-12.186,9.219-3.222,12.292,1.242,12.292,1.242a14.833,14.833,0,0,1,4.689,9.966C610.546,1148.287,605.784,1166.05,605.784,1166.05Z" transform="translate(-563.104 -1103.235)" fill="#f99746"/>
      <path id="Trazado_213793" data-name="Trazado 213793" d="M667.523,1081.654a14.64,14.64,0,0,0,8.818,1.845s.907-.23.461-1.3a13.638,13.638,0,0,0,.407-1.421,21.461,21.461,0,0,0,.525-2.318l-2.6-2.737-2.466-2.615A10.94,10.94,0,0,1,667.523,1081.654Z" transform="translate(-635.588 -1062.061)" fill="#ffb27d"/>
      <path id="Trazado_213794" data-name="Trazado 213794" d="M696.264,1087.467a10.2,10.2,0,0,0,4.939,5.3c.4-1.47.664-3.007.664-3.007l-2.742-2.047Z" transform="translate(-659.582 -1074.043)" fill="#ed985f"/>
      <path id="Trazado_213795" data-name="Trazado 213795" d="M700.232,1037.992s-8.074,1.009-8.641-3.953-1.991-8.173,3.141-9.027,6.351.929,6.949,2.541S702.317,1037.6,700.232,1037.992Z" transform="translate(-655.164 -1021.719)" fill="#ffb27d"/>
      <path id="Trazado_213796" data-name="Trazado 213796" d="M676.21,1008.678c-.07-.086-.235-.16-.608-.195a1.518,1.518,0,0,1,.706-.17,1.882,1.882,0,0,1,1.313-1.617,1.122,1.122,0,0,0-.574.789c1.077-1.025,3.327-1.716,9.459-1,8.081.946,5.213,6.035,4.141,6.614s-3.65-1.217-5.611-1.136-2.44,2.892-3.117,3.255-.391-.313-1.273-.753-1.023,1.044-.8,2.021-1.059,2.205-1.059,2.205l-1.2-1.389c-1.2-1.389-2.155-7.117-1.542-8.307Z" transform="translate(-642.333 -1006.191)" fill="#1d2a49"/>
      <g id="Grupo_97478" data-name="Grupo 97478" transform="translate(44.056 3.991)">
        <path id="Trazado_213797" data-name="Trazado 213797" d="M758.825,1054.036l-13.707.122-.094-2.062,13.665-1.059Z" transform="translate(-744.344 -1047.621)" fill="#2a4e96"/>
        <path id="Trazado_213798" data-name="Trazado 213798" d="M814.935,1047.592l-14.924.216-.17-3.749,14.882-1.153Z" transform="translate(-790.107 -1040.832)" fill="#2a4e96"/>
        <path id="Trazado_213799" data-name="Trazado 213799" d="M887.384,1041.794l-12.585.016-.23-5.061,12.534-1.14Z" transform="translate(-852.493 -1034.739)" fill="#233862"/>
        <path id="Trazado_213800" data-name="Trazado 213800" d="M948.034,1038.261h0a.7.7,0,0,0,.671-.735l-.3-6.5a.7.7,0,0,0-.735-.671h0a.7.7,0,0,0-.671.735l.3,6.5A.7.7,0,0,0,948.034,1038.261Z" transform="translate(-912.964 -1030.353)" fill="#233862"/>
        <path id="Trazado_213801" data-name="Trazado 213801" d="M741.641,1057.752h0a.626.626,0,0,1-.653-.6l-.077-1.687a.625.625,0,0,1,.6-.653h0a.626.626,0,0,1,.653.6l.077,1.687A.625.625,0,0,1,741.641,1057.752Z" transform="translate(-740.91 -1050.774)" fill="#2a4e96"/>
      </g>
      <path id="Trazado_213802" data-name="Trazado 213802" d="M583.372,1230.237c1.016-3.281,3.384-9.53,2.669-23.385a22.727,22.727,0,0,1,.093-3.636h0c3.034-.261,7.671,3.019,7.671,3.019S590.95,1223.648,583.372,1230.237Z" transform="translate(-565.336 -1170.662)" fill="#ed7d2b"/>
      <path id="Trazado_213803" data-name="Trazado 213803" d="M516.945,1124.822s-7.779,1.337-11.837,6.291-10.584,11.938-12.127,14.383-5.827,19.09-5.827,19.09.283.535,1.464.847a2.786,2.786,0,0,0,1.951-.164s5.676-9.713,7.812-14.566c.887-2.016,16.236-10,22.006-9.173C522.654,1141.854,516.945,1124.822,516.945,1124.822Z" transform="translate(-485.01 -1105.228)" fill="#f99746"/>
      <path id="Trazado_213804" data-name="Trazado 213804" d="M828.088,1044.683s1.673,1.023,2.674.59.913-.829.913-.829S828.651,1043.6,828.088,1044.683Z" transform="translate(-769.633 -1037.866)" fill="#ffb27d"/>
      <path id="Trazado_213805" data-name="Trazado 213805" d="M560.2,1155.749s-3.414,21.554-27.637,27.83l-2.638,5.206,4.635.785s27.577-7.989,27.205-34.2Z" transform="translate(-520.717 -1130.729)" fill="#bc3f3f"/>
      <path id="Trazado_213806" data-name="Trazado 213806" d="M704.371,1136.847l-1.118.109v1.619l1.647,1.712,1.566-.381v-2.246l-1.126-.813Z" transform="translate(-665.417 -1115.267)" fill="#a02e2e"/>
      <path id="Trazado_213807" data-name="Trazado 213807" d="M665.482,1110.9s-1.082.244-3.556,2.3c0,0,2.461,5.223,7.652,5.849a17.359,17.359,0,0,1,.292-3.863S665.755,1113.708,665.482,1110.9Z" transform="translate(-630.916 -1093.602)" fill="#ed7d2b"/>
      <path id="Trazado_213808" data-name="Trazado 213808" d="M710.023,1129.586s2.533,1.345,2.721,3.44a4.227,4.227,0,0,0,.688-2.6,8.659,8.659,0,0,0-1.149-2.28S712.369,1129.43,710.023,1129.586Z" transform="translate(-671.068 -1108.007)" fill="#ed7d2b"/>
    </g>
    <g id="Grupo_97483" data-name="Grupo 97483" transform="translate(267.104 226.35)">
      <path id="Trazado_213809" data-name="Trazado 213809" d="M964.163,832.107a19.093,19.093,0,0,1-5.686,6.6l-13.69.063S966.081,828.612,964.163,832.107Z" transform="translate(-920.468 -768.617)" fill="#233862"/>
      <g id="Grupo_97480" data-name="Grupo 97480" transform="translate(0)">
        <path id="Trazado_213810" data-name="Trazado 213810" d="M1001.385,991.518a1.259,1.259,0,0,0-.2,1.351.01.01,0,0,0,0,.007,8.372,8.372,0,0,0,2.7,2.849c.162.126.306.24.431.346.033.028.066.055.1.084l.075.065c1.184,1.049.751,1.3,2.883,3.436,2.431,2.431,4.071,2.443,4.533,2.208.391-.2-.437-1.5-1.355-2.958-.044-.07-.088-.142-.134-.213-.122-.194-.244-.391-.365-.586-1.076-1.757-.825-2.6-.631-5.247.158-2.154,3.108-12.078,3.108-12.078l-4.58-.7s-1.22,7.88-2.71,9.119c-.8.661-1.7.687-2.472,1.18q-.081.051-.16.106A5.988,5.988,0,0,0,1001.385,991.518Z" transform="translate(-967.461 -892.765)" fill="#ffb27d"/>
        <path id="Trazado_213811" data-name="Trazado 213811" d="M1001.385,1043.574a1.259,1.259,0,0,0-.2,1.351.011.011,0,0,0,0,.007,9.7,9.7,0,0,0,2.707,2.84c.16.127.3.245.427.355.033.028.066.055.1.083l.075.065c1.184,1.049.751,1.3,2.883,3.437,2.431,2.431,4.071,2.443,4.533,2.208.391-.2-.437-1.5-1.355-2.958a10.149,10.149,0,0,1-4.307-3.044c-1.47-1.8-2.473-4.134-3.477-5.477-.054.034-.108.069-.16.106A5.982,5.982,0,0,0,1001.385,1043.574Z" transform="translate(-967.461 -944.821)" fill="#233862"/>
        <path id="Trazado_213812" data-name="Trazado 213812" d="M1206.028,977.852c.31,1.4,2.313,1.128,4.546.536s1.712.07,4.9-.347,4.13-1.626,4.218-2.1c.079-.423-1.5-.541-3.2-.7-.213-.02-.427-.042-.642-.064-1.915-.2-3.339-1.408-5.095-2.386-1.663-.927-4.193-4.786-4.193-4.786l-4.373.433s2.367,3.445,3.286,4.945a5.291,5.291,0,0,1,.489,2.976A5.628,5.628,0,0,0,1206.028,977.852Z" transform="translate(-1135.356 -882.677)" fill="#ffb27d"/>
        <path id="Trazado_213813" data-name="Trazado 213813" d="M1229.553,1014.962c2.233-.593,1.712.07,4.9-.347s4.13-1.626,4.218-2.1c.079-.423-1.5-.541-3.2-.7l-.015.033a9,9,0,0,1-4.545,1.512c-2.165.1-4.472-.48-5.968-.426a5.633,5.633,0,0,0,.063,1.5C1225.316,1015.829,1227.32,1015.554,1229.553,1014.962Z" transform="translate(-1154.335 -919.25)" fill="#233862"/>
        <path id="Trazado_213814" data-name="Trazado 213814" d="M1046.91,825.23l-3.876,11.1-5.061,14.489a8.655,8.655,0,0,1-2.844-.2,12.315,12.315,0,0,1-2.773-1.282s1.179-15.473,3.773-24.393a15.792,15.792,0,0,1,2.28-5.2C1042.6,814.581,1046.91,825.23,1046.91,825.23Z" transform="translate(-993.573 -757.724)" fill="#233862"/>
        <path id="Trazado_213815" data-name="Trazado 213815" d="M894.238,747.19c-2.7-.812-10.326.45-17.981,2.106l-1.661-2.622-16.623-.968s-5.237,12.253-2.086,19.933a2.636,2.636,0,0,0,2.773,1.729l.919-.048s9.275-.051,12.483-.114c8.254-.163,17.356-6.018,18.544-6.28,1.943-.429,2.8,3.458,4.833,7.516s18.7,17.782,18.7,17.782a14.425,14.425,0,0,0,3.552-.435,3.5,3.5,0,0,0,1.509-.995S900.325,749.021,894.238,747.19Z" transform="translate(-845.409 -697.097)" fill="#2b478b"/>
        <path id="Trazado_213816" data-name="Trazado 213816" d="M824.006,452.279a5.887,5.887,0,0,0-3.207-.761,9.589,9.589,0,0,1-1.587-.073c-6.306-.721-9.911,8.493-10.079,11.266-.31,5.112-2.994,5.944-6.732,9.215-7.494,6.56-5.112,13.964-.891,16.649,2.533,1.611,6.907-.137,6.907-.137.063.042,11.92-6.94,17.766-10.311C835.018,476.692,827.607,454.327,824.006,452.279Z" transform="translate(-797.545 -451.404)" fill="#233862"/>
        <path id="Trazado_213817" data-name="Trazado 213817" d="M899.369,550.6c.026.016-2.888,1.076-4.867.246-1.862-.779-3.32-3.788-3.292-3.79.839-.055,1.746-.808,2.361-5.638l.36.121,6.054,2.044s-.4,1.937-.643,3.779C899.135,548.913,899.037,550.393,899.369,550.6Z" transform="translate(-875.739 -526.554)" fill="#ffb27d"/>
        <path id="Trazado_213818" data-name="Trazado 213818" d="M913.739,544.2s-.4,1.937-.643,3.779c-3.465-.553-4.888-3.966-5.411-5.823Z" transform="translate(-889.494 -527.167)" fill="#ed975d"/>
        <path id="Trazado_213819" data-name="Trazado 213819" d="M911.477,493.174s-8.246-.941-7.581-6.068.049-8.7,5.342-8.315,6.06,2.473,6.254,4.238S913.639,493.287,911.477,493.174Z" transform="translate(-886.298 -474.244)" fill="#ffb27d"/>
        <path id="Trazado_213820" data-name="Trazado 213820" d="M902.9,477.851s-5.175,4.641-8.749,5.077-4.952-.686-4.952-.686a13.987,13.987,0,0,0,3.29-4.648,2.518,2.518,0,0,1,2.047-1.525C897.085,475.8,901.93,475.6,902.9,477.851Z" transform="translate(-874.057 -471.862)" fill="#233862"/>
        <path id="Trazado_213821" data-name="Trazado 213821" d="M952.174,480.433a12.966,12.966,0,0,1,2.374,2.92,9.957,9.957,0,0,1,.374,5.286s2.639-5.39,1.034-7.952C954.255,477.972,952.174,480.433,952.174,480.433Z" transform="translate(-926.635 -474.786)" fill="#233862"/>
        <path id="Trazado_213822" data-name="Trazado 213822" d="M872.334,590.04c.08,16.653.192,13.17-1.6,14.786a6.994,6.994,0,0,1-3.282.779c-5.1.44-14.088-.224-14.448-1.161-1.242-3.241-.431-4.271-1.512-9.249-.113-.529-.251-1.1-.412-1.726-.887-3.416-1.707-4.568,1.09-10.14,2.537-5.047,5.194-9.155,5.443-9.014,7.034,3.99,7.526.51,7.526.51S872.3,581.917,872.334,590.04Z" transform="translate(-841.54 -554.012)" fill="#9cc4ff"/>
        <path id="Trazado_213823" data-name="Trazado 213823" d="M1043.033,869.732l-5.061,14.489a8.656,8.656,0,0,1-2.844-.2,12.318,12.318,0,0,1-2.773-1.282s1.179-15.473,3.773-24.393Z" transform="translate(-993.573 -791.13)" fill="#2b478b"/>
        <path id="Trazado_213824" data-name="Trazado 213824" d="M940.445,577.414s7.178,1.072,8.079,4.135,6.2,21.074,6.2,21.074-3.624.725-5.337-.922-6.154-15.472-6.154-15.472Z" transform="translate(-916.843 -556.602)" fill="#9cc4ff"/>
        <path id="Trazado_213825" data-name="Trazado 213825" d="M873.775,675.869c-5.1.44-14.088-.224-14.448-1.161-1.242-3.241-.431-4.271-1.512-9.249l2.325-6.982s-.255,7.728,2.062,9.714,9.4,3.736,10.54,5.411A6.211,6.211,0,0,1,873.775,675.869Z" transform="translate(-847.86 -624.276)" fill="#7da6ef"/>
        <path id="Trazado_213826" data-name="Trazado 213826" d="M918.644,740.358s5.014-1.221,5.835-.79a11.832,11.832,0,0,1,3.1,2.581c.26.561-1.818-.394-2.49-.561a5.961,5.961,0,0,0-2.13.511,7.109,7.109,0,0,1-3.826.46Z" transform="translate(-898.643 -691.897)" fill="#ffb27d"/>
        <path id="Trazado_213827" data-name="Trazado 213827" d="M815.055,574.311s-6.754.55-9.03,3.861c-3.2,4.661-9.355,24.377-5.557,26.915,4.277,2.859,19.217.391,19.217.391s.453-2.34-.263-3.454-12.025-2.712-12.556-3.222,6.3-10.274,6.273-11.835S815.055,574.311,815.055,574.311Z" transform="translate(-798.983 -554.011)" fill="#9cc4ff"/>
        <path id="Trazado_213828" data-name="Trazado 213828" d="M955.618,748.491a9.735,9.735,0,0,0,1.431,1.5,1.031,1.031,0,0,0,.572.111l-.736-1.266Z" transform="translate(-929.51 -699.422)" fill="#ffb27d"/>
        <path id="Trazado_213829" data-name="Trazado 213829" d="M953.974,740.034l3.1,1.429a.547.547,0,0,1-.5.206,7.315,7.315,0,0,1-1.338-.339Z" transform="translate(-928.137 -692.362)" fill="#ffb27d"/>
      </g>
      <g id="Grupo_97482" data-name="Grupo 97482" transform="translate(20.073 33.872)">
        <g id="Grupo_97481" data-name="Grupo 97481">
          <path id="Trazado_213830" data-name="Trazado 213830" d="M964.532,675.263l24.268-.479,6.942-18.3-24.231.478Z" transform="translate(-957.025 -656.486)" fill="#f99746"/>
          <path id="Trazado_213831" data-name="Trazado 213831" d="M951.124,762.955l-32.046.633.014.707,31.762-.627Z" transform="translate(-919.078 -745.37)" fill="#ed7d2b"/>
        </g>
        <path id="Trazado_213832" data-name="Trazado 213832" d="M1061.4,707.288a.841.841,0,0,0-.847-1.139,1.657,1.657,0,0,0-1.464,1.185.841.841,0,0,0,.847,1.139A1.656,1.656,0,0,0,1061.4,707.288Z" transform="translate(-1035.932 -697.946)" fill="#fff"/>
      </g>
    </g>
    <path id="Trazado_213833" data-name="Trazado 213833" d="M776.678,1740.816h281.41a3.559,3.559,0,0,1,3.559,3.559v.778a3.559,3.559,0,0,1-3.563,3.559l-281.5-.316a3.56,3.56,0,0,1-3.5-4.208l.086-.462A3.56,3.56,0,0,1,776.678,1740.816Z" transform="translate(-509.977 -1301.499)" fill="#233862"/>
  </g>
</svg>
