<svg xmlns="http://www.w3.org/2000/svg" xmlns:xlink="http://www.w3.org/1999/xlink" width="309.003" height="321.191" viewBox="0 0 309.003 321.191">
  <defs>
    <clipPath id="clip-path">
      <path id="Trazado_213477" data-name="Trazado 213477" d="M272.511,279.356a83.6,83.6,0,0,1-62.583-74.179c-15.89,13.586-32.812,26.845-48.7,40.43,19.365,47.162,56.043,62.88,95.185,74.627C260.895,306.243,265.923,292.466,272.511,279.356Z" transform="translate(-161.226 -205.177)" fill="none"/>
    </clipPath>
    <linearGradient id="linear-gradient" x1="1.535" y1="-0.038" x2="1.53" y2="-0.83" gradientUnits="objectBoundingBox">
      <stop offset="0" stop-color="#c7a316"/>
      <stop offset="0.371" stop-color="#c7a316"/>
      <stop offset="0.407" stop-color="#c7a316"/>
      <stop offset="0.583" stop-color="#c9a618"/>
      <stop offset="0.73" stop-color="#d2b021"/>
      <stop offset="0.867" stop-color="#e0c231"/>
      <stop offset="0.997" stop-color="#f4da46"/>
      <stop offset="1" stop-color="#f5db47"/>
    </linearGradient>
    <linearGradient id="linear-gradient-2" x1="1.209" y1="0.196" x2="1.202" y2="-0.418" xlink:href="#linear-gradient"/>
    <linearGradient id="linear-gradient-3" x1="1.442" y1="-2.654" x2="1.728" y2="-2.654" gradientUnits="objectBoundingBox">
      <stop offset="0" stop-color="#c7a316"/>
      <stop offset="0.371" stop-color="#c7a316"/>
      <stop offset="0.407" stop-color="#c7a316"/>
    </linearGradient>
    <linearGradient id="linear-gradient-4" x1="1.706" y1="2.141" x2="1.701" y2="1.297" xlink:href="#linear-gradient"/>
    <linearGradient id="linear-gradient-5" x1="2.489" y1="1.286" x2="2.484" y2="0.44" xlink:href="#linear-gradient"/>
    <linearGradient id="linear-gradient-6" x1="9.765" y1="1.868" x2="10.237" y2="1.868" xlink:href="#linear-gradient-3"/>
    <linearGradient id="linear-gradient-7" x1="2.096" y1="2.494" x2="2.091" y2="1.684" xlink:href="#linear-gradient"/>
    <linearGradient id="linear-gradient-8" x1="6.286" y1="4.936" x2="6.683" y2="4.936" xlink:href="#linear-gradient-3"/>
  </defs>
  <g id="Grupo_97266" data-name="Grupo 97266" transform="translate(-80.856 -130.486)">
    <g id="Grupo_97263" data-name="Grupo 97263" transform="translate(80.856 130.486)">
      <path id="Trazado_213452" data-name="Trazado 213452" d="M385.169,294.409a241.245,241.245,0,0,1-.712,31.277c-2.763,31.781-12.038,64.1-33.039,88.11-20.022,22.895-44.822,30.081-73.987,31.152-27.172,1-53,6.892-80.853,5.209-16.976-1.026-47.451,2.625-60.008-9.487-28.413-27.409-40.1-70.943-43.511-89.957-15.7-87.463,10.546-191.844,107.7-216.139a142.578,142.578,0,0,1,111.314,18.85c27.349,17.94,47.916,45.347,59.815,75.814A203.131,203.131,0,0,1,385.169,294.409Z" transform="translate(-81.389 -130.486)" fill="#969696" opacity="0.16"/>
      <g id="Grupo_97238" data-name="Grupo 97238" transform="translate(0 57.927)">
        <g id="Grupo_97221" data-name="Grupo 97221" transform="translate(138.423 11.23)">
          <g id="Grupo_97220" data-name="Grupo 97220">
            <g id="Grupo_97219" data-name="Grupo 97219">
              <g id="Grupo_97218" data-name="Grupo 97218">
                <path id="Trazado_213453" data-name="Trazado 213453" d="M257.026,206.638a3.279,3.279,0,0,1-6.347-1.649c.029-.111.077-.209.116-.314a19.706,19.706,0,0,0-3.835.034,3.244,3.244,0,0,1,.132.34,3.283,3.283,0,1,1-6.382,1.394,20.036,20.036,0,0,0-3.322,1.952,3.144,3.144,0,0,1,.3.244,3.279,3.279,0,0,1-4.6,4.673,3.129,3.129,0,0,1-.254-.306,19.7,19.7,0,0,0-1.917,3.377,3.115,3.115,0,0,1,.428.066,3.281,3.281,0,1,1-2.065,6.193,19.753,19.753,0,0,0,.023,3.917,3.21,3.21,0,0,1,.452-.175,3.28,3.28,0,1,1,1.265,6.4,20.027,20.027,0,0,0,2,3.4,3.274,3.274,0,1,1,5,4.2,3.326,3.326,0,0,1-.4.33,19.757,19.757,0,0,0,3.453,1.947,3.35,3.35,0,0,1,.083-.537,3.28,3.28,0,0,1,6.348,1.65,3.359,3.359,0,0,1-.18.486,19.7,19.7,0,0,0,3.962-.045,3.242,3.242,0,0,1-.194-.5,3.279,3.279,0,1,1,6.322-1.746,3.357,3.357,0,0,1,.084.493,20.079,20.079,0,0,0,3.387-2.021,3.274,3.274,0,1,1,4.208-4.99,3.175,3.175,0,0,1,.3.358,19.732,19.732,0,0,0,1.905-3.425,3.284,3.284,0,1,1,1.573-6.276,19.72,19.72,0,0,0-.056-3.881,3.2,3.2,0,0,1-.389.15A3.282,3.282,0,1,1,267.043,216a20.03,20.03,0,0,0-1.972-3.307,3.459,3.459,0,0,1-.235.292,3.279,3.279,0,1,1-4.672-4.6,3.1,3.1,0,0,1,.265-.22,19.67,19.67,0,0,0-3.348-1.875A3.073,3.073,0,0,1,257.026,206.638Zm4.989,21.2a13.363,13.363,0,1,1-9.573-16.295A13.363,13.363,0,0,1,262.015,227.836Z" transform="translate(-229.197 -204.598)" fill="#c7c7c7"/>
              </g>
              <path id="Trazado_213454" data-name="Trazado 213454" d="M264.587,225.1a15.185,15.185,0,1,0-15.479,14.887A15.2,15.2,0,0,0,264.587,225.1Zm-15.381,9.9a10.2,10.2,0,1,1,10.4-10A10.213,10.213,0,0,1,249.206,235.006Z" transform="translate(-229.533 -204.934)" fill="#c7c7c7"/>
            </g>
          </g>
          <path id="Trazado_213455" data-name="Trazado 213455" d="M264.587,225.1a15.185,15.185,0,1,0-15.479,14.887" transform="translate(-229.533 -204.934)" fill="none" stroke="#222221" stroke-miterlimit="10" stroke-width="0.5"/>
        </g>
        <g id="Grupo_97225" data-name="Grupo 97225" transform="translate(239.709)">
          <g id="Grupo_97224" data-name="Grupo 97224">
            <g id="Grupo_97223" data-name="Grupo 97223">
              <g id="Grupo_97222" data-name="Grupo 97222">
                <path id="Trazado_213456" data-name="Trazado 213456" d="M355.094,193.836a2.045,2.045,0,0,1-3.958-1.029c.019-.068.049-.13.073-.2a12.325,12.325,0,0,0-2.392.021,1.963,1.963,0,0,1,.081.211,2.045,2.045,0,1,1-3.942,1.089,1.787,1.787,0,0,1-.037-.219,12.467,12.467,0,0,0-2.072,1.218,2.081,2.081,0,0,1,.189.152A2.045,2.045,0,1,1,340.167,198a1.907,1.907,0,0,1-.159-.19,12.345,12.345,0,0,0-1.2,2.105,2.041,2.041,0,1,1-.761,4,2.189,2.189,0,0,1-.258-.1,12.273,12.273,0,0,0,.014,2.443,2.041,2.041,0,1,1,1.371,3.832,1.974,1.974,0,0,1-.3.051,12.468,12.468,0,0,0,1.247,2.121,2.084,2.084,0,0,1,.2-.253,2.045,2.045,0,1,1,2.914,2.869,2.073,2.073,0,0,1-.249.206,12.3,12.3,0,0,0,2.154,1.215,2.08,2.08,0,0,1,.052-.335A2.045,2.045,0,0,1,349.158,217a2.068,2.068,0,0,1-.113.3,12.265,12.265,0,0,0,2.471-.029,2.024,2.024,0,0,1-.121-.312,2.045,2.045,0,0,1,3.943-1.089,2.085,2.085,0,0,1,.052.308,12.494,12.494,0,0,0,2.113-1.262,2.041,2.041,0,1,1,2.624-3.111,2.007,2.007,0,0,1,.186.224,12.307,12.307,0,0,0,1.188-2.136,2.041,2.041,0,1,1,.742-4,2.112,2.112,0,0,1,.24.09,12.32,12.32,0,0,0-.035-2.421,2.091,2.091,0,0,1-.242.094,2.045,2.045,0,0,1-1.089-3.943,1.9,1.9,0,0,1,.226-.038,12.486,12.486,0,0,0-1.23-2.063,2.275,2.275,0,0,1-.146.182,2.045,2.045,0,0,1-2.914-2.869,2.065,2.065,0,0,1,.165-.137,12.263,12.263,0,0,0-2.087-1.169A2.027,2.027,0,0,1,355.094,193.836Zm1.916,12.908a7.1,7.1,0,1,1-5.086-8.655A7.1,7.1,0,0,1,357.009,206.744Z" transform="translate(-337.739 -192.564)" fill="#c7c7c7"/>
              </g>
            </g>
          </g>
        </g>
        <g id="Grupo_97229" data-name="Grupo 97229" transform="translate(0 97.283)">
          <g id="Grupo_97228" data-name="Grupo 97228">
            <g id="Grupo_97227" data-name="Grupo 97227">
              <g id="Grupo_97226" data-name="Grupo 97226">
                <path id="Trazado_213457" data-name="Trazado 213457" d="M103.691,298.49a2.691,2.691,0,0,1-5.209-1.353,2.645,2.645,0,0,1,.1-.258,16.253,16.253,0,0,0-3.147.028,2.562,2.562,0,0,1,.108.278,2.691,2.691,0,0,1-5.187,1.432,2.583,2.583,0,0,1-.049-.288,16.4,16.4,0,0,0-2.726,1.6,2.684,2.684,0,1,1-3.526,4.035,2.62,2.62,0,0,1-.208-.251,16.157,16.157,0,0,0-1.572,2.771,2.685,2.685,0,1,1-1,5.263,2.617,2.617,0,0,1-.342-.126,16.208,16.208,0,0,0,.02,3.214,2.721,2.721,0,0,1,.37-.144,2.691,2.691,0,1,1,1.432,5.187,2.631,2.631,0,0,1-.394.067A16.453,16.453,0,0,0,84,322.739a2.736,2.736,0,0,1,.268-.333,2.691,2.691,0,0,1,3.834,3.775,2.629,2.629,0,0,1-.328.272,16.168,16.168,0,0,0,2.833,1.6,2.787,2.787,0,0,1,.068-.44,2.691,2.691,0,0,1,5.209,1.353,2.629,2.629,0,0,1-.148.4,16.233,16.233,0,0,0,3.252-.038,2.62,2.62,0,0,1-.16-.411,2.691,2.691,0,0,1,5.187-1.432,2.651,2.651,0,0,1,.069.4,16.428,16.428,0,0,0,2.779-1.658,2.74,2.74,0,0,1-.323-.26,2.691,2.691,0,0,1,3.775-3.834,2.59,2.59,0,0,1,.244.295,16.188,16.188,0,0,0,1.563-2.81,2.8,2.8,0,0,1-.378-.059,2.691,2.691,0,0,1,1.353-5.209,2.613,2.613,0,0,1,.316.118,16.186,16.186,0,0,0-.047-3.185,2.616,2.616,0,0,1-.318.123,2.69,2.69,0,1,1-1.432-5.186,2.527,2.527,0,0,1,.3-.051,16.337,16.337,0,0,0-1.619-2.714,2.552,2.552,0,0,1-.192.239,2.691,2.691,0,1,1-3.834-3.775,2.491,2.491,0,0,1,.218-.181,16.25,16.25,0,0,0-2.747-1.538A2.617,2.617,0,0,1,103.691,298.49Zm2.519,16.984a9.339,9.339,0,1,1-6.691-11.387A9.339,9.339,0,0,1,106.21,315.474Z" transform="translate(-80.856 -296.817)" fill="#c7c7c7"/>
              </g>
            </g>
          </g>
        </g>
        <g id="Grupo_97233" data-name="Grupo 97233" transform="translate(152.891 44.583)">
          <g id="Grupo_97232" data-name="Grupo 97232" transform="translate(0)">
            <g id="Grupo_97231" data-name="Grupo 97231">
              <g id="Grupo_97230" data-name="Grupo 97230">
                <path id="Trazado_213458" data-name="Trazado 213458" d="M287.964,242.257a5.587,5.587,0,1,1-11.09-1.361,5.505,5.505,0,0,1,.125-.555,33.648,33.648,0,0,0-6.47.919,5.446,5.446,0,0,1,.3.543,5.587,5.587,0,0,1-10.285,4.368,5.468,5.468,0,0,1-.18-.58,34.01,34.01,0,0,0-5.171,4.043,5.66,5.66,0,0,1,.568.345,5.587,5.587,0,1,1-6.723,8.925,5.413,5.413,0,0,1-.5-.459,33.638,33.638,0,0,0-2.479,6.134,5.426,5.426,0,0,1,.738.016,5.587,5.587,0,1,1-1.361,11.09,5.478,5.478,0,0,1-.736-.166,33.579,33.579,0,0,0,.919,6.61,5.646,5.646,0,0,1,.724-.4,5.587,5.587,0,1,1,4.367,10.285,5.5,5.5,0,0,1-.792.246,34.109,34.109,0,0,0,4.14,5.3,5.588,5.588,0,1,1,8.786,6.612,33.621,33.621,0,0,0,6.269,2.513,5.672,5.672,0,0,1,.02-.924,5.588,5.588,0,1,1,10.9,2.224,33.6,33.6,0,0,0,6.682-.968,5.591,5.591,0,1,1,10.1-4.356,34.059,34.059,0,0,0,5.267-4.176,5.578,5.578,0,1,1,5.987-9.372,5.724,5.724,0,0,1,.582.538,33.546,33.546,0,0,0,2.45-6.211,5.663,5.663,0,0,1-.794-.017,5.587,5.587,0,1,1,1.361-11.091,5.468,5.468,0,0,1,.681.154,33.65,33.65,0,0,0-.966-6.542,5.327,5.327,0,0,1-.622.342A5.587,5.587,0,1,1,306.388,256a5.416,5.416,0,0,1,.6-.185,34.055,34.055,0,0,0-4.074-5.144,5.22,5.22,0,0,1-.331.546,5.587,5.587,0,1,1-8.925-6.723,5.657,5.657,0,0,1,.4-.431,33.637,33.637,0,0,0-6.076-2.415A5.539,5.539,0,0,1,287.964,242.257Zm13.184,34.682a22.768,22.768,0,1,1-19.826-25.37A22.767,22.767,0,0,1,301.149,276.939Z" transform="translate(-244.701 -240.341)" fill="#c7c7c7"/>
              </g>
              <path id="Trazado_213459" data-name="Trazado 213459" d="M304.808,271.822a25.873,25.873,0,1,0-22.8,28.619A25.9,25.9,0,0,0,304.808,271.822ZM281.053,292a17.382,17.382,0,1,1,15.318-19.227A17.4,17.4,0,0,1,281.053,292Z" transform="translate(-245.271 -240.91)" fill="#c7c7c7"/>
            </g>
          </g>
          <path id="Trazado_213460" data-name="Trazado 213460" d="M286.355,297.581a23.8,23.8,0,1,0-7.542,1.08" transform="translate(-245.42 -241.06)" fill="none" stroke="#222221" stroke-miterlimit="10" stroke-width="0.5"/>
        </g>
        <g id="Grupo_97237" data-name="Grupo 97237" transform="translate(5.99 50.872)">
          <g id="Grupo_97236" data-name="Grupo 97236">
            <g id="Grupo_97235" data-name="Grupo 97235">
              <g id="Grupo_97234" data-name="Grupo 97234">
                <path id="Trazado_213461" data-name="Trazado 213461" d="M127.759,254.287a3.955,3.955,0,1,1-6.178-4.878,23.75,23.75,0,0,0-4.334-1.6,3.816,3.816,0,0,1,0,.439,3.951,3.951,0,1,1-7.867-.741,3.689,3.689,0,0,1,.083-.421,24.022,24.022,0,0,0-4.578.776,3.727,3.727,0,0,1,.238.406,3.954,3.954,0,1,1-7.338,2.84,23.751,23.751,0,0,0-3.6,2.982,3.845,3.845,0,0,1,.454.258,3.951,3.951,0,0,1-4.575,6.443,3.838,3.838,0,0,1-.4-.352,23.763,23.763,0,0,0-1.651,4.422,3.944,3.944,0,1,1-.157,7.865,4.031,4.031,0,0,1-.576-.114,24.108,24.108,0,0,0,.8,4.687,3.945,3.945,0,1,1,3.834,6.867,3.863,3.863,0,0,1-.591.2,23.794,23.794,0,0,0,3.055,3.672,3.946,3.946,0,1,1,6.767,4.007,4.012,4.012,0,0,1-.412.471,23.719,23.719,0,0,0,4.482,1.645,3.946,3.946,0,1,1,7.864.093,3.857,3.857,0,0,1-.116.592,24.089,24.089,0,0,0,4.681-.827,3.865,3.865,0,0,1-.308-.526,3.951,3.951,0,0,1,7.184-3.292,4.051,4.051,0,0,1,.181.531,23.771,23.771,0,0,0,3.612-3.041,3.943,3.943,0,1,1,4.087-6.72,3.882,3.882,0,0,1,.372.325,23.678,23.678,0,0,0,1.6-4.4,3.75,3.75,0,0,1-.5,0,3.951,3.951,0,0,1,.741-7.867,3.875,3.875,0,0,1,.434.085,24.109,24.109,0,0,0-.805-4.57,3.828,3.828,0,0,1-.39.228,3.951,3.951,0,0,1-3.292-7.183,3.618,3.618,0,0,1,.393-.134,23.748,23.748,0,0,0-2.968-3.546A3.634,3.634,0,0,1,127.759,254.287ZM124.3,280.3a16.1,16.1,0,1,1-3.806-22.451A16.1,16.1,0,0,1,124.3,280.3Z" transform="translate(-87.275 -247.081)" fill="#c7c7c7"/>
              </g>
              <path id="Trazado_213462" data-name="Trazado 213462" d="M128.536,278.2a18.3,18.3,0,1,0-23.808,10.14A18.318,18.318,0,0,0,128.536,278.2Zm-21.565,4.57a12.293,12.293,0,1,1,15.994-6.812A12.306,12.306,0,0,1,106.971,282.769Z" transform="translate(-87.675 -247.481)" fill="#c7c7c7"/>
            </g>
          </g>
          <path id="Trazado_213463" data-name="Trazado 213463" d="M110.9,288.109c13.5,1.486,23.107-13.665,16.013-25.244a16.674,16.674,0,0,0-7.957-6.729" transform="translate(-88.855 -247.686)" fill="none" stroke="#222221" stroke-miterlimit="10" stroke-width="0.5"/>
          <path id="Trazado_213464" data-name="Trazado 213464" d="M117.9,256.051c-13.4-5.391-27.107,8.47-21.575,21.809a16.716,16.716,0,0,0,7.088,8.064" transform="translate(-87.796 -247.601)" fill="none" stroke="#222221" stroke-miterlimit="10" stroke-width="0.5"/>
        </g>
      </g>
      <g id="Grupo_97239" data-name="Grupo 97239" transform="translate(126.879 193.496)">
        <path id="Trazado_213465" data-name="Trazado 213465" d="M246.2,342.023c11.214-.854,22.464-2.192,33.748-4.177-.751,12.554,2.03,24.713,5.933,34.855,7.926,20.593,20.805,35.96,36.034,44.1-13.437,10.677-23.474,19.037-39.083,27.635-31.766-17.55-55.023-57.176-66-101.1C226.617,343.165,236.408,342.768,246.2,342.023Z" transform="translate(-216.825 -337.846)" fill="#7cad63"/>
        <path id="Trazado_213466" data-name="Trazado 213466" d="M282.777,436.675a5.593,5.593,0,0,1,3.862,0,77.45,77.45,0,0,1,6.314,6.127c8.066-5.522,12.228-10.15,19.979-16.113-.326-.622-1.275-6.782-1.426-7.526a9.165,9.165,0,0,1,.223-4.336c-10.924-8.1-21.469-22.745-27.254-37.458-2.645-6.725-6.094-17.746-7.056-27.231-.275-.07-.551-.135-.825-.22a7.053,7.053,0,0,1-4.734-3.969,5.8,5.8,0,0,1-.357-1.3,199.677,199.677,0,0,1-20.621,2.838c-6.143.461-13.538.884-20.3,1.123a7.3,7.3,0,0,1,.174,1.426,5.749,5.749,0,0,1-1.232,3.672,6.858,6.858,0,0,1-3.43,2.241c9.392,32.464,30.085,66.7,53,82.456A15.181,15.181,0,0,1,282.777,436.675Z" transform="translate(-217.445 -338.301)" fill="#bbe69c"/>
        <path id="Trazado_213467" data-name="Trazado 213467" d="M284.936,394.432c3.931,6.715,5.758,14.5.448,19.77-9.607,9.545-23.9-10.575-25.808-20.006-1.67-8.254,2.04-15.549,10.136-13.8a15.469,15.469,0,0,1,6.282,3.362A41.49,41.49,0,0,1,284.936,394.432Z" transform="translate(-219.657 -340.673)" fill="#7cad63"/>
      </g>
      <g id="Grupo_97243" data-name="Grupo 97243" transform="translate(74.997 69.697)">
        <path id="Trazado_213468" data-name="Trazado 213468" d="M272.511,279.356a83.6,83.6,0,0,1-62.583-74.179c-15.89,13.586-32.812,26.845-48.7,40.43,19.365,47.162,56.043,62.88,95.185,74.627C260.895,306.243,265.923,292.466,272.511,279.356Z" transform="translate(-161.226 -205.177)" fill="#bbe69c"/>
        <path id="Trazado_213469" data-name="Trazado 213469" d="M236.8,288.795c-5.31,8.325-21.159.1-26.409-4.176-5.645-4.6-12.339-12.611-11.113-20.521a11.128,11.128,0,0,1,15.059-8.763c4.5,1.7,7.894,5.4,11.111,8.973l5.8,6.449a33.608,33.608,0,0,1,5.576,7.5,11.325,11.325,0,0,1,.726,9.074A9.161,9.161,0,0,1,236.8,288.795Z" transform="translate(-163.761 -208.48)" fill="#7cad63"/>
        <g id="Grupo_97242" data-name="Grupo 97242">
          <g id="Grupo_97241" data-name="Grupo 97241" clip-path="url(#clip-path)">
            <path id="Trazado_213470" data-name="Trazado 213470" d="M169.534,250.521a11.38,11.38,0,0,0,.295-4.8,6.622,6.622,0,0,0-2.723-4.2,11.587,11.587,0,0,0-1.566-.946,7.8,7.8,0,0,0-5.737-1.075,8.172,8.172,0,0,0-5.794,5.534,8.717,8.717,0,0,0,1.727,8.115,8.922,8.922,0,0,0,7.518,3.345,6.541,6.541,0,0,0,4.211-1.993A9.14,9.14,0,0,0,169.534,250.521Z" transform="translate(-160.718 -207.462)" fill="#7cad63"/>
            <path id="Trazado_213471" data-name="Trazado 213471" d="M221.621,206.489a10.512,10.512,0,0,0-10.463-9.318,8.918,8.918,0,0,0-7.18,3.268,7.257,7.257,0,0,0-1.09,5.3,8.447,8.447,0,0,0-.374,3.807A9.427,9.427,0,0,0,212.9,217.6,10.1,10.1,0,0,0,221.621,206.489Z" transform="translate(-163.982 -204.642)" fill="#7cad63"/>
            <g id="Grupo_97240" data-name="Grupo 97240" transform="translate(87.022 105.794)">
              <path id="Trazado_213472" data-name="Trazado 213472" d="M271.681,326.4a11.585,11.585,0,0,0-2.385-3.9.844.844,0,0,0-.055-1,6.458,6.458,0,0,0-1.63-1.364,9.705,9.705,0,0,0-2.15-1.171,10.368,10.368,0,0,0-1.3-.22c-.037,0-.586-.11-.208-.033a7.1,7.1,0,0,0-.82-.137,7.365,7.365,0,0,0-2.513.315,8.414,8.414,0,0,0-5.995,6.708,8.972,8.972,0,0,0,3.26,8.783,9.317,9.317,0,0,0,8.68,1.125C270.164,334.134,273.06,330.368,271.681,326.4Z" transform="translate(-254.483 -318.551)" fill="#7cad63"/>
              <path id="Trazado_213473" data-name="Trazado 213473" d="M263.5,328.544l.01,0,.008-.011.009,0,.01-.006v-.016l-.008,0,.007-.008h0l-.009.01-.026.007.015.006Z" transform="translate(-255.086 -319.217)" fill="#b2d986"/>
              <path id="Trazado_213474" data-name="Trazado 213474" d="M263.531,328.8v0l0,0v0Z" transform="translate(-255.088 -319.236)" fill="#b2d986"/>
            </g>
            <path id="Trazado_213475" data-name="Trazado 213475" d="M287.143,281.959c-1.152-4.494-6.051-8.21-10.774-6.65-4.66,1.539-6.854,6.96-5.2,11.462a12.769,12.769,0,0,0,4.368,5.8c2.051,1.561,5.009,2.332,7.376,1.018a5.283,5.283,0,0,0,1.788-1.109,9.083,9.083,0,0,0,2.035-3.541A12.118,12.118,0,0,0,287.143,281.959Z" transform="translate(-168.54 -209.842)" fill="#7cad63"/>
            <path id="Trazado_213476" data-name="Trazado 213476" d="M261.215,312.538c1.459-3.32,2.885-6.655,4.249-10.015,2.913-7.178,5.9-14.535,7.312-22.186a2.617,2.617,0,0,0,.743-4.123c-.051-.048-.107-.089-.16-.133a1.232,1.232,0,0,0-1.361-.971c-2.907-1.722-6.9-2.321-9.932-3.539a79.132,79.132,0,0,1-11.642-5.9,81.725,81.725,0,0,1-19.9-17.046,84.29,84.29,0,0,1-12.395-20.034c-2.906-6.5-4.63-13.379-6.47-20.226a20.186,20.186,0,0,0,3.963-4.883c.788-1.448-.459-3.943-2.347-3.2-5.016,1.962-9.031,6.7-13.048,10.182-4.695,4.075-9.464,8.066-14.253,12.03-4.624,3.828-9.3,7.595-13.962,11.373-2.954,2.394-6.916,4.857-9.812,7.875-1.446-1.046-2.7-1.267-3.561-.162-2.635,3.375,2.332,11.117,3.938,14.243,2.667,5.191,5.53,10.354,8.674,15.272,6.046,9.456,14,17.015,23.1,23.519A155.7,155.7,0,0,0,251.3,319.793a9.749,9.749,0,0,0-.8,4.194c.112,1.515,1.791,3.018,3.315,1.994a11.957,11.957,0,0,0,3.807-4.928c.314.056.625.121.939.175,2.436.417,4.859-.551,5.628-3.09C264.833,316.025,263.557,313.03,261.215,312.538Zm-61.928-24.029c-25.214-19.314-29.54-34.36-33.438-43.039,3.025-1.867,5.8-4.5,8.353-6.5,4.9-3.825,9.733-7.747,14.539-11.693,4.641-3.81,9.236-7.673,13.827-11.543,1.481-1.249,3.194-2.52,4.91-3.857,1.32,14.735,9.2,29.437,18.325,40.488a86.793,86.793,0,0,0,20.907,18.224,89.844,89.844,0,0,0,12.022,6.249c2.781,1.2,6.349,3.058,9.716,3.664-3.031,6.216-5.306,12.836-7.921,19.211-1.613,3.93-4.346,11.157-6.1,15.027C233.814,310.4,216.054,301.352,199.287,288.509Z" transform="translate(-161.002 -204.841)" fill="#7cad63"/>
          </g>
        </g>
      </g>
      <g id="Grupo_97244" data-name="Grupo 97244" transform="translate(204.488 165.159)">
        <path id="Trazado_213478" data-name="Trazado 213478" d="M342.639,459.875c4.671-4.116,4.384-8.183,4.932-13.706.749-7.556,1.9-14.83,1.72-22.474-.078-3.306-.282-6.735.971-9.8,2.57-6.273,9.983-8.634,15.736-12.219a65.419,65.419,0,0,0,8.656-6.859,56.119,56.119,0,0,0,8.375-8.586c6.09-8.35,5.532-19.058,6.357-28.892.284-3.378,1.719-8.74.425-11.912-.88-2.156-3.081-2.617-5.013-1.924a103.259,103.259,0,0,0,.143-23.008c-.349-2.957-1.5-6.58-4.454-6.956a4.767,4.767,0,0,0-4.5,2.723,13.591,13.591,0,0,0-1.206,5.421c-.56,7.111-.892,14.272-2.4,21.245s-4.273,13.838-9.108,19.08c8.277-14.021,9.286-33.684,6.534-49.411-.354-2.025-1.095-4.369-3.054-4.987a3.92,3.92,0,0,0-3.912,1.3,9.484,9.484,0,0,0-1.883,3.881c-3.056,10.725-.925,22.394-3.882,33.146-1.2,4.376-3.813,7.124-6.158,10.789,3.862-13.359,6.627-27.153,6.5-41.059-.026-2.774-.693-6.241-3.382-6.928a4.467,4.467,0,0,0-4.585,2.177,12.553,12.553,0,0,0-1.528,5.156c-1.074,7.684-1.7,15.461-3.6,22.984-.979,3.871-2.186,8.528-4.5,11.852-1.587,2.283-4.886,3.008-6.018-.454-.649-1.984.049-4.124.645-6.124a64.4,64.4,0,0,0,2.62-15.5,8.851,8.851,0,0,0-.479-4,3.324,3.324,0,0,0-3.155-2.125c-3.353.355-3.5,4.566-3.78,6.978A59.988,59.988,0,0,1,326.9,341.4a109.749,109.749,0,0,1-10.582,23.086c-3.42,5.627-7.379,11.009-9.673,17.181-3.684,9.917-2.742,20.682-3.267,31.047-.5,9.846-3.477,19.484-3.377,29.369.042,4.194,1.131,8.511,3.823,11.727a20.62,20.62,0,0,0,7.139,5.121,37.053,37.053,0,0,0,11.567,3.336C330.193,463.155,336.263,465.492,342.639,459.875Z" transform="translate(-299.995 -307.478)" fill="#ff8a63"/>
        <path id="Trazado_213479" data-name="Trazado 213479" d="M387.738,346.395a5.6,5.6,0,0,0-2.08,2.043c-2.9,4.326-3.8,9.639-4.881,14.737-1.748,8.264-4.947,14.94-14.026,16.328-4.306.659-8.759.351-12.962,1.489a19.6,19.6,0,0,0-12.067,9.675" transform="translate(-302.785 -310.08)" fill="none" stroke="#000" stroke-miterlimit="10" stroke-width="0.5"/>
        <path id="Trazado_213480" data-name="Trazado 213480" d="M369.443,366.058a67.064,67.064,0,0,0-39.55-7.558" transform="translate(-301.994 -310.859)" fill="none" stroke="#000" stroke-miterlimit="10" stroke-width="0.5"/>
      </g>
      <g id="Grupo_97246" data-name="Grupo 97246" transform="translate(185.87 169.116)">
        <path id="Trazado_213481" data-name="Trazado 213481" d="M344.312,367.969c-6.082,10.03-23.345,10.684-38.557,1.459s-22.612-24.835-16.529-34.865c1.383-2.282,2.81-4.978,5.194-6.284,8.1-4.433,21.612-2.3,33.363,4.824,10.256,6.219,17.6,15.86,19.018,24.217C347.485,361.359,346.294,364.7,344.312,367.969Z" transform="translate(-280.515 -312.672)" fill="url(#linear-gradient)"/>
        <ellipse id="Elipse_5385" data-name="Elipse 5385" cx="21.241" cy="32.212" rx="21.241" ry="32.212" transform="matrix(0.519, -0.855, 0.855, 0.519, 0, 36.324)" fill="#f5db47" stroke="#debe23" stroke-miterlimit="10" stroke-width="2"/>
        <g id="Grupo_97245" data-name="Grupo 97245" transform="translate(29.906 23.931)" opacity="0.53" style="mix-blend-mode: multiply;isolation: isolate">
          <path id="Trazado_213482" data-name="Trazado 213482" d="M320.909,350.252l-4.49-3.206a6.626,6.626,0,0,0-1.4,4.284,4.567,4.567,0,0,0,2.107,3.355,9.891,9.891,0,0,0,2.833,1.423l-1.109,2.047a14.143,14.143,0,0,1-3.059-1.652,7.462,7.462,0,0,1-3.343-4.975,8.471,8.471,0,0,1,1.724-6.086l-2.082-1.487,1.036-1.45,2.082,1.486,1.144-1.6-2.082-1.486,1.043-1.462,2.082,1.487a8.4,8.4,0,0,1,5.17-3.468A7.46,7.46,0,0,1,328.274,339a15.715,15.715,0,0,1,2.561,2.374l-1.58,1.717a10.232,10.232,0,0,0-2.269-2.238,4.543,4.543,0,0,0-3.8-.918,6.489,6.489,0,0,0-3.529,2.6l4.479,3.2-1.044,1.462-4.49-3.206-1.144,1.6,4.49,3.206Z" transform="translate(-312.092 -337.365)" fill="#a8901b"/>
        </g>
      </g>
      <g id="Grupo_97248" data-name="Grupo 97248" transform="translate(215.936 88.5)">
        <path id="Trazado_213483" data-name="Trazado 213483" d="M333.847,290c-11.73.124-21.392-14.2-21.581-31.985s9.169-32.311,20.9-32.435c2.668-.028,5.711-.239,8.077,1.1,8.039,4.542,13.357,17.145,13.5,30.887.127,11.994-4.188,23.32-10.541,28.933C341.135,289.206,337.668,289.956,333.847,290Z" transform="translate(-312.263 -225.341)" fill="url(#linear-gradient-2)"/>
        <ellipse id="Elipse_5386" data-name="Elipse 5386" cx="21.24" cy="32.212" rx="21.24" ry="32.212" transform="translate(4.046 0.449) rotate(-0.606)" fill="#f5db47" stroke="#debe23" stroke-miterlimit="10" stroke-width="2"/>
        <g id="Grupo_97247" data-name="Grupo 97247" transform="translate(16.64 27.136)">
          <path id="Trazado_213484" data-name="Trazado 213484" d="M330.1,258.827l2.688-.028a8.792,8.792,0,0,1,1.126-4.392l1.789.668a8.071,8.071,0,0,0-1.1,4.136c.021,2.033,1.129,3.394,2.646,3.378,1.463-.015,2.357-1.141,3.133-3.269,1.036-2.929,2.241-4.747,4.557-4.771,2.209-.023,3.9,1.647,4.331,4.277l2.69-.029.019,1.777-2.584.027a8.065,8.065,0,0,1-.89,3.73l-1.766-.7a7.31,7.31,0,0,0,.868-3.616c-.023-2.205-1.257-3.022-2.324-3.011-1.383.015-2.065,1.081-3,3.582-1.085,2.961-2.454,4.462-4.823,4.487-2.1.022-4.09-1.53-4.574-4.474l-2.768.03Z" transform="translate(-330.095 -254.407)" fill="url(#linear-gradient-3)"/>
        </g>
      </g>
      <g id="Grupo_97249" data-name="Grupo 97249" transform="translate(32.801 162.981)">
        <path id="Trazado_213485" data-name="Trazado 213485" d="M170.741,450.984c13.376.691,26.548,1.231,39.814,1.84a11.442,11.442,0,0,0,11.87-12.956c-1.1-8.2-2.059-17.366-2.428-19.05a164.364,164.364,0,0,1-2.752-18.584c-.559-5.509-.32-11.638-1.968-16.958-2.1-6.8-7.555-11.957-12.962-16.579s-11.16-9.248-14.27-15.645c-2.473-5.086-3.041-10.779-4.109-16.259-.711-3.649-2.225-13.236-6.775-14.1a3.213,3.213,0,0,0-3.357,1.491,5.7,5.7,0,0,0-.374,3.18c.437,5.892.688,11.873,1.634,17.705a51.317,51.317,0,0,1,.915,9.173,1.12,1.12,0,0,1-.34.947.974.974,0,0,1-.468.133c-2.352.192-4.107-2.033-5.392-4.012a37.707,37.707,0,0,1-3.4-6.006,31.554,31.554,0,0,1-1.692-6.125,108.767,108.767,0,0,1-2.061-23.593c.06-2.071.2-3.859-1.407-5.473-1.81-1.811-4.732-2.052-6.223,1.037a6.936,6.936,0,0,0-.57,1.976,109.622,109.622,0,0,0-.2,29.194c-.233-1.874-1.694-4-2.034-6.036a62.763,62.763,0,0,1-.678-6.746q-.5-8.59-1-17.179a12.7,12.7,0,0,0-.817-4.512,4.318,4.318,0,0,0-3.452-2.7,4.249,4.249,0,0,0-3.6,2.064c-1.605,2.424-1.445,5.383-1.8,8.117a80.237,80.237,0,0,0-.982,10.207,55.938,55.938,0,0,0,3.824,20.6,7.258,7.258,0,0,1-4.794-3.971c-1.933-3.724-1.877-7.695-1.538-11.746q.581-6.947,1.163-13.9c.211-2.517.654-7.613-2.457-8.758-3.749-1.381-5.1,3.464-5.428,6.025-1.054,8.256-5.283,16.182-4.355,24.452-1.8-1.577-6.589-2.055-8.5-.649-5.722,4.206,4.03,8.953,5.853,12.5a33.792,33.792,0,0,1,1.59,4.419c1.789,5.134,5.415,9.385,8.964,13.5a49.514,49.514,0,0,0,8.268,8.194c3.59,2.583,7.791,4.15,11.728,6.163,6.022,3.081,11.655,7.468,14.648,13.533,3.164,6.414,3.036,13.893,2.84,21.043Q171.208,433.968,170.741,450.984Z" transform="translate(-116.007 -305.145)" fill="#ff8a63"/>
        <path id="Trazado_213486" data-name="Trazado 213486" d="M189.553,360.779c-6.061-2.128-12.645-1.937-19.054-2.38a94.005,94.005,0,0,1-16.052-2.517c-3.354-.829-6.811-1.849-10.2-1.2" transform="translate(-117.894 -308.443)" fill="none" stroke="#222221" stroke-miterlimit="10" stroke-width="0.5"/>
        <path id="Trazado_213487" data-name="Trazado 213487" d="M126.333,340.613c4.427,2.925,9.038,6.05,11.481,10.76a35.866,35.866,0,0,0,2.132,4.177c6.188,8.861,19,5.541,27.936,7.75,5.045,1.247,9.557,4.044,13.842,6.986,5.224,3.586,10.684,8.165,11.375,14.464" transform="translate(-116.697 -307.516)" fill="none" stroke="#222221" stroke-miterlimit="10" stroke-width="0.5"/>
      </g>
      <g id="Grupo_97250" data-name="Grupo 97250" transform="translate(160.862 5.33)">
        <path id="Trazado_213488" data-name="Trazado 213488" d="M325.142,139.392c-9.323-.725-18.626-1.757-27.875-3.194.259,8.205-2.514,16.535-6.348,23.809a79.32,79.32,0,0,1-37.677,35.544c11.95,10.321,21.3,18.816,36.972,28.1,33.152-17.039,53.4-51.4,59.48-82.952C341.5,140.437,333.316,140.028,325.142,139.392Z" transform="translate(-253.243 -136.198)" fill="#7cad63"/>
        <path id="Trazado_213489" data-name="Trazado 213489" d="M339.442,148.9a3.694,3.694,0,0,1-1.223-2.4,3.646,3.646,0,0,1,.057-.912c-5.471-.256-11.453-.636-16.413-1.022-5.94-.462-11-1.226-16.538-2.1a3.028,3.028,0,0,1-.3.811,5.606,5.606,0,0,1-3.875,2.449c-.222.05-.446.088-.67.129-1.023,6.191-4.235,13.681-6.737,18.429-6.007,11.395-17.224,23.492-28.626,29.956a7.569,7.569,0,0,1,.188,4.251,6.155,6.155,0,0,1-.472,1.2c7.111,6.151,13.568,11.6,22.678,17.313a5.374,5.374,0,0,1,.7-.222,6.737,6.737,0,0,1,3.874-.93,3.923,3.923,0,0,1,2.362,1.1c23.4-13.907,41.89-42.954,47.959-66.516A6.774,6.774,0,0,1,339.442,148.9Z" transform="translate(-254.018 -136.617)" fill="#bbe69c"/>
        <path id="Trazado_213490" data-name="Trazado 213490" d="M295.8,179.287a18.351,18.351,0,0,0-4.652,7.431c-.783,2.846-.318,6.179,1.78,8.256,2.785,2.755,7.455,2.472,11,.8a24.407,24.407,0,0,0,8.821-7.585c2.855-3.778,5.064-8.507,4.909-13.336-.145-4.526-2.478-8.269-7.543-6.922C304.274,169.487,299.773,175.049,295.8,179.287Z" transform="translate(-255.753 -138.301)" fill="#7cad63"/>
      </g>
      <g id="Grupo_97252" data-name="Grupo 97252" transform="translate(40.644 54.476)">
        <path id="Trazado_213491" data-name="Trazado 213491" d="M194.765,211.977c4.71,10.744-4.679,25.244-20.971,32.388s-33.32,4.225-38.03-6.518c-1.071-2.444-2.458-5.161-2.156-7.863,1.029-9.176,10.541-19.006,23.127-24.526,10.985-4.816,23.1-5.284,30.749-1.64C191.182,205.582,193.231,208.477,194.765,211.977Z" transform="translate(-125.024 -189.705)" fill="url(#linear-gradient-4)"/>
        <ellipse id="Elipse_5387" data-name="Elipse 5387" cx="32.212" cy="21.241" rx="32.212" ry="21.241" transform="translate(0 25.87) rotate(-23.675)" fill="#f5db47" stroke="#debe23" stroke-miterlimit="10" stroke-width="2"/>
        <g id="Grupo_97251" data-name="Grupo 97251" transform="translate(29.786 20.12)" opacity="0.53" style="mix-blend-mode: multiply;isolation: isolate">
          <path id="Trazado_213492" data-name="Trazado 213492" d="M166.974,222.885,162,224.57a5.1,5.1,0,0,0,1.891,3.416,3.864,3.864,0,0,0,3.541.221,10.61,10.61,0,0,0,2.749-1.391l.621,1.97a15.075,15.075,0,0,1-3.042,1.439,6.4,6.4,0,0,1-5.392-.161q-2.175-1.249-2.856-4.651l-2.308.781-.279-1.587,2.307-.781-.308-1.752-2.308.781-.281-1.6,2.308-.781a8.6,8.6,0,0,1,1.065-5.856,8.443,8.443,0,0,1,4.672-3.527,15.1,15.1,0,0,1,3.194-.663l.1,2.15a9.627,9.627,0,0,0-2.917.513,5.169,5.169,0,0,0-3.044,2.409,6.55,6.55,0,0,0-.572,4.127l4.964-1.68.281,1.6-4.976,1.685.309,1.752,4.976-1.685Z" transform="translate(-156.332 -210.427)" fill="#a8901b"/>
        </g>
      </g>
      <g id="Grupo_97254" data-name="Grupo 97254" transform="translate(47.905 145.017)">
        <path id="Trazado_213493" data-name="Trazado 213493" d="M202.034,310.349c4.655,10.768-4.809,25.22-21.139,32.279s-33.341,4.053-38-6.715c-1.059-2.449-2.432-5.173-2.115-7.873,1.076-9.171,10.638-18.952,23.253-24.405,11.01-4.76,23.123-5.166,30.757-1.481C198.484,303.935,200.517,306.841,202.034,310.349Z" transform="translate(-132.764 -286.815)" fill="url(#linear-gradient-5)"/>
        <ellipse id="Elipse_5388" data-name="Elipse 5388" cx="32.212" cy="21.24" rx="32.212" ry="21.24" transform="matrix(0.918, -0.397, 0.397, 0.918, 0, 25.564)" fill="#f5db47" stroke="#debe23" stroke-miterlimit="10" stroke-width="2"/>
        <g id="Grupo_97253" data-name="Grupo 97253" transform="translate(30.642 20.056)">
          <path id="Trazado_213494" data-name="Trazado 213494" d="M175.053,328.234l-1.067-2.467a8.791,8.791,0,0,1-4.486.661l-.077-1.908a8.068,8.068,0,0,0,4.239-.585c1.866-.807,2.693-2.355,2.091-3.747-.581-1.344-1.965-1.732-4.227-1.624-3.1.179-5.244-.229-6.163-2.354-.876-2.028.007-4.237,2.267-5.648l-1.068-2.47,1.631-.7,1.025,2.372a8.066,8.066,0,0,1,3.785-.622l.04,1.9a7.317,7.317,0,0,0-3.669.6c-2.025.875-2.3,2.329-1.877,3.308.55,1.269,1.8,1.487,4.463,1.377,3.15-.146,5.065.536,6,2.711.835,1.93.173,4.363-2.354,5.949l1.1,2.541Z" transform="translate(-165.031 -307.386)" fill="url(#linear-gradient-6)"/>
        </g>
      </g>
      <g id="Grupo_97256" data-name="Grupo 97256" transform="translate(126.312 3.31)">
        <path id="Trazado_213495" data-name="Trazado 213495" d="M281.325,188.126c-5.576,10.321-22.785,11.831-38.437,3.374s-23.818-23.679-18.242-34c1.268-2.348,2.559-5.112,4.876-6.534,7.868-4.831,21.47-3.373,33.561,3.16,10.552,5.7,18.368,14.965,20.2,23.242C284.167,181.367,283.142,184.763,281.325,188.126Z" transform="translate(-216.664 -134.974)" fill="url(#linear-gradient-7)"/>
        <ellipse id="Elipse_5389" data-name="Elipse 5389" cx="21.241" cy="32.212" rx="21.241" ry="32.212" transform="translate(0 37.374) rotate(-61.616)" fill="#f5db47" stroke="#debe23" stroke-miterlimit="10" stroke-width="2"/>
        <g id="Grupo_97255" data-name="Grupo 97255" transform="translate(31.296 22.299)">
          <path id="Trazado_213496" data-name="Trazado 213496" d="M251.774,177.065l1.277-2.366a8.793,8.793,0,0,1-3.3-3.114l1.452-1.24a8.079,8.079,0,0,0,3.084,2.967c1.788.966,3.515.657,4.236-.677.7-1.288.145-2.616-1.341-4.325-2.06-2.325-3.065-4.261-1.965-6.3,1.051-1.944,3.333-2.617,5.84-1.716l1.279-2.366,1.563.845-1.229,2.273a8.067,8.067,0,0,1,2.831,2.587l-1.465,1.207a7.307,7.307,0,0,0-2.743-2.511c-1.94-1.049-3.252-.366-3.759.573-.658,1.217-.057,2.33,1.681,4.358,2.063,2.384,2.714,4.309,1.587,6.394-1,1.85-3.321,2.836-6.131,1.833l-1.316,2.435Z" transform="translate(-249.756 -157.93)" fill="url(#linear-gradient-8)"/>
        </g>
      </g>
      <g id="Grupo_97257" data-name="Grupo 97257" transform="translate(49.456 255.957)">
        <circle id="Elipse_5390" data-name="Elipse 5390" cx="3.124" cy="3.124" r="3.124" transform="translate(0 9.483)" fill="#050504"/>
        <line id="Línea_1216" data-name="Línea 1216" x1="18.151" y2="18.151" transform="translate(7.885)" fill="none" stroke="#000" stroke-miterlimit="10" stroke-width="0.5"/>
      </g>
      <g id="Grupo_97258" data-name="Grupo 97258" transform="translate(70.675 26.493)">
        <path id="Trazado_213497" data-name="Trazado 213497" d="M158.117,176.38a5.258,5.258,0,0,1,7.471-7.4" transform="translate(-156.595 -159.449)" fill="#050504"/>
        <line id="Línea_1217" data-name="Línea 1217" x1="16.702" y2="16.702" transform="translate(11.515)" fill="none" stroke="#000" stroke-miterlimit="10" stroke-width="0.5"/>
        <line id="Línea_1218" data-name="Línea 1218" x1="6.936" y2="6.936" transform="translate(16.827 7.794)" fill="none" stroke="#000" stroke-miterlimit="10" stroke-width="0.5"/>
      </g>
      <g id="Grupo_97260" data-name="Grupo 97260" transform="translate(104.043 33.808)">
        <g id="Grupo_97259" data-name="Grupo 97259">
          <path id="Trazado_213498" data-name="Trazado 213498" d="M213.153,179.23l-.138,0a1.647,1.647,0,0,0,1.679-1.64,1.686,1.686,0,0,0-1.672-1.654c-1.416-.028-4.109.478-5.347-.105-2.16-1.019-.488-4.665-.464-6.377a3.711,3.711,0,0,0-.342-1.868,1.535,1.535,0,0,0-1.582-.839c-.849.193-1.177,1.2-1.427,2.03a21.454,21.454,0,0,1-3.086,5.392,14.619,14.619,0,0,0-2.415,6.3,30.681,30.681,0,0,0-.171,5.668c.117,1.877.885,2.686,2.669,2.73,1.269.033,2.538.05,3.807.077l2.982.059,3.826.077a1.684,1.684,0,0,0,1.736-1.586,1.645,1.645,0,0,0-1.612-1.7l.665.013a1.658,1.658,0,0,0,.823-3.134,1.652,1.652,0,0,0,1.683-1.618l0-.133A1.65,1.65,0,0,0,213.153,179.23Z" transform="translate(-192.739 -166.716)" fill="#72b1cf"/>
          <path id="Trazado_213499" data-name="Trazado 213499" d="M196.106,179.066l-1.165-.295a1.884,1.884,0,0,0-1.289-.015c-1.559.776-1.145,4.716-1.151,6.127s-.805,4.761,1.361,4.957a2.7,2.7,0,0,0,2.131-.411,2.584,2.584,0,0,0,.62-1.508,36.1,36.1,0,0,0,.478-4.932c.021-.76.2-3.028-.351-3.671a.739.739,0,0,0-.4-.194Z" transform="translate(-192.353 -167.514)" fill="#72b1cf"/>
        </g>
      </g>
      <g id="Grupo_97262" data-name="Grupo 97262" transform="translate(17.895 224.137)">
        <g id="Grupo_97261" data-name="Grupo 97261">
          <path id="Trazado_213500" data-name="Trazado 213500" d="M120.832,383.2l-.138,0a1.647,1.647,0,0,0,1.679-1.64A1.686,1.686,0,0,0,120.7,379.9c-1.416-.028-4.109.478-5.347-.105-2.16-1.019-.488-4.665-.464-6.377a3.737,3.737,0,0,0-.342-1.869,1.536,1.536,0,0,0-1.583-.838c-.848.192-1.176,1.2-1.427,2.03a21.451,21.451,0,0,1-3.085,5.392,14.614,14.614,0,0,0-2.415,6.3,30.76,30.76,0,0,0-.172,5.668c.118,1.876.886,2.686,2.67,2.73,1.269.033,2.538.05,3.807.077l2.982.059,3.825.077a1.685,1.685,0,0,0,1.737-1.586,1.645,1.645,0,0,0-1.612-1.7l.665.013a1.658,1.658,0,0,0,.823-3.134,1.65,1.65,0,0,0,1.682-1.618l0-.133A1.65,1.65,0,0,0,120.832,383.2Z" transform="translate(-100.419 -370.682)" fill="#72b1cf"/>
          <path id="Trazado_213501" data-name="Trazado 213501" d="M103.786,383.032l-1.166-.295a1.887,1.887,0,0,0-1.288-.016c-1.559.777-1.145,4.717-1.151,6.128s-.805,4.761,1.361,4.957a2.7,2.7,0,0,0,2.131-.411,2.583,2.583,0,0,0,.619-1.508,35.972,35.972,0,0,0,.479-4.932c.021-.76.2-3.028-.351-3.671a.75.75,0,0,0-.4-.2Z" transform="translate(-100.033 -371.48)" fill="#72b1cf"/>
        </g>
      </g>
    </g>
    <path id="Trazado_213502" data-name="Trazado 213502" d="M380.08,294.625l5.046-5.271,4.109,5.243,4.1-5.443,4.246,5.418,4.035-5.355,4.178,5.331,3.87-5.136" transform="translate(-20.006 -10.608)" fill="none" stroke="#000" stroke-miterlimit="10" stroke-width="0.5"/>
    <g id="Grupo_97265" data-name="Grupo 97265" transform="translate(357.298 252.069)">
      <g id="Grupo_97264" data-name="Grupo 97264">
        <path id="Trazado_213503" data-name="Trazado 213503" d="M393.66,270.74l-.111,0a1.31,1.31,0,0,0,1.336-1.305,1.342,1.342,0,0,0-1.331-1.317c-1.126-.022-3.27.381-4.256-.084-1.719-.811-.388-3.713-.369-5.075a2.976,2.976,0,0,0-.272-1.487,1.223,1.223,0,0,0-1.26-.667c-.676.153-.936.952-1.136,1.615a17.029,17.029,0,0,1-2.456,4.291,11.638,11.638,0,0,0-1.921,5.017,24.465,24.465,0,0,0-.137,4.512c.093,1.493.7,2.138,2.125,2.173,1.01.026,2.02.04,3.03.061l2.375.048,3.044.06a1.34,1.34,0,0,0,1.382-1.262,1.31,1.31,0,0,0-1.282-1.358l.529.01a1.319,1.319,0,0,0,.655-2.494,1.315,1.315,0,0,0,1.34-1.289l0-.105A1.315,1.315,0,0,0,393.66,270.74Z" transform="translate(-377.412 -260.78)" fill="#72b1cf"/>
        <path id="Trazado_213504" data-name="Trazado 213504" d="M380.092,270.609l-.928-.234a1.5,1.5,0,0,0-1.025-.012c-1.241.619-.912,3.754-.915,4.877s-.641,3.79,1.082,3.945a2.149,2.149,0,0,0,1.7-.326,2.059,2.059,0,0,0,.493-1.2,28.533,28.533,0,0,0,.381-3.926c.017-.6.158-2.409-.279-2.921a.6.6,0,0,0-.32-.156Z" transform="translate(-377.104 -261.415)" fill="#72b1cf"/>
      </g>
    </g>
  </g>
</svg>
