<svg xmlns="http://www.w3.org/2000/svg" width="525" height="276.144" viewBox="0 0 525 276.144">
  <g id="Grupo_97150" data-name="Grupo 97150" transform="translate(-154.146 -237.967)">
    <path id="Trazado_213187" data-name="Trazado 213187" d="M194.42,514.165s-61.09-65.591-10.331-136.6c45.037-63.007,97.544-58.7,136.069-33.131,16.408,10.89,63.714,1.342,103.978-62.769,54.908-87.43,245.24-34.4,210.537,100.11-16.794,65.1,51.111,67.462,16.51,132.53Z" transform="translate(-7.766 -0.714)" fill="#f0f9ff"/>
    <g id="Grupo_97112" data-name="Grupo 97112" transform="translate(464.051 442.387)">
      <g id="Grupo_97107" data-name="Grupo 97107" transform="translate(5.896 28.131)">
        <path id="Trazado_213188" data-name="Trazado 213188" d="M1713.637,1378.207s4.929-5.751.3-9.4c0,0-3.378-2.046-6.133-1.879,0,0,3.9,6.546,2.641,7.2s-3.824-7.608-3.824-7.608-7.688-.745-10.162.444c0,0,6.573,5.379,5.188,5.7s-8.484-4.959-8.484-4.959-7.156,1.218-6.774,5.583,2.847,5.713,3.931,5.6,7.423-2.536,7.561-1.648-3.678,3.79-6.35,3.925c0,0,5.045,5.564,8.4,3.958s3.639-4.151,5.729-5.106,3.874-.952,3.011.022-4.646,1.92-5.841,4.034-2.268,3.54,1.2,3.018,9.108-3.06,9.355-5.967Z" transform="translate(-1686.377 -1366.283)" fill="#599dad"/>
        <g id="Grupo_97106" data-name="Grupo 97106" transform="translate(3.531 7.081)">
          <path id="Trazado_213189" data-name="Trazado 213189" d="M1703.51,1400.675s19.436-.749,23.729,4.81a14.056,14.056,0,0,0,3.87,5.432l.455,1.241s-3.368-3.551-4.573-3.766C1726.991,1408.391,1728.875,1401.5,1703.51,1400.675Z" transform="translate(-1703.51 -1400.641)" fill="#599dad"/>
          <path id="Trazado_213190" data-name="Trazado 213190" d="M1833.189,1448.611a12.205,12.205,0,0,1,4.462,8.6l-.757.068s-1.333-5.7-3.741-7.929S1833.189,1448.611,1833.189,1448.611Z" transform="translate(-1805.59 -1438.335)" fill="#599dad"/>
        </g>
      </g>
      <g id="Grupo_97109" data-name="Grupo 97109" transform="translate(45.235 12.517)">
        <path id="Trazado_213191" data-name="Trazado 213191" d="M1882.4,1310.831s-7.842-4.391-4.182-10.351c0,0,2.927-3.659,6.064-4.6,0,0-1.673,8.887,0,9.1s1.15-10.038,1.15-10.038,8.26-3.973,11.5-3.659c0,0-5.123,8.678-3.45,8.469s7.423-8.992,7.423-8.992,8.469-1.568,9.828,3.451-.836,7.528-2.091,7.842-9.305.209-9.1,1.254,5.646,2.719,8.678,1.777c0,0-3.346,8.26-7.737,7.841s-5.75-3.136-8.469-3.345-4.7.523-3.346,1.255,5.959.24,8.155,2.106,3.973,3.017-.1,3.853-11.4.313-12.86-2.823Z" transform="translate(-1877.248 -1290.525)" fill="#6bb7bf"/>
        <g id="Grupo_97108" data-name="Grupo 97108" transform="translate(1.014 5.251)">
          <path id="Trazado_213192" data-name="Trazado 213192" d="M1918.671,1316s-21.956,7.109-24.465,15.055a16.681,16.681,0,0,1-2.091,7.633v1.568s2.3-5.333,3.554-6.064C1895.669,1334.193,1890.755,1327.293,1918.671,1316Z" transform="translate(-1890.064 -1316.001)" fill="#6bb7bf"/>
          <path id="Trazado_213193" data-name="Trazado 213193" d="M1884.217,1422.321a14.481,14.481,0,0,0-1.456,11.4l.871-.234s-.846-6.894.926-10.361S1884.217,1422.321,1884.217,1422.321Z" transform="translate(-1882.167 -1399.633)" fill="#6bb7bf"/>
        </g>
      </g>
      <g id="Grupo_97111" data-name="Grupo 97111">
        <path id="Trazado_213194" data-name="Trazado 213194" d="M1695.687,1256.56s10.337-5.788,5.513-13.644c0,0-3.859-4.824-7.993-6.064,0,0,2.2,11.715,0,11.99s-1.516-13.231-1.516-13.231-10.888-5.237-15.16-4.824c0,0,6.753,11.439,4.548,11.164s-9.786-11.853-9.786-11.853-11.163-2.067-12.955,4.548,1.1,9.923,2.756,10.336,12.266.276,11.99,1.654-7.442,3.583-11.439,2.343c0,0,4.41,10.888,10.2,10.336s7.58-4.135,11.163-4.41,6.2.689,4.41,1.654-7.856.316-10.75,2.777-5.237,3.976.138,5.079,15.023.414,16.952-3.721Z" transform="translate(-1657.773 -1229.792)" fill="#86d1cd"/>
        <g id="Grupo_97110" data-name="Grupo 97110" transform="translate(5.665 6.921)">
          <path id="Trazado_213195" data-name="Trazado 213195" d="M1685.258,1263.373s28.942,9.372,32.25,19.846a21.992,21.992,0,0,0,2.756,10.061v2.068s-3.032-7.029-4.686-7.994C1715.578,1287.354,1722.056,1278.258,1685.258,1263.373Z" transform="translate(-1685.258 -1263.373)" fill="#6bb7bf"/>
          <path id="Trazado_213196" data-name="Trazado 213196" d="M1849.779,1403.524a19.089,19.089,0,0,1,1.919,15.029l-1.148-.309s1.115-9.087-1.22-13.658S1849.779,1403.524,1849.779,1403.524Z" transform="translate(-1814.773 -1373.617)" fill="#6bb7bf"/>
        </g>
      </g>
      <path id="Trazado_213197" data-name="Trazado 213197" d="M1766.426,1490.213a20.248,20.248,0,0,0,20.248-20.248h-40.5A20.248,20.248,0,0,0,1766.426,1490.213Z" transform="translate(-1727.957 -1420.464)" fill="#ee9849"/>
      <path id="Trazado_213198" data-name="Trazado 213198" d="M1780.913,1490.058a20.26,20.26,0,0,1-22.762-20.093h5.03A20.251,20.251,0,0,0,1780.913,1490.058Z" transform="translate(-1737.463 -1420.464)" fill="#f3b175"/>
      <path id="Trazado_213199" data-name="Trazado 213199" d="M1785.876,1563.582h-41.055a2.5,2.5,0,0,1,2.5-2.5h36.059a2.5,2.5,0,0,1,2.5,2.5Z" transform="translate(-1726.88 -1492.803)" fill="#ee9849"/>
      <rect id="Rectángulo_40494" data-name="Rectángulo 40494" width="41.622" height="0.621" transform="translate(17.555 49.501)" fill="#ee9849"/>
    </g>
    <g id="Grupo_97116" data-name="Grupo 97116" transform="translate(208.052 312.207)">
      <path id="Trazado_213200" data-name="Trazado 213200" d="M469.849,601.363c-.057-.316-.8-3.7-6.036-3.123,0,0,2.606-.066,3.213,1,0,0-1.947-1.139-3.3-.484s-1.829,3.264-1.719,4.084,1.283,3.344,2.217,3.438a2.778,2.778,0,0,0,1.092-.157,12.445,12.445,0,0,0-.518,1.351c-1.459,4.57,1.29,8.43,2.983,7.714,1.086-.46,1.685,1.421,1.685,1.421l9.679-10.471S473.9,598.38,469.849,601.363Z" transform="translate(-452.447 -598.174)" fill="#2c3a64"/>
      <path id="Trazado_213201" data-name="Trazado 213201" d="M486.749,943.766l-2.354.877s-10.224-14.181-11.483-26.657a18.939,18.939,0,0,1,.336-6.379s-.1-.571-.275-1.58c-.081-.471-.181-1.038-.294-1.687-.332-1.9-.79-4.51-1.313-7.478-1.2-6.828-2.762-15.557-3.972-21.974l.634-.2,6.863-2.214,1.418-4.5,5.11-1.346s1.142,2.233,2.162,12.782c.189,1.384.359,2.91.488,4.564a90.348,90.348,0,0,1-.487,18.479q-.351,2.75-.9,5.671a25.311,25.311,0,0,0-.2,5.6C483.005,927.915,486.749,943.766,486.749,943.766Z" transform="translate(-456.738 -814.468)" fill="#2b478b"/>
      <path id="Trazado_213202" data-name="Trazado 213202" d="M484.07,887.966l-11.1,22.061c-.081-.471-.181-1.038-.294-1.687-.332-1.9-.79-4.51-1.313-7.478-1.2-6.828-2.762-15.557-3.972-21.974l.634-.2,6.863-2.214,1.418-4.5,5.11-1.346s1.142,2.233,2.162,12.782C483.77,884.786,483.941,886.312,484.07,887.966Z" transform="translate(-456.738 -814.468)" fill="#233862"/>
      <path id="Trazado_213203" data-name="Trazado 213203" d="M439.683,863.566l-.257-2.2c-4.3,1.143-15.8-3.194-15.8-3.194s-4.169,3.665-3.622,12.45c.267,4.288.755,22.508,1.265,27.9.184,1.954.345,3.345.411,3.9a.009.009,0,0,1,0,.006.772.772,0,0,1-.125.477,25.322,25.322,0,0,0-1.882,3.957c-5,13.332.771,29.751.771,29.751l1.5-.6s3.286-18.272,5.956-26.344a15.98,15.98,0,0,1,1.286-3.088A34.865,34.865,0,0,0,432.4,898a210.884,210.884,0,0,0,4.325-22.749C436.861,875.256,439.683,863.566,439.683,863.566Z" transform="translate(-417.233 -804.583)" fill="#2b478b"/>
      <path id="Trazado_213204" data-name="Trazado 213204" d="M526.929,745.253a2.985,2.985,0,0,0,.118.347c1.681,4.738,4.676,9.713,6.719,11.529,1.341,1.2,5.026,2.445,8.161,3.336,2.08.61,3.937,1.053,4.7,1.244.242.062.383.087.383.087l.7-2.064s-1.627-1.018-3.612-2.353c-2.757-1.874-6.2-4.341-6.865-5.4-1.528-2.465-2.541-10-3.852-15.085-.065-.274-.132-.54-.2-.8-.05-.192-.1-.38-.151-.566a.484.484,0,0,0-.047-.135c-.071-.212-.126-.4-.185-.577,0-.016-.013-.037-.026-.059a15.514,15.514,0,0,0-.884-2.024c-.383-.593-.8-.886-1.253-.786a5.662,5.662,0,0,0-1.4.73c-.166.113-.34.242-.518.389a1.336,1.336,0,0,0-.3.255,7.441,7.441,0,0,0-1.765,2.361,9.2,9.2,0,0,0-.816,2.821A15.678,15.678,0,0,0,526.929,745.253Z" transform="translate(-503.076 -704.36)" fill="#ffb27d"/>
      <path id="Trazado_213205" data-name="Trazado 213205" d="M482.976,697.34a13.4,13.4,0,0,1-4.738,1.861c-7.264,1.464-9.858-4.714-10.779-8.93a6.207,6.207,0,0,1,2.466-.682c.523-.047,1.073-.072,1.528-.082.828-.6,2.107-3.1,2.485-7.041l.337.1,5.644,1.717s-.312,1.8-.487,3.506a6.774,6.774,0,0,0,.056,2.932c.441.109.706.179.706.179a.021.021,0,0,0,0,.006A36.657,36.657,0,0,1,482.976,697.34Z" transform="translate(-456.79 -665.092)" fill="#ffb27d"/>
      <path id="Trazado_213206" data-name="Trazado 213206" d="M506.177,684.676s-.313,1.8-.487,3.506c-3.214-.413-4.622-3.523-5.157-5.223Z" transform="translate(-483.047 -665.484)" fill="#ed985f"/>
      <path id="Trazado_213207" data-name="Trazado 213207" d="M504.669,648.729s-7.637-.637-7.166-5.387-.2-8.031,4.7-7.825,5.662,2.112,5.891,3.736S506.668,648.772,504.669,648.729Z" transform="translate(-480.625 -627.813)" fill="#ffb27d"/>
      <path id="Trazado_213208" data-name="Trazado 213208" d="M457.783,724.263c-.05-.192-.1-.38-.151-.566a.481.481,0,0,0-.047-.135c-.071-.212-.126-.4-.186-.577,0-.016-.013-.037-.026-.059a15.506,15.506,0,0,0-.884-2.024,2.526,2.526,0,0,0-.861-.946,15.778,15.778,0,0,0-4.542-1.619.019.019,0,0,0,0,.006c.076.175,2.11,4.811,1.773,5.912-.343,1.12-10.193-.906-10.816-1.6-.5-.561-.986-3.836-1.16-5.114-.044-.318-.069-.512-.069-.512s-3.562.034-5.412,1.114a15.283,15.283,0,0,1,1.576,3.389c.052.173.1.347.144.521a7.186,7.186,0,0,1,.19,1.111,2.153,2.153,0,0,1-.482,1.427,10.485,10.485,0,0,1-1.238,1.372c-.325.315-.675.647-1.035,1h0a95.388,95.388,0,0,1,1.112,9.667,6.572,6.572,0,0,1-.539,2.867,6.672,6.672,0,0,1-.557,1.032c-1.728,2.614-4.717,7.759-3.5,10.514.452,2.7,23.812,2.943,22.892.039,0,0,1.031-17.043,2.306-21.306.046-.156.086-.307.12-.462a9.3,9.3,0,0,0-.351-4.582A8.064,8.064,0,0,1,457.783,724.263Z" transform="translate(-427.682 -692.529)" fill="#ff9843"/>
      <path id="Trazado_213209" data-name="Trazado 213209" d="M499.2,632.866c-1.036-1.547-1.958-1.322-2.5-.943a5.356,5.356,0,0,0-6.962.41,9.116,9.116,0,0,1-3.5,5.063s1.3,1,4.59.495a5.471,5.471,0,0,0,2.774-1.531,17.876,17.876,0,0,1-3.435,3.433c4-1.386,6.073-6.555,6.282-7.1a6.006,6.006,0,0,1,1.441,2.383c.259,1.248.181,3.754.914,3.742C498.8,638.815,500.748,635.185,499.2,632.866Z" transform="translate(-471.691 -624.09)" fill="#2c3a64"/>
      <path id="Trazado_213210" data-name="Trazado 213210" d="M461.518,775.544c-4.512.606-9.007-3.519-11.881-6.919a6.571,6.571,0,0,0,.539-2.867,95.379,95.379,0,0,0-1.112-9.667h0c.36-.357.71-.689,1.035-1a10.484,10.484,0,0,0,1.238-1.372C455.932,759.415,467.636,774.722,461.518,775.544Z" transform="translate(-442.186 -721.656)" fill="#ed7d2b"/>
      <path id="Trazado_213211" data-name="Trazado 213211" d="M628.847,866.714c-1.014.293-2.538,1.551-4.609.434a34,34,0,0,0-3.853-1.694c-.31-.1-.486-.164-.486-.164l1.156-2.4a.463.463,0,0,0,.1.043,15.311,15.311,0,0,0,4.672.98c1.534-.171,3.826,1.92,3.826,1.92S629.859,866.436,628.847,866.714Z" transform="translate(-577.812 -808.329)" fill="#ffb27d"/>
      <path id="Trazado_213212" data-name="Trazado 213212" d="M427.614,1218.952H415.758a6.509,6.509,0,0,1,.335-3.178c.593-1.315,1.523-1.913,1.3-3.5a4.271,4.271,0,0,0,3.7,1.414,13.016,13.016,0,0,0,2.057,2.667C423.921,1216.906,427.376,1216.708,427.614,1218.952Z" transform="translate(-415.693 -1085.701)" fill="#233862"/>
      <path id="Trazado_213213" data-name="Trazado 213213" d="M550.892,1221H539.036a4.929,4.929,0,0,1,.335-3.178,2.285,2.285,0,0,0-.085-2.729,4.6,4.6,0,0,0,2,.376,4.175,4.175,0,0,0,1.763-.62,42.724,42.724,0,0,0,3.378,3.548C547.2,1218.954,550.654,1218.756,550.892,1221Z" transform="translate(-513.515 -1087.75)" fill="#233862"/>
      <path id="Trazado_213214" data-name="Trazado 213214" d="M523.519,685.22s.107.629,1.654.63c0,0,1.3,0,1.3-.682A4.171,4.171,0,0,0,523.519,685.22Z" transform="translate(-501.296 -667.051)" fill="#fff"/>
      <path id="Trazado_213215" data-name="Trazado 213215" d="M585.4,865.032a4.723,4.723,0,0,0,1.753-.431c.735-.393,3.138.238,2.906.557s-1.578-.073-1.7.108a2.181,2.181,0,0,1-.617.412Z" transform="translate(-550.421 -809.591)" fill="#ffb27d"/>
      <g id="Grupo_97114" data-name="Grupo 97114" transform="translate(36.965 21.055)">
        <path id="Rectángulo_40495" data-name="Rectángulo 40495" d="M35.651,0h0A35.651,35.651,0,0,1,71.3,35.651v0A35.651,35.651,0,0,1,35.651,71.3h0A35.651,35.651,0,0,1,0,35.651v0A35.651,35.651,0,0,1,35.651,0Z" fill="#e3f0ff"/>
        <path id="Trazado_213216" data-name="Trazado 213216" d="M692.381,750.634v34.817a9.041,9.041,0,0,1-9.047,9.047H648.516a9.039,9.039,0,0,1-9.047-9.047V750.634a9.047,9.047,0,0,1,9.047-9.048h34.817A9.049,9.049,0,0,1,692.381,750.634Z" transform="translate(-630.313 -733.083)" fill="#d2e4ff"/>
        <g id="Grupo_97113" data-name="Grupo 97113" transform="translate(9.687 14.306)">
          <path id="Trazado_213217" data-name="Trazado 213217" d="M721.136,847.082a46.818,46.818,0,0,1-.874,7.892l-5.521,3.852,20.784,3.11-4.957-6.848s-1.5-7.308-.712-10.011S721.136,847.082,721.136,847.082Z" transform="translate(-699.758 -828.886)" fill="#ffb27d"/>
          <path id="Trazado_213218" data-name="Trazado 213218" d="M745.623,861.685s1.643,3.956,4.739,3.869,3.8-3.588,3.8-3.588Z" transform="translate(-724.275 -842.736)" fill="#ed985f"/>
          <path id="Trazado_213219" data-name="Trazado 213219" d="M728.66,785.49a49.7,49.7,0,0,0-1.7-6.5c-.7-1.512-1.279-8.256,6.453-8.6,0,0,2.965.349,4.593-.64,0,0,0,.988-.407,1.337a5.139,5.139,0,0,1,4.767,1.686c2.093,2.325-1.395,10.465-1.221,12.383Z" transform="translate(-709.16 -769.744)" fill="#b64c41"/>
          <path id="Trazado_213220" data-name="Trazado 213220" d="M742.352,815.442c-2.243-.039-6.372-3.026-6.372-6.725v-5.772a2.3,2.3,0,0,1,2.093-2.456h8.558a2.3,2.3,0,0,1,2.093,2.456v5.445C748.724,812.269,744.924,815.487,742.352,815.442Z" transform="translate(-716.62 -794.152)" fill="#ffb27d"/>
          <path id="Trazado_213221" data-name="Trazado 213221" d="M734.88,800.991s.012-3.468,2.759-4,8.895,1.691,9.767-.838-11.883-2.485-12.526-.872S734.88,800.991,734.88,800.991Z" transform="translate(-715.52 -789.117)" fill="#b64c41"/>
          <path id="Trazado_213222" data-name="Trazado 213222" d="M680.814,897.973a.016.016,0,0,0-.008,0,3.769,3.769,0,0,0-.885-.24v.01a54.82,54.82,0,0,0-6.392-1.219c-.227-.03-.452-.056-.673-.083a9.91,9.91,0,0,1-3.6,3.214c-.255.127-.511.243-.774.354-.228.1-.462.19-.7.285a4.313,4.313,0,0,1-.883-.222c-.166-.06-.328-.127-.488-.2a10.785,10.785,0,0,1-3.858-3.542c-.307.032-.607.066-.895.1a30.26,30.26,0,0,0-5.125,1.044h0c-.161.02-5.82.8-14.481,13.886a9.049,9.049,0,0,0,8.516,5.987h34.817a9.043,9.043,0,0,0,8.555-6.093C687.372,901.3,682.68,898.663,680.814,897.973Z" transform="translate(-642.045 -870.235)" fill="#2f5196"/>
          <path id="Trazado_213223" data-name="Trazado 213223" d="M738.371,889.877a2.207,2.207,0,0,0-1.185,1.431s3.7,3.808,6.124,3.866Z" transform="translate(-717.577 -865.117)" fill="#ee9849"/>
          <path id="Trazado_213224" data-name="Trazado 213224" d="M766.9,894.431l4.778-5.489a2.242,2.242,0,0,1,.972,1.717S768.953,894.576,766.9,894.431Z" transform="translate(-741.166 -864.375)" fill="#ee9849"/>
          <path id="Trazado_213225" data-name="Trazado 213225" d="M758.878,930.968H754.1c.563-6.411,1.249-12.752,1.578-15.718.068-.6.119-1.066.154-1.362q.007-.074.015-.134c0-.021,0-.043.007-.061.015-.119.022-.182.022-.182l.478-.008.752-.013h0l.319,0s0,.05.012.145c0,.051.01.118.018.2,0,.061.01.132.016.21.03.351.073.859.126,1.5C757.863,918.633,758.377,924.8,758.878,930.968Z" transform="translate(-731.008 -883.859)" fill="#ee9849"/>
          <path id="Trazado_213226" data-name="Trazado 213226" d="M756.947,905.63a22.994,22.994,0,0,1,3.546-.085.372.372,0,0,1,.285.552c-.376.677-1.143,1.85-1.946,1.85C757.7,907.948,755.947,905.708,756.947,905.63Z" transform="translate(-733.029 -877.521)" fill="#e58638"/>
        </g>
      </g>
      <g id="Grupo_97115" data-name="Grupo 97115" transform="translate(5.618 25.463)">
        <path id="Trazado_213227" data-name="Trazado 213227" d="M585.1,868.336a3.552,3.552,0,0,1-4.414,1.154,33.862,33.862,0,0,0-3.948-1.46c-.315-.079-.494-.135-.494-.135l1.01-2.467a.475.475,0,0,0,.1.036c.554.154,3.295.163,4.8.969C583.9,867.367,585.838,867.338,585.1,868.336Z" transform="translate(-548.773 -835.808)" fill="#ffb27d"/>
        <path id="Trazado_213228" data-name="Trazado 213228" d="M472.49,765.5l-.423,2.325s-.793-.074-2.056-.2c-.379-.038-.6-.073-.6-.073-1.011-.109-2.224-.272-3.543-.444h-.018c-2.265-.339-4.805-.763-6.961-1.291a18.7,18.7,0,0,1-3.76-1.3,2.119,2.119,0,0,1-.264-.156c-2.207-1.328-5.059-5.551-7.389-10.141-.323-.633-.629-1.269-.932-1.886a48.665,48.665,0,0,1-2.608-6.569,19.065,19.065,0,0,1-.759-3.17,7.935,7.935,0,0,1-.1-.9c-.013-.164-.023-.324-.03-.48a8.21,8.21,0,0,1,5.756-2.088c.059.1.116.2.175.3,1.21,2.2,2.532,5.073,3.782,7.933.691,1.567,1.363,3.136,2.025,4.581.381.879.757,1.7,1.108,2.461a24.561,24.561,0,0,0,1.791,3.331,8.626,8.626,0,0,0,2.354,1.781,79.841,79.841,0,0,0,7.406,3.755c1.044.482,2.029.915,2.847,1.273C471.619,765.13,472.49,765.5,472.49,765.5Z" transform="translate(-443.033 -735.531)" fill="#ffb27d"/>
        <path id="Trazado_213229" data-name="Trazado 213229" d="M448.9,725.626c-3.5-.646-5.9,2.251-5.9,2.251-.4-5.142,2.094-6.068,2.094-6.068C446.082,721.294,447.429,722.972,448.9,725.626Z" transform="translate(-442.952 -721.716)" fill="#ff9843"/>
      </g>
    </g>
    <g id="Grupo_97122" data-name="Grupo 97122" transform="translate(553.908 407.533)">
      <path id="Rectángulo_40496" data-name="Rectángulo 40496" d="M5.22,0H50.894a5.22,5.22,0,0,1,5.22,5.22v0a5.22,5.22,0,0,1-5.22,5.22H5.219A5.219,5.219,0,0,1,0,5.221v0A5.22,5.22,0,0,1,5.22,0Z" transform="translate(0 0)" fill="#ee9849"/>
      <g id="Grupo_97121" data-name="Grupo 97121" transform="translate(1.944 10.44)">
        <g id="Grupo_97118" data-name="Grupo 97118">
          <g id="Grupo_97117" data-name="Grupo 97117">
            <path id="Trazado_213230" data-name="Trazado 213230" d="M2114.841,1111.341l-.667,6.109-9.65,88.432a.55.55,0,0,1-.5.542.947.947,0,0,1-.829-1.1l7.654-90.557.29-3.421Z" transform="translate(-2103.187 -1111.341)" fill="#efcbab"/>
          </g>
          <path id="Trazado_213231" data-name="Trazado 213231" d="M2144.339,1111.341l-.667,6.109c-.458-2.433-3.33-2.688-3.33-2.688l.29-3.421Z" transform="translate(-2132.685 -1111.341)" fill="#cca07f"/>
        </g>
        <g id="Grupo_97120" data-name="Grupo 97120" transform="translate(40.572)">
          <g id="Grupo_97119" data-name="Grupo 97119">
            <path id="Trazado_213232" data-name="Trazado 213232" d="M2310.856,1206.423a.551.551,0,0,1-.5-.542l-9.649-88.432-.416-3.811-.251-2.3h3.707l.29,3.421.227,2.684,7.427,87.873A.947.947,0,0,1,2310.856,1206.423Z" transform="translate(-2300.036 -1111.341)" fill="#efcbab"/>
          </g>
          <path id="Trazado_213233" data-name="Trazado 213233" d="M2304.259,1117.446a6.369,6.369,0,0,0-3.971-3.805,0,0,0,0,0,0,0l-.251-2.3h3.707l.29,3.421Z" transform="translate(-2300.036 -1111.341)" fill="#cca07f"/>
        </g>
      </g>
    </g>
    <g id="Grupo_97128" data-name="Grupo 97128" transform="translate(193.966 445.458)">
      <path id="Rectángulo_40497" data-name="Rectángulo 40497" d="M3.344,0H52.77a3.344,3.344,0,0,1,3.344,3.344v0A3.344,3.344,0,0,1,52.77,6.688H3.344A3.344,3.344,0,0,1,0,3.344v0A3.344,3.344,0,0,1,3.344,0Z" transform="translate(0)" fill="#ee9849"/>
      <g id="Grupo_97127" data-name="Grupo 97127" transform="translate(1.944 6.688)">
        <g id="Grupo_97124" data-name="Grupo 97124">
          <g id="Grupo_97123" data-name="Grupo 97123">
            <path id="Trazado_213234" data-name="Trazado 213234" d="M368.435,1277.141l-.667,3.913-9.65,56.65a.477.477,0,0,1-.5.348c-.5,0-.881-.329-.829-.707l7.653-58.012.29-2.191Z" transform="translate(-356.781 -1277.141)" fill="#efcbab"/>
          </g>
          <path id="Trazado_213235" data-name="Trazado 213235" d="M397.932,1277.141l-.667,3.913c-.458-1.559-3.33-1.722-3.33-1.722l.29-2.191Z" transform="translate(-386.278 -1277.141)" fill="#cca07f"/>
        </g>
        <g id="Grupo_97126" data-name="Grupo 97126" transform="translate(40.572)">
          <g id="Grupo_97125" data-name="Grupo 97125">
            <path id="Trazado_213236" data-name="Trazado 213236" d="M564.452,1338.051a.476.476,0,0,1-.5-.348l-9.65-56.65-.416-2.441-.251-1.472h3.706l.29,2.191.227,1.719,7.427,56.292C565.333,1337.722,564.947,1338.051,564.452,1338.051Z" transform="translate(-553.631 -1277.141)" fill="#efcbab"/>
          </g>
          <path id="Trazado_213237" data-name="Trazado 213237" d="M557.854,1281.052c-.943-1.865-3.971-2.437-3.971-2.437a0,0,0,0,0,0,0l-.251-1.472h3.706l.29,2.191Z" transform="translate(-553.631 -1277.141)" fill="#cca07f"/>
        </g>
      </g>
    </g>
    <g id="Grupo_97130" data-name="Grupo 97130" transform="translate(270.517 246.154)">
      <path id="Rectángulo_40498" data-name="Rectángulo 40498" d="M36.026,0h0A36.025,36.025,0,0,1,72.051,36.025v0A36.026,36.026,0,0,1,36.025,72.052h0A36.025,36.025,0,0,1,0,36.026v0A36.026,36.026,0,0,1,36.026,0Z" fill="#e3f0ff"/>
      <path id="Trazado_213238" data-name="Trazado 213238" d="M817.124,328.526V363.71a9.127,9.127,0,0,1-5.847,8.528q-.156.062-.312.114a9.1,9.1,0,0,1-2.984.5H772.8a9.04,9.04,0,0,1-1.365-.1,9.138,9.138,0,0,1-7.777-9.039V328.526a9.142,9.142,0,0,1,9.142-9.142h35.183A9.142,9.142,0,0,1,817.124,328.526Z" transform="translate(-754.404 -310.791)" fill="#d2e4ff"/>
      <g id="Grupo_97129" data-name="Grupo 97129" transform="translate(10.41 14.932)">
        <path id="Trazado_213239" data-name="Trazado 213239" d="M857.2,418.107a41.138,41.138,0,0,1-.768,6.935l-4.852,3.385,18.264,2.733-4.356-6.018s-1.315-6.422-.625-8.8S857.2,418.107,857.2,418.107Z" transform="translate(-834.618 -402.116)" fill="#ffb27d"/>
        <path id="Trazado_213240" data-name="Trazado 213240" d="M878.721,430.939s1.444,3.477,4.165,3.4,3.34-3.153,3.34-3.153Z" transform="translate(-856.164 -414.287)" fill="#ed985f"/>
        <path id="Trazado_213241" data-name="Trazado 213241" d="M863.814,363.98a43.7,43.7,0,0,0-1.492-5.714c-.613-1.328-1.124-7.255,5.671-7.561,0,0,2.605.307,4.036-.562,0,0,0,.869-.357,1.175a4.517,4.517,0,0,1,4.189,1.482c1.839,2.044-1.226,9.2-1.073,10.882Z" transform="translate(-842.881 -350.143)" fill="#2c3a64"/>
        <path id="Trazado_213242" data-name="Trazado 213242" d="M881.445,379.32v4.786a5.655,5.655,0,0,1-.494,2.275h0a7.266,7.266,0,0,1-2.45,2.957,4.714,4.714,0,0,1-2.653.965,5.139,5.139,0,0,1-2.522-.951,7.121,7.121,0,0,1-2.832-3.489l-.007-.022-.018-.06a4.606,4.606,0,0,1-.221-1.388V379.32a2.024,2.024,0,0,1,1.84-2.157h7.519A2.023,2.023,0,0,1,881.445,379.32Z" transform="translate(-849.435 -371.594)" fill="#ffb27d"/>
        <path id="Trazado_213243" data-name="Trazado 213243" d="M806.356,462.625s-4.289-.924-6.209-1.147a8.9,8.9,0,0,1-4.461,3.47c-2.495-.344-4.6-3.5-4.6-3.57a25.725,25.725,0,0,0-5.291,1.091h0c-.174.022-6.816.946-16.522,18.507a9.141,9.141,0,0,0,6.619,4.584c1.251-1.08,3.937-3.413,6.043-5.242-.023.591-.028,1.125-.015,1.591.036,1.257.076,2.5.1,3.754h26.481c-.051-.634-.093-1.246-.122-1.83-.091-1.82-.175-3.482-.253-5,0-.013,0-.027,0-.04s0-.031,0-.048l.006.005,1.338,1.161.3.263.268.233c.124.106.25.215.376.326l.688.6.319.278.17.147c.065.056.131.112.2.17.048.042.1.083.146.126.114.1.227.2.339.294l.276.24.23.2c.278.243.551.48.815.71l.314.271c.107.094.215.187.319.276.073.065.146.128.218.19l.1.083c.111.1.217.19.321.278l.311.271.122.106c.043.038.086.074.128.109q.156-.052.312-.114a9.16,9.16,0,0,0,5.554-6.224C812.2,463.093,806.356,462.625,806.356,462.625Z" transform="translate(-769.274 -438.452)" fill="#f99746"/>
        <path id="Trazado_213244" data-name="Trazado 213244" d="M869.28,377.6s.01-3.048,2.424-3.516,7.817,1.485,8.583-.737-10.443-2.184-11.007-.767S869.28,377.6,869.28,377.6Z" transform="translate(-848.469 -367.168)" fill="#2c3a64"/>
        <path id="Trazado_213245" data-name="Trazado 213245" d="M833.854,556.662h-3.138c-.028-1.249-.068-2.5-.1-3.754-.013-.466-.008-1,.015-1.591,0-.132.01-.266.016-.4.03.049.085.134.157.253C831.268,551.931,832.549,554.063,833.854,556.662Z" transform="translate(-817.964 -509.533)" fill="#ed7d2b"/>
        <path id="Trazado_213246" data-name="Trazado 213246" d="M890.355,417.752v2.109a4.715,4.715,0,0,1-2.653.965,5.139,5.139,0,0,1-2.521-.951v-2.124a2.148,2.148,0,0,1,2.141-2.141h.892A2.148,2.148,0,0,1,890.355,417.752Z" transform="translate(-861.291 -402.118)" fill="#2c3a64"/>
        <path id="Trazado_213247" data-name="Trazado 213247" d="M965.31,549.4q-.156.062-.312.114c-.042-.035-.085-.071-.128-.109l-.122-.106-.311-.271c-.1-.088-.21-.182-.321-.278l-.1-.083q-.109-.094-.218-.19c-.1-.089-.212-.182-.319-.276l-.314-.271c-.265-.23-.538-.466-.816-.709l-.23-.2-.276-.24c-.112-.1-.225-.2-.339-.294-.048-.043-.1-.084-.146-.126-.065-.057-.131-.114-.2-.17l-.17-.147-.319-.278-.688-.6c-.126-.111-.252-.22-.376-.326l-.268-.233-.3-.263-1.338-1.161a.315.315,0,0,1-.026-.023l.023-.016a2.6,2.6,0,0,1,3.987.867A60.433,60.433,0,0,0,965.31,549.4Z" transform="translate(-918.846 -502.89)" fill="#ed7d2b"/>
        <path id="Trazado_213248" data-name="Trazado 213248" d="M881.8,419.58c-1.012,2.3-3.372,3.952-5.1,3.922-1.663-.031-4.506-1.9-5.353-4.44l-.007-.022-.018-.06s1.786,1.524,2.968.769h4.962A2.452,2.452,0,0,0,881.8,419.58Z" transform="translate(-850.286 -404.792)" fill="#2c3a64"/>
        <path id="Trazado_213249" data-name="Trazado 213249" d="M894.059,421.315h-1.07c-.246,0-.558-.4-.558-.647a1.177,1.177,0,0,1,.558-.245h1.07a.9.9,0,0,1,.662.349A.736.736,0,0,1,894.059,421.315Z" transform="translate(-867.048 -405.938)" fill="#ffb27d"/>
      </g>
    </g>
    <g id="Grupo_97132" data-name="Grupo 97132" transform="translate(356.718 244.685)">
      <rect id="Rectángulo_40499" data-name="Rectángulo 40499" width="72.052" height="72.052" rx="36.026" transform="translate(0 0)" fill="#e3f0ff"/>
      <path id="Trazado_213250" data-name="Trazado 213250" d="M1235.361,321.392v35.183a9.141,9.141,0,0,1-9.142,9.142h-35.184a9.143,9.143,0,0,1-9.142-9.142V321.392a9.143,9.143,0,0,1,9.142-9.144h35.184A9.143,9.143,0,0,1,1235.361,321.392Z" transform="translate(-1172.641 -303.656)" fill="#d2e4ff"/>
      <g id="Grupo_97131" data-name="Grupo 97131" transform="translate(12.367 16.44)">
        <path id="Trazado_213251" data-name="Trazado 213251" d="M1256.2,375.218s-5.74-.288-5.9-3.6-4.9-5.728-3.529-8.387c1.684-3.261.148-6.4,2.273-8.589,2.343-2.416,5.3-1.1,6.863-2.511a5.987,5.987,0,0,1,7.232-.966c2.815,1.739,4.964.8,6.815,2.478,2.045,1.85,1.27,4.18,2.956,5.444,1.546,1.159.915,4.327-.386,6.9-.939,1.855,1.224,3.594-2.489,5.726-1.545.888-1.21,3.12-5.9,3.505C1262.015,375.391,1257.428,374.4,1256.2,375.218Z" transform="translate(-1236.313 -350.328)" fill="#2c3a64"/>
        <path id="Trazado_213252" data-name="Trazado 213252" d="M1270.921,446.44a44.441,44.441,0,0,1-.83,7.494l-5.243,3.657,19.736,2.953-4.707-6.5s-1.421-6.939-.676-9.506S1270.921,446.44,1270.921,446.44Z" transform="translate(-1250.866 -424.488)" fill="#b56f40"/>
        <path id="Trazado_213253" data-name="Trazado 213253" d="M1294.173,460.3s1.561,3.757,4.5,3.674,3.609-3.407,3.609-3.407Z" transform="translate(-1274.147 -437.638)" fill="#99592e"/>
        <path id="Trazado_213254" data-name="Trazado 213254" d="M1291.067,416.394c-2.13-.038-6.05-2.874-6.05-6.386v-5.481A2.187,2.187,0,0,1,1287,402.2h8.126a2.187,2.187,0,0,1,1.987,2.332V409.7C1297.118,413.381,1293.51,416.437,1291.067,416.394Z" transform="translate(-1266.878 -391.505)" fill="#b56f40"/>
        <path id="Trazado_213255" data-name="Trazado 213255" d="M1232.731,494.625h0a53.389,53.389,0,0,0-6.708-1.319,9.585,9.585,0,0,1-4.822,3.743c-2.693-.372-4.964-3.774-4.964-3.85a27.815,27.815,0,0,0-5.718,1.172h-.008c-.237.03-5.483.844-13.5,12.814a9.1,9.1,0,0,0,6.027,2.268h31.477c0-.028,0-.055,0-.083h3.712a9.124,9.124,0,0,0,6.981-3.239C1239.567,496.461,1232.731,494.625,1232.731,494.625Z" transform="translate(-1197.008 -463.752)" fill="#b64c41"/>
        <path id="Trazado_213256" data-name="Trazado 213256" d="M1284.969,397.5a5.747,5.747,0,0,1,6.322-3.809c4.844.7,5.264,1.739,5.779,2.94s1.509-4.389,1.509-4.389l-5.714-1.7s-6.915.787-7.411,1.946l-.5,1.159Z" transform="translate(-1266.83 -382.254)" fill="#2c3a64"/>
        <path id="Trazado_213257" data-name="Trazado 213257" d="M1297.56,425.189a1.557,1.557,0,0,0-1.224-.519h-2.571a1.135,1.135,0,0,0-1.016.417.916.916,0,0,0-.144.425h0a2.4,2.4,0,0,0-1.143.02h0v0a.93.93,0,0,0-.147-.445,1.13,1.13,0,0,0-1.014-.417h-2.573a1.551,1.551,0,0,0-1.222.519,1.31,1.31,0,0,0-.24,1.13c.293,1.454,1.965,1.639,2.8,1.639.258,0,.435-.018.468-.021.782,0,1.333-.448,1.734-1.4a2.51,2.51,0,0,0,.2-.789h0a2.213,2.213,0,0,1,1.133-.023h0a2.5,2.5,0,0,0,.2.812c.4.956.951,1.4,1.734,1.4.033,0,.212.021.47.021.835,0,2.51-.185,2.8-1.638A1.322,1.322,0,0,0,1297.56,425.189Zm-6.268.607a2.543,2.543,0,0,1-.177.671c-.371.887-.873,1.3-1.582,1.3h-.011a5,5,0,0,1-1.426-.066,1.857,1.857,0,0,1-1.664-1.416,1.148,1.148,0,0,1,.205-.989,1.389,1.389,0,0,1,1.092-.458h2.573a.978.978,0,0,1,.874.343.788.788,0,0,1,.121.4h0a2.234,2.234,0,0,0-.226.083.1.1,0,1,0,.084.184s.054-.024.138-.053Zm6.343.489a1.859,1.859,0,0,1-1.666,1.416,4.994,4.994,0,0,1-1.426.066h-.01c-.708,0-1.211-.414-1.582-1.3a2.4,2.4,0,0,1-.179-.688v0c.049.02.1.042.147.068a.1.1,0,0,0,.095-.179,1.76,1.76,0,0,0-.241-.1v0a.774.774,0,0,1,.119-.38.977.977,0,0,1,.874-.343h2.571a1.391,1.391,0,0,1,1.094.458A1.153,1.153,0,0,1,1297.634,426.286Z" transform="translate(-1267.841 -409.348)" fill="#2c3a64"/>
      </g>
    </g>
    <g id="Grupo_97134" data-name="Grupo 97134" transform="translate(455.991 237.967)">
      <path id="Trazado_213258" data-name="Trazado 213258" d="M1676.678,315.058l-47.1-5.432a12.321,12.321,0,0,1-10.828-13.651l5.432-47.1a12.32,12.32,0,0,1,13.65-10.828l47.1,5.432a12.32,12.32,0,0,1,10.828,13.651l-5.431,47.1A12.32,12.32,0,0,1,1676.678,315.058Z" transform="translate(-1618.669 -237.967)" fill="#e3f0ff"/>
      <path id="Trazado_213259" data-name="Trazado 213259" d="M1724.363,297.086l-4.032,34.951a9.084,9.084,0,0,1-1.284,3.725v0a9.167,9.167,0,0,1-4.469,3.741,9.069,9.069,0,0,1-3.395.627h0a9.006,9.006,0,0,1-.981-.06l-14.818-1.709-2.93-.338-9.575-1.1-1.229-.142-6.4-.738a9.137,9.137,0,0,1-7.431-5.659c-.079-.2-.152-.392-.217-.592a8.965,8.965,0,0,1-.442-2.5,9.127,9.127,0,0,1,.055-1.373l4.032-34.951a9.141,9.141,0,0,1,10.129-8.035l34.951,4.03A9.144,9.144,0,0,1,1724.363,297.086Z" transform="translate(-1657.162 -273.61)" fill="#d2e4ff"/>
      <g id="Grupo_97133" data-name="Grupo 97133" transform="translate(9.999 16.883)">
        <path id="Trazado_213260" data-name="Trazado 213260" d="M1709.583,334.539a.622.622,0,0,0-.015-.083c-.112-.638-.24-1.272-.379-1.9h0c.778-5-1.14-7.133-2.8-8.217h0a7.447,7.447,0,0,0-2.748-3.386,8.86,8.86,0,0,0-4.852-.511,2.236,2.236,0,0,1,.966-.562,7.415,7.415,0,0,0-2.582.912c-11.739-3.423-12.115,13.468-11.549,17.338s-3.385,5.481-9.043,9.044a26.014,26.014,0,0,0-9.4,9.5,8.964,8.964,0,0,0,.442,2.5,1.768,1.768,0,0,1,.556-.36c-.011.035-.152.415-.339.953a9.137,9.137,0,0,0,7.431,5.659l6.4.738,1.229.142,9.575,1.1c1.006-1.426,2.1-2.9,3.239-4.366a95.335,95.335,0,0,1,8.432-9.623c.868-.842,1.694-1.578,2.453-2.18l.084-.066a11.069,11.069,0,0,0,.9-2.2,26.879,26.879,0,0,0,.976-5.891,26.063,26.063,0,0,1-.552,5.949,10.377,10.377,0,0,1-.4,1.309,7.126,7.126,0,0,0,.9-1.231C1710.513,345.693,1710.537,339.957,1709.583,334.539Z" transform="translate(-1667.184 -319.88)" fill="#163560"/>
        <path id="Trazado_213261" data-name="Trazado 213261" d="M1810.016,429.785c.036.021-3.864,1.507-6.544.431-2.521-1.01-3.833-4.582-3.8-4.585,1.128-.092,1.62-1.57,2.348-8.083l.487.156,8.189,2.626s-.495,2.615-.787,5.1C1809.666,427.514,1809.564,429.507,1810.016,429.785Z" transform="translate(-1772.367 -397.418)" fill="#ffb27d"/>
        <path id="Trazado_213262" data-name="Trazado 213262" d="M1799.29,332.816a6.743,6.743,0,0,1,9.334-1.014S1805.55,331.533,1799.29,332.816Z" transform="translate(-1772.062 -328.202)" fill="#bc3f3f"/>
        <path id="Trazado_213263" data-name="Trazado 213263" d="M1821.623,420.93s-.495,2.615-.787,5.1c-4.674-.673-6.66-5.237-7.4-7.725Z" transform="translate(-1783.291 -398.018)" fill="#ef9e67"/>
        <path id="Trazado_213264" data-name="Trazado 213264" d="M1811.918,367.021s-11.114,1.122-11.706-5.81-2.425-11.456,4.646-12.465,8.677,1.518,9.438,3.784S1814.794,366.551,1811.918,367.021Z" transform="translate(-1772.273 -342.615)" fill="#ffb27d"/>
        <path id="Trazado_213265" data-name="Trazado 213265" d="M1797.246,342.13s-2.362,8.39-6.937,9.987-6.709.515-6.709.515a13.289,13.289,0,0,0,3.672-8.189S1794.621,338.452,1797.246,342.13Z" transform="translate(-1759.606 -336.596)" fill="#163560"/>
        <path id="Trazado_213266" data-name="Trazado 213266" d="M1846.414,344.47s2.429,1.624,3.133,3.342,1.26,5.332,2.308,5.119c0,0,1.83-5.722-1.014-8.631C1847.826,341.214,1846.414,344.47,1846.414,344.47Z" transform="translate(-1809.474 -338.212)" fill="#163560"/>
        <path id="Trazado_213267" data-name="Trazado 213267" d="M1770.154,458.012c-1.155-1.447-3.514-2.2-5.828-2.589-.169-.027-.336-.053-.5-.078l-.424-.058c-.976-.128-1.911-.194-2.71-.228-.119-.169-.192-.273-.213-.3a.045.045,0,0,1-.009-.01l-9.4-.761-.1-.008h-.018l-.022,0c-.708-.076-10.444-1.042-12.326,2.392-1.231,2.245-1.256,6.54-.673,11.306-.175,1.616-.321,3.261-.45,4.806l1.229.142,9.575,1.1,2.93.338,14.818,1.709a9,9,0,0,0,.981.06h0a9.069,9.069,0,0,0,3.395-.627,9.167,9.167,0,0,0,4.469-3.741v0C1773.454,465.627,1771.671,459.917,1770.154,458.012Z" transform="translate(-1722.992 -426.191)" fill="#bc3f3f"/>
      </g>
    </g>
    <g id="Grupo_97137" data-name="Grupo 97137" transform="translate(460.839 332.794)">
      <rect id="Rectángulo_40500" data-name="Rectángulo 40500" width="72.011" height="72.011" rx="36.006" transform="translate(0 0)" fill="#e3f0ff"/>
      <path id="Trazado_213268" data-name="Trazado 213268" d="M1740.5,748.863v35.162a9.125,9.125,0,0,1-8.69,9.125c-.149.008-.3.012-.448.012H1696.2c-.063,0-.126,0-.188,0s-.121,0-.18,0a9.128,9.128,0,0,1-8.768-9.129V748.863a9.138,9.138,0,0,1,9.137-9.139h35.163A9.138,9.138,0,0,1,1740.5,748.863Z" transform="translate(-1677.811 -731.137)" fill="#d2e4ff"/>
      <g id="Grupo_97136" data-name="Grupo 97136" transform="translate(9.62 13.139)">
        <path id="Trazado_213269" data-name="Trazado 213269" d="M1762.9,850.544s-.2,6.254-1,9.055l-6.335,4.419,23.846,3.569-5.687-7.858s-1.717-8.385-.817-11.486S1762.9,850.544,1762.9,850.544Z" transform="translate(-1741.818 -829.666)" fill="#ffb27d"/>
        <path id="Trazado_213270" data-name="Trazado 213270" d="M1791,867.3s1.886,4.539,5.438,4.439,4.36-4.117,4.36-4.117Z" transform="translate(-1769.946 -845.556)" fill="#ed985f"/>
        <path id="Trazado_213271" data-name="Trazado 213271" d="M1771.534,779.876a56.94,56.94,0,0,0-1.947-7.461c-.8-1.734-1.467-9.472,7.4-9.872,0,0,3.4.4,5.269-.734,0,0,0,1.134-.467,1.534a5.9,5.9,0,0,1,5.47,1.934c2.4,2.668-1.6,12.007-1.4,14.208Z" transform="translate(-1752.604 -761.81)" fill="#2c3a64"/>
        <path id="Trazado_213272" data-name="Trazado 213272" d="M1787.243,814.241c-2.573-.046-7.311-3.472-7.311-7.716V799.9a2.643,2.643,0,0,1,2.4-2.818h9.819a2.643,2.643,0,0,1,2.4,2.818v6.247C1794.553,810.6,1790.194,814.293,1787.243,814.241Z" transform="translate(-1761.162 -789.815)" fill="#ffb27d"/>
        <path id="Trazado_213273" data-name="Trazado 213273" d="M1778.671,797.661s.014-3.979,3.165-4.591,10.206,1.939,11.206-.962-13.634-2.852-14.371-1S1778.671,797.661,1778.671,797.661Z" transform="translate(-1759.901 -784.038)" fill="#2c3a64"/>
        <path id="Trazado_213274" data-name="Trazado 213274" d="M1764.034,925.993h-33.371c-.063,0-.126,0-.189,0,.844-7.645,2.655-16.864,4.1-17.471,0,0,.165-.061.485-.161h.008a32.738,32.738,0,0,1,4.695-1.036h.017q1.01-.156,2.2-.28c0,.093,2.743,4.1,6,4.553a11.288,11.288,0,0,0,5.827-4.422c.73.086,1.477.185,2.242.3,1.859.286,3.818.675,5.864,1.191.242.06.486.122.731.189h0c.1.023.194.05.291.076,0,0,.023.1.081.7v0C1763.143,910.99,1763.442,914.905,1764.034,925.993Z" transform="translate(-1721.899 -877.107)" fill="#739af0"/>
        <g id="Grupo_97135" data-name="Grupo 97135" transform="translate(0 30.212)">
          <path id="Trazado_213275" data-name="Trazado 213275" d="M1701.809,909.477a.153.153,0,0,0-.025.007,4.726,4.726,0,0,0-.51.147l-.036.012a.149.149,0,0,1-.03.01l-.02.007c-1.76.61-6.169,2.847-12.325,10.862a9.139,9.139,0,0,0,8.4,6.541c.059,0,.121.005.18.005s.126,0,.189,0h8.859c.1-5.646.164-10.558.207-13.925.018-1.487.031-2.671.041-3.487s.013-1.262.013-1.262h-.017A35.107,35.107,0,0,0,1701.809,909.477Z" transform="translate(-1688.864 -908.397)" fill="#2b478b"/>
          <path id="Trazado_213276" data-name="Trazado 213276" d="M1861.439,910.6a5.169,5.169,0,0,0-.908-.261s0,0-.007,0a53.581,53.581,0,0,0-5.974-1.194h0c0,.048.007,1.065.02,2.821v0c.01,1.125.023,2.554.038,4.225.03,3.112.073,7.064.131,11.471h9.59c.151,0,.3,0,.448-.011a9.143,9.143,0,0,0,8.334-6.592C1867.355,913.52,1863.244,911.267,1861.439,910.6Z" transform="translate(-1820.402 -908.989)" fill="#2b478b"/>
        </g>
        <path id="Trazado_213277" data-name="Trazado 213277" d="M1796.491,824.084a1.748,1.748,0,0,0-1.376-.586h-2.892a1.281,1.281,0,0,0-1.142.47,1.061,1.061,0,0,0-.164.478h0a2.7,2.7,0,0,0-1.284.023h0v0a1.075,1.075,0,0,0-.166-.5,1.276,1.276,0,0,0-1.141-.47h-2.89a1.749,1.749,0,0,0-1.376.586,1.482,1.482,0,0,0-.27,1.272c.329,1.633,2.212,1.841,3.151,1.841.29,0,.49-.02.528-.023.88,0,1.5-.5,1.949-1.58a2.748,2.748,0,0,0,.219-.887h0a2.5,2.5,0,0,1,1.274-.027h0a2.766,2.766,0,0,0,.222.914c.45,1.075,1.069,1.578,1.949,1.58.038,0,.238.023.528.023.94,0,2.822-.208,3.152-1.841A1.482,1.482,0,0,0,1796.491,824.084Zm-7.049.683a2.813,2.813,0,0,1-.2.755c-.417,1-.983,1.462-1.779,1.462h-.012a5.644,5.644,0,0,1-1.6-.074,2.089,2.089,0,0,1-1.871-1.592,1.3,1.3,0,0,1,.23-1.113,1.563,1.563,0,0,1,1.229-.516h2.89a1.108,1.108,0,0,1,.984.385.879.879,0,0,1,.135.448v0a2.378,2.378,0,0,0-.254.094.114.114,0,0,0,.095.207s.06-.026.155-.059Zm7.132.551a2.09,2.09,0,0,1-1.873,1.592,5.633,5.633,0,0,1-1.6.074h-.012c-.8,0-1.361-.465-1.778-1.462a2.748,2.748,0,0,1-.2-.774h0a1.585,1.585,0,0,1,.165.075.114.114,0,0,0,.107-.2,2.01,2.01,0,0,0-.274-.117v0a.92.92,0,0,1,.135-.428,1.106,1.106,0,0,1,.983-.385h2.892a1.563,1.563,0,0,1,1.229.516A1.3,1.3,0,0,1,1796.574,825.318Z" transform="translate(-1764.195 -810.784)" fill="#b64c41"/>
      </g>
    </g>
    <g id="Grupo_97139" data-name="Grupo 97139" transform="translate(335.964 329.951)">
      <rect id="Rectángulo_40501" data-name="Rectángulo 40501" width="83.514" height="83.514" rx="41.757" transform="translate(0 0)" fill="#e3f0ff"/>
      <path id="Trazado_213278" data-name="Trazado 213278" d="M1150.309,743.186v40.779a10.6,10.6,0,0,1-6.617,9.825q-.342.139-.7.253a10.566,10.566,0,0,1-3.284.519h-40.779a10.6,10.6,0,0,1-10.6-10.6V743.186a10.6,10.6,0,0,1,10.6-10.6h40.779A10.6,10.6,0,0,1,1150.309,743.186Z" transform="translate(-1077.611 -722.629)" fill="#d2e4ff"/>
      <g id="Grupo_97138" data-name="Grupo 97138" transform="translate(24.358 20.518)">
        <path id="Trazado_213279" data-name="Trazado 213279" d="M1191.91,784.07h0a10.632,10.632,0,0,0-4.01-.117,12.923,12.923,0,0,0-5.363,2.027c-2.066,1.4-5.049,4.409-1.714,12.673l1.58,2.842c-.527,6.192-3.06,6.192-3.06,6.192a5.666,5.666,0,0,0,1.642.546s.781-.3.936-.73a2.782,2.782,0,0,1-.355.895s4.3.407,6.447-1.216a12.738,12.738,0,0,0,3.269-5.063l3.252.229a6.52,6.52,0,0,1-2.029,4.669s4.011.393,5.369-.717a3.728,3.728,0,0,1-.514.785s4.484.161,6.336-1.237S1204.357,781.505,1191.91,784.07Z" transform="translate(-1174.207 -783.82)" fill="#233862"/>
        <path id="Trazado_213280" data-name="Trazado 213280" d="M1191.484,910.106h-31.75a31.565,31.565,0,0,1-.473-6.967,14.431,14.431,0,0,1,2.852-7.287,24.876,24.876,0,0,1,5.286-5.363s.074-.015.2-.036c.227-.04.619-.1,1.037-.141h0c.4-.209.556-1.646.6-3.33.013-.468.018-.955.017-1.439,0-.419-.007-.841-.017-1.256q-.007-.29-.015-.576c0-.055,0-.108-.005-.16,0-.081,0-.161-.008-.24,0-.061,0-.122-.006-.183,0-.1-.007-.189-.01-.281,0-.126-.01-.248-.015-.369,0-.026,0-.051,0-.078-.005-.114-.01-.225-.015-.334-.007-.132-.013-.262-.02-.384l0-.094c-.01-.2-.02-.381-.03-.546,0-.045,0-.089-.006-.133s0-.1-.008-.145,0-.091-.008-.132c-.008-.139-.017-.257-.023-.351,0-.021,0-.041,0-.061s0-.044,0-.063c-.005-.088-.008-.134-.008-.134l5.358-1.06h0l3.672-.728.43-.085.108-.021v.007a32.2,32.2,0,0,0,.205,3.808,25.656,25.656,0,0,0,.45,2.692v0c.668,2.961,1.709,4.745,2.46,5.039h0a.476.476,0,0,0,.075.027C1185.467,890.451,1191.021,899.932,1191.484,910.106Z" transform="translate(-1158.242 -858.691)" fill="#d9935c"/>
        <path id="Trazado_213281" data-name="Trazado 213281" d="M1206.927,880.43s.206,2.843.212,5.521c5.055-.142,7.727-4.754,8.821-7.309Z" transform="translate(-1196.12 -859.098)" fill="#cb7d45"/>
        <path id="Trazado_213282" data-name="Trazado 213282" d="M1183.394,821.891s11.96.2,11.968-7.252,1.557-12.441-6.078-12.882-9.122,2.4-9.73,4.886S1180.284,821.647,1183.394,821.891Z" transform="translate(-1174.275 -798.023)" fill="#d9935c"/>
        <path id="Trazado_213283" data-name="Trazado 213283" d="M1200.885,795.214s3.275,8.74,8.3,10.032,7.205-.054,7.205-.054a14.232,14.232,0,0,1-4.655-8.407S1203.355,791.054,1200.885,795.214Z" transform="translate(-1191.323 -791.663)" fill="#233862"/>
        <path id="Trazado_213284" data-name="Trazado 213284" d="M1181.5,799s-2.445,1.951-3.042,3.848-.864,5.8-2,5.67c0,0-2.467-5.94.305-9.3C1179.7,795.652,1181.5,799,1181.5,799Z" transform="translate(-1171.124 -794.739)" fill="#233862"/>
        <path id="Trazado_213285" data-name="Trazado 213285" d="M1202.617,796.755s2.333,9.152,8.674,12.083c0,0-6.341-5.623-6.879-11.665S1202.617,796.755,1202.617,796.755Z" transform="translate(-1192.698 -792.2)" fill="#233862"/>
        <path id="Trazado_213286" data-name="Trazado 213286" d="M1194.657,929.565c-.2-.486-.406-.966-.6-1.438-.1-.236-.2-.47-.3-.7a.044.044,0,0,0-.005-.018c-2.764-6.563-4.953-11.518-5.168-11.88-.617-1.042-9.04-2.076-10.274-2.07-.9,0-1.388-2.966-1.586-4.591a.6.6,0,0,0-.936-.427c-.088.059-.177.119-.266.175-.111.071-.22.141-.331.21s-.222.134-.333.2c-.074.043-.148.086-.223.127s-.169.093-.253.137-.154.081-.23.121l-.232.116-.23.111-.182.085c-.113.051-.223.1-.336.147-.079.035-.161.068-.24.1-.057.023-.113.046-.169.068-.308.121-.615.231-.92.331a12.767,12.767,0,0,1-6.353.6l-.1-.025a.977.977,0,0,0-1.195,1.158,2.516,2.516,0,0,1-.243,2.233c-2.139.477-7.345,1.805-8.321,3.658-.7,1.329-.764,9.149-1.143,16.1h37.742a10.565,10.565,0,0,0,3.284-.519q.355-.114.7-.253C1195.686,932.035,1195.165,930.78,1194.657,929.565Z" transform="translate(-1154.49 -882.673)" fill="#f99746"/>
        <path id="Trazado_213287" data-name="Trazado 213287" d="M1274.341,1018.846h-5.062c1.28-2.119,2.5-3.66,3.208-3.745C1273.092,1015.028,1273.737,1016.619,1274.341,1018.846Z" transform="translate(-1245.62 -967.431)" fill="#ed7d2b"/>
        <path id="Trazado_213288" data-name="Trazado 213288" d="M1225.857,913.46s-6.306,3.994-11.078,3.048c0,0-1.145-.723.435-1.451,1.483-.681,4.934-2.7,4.176-4.687a15.573,15.573,0,0,0,3.945-1.928.6.6,0,0,1,.935.427C1224.469,910.493,1224.961,913.46,1225.857,913.46Z" transform="translate(-1202.034 -882.674)" fill="#ed7d2b"/>
      </g>
    </g>
    <g id="Grupo_97140" data-name="Grupo 97140" transform="translate(427.213 382.844)">
      <path id="Trazado_213289" data-name="Trazado 213289" d="M1587.578,1039.826s9.6,9.823,10.07,13.611-4.63,9.713-4.63,9.713Z" transform="translate(-1565.208 -1019.436)" fill="#ed7d2b"/>
      <path id="Trazado_213290" data-name="Trazado 213290" d="M1516.244,1538.349s-.331,5.34-1.364,5.417c-.137.01-5.24.01-5.24.01l-6.514-.038a2.113,2.113,0,0,1,1.946-1.9c1.9-.332,5.091-1.67,6.245-4.187C1512.53,1535,1516.244,1538.349,1516.244,1538.349Z" transform="translate(-1498.162 -1413.848)" fill="#163560"/>
      <path id="Trazado_213291" data-name="Trazado 213291" d="M1586.638,1538.349s-.331,5.34-1.364,5.417c-.137.01-5.24.01-5.24.01l-6.514-.038a2.113,2.113,0,0,1,1.947-1.9c1.9-.332,5.091-1.67,6.245-4.187C1582.924,1535,1586.638,1538.349,1586.638,1538.349Z" transform="translate(-1554.047 -1413.848)" fill="#163560"/>
      <path id="Trazado_213292" data-name="Trazado 213292" d="M1531.772,1235.053s1.7,10.9,8.059,30.238,7.221,27.718,7.221,27.718l6.818-.191s.058-21.139-2.871-30.865-.632-35.065-.632-35.065Z" transform="translate(-1520.904 -1167.944)" fill="#163560"/>
      <path id="Trazado_213293" data-name="Trazado 213293" d="M1515.656,1229.783a264.476,264.476,0,0,0,2.6,36.58c2.841,20.16,1.878,28.718,1.878,28.718l6.8.226s4.066-20.168,2.9-30.259,5.568-34.625,5.568-34.625Z" transform="translate(-1508.105 -1170.242)" fill="#1c468a"/>
      <path id="Trazado_213294" data-name="Trazado 213294" d="M1545.438,1012.088l-3.625,2.377-5.239-.977c.072-.423.418-2.176.733-3.763.02-.094.038-.188.056-.279.27-1.351.5-2.511.5-2.511l4.893-2.159,1.824-.8c0,.028-.141,1.5-.16,1.714A12.476,12.476,0,0,0,1545.438,1012.088Z" transform="translate(-1524.716 -990.971)" fill="#ffb27d"/>
      <path id="Trazado_213295" data-name="Trazado 213295" d="M1535.009,1031.1c.1-.043,6.309-1.875,6.984-1.652s1.074,1.528,1.074,1.528l-10.153,2.3A5.042,5.042,0,0,1,1535.009,1031.1Z" transform="translate(-1521.81 -1011.184)" fill="#ed7d2b"/>
      <path id="Trazado_213296" data-name="Trazado 213296" d="M1533.535,1078.5c-1.052,4.8-18.563,5.369-23.077,1.012-.513-.5-.538-2.807-.345-5.923.379-6.087,1.595-15.243,1.643-19.92a37.022,37.022,0,0,1,.747-6.668,54.129,54.129,0,0,1,2.221-7.981s8.553-2.765,10.154-2.294C1532.587,1038.992,1534.588,1073.7,1533.535,1078.5Z" transform="translate(-1503.621 -1016.933)" fill="#ff9843"/>
      <path id="Trazado_213297" data-name="Trazado 213297" d="M1510.542,1109.88c.379-6.087,1.6-15.243,1.643-19.92a37.021,37.021,0,0,1,.747-6.668l5.145-.908S1523.107,1102.931,1510.542,1109.88Z" transform="translate(-1504.049 -1053.223)" fill="#ed7d2b"/>
      <path id="Trazado_213298" data-name="Trazado 213298" d="M1518.417,1171.548a1.21,1.21,0,0,1-.386,1.4,2.347,2.347,0,0,0-1.046,2.141c.169.666,1.784,1.753,2.344,1.578s1.7-1.053,1.577-1.4.766-3.085-.6-4.137A1.1,1.1,0,0,0,1518.417,1171.548Z" transform="translate(-1509.138 -1123.375)" fill="#ffb27d"/>
      <path id="Trazado_213299" data-name="Trazado 213299" d="M1494.073,1042.093s-5.018.939-9.016,6.831-6.629,10.273-5.892,12.4,7.45,9.489,8.607,9.489a3.1,3.1,0,0,0,3.13-2.736s-4.727-7.084-3.8-8.145c.4-.453,6.136-5.112,6.956-3.008C1495.418,1060.4,1494.073,1042.093,1494.073,1042.093Z" transform="translate(-1479.041 -1021.236)" fill="#ff9843"/>
      <path id="Trazado_213300" data-name="Trazado 213300" d="M1546.88,1008.849c-1.075,1.82-5.079,3.394-6.749,3.973.02-.094.038-.187.056-.279.27-1.351.5-2.511.5-2.511l4.893-2.159C1546.665,1007.858,1547.323,1008.1,1546.88,1008.849Z" transform="translate(-1527.54 -994.068)" fill="#fca56b"/>
      <path id="Trazado_213301" data-name="Trazado 213301" d="M1530.1,966.936s7.882,2.459,9.338-2.474,3.453-7.937-1.518-9.715-6.509-.187-7.4,1.342S1528.085,966.169,1530.1,966.936Z" transform="translate(-1518.792 -951.27)" fill="#ffb27d"/>
      <path id="Trazado_213302" data-name="Trazado 213302" d="M1534.6,945.242s.5,5.739,1.689,5.49,2.264-.434,2.09,1.3-.981,4.479,2.677,4.785,8.078-9.879,7.073-11.665C1545.233,939.994,1530.412,938.955,1534.6,945.242Z" transform="translate(-1522.563 -940.897)" fill="#163560"/>
    </g>
    <g id="Grupo_97144" data-name="Grupo 97144" transform="translate(524.716 273.768)">
      <path id="Trazado_213303" data-name="Trazado 213303" d="M2170.038,487.078s-3.6,4.268-8.179,2.483a13.889,13.889,0,0,1-1-4.141c0-.216,0-.426-.008-.625-.024-1.979-.091-3.089-.091-3.089h0c.209-.087,7-2.877,7-2.645C2167.646,484.411,2170.038,487.078,2170.038,487.078Z" transform="translate(-2117.757 -465.159)" fill="#ffb27d"/>
      <path id="Trazado_213304" data-name="Trazado 213304" d="M2167.081,485.111a10.631,10.631,0,0,1-6.23,4.459c-.024-1.979-.091-3.089-.091-3.089h0C2160.952,486.429,2167.276,484.753,2167.081,485.111Z" transform="translate(-2117.757 -469.935)" fill="#ed975d"/>
      <path id="Trazado_213305" data-name="Trazado 213305" d="M2149.276,442.437s7.642,1.8,8.688-2.98,2.736-7.761-2.1-9.11-6.185.265-6.922,1.775S2147.315,441.846,2149.276,442.437Z" transform="translate(-2107.696 -426.096)" fill="#ffb27d"/>
      <path id="Trazado_213306" data-name="Trazado 213306" d="M2147.854,426.333c.1.067,1.749.572,4.863-5.632a5.4,5.4,0,0,0-.318-4.942c-1.139-1.861-5.18-3.325-8.537-3.962s-4.163,1.252-4.954,3.15a10.25,10.25,0,0,1-3.226,3.634c2.895,1.617,6.381-.7,7.589-.316s1.635,2.284,1.725,2.894.229,1.117,1.749.572.687,2.153.444,2.668C2147.189,424.4,2146.983,425.775,2147.854,426.333Z" transform="translate(-2097.848 -411.671)" fill="#a9453d"/>
      <g id="Grupo_97141" data-name="Grupo 97141" transform="translate(37.479 58.673)">
        <path id="Trazado_213307" data-name="Trazado 213307" d="M2289.694,1016.713h4.628c.97,0,2.048-.972,2.318-2.75s2.264-2.749,2.7-4.205-1.78-3.505-1.78-3.505l-.37-.475-.384-.495-3.666.862s-.09.873-.147,1.985a25.394,25.394,0,0,0-.015,2.544c.108,1.942-.544,4.031-2.268,4.409S2289.694,1016.713,2289.694,1016.713Z" transform="translate(-2257.48 -941.61)" fill="#2c3a64"/>
        <path id="Trazado_213308" data-name="Trazado 213308" d="M2133.956,1035.016h12.266a1.1,1.1,0,0,0,.26-.076c.819-.41.563-3.546.464-4.514-.019-.179-.033-.285-.033-.285s-4.313-3.45-4.907-.808c-.019.082-.041.163-.063.243h0c-.749,2.472-4.1,3.594-6.029,3.907A2.105,2.105,0,0,0,2133.956,1035.016Z" transform="translate(-2133.956 -959.913)" fill="#2c3a64"/>
        <path id="Trazado_213309" data-name="Trazado 213309" d="M2145.951,713.175s.655,8.173,1.425,18c1.046,13.345,2.3,29.738,2.429,32.844.215,5.392,1.079,14.018,1.079,14.018s2.048,2.049,6.146,1.186a141.14,141.14,0,0,0,4.7-25.342q.024-.321.049-.644c.97-13.263,2.479-41.191,2.479-41.191Z" transform="translate(-2143.479 -708.808)" fill="#2b478b"/>
        <path id="Trazado_213310" data-name="Trazado 213310" d="M2145.951,713.175s.655,8.173,1.425,18l14.35,22.706q.024-.321.049-.644c.97-13.263,2.479-41.191,2.479-41.191Z" transform="translate(-2143.479 -708.808)" fill="#233862"/>
        <path id="Trazado_213311" data-name="Trazado 213311" d="M2160.465,701.686s11.807,29.6,19.571,43.509,10.189,17.792,10.189,17.792,4.448-1.779,4.852-2.992c0,0-2.969-26.854-8.168-33.4-2.937-3.7-6.389-14.8-6.55-18.681s-1.051-11.564-1.051-11.564Z" transform="translate(-2155.001 -696.349)" fill="#2b478b"/>
      </g>
      <g id="Grupo_97142" data-name="Grupo 97142" transform="translate(49.216 22.392)">
        <path id="Trazado_213312" data-name="Trazado 213312" d="M2290.752,693.47l.125,1.9a4.1,4.1,0,0,0,2.262,5.116s1.506.607,1.567-.565-.132-.731-.009-2.382-.527-3.21-1.619-3.736l-.9-1.034Z" transform="translate(-2270.099 -657.228)" fill="#ffb27d"/>
        <path id="Trazado_213313" data-name="Trazado 213313" d="M2212.932,557.94c-1.307.419-1.516.324-1.516.324s-6.361-11.581-7.005-12.641-13.505-12.987-13.505-12.987l3.3-12.325s14.628,18.942,16.208,21.66c2.61,4.492,4.14,14.923,4.14,14.923A3.824,3.824,0,0,1,2212.932,557.94Z" transform="translate(-2190.905 -520.313)" fill="#1e3d70"/>
      </g>
      <path id="Trazado_213314" data-name="Trazado 213314" d="M2133.8,526.861c.046,2.531.194,5.376.392,8.266q.019.257.036.514c.127,1.79.265,3.585.422,5.334q.095,1.053.2,2.076l.01.092c.005.255.036.532.064.784.645,6.554,1.321,11.732,1.447,11.811a.733.733,0,0,0,.5.128c1.719-.216,6.847.174,11.045-.739a31.83,31.83,0,0,0,9.826-4.074c.429-.254,1.407-.925,1.327-1.427-.078-.552-.222-1.349-.406-2.352a127.168,127.168,0,0,1-2.112-16.5q-.109-1.961-.317-3.868a58.727,58.727,0,0,0-1.712-9.238c-1.439-5.183-3.555-9.152-6.209-10.705-.347-.194-2.213.993-3.926,2.092a7.567,7.567,0,0,1-4.869,1.154l-1.426,1.577a15.92,15.92,0,0,0-4.068,8.479q-.056.421-.1.9A55.745,55.745,0,0,0,2133.8,526.861Z" transform="translate(-2096.34 -487.306)" fill="#2a4e96"/>
      <path id="Trazado_213315" data-name="Trazado 213315" d="M2133.8,570.424c.046,2.531.194,5.376.392,8.266.012.171.024.342.036.514,9.818-6.145,11.33-17.39,11.33-17.39a26.854,26.854,0,0,0-11.624,2.91A55.745,55.745,0,0,0,2133.8,570.424Z" transform="translate(-2096.34 -530.869)" fill="#1e3d70"/>
      <g id="Grupo_97143" data-name="Grupo 97143" transform="translate(0 24.505)">
        <path id="Trazado_213316" data-name="Trazado 213316" d="M1960.563,534.794l-1.787-.917a4.894,4.894,0,0,0-5.463-3.259s-1.754.355-1.02,1.449.61.581,1.611,2.143,2.63,2.58,3.959,2.4l1.5.4Z" transform="translate(-1952.114 -530.565)" fill="#ed975d"/>
        <path id="Trazado_213317" data-name="Trazado 213317" d="M1983.57,536.882c.506-1.369,1.293-1.28,1.293-1.28s14.6,3.638,15.907,3.794,15.719-5.626,15.719-5.626,5.672-2.546,8.329-.221a6.347,6.347,0,0,1,1.873,6.727,6.424,6.424,0,0,1-5.429,4.785c-5.878.749-17.607,2.158-20.066,1.816-5.471-.761-17.868-7.918-17.868-7.918A4.6,4.6,0,0,1,1983.57,536.882Z" transform="translate(-1976.871 -532.157)" fill="#2a4e96"/>
      </g>
    </g>
    <path id="Trazado_213318" data-name="Trazado 213318" d="M923.189,1065.212s.415-4.524-4.64-4.524a5.939,5.939,0,0,1,2.324,1.246,5.978,5.978,0,0,0-6.732,1.016c-3.508,2.908-1.328,10.2-2.4,11.587s-5.222,1.662-4.714,6.14,13.186,10.086,12.372,13.791c0,0,4.969-7.3,1.416-10.637a6.585,6.585,0,0,1,1.908,3.57s.47-3.785-1.939-5c-2.131-1.072-3.878-4.99-3.693-5.691S923.189,1065.212,923.189,1065.212Z" transform="translate(-597.678 -653.154)" fill="#2c3a64"/>
    <path id="Trazado_213319" data-name="Trazado 213319" d="M929.509,1172.013a4.488,4.488,0,0,0-7.948-1.852,4.065,4.065,0,0,0-.8,1.972c-.526,4.261,6.286,21.614,7.262,23.185,1.776,2.861,12.234,12.666,12.234,12.666l1.927-1.168s-7.418-12.558-8.567-13.733C932.289,1191.724,930.989,1179.139,929.509,1172.013Z" transform="translate(-608.588 -738.672)" fill="#ed985f"/>
    <path id="Trazado_213320" data-name="Trazado 213320" d="M935.8,1174.6a11.228,11.228,0,0,1,2.159,3.388s-2.365,6.791-7.891,7.642C930.068,1185.635,934.441,1174.6,935.8,1174.6Z" transform="translate(-616 -743.593)" fill="#aa413e"/>
    <path id="Trazado_213321" data-name="Trazado 213321" d="M947.159,1079.269c.068-.276-5.988,2.737-6.3,3.078-2.84,3.151-2.031,7.263-.405,7.3,1.042.025.84,1.758.84,1.758l11.613-4.912S951.513,1078.341,947.159,1079.269Z" transform="translate(-623.078 -667.847)" fill="#2c3a64"/>
    <path id="Trazado_213322" data-name="Trazado 213322" d="M806.452,1312.957l-2.513-.369a29.71,29.71,0,0,1-9.708-19.244,22.373,22.373,0,0,1-.06-3.874.681.681,0,0,0-.088-.427s0,0,0,0c-.27-.414-.944-1.453-1.855-2.93-.9-1.455-2.436-4.207-4.127-7.294-3.047-5.56-6.594-12.209-7.811-14.327-3.877-6.75-2.008-11.289-2.008-11.289s10.815-1.069,13.779-3.662l1.067,1.645s2.343,10.374,2.233,10.422q.173.529.352,1.077a180.365,180.365,0,0,1,5.136,18.652,30.824,30.824,0,0,1,.812,8.058,14.159,14.159,0,0,0,.191,2.952C802.9,1299.788,806.452,1312.957,806.452,1312.957Z" transform="translate(-495.139 -803.081)" fill="#2b478b"/>
    <path id="Trazado_213323" data-name="Trazado 213323" d="M901.672,1550.2H891.188a5.755,5.755,0,0,1,.3-2.81c.525-1.163,1.273-1.2.1-3.024.666.686,2.808.969,4.324.766a12.842,12.842,0,0,0,1.818,2.767C898.406,1548.393,901.462,1548.218,901.672,1550.2Z" transform="translate(-585.088 -1037.146)" fill="#233862"/>
    <path id="Trazado_213324" data-name="Trazado 213324" d="M795.71,1262.681c-.916,5.051-3.079,13.457-7.611,16.133-3.047-5.56-6.594-12.209-7.811-14.327-3.877-6.75-2.008-11.289-2.008-11.289s10.815-1.069,13.779-3.662l1.067,1.645s2.343,10.374,2.233,10.422Q795.531,1262.133,795.71,1262.681Z" transform="translate(-495.139 -803.081)" fill="#233862"/>
    <path id="Trazado_213325" data-name="Trazado 213325" d="M727.538,1245.552l.035-1.961c-3.907.492-13.471-4.669-13.471-4.669s-4.087,2.719-4.647,10.482c-.273,3.789-2,19.815-2.192,24.6-.07,1.734-.093,2.972-.1,3.467a.012.012,0,0,1,0,0,.681.681,0,0,1-.166.4,22.4,22.4,0,0,0-2.117,3.245c-5.962,11.092-2.844,26.164-2.844,26.164l1.385-.352s5.041-15.624,8.335-22.383a14.142,14.142,0,0,1,1.492-2.554,30.825,30.825,0,0,0,3.833-7.135,186.453,186.453,0,0,0,6.481-19.425C723.681,1255.462,727.538,1245.552,727.538,1245.552Z" transform="translate(-434.32 -794.654)" fill="#2b478b"/>
    <path id="Trazado_213326" data-name="Trazado 213326" d="M926.123,1149.61c-6.387-1.466-2.306-10.44-1.936-10.283.885-.18,2.828-1.734,4.567-4.769l.234.2,3.923,3.439s-.907,1.338-1.67,2.648a5.986,5.986,0,0,0-1.022,2.383C930.536,1143.482,927.827,1150,926.123,1149.61Z" transform="translate(-610.043 -711.8)" fill="#ffb27d"/>
    <path id="Trazado_213327" data-name="Trazado 213327" d="M957.381,1138.992s-.907,1.336-1.669,2.648c-2.439-1.5-2.442-4.523-2.254-6.087Z" transform="translate(-634.512 -712.589)" fill="#ed985f"/>
    <path id="Trazado_213328" data-name="Trazado 213328" d="M956.864,1113.706s-5.922-3.3-3.813-6.952,2.765-6.544,6.635-4.594,3.794,3.764,3.387,5.156S958.459,1114.468,956.864,1113.706Z" transform="translate(-633.886 -685.58)" fill="#ffb27d"/>
    <path id="Trazado_213329" data-name="Trazado 213329" d="M961.674,1103.275c-.271-1.623-1.1-1.778-1.671-1.67a4.736,4.736,0,0,0-5.76-2.205,8.062,8.062,0,0,1-4.668,2.8s.687,1.279,3.519,2.07a4.839,4.839,0,0,0,2.793-.223,15.8,15.8,0,0,1-4.018,1.515c3.731.342,7.281-3.069,7.649-3.435a5.309,5.309,0,0,1,.293,2.445c-.246,1.1-1.222,3.091-.626,3.349C959.186,1107.924,962.081,1105.71,961.674,1103.275Z" transform="translate(-631.488 -683.672)" fill="#2c3a64"/>
    <path id="Trazado_213330" data-name="Trazado 213330" d="M705.02,1549.91H694.536a5.758,5.758,0,0,1,.3-2.811c.525-1.163,1.346-1.692,1.15-3.1a3.776,3.776,0,0,0,3.268,1.25,11.5,11.5,0,0,0,1.819,2.359C701.754,1548.1,704.809,1547.925,705.02,1549.91Z" transform="translate(-428.967 -1036.854)" fill="#233862"/>
    <path id="Trazado_213331" data-name="Trazado 213331" d="M800.768,1168.422a25.466,25.466,0,0,1-5.179.939c-2.757.3-5.6.507-7.094,1.1a1.6,1.6,0,0,0-1.021.827c-.646,1.944-3.495,4.942-3.495,4.942-18.256-.831-20.261-8.467-20.261-8.467,12.283-14.283,33.08-18.417,33.08-18.417s1.486-.63,5.227,2.343c2.5,1.985,2.168,2.747,2.168,2.747S804.738,1167.038,800.768,1168.422Z" transform="translate(-483.936 -723.497)" fill="#c65447"/>
    <path id="Trazado_213332" data-name="Trazado 213332" d="M890.8,1189.456c-2.757.3-5.6.507-7.094,1.1a29.072,29.072,0,0,1,3.687-15.954S890.193,1186.01,890.8,1189.456Z" transform="translate(-579.145 -743.591)" fill="#aa413e"/>
    <path id="Rectángulo_40502" data-name="Rectángulo 40502" d="M38.4,0h0A38.4,38.4,0,0,1,76.8,38.4v0A38.4,38.4,0,0,1,38.4,76.8h0A38.4,38.4,0,0,1,0,38.4v0A38.4,38.4,0,0,1,38.4,0Z" transform="translate(329.602 435.975)" fill="#e3f0ff"/>
    <path id="Trazado_213333" data-name="Trazado 213333" d="M1110.28,1252.867v37.5a9.751,9.751,0,0,1-9.745,9.745h-37.5a9.747,9.747,0,0,1-9.744-9.745v-37.5a9.744,9.744,0,0,1,9.744-9.744h37.5A9.745,9.745,0,0,1,1110.28,1252.867Z" transform="translate(-713.826 -797.989)" fill="#d2e4ff"/>
    <g id="Grupo_97145" data-name="Grupo 97145" transform="translate(341.934 452.145)">
      <path id="Trazado_213334" data-name="Trazado 213334" d="M1146.061,1316.06s-5.443-9.872-.451-14.232,13.781-1.757,15.4,0,3.771,6.757-.695,13.866Z" transform="translate(-1127.38 -1294.843)" fill="#2c3a64"/>
      <path id="Trazado_213335" data-name="Trazado 213335" d="M1139.314,1387.546s-.2,6.1-.977,8.826l-6.175,4.308,23.244,3.478-5.543-7.66s-1.674-8.173-.8-11.2S1139.314,1387.546,1139.314,1387.546Z" transform="translate(-1118.376 -1362.267)" fill="#b56f40"/>
      <path id="Trazado_213336" data-name="Trazado 213336" d="M1166.7,1403.877s1.838,4.425,5.3,4.328,4.25-4.013,4.25-4.013Z" transform="translate(-1145.795 -1377.756)" fill="#99592e"/>
      <path id="Trazado_213337" data-name="Trazado 213337" d="M1163.041,1352.161c-2.509-.044-7.126-3.385-7.126-7.521v-6.455a2.576,2.576,0,0,1,2.341-2.747h9.571a2.576,2.576,0,0,1,2.34,2.747v6.089C1170.167,1348.612,1165.919,1352.212,1163.041,1352.161Z" transform="translate(-1137.234 -1323.423)" fill="#b56f40"/>
      <path id="Trazado_213338" data-name="Trazado 213338" d="M1117.177,1455.088a9.715,9.715,0,0,1-7.128,3.1h-37.5a9.718,9.718,0,0,1-7.274-3.262c8.037-10.681,13.132-11.353,13.264-11.369a34.168,34.168,0,0,1,6.718-1.32c0,.089,2.693,4.035,5.868,4.473a11.165,11.165,0,0,0,5.608-4.408,63.655,63.655,0,0,1,7.973,1.556l0-.013S1109.466,1445.043,1117.177,1455.088Z" transform="translate(-1065.274 -1408.212)" fill="#74acbe"/>
      <path id="Trazado_213339" data-name="Trazado 213339" d="M1155.861,1329.907a6.769,6.769,0,0,1,7.447-4.486c5.705.829,6.2,2.048,6.806,3.462s1.777-5.169,1.777-5.169l-6.729-2s-8.144.927-8.729,2.292l-.585,1.365Z" transform="translate(-1137.18 -1312.528)" fill="#2c3a64"/>
      <path id="Trazado_213340" data-name="Trazado 213340" d="M1172.483,1285.494s-6.03-5.479-3.443-6.65S1172.483,1285.494,1172.483,1285.494Z" transform="translate(-1147.142 -1278.398)" fill="#2c3a64"/>
      <path id="Trazado_213341" data-name="Trazado 213341" d="M1164.027,1291.9s-7.624-2.873-5.65-4.914S1164.027,1291.9,1164.027,1291.9Z" transform="translate(-1138.929 -1284.657)" fill="#2c3a64"/>
      <path id="Trazado_213342" data-name="Trazado 213342" d="M1188.484,1286.017s-1.248-7.067,1.765-7.016S1188.484,1286.017,1188.484,1286.017Z" transform="translate(-1162.886 -1278.617)" fill="#2c3a64"/>
      <path id="Trazado_213343" data-name="Trazado 213343" d="M1191.523,1284.079s3.266-7.6,6.305-6.891S1191.523,1284.079,1191.523,1284.079Z" transform="translate(-1165.502 -1277.141)" fill="#2c3a64"/>
      <path id="Trazado_213344" data-name="Trazado 213344" d="M1190.709,1293.166s5.2-6.438,7.932-4.932S1190.709,1293.166,1190.709,1293.166Z" transform="translate(-1164.856 -1285.766)" fill="#2c3a64"/>
    </g>
    <path id="Trazado_213345" data-name="Trazado 213345" d="M903.252,1166.057s-6.909.683-7.464,5.172,6.625,22.776,7.652,24.432c1.871,3.015,12.892,13.348,12.892,13.348l2.031-1.231s-7.817-13.233-9.027-14.471C907.437,1191.362,905.592,1167.612,903.252,1166.057Z" transform="translate(-588.762 -736.806)" fill="#ffb27d"/>
    <path id="Trazado_213346" data-name="Trazado 213346" d="M891.293,1169.786c.018.1,6.377,2.077,10.469,0,0,0,.876-9.442-4.01-8.929s-7.778,2.051-7.9,4.39A8.263,8.263,0,0,0,891.293,1169.786Z" transform="translate(-584.066 -732.662)" fill="#c65447"/>
    <path id="Trazado_213347" data-name="Trazado 213347" d="M994.126,1369.711s-.853,3.24,0,4.707a13.5,13.5,0,0,0,2.031,2.6v-8.539Z" transform="translate(-666.555 -897.509)" fill="#ffb27d"/>
    <path id="Trazado_213348" data-name="Trazado 213348" d="M1916.355,1275.481h-53.944l17.73-76.8h51.344l2.361,1.038Z" transform="translate(-1356.183 -762.708)" fill="#cca07f"/>
    <path id="Trazado_213349" data-name="Trazado 213349" d="M1903.738,1275.481h-53.944l17.73-76.8h53.944Z" transform="translate(-1346.167 -762.708)" fill="#e3f0ff"/>
    <g id="Grupo_97146" data-name="Grupo 97146" transform="translate(512.517 446.771)">
      <path id="Trazado_213350" data-name="Trazado 213350" d="M2026.538,1251.066h-24.9a1.339,1.339,0,0,0-1.231,1,.772.772,0,0,0,.769,1h24.9a1.339,1.339,0,0,0,1.231-1A.772.772,0,0,0,2026.538,1251.066Z" transform="translate(-1978.237 -1251.066)" fill="#cbe2f7"/>
      <path id="Trazado_213351" data-name="Trazado 213351" d="M2021.952,1276.917h-26.285a.409.409,0,0,0-.376.305.236.236,0,0,0,.235.306h26.285a.409.409,0,0,0,.376-.306A.236.236,0,0,0,2021.952,1276.917Z" transform="translate(-1974.187 -1271.589)" fill="#cbe2f7"/>
      <path id="Trazado_213352" data-name="Trazado 213352" d="M2020.375,1283.748H1994.09a.409.409,0,0,0-.376.306.236.236,0,0,0,.235.305h26.285a.408.408,0,0,0,.376-.305A.236.236,0,0,0,2020.375,1283.748Z" transform="translate(-1972.935 -1277.012)" fill="#cbe2f7"/>
      <path id="Trazado_213353" data-name="Trazado 213353" d="M1947.963,1253.066h6.726a1.339,1.339,0,0,0,1.231-1,.772.772,0,0,0-.769-1h-6.726a1.339,1.339,0,0,0-1.231,1A.772.772,0,0,0,1947.963,1253.066Z" transform="translate(-1935.988 -1251.066)" fill="#cbe2f7"/>
      <path id="Trazado_213354" data-name="Trazado 213354" d="M2006.642,1326.282h-24.9a1.339,1.339,0,0,0-1.231,1,.772.772,0,0,0,.769,1h24.9a1.339,1.339,0,0,0,1.231-1A.772.772,0,0,0,2006.642,1326.282Z" transform="translate(-1962.442 -1310.78)" fill="#cbe2f7"/>
      <path id="Trazado_213355" data-name="Trazado 213355" d="M2002.056,1352.133h-26.285a.409.409,0,0,0-.376.306.236.236,0,0,0,.235.306h26.285a.409.409,0,0,0,.376-.306A.236.236,0,0,0,2002.056,1352.133Z" transform="translate(-1958.391 -1331.302)" fill="#cbe2f7"/>
      <path id="Trazado_213356" data-name="Trazado 213356" d="M2000.479,1358.965h-26.285a.408.408,0,0,0-.376.305.236.236,0,0,0,.235.306h26.285a.409.409,0,0,0,.376-.306A.236.236,0,0,0,2000.479,1358.965Z" transform="translate(-1957.14 -1336.726)" fill="#cbe2f7"/>
      <path id="Trazado_213357" data-name="Trazado 213357" d="M1928.067,1328.282h6.726a1.338,1.338,0,0,0,1.231-1,.772.772,0,0,0-.769-1h-6.726a1.339,1.339,0,0,0-1.231,1A.772.772,0,0,0,1928.067,1328.282Z" transform="translate(-1920.193 -1310.78)" fill="#cbe2f7"/>
      <path id="Trazado_213358" data-name="Trazado 213358" d="M1990.79,1401.5h-24.9a1.338,1.338,0,0,0-1.231,1,.772.772,0,0,0,.769,1h24.9a1.339,1.339,0,0,0,1.231-1A.772.772,0,0,0,1990.79,1401.5Z" transform="translate(-1949.857 -1370.494)" fill="#cbe2f7"/>
      <path id="Trazado_213359" data-name="Trazado 213359" d="M1986.2,1427.35h-26.285a.409.409,0,0,0-.376.305.236.236,0,0,0,.235.306h26.285a.409.409,0,0,0,.376-.306A.236.236,0,0,0,1986.2,1427.35Z" transform="translate(-1945.807 -1391.017)" fill="#cbe2f7"/>
      <path id="Trazado_213360" data-name="Trazado 213360" d="M1984.627,1434.181h-26.285a.409.409,0,0,0-.376.306.236.236,0,0,0,.235.305h26.285a.409.409,0,0,0,.376-.305A.236.236,0,0,0,1984.627,1434.181Z" transform="translate(-1944.554 -1396.44)" fill="#cbe2f7"/>
      <path id="Trazado_213361" data-name="Trazado 213361" d="M1912.215,1403.5h6.726a1.338,1.338,0,0,0,1.231-1,.772.772,0,0,0-.769-1h-6.726a1.339,1.339,0,0,0-1.231,1A.772.772,0,0,0,1912.215,1403.5Z" transform="translate(-1907.608 -1370.494)" fill="#cbe2f7"/>
      <path id="Trazado_213362" data-name="Trazado 213362" d="M1972.3,1479.78h-24.9a1.339,1.339,0,0,0-1.231,1,.772.772,0,0,0,.769,1h24.9a1.339,1.339,0,0,0,1.231-1A.772.772,0,0,0,1972.3,1479.78Z" transform="translate(-1935.174 -1432.641)" fill="#cbe2f7"/>
      <path id="Trazado_213363" data-name="Trazado 213363" d="M1967.71,1505.631h-26.285a.409.409,0,0,0-.376.306.236.236,0,0,0,.235.305h26.285a.409.409,0,0,0,.376-.305A.236.236,0,0,0,1967.71,1505.631Z" transform="translate(-1931.124 -1453.164)" fill="#cbe2f7"/>
      <path id="Trazado_213364" data-name="Trazado 213364" d="M1966.133,1512.463h-26.285a.409.409,0,0,0-.376.305.236.236,0,0,0,.235.306h26.285a.409.409,0,0,0,.376-.306A.236.236,0,0,0,1966.133,1512.463Z" transform="translate(-1929.872 -1458.588)" fill="#cbe2f7"/>
      <path id="Trazado_213365" data-name="Trazado 213365" d="M1900.909,1479.78h-6.726a1.339,1.339,0,0,0-1.231,1,.772.772,0,0,0,.769,1h6.726a1.339,1.339,0,0,0,1.231-1A.772.772,0,0,0,1900.909,1479.78Z" transform="translate(-1892.925 -1432.641)" fill="#cbe2f7"/>
    </g>
    <g id="Grupo_97147" data-name="Grupo 97147" transform="translate(533.562 435.503)">
      <path id="Trazado_213366" data-name="Trazado 213366" d="M2018.164,1202.528h-20.9a2.224,2.224,0,0,1-2.167-2.724l.787-3.41h25.737l-.959,4.15A2.559,2.559,0,0,1,2018.164,1202.528Z" transform="translate(-1995.034 -1196.394)" fill="#ee9849"/>
      <path id="Trazado_213367" data-name="Trazado 213367" d="M2123.59,1196.394l1.771.472h-1.88Z" transform="translate(-2097.007 -1196.394)" fill="#ed7d2b"/>
    </g>
    <g id="Grupo_97149" data-name="Grupo 97149" transform="translate(518.618 509.201)">
      <g id="Grupo_97148" data-name="Grupo 97148">
        <path id="Trazado_213368" data-name="Trazado 213368" d="M1976.395,1555.758a1.784,1.784,0,0,1-.524,1.262,1.787,1.787,0,0,1-1.262.524h-50.3a1.786,1.786,0,0,1,0-3.572h50.3a1.788,1.788,0,0,1,1.786,1.786Z" transform="translate(-1922.527 -1553.971)" fill="#ee9849"/>
        <path id="Trazado_213369" data-name="Trazado 213369" d="M2177.123,1553.969l6.569,1.453-6.569,2.12Z" transform="translate(-2124.65 -1553.969)" fill="#739af0"/>
      </g>
      <path id="Trazado_213370" data-name="Trazado 213370" d="M1935.395,1553.972v3.572h-11.082a1.786,1.786,0,0,1,0-3.572Z" transform="translate(-1922.527 -1553.971)" fill="#739af0"/>
    </g>
    <path id="Rectángulo_40503" data-name="Rectángulo 40503" d="M.7,0H524.3a.7.7,0,0,1,.7.7v0a.7.7,0,0,1-.7.7H.7A.7.7,0,0,1,0,.7v0A.7.7,0,0,1,.7,0Z" transform="translate(154.146 512.718)" fill="#2e3552"/>
  </g>
</svg>
