<svg xmlns="http://www.w3.org/2000/svg" xmlns:xlink="http://www.w3.org/1999/xlink" width="419.022" height="261.927" viewBox="0 0 419.022 261.927">
  <defs>
    <linearGradient id="linear-gradient" x1="1.703" y1="0.525" x2="0.272" y2="0.495" gradientUnits="objectBoundingBox">
      <stop offset="0" stop-color="#dae3fe"/>
      <stop offset="1" stop-color="#e9effd"/>
    </linearGradient>
    <linearGradient id="linear-gradient-2" x1="0.899" y1="-1.341" x2="-0.156" y2="3.524" gradientUnits="objectBoundingBox">
      <stop offset="0" stop-color="#fe7062"/>
      <stop offset="1" stop-color="#ff928e"/>
    </linearGradient>
    <linearGradient id="linear-gradient-3" x1="0" y1="0.5" x2="1" y2="0.5" xlink:href="#linear-gradient-2"/>
    <linearGradient id="linear-gradient-4" y1="0.5" x2="1" y2="0.5" gradientUnits="objectBoundingBox">
      <stop offset="0" stop-color="#4042e2"/>
      <stop offset="1" stop-color="#4f52ff"/>
    </linearGradient>
    <linearGradient id="linear-gradient-6" x1="-0.257" y1="1.35" x2="0.781" y2="0.2" xlink:href="#linear-gradient-4"/>
    <linearGradient id="linear-gradient-7" x1="0" y1="0.5" x2="1" y2="0.5" xlink:href="#linear-gradient"/>
    <linearGradient id="linear-gradient-11" x1="-0.076" y1="1.031" x2="0.732" y2="0.196" gradientUnits="objectBoundingBox">
      <stop offset="0" stop-color="#09005d"/>
      <stop offset="1" stop-color="#1a0f91"/>
    </linearGradient>
    <linearGradient id="linear-gradient-12" x1="0.357" y1="0.146" x2="1.041" y2="1.261" xlink:href="#linear-gradient-4"/>
    <linearGradient id="linear-gradient-13" x1="4.912" y1="-0.113" x2="0.061" y2="0.561" xlink:href="#linear-gradient-11"/>
    <linearGradient id="linear-gradient-14" x1="1.65" y1="0.446" x2="-0.101" y2="0.528" xlink:href="#linear-gradient-4"/>
    <clipPath id="clip-path">
      <path id="Trazado_213874" data-name="Trazado 213874" d="M1290.5,467.182c-1.711-1.74-5.439-8.454-8.635-25.815-3.089-16.777-4.79-38.538-4.79-61.275s1.7-44.5,4.79-61.275c3.2-17.361,6.923-24.074,8.635-25.815,1.711,1.74,5.439,8.454,8.635,25.815,3.089,16.777,27.462,38.538,27.462,61.275s-24.373,44.5-27.462,61.275C1295.936,458.728,1292.208,465.442,1290.5,467.182Z" transform="translate(-1277.073 -293.003)" fill="none"/>
    </clipPath>
    <linearGradient id="linear-gradient-15" x1="1.279" y1="-0.542" x2="0.243" y2="0.874" xlink:href="#linear-gradient-2"/>
    <linearGradient id="linear-gradient-16" x1="0.525" y1="0.934" x2="0.436" y2="-0.664" xlink:href="#linear-gradient-11"/>
    <linearGradient id="linear-gradient-17" x1="0.94" y1="-0.484" x2="-1.895" y2="6.012" xlink:href="#linear-gradient-4"/>
    <linearGradient id="linear-gradient-18" y1="0.5" x2="1" y2="0.5" gradientUnits="objectBoundingBox">
      <stop offset="0" stop-color="#ff928e"/>
      <stop offset="1" stop-color="#feb3b1"/>
    </linearGradient>
    <linearGradient id="linear-gradient-19" x1="0" y1="0.5" x2="1" y2="0.5" xlink:href="#linear-gradient-11"/>
    <linearGradient id="linear-gradient-20" x1="3.08" y1="-2.223" x2="-3.938" y2="5.384" xlink:href="#linear-gradient-4"/>
    <linearGradient id="linear-gradient-23" x1="0.315" y1="0.57" x2="-0.33" y2="1.875" xlink:href="#linear-gradient-2"/>
    <linearGradient id="linear-gradient-24" x1="1.262" y1="-0.582" x2="-0.056" y2="1.161" xlink:href="#linear-gradient-18"/>
    <linearGradient id="linear-gradient-25" x1="140.683" y1="95.567" x2="136.755" y2="99.151" xlink:href="#linear-gradient-18"/>
    <linearGradient id="linear-gradient-26" x1="2.151" y1="-3.646" x2="-0.114" y2="1.878" xlink:href="#linear-gradient-18"/>
    <linearGradient id="linear-gradient-27" x1="0.441" y1="0.823" x2="-1.178" y2="4.159" xlink:href="#linear-gradient-2"/>
    <linearGradient id="linear-gradient-29" x1="0.932" y1="-3.497" x2="0.359" y2="1.805" xlink:href="#linear-gradient-4"/>
    <linearGradient id="linear-gradient-30" x1="0.605" y1="-1.235" x2="0.461" y2="1.146" xlink:href="#linear-gradient-4"/>
    <linearGradient id="linear-gradient-32" x1="0.688" y1="-0.083" x2="0.161" y2="1.908" xlink:href="#linear-gradient-18"/>
    <linearGradient id="linear-gradient-33" x1="0.301" y1="-0.824" x2="0.517" y2="0.591" xlink:href="#linear-gradient-18"/>
    <linearGradient id="linear-gradient-34" x1="-78.035" y1="-35.924" x2="-77.83" y2="-34.745" xlink:href="#linear-gradient-4"/>
    <linearGradient id="linear-gradient-35" x1="-0.2" y1="-6.192" x2="0.503" y2="0.668" xlink:href="#linear-gradient-18"/>
    <linearGradient id="linear-gradient-38" x1="0.143" y1="-0.646" x2="1.217" y2="2.77" xlink:href="#linear-gradient-2"/>
    <linearGradient id="linear-gradient-39" x1="0.177" y1="-0.056" x2="0.786" y2="0.905" xlink:href="#linear-gradient-11"/>
    <linearGradient id="linear-gradient-40" x1="-14.376" y1="-0.845" x2="-14.72" y2="1.374" xlink:href="#linear-gradient-18"/>
    <linearGradient id="linear-gradient-41" x1="35.229" y1="-0.994" x2="35.058" y2="-4.098" gradientUnits="objectBoundingBox">
      <stop offset="0" stop-color="#cb236d"/>
      <stop offset="1" stop-color="#4c246d"/>
    </linearGradient>
    <linearGradient id="linear-gradient-42" x1="0.208" y1="0.223" x2="1.195" y2="1.8" xlink:href="#linear-gradient-18"/>
    <linearGradient id="linear-gradient-43" x1="-100.938" y1="-71.682" x2="-101.92" y2="-70.918" xlink:href="#linear-gradient-18"/>
    <linearGradient id="linear-gradient-44" x1="0.04" y1="-0.351" x2="2.979" y2="5.554" xlink:href="#linear-gradient-11"/>
    <linearGradient id="linear-gradient-45" x1="-292.968" y1="-237.876" x2="-295.803" y2="-235.341" xlink:href="#linear-gradient-18"/>
    <linearGradient id="linear-gradient-46" x1="0.498" y1="0.518" x2="0.112" y2="1.145" xlink:href="#linear-gradient-18"/>
    <linearGradient id="linear-gradient-47" x1="70.398" y1="0.477" x2="71.393" y2="0.477" xlink:href="#linear-gradient-11"/>
    <linearGradient id="linear-gradient-48" x1="0.835" y1="-0.35" x2="0.45" y2="0.616" xlink:href="#linear-gradient-18"/>
    <linearGradient id="linear-gradient-49" x1="60.607" y1="0.477" x2="61.6" y2="0.477" xlink:href="#linear-gradient-11"/>
    <linearGradient id="linear-gradient-50" x1="27.149" y1="-0.04" x2="26.117" y2="1.58" xlink:href="#linear-gradient-11"/>
    <linearGradient id="linear-gradient-51" x1="0.928" y1="-0.439" x2="0.325" y2="0.898" xlink:href="#linear-gradient-18"/>
    <linearGradient id="linear-gradient-52" x1="-217.181" y1="-9.94" x2="-217.596" y2="-9.53" gradientUnits="objectBoundingBox">
      <stop offset="0" stop-color="#2b3582"/>
      <stop offset="1" stop-color="#150e42"/>
    </linearGradient>
    <linearGradient id="linear-gradient-53" x1="-49.719" y1="-0.446" x2="-50.371" y2="1.215" xlink:href="#linear-gradient-18"/>
    <linearGradient id="linear-gradient-55" x1="-30.811" y1="5.021" x2="-30.751" y2="2.613" xlink:href="#linear-gradient-4"/>
    <linearGradient id="linear-gradient-56" x1="-28.848" y1="-12.946" x2="-32.546" y2="11.134" xlink:href="#linear-gradient-11"/>
    <linearGradient id="linear-gradient-57" x1="104.683" y1="-0.843" x2="104.177" y2="2.39" xlink:href="#linear-gradient-18"/>
    <linearGradient id="linear-gradient-58" x1="30.123" y1="-5.387" x2="27.607" y2="17.68" xlink:href="#linear-gradient-11"/>
    <linearGradient id="linear-gradient-59" x1="29.526" y1="7.019" x2="29.568" y2="4.399" xlink:href="#linear-gradient-4"/>
    <linearGradient id="linear-gradient-60" x1="113.589" y1="-0.223" x2="113.074" y2="2.539" xlink:href="#linear-gradient-18"/>
    <linearGradient id="linear-gradient-61" x1="0.492" y1="0.914" x2="0.577" y2="-0.171" xlink:href="#linear-gradient-11"/>
    <linearGradient id="linear-gradient-62" x1="0.506" y1="-0.045" x2="0.425" y2="1.171" xlink:href="#linear-gradient-4"/>
    <linearGradient id="linear-gradient-63" x1="0.51" y1="0.027" x2="0.497" y2="1.151" xlink:href="#linear-gradient-18"/>
    <linearGradient id="linear-gradient-64" x1="0.604" y1="-0.093" x2="0.442" y2="1.26" xlink:href="#linear-gradient-4"/>
    <linearGradient id="linear-gradient-65" x1="0.945" y1="-0.15" x2="-0.809" y2="2.993" gradientUnits="objectBoundingBox">
      <stop offset="0" stop-color="#f9b776"/>
      <stop offset="1" stop-color="#f47960"/>
    </linearGradient>
    <linearGradient id="linear-gradient-66" x1="0.6" y1="-0.075" x2="0.435" y2="1.309" xlink:href="#linear-gradient-4"/>
    <linearGradient id="linear-gradient-67" x1="0.205" y1="0.019" x2="1.191" y2="2.089" xlink:href="#linear-gradient-65"/>
    <linearGradient id="linear-gradient-68" x1="1.06" y1="0.115" x2="0.164" y2="0.8" xlink:href="#linear-gradient-18"/>
    <linearGradient id="linear-gradient-69" x1="-29.973" y1="-12.667" x2="-29.066" y2="-12.667" xlink:href="#linear-gradient-11"/>
    <linearGradient id="linear-gradient-70" x1="-123.781" y1="-64.405" x2="-121.324" y2="-67.053" xlink:href="#linear-gradient-18"/>
    <linearGradient id="linear-gradient-72" x1="-293.61" y1="0.5" x2="-292.61" y2="0.5" xlink:href="#linear-gradient-18"/>
  </defs>
  <g id="Grupo_97524" data-name="Grupo 97524" transform="translate(-133.515 -134.908)">
    <path id="Trazado_213834" data-name="Trazado 213834" d="M254.443,380.613c45.992,1.492,95.763-6.765,137.5,1.068,30.6,5.742,64.9,13.964,96.024,6.314,32.152-7.9,72.661-35.126,63.165-73.494-3.122-12.615-14.9-16.941-21.854-26.645-8.875-12.384-5.949-24.72-1.338-38.376,7.639-22.625,19.424-51.074,9.734-74.687-10.35-25.219-41.722-18.518-61.331-9.9-26.169,11.507-49.428,37.457-80.664,28.775-22.14-6.153-40.566-22.139-59.643-34.112-29.2-18.326-121.818-36.447-153.789-14.77-35.064,23.773,25.416,47.87-12.431,69.632-27.324,15.712-41.853,58-34.321,97.61C145.073,362.392,211.4,379.217,254.443,380.613Z" transform="translate(0)" fill="url(#linear-gradient)"/>
    <g id="Grupo_97485" data-name="Grupo 97485" transform="translate(148.209 176.021)">
      <path id="Trazado_213835" data-name="Trazado 213835" d="M228.373,355.4h-15.5a1.928,1.928,0,0,1-1.928-1.928h0a1.928,1.928,0,0,1,1.928-1.928h15.5a1.928,1.928,0,0,1,1.928,1.928h0A1.928,1.928,0,0,1,228.373,355.4Z" transform="translate(-210.94 -351.546)" fill="#bdd0fb"/>
      <path id="Trazado_213836" data-name="Trazado 213836" d="M392.071,355.4H342.235a1.928,1.928,0,0,1-1.928-1.928h0a1.928,1.928,0,0,1,1.928-1.928h49.836A1.928,1.928,0,0,1,394,353.474h0A1.928,1.928,0,0,1,392.071,355.4Z" transform="translate(-315.756 -351.546)" fill="#bdd0fb"/>
      <path id="Trazado_213837" data-name="Trazado 213837" d="M423.624,395.206H373.788a1.928,1.928,0,0,1-1.928-1.928h0a1.928,1.928,0,0,1,1.928-1.928h49.836a1.929,1.929,0,0,1,1.928,1.928h0A1.929,1.929,0,0,1,423.624,395.206Z" transform="translate(-341.321 -383.795)" fill="#bdd0fb"/>
      <path id="Trazado_213838" data-name="Trazado 213838" d="M409.452,474.814H373.788a1.928,1.928,0,0,1-1.928-1.928h0a1.928,1.928,0,0,1,1.928-1.928h35.664a1.928,1.928,0,0,1,1.928,1.928h0A1.928,1.928,0,0,1,409.452,474.814Z" transform="translate(-341.321 -448.296)" fill="#bdd0fb"/>
      <path id="Trazado_213839" data-name="Trazado 213839" d="M453.073,435.01H403.237a1.928,1.928,0,0,1-1.928-1.929h0a1.928,1.928,0,0,1,1.928-1.928h49.836A1.928,1.928,0,0,1,455,433.081h0A1.928,1.928,0,0,1,453.073,435.01Z" transform="translate(-365.181 -416.045)" fill="#bdd0fb"/>
    </g>
    <g id="Grupo_97486" data-name="Grupo 97486" transform="translate(431.82 329.146)">
      <path id="Trazado_213840" data-name="Trazado 213840" d="M1722.818,1162.27h-15.5a1.929,1.929,0,0,1-1.928-1.928h0a1.928,1.928,0,0,1,1.928-1.928h15.5a1.928,1.928,0,0,1,1.928,1.928h0A1.929,1.929,0,0,1,1722.818,1162.27Z" transform="translate(-1705.385 -1158.413)" fill="#bdd0fb"/>
      <path id="Trazado_213841" data-name="Trazado 213841" d="M1886.516,1162.27H1836.68a1.928,1.928,0,0,1-1.928-1.928h0a1.928,1.928,0,0,1,1.928-1.928h49.836a1.928,1.928,0,0,1,1.928,1.928h0A1.928,1.928,0,0,1,1886.516,1162.27Z" transform="translate(-1810.201 -1158.413)" fill="#bdd0fb"/>
      <path id="Trazado_213842" data-name="Trazado 213842" d="M1918.069,1202.074h-49.836a1.928,1.928,0,0,1-1.928-1.928h0a1.928,1.928,0,0,1,1.928-1.928h49.836a1.928,1.928,0,0,1,1.928,1.928h0A1.928,1.928,0,0,1,1918.069,1202.074Z" transform="translate(-1835.766 -1190.663)" fill="#bdd0fb"/>
      <path id="Trazado_213843" data-name="Trazado 213843" d="M1903.9,1281.681h-35.664a1.928,1.928,0,0,1-1.928-1.928h0a1.928,1.928,0,0,1,1.928-1.928H1903.9a1.928,1.928,0,0,1,1.928,1.928h0A1.928,1.928,0,0,1,1903.9,1281.681Z" transform="translate(-1835.766 -1255.162)" fill="#bdd0fb"/>
      <path id="Trazado_213844" data-name="Trazado 213844" d="M1947.518,1241.877h-49.836a1.928,1.928,0,0,1-1.928-1.928h0a1.928,1.928,0,0,1,1.928-1.928h49.836a1.928,1.928,0,0,1,1.928,1.928h0A1.928,1.928,0,0,1,1947.518,1241.877Z" transform="translate(-1859.626 -1222.912)" fill="#bdd0fb"/>
    </g>
    <path id="Trazado_213845" data-name="Trazado 213845" d="M1549.011,378.689V386a1.626,1.626,0,0,0,1.55,1.624l9.139.429a1.626,1.626,0,0,0,1.7-1.624v-7.737a1.626,1.626,0,0,0-1.626-1.626h-9.139A1.626,1.626,0,0,0,1549.011,378.689Z" transform="translate(-1146.867 -196.2)" fill="url(#linear-gradient-2)"/>
    <path id="Trazado_213846" data-name="Trazado 213846" d="M1875.8,711.2v5.807a1.292,1.292,0,0,0,1.231,1.291l7.262.341a1.292,1.292,0,0,0,1.353-1.291V711.2a1.292,1.292,0,0,0-1.292-1.292h-7.262A1.292,1.292,0,0,0,1875.8,711.2Z" transform="translate(-1411.637 -465.88)" fill="url(#linear-gradient-3)"/>
    <path id="Trazado_213847" data-name="Trazado 213847" d="M2022.893,276.355V281.5a1.146,1.146,0,0,0,1.092,1.144l6.439.3a1.146,1.146,0,0,0,1.2-1.144v-5.452a1.146,1.146,0,0,0-1.146-1.146h-6.439A1.146,1.146,0,0,0,2022.893,276.355Z" transform="translate(-1530.817 -113.675)" fill="url(#linear-gradient-4)"/>
    <path id="Trazado_213848" data-name="Trazado 213848" d="M1950.485,932.179v3.342a.744.744,0,0,0,.709.743l4.18.2a.744.744,0,0,0,.778-.743v-3.539a.744.744,0,0,0-.744-.744h-4.18A.744.744,0,0,0,1950.485,932.179Z" transform="translate(-1472.15 -645.365)" fill="#7d97f4"/>
    <g id="Grupo_97496" data-name="Grupo 97496" transform="translate(489.501 243.54)">
      <path id="Trazado_213849" data-name="Trazado 213849" d="M2009.69,709.854l-.366,22.673a2.57,2.57,0,0,0,2.57,2.612H2038a2.57,2.57,0,0,0,2.57-2.57V709.9a2.57,2.57,0,0,0-2.57-2.57H2012.26A2.57,2.57,0,0,0,2009.69,709.854Z" transform="translate(-2009.323 -707.325)" fill="url(#linear-gradient-4)"/>
      <g id="Grupo_97495" data-name="Grupo 97495" transform="translate(3.945 2.453)" opacity="0.73">
        <path id="Trazado_213850" data-name="Trazado 213850" d="M2041.888,742.111q-.281,0-.563-.013c-6.442-.284-11.468-5.413-11.2-11.433a10.506,10.506,0,0,1,3.781-7.589,12.053,12.053,0,0,1,8.38-2.815c6.442.284,11.468,5.413,11.2,11.433h0a10.507,10.507,0,0,1-3.781,7.589A12,12,0,0,1,2041.888,742.111Zm-.171-20.322a10.465,10.465,0,0,0-6.818,2.46,8.982,8.982,0,0,0-3.24,6.483c-.226,5.172,4.14,9.58,9.733,9.827a10.522,10.522,0,0,0,7.313-2.449,8.984,8.984,0,0,0,3.24-6.483c.226-5.172-4.14-9.58-9.733-9.826C2042.047,721.793,2041.881,721.789,2041.717,721.789Z" transform="translate(-2030.11 -720.249)" fill="#fff"/>
        <g id="Grupo_97494" data-name="Grupo 97494" transform="translate(1.497 0.775)">
          <g id="Grupo_97487" data-name="Grupo 97487" transform="translate(7.135 0.055)">
            <path id="Trazado_213851" data-name="Trazado 213851" d="M2082.556,735.885a30.759,30.759,0,0,1-.44,5.353c-.08.441-.172.88-.282,1.315a12.65,12.65,0,0,1-.394,1.287,6.093,6.093,0,0,1-.587,1.213,2.423,2.423,0,0,1-.441.516,1.256,1.256,0,0,1-.289.187.86.86,0,0,1-.337.08.845.845,0,0,1-.341-.063,1.186,1.186,0,0,1-.3-.176,2.3,2.3,0,0,1-.45-.508,5.912,5.912,0,0,1-.6-1.209,12.413,12.413,0,0,1-.4-1.286c-.111-.435-.2-.874-.284-1.315-.16-.883-.27-1.773-.343-2.667s-.11-1.79-.115-2.686c0-.448.01-.9.026-1.344s.041-.9.074-1.342c.066-.894.164-1.785.311-2.67.074-.442.159-.882.263-1.319a12.715,12.715,0,0,1,.373-1.292c.075-.211.156-.421.25-.625a4.579,4.579,0,0,1,.32-.593,2.2,2.2,0,0,1,.441-.511,1.107,1.107,0,0,1,.291-.175.814.814,0,0,1,.335-.06.882.882,0,0,1,.331.078,1.291,1.291,0,0,1,.288.18,2.464,2.464,0,0,1,.45.5,6.059,6.059,0,0,1,.617,1.195,12.234,12.234,0,0,1,.423,1.277c.119.432.22.869.307,1.309A28.21,28.21,0,0,1,2082.556,735.885Zm-.132,0c0-.893-.032-1.786-.106-2.675a25.8,25.8,0,0,0-.347-2.654c-.082-.439-.178-.875-.292-1.306a12.255,12.255,0,0,0-.406-1.273,6.015,6.015,0,0,0-.6-1.19,2.417,2.417,0,0,0-.435-.5,1.242,1.242,0,0,0-.276-.177.818.818,0,0,0-.315-.077.767.767,0,0,0-.318.06,1.072,1.072,0,0,0-.278.172,2.163,2.163,0,0,0-.425.5,4.509,4.509,0,0,0-.31.589c-.09.2-.169.412-.242.622a12.8,12.8,0,0,0-.356,1.288c-.1.435-.178.874-.247,1.315-.136.882-.225,1.772-.281,2.663s-.076,1.784-.075,2.677.028,1.786.094,2.676.169,1.778.321,2.657c.077.44.166.877.273,1.31a12.3,12.3,0,0,0,.385,1.279,5.849,5.849,0,0,0,.577,1.2,2.233,2.233,0,0,0,.431.494,1.108,1.108,0,0,0,.276.168.76.76,0,0,0,.312.06.791.791,0,0,0,.308-.076,1.186,1.186,0,0,0,.27-.178,2.344,2.344,0,0,0,.422-.5,6.028,6.028,0,0,0,.569-1.2,12.7,12.7,0,0,0,.38-1.28c.106-.433.194-.87.27-1.31.152-.879.252-1.768.319-2.658S2082.424,736.777,2082.424,735.885Z" transform="translate(-2076.705 -725.734)" fill="#fff"/>
            <path id="Trazado_213852" data-name="Trazado 213852" d="M2078.651,744.983a1.114,1.114,0,0,1-.412-.082,1.414,1.414,0,0,1-.36-.214,2.51,2.51,0,0,1-.5-.565,6.1,6.1,0,0,1-.624-1.263,12.64,12.64,0,0,1-.407-1.314c-.107-.419-.2-.855-.289-1.333-.154-.846-.267-1.726-.347-2.692-.072-.877-.111-1.788-.115-2.706,0-.48.011-.954.026-1.354.017-.456.042-.91.075-1.352.072-.971.174-1.852.314-2.694.08-.48.167-.917.266-1.336a12.889,12.889,0,0,1,.381-1.319c.085-.24.169-.451.259-.647a4.841,4.841,0,0,1,.339-.627,2.419,2.419,0,0,1,.494-.571,1.378,1.378,0,0,1,.36-.216,1.085,1.085,0,0,1,.44-.078,1.136,1.136,0,0,1,.426.1,1.532,1.532,0,0,1,.346.216,2.67,2.67,0,0,1,.5.555,6.264,6.264,0,0,1,.646,1.247,12.493,12.493,0,0,1,.432,1.3c.116.421.218.855.312,1.328a28.23,28.23,0,0,1,.5,5.4h0a30.792,30.792,0,0,1-.444,5.4c-.086.477-.179.913-.286,1.334a12.922,12.922,0,0,1-.4,1.314,6.335,6.335,0,0,1-.614,1.265,2.637,2.637,0,0,1-.49.572,1.523,1.523,0,0,1-.349.225,1.116,1.116,0,0,1-.44.1Zm-.135-19.8a.516.516,0,0,0-.2.041.826.826,0,0,0-.211.132,1.871,1.871,0,0,0-.371.444,4.249,4.249,0,0,0-.291.554c-.08.181-.156.377-.233.6a12.364,12.364,0,0,0-.349,1.261c-.092.408-.171.832-.243,1.3-.128.826-.219,1.689-.279,2.639-.052.812-.076,1.682-.074,2.661,0,.9.029,1.8.093,2.657.071.945.175,1.806.318,2.632.08.462.168.885.269,1.292a12.032,12.032,0,0,0,.376,1.251,5.535,5.535,0,0,0,.55,1.142,1.937,1.937,0,0,0,.378.436.842.842,0,0,0,.209.128.551.551,0,0,0,.205.041.529.529,0,0,0,.209-.052.926.926,0,0,0,.21-.139,2.049,2.049,0,0,0,.373-.447A5.722,5.722,0,0,0,2080,742.6a12.292,12.292,0,0,0,.372-1.253c.1-.4.186-.827.266-1.292.141-.819.245-1.68.316-2.632.066-.859.1-1.753.1-2.657h0c0-.9-.033-1.793-.1-2.653a25.367,25.367,0,0,0-.344-2.627c-.086-.458-.18-.879-.288-1.287a11.894,11.894,0,0,0-.4-1.246,5.708,5.708,0,0,0-.571-1.137,2.118,2.118,0,0,0-.386-.443.984.984,0,0,0-.218-.14.553.553,0,0,0-.214-.054Z" transform="translate(-2075.594 -724.62)" fill="#fff"/>
          </g>
          <g id="Grupo_97488" data-name="Grupo 97488" transform="translate(2.056)">
            <path id="Trazado_213853" data-name="Trazado 213853" d="M2065.376,735.65a13.111,13.111,0,0,1-.461,3.421,11.039,11.039,0,0,1-1.426,3.137,9.068,9.068,0,0,1-1.089,1.339,7.652,7.652,0,0,1-1.341,1.083,6.447,6.447,0,0,1-1.564.718,5.829,5.829,0,0,1-3.4,0,6.448,6.448,0,0,1-1.565-.717,7.645,7.645,0,0,1-1.342-1.082,9.007,9.007,0,0,1-1.091-1.339,11.045,11.045,0,0,1-1.429-3.138,12.419,12.419,0,0,1-.346-1.7,12.8,12.8,0,0,1,0-3.455,12.492,12.492,0,0,1,.347-1.7,11.051,11.051,0,0,1,1.431-3.136,9,9,0,0,1,1.091-1.337,7.613,7.613,0,0,1,1.342-1.081,6.472,6.472,0,0,1,1.564-.714,5.788,5.788,0,0,1,3.4,0,6.469,6.469,0,0,1,1.563.715,7.612,7.612,0,0,1,1.34,1.081,9.02,9.02,0,0,1,1.089,1.337,11.026,11.026,0,0,1,1.427,3.135A13.1,13.1,0,0,1,2065.376,735.65Zm-.151,0a12.956,12.956,0,0,0-.443-3.384,10.977,10.977,0,0,0-1.38-3.115,8.932,8.932,0,0,0-1.064-1.335,7.456,7.456,0,0,0-1.317-1.084,6.35,6.35,0,0,0-1.544-.717,5.647,5.647,0,0,0-3.362,0,6.335,6.335,0,0,0-1.543.718,7.435,7.435,0,0,0-1.315,1.085,8.928,8.928,0,0,0-1.062,1.335,10.967,10.967,0,0,0-1.377,3.114,12.581,12.581,0,0,0-.331,1.676,13.113,13.113,0,0,0,0,3.41,12.576,12.576,0,0,0,.332,1.676,10.98,10.98,0,0,0,1.379,3.112,8.94,8.94,0,0,0,1.063,1.333,7.422,7.422,0,0,0,1.314,1.083,6.369,6.369,0,0,0,1.542.715,5.6,5.6,0,0,0,3.356,0,6.384,6.384,0,0,0,1.543-.714,7.436,7.436,0,0,0,1.316-1.082,8.917,8.917,0,0,0,1.064-1.333,10.988,10.988,0,0,0,1.382-3.113A12.961,12.961,0,0,0,2065.225,735.65Z" transform="translate(-2049.944 -725.445)" fill="#fff"/>
            <path id="Trazado_213854" data-name="Trazado 213854" d="M2056.685,744.75a6.142,6.142,0,0,1-1.776-.264,6.7,6.7,0,0,1-1.628-.746,7.912,7.912,0,0,1-1.389-1.119,9.33,9.33,0,0,1-1.123-1.377,11.286,11.286,0,0,1-1.464-3.213,12.841,12.841,0,0,1-.354-1.733,13.061,13.061,0,0,1,0-3.524,12.779,12.779,0,0,1,.354-1.732,11.285,11.285,0,0,1,1.466-3.211,9.293,9.293,0,0,1,1.123-1.376,7.888,7.888,0,0,1,1.388-1.117,6.734,6.734,0,0,1,1.627-.743,6.048,6.048,0,0,1,3.545,0,6.723,6.723,0,0,1,1.625.744,7.889,7.889,0,0,1,1.386,1.118,9.291,9.291,0,0,1,1.121,1.376,11.261,11.261,0,0,1,1.462,3.209,13.376,13.376,0,0,1,.474,3.49v0a13.367,13.367,0,0,1-.471,3.489,11.274,11.274,0,0,1-1.46,3.213,9.312,9.312,0,0,1-1.121,1.377,7.911,7.911,0,0,1-1.386,1.12,6.715,6.715,0,0,1-1.628.747A6.159,6.159,0,0,1,2056.685,744.75Zm0-19.842a5.56,5.56,0,0,0-1.6.245,6.086,6.086,0,0,0-1.479.689,7.193,7.193,0,0,0-1.268,1.046,8.694,8.694,0,0,0-1.031,1.3,10.687,10.687,0,0,0-1.343,3.04,12.391,12.391,0,0,0-.324,1.641,12.81,12.81,0,0,0,0,3.343,12.266,12.266,0,0,0,.325,1.641,10.681,10.681,0,0,0,1.345,3.038,8.663,8.663,0,0,0,1.031,1.295,7.193,7.193,0,0,0,1.268,1.044,6.1,6.1,0,0,0,1.478.686,5.343,5.343,0,0,0,3.2,0,6.131,6.131,0,0,0,1.48-.685,7.176,7.176,0,0,0,1.269-1.044,8.735,8.735,0,0,0,1.033-1.294,10.707,10.707,0,0,0,1.349-3.039,12.85,12.85,0,0,0,0-6.629,10.7,10.7,0,0,0-1.347-3.041,8.7,8.7,0,0,0-1.033-1.3,7.183,7.183,0,0,0-1.27-1.046,6.081,6.081,0,0,0-1.48-.687A5.556,5.556,0,0,0,2056.684,724.908Z" transform="translate(-2048.833 -724.331)" fill="#fff"/>
          </g>
          <g id="Grupo_97489" data-name="Grupo 97489" transform="translate(0.791 5.969)">
            <path id="Trazado_213855" data-name="Trazado 213855" d="M2043.549,757.2l2.276-.019,2.277-.01,4.553-.008,4.553.009,2.277.011,2.277.02a.007.007,0,0,1,.006.007s0,.007-.006.007l-2.277.02-2.277.011-4.553.009-4.553-.008-2.277-.01-2.276-.019a.016.016,0,0,1-.01,0C2043.539,757.2,2043.543,757.2,2043.549,757.2Z" transform="translate(-2043.279 -756.897)" fill="#fff"/>
            <path id="Trazado_213856" data-name="Trazado 213856" d="M2051.546,756.4l-6.832-.019-2.386-.02-.159-.159v-.117l.006-.255.262-.01,4.554-.029,4.554-.008,6.832.021,2.536.022.007.526-.267.007-4.552.031Z" transform="translate(-2042.169 -755.782)" fill="#fff"/>
          </g>
          <g id="Grupo_97490" data-name="Grupo 97490" transform="translate(3.432 2.141)">
            <path id="Trazado_213857" data-name="Trazado 213857" d="M2057.466,737.024c.539-.009,1.078-.012,1.616-.018l1.616-.01c.539,0,1.077,0,1.616-.005l1.616,0,3.233.009,1.616.011c.539.007,1.077.011,1.616.02a.01.01,0,0,1,.007,0c0,.007,0,.01-.007.01-.539.009-1.077.013-1.616.02l-1.616.012-3.233.009-1.616,0c-.539,0-1.078,0-1.616-.005l-1.616-.01c-.539-.006-1.078-.01-1.616-.018a.01.01,0,0,1-.01-.01A.01.01,0,0,1,2057.466,737.024Z" transform="translate(-2057.196 -736.726)" fill="#fff"/>
            <path id="Trazado_213858" data-name="Trazado 213858" d="M2062.821,736.228l-2.036,0c-.4,0-.8,0-1.2,0l-2.155-.016c-.36,0-.719-.007-1.079-.013l-.256,0-.01-.528.266-.01c.348-.006.7-.009,1.044-.012l2.191-.017c.379,0,.759,0,1.138,0l2.1,0,5.44.027c.344,0,.687.007,1.031.013l.265,0-.012.525-.258.007c-.355.006-.715.01-1.075.014l-2.156.018Z" transform="translate(-2056.085 -735.611)" fill="#fff"/>
          </g>
          <g id="Grupo_97491" data-name="Grupo 97491" transform="translate(0 9.797)">
            <path id="Trazado_213859" data-name="Trazado 213859" d="M2039.38,777.366l2.474-.018,2.474-.011,4.949-.008,4.949.009,2.474.011,2.475.02a.007.007,0,0,1,.007.007s0,.007-.007.007l-2.475.02-2.474.011-4.949.009-4.949-.008-2.474-.01-2.474-.018a.01.01,0,0,1-.01-.01A.01.01,0,0,1,2039.38,777.366Z" transform="translate(-2039.11 -777.068)" fill="#fff"/>
            <path id="Trazado_213860" data-name="Trazado 213860" d="M2048.168,776.57l-7.425-.019-2.733-.02L2038,776l.268-.01,4.95-.029,4.949-.008,7.425.021,2.584.021.157.16-.01.368-.258.007-4.948.031Z" transform="translate(-2037.999 -775.953)" fill="#fff"/>
          </g>
          <g id="Grupo_97492" data-name="Grupo 97492" transform="translate(0.791 13.625)">
            <path id="Trazado_213861" data-name="Trazado 213861" d="M2043.549,797.536l2.276-.018,2.277-.01,4.553-.009,4.553.01,2.277.011,2.277.02a.011.011,0,0,1,.006,0c0,.007,0,.01-.006.01l-2.277.02-2.277.012-4.553.009-4.553-.009-2.277-.01-2.276-.018a.01.01,0,0,1-.01-.01A.01.01,0,0,1,2043.549,797.536Z" transform="translate(-2043.279 -797.238)" fill="#fff"/>
            <path id="Trazado_213862" data-name="Trazado 213862" d="M2051.546,796.74l-6.832-.019-2.386-.019-.159-.159v-.117l.006-.255.262-.01,4.554-.029,4.554-.008,6.832.021,2.536.022.007.527-.267.007-4.552.031Z" transform="translate(-2042.169 -796.123)" fill="#fff"/>
          </g>
          <g id="Grupo_97493" data-name="Grupo 97493" transform="translate(3.733 17.465)">
            <path id="Trazado_213863" data-name="Trazado 213863" d="M2072.006,817.8h-12.931a.035.035,0,0,1,0-.07h12.931a.035.035,0,0,1,0,.07Z" transform="translate(-2058.78 -817.474)" fill="#fff"/>
            <path id="Trazado_213864" data-name="Trazado 213864" d="M2070.9,816.952h-12.93a.3.3,0,0,1,0-.592h12.93a.3.3,0,0,1,0,.592Z" transform="translate(-2057.67 -816.36)" fill="#fff"/>
          </g>
        </g>
      </g>
    </g>
    <g id="Grupo_97499" data-name="Grupo 97499" transform="translate(426.752 182.296)">
      <path id="Trazado_213865" data-name="Trazado 213865" d="M1697.977,409.855l-15.671,1.651a3.283,3.283,0,0,1-3.627-3.265V390.153a3.283,3.283,0,0,1,2.815-3.249l15.671-2.256a3.283,3.283,0,0,1,3.751,3.249V406.59A3.283,3.283,0,0,1,1697.977,409.855Z" transform="translate(-1678.679 -384.613)" fill="url(#linear-gradient-6)"/>
      <g id="Grupo_97498" data-name="Grupo 97498" transform="translate(4.297 6.067)">
        <path id="Trazado_213866" data-name="Trazado 213866" d="M1703.646,480.054a2.323,2.323,0,1,1,2.323-2.323A2.326,2.326,0,0,1,1703.646,480.054Zm0-3.725a1.4,1.4,0,1,0,1.4,1.4A1.4,1.4,0,0,0,1703.646,476.329Z" transform="translate(-1701.323 -464.243)" fill="url(#linear-gradient-7)"/>
        <g id="Grupo_97497" data-name="Grupo 97497" transform="translate(0.044)">
          <path id="Trazado_213867" data-name="Trazado 213867" d="M1708.955,455.625a4.962,4.962,0,0,1,4.957,4.957,4.759,4.759,0,0,1-.026.5.338.338,0,0,0,.384.375l.721-.108a.339.339,0,0,0,.287-.313c.011-.151.017-.3.017-.455a6.347,6.347,0,0,0-6.34-6.34,6.249,6.249,0,0,0-.782.05.339.339,0,0,0-.293.392l.119.7a.336.336,0,0,0,.373.277A4.731,4.731,0,0,1,1708.955,455.625Z" transform="translate(-1706.675 -447.095)" fill="url(#linear-gradient-7)"/>
          <path id="Trazado_213868" data-name="Trazado 213868" d="M1706.393,436.8a8.54,8.54,0,0,1,8.53,8.53v0a.335.335,0,0,0,.383.335l.708-.106.292-.338a9.925,9.925,0,0,0-9.913-9.809,9.821,9.821,0,0,0-1.4.1.335.335,0,0,0-.279.389l.119.7a.335.335,0,0,0,.375.277A8.452,8.452,0,0,1,1706.393,436.8Z" transform="translate(-1704.114 -431.838)" fill="url(#linear-gradient-7)"/>
          <path id="Trazado_213869" data-name="Trazado 213869" d="M1703.835,417.965a12.117,12.117,0,0,1,12.09,11.586.338.338,0,0,0,.386.324l.7-.1a.338.338,0,0,0,.289-.348,13.464,13.464,0,0,0-15.462-12.69.337.337,0,0,0-.279.391l.119.7a.337.337,0,0,0,.385.275A12.028,12.028,0,0,1,1703.835,417.965Z" transform="translate(-1701.556 -416.582)" fill="url(#linear-gradient-7)"/>
        </g>
      </g>
    </g>
    <g id="Grupo_97502" data-name="Grupo 97502" transform="translate(153.162 159.606)">
      <path id="Trazado_213870" data-name="Trazado 213870" d="M273.482,941.467s31,81.77,40.8,98.78c11.371,19.746,44.579,7.163,42.926-9.362s-40.451-84.828-40.451-84.828Z" transform="translate(-266.566 -813.098)" fill="url(#linear-gradient-11)"/>
      <path id="Trazado_213871" data-name="Trazado 213871" d="M471.747,342.349l160.371-66.814-2.024,180.809L466.481,412.623Z" transform="translate(-422.938 -273.545)" fill="url(#linear-gradient-12)"/>
      <ellipse id="Elipse_5398" data-name="Elipse 5398" cx="18.933" cy="92.919" rx="18.933" ry="92.919" transform="translate(190.429 0)" fill="url(#linear-gradient-13)"/>
      <path id="Trazado_213872" data-name="Trazado 213872" d="M1290.5,467.182c-1.711-1.74-5.439-8.454-8.635-25.815-3.089-16.777-4.79-38.538-4.79-61.275s1.7-44.5,4.79-61.275c3.2-17.361,6.923-24.074,8.635-25.815,1.711,1.74,5.439,8.454,8.635,25.815,3.089,16.777,4.79,38.538,4.79,61.275s-1.7,44.5-4.79,61.275C1295.936,458.728,1292.208,465.442,1290.5,467.182Z" transform="translate(-1079.698 -287.698)" fill="url(#linear-gradient-14)"/>
      <g id="Grupo_97501" data-name="Grupo 97501" transform="translate(197.375 5.305)">
        <g id="Grupo_97500" data-name="Grupo 97500" clip-path="url(#clip-path)">
          <path id="Trazado_213873" data-name="Trazado 213873" d="M1237.374,626.215c0,15.788-8.505,28.587-25.338,28.587s-30.48-12.8-30.48-28.587,13.646-28.587,30.48-28.587S1237.374,610.427,1237.374,626.215Z" transform="translate(-1199.683 -539.817)" fill="url(#linear-gradient-15)"/>
        </g>
      </g>
      <path id="Trazado_213875" data-name="Trazado 213875" d="M254.768,603.9a107.965,107.965,0,0,1,36.12,1.787c-4.631,24.189-3.932,49.4,1.424,75.508H252.669a12.847,12.847,0,0,1-12.7-10.834c-1.976-12.514-4.391-33.547-1.816-50.439A19.012,19.012,0,0,1,254.768,603.9Z" transform="translate(-237.039 -538.986)" fill="url(#linear-gradient-16)"/>
      <path id="Trazado_213876" data-name="Trazado 213876" d="M312.567,671.811H281.681a2.662,2.662,0,0,1-2.235-4.109.64.64,0,1,1,1.074.7,1.383,1.383,0,0,0,1.161,2.134h30.886a1.384,1.384,0,0,0,1.383-1.383v-2.2a1.384,1.384,0,0,0-1.383-1.383H281.452a.64.64,0,1,1,0-1.279h31.116a2.665,2.665,0,0,1,2.662,2.662v2.2A2.665,2.665,0,0,1,312.567,671.811Z" transform="translate(-271.047 -588.522)" fill="#bdd0fb"/>
      <path id="Trazado_213877" data-name="Trazado 213877" d="M298.054,743.89H267.168a2.662,2.662,0,0,1-2.235-4.109.64.64,0,1,1,1.074.7,1.383,1.383,0,0,0,1.161,2.134h30.886a1.384,1.384,0,0,0,1.383-1.383v-2.2a1.384,1.384,0,0,0-1.383-1.383H266.939a.64.64,0,0,1,0-1.28h31.116a2.665,2.665,0,0,1,2.662,2.663v2.2A2.665,2.665,0,0,1,298.054,743.89Z" transform="translate(-259.288 -646.922)" fill="#bdd0fb"/>
      <path id="Trazado_213878" data-name="Trazado 213878" d="M639.048,397.247a.64.64,0,0,1-.242-1.232L752.425,349.57a.64.64,0,1,1,.484,1.185L639.29,397.2A.637.637,0,0,1,639.048,397.247Z" transform="translate(-562.237 -333.491)" fill="#bdd0fb"/>
      <path id="Trazado_213879" data-name="Trazado 213879" d="M535.046,624.942a.64.64,0,0,1-.242-1.232l7.512-3.07a.64.64,0,1,1,.484,1.185l-7.512,3.071A.639.639,0,0,1,535.046,624.942Z" transform="translate(-477.972 -553.118)" fill="#bdd0fb"/>
      <path id="Trazado_213880" data-name="Trazado 213880" d="M312.567,828.305H281.681a2.662,2.662,0,0,1-2.235-4.109.64.64,0,1,1,1.074.7,1.383,1.383,0,0,0,1.161,2.134h30.886a1.384,1.384,0,0,0,1.383-1.383v-2.2a1.384,1.384,0,0,0-1.383-1.383H281.452a.64.64,0,0,1,0-1.28h31.116a2.665,2.665,0,0,1,2.662,2.662v2.2A2.665,2.665,0,0,1,312.567,828.305Z" transform="translate(-271.047 -715.317)" fill="#bdd0fb"/>
      <path id="Trazado_213881" data-name="Trazado 213881" d="M327.805,922.005H296.919a2.663,2.663,0,0,1-2.235-4.109.64.64,0,1,1,1.074.7,1.383,1.383,0,0,0,1.161,2.134h30.886a1.384,1.384,0,0,0,1.383-1.383v-2.2a1.384,1.384,0,0,0-1.383-1.383H296.69a.64.64,0,1,1,0-1.279h31.115a2.665,2.665,0,0,1,2.662,2.662v2.2A2.665,2.665,0,0,1,327.805,922.005Z" transform="translate(-283.393 -791.235)" fill="#bdd0fb"/>
      <path id="Trazado_213882" data-name="Trazado 213882" d="M433.2,1175.549a20.018,20.018,0,0,1-4.263-.463,19.723,19.723,0,0,1-13.918-11.272l-24.677-54.822a.64.64,0,0,1,1.167-.525l24.677,54.822a18.454,18.454,0,0,0,13.023,10.547,18.086,18.086,0,0,0,15.914-4.069q.351-.307.7-.63a.64.64,0,0,1,.863.945q-.364.332-.725.648A19.288,19.288,0,0,1,433.2,1175.549Z" transform="translate(-361.203 -948.099)" fill="#bdd0fb"/>
      <path id="Trazado_213883" data-name="Trazado 213883" d="M359.948,1040.548a.64.64,0,0,1-.584-.377l-2.753-6.115a.64.64,0,1,1,1.167-.525l2.753,6.116a.64.64,0,0,1-.583.9Z" transform="translate(-333.873 -887.383)" fill="#fff"/>
      <path id="Trazado_213884" data-name="Trazado 213884" d="M1325.71,642.075a.64.64,0,0,1-.638-.595c-.552-7.782-3.254-13.586-8.029-17.253-8.25-6.334-20.012-4.158-20.13-4.136a.64.64,0,1,1-.242-1.256c.5-.1,12.45-2.3,21.152,4.377,5.078,3.9,7.947,10.015,8.526,18.177a.64.64,0,0,1-.593.683Z" transform="translate(-1095.157 -551.35)" fill="#fff" opacity="0.67"/>
    </g>
    <g id="Grupo_97503" data-name="Grupo 97503" transform="translate(252.867 297.652)">
      <path id="Trazado_213885" data-name="Trazado 213885" d="M829.456,1088.044s12.124-15.234,10.153-29.635-11.809-12.683-16.187-4.167-8.313,7.347-5.713-.659,5.861-13.217.471-21.187-5.948-11.356-2.92-18.468,6.831-17.188-5.219-20.784-24.053,7.451-21.243,21.908,4.5,16.032.628,21.387-2.257,7.555-1.709,11.04-5.364,4.3-5.238-.608,7.647-16.5,2.514-21.9S769.8,1019.5,767.22,1032s5.679,18.118,5.268,22.639-4.845-2.334-8.707,2.274,1.338,8.229,5.164,10.726,9.6,6.974,4.106,10.224-10.689.14-7.325,10.177Z" transform="translate(-762.421 -992.46)" fill="#91b3fa"/>
      <path id="Trazado_213886" data-name="Trazado 213886" d="M949.282,1051a6.3,6.3,0,0,0-1.081.756,8.384,8.384,0,0,0-.937.931,10.512,10.512,0,0,0-1.479,2.205,13.868,13.868,0,0,0-1.38,5.137c-.025.222-.033.444-.043.667s-.022.446-.016.667l0,.667.032.665.018.333.033.331.066.662c.067.437.113.879.2,1.312s.159.87.264,1.3l.148.645.154.623.619,2.489c.82,3.317,1.609,6.633,2.23,9.966a48.762,48.762,0,0,1,.928,10.026,23.824,23.824,0,0,1-.184,2.475,18.448,18.448,0,0,1-.455,2.416,15.578,15.578,0,0,1-.784,2.3,17.46,17.46,0,0,0-.86,2.567,41.147,41.147,0,0,0-.846,5.179c-.181,1.722-.322,3.438-.434,5.151-.235,3.423-.437,6.836-.93,10.2-.062.42-.128.84-.207,1.257s-.16.833-.246,1.248-.194.824-.289,1.238c-.054.2-.115.407-.173.61s-.113.409-.185.607l-.2.6c-.068.2-.154.393-.23.59-.147.4-.34.771-.517,1.156a10.552,10.552,0,0,1-1.419,2.093l.138.136a10.838,10.838,0,0,0,1.621-2.039,15.885,15.885,0,0,0,1.142-2.346,29.439,29.439,0,0,0,1.42-5c.7-3.393,1.027-6.83,1.4-10.235.191-1.7.36-3.4.594-5.085a39.719,39.719,0,0,1,.955-4.943,16.842,16.842,0,0,1,.816-2.29,17.265,17.265,0,0,0,.919-2.546,20.161,20.161,0,0,0,.544-2.626,25.583,25.583,0,0,0,.245-2.648,49.131,49.131,0,0,0-.882-10.431c-.6-3.416-1.418-6.775-2.33-10.093-.23-.829-.461-1.657-.7-2.483l-.18-.618-.165-.6c-.117-.4-.2-.806-.3-1.211s-.166-.813-.251-1.22l-.095-.614c-.033-.2-.063-.41-.084-.615a19.227,19.227,0,0,1-.15-2.471,14.144,14.144,0,0,1,.206-2.46,13.27,13.27,0,0,1,.636-2.387,11.649,11.649,0,0,1,.507-1.133,9.569,9.569,0,0,1,.628-1.078,8.3,8.3,0,0,1,1.669-1.866Z" transform="translate(-907.171 -1039.891)" fill="#dce5fe"/>
      <path id="Trazado_213887" data-name="Trazado 213887" d="M1069.125,1322.91a81.165,81.165,0,0,1-1.5,8.005q-.474,1.977-1.049,3.925c-.091.326-.2.646-.3.969s-.206.644-.313.964c-.2.644-.436,1.279-.662,1.915-.243.63-.478,1.263-.743,1.883-.245.629-.526,1.241-.8,1.858-.57,1.221-1.172,2.426-1.841,3.6a39.455,39.455,0,0,1-2.188,3.4,37.2,37.2,0,0,1-2.594,3.123l.13.142a23.551,23.551,0,0,0,2.958-2.874,31.226,31.226,0,0,0,2.448-3.336,37.706,37.706,0,0,0,1.98-3.632c.284-.628.578-1.252.836-1.891s.5-1.283.743-1.927c.224-.65.455-1.3.658-1.956.107-.327.2-.657.3-.988s.194-.659.279-.992c.366-1.324.667-2.665.927-4.011a49.8,49.8,0,0,0,.928-8.16Z" transform="translate(-1001.205 -1260.198)" fill="#dce5fe"/>
    </g>
    <g id="Grupo_97508" data-name="Grupo 97508" transform="translate(153.968 272.594)">
      <path id="Trazado_213888" data-name="Trazado 213888" d="M376.808,1471.311s-.427,2.419-.637,4.814a1.65,1.65,0,0,0,1.578,1.787c3.189.133,10.01.391,12.457.282a.537.537,0,0,0,.472-.735h0a1.2,1.2,0,0,0-.615-.647l-11.267-5.178Z" transform="translate(-350.568 -1355.378)" fill="url(#linear-gradient-17)"/>
      <path id="Trazado_213889" data-name="Trazado 213889" d="M377.709,1461.914l.343,2.894s1.974.919,3.322-.116l-.818-3.225Z" transform="translate(-351.82 -1347.402)" fill="url(#linear-gradient-18)"/>
      <path id="Trazado_213890" data-name="Trazado 213890" d="M340.865,1177.176c-.148.755-.8,37.706,3.154,54.265a.562.562,0,0,1-.33.654,9.786,9.786,0,0,1-3.217.654.968.968,0,0,1-.96-.695c-1.129-3.842-6.539-23.091-7.245-41.479-.789-20.547,0-.7,0-.7l.462-12.7Z" transform="translate(-314.718 -1117.062)" fill="url(#linear-gradient-19)"/>
      <path id="Trazado_213891" data-name="Trazado 213891" d="M305.455,1477.961a17.4,17.4,0,0,0-1.339,4.466,1.006,1.006,0,0,0,.885,1.205c1.053.1,2.674.237,3.972.228a1,1,0,0,0,.994-1.12,8.465,8.465,0,0,0-1.976-4.642Z" transform="translate(-292.177 -1360.766)" fill="url(#linear-gradient-20)"/>
      <path id="Trazado_213892" data-name="Trazado 213892" d="M308.11,1457.624l.8,4.376a2.83,2.83,0,0,0,2.362.162l-.383-4.708Z" transform="translate(-295.429 -1344.151)" fill="url(#linear-gradient-18)"/>
      <path id="Trazado_213893" data-name="Trazado 213893" d="M291.383,1174.426c-3.23,19.5.7,48.185,2.026,53.8a.876.876,0,0,0,.707.665,5.878,5.878,0,0,0,2.527-.1.8.8,0,0,0,.577-.739c.178-4.54-.142-32.409,2.868-43.423a2.5,2.5,0,0,1,.965-1.38l5.842-4.153.448-6.713Z" transform="translate(-280.868 -1113.178)" fill="url(#linear-gradient-19)"/>
      <g id="Grupo_97504" data-name="Grupo 97504" transform="translate(9.308 9.315)">
        <path id="Trazado_213894" data-name="Trazado 213894" d="M312.126,981.75a91.018,91.018,0,0,0-20.363,2.542c-2.886,16.838-.5,36.259-.5,36.259,7.495,1.966,15.949-1.2,15.949-1.2,1.246-7.038,7.058-26.845,7.058-26.845a31.89,31.89,0,0,0,11.835-3.756,20.758,20.758,0,0,1-4.1-8.581A32.477,32.477,0,0,1,312.126,981.75Z" transform="translate(-290.336 -966.757)" fill="url(#linear-gradient-23)"/>
        <path id="Trazado_213895" data-name="Trazado 213895" d="M475.9,910.237a1.852,1.852,0,0,0-2.155-.605c-1.425,6.018-8.895,10.9-16.569,13.282a20.759,20.759,0,0,0,4.1,8.581C474.015,924.334,475.9,910.237,475.9,910.237Z" transform="translate(-425.513 -909.503)" fill="url(#linear-gradient-24)"/>
      </g>
      <g id="Grupo_97505" data-name="Grupo 97505" transform="translate(57.539)">
        <path id="Trazado_213896" data-name="Trazado 213896" d="M546.406,870.761c.1.316-1.053.8-1.731-.5-.024-.62-.4-3.277-.03-3.782a49.481,49.481,0,0,1,5.8-6.063.91.91,0,0,1,.114,1.265l-1.856,1.933a8.995,8.995,0,0,1,1.084,2.142,2.6,2.6,0,0,1-.259,1.914c-.326.587-.77,1.35-1.19,1.947A2.568,2.568,0,0,1,546.406,870.761Z" transform="translate(-544.482 -860.421)" fill="url(#linear-gradient-25)"/>
        <path id="Trazado_213897" data-name="Trazado 213897" d="M552.949,883.884l-1.691,1.434-.531,1.428,1.508,1.673a19.455,19.455,0,0,1,.884-3.446C553.5,884.36,553.3,884.063,552.949,883.884Z" transform="translate(-549.542 -879.431)" fill="url(#linear-gradient-26)"/>
      </g>
      <path id="Trazado_213898" data-name="Trazado 213898" d="M256.618,1011.274,252.9,1001.9s-9.043,6.144-10.53,13.934a21.393,21.393,0,0,1,7.861,2.107C250.9,1014.263,256.618,1011.274,256.618,1011.274Z" transform="translate(-242.169 -975.051)" fill="url(#linear-gradient-27)"/>
      <path id="Trazado_213899" data-name="Trazado 213899" d="M263.64,1079.583s-10.152,5.738-13.578.839a3.851,3.851,0,0,1-.706-2.992,21.393,21.393,0,0,0-7.861-2.107,10.752,10.752,0,0,0,1.169,7.37c6,10.977,22.32-.607,22.32-.607Z" transform="translate(-241.289 -1034.539)" fill="url(#linear-gradient-18)"/>
      <g id="Grupo_97506" data-name="Grupo 97506" transform="translate(21.109 29.466)">
        <path id="Trazado_213900" data-name="Trazado 213900" d="M352.541,1046.547l5.541-19.35a.564.564,0,0,1,.477-.406c1-.117,3.913-.446,7.271-.73a82.55,82.55,0,0,1,11.551-.384.566.566,0,0,1,.463.815c-1.6,3.23-8.163,16.368-11.452,20.672a.568.568,0,0,1-.457.224l-12.856-.12A.566.566,0,0,1,352.541,1046.547Z" transform="translate(-352.519 -1023.71)" fill="#bdd0fb"/>
        <path id="Trazado_213901" data-name="Trazado 213901" d="M423.61,1016.359l4.017-.669a.288.288,0,0,1,.321.375l-.4,1.2a.289.289,0,0,1-.236.2l-3.866.516a.288.288,0,0,1-.319-.351l.246-1.052A.289.289,0,0,1,423.61,1016.359Z" transform="translate(-409.724 -1015.686)" fill="url(#linear-gradient-29)"/>
        <path id="Trazado_213902" data-name="Trazado 213902" d="M409.81,1024.9l.331-1.724a.4.4,0,0,1,.351-.321l8.114-.823a.4.4,0,0,1,.428.489l-.516,2.148a.4.4,0,0,1-.367.3l-7.929.4A.4.4,0,0,1,409.81,1024.9Z" transform="translate(-398.931 -1020.825)" fill="url(#linear-gradient-30)"/>
        <path id="Trazado_213903" data-name="Trazado 213903" d="M357.408,1083.221s-.772-3.174-.46-4.3.914-2.574,2.925-2.252a29.453,29.453,0,0,1,4.383,1.169,1.151,1.151,0,0,1-1.648.994l.948.733s-.135,1.174-1.426.547l.881.972a1.027,1.027,0,0,1-1.5.346C360.557,1080.812,360.1,1083.6,357.408,1083.221Z" transform="translate(-356.047 -1065.059)" fill="url(#linear-gradient-18)"/>
      </g>
      <path id="Trazado_213904" data-name="Trazado 213904" d="M340.258,947.093,337.177,956a.321.321,0,0,0,.146.387,7.241,7.241,0,0,0,7.51-.505,1.511,1.511,0,0,0,.7-1.079l1-7.71Z" transform="translate(-318.965 -930.645)" fill="url(#linear-gradient-32)"/>
      <g id="Grupo_97507" data-name="Grupo 97507" transform="translate(15.446 3.57)">
        <path id="Trazado_213905" data-name="Trazado 213905" d="M355.094,903.626s3.382,6.367,2.949,8.939-4.626,2.387-8.286.3l-2.558-6.875Z" transform="translate(-342.546 -898.996)" fill="url(#linear-gradient-33)"/>
        <path id="Trazado_213906" data-name="Trazado 213906" d="M330.053,889.722a.263.263,0,0,0,.115-.384,6.851,6.851,0,0,1-.941-2s-.608-.39,1.548-.906,5.37-1.317,6.046-3.152c.659-1.789-1.072-6.288-3.834-2.7a.262.262,0,0,1-.416,0,2.705,2.705,0,0,0-3.3-1.071,2.482,2.482,0,0,0-1.7,2.4.261.261,0,0,1-.309.267,3.027,3.027,0,0,0-3.534,1.648c-.721,1.585-.252,2.483.174,2.921a.262.262,0,0,1-.112.434,1.575,1.575,0,0,0-1.111,1.8c.092,1.664,1.953,1.517,2.482,1.442a.262.262,0,0,1,.233.082c.454.5,2.5,2.637,4.716,2.895a.265.265,0,0,0,.278-.35l-.959-2.786a.264.264,0,0,1,.143-.327Z" transform="translate(-322.68 -879.231)" fill="url(#linear-gradient-34)"/>
        <path id="Trazado_213907" data-name="Trazado 213907" d="M352.487,933.1s-2.408-1.652-2.584-.261,2.169,2.016,3.33,1.5Z" transform="translate(-344.729 -922.215)" fill="url(#linear-gradient-35)"/>
      </g>
    </g>
    <g id="Grupo_97510" data-name="Grupo 97510" transform="translate(400.478 228.982)">
      <path id="Trazado_213908" data-name="Trazado 213908" d="M1581.217,632.489l-35.807-1.863a4.864,4.864,0,0,0-5.175,5.074l.926,32.93a4.83,4.83,0,0,0,5.167,4.61l34-1.68a4.677,4.677,0,0,0,4.276-4.58l.829-29.5A4.708,4.708,0,0,0,1581.217,632.489Z" transform="translate(-1540.232 -630.619)" fill="#7d97f4"/>
      <g id="Grupo_97509" data-name="Grupo 97509" transform="translate(8.515 7.709)">
        <path id="Trazado_213909" data-name="Trazado 213909" d="M1598.585,698.216a13.487,13.487,0,1,1,13.487-13.487A13.5,13.5,0,0,1,1598.585,698.216Zm0-24.714a11.227,11.227,0,1,0,11.227,11.227A11.24,11.24,0,0,0,1598.585,673.5Z" transform="translate(-1585.098 -671.242)" fill="url(#linear-gradient-7)"/>
        <path id="Trazado_213910" data-name="Trazado 213910" d="M1633.9,722.567v-9.7a1.337,1.337,0,0,1,2.019-1.15l8.171,4.848a1.337,1.337,0,0,1,0,2.3l-8.171,4.848A1.337,1.337,0,0,1,1633.9,722.567Z" transform="translate(-1624.641 -703.886)" fill-rule="evenodd" fill="url(#linear-gradient-7)"/>
      </g>
    </g>
    <g id="Grupo_97512" data-name="Grupo 97512" transform="translate(470.048 182.216)">
      <path id="Trazado_213911" data-name="Trazado 213911" d="M1944.208,385.9l-32.667-1.7a4.438,4.438,0,0,0-4.721,4.629l.845,30.041a4.406,4.406,0,0,0,4.714,4.206l31.019-1.532a4.267,4.267,0,0,0,3.9-4.178l.757-26.91A4.3,4.3,0,0,0,1944.208,385.9Z" transform="translate(-1906.819 -384.191)" fill="url(#linear-gradient-38)"/>
      <g id="Grupo_97511" data-name="Grupo 97511" transform="translate(5.787 7.903)" opacity="0.76">
        <path id="Trazado_213912" data-name="Trazado 213912" d="M1963.407,448.908h-22.9a3.2,3.2,0,0,1-3.195-3.2V429.028a3.2,3.2,0,0,1,3.195-3.2h22.9a3.2,3.2,0,0,1,3.195,3.2v16.685A3.2,3.2,0,0,1,1963.407,448.908Zm-22.9-20.856a.977.977,0,0,0-.976.976v16.685a.978.978,0,0,0,.976.976h22.9a.978.978,0,0,0,.976-.976V429.028a.977.977,0,0,0-.976-.976Z" transform="translate(-1937.314 -425.833)" fill="#fff"/>
        <path id="Trazado_213913" data-name="Trazado 213913" d="M1955.022,441.677a1.107,1.107,0,0,1-.642-.2l-12.825-9.094a1.109,1.109,0,0,1,1.284-1.81l12.182,8.639,12.023-8.54a1.109,1.109,0,0,1,1.285,1.809l-12.664,9A1.11,1.11,0,0,1,1955.022,441.677Z" transform="translate(-1940.372 -429.504)" fill="#fff"/>
        <path id="Trazado_213914" data-name="Trazado 213914" d="M1943.134,476.119l-.326-2.195.153,1.1-.93-.6c.243-.391,4.865-8.475,7.912-13.813a1.109,1.109,0,0,1,1.927,1.1s-1.979,3.465-3.961,6.932c-.991,1.733-1.984,3.467-2.73,4.768C1943.67,476.034,1943.67,476.034,1943.134,476.119Z" transform="translate(-1941.136 -453.554)" fill="#fff"/>
        <path id="Trazado_213915" data-name="Trazado 213915" d="M2042.856,476.12c-.536-.085-.536-.085-2.044-2.712-.747-1.3-1.739-3.034-2.731-4.768-1.982-3.466-3.96-6.932-3.96-6.932a1.109,1.109,0,0,1,1.927-1.1c3.047,5.338,7.669,13.421,7.912,13.813l-.931.6Z" transform="translate(-2015.631 -453.555)" fill="#fff"/>
      </g>
    </g>
    <g id="Grupo_97515" data-name="Grupo 97515" transform="translate(485.556 279.993)">
      <path id="Trazado_213916" data-name="Trazado 213916" d="M2054.3,901.654c-3.671,2.447-7.035,7.953-.306,16.824,6.036,7.957,12.235,13.153,11.318,18.047s6.238,17.232,20.8,9.177c14.376-7.953,11.624-23.247-5.812-29.059C2070.093,913.24,2067.738,892.695,2054.3,901.654Z" transform="translate(-2038.442 -899.411)" fill="url(#linear-gradient-39)"/>
      <path id="Trazado_213917" data-name="Trazado 213917" d="M2005.942,1072.388s5.7,6.821,11.431,1.282l2.216,5.139s-8.375,6.485-14.728-3.718Z" transform="translate(-2001.763 -1039.561)" fill="url(#linear-gradient-40)"/>
      <path id="Trazado_213918" data-name="Trazado 213918" d="M2058.464,1003.86a10.792,10.792,0,0,1,10.563,2.692,2.712,2.712,0,0,1,.781,2.7c-1.176,4.33-4.279,17.122-1.558,22.657,0,0-4.795,5.285-10.026,1.026,0,0-2.347-10.229-5.421-14.719-2.122-3.1,3.384-11.641,4.777-13.7A1.633,1.633,0,0,1,2058.464,1003.86Z" transform="translate(-2040.218 -983.696)" fill="url(#linear-gradient-41)"/>
      <path id="Trazado_213919" data-name="Trazado 213919" d="M2084.868,962.172s3.19,6.247,3.75,9.117a5,5,0,0,1-5.082-.139,73.435,73.435,0,0,0-1.647-7.638Z" transform="translate(-2064.173 -950.261)" fill="url(#linear-gradient-42)"/>
      <g id="Grupo_97513" data-name="Grupo 97513" transform="translate(13.131 3.667)">
        <path id="Trazado_213920" data-name="Trazado 213920" d="M2059.788,935s-.594,10.5,3.824,10.65,4.847-7.321,4.847-7.321-1.3-4.718-3.408-5.268S2059.788,935,2059.788,935Z" transform="translate(-2059.375 -930.278)" fill="url(#linear-gradient-43)"/>
        <path id="Trazado_213921" data-name="Trazado 213921" d="M2059.439,920.214s-2.019,2.064-1.672,3.349,4.677-.059,5.745-.666l3.577,3.807s-.11-5.64-2.577-7.377S2059.439,920.214,2059.439,920.214Z" transform="translate(-2057.727 -918.733)" fill="url(#linear-gradient-44)"/>
        <path id="Trazado_213922" data-name="Trazado 213922" d="M2098.541,949.871s.539-3.6,2.3-2.589-.129,3.8-1.5,3.631Z" transform="translate(-2090.796 -941.718)" fill="url(#linear-gradient-45)"/>
      </g>
      <path id="Trazado_213923" data-name="Trazado 213923" d="M2045.607,1272.038c.018.464-.8,4.148-1.241,6.112a3.235,3.235,0,0,0,.348,2.321l15.366,25.862a3.511,3.511,0,0,1,.4,1.006,22.185,22.185,0,0,1,.561,6.894l-.795,1.651,3.438-.781.748-9.233-.973-.593a4.625,4.625,0,0,1-1.87-2.19c-1.389-3.375-4.84-11.967-5.729-16.154-1.01-4.758-6.295-8.623-6.295-8.623l.928-2.195Z" transform="translate(-2033.707 -1201.322)" fill="url(#linear-gradient-46)"/>
      <path id="Trazado_213924" data-name="Trazado 213924" d="M2131.249,1453.363a21,21,0,0,1-2.075-4.089c-.218-1.146-.826-3.169-1.971-2.56a67.256,67.256,0,0,0-.353,7.74c.186,2.175-2.458,2.1-2.458,2.1a2.469,2.469,0,0,0-1.262.636.619.619,0,0,0,.415,1.041,14.882,14.882,0,0,0,3.683-.208,1.127,1.127,0,0,0,.909-1.039l.381-6.406,2.342,2.957Z" transform="translate(-2097.447 -1342.758)" fill="url(#linear-gradient-47)"/>
      <path id="Trazado_213925" data-name="Trazado 213925" d="M2085.966,1291.087s.542,23.134.615,26.419-.519,10.567-3.812,12.743l1.433,1.061a19.151,19.151,0,0,0,3.541-4.452,27.031,27.031,0,0,1,2.56-3.893l-.652-1.336a2.936,2.936,0,0,1-.238-1.884c.71-3.445,3.085-14.9,3.733-17.371a11.115,11.115,0,0,0-1.841-10.059C2088.645,1289.06,2085.966,1291.087,2085.966,1291.087Z" transform="translate(-2064.886 -1216.251)" fill="url(#linear-gradient-48)"/>
      <path id="Trazado_213926" data-name="Trazado 213926" d="M2082.113,1468.748a.2.2,0,0,0,.2-.173,29.878,29.878,0,0,1,.939-4.664c.427-.917,1.825-4.776,0-5.1,0,0-4.539,6.631-5.41,7.525a1.708,1.708,0,0,1-1.971.312,3.279,3.279,0,0,0-1.489,1.069.6.6,0,0,0,.474.966l3.057.029a2.151,2.151,0,0,0,2.017-1.355,11.491,11.491,0,0,1,2.54-4.19l-.56,5.36a.2.2,0,0,0,.2.225Z" transform="translate(-2057.991 -1352.646)" fill="url(#linear-gradient-49)"/>
      <path id="Trazado_213927" data-name="Trazado 213927" d="M2049.885,1143.063a10.854,10.854,0,0,1-.37,5.812l-6.565,22.926a.71.71,0,0,0,.444.864,43.8,43.8,0,0,0,17.232,2.089,1,1,0,0,0,.912-.779c.581-2.614,2.562-11.531,2.97-13.363,1.554-6.982,3.06-13.621-4.575-18.174A14.631,14.631,0,0,1,2049.885,1143.063Z" transform="translate(-2032.601 -1096.317)" fill="url(#linear-gradient-50)"/>
      <path id="Trazado_213928" data-name="Trazado 213928" d="M2051.587,1026.924s1.322,18.885-10.88,9.4a8.315,8.315,0,0,0-3.1-1.909c-.7-.111-1.491-.186-2.072-.231a.261.261,0,0,0-.171.474,3.456,3.456,0,0,0,1.445.661c.921.1-.061.77.942,2.533a1.9,1.9,0,0,0,2.434,1.1s13.981,14.317,16.772-10.653C2057.052,1023.651,2052.582,1023.9,2051.587,1026.924Z" transform="translate(-2026.384 -1000.937)" fill="url(#linear-gradient-51)"/>
      <g id="Grupo_97514" data-name="Grupo 97514" transform="translate(0 27.572)">
        <path id="Trazado_213929" data-name="Trazado 213929" d="M1988.972,1045.258l4.151-.547a1.314,1.314,0,0,1,1.312.745l2.731,6.036c.514.9.148,2.1-.683,2.236l-3.333.428a.816.816,0,0,1-.827-.508l-3.693-7.371C1988.415,1045.85,1988.594,1045.321,1988.972,1045.258Z" transform="translate(-1988.537 -1044.697)" fill="url(#linear-gradient-52)"/>
      </g>
      <path id="Trazado_213930" data-name="Trazado 213930" d="M1995.108,1065.135s-2.791-4.062-2.467-4.562,2.771-1.216,3.345-1.385S1997.642,1062.7,1995.108,1065.135Z" transform="translate(-1991.841 -1028.862)" fill="url(#linear-gradient-53)"/>
      <path id="Trazado_213931" data-name="Trazado 213931" d="M2169.418,993.926a.153.153,0,0,1-.057-.3,10.148,10.148,0,0,0,5.1-14.394c-1.985-3.539-5.79-5.516-9.47-7.429l-.443-.231c-3.979-2.072-7.856-4.54-9.279-8.534a.153.153,0,1,1,.288-.1c1.388,3.9,5.21,6.323,9.133,8.366l.443.23c3.719,1.933,7.566,3.932,9.6,7.551a10.454,10.454,0,0,1-5.254,14.828A.157.157,0,0,1,2169.418,993.926Z" transform="translate(-2123.619 -950.801)" fill="#91b3fa"/>
      <path id="Trazado_213932" data-name="Trazado 213932" d="M2207.559,1059.652a.153.153,0,0,1-.037-.3,10.567,10.567,0,0,0,6.914-5.178,7.242,7.242,0,0,0-1.049-8.213.153.153,0,0,1,.216-.217,7.554,7.554,0,0,1,1.107,8.567,10.874,10.874,0,0,1-7.112,5.337A.147.147,0,0,1,2207.559,1059.652Z" transform="translate(-2165.87 -1017.937)" fill="#91b3fa"/>
    </g>
    <g id="Grupo_97516" data-name="Grupo 97516" transform="translate(446.048 283.858)">
      <path id="Trazado_213933" data-name="Trazado 213933" d="M1802.393,920.781l-19.255-1a2.616,2.616,0,0,0-2.783,2.729l.5,17.708a2.6,2.6,0,0,0,2.779,2.479l18.284-.9a2.515,2.515,0,0,0,2.3-2.463l.446-15.862A2.532,2.532,0,0,0,1802.393,920.781Z" transform="translate(-1780.354 -919.776)" fill="url(#linear-gradient-38)"/>
      <path id="Trazado_213934" data-name="Trazado 213934" d="M1812.543,934.861H1798.93c-1.261,0-2.935,1.08-2.935,2.38v7.571c0,1.248,1.688,1.992,2.935,1.992h9.364c.323,0,.5.888.5,1.21v1.119c0,.461.459.631.686.707a.919.919,0,0,0,.521.19.655.655,0,0,0,.5-.223l2.034-2.378c1.272-.028,1.808-1.37,1.808-2.618v-7.571C1814.336,936,1813.781,934.861,1812.543,934.861Zm.514,9.951c0,.585-.041,1.139-.514,1.139h-.509l-2.39,2.5v-1.644c0-.322.18-.855-.142-.855H1798.93c-.58,0-1.656-.559-1.656-1.139v-7.259c0-.846,1.07-.986,1.656-.986h13.612c.576,0,.514.1.514.674Z" transform="translate(-1793.027 -931.998)" fill="#fff" opacity="0.76"/>
      <path id="Trazado_213935" data-name="Trazado 213935" d="M1822.7,953.268a.426.426,0,0,1-.426.427h-12.37a.426.426,0,0,1-.427-.427h0a.427.427,0,0,1,.427-.427h12.37a.427.427,0,0,1,.426.427Z" transform="translate(-1803.953 -946.566)" fill="#fff"/>
      <path id="Trazado_213936" data-name="Trazado 213936" d="M1822.7,964.506a.426.426,0,0,1-.426.427h-12.37a.427.427,0,0,1-.427-.427h0a.427.427,0,0,1,.427-.427h12.37a.426.426,0,0,1,.426.427Z" transform="translate(-1803.953 -955.671)" fill="#fff"/>
      <path id="Trazado_213937" data-name="Trazado 213937" d="M1822.7,980.239a.427.427,0,0,1-.426.427h-12.37a.427.427,0,0,1-.427-.427h0a.427.427,0,0,1,.427-.427h12.37a.427.427,0,0,1,.426.427Z" transform="translate(-1803.953 -968.418)" fill="#fff"/>
    </g>
    <g id="Grupo_97517" data-name="Grupo 97517" transform="translate(222.65 175.275)">
      <path id="Trazado_213938" data-name="Trazado 213938" d="M1752.247,370.421q.6.245,1.2.5a.853.853,0,1,1-.677,1.566q-.579-.251-1.163-.489a.853.853,0,0,1,.644-1.58Z" transform="translate(-1533.231 -366.042)" fill="#bdd0fb"/>
      <path id="Trazado_213939" data-name="Trazado 213939" d="M1690.049,857q.63-.094,1.259-.193a.853.853,0,1,1,.265,1.685q-.636.1-1.271.195a.853.853,0,1,1-.252-1.687Z" transform="translate(-1483.2 -760.169)" fill="#bdd0fb"/>
      <path id="Trazado_213940" data-name="Trazado 213940" d="M1731.077,362.687l.159.052q.538.176,1.071.362a.853.853,0,1,1-.56,1.611q-.519-.18-1.042-.351l-.154-.05a.853.853,0,0,1,.525-1.624Z" transform="translate(-1516.127 -359.793)" fill="#bdd0fb"/>
      <path id="Trazado_213941" data-name="Trazado 213941" d="M1709.4,356.548q.63.155,1.257.322a.853.853,0,1,1-.439,1.649q-.61-.163-1.222-.312a.853.853,0,1,1,.4-1.658Z" transform="translate(-1498.611 -354.833)" fill="#bdd0fb"/>
      <path id="Trazado_213942" data-name="Trazado 213942" d="M1712.216,853.252q.626-.11,1.252-.227a.853.853,0,0,1,.311,1.678q-.634.117-1.267.229a.853.853,0,0,1-.3-1.68Z" transform="translate(-1501.177 -757.098)" fill="#bdd0fb"/>
      <path id="Trazado_213943" data-name="Trazado 213943" d="M1734.272,848.888q.623-.128,1.245-.262a.853.853,0,0,1,.358,1.669q-.63.135-1.26.265a.853.853,0,0,1-.343-1.671Z" transform="translate(-1519.067 -753.53)" fill="#bdd0fb"/>
      <path id="Trazado_213944" data-name="Trazado 213944" d="M1791.455,390.672a.855.855,0,0,1,1.168-.3q.559.328,1.112.667a.852.852,0,0,1,.281,1.173.838.838,0,0,1-.133.166.853.853,0,0,1-1.04.115q-.538-.33-1.083-.649A.853.853,0,0,1,1791.455,390.672Z" transform="translate(-1565.856 -382.159)" fill="#bdd0fb"/>
      <path id="Trazado_213945" data-name="Trazado 213945" d="M1799.281,830.8q.6-.208,1.191-.425a.853.853,0,1,1,.588,1.6q-.608.223-1.219.436a.853.853,0,1,1-.56-1.612Z" transform="translate(-1571.827 -738.719)" fill="#bdd0fb"/>
      <path id="Trazado_213946" data-name="Trazado 213946" d="M1772.791,379.67q.581.288,1.157.587a.852.852,0,0,1,.362,1.151.844.844,0,0,1-.162.218.854.854,0,0,1-.989.144q-.56-.292-1.125-.571a.853.853,0,0,1,.757-1.529Z" transform="translate(-1549.831 -373.514)" fill="#bdd0fb"/>
      <path id="Trazado_213947" data-name="Trazado 213947" d="M1756.191,843.83q.617-.149,1.233-.306a.853.853,0,0,1,.421,1.654q-.626.159-1.253.31a.853.853,0,1,1-.4-1.658Z" transform="translate(-1536.85 -749.39)" fill="#bdd0fb"/>
      <path id="Trazado_213948" data-name="Trazado 213948" d="M1777.9,837.861q.608-.175,1.214-.361a.853.853,0,0,1,.5,1.632q-.618.188-1.24.368a.853.853,0,0,1-.473-1.64Z" transform="translate(-1554.465 -744.501)" fill="#bdd0fb"/>
      <path id="Trazado_213949" data-name="Trazado 213949" d="M1642.509,347.654q.649.017,1.3.048a.853.853,0,1,1-.082,1.7q-.631-.03-1.261-.047a.853.853,0,1,1,.046-1.705Z" transform="translate(-1444.561 -347.646)" fill="#bdd0fb"/>
      <path id="Trazado_213950" data-name="Trazado 213950" d="M1597.513,349q.645-.071,1.291-.13a.853.853,0,1,1,.154,1.7q-.628.057-1.256.127a.853.853,0,1,1-.188-1.7Z" transform="translate(-1408.199 -348.627)" fill="#bdd0fb"/>
      <path id="Trazado_213951" data-name="Trazado 213951" d="M1600.725,866.532q.635-.037,1.272-.077a.853.853,0,0,1,.108,1.7q-.641.04-1.281.077a.853.853,0,1,1-.1-1.7Z" transform="translate(-1410.765 -767.989)" fill="#bdd0fb"/>
      <path id="Trazado_213952" data-name="Trazado 213952" d="M1578.293,867.709q.637-.025,1.273-.053a.853.853,0,0,1,.075,1.7q-.641.028-1.283.053a.853.853,0,1,1-.066-1.7Z" transform="translate(-1392.577 -768.964)" fill="#bdd0fb"/>
      <path id="Trazado_213953" data-name="Trazado 213953" d="M1619.978,347.655q.648-.026,1.3-.041a.853.853,0,1,1,.036,1.706q-.632.014-1.262.04a.853.853,0,1,1-.071-1.7Z" transform="translate(-1426.353 -347.614)" fill="#bdd0fb"/>
      <path id="Trazado_213954" data-name="Trazado 213954" d="M1575.221,351.884q.638-.116,1.278-.218a.853.853,0,1,1,.271,1.684q-.623.1-1.245.213a.853.853,0,1,1-.3-1.679Z" transform="translate(-1390.185 -350.888)" fill="#bdd0fb"/>
      <path id="Trazado_213955" data-name="Trazado 213955" d="M1555.852,868.474q.637-.013,1.273-.031a.853.853,0,1,1,.046,1.706q-.642.017-1.284.03a.853.853,0,1,1-.035-1.705Z" transform="translate(-1374.383 -769.602)" fill="#bdd0fb"/>
      <path id="Trazado_213956" data-name="Trazado 213956" d="M1623.126,864.908q.634-.049,1.269-.1a.853.853,0,1,1,.143,1.7q-.641.054-1.281.1a.853.853,0,0,1-.132-1.7Z" transform="translate(-1428.929 -766.651)" fill="#bdd0fb"/>
      <path id="Trazado_213957" data-name="Trazado 213957" d="M1667.8,860.178q.632-.079,1.264-.161a.853.853,0,1,1,.221,1.692q-.637.083-1.274.162a.853.853,0,1,1-.211-1.693Z" transform="translate(-1465.159 -762.768)" fill="#bdd0fb"/>
      <path id="Trazado_213958" data-name="Trazado 213958" d="M1665,349.041q.647.062,1.291.139a.853.853,0,1,1-.2,1.694q-.627-.074-1.255-.135a.853.853,0,1,1,.164-1.7Z" transform="translate(-1462.734 -348.767)" fill="#bdd0fb"/>
      <path id="Trazado_213959" data-name="Trazado 213959" d="M1645.49,862.8q.634-.063,1.267-.131a.853.853,0,1,1,.182,1.7q-.639.069-1.278.133a.853.853,0,1,1-.171-1.7Z" transform="translate(-1447.064 -764.92)" fill="#bdd0fb"/>
      <path id="Trazado_213960" data-name="Trazado 213960" d="M1810.466,402.649a.851.851,0,0,1,1.186-.223q.536.366,1.063.743a.853.853,0,0,1,.2,1.19.839.839,0,0,1-.1.117.853.853,0,0,1-1.09.082q-.513-.367-1.034-.723A.854.854,0,0,1,1810.466,402.649Z" transform="translate(-1581.233 -391.903)" fill="#bdd0fb"/>
      <path id="Trazado_213961" data-name="Trazado 213961" d="M1687.333,352q.64.108,1.277.23a.853.853,0,1,1-.32,1.676q-.619-.118-1.241-.223a.853.853,0,1,1,.284-1.682Z" transform="translate(-1480.782 -351.16)" fill="#bdd0fb"/>
      <path id="Trazado_213962" data-name="Trazado 213962" d="M1895.839,771.551a.853.853,0,1,1,1.253,1.158q-.446.482-.908.946l-.01.01a.853.853,0,0,1-1.2-1.214Q1895.415,772.009,1895.839,771.551Z" transform="translate(-1649.623 -690.875)" fill="#bdd0fb"/>
      <path id="Trazado_213963" data-name="Trazado 213963" d="M1943.988,606.173a.853.853,0,0,1-.96-.73q-.084-.623-.186-1.245a.853.853,0,1,1,1.684-.274q.1.643.192,1.288a.853.853,0,0,1-.731.96Z" transform="translate(-1688.599 -554.702)" fill="#bdd0fb"/>
      <path id="Trazado_213964" data-name="Trazado 213964" d="M1946.437,628.515a.853.853,0,0,1-.891-.813q-.029-.627-.075-1.255a.853.853,0,1,1,1.7-.124q.047.651.078,1.3a.854.854,0,0,1-.814.891Z" transform="translate(-1690.736 -572.788)" fill="#bdd0fb"/>
      <path id="Trazado_213965" data-name="Trazado 213965" d="M1939.629,584.129a.853.853,0,0,1-1.019-.645q-.138-.614-.291-1.226a.853.853,0,1,1,1.655-.414q.158.631.3,1.265a.853.853,0,0,1-.646,1.019Z" transform="translate(-1684.922 -536.869)" fill="#bdd0fb"/>
      <path id="Trazado_213966" data-name="Trazado 213966" d="M1946.654,650.988a.853.853,0,0,1-.809-.894q.031-.626.043-1.255a.853.853,0,0,1,1.706.035q-.013.654-.045,1.306a.853.853,0,0,1-.894.809Z" transform="translate(-1691.039 -590.996)" fill="#bdd0fb"/>
      <path id="Trazado_213967" data-name="Trazado 213967" d="M1944.314,673.393a.852.852,0,0,1-.714-.972q.1-.619.171-1.243a.853.853,0,1,1,1.694.206q-.079.65-.179,1.3a.852.852,0,0,1-.973.713Z" transform="translate(-1689.214 -609.165)" fill="#bdd0fb"/>
      <path id="Trazado_213968" data-name="Trazado 213968" d="M1892.536,482.868a.853.853,0,0,1-1.187-.217q-.359-.519-.729-1.029a.853.853,0,1,1,1.382-1q.38.525.75,1.06a.854.854,0,0,1-.107,1.1A.88.88,0,0,1,1892.536,482.868Z" transform="translate(-1646.166 -455.094)" fill="#bdd0fb"/>
      <path id="Trazado_213969" data-name="Trazado 213969" d="M1904.929,501.608a.853.853,0,0,1-1.168-.3q-.321-.543-.654-1.079a.853.853,0,1,1,1.45-.9q.342.551.672,1.11a.853.853,0,0,1-.14,1.046A.844.844,0,0,1,1904.929,501.608Z" transform="translate(-1656.31 -470.211)" fill="#bdd0fb"/>
      <path id="Trazado_213970" data-name="Trazado 213970" d="M1933.447,562.528a.853.853,0,0,1-1.068-.561q-.187-.6-.39-1.194a.853.853,0,0,1,1.615-.55q.209.615.4,1.237a.853.853,0,0,1-.561,1.068Z" transform="translate(-1679.777 -519.407)" fill="#bdd0fb"/>
      <path id="Trazado_213971" data-name="Trazado 213971" d="M1820.221,822.469q.582-.245,1.157-.5a.853.853,0,1,1,.695,1.558q-.591.264-1.189.515a.853.853,0,0,1-.663-1.572Z" transform="translate(-1588.835 -731.886)" fill="#bdd0fb"/>
      <path id="Trazado_213972" data-name="Trazado 213972" d="M1915.953,521.19a.853.853,0,0,1-1.144-.383q-.282-.564-.574-1.123a.853.853,0,0,1,1.51-.793q.3.574.591,1.156a.851.851,0,0,1-.383,1.144Z" transform="translate(-1665.35 -486.016)" fill="#bdd0fb"/>
      <path id="Trazado_213973" data-name="Trazado 213973" d="M1925.513,541.521a.853.853,0,0,1-1.111-.47q-.176-.433-.358-.86l-.129-.3a.853.853,0,0,1,1.565-.679l.132.306q.189.443.371.891a.853.853,0,0,1-.47,1.111Z" transform="translate(-1673.215 -502.435)" fill="#bdd0fb"/>
      <path id="Trazado_213974" data-name="Trazado 213974" d="M1938.975,694.427q.164-.6.307-1.212a.853.853,0,0,1,1.661.39q-.15.638-.322,1.27a.853.853,0,1,1-1.646-.449Z" transform="translate(-1685.45 -627.094)" fill="#bdd0fb"/>
      <path id="Trazado_213975" data-name="Trazado 213975" d="M1859.984,801.146q.53-.336,1.05-.686a.853.853,0,0,1,1.072,1.319.835.835,0,0,1-.118.1q-.539.364-1.091.713a.853.853,0,1,1-.912-1.442Z" transform="translate(-1621.153 -714.402)" fill="#bdd0fb"/>
      <path id="Trazado_213976" data-name="Trazado 213976" d="M1863.976,448.207a.853.853,0,0,1-1.205-.049q-.428-.464-.865-.92a.853.853,0,0,1,.021-1.2l0,0a.853.853,0,0,1,1.206.025q.449.468.888.945a.853.853,0,0,1-.033,1.19Z" transform="translate(-1622.839 -427.161)" fill="#bdd0fb"/>
      <path id="Trazado_213977" data-name="Trazado 213977" d="M1845.841,431.608a.853.853,0,0,1,1.147-1.263q.48.436.951.882a.853.853,0,0,1,.033,1.206l-.025.026a.853.853,0,0,1-1.18.007Q1846.308,432.033,1845.841,431.608Z" transform="translate(-1609.789 -414.465)" fill="#bdd0fb"/>
      <path id="Trazado_213978" data-name="Trazado 213978" d="M1828.6,415.922a.855.855,0,0,1,1.2-.14q.509.4,1.01.814a.854.854,0,0,1,.115,1.2q-.031.037-.065.07a.853.853,0,0,1-1.136.045q-.487-.4-.982-.792A.853.853,0,0,1,1828.6,415.922Z" transform="translate(-1595.9 -402.696)" fill="#bdd0fb"/>
      <path id="Trazado_213979" data-name="Trazado 213979" d="M1840.531,812.649q.56-.288,1.111-.588a.853.853,0,0,1,1,1.361.863.863,0,0,1-.186.137q-.57.311-1.149.608a.853.853,0,1,1-.78-1.518Z" transform="translate(-1605.337 -723.835)" fill="#bdd0fb"/>
      <path id="Trazado_213980" data-name="Trazado 213980" d="M1922.075,736.2q.308-.54.593-1.091a.853.853,0,1,1,1.515.785q-.3.581-.627,1.152a.867.867,0,0,1-.146.189.853.853,0,0,1-1.335-1.036Z" transform="translate(-1671.691 -661.199)" fill="#bdd0fb"/>
      <path id="Trazado_213981" data-name="Trazado 213981" d="M1931.828,715.81q.235-.577.449-1.163a.853.853,0,1,1,1.6.584q-.225.617-.473,1.223a.853.853,0,1,1-1.579-.645Z" transform="translate(-1679.632 -644.538)" fill="#bdd0fb"/>
      <path id="Trazado_213982" data-name="Trazado 213982" d="M1878.165,462.838q.416.5.822,1a.854.854,0,0,1-.072,1.145c-.019.019-.04.037-.062.055a.854.854,0,0,1-1.2-.133q-.395-.493-.8-.977a.853.853,0,0,1,1.31-1.093Z" transform="translate(-1634.983 -440.723)" fill="#bdd0fb"/>
      <path id="Trazado_213983" data-name="Trazado 213983" d="M1909.949,754.887q.259-.346.506-.7a.853.853,0,0,1,1.395.983q-.263.372-.536.738l-.242.319a.864.864,0,0,1-.084.094.853.853,0,0,1-1.271-1.131Z" transform="translate(-1661.627 -676.738)" fill="#bdd0fb"/>
      <path id="Trazado_213984" data-name="Trazado 213984" d="M1878.252,787.782q.491-.388.968-.791a.853.853,0,0,1,1.146,1.262l-.044.04q-.5.422-1.013.828a.853.853,0,0,1-1.057-1.339Z" transform="translate(-1636.011 -703.443)" fill="#bdd0fb"/>
      <path id="Trazado_213985" data-name="Trazado 213985" d="M1553.2,356.3q.629-.159,1.261-.306a.853.853,0,0,1,.384,1.662q-.615.142-1.226.3a.853.853,0,0,1-.419-1.654Z" transform="translate(-1372.394 -354.384)" fill="#bdd0fb"/>
      <path id="Trazado_213986" data-name="Trazado 213986" d="M949.8,856.381q.638-.079,1.275-.154a.853.853,0,1,1,.2,1.694q-.631.074-1.263.153a.853.853,0,1,1-.211-1.693Z" transform="translate(-883.418 -759.699)" fill="#bdd0fb"/>
      <path id="Trazado_213987" data-name="Trazado 213987" d="M927.524,859.323q.636-.1,1.272-.188a.853.853,0,1,1,.243,1.689q-.63.09-1.258.186a.853.853,0,0,1-.256-1.687Z" transform="translate(-865.387 -762.053)" fill="#bdd0fb"/>
      <path id="Trazado_213988" data-name="Trazado 213988" d="M883.253,867q.629-.132,1.261-.258a.853.853,0,0,1,.335,1.673q-.623.124-1.246.255a.853.853,0,0,1-.35-1.67Z" transform="translate(-829.555 -768.21)" fill="#bdd0fb"/>
      <path id="Trazado_213989" data-name="Trazado 213989" d="M905.337,862.857q.633-.114,1.267-.223a.853.853,0,0,1,.287,1.682q-.627.107-1.253.22a.853.853,0,0,1-.3-1.679Z" transform="translate(-847.428 -764.885)" fill="#bdd0fb"/>
      <path id="Trazado_213990" data-name="Trazado 213990" d="M861.3,871.773q.626-.15,1.253-.295a.853.853,0,1,1,.383,1.662q-.62.143-1.239.291a.853.853,0,1,1-.4-1.659Z" transform="translate(-811.785 -772.043)" fill="#bdd0fb"/>
      <path id="Trazado_213991" data-name="Trazado 213991" d="M1533.4,868.859l1.275-.01a.853.853,0,0,1,.016,1.706l-1.282.01a.853.853,0,1,1-.009-1.706Z" transform="translate(-1356.178 -769.93)" fill="#bdd0fb"/>
      <path id="Trazado_213992" data-name="Trazado 213992" d="M839.491,877.2q.621-.17,1.245-.333a.853.853,0,1,1,.433,1.65q-.616.162-1.229.329a.853.853,0,0,1-.449-1.646Z" transform="translate(-794.138 -776.401)" fill="#bdd0fb"/>
      <path id="Trazado_213993" data-name="Trazado 213993" d="M1039.445,849.691q.642-.025,1.283-.046a.853.853,0,1,1,.057,1.7l-1.275.046a.853.853,0,1,1-.066-1.7Z" transform="translate(-955.99 -754.37)" fill="#bdd0fb"/>
      <path id="Trazado_213994" data-name="Trazado 213994" d="M972.146,853.991q.639-.064,1.278-.125a.853.853,0,0,1,.16,1.7q-.634.059-1.268.124a.853.853,0,1,1-.171-1.7Z" transform="translate(-901.505 -757.788)" fill="#bdd0fb"/>
      <path id="Trazado_213995" data-name="Trazado 213995" d="M1061.925,849.1q.642-.015,1.283-.025a.853.853,0,1,1,.029,1.706l-1.275.025a.853.853,0,1,1-.037-1.706Z" transform="translate(-974.193 -753.913)" fill="#bdd0fb"/>
      <path id="Trazado_213996" data-name="Trazado 213996" d="M1016.981,850.676q.641-.038,1.282-.071a.853.853,0,0,1,.089,1.7q-.637.033-1.273.07a.853.853,0,0,1-.1-1.7Z" transform="translate(-937.803 -755.148)" fill="#bdd0fb"/>
      <path id="Trazado_213997" data-name="Trazado 213997" d="M994.542,852.1q.64-.05,1.281-.1a.853.853,0,0,1,.123,1.7q-.636.046-1.271.1a.853.853,0,0,1-.133-1.7Z" transform="translate(-919.636 -756.278)" fill="#bdd0fb"/>
      <path id="Trazado_213998" data-name="Trazado 213998" d="M655.894,958.913q.53-.37,1.063-.731a.853.853,0,0,1,1.074,1.317.868.868,0,0,1-.116.094q-.525.356-1.045.719a.853.853,0,1,1-.976-1.4Z" transform="translate(-645.597 -842.191)" fill="#bdd0fb"/>
      <path id="Trazado_213999" data-name="Trazado 213999" d="M1084.41,848.881l1.284,0a.853.853,0,0,1,0,1.706q-.639,0-1.276,0a.853.853,0,0,1-.01-1.707Z" transform="translate(-992.399 -753.749)" fill="#bdd0fb"/>
      <path id="Trazado_214000" data-name="Trazado 214000" d="M637.744,972.017q.511-.393,1.027-.779a.853.853,0,1,1,1.022,1.366q-.508.38-1.01.766a.853.853,0,0,1-1.039-1.353Z" transform="translate(-630.917 -852.75)" fill="#bdd0fb"/>
      <path id="Trazado_214001" data-name="Trazado 214001" d="M603.467,1000.748q.471-.443.948-.877a.853.853,0,0,1,1.169,1.242l-.02.019q-.467.426-.93.86a.853.853,0,1,1-1.168-1.244Z" transform="translate(-603.195 -875.906)" fill="#bdd0fb"/>
      <path id="Trazado_214002" data-name="Trazado 214002" d="M674.639,946.655q.545-.345,1.095-.683a.853.853,0,0,1,.894,1.453q-.54.332-1.076.671a.853.853,0,1,1-.912-1.442Z" transform="translate(-660.758 -832.315)" fill="#bdd0fb"/>
      <path id="Trazado_214003" data-name="Trazado 214003" d="M620.254,985.963q.492-.418.99-.829a.853.853,0,0,1,1.138,1.269c-.016.016-.034.032-.052.047q-.488.4-.97.812a.853.853,0,0,1-1.1-1.3Z" transform="translate(-616.773 -863.99)" fill="#bdd0fb"/>
      <path id="Trazado_214004" data-name="Trazado 214004" d="M733.856,914.832q.584-.274,1.171-.542a.853.853,0,1,1,.709,1.552q-.578.264-1.153.535a.853.853,0,1,1-.726-1.544Z" transform="translate(-708.662 -806.685)" fill="#bdd0fb"/>
      <path id="Trazado_214005" data-name="Trazado 214005" d="M775.293,897.576q.6-.231,1.207-.455a.853.853,0,1,1,.593,1.6q-.6.221-1.19.448a.853.853,0,1,1-.61-1.593Z" transform="translate(-742.188 -792.794)" fill="#bdd0fb"/>
      <path id="Trazado_214006" data-name="Trazado 214006" d="M754.413,905.824q.593-.253,1.19-.5a.853.853,0,1,1,.65,1.577q-.588.242-1.172.491a.853.853,0,0,1-.667-1.57Z" transform="translate(-725.294 -799.432)" fill="#bdd0fb"/>
      <path id="Trazado_214007" data-name="Trazado 214007" d="M713.675,924.626q.572-.3,1.149-.589a.853.853,0,1,1,.769,1.524q-.567.286-1.13.579a.853.853,0,0,1-.788-1.513Z" transform="translate(-692.337 -814.57)" fill="#bdd0fb"/>
      <path id="Trazado_214008" data-name="Trazado 214008" d="M693.918,935.23q.56-.322,1.123-.636a.853.853,0,1,1,.831,1.49q-.555.309-1.105.625a.853.853,0,1,1-.849-1.479Z" transform="translate(-676.354 -823.111)" fill="#bdd0fb"/>
      <path id="Trazado_214009" data-name="Trazado 214009" d="M796.458,890.074q.609-.209,1.221-.413a.853.853,0,1,1,.538,1.619q-.6.2-1.2.407a.853.853,0,1,1-.554-1.613Z" transform="translate(-759.315 -786.758)" fill="#bdd0fb"/>
      <path id="Trazado_214010" data-name="Trazado 214010" d="M817.87,883.285q.616-.189,1.234-.372a.853.853,0,1,1,.484,1.636q-.61.181-1.218.367a.853.853,0,0,1-.5-1.632Z" transform="translate(-776.641 -781.298)" fill="#bdd0fb"/>
      <path id="Trazado_214011" data-name="Trazado 214011" d="M1443.567,867.07l1.277.052a.853.853,0,0,1-.068,1.705l-1.281-.052a.853.853,0,1,1,.072-1.705Z" transform="translate(-1283.363 -768.488)" fill="#bdd0fb"/>
      <path id="Trazado_214012" data-name="Trazado 214012" d="M1466.017,867.917l1.277.04a.853.853,0,1,1-.051,1.705l-1.281-.04a.853.853,0,1,1,.055-1.705Z" transform="translate(-1301.56 -769.175)" fill="#bdd0fb"/>
      <path id="Trazado_214013" data-name="Trazado 214013" d="M1376.241,863.453l1.278.079a.853.853,0,0,1-.1,1.7l-1.279-.079a.853.853,0,1,1,.106-1.7Z" transform="translate(-1228.801 -765.557)" fill="#bdd0fb"/>
      <path id="Trazado_214014" data-name="Trazado 214014" d="M1469.8,390.162a.851.851,0,0,1,.3-1.168q.559-.332,1.125-.65a.853.853,0,1,1,.837,1.486q-.549.309-1.092.631A.852.852,0,0,1,1469.8,390.162Z" transform="translate(-1305.244 -380.525)" fill="#bdd0fb"/>
      <path id="Trazado_214015" data-name="Trazado 214015" d="M1398.677,864.806l1.277.072a.853.853,0,0,1-.094,1.7l-1.28-.072a.853.853,0,1,1,.1-1.7Z" transform="translate(-1246.982 -766.654)" fill="#bdd0fb"/>
      <path id="Trazado_214016" data-name="Trazado 214016" d="M1421.125,866.022l1.276.064a.853.853,0,1,1-.083,1.7l-1.28-.064a.853.853,0,1,1,.087-1.7Z" transform="translate(-1265.174 -767.639)" fill="#bdd0fb"/>
      <path id="Trazado_214017" data-name="Trazado 214017" d="M1531.567,362.225q.617-.2,1.236-.392a.853.853,0,0,1,.843,1.428.842.842,0,0,1-.344.2q-.6.185-1.2.382a.853.853,0,1,1-.533-1.621Z" transform="translate(-1354.908 -359.104)" fill="#bdd0fb"/>
      <path id="Trazado_214018" data-name="Trazado 214018" d="M1510.938,868.864q.638.006,1.275.008a.853.853,0,1,1-.007,1.706l-1.283-.009a.853.853,0,0,1,.016-1.706Z" transform="translate(-1337.971 -769.943)" fill="#bdd0fb"/>
      <path id="Trazado_214019" data-name="Trazado 214019" d="M1510.432,369.663q.6-.246,1.206-.479a.853.853,0,1,1,.614,1.592q-.589.227-1.173.466a.853.853,0,1,1-.646-1.579Z" transform="translate(-1337.829 -365.044)" fill="#bdd0fb"/>
      <path id="Trazado_214020" data-name="Trazado 214020" d="M1488.477,868.525l1.275.025a.853.853,0,1,1-.03,1.706q-.642-.011-1.283-.025a.853.853,0,0,1,.037-1.706Z" transform="translate(-1319.765 -769.668)" fill="#bdd0fb"/>
      <path id="Trazado_214021" data-name="Trazado 214021" d="M1491.8,379.568q-.571.269-1.136.549a.853.853,0,1,1-.759-1.528q.581-.288,1.169-.565a.853.853,0,1,1,.726,1.544Z" transform="translate(-1321.242 -372.187)" fill="#bdd0fb"/>
      <path id="Trazado_214022" data-name="Trazado 214022" d="M1106.9,848.935l1.283.014a.853.853,0,1,1-.021,1.706l-1.277-.014a.853.853,0,1,1,.016-1.706Z" transform="translate(-1010.614 -753.796)" fill="#bdd0fb"/>
      <path id="Trazado_214023" data-name="Trazado 214023" d="M1219.254,853.011l1.28.074a.853.853,0,0,1-.1,1.7l-1.275-.074a.853.853,0,1,1,.1-1.7Z" transform="translate(-1101.61 -757.097)" fill="#bdd0fb"/>
      <path id="Trazado_214024" data-name="Trazado 214024" d="M1174.341,850.736l1.281.057a.853.853,0,0,1-.076,1.7l-1.277-.056a.853.853,0,0,1,.072-1.705Z" transform="translate(-1065.23 -755.254)" fill="#bdd0fb"/>
      <path id="Trazado_214025" data-name="Trazado 214025" d="M1196.8,851.789l1.279.067a.853.853,0,0,1-.09,1.7l-1.277-.066a.853.853,0,1,1,.087-1.7Z" transform="translate(-1083.423 -756.108)" fill="#bdd0fb"/>
      <path id="Trazado_214026" data-name="Trazado 214026" d="M1353.811,861.995l1.276.085a.853.853,0,1,1-.112,1.7l-1.278-.085a.853.853,0,1,1,.115-1.7Z" transform="translate(-1210.624 -764.375)" fill="#bdd0fb"/>
      <path id="Trazado_214027" data-name="Trazado 214027" d="M1151.873,849.887l1.28.044a.853.853,0,0,1-.06,1.705l-1.278-.044a.853.853,0,0,1,.058-1.705Z" transform="translate(-1047.032 -754.566)" fill="#bdd0fb"/>
      <path id="Trazado_214028" data-name="Trazado 214028" d="M1129.39,849.278l1.283.03a.853.853,0,0,1-.043,1.706l-1.277-.03a.853.853,0,0,1,.037-1.706Z" transform="translate(-1028.824 -754.074)" fill="#bdd0fb"/>
      <path id="Trazado_214029" data-name="Trazado 214029" d="M1241.7,854.367l1.278.081a.853.853,0,1,1-.11,1.7l-1.276-.082a.853.853,0,1,1,.107-1.7Z" transform="translate(-1119.789 -758.195)" fill="#bdd0fb"/>
      <path id="Trazado_214030" data-name="Trazado 214030" d="M1308.974,858.905l1.277.089a.853.853,0,0,1-.119,1.7l-1.276-.089a.853.853,0,1,1,.118-1.7Z" transform="translate(-1174.294 -761.872)" fill="#bdd0fb"/>
      <path id="Trazado_214031" data-name="Trazado 214031" d="M1331.393,860.463l1.276.088a.853.853,0,1,1-.117,1.7l-1.277-.088a.853.853,0,1,1,.118-1.7Z" transform="translate(-1192.459 -763.134)" fill="#bdd0fb"/>
      <path id="Trazado_214032" data-name="Trazado 214032" d="M1264.128,855.823l1.278.086a.853.853,0,0,1-.115,1.7l-1.276-.086a.853.853,0,0,1,.113-1.7Z" transform="translate(-1137.961 -759.375)" fill="#bdd0fb"/>
      <path id="Trazado_214033" data-name="Trazado 214033" d="M1286.556,857.344l1.276.088a.853.853,0,1,1-.118,1.7l-1.277-.088a.853.853,0,0,1,.119-1.7Z" transform="translate(-1156.13 -760.607)" fill="#bdd0fb"/>
    </g>
    <g id="Grupo_97523" data-name="Grupo 97523" transform="translate(376.775 271.424)">
      <g id="Grupo_97519" data-name="Grupo 97519" transform="translate(0 0)">
        <path id="Trazado_214034" data-name="Trazado 214034" d="M1480.538,1476.4a.731.731,0,0,1,.02-.192c.955-3.787,4.861-5.728,4.861-5.728l1.879.147c1.08,3.338,1.777,4.968,1.6,5.88,0,.025-.013.05-.019.075A44.589,44.589,0,0,1,1480.538,1476.4Z" transform="translate(-1468.164 -1353.532)" fill="url(#linear-gradient-55)"/>
        <path id="Trazado_214035" data-name="Trazado 214035" d="M1488.882,1501.852a.815.815,0,0,1-.6.6,25.776,25.776,0,0,1-7.18-.1.684.684,0,0,1-.567-.682A44.578,44.578,0,0,0,1488.882,1501.852Z" transform="translate(-1468.164 -1378.807)" fill="url(#linear-gradient-56)"/>
        <path id="Trazado_214036" data-name="Trazado 214036" d="M1498.105,1455.071l.823,3.96a.648.648,0,0,0,.553.533,5.488,5.488,0,0,0,1.274-.021.814.814,0,0,0,.645-.956l-.572-3.516Z" transform="translate(-1482.397 -1341.05)" fill="url(#linear-gradient-57)"/>
        <path id="Trazado_214037" data-name="Trazado 214037" d="M1593.329,1500.268a10.854,10.854,0,0,1-3.581-.512c0,.2,0,.4.006.613a.4.4,0,0,0,.378.4l11.017-.071a.5.5,0,0,0,.4-.733C1600.11,1500.088,1596.431,1500.355,1593.329,1500.268Z" transform="translate(-1556.648 -1377.255)" fill="url(#linear-gradient-58)"/>
        <path id="Trazado_214038" data-name="Trazado 214038" d="M1601.556,1477.829a.508.508,0,0,0-.043-.083,14.04,14.04,0,0,0-8.348-5.241l-2.349-.074a11.273,11.273,0,0,0-1.066,5.186,10.853,10.853,0,0,0,3.581.512C1596.433,1478.215,1600.112,1477.948,1601.556,1477.829Z" transform="translate(-1556.65 -1355.116)" fill="url(#linear-gradient-59)"/>
        <path id="Trazado_214039" data-name="Trazado 214039" d="M1593.07,1451.239c.026.175.348,2.836.473,3.868a.511.511,0,0,0,.431.462,5.373,5.373,0,0,0,1.614-.025.7.7,0,0,0,.527-.7v-4.177Z" transform="translate(-1559.34 -1337.484)" fill="url(#linear-gradient-60)"/>
        <path id="Trazado_214040" data-name="Trazado 214040" d="M1496.547,1181.068s-3.759,33.414-1.671,54.3a16.164,16.164,0,0,0,3.759-.417s3.906-32.67,5.17-42.018a.314.314,0,0,1,.62-.02c1.559,7.865,7.683,38.707,8.411,41.62a5.207,5.207,0,0,0,3.759,0s-3.341-44.69-5.847-52.626Z" transform="translate(-1479.269 -1119.047)" fill="url(#linear-gradient-61)"/>
        <path id="Trazado_214041" data-name="Trazado 214041" d="M1466.525,972.54s15.871-2.506,28.4.835l-.835,12.948s-3.341,17.96-5.847,25.9c0,0-9.606,1.671-14.2-.835,0,0-3.759-22.554-5.847-25.9C1468.2,985.488,1466.108,976.717,1466.525,972.54Z" transform="translate(-1456.766 -949.362)" fill="url(#linear-gradient-62)"/>
        <path id="Trazado_214042" data-name="Trazado 214042" d="M1518.109,916.255l-1.581,10.692s4.417,2.029,7.51-.087l-.666-7.546Z" transform="translate(-1497.323 -904.489)" fill="url(#linear-gradient-63)"/>
        <path id="Trazado_214043" data-name="Trazado 214043" d="M1425.093,976.392s-24.642,26.731,4.385,36.963v-2.088s-10.859-9.189-2.506-21.719C1426.973,989.549,1425.929,977.645,1425.093,976.392Z" transform="translate(-1415.333 -953.214)" fill="url(#linear-gradient-64)"/>
        <path id="Trazado_214044" data-name="Trazado 214044" d="M1488.742,1153.4s3.759-2.506,5.43-1.671a2.583,2.583,0,0,1,1.671,2.088s-.835,1.671-2.089,1.253-4.177.418-5.429,0C1488.324,1155.071,1487.906,1153.4,1488.742,1153.4Z" transform="translate(-1474.387 -1095.139)" fill="url(#linear-gradient-65)"/>
        <path id="Trazado_214045" data-name="Trazado 214045" d="M1602.152,980.793s25.686,25.9-3.342,36.128v-2.088s10.859-9.189,2.506-21.719C1601.316,993.114,1600.481,982.882,1602.152,980.793Z" transform="translate(-1563.99 -956.78)" fill="url(#linear-gradient-66)"/>
        <path id="Trazado_214046" data-name="Trazado 214046" d="M1567.4,1153.4s-3.759-2.506-5.429-1.671a2.583,2.583,0,0,0-1.671,2.088s.835,1.671,2.088,1.253,4.177.418,5.43,0C1567.815,1155.071,1568.233,1153.4,1567.4,1153.4Z" transform="translate(-1532.786 -1095.139)" fill="url(#linear-gradient-67)"/>
        <g id="Grupo_97518" data-name="Grupo 97518" transform="translate(16.635)">
          <path id="Trazado_214047" data-name="Trazado 214047" d="M1524.136,873.435c.107.1,4.509,8.744,4.509,8.744l-4.989,2.409-5.389-7.573S1522.348,871.751,1524.136,873.435Z" transform="translate(-1515.368 -869.526)" fill="url(#linear-gradient-68)"/>
          <path id="Trazado_214048" data-name="Trazado 214048" d="M1508.1,861.956a.8.8,0,0,0,.06.7l2.488,4.148a.771.771,0,0,0,.136.17,1.306,1.306,0,0,0,2.093-.014,7.014,7.014,0,0,1,1.966-2.125.8.8,0,0,1,1.073.353,29.72,29.72,0,0,1,1.7,4.039.792.792,0,0,1-.461.971,22.074,22.074,0,0,1-4.779,1.394.8.8,0,0,1-.752-.32c-.762-1.044-2.911-3.962-3.644-4.693-.681-.679-1.939-.423-2.505-.26a.8.8,0,0,1-.636-.084,1.753,1.753,0,0,1-.66-2.668.8.8,0,0,0-.246-1.082,1.761,1.761,0,0,1-.675-2.5,2.482,2.482,0,0,1,2.688-1.316.826.826,0,0,0,.867-.482.526.526,0,0,1,.411-.323.773.773,0,0,0,.625-.907,2.038,2.038,0,0,1,1.138-2.335c2.153-1.183,4.038.745,4.518,2.373s-1.927,2.778-3.441,2.97C1508.952,860.108,1508.342,861.322,1508.1,861.956Z" transform="translate(-1502.99 -854.258)" fill="url(#linear-gradient-69)"/>
          <path id="Trazado_214049" data-name="Trazado 214049" d="M1518.705,915.675s-.958-2.8-2.183-2.7-2.189,1.323-.671,2.7C1517.74,917.38,1518.705,915.675,1518.705,915.675Z" transform="translate(-1512.78 -901.832)" fill="url(#linear-gradient-70)"/>
        </g>
      </g>
      <path id="Trazado_214050" data-name="Trazado 214050" d="M1415.334,1017.419l24.723,9.354.433,33.544-20.909-6.692Z" transform="translate(-1415.334 -986.454)" fill="#7d97f4"/>
      <path id="Trazado_214051" data-name="Trazado 214051" d="M1570.781,1017.419l-25.172,9.354.016,33.544,20.909-6.692Z" transform="translate(-1520.886 -986.454)" fill="#7d97f4"/>
      <g id="Grupo_97520" data-name="Grupo 97520" transform="translate(26.175 33.672)">
        <path id="Trazado_214052" data-name="Trazado 214052" d="M1553.256,1040.092l22.486-8.406-1.092,6.825-21.394,6.291Z" transform="translate(-1553.256 -1031.686)" fill="#bdd0fb"/>
        <path id="Trazado_214053" data-name="Trazado 214053" d="M1555.487,1103.309l7.2-2.51-1.066,21.86-5.652,2.133Z" transform="translate(-1555.064 -1087.683)" fill="#bdd0fb"/>
        <path id="Trazado_214054" data-name="Trazado 214054" d="M1599.363,1083.94l11.325-3.949-2.239,17.214-9.638,1.968Z" transform="translate(-1590.165 -1070.824)" fill="#bdd0fb"/>
        <path id="Trazado_214055" data-name="Trazado 214055" d="M1598.208,1183.11l9.384-2.042v3.321l-9.384,2.63Z" transform="translate(-1589.677 -1152.719)" fill="#bdd0fb"/>
      </g>
      <g id="Grupo_97522" data-name="Grupo 97522" transform="translate(2.259 34.347)">
        <g id="Grupo_97521" data-name="Grupo 97521">
          <path id="Trazado_214056" data-name="Trazado 214056" d="M1447.315,1042.975l-20.076-7.731.37,3.839,19.706,6.256Z" transform="translate(-1427.239 -1035.244)" fill="#91b3fa"/>
        </g>
        <path id="Trazado_214057" data-name="Trazado 214057" d="M1450.321,1081.436l-19.3-5.457,2.559,23.691,17.423,5.012Z" transform="translate(-1430.302 -1068.249)" fill="#91b3fa"/>
      </g>
      <path id="Trazado_214058" data-name="Trazado 214058" d="M1423.714,1124.5c-.107-.244-2.112-3.777-.658-5.069s2.145.146,2.045,1.7S1424.523,1126.344,1423.714,1124.5Z" transform="translate(-1421.163 -1068.699)" fill="url(#linear-gradient-18)"/>
      <path id="Trazado_214059" data-name="Trazado 214059" d="M1659.921,1124.5c.107-.244,2.112-3.777.659-5.069s-2.145.146-2.045,1.7S1659.111,1126.344,1659.921,1124.5Z" transform="translate(-1612.373 -1068.699)" fill="url(#linear-gradient-72)"/>
    </g>
  </g>
</svg>
