<svg xmlns="http://www.w3.org/2000/svg" width="450.82" height="271.153" viewBox="0 0 450.82 271.153">
  <g id="Grupo_98284" data-name="Grupo 98284" transform="translate(-5897.678 910.885)">
    <path id="Trazado_216594" data-name="Trazado 216594" d="M5992.695-910.885c.081.573.552.4.877.426a115.519,115.519,0,0,1,31.387,6.75c11.5,4.264,21.993,10.2,30.572,19.124,6.032,6.276,10.66,13.46,12.137,22.154,2.573,15.138-.5,28.993-10.331,41.069-7.135,8.761-16.222,14.882-26.47,19.389a107.246,107.246,0,0,1-30.05,7.986,139.861,139.861,0,0,1-21.88,1.04c-14.956-.474-29.515-2.952-43.326-8.962a71.938,71.938,0,0,1-23.253-15.637c-7.895-8.109-12.99-17.636-14.263-28.962-.97-8.64-.419-17.132,3.5-25.14a52.746,52.746,0,0,1,13.252-16.866c11.072-9.534,24.054-15.229,38.088-18.758a116.166,116.166,0,0,1,19.847-3.192c.328-.024.795.141.887-.422Zm-42.788,62.244c-.052.211.012.309.24.25l-.026-.03c-.111.088-.068.167.005.256.121.146.239.122.364.011a13.364,13.364,0,0,1,3.511-1.613c1.122.159,2.25,0,3.384.134a11.488,11.488,0,0,1,5.527,2.58l-.021-.025c-.1.265.081.361.269.453l-.021-.024.223.306c.345.367.348,1.1,1.1,1.028a13.055,13.055,0,0,1,4.436-.133,34.356,34.356,0,0,1,3.867,1.308l-.031-.019c-.156.3.192.207.259.334a7.065,7.065,0,0,1,3.129,5.365c.175,1.883.239,3.579,2.85,3.088a9.63,9.63,0,0,1,6.906,12.273c-.327,1.058-.156,1.506.77,1.922,2.721,1.224,5.46,2.04,8.4.755,1.427-.623,1.548-1.1.516-2.225-2.047-2.223-4.107-4.433-6.127-6.681-.437-.486-.929-1.142-.313-1.78s1.274-.3,1.872.162a89.986,89.986,0,0,1,6.9,6.282,5.221,5.221,0,0,0,6.583.824c2.438-1.554,3.35-3.223.982-5.792-2.478-2.687-4.915-5.41-7.361-8.125a3.111,3.111,0,0,1-.475-.747,1.049,1.049,0,0,1,.159-1.338c.446-.4.908-.194,1.333.083a20.5,20.5,0,0,1,2.883,2.3c2.224,2.1,4.422,4.227,6.651,6.32a5.08,5.08,0,0,0,4.959,1.316c2.142-.546,3.982-1.594,4.764-3.81s-.475-3.762-1.934-5.209q-5.008-4.963-9.983-9.96a4.152,4.152,0,0,1-.617-.784.993.993,0,0,1,.1-1.243.954.954,0,0,1,1.227-.2,4.834,4.834,0,0,1,1.078.782c4,3.582,7.984,7.189,12,10.756,2.174,1.931,5.881,1.492,7.93-.878,1.668-1.929,1.241-4.725-1.038-6.709-8.607-7.5-17.222-14.984-25.979-22.3a67.808,67.808,0,0,0-9.045-6.928,9.191,9.191,0,0,0-6.651-1.227,17.608,17.608,0,0,0-5.928,2.777c-3.156,2-5.889,4.567-8.936,6.72-4.571,3.232-9.42,3.452-14.417,1.3-3.721-1.606-4.52-4.294-1.6-7.281,2.653-2.711,5.117-5.608,7.665-8.423.081-.021.207-.014.133-.146-.014-.025-.164.027-.251.043-2.018.511-4.054.958-6.049,1.547a22.966,22.966,0,0,1-10.4.678,127.59,127.59,0,0,1-25.855-7.593,1.009,1.009,0,0,0-1.238.186,60.24,60.24,0,0,0-7.514,7.328,40.4,40.4,0,0,0-9.068,17.333c-.327,1.452-.1,1.719,1.478,1.9a3.312,3.312,0,0,0,.5.218c3.455.886,6.925,1.714,10.363,2.658,7.718,2.119,15.346,4.489,22.309,8.578.067.04.188-.009.284-.017l-.026-.019c.346.483.66,1.019,1.4.832a15.164,15.164,0,0,1,2.84-1.767,2.431,2.431,0,0,0,.547-.008,8.284,8.284,0,0,1,7.083,1.308c.125.089.259.294.462.1l-.021-.021c-.091.257.021.306.245.239l-.018-.019c-.076.241.038.289.246.24l-.02-.019c-.055.216.027.3.242.244Zm33.528,45.895a128.662,128.662,0,0,0,22.477-2.024c12.418-2.291,24.208-6.3,34.963-13.03,7.844-4.912,14.612-10.963,19.37-19.025a35.981,35.981,0,0,0,5.178-19.509c-.021-.86-.184-1.172-1.154-.894-2.4.688-4.838,1.218-7.246,1.869a208.634,208.634,0,0,0-24.9,8.252c-.733.3-.973.519-.571,1.329a6.59,6.59,0,0,1,.676,3.91,8.658,8.658,0,0,1-8.708,7.164c-1.675.021-1.675.021-2.057,1.656-.838,3.6-4.024,6.273-8.208,6.9a5.919,5.919,0,0,0-3.742,2.338,7.187,7.187,0,0,1-.84,1.045c-2.41,2.418-5.231,3.66-8.7,2.95-.42-.086-.713-.16-1.041.286a6.936,6.936,0,0,1-4.979,2.672,15.41,15.41,0,0,1-9.254-1.963c-.459-.24-.817-.469-1.374.016-5.025,4.377-11.893,3.087-15.116-2.815-.25-.459-.412-.61-1-.451a9.251,9.251,0,0,1-9.889-4.433,1.084,1.084,0,0,0-1.256-.7,9.41,9.41,0,0,1-9.228-4.914c-.462-.79-.462-2.069-1.093-2.481-.689-.449-1.865-.15-2.828-.185a2.385,2.385,0,0,1-.438-.084,8.188,8.188,0,0,1-6.268-10.024,1.521,1.521,0,0,0-.925-2.077c-1.205-.583-2.333-1.328-3.542-1.9-9.363-4.438-19.362-6.8-29.411-9.01-.713-.157-.723.164-.744.67a35.979,35.979,0,0,0,.535,8.356c1.5,7.815,5.339,14.409,10.678,20.185,7.142,7.725,15.878,13.128,25.49,17.185C5952.718-805.4,5967.844-802.857,5983.436-802.746Zm6.025-87.135c-10.249,0-16.325,2.349-22.165,7.665-3.676,3.347-6.917,7.114-10.321,10.722-1.075,1.14-1.021,1.444.416,2.156a7.138,7.138,0,0,0,1.462.539,11.518,11.518,0,0,0,9.143-1.289,53.273,53.273,0,0,0,5.312-3.908,51.66,51.66,0,0,1,7.119-5.023c4.815-2.68,9.533-2.566,14.109.56,1.446.988,2.874,2.012,4.238,3.109,9.6,7.714,18.842,15.847,28.077,23.985a3.707,3.707,0,0,0,4.681.756,173.241,173.241,0,0,1,32.419-10.245c.822-.179.915-.485.745-1.186-.351-1.447-.7-2.89-1.189-4.3-2.772-8.055-7.84-14.48-14.166-20.021a.89.89,0,0,0-1.15-.1,57.207,57.207,0,0,1-21.63,5.49,49.324,49.324,0,0,1-22.43-4.739C5998.724-888.153,5993.12-889.849,5989.46-889.881Zm-66.793-.292c.37.155.605.262.847.355a171.147,171.147,0,0,0,17.26,5.371,29.266,29.266,0,0,0,16.737-.2,29.216,29.216,0,0,1,8.312-1.611,2.559,2.559,0,0,0,1.712-.64,26.278,26.278,0,0,1,10.909-5.414c9.132-2.168,17.869-.738,26.227,3.176a46.66,46.66,0,0,0,27.517,4.225,54.045,54.045,0,0,0,13.707-4.123c-1.3-.9-2.453-1.764-3.662-2.543-14.828-9.549-31.277-14.036-48.677-15.494a123.144,123.144,0,0,0-24.346.414,112.534,112.534,0,0,0-29.61,7.357A84.9,84.9,0,0,0,5922.667-890.173Zm27.53,47.321c-.115-.541-.192-.825-.235-1.115a5.372,5.372,0,0,0-4.589-4.661,5.232,5.232,0,0,0-5.413,3.141,5.2,5.2,0,0,0,1.538,6.061,5.2,5.2,0,0,0,6.431.051c.286-.2.494-.793.994-.424.419.31.31.78.242,1.237a6.463,6.463,0,0,0,2.621,6.689,5.471,5.471,0,0,0,6.936.117c.7-.5,1.1-.194,1.055.817a4.6,4.6,0,0,0,2.275,4.211,9.172,9.172,0,0,0,2.4,1.166,4.115,4.115,0,0,0,3.633-.526c2.146-1.389,2.141-1.4,2.631,1.044a6.625,6.625,0,0,0,8.039,5.242,6.6,6.6,0,0,0,4.708-8.183,6.569,6.569,0,0,0-8.111-4.776c-.467.127-.926.294-1.4.391-.805.165-1.139-.182-.948-.986s.453-1.579.589-2.383c.511-3.011-.4-5.352-2.487-6.553-2.4-1.377-5.187-1.437-7.194.643-.629.651-.974.311-1.046-.471-.367-3.954-3.218-5.353-6.924-5.055C5953.332-846.963,5951.5-845.441,5950.2-842.852Z" fill="#2f3376"/>
    <path id="Trazado_216595" data-name="Trazado 216595" d="M6711.107-838.084c.686-.133.486-.769.6-1.17,1.744-6.09,5.579-9.984,11.91-11,5.017-.807,9.595.243,13.158,4.174.616.68.936.549,1.464-.042,5.4-6.038,15.836-5.452,20.891-.594a15.071,15.071,0,0,1,4.581,10.508c.369,7.527.168,15.065.276,22.6.013.939-.362,1.121-1.185,1.106-2.2-.039-4.4-.052-6.6.005-.926.024-1.213-.268-1.208-1.2.036-6.527.02-13.054.019-19.582,0-.559,0-1.119-.01-1.678-.089-3.975-2.376-6.221-6.339-6.231a6.332,6.332,0,0,0-6.666,6.361c-.044,6.937-.017,13.875-.02,20.812,0,1.5,0,1.5-1.544,1.5q-2.965,0-5.93,0c-1.483,0-1.487,0-1.487-1.448q0-9.959,0-19.917a12.384,12.384,0,0,0-.311-2.995c-.659-2.671-2.611-4.133-5.688-4.3a6.28,6.28,0,0,0-6.477,3.989,8.65,8.65,0,0,0-.483,3.075c.011,6.788-.015,13.577.027,20.365.006.991-.277,1.286-1.261,1.257-2.571-.075-5.145-.047-7.718-.061Z" transform="translate(-631.278 -46.856)" fill="#2d3276"/>
    <path id="Trazado_216596" data-name="Trazado 216596" d="M7181.885-586.551c-.083-.554-.553-.4-.881-.455-3.9-.688-7.37-2.158-9.826-5.443a15.874,15.874,0,0,1-2.951-8.326c-.4-4.58-.145-9.172-.181-13.759-.044-5.522,0-11.044-.024-16.566a3.222,3.222,0,0,1,.688-2.062c2.043-2.7,4.86-3.682,8.123-3.727.914-.013.764.615.765,1.155,0,4.739,0,9.477.01,14.216a1.817,1.817,0,0,0,.174,1.237c.794-.823,1.432-1.731,2.245-2.489,5.533-5.16,17.695-3.665,21.325,5.145,1.941,4.713,2.22,9.624,1.927,14.615a23.618,23.618,0,0,1-.853,5.065c-1.761,6.2-5.914,9.733-12.179,10.915-.35.066-.884-.15-.973.479Zm-4.283-18.931a14.743,14.743,0,0,0,.981,6.059,6.9,6.9,0,0,0,6.9,4.553,7.15,7.15,0,0,0,7.089-4.658,18.2,18.2,0,0,0-.193-13.43c-1.218-3.086-3.516-4.364-7.111-4.3a6.634,6.634,0,0,0-6.5,4.571A18.761,18.761,0,0,0,7177.6-605.483Z" transform="translate(-985.857 -212.639)" fill="#2d3276"/>
    <path id="Trazado_216597" data-name="Trazado 216597" d="M7475.96-547.251c-.087-.56-.555-.4-.883-.434-8.793-.965-14.9-7.066-15.944-15.938-.7-5.918.414-11.413,4.191-16.11a17.1,17.1,0,0,1,13.11-6.488c4.712-.213,9.031.737,12.728,3.863,3.673,3.106,5.376,7.235,6.274,11.8a32.389,32.389,0,0,1,.289,5.129c.039,1.042-.493,1.113-1.31,1.111q-11.805-.028-23.611-.011c-.3,0-.6.018-.9,0-.677-.045-.98.2-.805.917.2.832.314,1.688.559,2.506,1.1,3.683,3.475,5.53,7.327,5.807s6.976-.913,9.007-4.36a.942.942,0,0,1,.925-.48c2.387,0,4.774.012,7.162-.007.877-.007.987.337.714,1.105-2.363,6.646-7.085,10.3-14.042,11.152-.354.044-.873-.186-.989.436Zm1.2-23.448c2.31,0,4.622,0,6.932,0,1.346,0,1.455-.15,1.181-1.514-.772-3.837-2.9-5.813-6.784-6.3a8.272,8.272,0,0,0-9.328,6.775c-.168.962.175,1.059.956,1.05C7472.467-570.718,7474.815-570.7,7477.164-570.7Z" transform="translate(-1211.646 -251.94)" fill="#2c3175"/>
    <path id="Trazado_216598" data-name="Trazado 216598" d="M7782.488-826.712c-.6.069-.464.617-.567.955a25.077,25.077,0,0,1-3.355,6.908,13.522,13.522,0,0,1-7.891,5.512,24.771,24.771,0,0,1-11.411.373c-7.559-1.472-11.558-6.6-13.2-13.691a22.111,22.111,0,0,1,4.6-19.534,12.654,12.654,0,0,1,6.346-4.194,23.767,23.767,0,0,1,12.7-.358c6.408,1.537,9.94,6.046,12.1,11.93.146.4-.009,1.032.675,1.128Zm-9.812-5.129a16.471,16.471,0,0,0-.6-5.207,8.1,8.1,0,0,0-7.689-5.758,7.927,7.927,0,0,0-8.037,5.4,19.878,19.878,0,0,0-.017,11.685,7.8,7.8,0,0,0,6.974,5.278c3.881.2,6.747-1.333,8.205-4.417A15.286,15.286,0,0,0,7772.676-831.841Z" transform="translate(-1433.99 -46.138)" fill="#2d3276"/>
    <path id="Trazado_216599" data-name="Trazado 216599" d="M6995.055-586.59c.012-4.139.031-8.279.033-12.418q.007-15.218,0-30.436a7.759,7.759,0,0,1,7.294-7.466c2.742-.048,2.26-.3,2.263,2.207q.024,23.554.009,47.108c0,.335.018.67.026,1Z" transform="translate(-851.641 -212.601)" fill="#2c3175"/>
    <path id="Trazado_216600" data-name="Trazado 216600" d="M7350.97-546.553c0-6.752-.017-13.5.005-20.255a24.359,24.359,0,0,1,1.032-6.835c2-6.756,6.665-10.359,13.492-11.418a50.085,50.085,0,0,1,6.364-.287c.814-.022,1.014.325,1.005,1.066-.029,2.574-.035,5.149,0,7.723.012.827-.276,1.125-1.1,1.1-1.417-.045-2.837-.035-4.253.012a6.484,6.484,0,0,0-6.346,4.891,13.984,13.984,0,0,0-.56,4.085q0,9.96-.012,19.919Z" transform="translate(-1127.851 -252.638)" fill="#2d3276"/>
    <path id="Trazado_216601" data-name="Trazado 216601" d="M7083.041-541.744c.015-.518.044-1.037.044-1.555q0-17.116,0-34.231c0-1.6,0-1.6,1.652-1.6,2.237,0,4.475.037,6.711-.018.9-.022,1.225.209,1.221,1.171q-.062,18.01-.052,36.02a.967.967,0,0,0,.048.217Z" transform="translate(-919.924 -257.447)" fill="#2c3175"/>
    <path id="Trazado_216602" data-name="Trazado 216602" d="M7598.4-883.663a2.511,2.511,0,0,0,.181-1.363c.012-2.947-.016-5.894.021-8.841a5.7,5.7,0,0,1,3.972-5.634,12.651,12.651,0,0,1,4.837-.717c.626.012.846.261.835.877q-.171,9.62-.314,19.241c-.065,4.326-.1,8.652-.179,12.978a23.368,23.368,0,0,1-.386,4.561c-1.323,6.037-4.936,9.927-10.937,11.449a25.013,25.013,0,0,1-13.584-.344,13.4,13.4,0,0,1-9.664-10.224,28.453,28.453,0,0,1,1.052-17.478c2.892-7.28,9.763-10.751,17.61-9.259,2.337.444,4.064,1.954,5.627,3.652C7597.767-884.441,7598.038-884.091,7598.4-883.663Zm-15.051,13.578a24.341,24.341,0,0,0,.294,4.769c.5,2.325,1.088,4.615,3.287,5.994a7.683,7.683,0,0,0,11.271-3.884,17.748,17.748,0,0,0,1.088-8.344,13.4,13.4,0,0,0-2.168-6.159c-2.569-3.6-9.57-3.9-12.006.414A14.158,14.158,0,0,0,7583.347-870.085Z" transform="translate(-1299.612 -8.275)" fill="#2d3276"/>
    <path id="Trazado_216603" data-name="Trazado 216603" d="M6988.411-828.7c-4.028,0-8.057.026-12.084-.018-.987-.011-1.279.231-1.157,1.273.613,5.233,4.2,8.025,9.816,7.581,2.163-.171,4.226-.512,5.692-2.358.258-.325.7-.206,1.062-.211q4.083-.048,8.167-.078c1.438-.012,1.5.041.944,1.429a14.28,14.28,0,0,1-6.223,7.114,20.728,20.728,0,0,1-25.26-4.22c-2.261-2.5-3.063-5.681-3.392-8.956a25.608,25.608,0,0,1,1.383-12.321,16.444,16.444,0,0,1,15.626-10.834c3.542-.083,7.057.14,10.2,1.944,4.939,2.837,7.543,7.262,8.279,12.849.25,1.893.125,3.8.206,5.7.039.923-.334,1.127-1.172,1.121C6996.467-828.719,6992.439-828.7,6988.411-828.7Zm-5.007-6.076c2.42,0,4.84,0,7.26,0,.528,0,.983-.024.916-.753a6.592,6.592,0,0,0-2.451-5.051,8.708,8.708,0,0,0-13.767,4.833c-.209.8.048.984.784.977C6978.564-834.79,6980.984-834.777,6983.4-834.777Z" transform="translate(-828.926 -47.008)" fill="#2d3276"/>
    <path id="Trazado_216604" data-name="Trazado 216604" d="M7449.682-831.136c-.058,2.119,0,4.5-.089,6.893-.2,5.1-2.775,8.522-7.3,10.6a25.429,25.429,0,0,1-9.574,2.012,25.714,25.714,0,0,1-7.015-.4c-6.057-1.389-8.861-5.823-8.253-11.717.592-5.743,3.233-8.439,9.114-9.991a57.119,57.119,0,0,1,8.516-1.147,17.027,17.027,0,0,0,2.629-.52,2.83,2.83,0,0,0,2.408-2.934,3.083,3.083,0,0,0-2.414-3.325,13.889,13.889,0,0,0-5.55-.285,4.44,4.44,0,0,0-4.126,3.664c-.187.832-.617,1.029-1.406,1.014-2.35-.045-4.7-.033-7.051-.007-.745.008-.952-.208-.834-.986.994-6.558,4.429-10.091,10.993-11.161a25.741,25.741,0,0,1,13.653,1.179c4.471,1.726,6.271,4.4,6.3,9.233C7449.694-836.477,7449.682-833.94,7449.682-831.136Zm-9.346,3.683c.031-.45.056-1.01.112-1.565.042-.418.006-.666-.522-.488a59.481,59.481,0,0,1-7.925,1.869,6.586,6.586,0,0,0-2.933,1.316c-2.58,2.068-2.134,6.757.75,7.921,3.382,1.364,8.749-1.086,9.925-4.533A13.027,13.027,0,0,0,7440.336-827.453Z" transform="translate(-1179.386 -47.376)" fill="#2d3276"/>
    <path id="Trazado_216605" data-name="Trazado 216605" d="M7275.884-833.616c-1.343,0-2.687-.034-4.029.013a.935.935,0,0,1-1.095-.958c-.5-4.159-4.242-5.363-7.32-4.9-4.312.644-6.594,3.148-7.332,7.5a22.862,22.862,0,0,0,.659,9.9c1.105,4.117,4.478,5.525,8.253,4.979,3.19-.461,4.668-1.918,5.363-5.271.18-.869.494-1.145,1.376-1.125,2.648.059,5.3.044,7.945.007.816-.011,1.087.138.944,1.062a15.637,15.637,0,0,1-13.679,13.256,24.379,24.379,0,0,1-9.848-.544,14.559,14.559,0,0,1-10.466-10.4,26.039,26.039,0,0,1,.263-15.753,15.848,15.848,0,0,1,14.708-11.338,27.523,27.523,0,0,1,11.131,1.21,11.768,11.768,0,0,1,7.832,9.109c.166.722.292,1.453.43,2.181.119.623-.044,1.016-.776,1.009-1.454-.014-2.907,0-4.361,0Z" transform="translate(-1046.054 -49.359)" fill="#2d3276"/>
    <path id="Trazado_216606" data-name="Trazado 216606" d="M7144.888-822.154c0-3.058-.111-6.12.021-9.172.257-5.879,2.294-10.913,7.373-14.331a19.519,19.519,0,0,1,8.915-3.016,31.194,31.194,0,0,1,3.12-.2c1.394-.016,1.779.4,1.781,1.757,0,2.349-.018,4.7.011,7.048.01.784-.036,1.206-1.073,1.082a13.062,13.062,0,0,0-4.88.365,7.045,7.045,0,0,0-5.431,6.475c-.138,1.6-.181,3.2-.179,4.8.007,5.034-.018,10.068.02,15.1.008.919-.255,1.231-1.195,1.209q-3.689-.087-7.382,0c-.917.022-1.126-.314-1.116-1.162C7144.912-815.516,7144.889-818.835,7144.888-822.154Z" transform="translate(-967.888 -48.123)" fill="#2d3276"/>
    <path id="Trazado_216607" data-name="Trazado 216607" d="M7088-628.232c-1.269,0-2.538-.027-3.8.011-.7.022-1.013-.184-1-.942.035-2.275.027-4.551.006-6.826-.006-.679.274-.922.936-.917q3.861.028,7.723,0c.663-.006.932.21.923.9-.029,2.313-.024,4.626,0,6.939.006.631-.242.858-.861.845C7090.613-628.251,7089.307-628.233,7088-628.232Z" transform="translate(-920.043 -212.624)" fill="#2c3175"/>
    <path id="Trazado_216608" data-name="Trazado 216608" d="M5996.847-619.185c-15.589-.112-30.716-2.652-45.141-8.739-9.612-4.057-18.348-9.459-25.49-17.185-5.339-5.775-9.173-12.37-10.679-20.185a36.085,36.085,0,0,1-.535-8.356c.021-.506.031-.827.745-.67,10.048,2.208,20.048,4.572,29.411,9.01,1.209.573,2.336,1.318,3.542,1.9a1.522,1.522,0,0,1,.925,2.077,8.187,8.187,0,0,0,6.267,10.024,2.406,2.406,0,0,0,.439.084c.963.035,2.139-.264,2.828.185.632.412.631,1.692,1.093,2.481a9.411,9.411,0,0,0,9.228,4.914,1.084,1.084,0,0,1,1.256.7,9.251,9.251,0,0,0,9.89,4.433c.588-.159.75-.008,1,.451,3.223,5.9,10.09,7.191,15.116,2.815.557-.485.915-.255,1.373-.016a15.415,15.415,0,0,0,9.255,1.963,6.935,6.935,0,0,0,4.978-2.673c.327-.445.622-.371,1.042-.286,3.469.71,6.291-.532,8.7-2.95a7.1,7.1,0,0,0,.84-1.045,5.921,5.921,0,0,1,3.742-2.338c4.185-.626,7.371-3.3,8.208-6.9.382-1.635.382-1.635,2.057-1.656a8.658,8.658,0,0,0,8.708-7.164,6.59,6.59,0,0,0-.676-3.91c-.4-.811-.163-1.029.571-1.329a208.634,208.634,0,0,1,24.9-8.252c2.409-.651,4.85-1.181,7.246-1.869.971-.278,1.134.034,1.155.894a35.969,35.969,0,0,1-5.178,19.509c-4.758,8.062-11.525,14.114-19.37,19.025-10.754,6.734-22.544,10.739-34.963,13.03A128.7,128.7,0,0,1,5996.847-619.185Z" transform="translate(-13.413 -183.56)" fill="#fde500"/>
    <path id="Trazado_216609" data-name="Trazado 216609" d="M5979.038-766.169c-.755.074-.758-.661-1.1-1.028.019-.17,0-.313-.223-.306l.02.024a.326.326,0,0,0-.269-.453l.021.025c-1.495-2.378-5.927-3.728-8.91-2.714a13.358,13.358,0,0,0-3.511,1.613l-.37-.267.026.03c-.006-.155-.074-.25-.24-.25l.02.021c.007-.168-.07-.253-.243-.244l.02.019c.007-.171-.073-.252-.246-.24l.018.019c.01-.174-.071-.254-.245-.239l.021.021c-1.747-2.035-5.408-2.671-8.092-1.4a15.186,15.186,0,0,0-2.84,1.767c-.44-.322-.809-.767-1.4-.832l.026.019a16.337,16.337,0,0,0-4.3-2.5,109.174,109.174,0,0,0-20.479-6.924c-2.88-.721-5.784-1.348-8.677-2.017-1.581-.18-1.8-.447-1.478-1.9a40.4,40.4,0,0,1,9.068-17.334,60.205,60.205,0,0,1,7.514-7.328,1.009,1.009,0,0,1,1.238-.186,127.576,127.576,0,0,0,25.854,7.593,22.966,22.966,0,0,0,10.4-.678c1.995-.588,4.031-1.036,6.049-1.547.039.036.079.07.119.1-2.547,2.815-5.011,5.712-7.665,8.423-2.923,2.986-2.124,5.674,1.6,7.281,5,2.157,9.846,1.936,14.417-1.3,3.046-2.153,5.779-4.719,8.936-6.72a17.618,17.618,0,0,1,5.928-2.777,9.19,9.19,0,0,1,6.651,1.227,67.781,67.781,0,0,1,9.045,6.928c8.758,7.32,17.373,14.808,25.98,22.3,2.279,1.985,2.706,4.78,1.038,6.709-2.049,2.37-5.755,2.809-7.929.878-4.017-3.567-8-7.173-12-10.756a4.832,4.832,0,0,0-1.078-.782.954.954,0,0,0-1.227.2.993.993,0,0,0-.1,1.243,4.171,4.171,0,0,0,.616.784q4.984,4.988,9.983,9.96c1.46,1.447,2.718,2.99,1.935,5.209s-2.623,3.264-4.765,3.81a5.08,5.08,0,0,1-4.959-1.316c-2.229-2.094-4.428-4.22-6.651-6.32a20.548,20.548,0,0,0-2.884-2.3c-.425-.276-.887-.481-1.333-.083a1.05,1.05,0,0,0-.159,1.338,3.127,3.127,0,0,0,.475.747c2.446,2.715,4.884,5.439,7.361,8.126,2.368,2.568,1.455,4.238-.982,5.792a5.222,5.222,0,0,1-6.584-.824,90.011,90.011,0,0,0-6.9-6.282c-.6-.46-1.266-.79-1.872-.162s-.123,1.294.314,1.78c2.02,2.247,4.08,4.458,6.126,6.68,1.032,1.121.911,1.6-.515,2.225-2.945,1.285-5.685.468-8.406-.756-.925-.416-1.1-.864-.769-1.922a9.63,9.63,0,0,0-6.907-12.273c-2.611.491-2.675-1.205-2.85-3.088a7.063,7.063,0,0,0-3.128-5.365c.055-.221.007-.363-.26-.334l.031.02C5984.764-766.731,5982.042-767.442,5979.038-766.169Z" transform="translate(-14.572 -79.146)" fill="#fdfdfd"/>
    <path id="Trazado_216610" data-name="Trazado 216610" d="M6192.391-817.086c3.66.032,9.265,1.728,14.67,4.172a49.321,49.321,0,0,0,22.429,4.739,57.218,57.218,0,0,0,21.631-5.49.888.888,0,0,1,1.149.1c6.327,5.541,11.4,11.966,14.167,20.021.485,1.41.838,2.854,1.189,4.3.17.7.077,1.006-.745,1.186a173.248,173.248,0,0,0-32.42,10.245,3.706,3.706,0,0,1-4.681-.756c-9.235-8.138-18.479-16.271-28.077-23.985-1.364-1.1-2.792-2.121-4.237-3.109-4.577-3.127-9.294-3.24-14.11-.56a51.709,51.709,0,0,0-7.119,5.023,53.135,53.135,0,0,1-5.312,3.908,11.517,11.517,0,0,1-9.143,1.289,7.1,7.1,0,0,1-1.462-.539c-1.437-.712-1.492-1.016-.416-2.156,3.4-3.608,6.645-7.375,10.321-10.722C6176.066-814.737,6182.143-817.081,6192.391-817.086Z" transform="translate(-202.931 -72.795)" fill="#fdfdfd"/>
    <path id="Trazado_216611" data-name="Trazado 216611" d="M6009.272-878.405a84.891,84.891,0,0,1,16.932-9.129,112.524,112.524,0,0,1,29.61-7.357,123.143,123.143,0,0,1,24.346-.414c17.4,1.458,33.849,5.944,48.677,15.494,1.209.779,2.366,1.639,3.662,2.543a54.056,54.056,0,0,1-13.706,4.123,46.662,46.662,0,0,1-27.517-4.226c-8.358-3.914-17.1-5.344-26.227-3.176a26.277,26.277,0,0,0-10.909,5.414,2.56,2.56,0,0,1-1.712.64,29.221,29.221,0,0,0-8.312,1.611,29.263,29.263,0,0,1-16.737.2,171.258,171.258,0,0,1-17.261-5.371C6009.876-878.143,6009.641-878.25,6009.272-878.405Z" transform="translate(-86.605 -11.768)" fill="#fde500"/>
    <path id="Trazado_216612" data-name="Trazado 216612" d="M6095.327-627.21c1.3-2.589,3.135-4.112,5.75-4.323,3.706-.3,6.558,1.1,6.924,5.055.073.782.417,1.122,1.045.471,2.007-2.079,4.8-2.02,7.194-.643,2.092,1.2,3,3.542,2.488,6.553-.137.8-.4,1.586-.59,2.383s.143,1.151.948.986c.473-.1.931-.264,1.4-.391a6.57,6.57,0,0,1,8.111,4.776,6.6,6.6,0,0,1-4.708,8.183,6.624,6.624,0,0,1-8.039-5.242c-.491-2.442-.486-2.433-2.632-1.044a4.115,4.115,0,0,1-3.634.526,9.176,9.176,0,0,1-2.4-1.166,4.6,4.6,0,0,1-2.275-4.211c.048-1.011-.354-1.316-1.055-.817a5.47,5.47,0,0,1-6.935-.117,6.463,6.463,0,0,1-2.621-6.689c.067-.457.177-.927-.242-1.237-.5-.369-.708.224-.994.424a5.2,5.2,0,0,1-6.43-.051,5.2,5.2,0,0,1-1.538-6.061,5.231,5.231,0,0,1,5.412-3.141,5.372,5.372,0,0,1,4.59,4.661C6095.134-628.035,6095.212-627.75,6095.327-627.21Z" transform="translate(-145.13 -215.642)" fill="#fdfdfd"/>
    <path id="Trazado_216613" data-name="Trazado 216613" d="M5923.632-688.883c2.894.669,5.8,1.3,8.677,2.017a109.2,109.2,0,0,1,20.48,6.924,16.348,16.348,0,0,1,4.3,2.5c-.1.008-.217.057-.284.017-6.963-4.09-14.59-6.459-22.309-8.578-3.438-.944-6.908-1.772-10.363-2.658A3.368,3.368,0,0,1,5923.632-688.883Z" transform="translate(-20.142 -172.289)" fill="#fde500"/>
    <path id="Trazado_216614" data-name="Trazado 216614" d="M6149.2-639.127c2.984-1.014,7.416.336,8.911,2.714a11.489,11.489,0,0,0-5.527-2.58C6151.452-639.124,6150.324-638.968,6149.2-639.127Z" transform="translate(-195.2 -210.639)" fill="#fde500"/>
    <path id="Trazado_216615" data-name="Trazado 216615" d="M6091.857-644.325c2.684-1.267,6.345-.632,8.093,1.4-.2.191-.337-.014-.463-.1a8.285,8.285,0,0,0-7.084-1.308A2.411,2.411,0,0,1,6091.857-644.325Z" transform="translate(-150.696 -206.362)" fill="#fde500"/>
    <path id="Trazado_216616" data-name="Trazado 216616" d="M6195.93-620.316c3-1.273,5.726-.562,8.3,1.175a34.385,34.385,0,0,0-3.867-1.308A13.057,13.057,0,0,0,6195.93-620.316Z" transform="translate(-231.464 -224.999)" fill="#fde500"/>
    <path id="Trazado_216617" data-name="Trazado 216617" d="M6072.91-637.889c.594.065.961.511,1.4.832C6073.57-636.87,6073.256-637.406,6072.91-637.889Z" transform="translate(-135.992 -211.864)" fill="#fde500"/>
    <path id="Trazado_216618" data-name="Trazado 216618" d="M6232.733-612.92c.267-.029.314.113.26.334C6232.926-612.713,6232.578-612.62,6232.733-612.92Z" transform="translate(-259.996 -231.239)" fill="#fde500"/>
    <path id="Trazado_216619" data-name="Trazado 216619" d="M6131.638-631.937l.369.267c-.124.111-.243.136-.364-.011C6131.571-631.77,6131.527-631.849,6131.638-631.937Z" transform="translate(-181.517 -216.483)" fill="#fde500"/>
    <path id="Trazado_216620" data-name="Trazado 216620" d="M6188.8-625.939a.326.326,0,0,1,.269.453C6188.877-625.578,6188.693-625.674,6188.8-625.939Z" transform="translate(-225.905 -221.138)" fill="#fde500"/>
    <path id="Trazado_216621" data-name="Trazado 216621" d="M6185.506-784.526c.087-.016.237-.068.251-.043.074.132-.053.126-.133.146C6185.584-784.456,6185.544-784.49,6185.506-784.526Z" transform="translate(-223.374 -98.025)" fill="#fdfdfd"/>
    <path id="Trazado_216622" data-name="Trazado 216622" d="M6127.786-635.894c.174-.015.255.066.245.239C6127.806-635.588,6127.695-635.637,6127.786-635.894Z" transform="translate(-178.555 -213.411)" fill="#fde500"/>
    <path id="Trazado_216623" data-name="Trazado 216623" d="M6128.828-634.907c.171-.013.253.068.246.24C6128.866-634.618,6128.753-634.666,6128.828-634.907Z" transform="translate(-179.37 -214.177)" fill="#fde500"/>
    <path id="Trazado_216624" data-name="Trazado 216624" d="M6129.864-633.92c.172-.009.25.076.242.244C6129.891-633.625,6129.809-633.7,6129.864-633.92Z" transform="translate(-180.179 -214.944)" fill="#fde500"/>
    <path id="Trazado_216625" data-name="Trazado 216625" d="M6130.857-632.922c.166,0,.234.1.24.25C6130.869-632.613,6130.805-632.711,6130.857-632.922Z" transform="translate(-180.95 -215.719)" fill="#fde500"/>
    <path id="Trazado_216626" data-name="Trazado 216626" d="M6190.009-624.027c.224-.007.242.136.223.306Z" transform="translate(-226.869 -222.622)" fill="#fde500"/>
    <g id="Grupo_98283" data-name="Grupo 98283" transform="translate(5950.556 -774.834)">
      <path id="e" d="M6176.963-168.2c-23.537,0-43.15,9.986-43.15,40.112,0,23.867,13.188,38.9,43.758,38.9,35.982,0,38.289-23.7,38.289-23.7h-17.435s-3.739,12.763-21.917,12.763c-14.806,0-25.456-10-25.456-24.021h66.631v-8.8c0-13.87-8.8-35.25-40.72-35.25Zm-.568,10.966c14.256,0,23.975,8.733,23.975,21.823h-49.178C6151.191-149.305,6163.876-157.232,6176.4-157.232Z" transform="translate(-6133.813 198.457)" fill="#e53238"/>
      <path id="b" d="M6512.082-303.327v94.113c0,5.342-.374,12.843-.374,12.843h16.5s.593-5.387.593-10.311c0,0,8.153,13,30.324,13,23.346,0,39.2-16.519,39.2-40.185,0-22.017-14.566-39.725-39.167-39.725-23.036,0-30.194,12.678-30.194,12.678v-42.414Zm43.02,41.414c16.159,0,26.434,11.992,26.434,28.085,0,17.257-11.867,28.546-26.318,28.546-17.246,0-26.549-13.465-26.549-28.393C6528.668-247.584,6537.017-261.913,6555.1-261.913Z" transform="translate(-6427.086 303.327)" fill="#0064d2"/>
      <path id="a" d="M6940.927-174.47c-35.141,0-37.395,19.775-37.395,22.934h17.491s.917-11.545,18.7-11.545c11.554,0,20.507,5.435,20.507,15.884v4.668h-20.65c-27.416,0-41.909,8.02-41.909,24.295,0,16.017,13.392,24.732,31.488,24.732,24.664,0,32.608-13.628,32.608-13.628,0,5.42.418,10.762.418,10.762h15.536s-.6-6.757-.6-11.08v-37.366c0-24.5-19.229-29.656-36.188-29.656Zm19.3,42.488v4.918c0,6.414-3.958,22.361-27.259,22.361-12.76,0-18.23-6.368-18.23-13.754,0-13.437,18.423-13.524,45.49-13.524Z" transform="translate(-6726.619 203.325)" fill="#f5af02"/>
      <path id="y" d="M7212.088-157.523H7232.1l28.724,57.548,28.659-57.548h18.13l-52.2,102.453H7236.4l15.063-28.56Z" transform="translate(-6970.63 190.173)" fill="#86b817"/>
    </g>
  </g>
</svg>
