<svg xmlns="http://www.w3.org/2000/svg" width="318.029" height="235.951" viewBox="0 0 318.029 235.951">
  <g id="Grupo_98568" data-name="Grupo 98568" transform="translate(-3182.231 -561.933)">
    <path id="Trazado_217731" data-name="Trazado 217731" d="M3826.552,706.289l5.52-.622a1.23,1.23,0,0,1,1.159.555q.479.744,1.028,1.458a20.655,20.655,0,0,0,2.186,2.441,1.215,1.215,0,0,1,.3,1.336l-2.117,5.406a1.193,1.193,0,0,0,.587,1.513l4.756,2.355a1.178,1.178,0,0,0,1.512-.419l2.876-4.506a1.184,1.184,0,0,1,1.325-.513,21.466,21.466,0,0,0,6.733.67,1.223,1.223,0,0,1,1.224.849l.974,3.1a1.235,1.235,0,0,0,1.4.833l5.165-1.045a1.078,1.078,0,0,0,.3-.1,1.185,1.185,0,0,0,.661-1.21l-.46-4.124-.114-1a21.209,21.209,0,0,0,2.5-1.654,21.55,21.55,0,0,0,2.939-2.721,1.184,1.184,0,0,1,1.322-.319l4.353,1.71a1.227,1.227,0,0,0,1.549-.6l1.8-3.636.514-1.043a1.243,1.243,0,0,0-.442-1.6l-3.763-2.406a1.182,1.182,0,0,1-.531-1.289,21.323,21.323,0,0,0,.574-4.52,3.812,3.812,0,0,0,.011-.383.628.628,0,0,1,.009-.129,1.211,1.211,0,0,1,.854-1.037l5.034-1.594a.874.874,0,0,0,.164-.065,1.231,1.231,0,0,0,.664-1.335l-1.034-5.15a1.225,1.225,0,0,0-1.337-.976l-5.757.651a1.185,1.185,0,0,1-1.189-.624,21.663,21.663,0,0,0-1.8-2.758q-.543-.707-1.131-1.355a1.249,1.249,0,0,1-.236-1.293l2.033-5.2a1.192,1.192,0,0,0-.581-1.5l-4.708-2.323a1.246,1.246,0,0,0-1.606.445l-2.276,3.565a1.223,1.223,0,0,1-1.424.5,21.408,21.408,0,0,0-6.495-1.166,1.215,1.215,0,0,1-1.145-.855L3849,668.071a1.258,1.258,0,0,0-1.44-.851l-5.133,1.027a1.2,1.2,0,0,0-.96,1.317l.025.241.536,4.791a1.229,1.229,0,0,1-.664,1.235l0,0a21.341,21.341,0,0,0-3.185,2.023c-.543.417-1.055.855-1.552,1.313a1.205,1.205,0,0,1-1.269.248l-4.418-1.736a1.247,1.247,0,0,0-1.575.605l-2.317,4.688a1.333,1.333,0,0,0-.119.412,1.242,1.242,0,0,0,.556,1.162l3.012,1.914a1.24,1.24,0,0,1,.562,1.081,1.31,1.31,0,0,1-.062.338,21.333,21.333,0,0,0-1.084,8.365,1.2,1.2,0,0,1-.645,1.151,1.234,1.234,0,0,1-.192.078L3825,698.766a1.221,1.221,0,0,0-.829,1.4l.023.12,1,5.021A1.243,1.243,0,0,0,3826.552,706.289Zm35.316-15.676a14.294,14.294,0,0,1,.749,2.55,11.216,11.216,0,0,1-.8,6.059c-.083.17-.17.336-.256.5-5.4,10.027-19.56,8.033-21.892-3.281a11.636,11.636,0,0,1,.415-5.284,7.565,7.565,0,0,1,.422-1.042,13.186,13.186,0,0,1,2.635-3.626A11.507,11.507,0,0,1,3861.868,690.614Z" transform="translate(-516.695 -84.73)" fill="#e5e0f7"/>
    <path id="Trazado_217732" data-name="Trazado 217732" d="M4440.669,744.506c-5.3-10.681-23.647-3.369-23.647-3.369s-9.01,22.323-12.679,23.541,3.977-20.59,3.977-20.59c-7.431.743-24.233,13.37-24.233,13.37s5.754,22.813,1.9,23.09-4.064-20.46-4.064-20.46c-6.636,3.518-11.584,13.057-11.584,13.057-5.568,15.04,14.031,21.413,14.031,21.413a38.239,38.239,0,0,1-1.293,18.1h0a27.8,27.8,0,0,0-1.34,5.018l1.924-.382c.055-.547.128-1.08.226-1.6a.013.013,0,0,1,0-.009.119.119,0,0,0,0-.022c.074-.323.179-.784.313-1.346v0s0,0,0,0c.358-1.267.587-2.2.717-2.859v-.006c1.044-3.961,2.646-9.169,4.141-10.492a3.828,3.828,0,0,1-.586-.8l.586.8c4.695,6.4,21.39,4.307,30.188.6s4.285-5.5-1.487-8.713-15.9-.055-19.284-1.094.756-3.573,6.964-4.317,10.479,4.763,20.544,3.741,13.9-21.095,13.9-21.095c-6.4,3.471-19.375,2.138-20.312-.12s17.217-5.62,19.9-6.886S4445.968,755.187,4440.669,744.506Z" transform="translate(-955.538 -142.281)" fill="#e5e0f7"/>
    <path id="Trazado_217733" data-name="Trazado 217733" d="M3182.4,1092.2c-2.157-11.726,16.913-16.867,16.913-16.867s20.59,12.473,24.257,11.25-15.521-14.1-15.521-14.1c6.394-3.857,27.412-3.817,27.412-3.817s9.063,21.712,12.316,19.623-9.005-18.815-9.005-18.815c7.419-1.159,17.1,3.512,17.1,3.512,13.469,8.7,1.6,25.551,1.6,25.551a38.25,38.25,0,0,0,11.881,13.717h0a27.768,27.768,0,0,1,4.079,3.215l-1.769.847q-.557-.608-1.137-1.143a.01.01,0,0,0-.007-.007l-.017-.015c-.252-.216-.612-.521-1.056-.891h0l0,0c-1.046-.8-1.786-1.406-2.286-1.86l0,0c-3.209-2.546-7.612-5.756-9.6-5.919a3.831,3.831,0,0,0-.01-.993c0,.317.006.647.01.993.078,7.937-14.543,16.264-23.806,18.571s-6.724-1.832-4.031-7.866,12.7-9.571,14.783-12.431-2.747-2.407-8.163.717-5.536,10.093-14.206,15.305-23.767-8.56-23.767-8.56c7.2-1.056,16.793-9.9,16.19-12.268s-17.151,5.817-20.057,6.41S3184.559,1103.928,3182.4,1092.2Z" transform="translate(0 -407.884)" fill="#e5e0f7"/>
    <path id="Trazado_217734" data-name="Trazado 217734" d="M4448.017,1314.121c9.384-7.355-1.5-23.839-1.5-23.839s-23.687-4.3-25.624-7.641,20.969-.282,20.969-.282c-2.234-7.125-18.006-21.018-18.006-21.018s-21.171,10.261-22.226,6.541,19.21-8.13,19.21-8.13c-4.79-5.783-15.134-8.7-15.134-8.7-15.856-2.4-18.123,18.083-18.123,18.083a38.25,38.25,0,0,1-17.987,2.405h0a27.747,27.747,0,0,0-5.186-.294l.764,1.806c.547-.057,1.083-.093,1.609-.1a.011.011,0,0,1,.01,0h.023c.331.006.8.016,1.381.032h.005c1.313.095,2.269.13,2.945.122h.006c4.09.219,9.515.731,11.114,1.927a3.8,3.8,0,0,1,.664-.737c-.211.235-.433.48-.664.737-5.316,5.895.121,21.818,5.531,29.682s6.251,3.083,8.23-3.223-3.17-15.581-2.839-19.105,3.652.016,5.64,5.944-2.538,11.228.5,20.875,23.475,9.331,23.475,9.331c-4.7-5.562-6.023-18.539-4-19.915s9,15.719,10.779,18.089S4438.632,1321.476,4448.017,1314.121Z" transform="translate(-951.572 -554.538)" fill="#e5e0f7"/>
    <g id="Grupo_98518" data-name="Grupo 98518" transform="translate(3410.325 584.817)">
      <path id="Trazado_217735" data-name="Trazado 217735" d="M4356.266,715.965s1.1-21.97,11.37-35.743a2.443,2.443,0,0,1,4.391,1.355c0,.038,0,.076,0,.115C4372.154,685.589,4360.782,702.847,4356.266,715.965Z" transform="translate(-4355.339 -679.245)" fill="#e5e0f7"/>
      <path id="Trazado_217736" data-name="Trazado 217736" d="M4351.513,727.163s9.25-28,27.425-41.358a2.593,2.593,0,0,1,3.552.421c.556.7.862,1.836.418,3.672C4381.724,694.793,4361.639,712.379,4351.513,727.163Z" transform="translate(-4351.513 -684.11)" fill="#e5e0f7"/>
    </g>
    <g id="Grupo_98519" data-name="Grupo 98519" transform="translate(3217.154 634.504)">
      <path id="Trazado_217737" data-name="Trazado 217737" d="M3441.116,956.679s-9.218-16.08-22.193-22.5a2.058,2.058,0,0,0-2.779,2.694l.04.089C3417.58,939.934,3432.713,948.552,3441.116,956.679Z" transform="translate(-3405.286 -933.958)" fill="#e5e0f7"/>
      <path id="Trazado_217738" data-name="Trazado 217738" d="M3400.2,987.93s-17.644-17.5-36.4-20.585a2.183,2.183,0,0,0-2.506,1.673,3.463,3.463,0,0,0,1.088,2.918C3365.148,975.159,3386.95,980.695,3400.2,987.93Z" transform="translate(-3361.257 -960.808)" fill="#e5e0f7"/>
    </g>
    <path id="Trazado_217739" data-name="Trazado 217739" d="M3725.59,854V993.489a4.2,4.2,0,0,1-3.934,4.42H3520.4a4.2,4.2,0,0,1-3.934-4.42V854a4.2,4.2,0,0,1,3.934-4.42h201.251A4.2,4.2,0,0,1,3725.59,854Z" transform="translate(-269.039 -231.537)" fill="#a092c9"/>
    <g id="Grupo_98521" data-name="Grupo 98521" transform="translate(3222.006 610.276)">
      <path id="Trazado_217740" data-name="Trazado 217740" d="M3610.726,813.983v11.312h-224.6V813.983a4.225,4.225,0,0,1,4.225-4.225H3606.5A4.224,4.224,0,0,1,3610.726,813.983Z" transform="translate(-3386.13 -809.758)" fill="#ebb04c"/>
      <g id="Grupo_98520" data-name="Grupo 98520" transform="translate(6.87 5.801)">
        <path id="Trazado_217741" data-name="Trazado 217741" d="M3421.35,841.465a1.967,1.967,0,1,1,1.967,1.967A1.966,1.966,0,0,1,3421.35,841.465Z" transform="translate(-3421.35 -839.498)" fill="#fff"/>
        <path id="Trazado_217742" data-name="Trazado 217742" d="M3461.081,841.465a1.967,1.967,0,1,1,1.966,1.967A1.967,1.967,0,0,1,3461.081,841.465Z" transform="translate(-3453.331 -839.498)" fill="#fff"/>
        <path id="Trazado_217743" data-name="Trazado 217743" d="M3501.815,841.465a1.967,1.967,0,1,1,1.967,1.967A1.967,1.967,0,0,1,3501.815,841.465Z" transform="translate(-3486.118 -839.498)" fill="#fff"/>
      </g>
    </g>
    <path id="Trazado_217744" data-name="Trazado 217744" d="M4127.193,668.737l2.688-.3a.6.6,0,0,1,.564.27q.232.363.5.71a10,10,0,0,0,1.064,1.188.591.591,0,0,1,.146.651l-1.031,2.633a.582.582,0,0,0,.287.737l2.317,1.147a.574.574,0,0,0,.736-.2l1.4-2.194a.577.577,0,0,1,.646-.25,10.44,10.44,0,0,0,3.279.327.6.6,0,0,1,.6.413l.474,1.511a.6.6,0,0,0,.684.406l2.515-.509a.527.527,0,0,0,.146-.048.578.578,0,0,0,.322-.589l-.224-2.008-.055-.489a10.3,10.3,0,0,0,1.219-.806A10.441,10.441,0,0,0,4146.9,670a.576.576,0,0,1,.643-.155l2.121.833a.6.6,0,0,0,.753-.292l.877-1.771.25-.508a.6.6,0,0,0-.214-.78l-1.833-1.172a.576.576,0,0,1-.258-.628,10.443,10.443,0,0,0,.28-2.2,1.846,1.846,0,0,0,.005-.187.333.333,0,0,1,0-.063.59.59,0,0,1,.416-.505l2.452-.776a.449.449,0,0,0,.079-.032.6.6,0,0,0,.324-.65l-.5-2.509a.6.6,0,0,0-.651-.475l-2.8.317a.577.577,0,0,1-.579-.3,10.532,10.532,0,0,0-.878-1.343q-.264-.345-.551-.66a.608.608,0,0,1-.115-.63l.99-2.531a.58.58,0,0,0-.283-.732l-2.293-1.131a.606.606,0,0,0-.782.217l-1.109,1.736a.6.6,0,0,1-.693.245,10.426,10.426,0,0,0-3.163-.568.592.592,0,0,1-.558-.417l-.7-2.21a.613.613,0,0,0-.7-.415l-2.5.5a.587.587,0,0,0-.468.642l.013.118.261,2.333a.6.6,0,0,1-.323.6l0,0a10.37,10.37,0,0,0-1.55.985c-.265.2-.514.417-.756.639a.587.587,0,0,1-.618.121l-2.151-.846a.608.608,0,0,0-.768.295l-1.128,2.283a.668.668,0,0,0-.058.2.607.607,0,0,0,.271.566l1.467.932a.6.6,0,0,1,.274.526.672.672,0,0,1-.03.165,10.364,10.364,0,0,0-.529,4.074.584.584,0,0,1-.314.561.576.576,0,0,1-.093.038l-1.986.627a.594.594,0,0,0-.4.682l.012.058.489,2.445A.6.6,0,0,0,4127.193,668.737Zm17.2-7.634a7.01,7.01,0,0,1,.364,1.242,5.467,5.467,0,0,1-.388,2.951c-.041.083-.083.164-.125.245a5.644,5.644,0,0,1-10.459-4.171,3.67,3.67,0,0,1,.206-.508,6.415,6.415,0,0,1,1.283-1.766A5.6,5.6,0,0,1,4144.393,661.1Z" transform="translate(-759.683 -70.646)" fill="#e5e0f7"/>
    <g id="Grupo_98525" data-name="Grupo 98525" transform="translate(3199.697 721.033)">
      <path id="Trazado_217745" data-name="Trazado 217745" d="M3445.474,1380.8a3,3,0,0,0-3.348-3.264,4.287,4.287,0,0,1,1.677.9,4.313,4.313,0,0,0-4.858.733c-2.531,2.1-.958,7.362-1.728,8.361s-3.768,1.2-3.4,4.431,9.514,7.278,8.927,9.951c0,0,3.586-5.27,1.021-7.675a4.75,4.75,0,0,1,1.377,2.576s.339-2.731-1.4-3.6a6.415,6.415,0,0,1-2.665-4.106C3441.211,1388.591,3445.474,1380.8,3445.474,1380.8Z" transform="translate(-3402.18 -1377.532)" fill="#4a390c"/>
      <path id="Trazado_217746" data-name="Trazado 217746" d="M3459.356,1474.611s2.725,11.273,5.4,13.526c1.608,1.354,6.388,4.463,6.388,4.463l-1.989.722s-6.63-2.239-8.115-3.985-5.549-10.491-5.549-10.491Z" transform="translate(-3419.653 -1455.674)" fill="#f2deb7"/>
      <path id="Trazado_217747" data-name="Trazado 217747" d="M3337.012,1532.164l.075.132c.6,1.036,1.964,3.576,3.471,6.355.712,1.318,1.458,2.691,2.166,3.983,1.22,2.229,2.329,4.214,2.977,5.263.658,1.067,1.143,1.816,1.339,2.115v0a.5.5,0,0,1,.064.309,16.209,16.209,0,0,0,.043,2.795,21.441,21.441,0,0,0,7.005,13.886l1.813.268s-2.565-9.5-3.321-14.876a10.321,10.321,0,0,1-.139-2.13,22.239,22.239,0,0,0-.585-5.814,130.151,130.151,0,0,0-3.707-13.459c-.084-.263-2.634-9.484-2.634-9.484-2.139,1.87-9.943,2.642-9.943,2.642S3334.314,1527.367,3337.012,1532.164Z" transform="translate(-3322.917 -1493.423)" fill="#3b305d"/>
      <path id="Trazado_217748" data-name="Trazado 217748" d="M3429.3,1750.492h-7.565a4.156,4.156,0,0,1,.213-2.028c.379-.839.918-.866.07-2.182a4.609,4.609,0,0,0,3.12.553,9.236,9.236,0,0,0,1.311,2C3426.944,1749.186,3429.148,1749.06,3429.3,1750.492Z" transform="translate(-3392.448 -1674.349)" fill="#a092c9"/>
      <path id="Trazado_217749" data-name="Trazado 217749" d="M3344.021,1557.727c.024.043.05.088.074.132.6,1.036,3.821,6.993,5.328,9.771a40.284,40.284,0,0,1-.532-14.364Z" transform="translate(-3329.927 -1518.985)" fill="#29233d"/>
      <path id="Trazado_217750" data-name="Trazado 217750" d="M3464.074,1391.694a30.382,30.382,0,0,0-4.542,2.221c-2.05,2.274-1.465,5.241-.292,5.269.752.019.606,1.269.606,1.269l8.38-3.545S3467.217,1391.025,3464.074,1391.694Z" transform="translate(-3421.812 -1388.889)" fill="#4a390c"/>
      <path id="Trazado_217751" data-name="Trazado 217751" d="M3455.788,1465.934a10.728,10.728,0,0,1,1.116,4.614,8.018,8.018,0,0,1-5.525,3.042S3454.808,1465.932,3455.788,1465.934Z" transform="translate(-3416.342 -1448.689)" fill="#eec46f"/>
      <path id="Trazado_217752" data-name="Trazado 217752" d="M3295.9,1518.2l.026-1.415c-2.819.356-9.721-3.369-9.721-3.369s-2.949,1.962-3.352,7.564c-.2,2.734-1.444,14.3-1.582,17.751-.051,1.252-.067,2.145-.073,2.5a.023.023,0,0,1,0,0,.5.5,0,0,1-.12.291,16.132,16.132,0,0,0-1.528,2.342c-4.3,8-2.052,18.879-2.052,18.879l1-.254s3.638-11.274,6.015-16.151a10.187,10.187,0,0,1,1.077-1.843,22.249,22.249,0,0,0,2.765-5.148C3290.11,1535.155,3295.9,1518.2,3295.9,1518.2Z" transform="translate(-3275.907 -1486.907)" fill="#3b305d"/>
      <path id="Trazado_217753" data-name="Trazado 217753" d="M3279.375,1750.266h-7.565a4.153,4.153,0,0,1,.214-2.028c.379-.839.971-1.221.83-2.236a2.724,2.724,0,0,0,2.358.9,8.253,8.253,0,0,0,1.313,1.7C3277.019,1748.961,3279.223,1748.834,3279.375,1750.266Z" transform="translate(-3271.769 -1674.124)" fill="#a092c9"/>
      <path id="Trazado_217754" data-name="Trazado 217754" d="M3347.544,1457.522c-1.016.173.166.981-1.231,1.133a25.268,25.268,0,0,0-5.12.795,1.155,1.155,0,0,0-.737.6c-.466,1.4-3.42,3.812-3.42,3.812-13.174-.6-14.021-6.471-14.021-6.471,8.55-8.3,15.823-12.83,21.834-13.39a10.7,10.7,0,0,1,4.36.458c2.1.936,3.255,3.785,3.255,3.785S3351.405,1456.864,3347.544,1457.522Z" transform="translate(-3313.019 -1430.997)" fill="#eec46f"/>
      <path id="Trazado_217755" data-name="Trazado 217755" d="M3421.147,1475.1a25.258,25.258,0,0,0-5.119.795,20.98,20.98,0,0,1,2.661-11.512S3420.711,1472.61,3421.147,1475.1Z" transform="translate(-3387.853 -1447.437)" fill="#ebb04c"/>
      <path id="Trazado_217756" data-name="Trazado 217756" d="M3456.612,1436.864c.376,1.178,1.629,4.534,3.367,3.243a4.277,4.277,0,0,1,.737-1.719c.55-.945,1.205-1.912,1.205-1.912L3459.09,1434l-.169-.148a7.227,7.227,0,0,1-2.106,2.391A.565.565,0,0,0,3456.612,1436.864Z" transform="translate(-3420.533 -1422.862)" fill="#f2deb7"/>
      <path id="Trazado_217757" data-name="Trazado 217757" d="M3472.039,1437.089s-.654.964-1.205,1.911c-1.76-1.085-1.761-3.264-1.626-4.393Z" transform="translate(-3430.651 -1423.473)" fill="#edd1a2"/>
      <path id="Trazado_217758" data-name="Trazado 217758" d="M3471.633,1417.455s-4.273-2.378-2.751-5.016,2-4.722,4.788-3.315,2.737,2.716,2.443,3.72S3472.784,1418.005,3471.633,1417.455Z" transform="translate(-3430.167 -1402.596)" fill="#f2deb7"/>
      <path id="Trazado_217759" data-name="Trazado 217759" d="M3474.981,1409.83c-.2-1.171-.791-1.283-1.205-1.205a3.418,3.418,0,0,0-4.156-1.591,5.817,5.817,0,0,1-3.368,2.023s.5.923,2.539,1.494a3.493,3.493,0,0,0,2.016-.161,11.4,11.4,0,0,1-2.9,1.093c2.692.246,5.254-2.215,5.52-2.478a3.838,3.838,0,0,1,.211,1.764c-.177.793-.882,2.23-.451,2.416C3473.186,1413.184,3475.275,1411.587,3474.981,1409.83Z" transform="translate(-3428.314 -1401.121)" fill="#4a390c"/>
      <g id="Grupo_98524" data-name="Grupo 98524" transform="translate(37.547 32.577)">
        <rect id="Rectángulo_40891" data-name="Rectángulo 40891" width="35.471" height="9.303" transform="matrix(0.899, 0.438, -0.438, 0.899, 19.811, 10.007)" fill="#3b305d"/>
        <g id="Grupo_98522" data-name="Grupo 98522">
          <path id="Trazado_217760" data-name="Trazado 217760" d="M3470.007,1564.648a10.542,10.542,0,0,1-5.706-7.254,2.4,2.4,0,0,1,4.679-1.028,5.8,5.8,0,1,0,4.027-6.805,2.4,2.4,0,0,1-1.357-4.6,10.593,10.593,0,1,1-1.644,19.682Z" transform="translate(-3464.245 -1544.531)" fill="#3b305d"/>
        </g>
        <g id="Grupo_98523" data-name="Grupo 98523" transform="translate(44.917 21.993)">
          <path id="Trazado_217761" data-name="Trazado 217761" d="M3700.455,1677.386a10.593,10.593,0,1,1,14.493-13.418,2.4,2.4,0,0,1-4.456,1.761,5.8,5.8,0,1,0-2.881,7.364,2.4,2.4,0,0,1,2.072,4.32A10.543,10.543,0,0,1,3700.455,1677.386Z" transform="translate(-3694.504 -1657.271)" fill="#3b305d"/>
        </g>
        <path id="Trazado_217762" data-name="Trazado 217762" d="M3598.861,1635.349l-16.8-8.189a.977.977,0,0,1-.448-1.3l.427-.876a.977.977,0,0,1,1.3-.449l16.8,8.189a.978.978,0,0,1,.449,1.3l-.427.876A.977.977,0,0,1,3598.861,1635.349Z" transform="translate(-3558.641 -1608.847)" fill="#29233d"/>
      </g>
      <path id="Trazado_217763" data-name="Trazado 217763" d="M3463.8,1603.213a2.827,2.827,0,0,0,.428,1.208c.337.411,1.316,1.406,1.333,1.988,0,0-.05.259-.26.211s-.939-.769-1.313-.717a7.221,7.221,0,0,0,.4,1.5,4.1,4.1,0,0,1,.443,1.851c-.119.284-2.1-1.368-2.7-2.174s-.01-4.081-.01-4.081Z" transform="translate(-3424.775 -1559.013)" fill="#f2deb7"/>
      <path id="Trazado_217764" data-name="Trazado 217764" d="M3426.167,1458.653s-5-.273-5.892,2.867,1.668,15.677,2.219,16.971c1,2.355,5.886,9.079,5.886,9.079l1.8-.547s-3.257-10.271-3.983-11.287C3425.052,1474.141,3427.664,1460.02,3426.167,1458.653Z" transform="translate(-3391.156 -1442.824)" fill="#f2deb7"/>
      <path id="Trazado_217765" data-name="Trazado 217765" d="M3415.986,1461.893c.013.074,4.734.869,7.686-.63,0,0,2.467-7.728-1.058-7.358s-5.613,1.48-5.7,3.168A32.441,32.441,0,0,1,3415.986,1461.893Z" transform="translate(-3387.853 -1438.996)" fill="#eec46f"/>
      <path id="Trazado_217766" data-name="Trazado 217766" d="M3518.377,1541.031a1.96,1.96,0,0,0-.829.209c-.273.21-.58.576.032.881.917.457,2.75.254,2.679-.021C3520.032,1541.233,3519.7,1540.97,3518.377,1541.031Z" transform="translate(-3469.343 -1509.13)" fill="#f2deb7"/>
    </g>
    <g id="Grupo_98528" data-name="Grupo 98528" transform="translate(3254.402 561.932)">
      <path id="Trazado_217767" data-name="Trazado 217767" d="M3657.342,878.739a.855.855,0,0,0-.152.915.006.006,0,0,0,0,0,5.69,5.69,0,0,0,1.8,1.972c.108.087.2.167.288.24l.065.058.05.045c.79.728.493.9,1.912,2.373,1.619,1.684,2.733,1.714,3.05,1.561.269-.131-.277-1.024-.88-2.028-.029-.048-.058-.1-.088-.146-.081-.133-.16-.269-.24-.4-.707-1.208-.526-1.775-.358-3.573.136-1.461,2.273-8.162,2.273-8.162l-3.1-.534s-.934,5.336-1.963,6.158c-.55.438-1.166.443-1.695.768-.037.022-.074.046-.11.069A4.052,4.052,0,0,0,3657.342,878.739Z" transform="translate(-3636.655 -810.759)" fill="#f2deb7"/>
      <path id="Trazado_217768" data-name="Trazado 217768" d="M3657.342,907.318a.855.855,0,0,0-.152.915.006.006,0,0,0,0,0,6.59,6.59,0,0,0,1.8,1.966c.107.089.2.17.285.246l.065.058.05.045c.79.728.493.9,1.912,2.373,1.619,1.684,2.733,1.714,3.05,1.561.269-.131-.277-1.024-.88-2.028a6.9,6.9,0,0,1-2.885-2.126c-.975-1.244-1.624-2.841-2.288-3.767-.037.022-.074.046-.11.069A4.05,4.05,0,0,0,3657.342,907.318Z" transform="translate(-3636.655 -839.339)" fill="#29233d"/>
      <path id="Trazado_217769" data-name="Trazado 217769" d="M3776.216,872.907c.191.957,1.556.8,3.081.425s1.162.07,3.332-.17,2.827-1.049,2.893-1.372c.06-.286-1.012-.387-2.163-.52l-.435-.052c-1.3-.163-2.249-1-3.428-1.689-1.117-.652-2.784-3.307-2.784-3.307l-2.976.236s1.562,2.372,2.165,3.4a3.592,3.592,0,0,1,.292,2.028A3.824,3.824,0,0,0,3776.216,872.907Z" transform="translate(-3730.521 -806.865)" fill="#f2deb7"/>
      <path id="Trazado_217770" data-name="Trazado 217770" d="M3789.344,894.162c1.524-.373,1.162.07,3.332-.17s2.828-1.049,2.894-1.372c.06-.286-1.013-.387-2.163-.52l-.01.022a6.119,6.119,0,0,1-3.107.966c-1.473.036-3.031-.386-4.048-.37a3.823,3.823,0,0,0,.022,1.018C3786.455,894.695,3787.819,894.535,3789.344,894.162Z" transform="translate(-3740.568 -827.695)" fill="#29233d"/>
      <path id="Trazado_217771" data-name="Trazado 217771" d="M3685.866,783.265l-2.782,7.485-3.632,9.774a5.883,5.883,0,0,1-1.929-.176,8.354,8.354,0,0,1-1.866-.908s1.009-10.494,2.89-16.518a10.722,10.722,0,0,1,1.619-3.5C3683.082,775.973,3685.866,783.265,3685.866,783.265Z" transform="translate(-3651.575 -736.249)" fill="#29233d"/>
      <path id="Trazado_217772" data-name="Trazado 217772" d="M3602.467,735.839c-1.822-.588-7.021.167-12.242,1.189l-1.093-1.8-11.278-.881s-3.722,8.253-1.684,13.512a1.907,1.907,0,0,0,1.909,1.285h.165l8.892,0c5.608,0,11.87-3.856,12.68-4.018,1.326-.265,1.856,2.386,3.182,5.171s12.462,12.329,12.462,12.329a9.8,9.8,0,0,0,2.419-.248,2.381,2.381,0,0,0,1.038-.656S3606.576,737.165,3602.467,735.839Z" transform="translate(-3571.003 -700.711)" fill="#3b305d"/>
      <path id="Trazado_217773" data-name="Trazado 217773" d="M3566.594,562.112a11.89,11.89,0,0,0-4.1.034c-4.292.423-5.734,5.21-5.084,8.923.6,3.428-1.139,4.376-3.154,7.083-4.04,5.428-1.4,10.005,1.788,11.185,1.913.708,4.568-1.078,4.568-1.078a123.278,123.278,0,0,0,11.745-8.509C3578.018,577.534,3570.621,563.148,3566.594,562.112Z" transform="translate(-3552.202 -561.932)" fill="#4a390c"/>
      <path id="Trazado_217774" data-name="Trazado 217774" d="M3605.352,621.593c.113.4-1.764,1.128-3.2.859-1.348-.251-2.859-1.83-2.547-1.978.516-.245.863-.855.581-4.151l.256.029,4.313.492s.013,1.343.113,2.6A8.534,8.534,0,0,0,3605.352,621.593Z" transform="translate(-3590.327 -605.713)" fill="#f2deb7"/>
      <path id="Trazado_217775" data-name="Trazado 217775" d="M3608.384,616.964s.013,1.343.113,2.6c-2.38.128-3.813-1.936-4.426-3.094Z" transform="translate(-3593.953 -605.833)" fill="#edd1a2"/>
      <path id="Trazado_217776" data-name="Trazado 217776" d="M3605.056,586.21s-5.612.553-5.9-2.946-1.211-5.785,2.36-6.287,4.378.776,4.76,1.921S3606.509,585.976,3605.056,586.21Z" transform="translate(-3589.734 -573.952)" fill="#f2deb7"/>
      <path id="Trazado_217777" data-name="Trazado 217777" d="M3597.585,572.32s-.707,4.275-3.9,5.29c-2.331.74-3.387.252-3.387.252a9.511,9.511,0,0,0,1.521-3.557,1.71,1.71,0,0,1,1.142-1.306C3594.614,572.454,3596.622,570.964,3597.585,572.32Z" transform="translate(-3582.864 -569.847)" fill="#4a390c"/>
      <path id="Trazado_217778" data-name="Trazado 217778" d="M3622.244,575.237a3.713,3.713,0,0,1,1.995,1.6,7.163,7.163,0,0,1,1,3.458s.982-3.957-.449-5.429A1.491,1.491,0,0,0,3622.244,575.237Z" transform="translate(-3608.581 -571.853)" fill="#4a390c"/>
      <path id="Trazado_217779" data-name="Trazado 217779" d="M3575.3,648.935c.1.425.185.816.255,1.177.115.582.193,1.084.249,1.526.171,1.38.12,2.2.236,3.093a7.746,7.746,0,0,0,.419,1.684c.232.641,6.33,1.213,9.8.982a4.755,4.755,0,0,0,2.239-.484c1.237-1.075,1.114,1.289,1.284-10.022.083-5.517-4.681-10.431-4.681-10.431s-.38,2.357-5.1-.448c-.168-.1-2.029,2.657-3.819,6.05C3574.2,645.809,3574.745,646.6,3575.3,648.935Z" transform="translate(-3570.381 -621.559)" fill="#eec46f"/>
      <path id="Trazado_217780" data-name="Trazado 217780" d="M3683.084,809.015l-3.632,9.774a5.88,5.88,0,0,1-1.929-.176,8.354,8.354,0,0,1-1.866-.908s1.009-10.494,2.89-16.518Z" transform="translate(-3651.575 -754.514)" fill="#29233d"/>
      <path id="Trazado_217781" data-name="Trazado 217781" d="M3627.665,638.315s4.861.824,5.432,2.917,4.515,13.8,4.515,13.8-3.056,1.043-4.2-.1-3.972-10.592-3.972-10.592Z" transform="translate(-3612.945 -623.415)" fill="#eec46f"/>
      <path id="Trazado_217782" data-name="Trazado 217782" d="M3624.107,613.715a.966.966,0,0,0,.857.576c.621,0,.789-.093.907-.225a1.939,1.939,0,0,0,.234-.385A5.273,5.273,0,0,0,3624.107,613.715Z" transform="translate(-3610.081 -603.521)" fill="#fff"/>
      <path id="Trazado_217783" data-name="Trazado 217783" d="M3580.01,714.828c.171,1.38.119,2.2.235,3.093,4.414.014,10.315-3.409,10.315-3.409Z" transform="translate(-3574.586 -684.748)" fill="#ebb04c"/>
      <path id="Trazado_217784" data-name="Trazado 217784" d="M3589.8,676.353s-6.876-.2-8.035-4.113c-1.273-4.294-2.7,1.766-2.7,1.766l.759,3.867h7.544Z" transform="translate(-3573.827 -649.484)" fill="#ebb04c"/>
      <g id="Grupo_98527" data-name="Grupo 98527" transform="translate(18.316 13.711)">
        <path id="Trazado_217785" data-name="Trazado 217785" d="M3655.743,634.772l-.372-.92a2.61,2.61,0,0,0-2.42-1.633H3646.1v22.919h28.356V636.569h-16.046A2.873,2.873,0,0,1,3655.743,634.772Z" transform="translate(-3646.097 -632.219)" fill="#7463b4"/>
        <g id="Grupo_98526" data-name="Grupo 98526" transform="translate(4.277 7.771)">
          <path id="Trazado_217786" data-name="Trazado 217786" d="M3668.023,686.374v-1.652l5.795-2.538v1.688l-4.046,1.664,4.046,1.664v1.712Z" transform="translate(-3668.023 -680.209)" fill="#fff"/>
          <path id="Trazado_217787" data-name="Trazado 217787" d="M3706.712,672.058h1.545l-5.3,11.086h-1.544Z" transform="translate(-3694.896 -672.058)" fill="#fff"/>
          <path id="Trazado_217788" data-name="Trazado 217788" d="M3745.623,684.722v1.652l-5.794,2.538v-1.688l4.046-1.664-4.046-1.664v-1.712Z" transform="translate(-3725.822 -680.209)" fill="#fff"/>
        </g>
      </g>
      <path id="Trazado_217789" data-name="Trazado 217789" d="M3634.093,694.491l.5-.781a4,4,0,0,0,.946-.516c.657-.461.57-1.152.9-1.079l0,1.518-.035.005c1.409.377,3.057-.033,3.09.318.091.965-.656,1.4-1.281,1.7a2.267,2.267,0,0,1-1.887.309c-.632-.2-1.627-.4-1.627-.4Z" transform="translate(-3618.118 -666.716)" fill="#f2deb7"/>
      <path id="Trazado_217790" data-name="Trazado 217790" d="M3569.983,636.026s-4.464.292-5.58,2.033-2.5,10.579-1.92,13.615,14.874-.58,14.874-.58l-.455-2.634s-8.25.048-8.72-1.027C3567.558,646,3569.983,636.026,3569.983,636.026Z" transform="translate(-3560.368 -621.572)" fill="#eec46f"/>
      <path id="Trazado_217791" data-name="Trazado 217791" d="M3711.939,650.94a1.661,1.661,0,0,0,1.685,1.082c.632-.127,1.453-1.487.731-1.787A2.053,2.053,0,0,0,3711.939,650.94Z" transform="translate(-3680.777 -632.89)" fill="#f2deb7"/>
    </g>
    <g id="Grupo_98534" data-name="Grupo 98534" transform="translate(3319.717 610.218)">
      <g id="Grupo_98529" data-name="Grupo 98529" transform="translate(9.335 0.02)">
        <rect id="Rectángulo_40892" data-name="Rectángulo 40892" width="35.204" height="0.17" transform="matrix(0.471, -0.882, 0.882, 0.471, 0, 31.056)" fill="#3b305d"/>
      </g>
      <g id="Grupo_98530" data-name="Grupo 98530" transform="translate(67.986 0)">
        <rect id="Rectángulo_40893" data-name="Rectángulo 40893" width="0.17" height="27.413" transform="translate(0 0.116) rotate(-42.827)" fill="#3b305d"/>
      </g>
      <g id="Grupo_98533" data-name="Grupo 98533" transform="translate(0 19.627)">
        <path id="Trazado_217792" data-name="Trazado 217792" d="M3985.3,916.479a7.457,7.457,0,0,1-1.391,5.461,7.109,7.109,0,0,1-4.755,2.844l-83.317,11.448a7.628,7.628,0,0,1-8.738-6.26,7.172,7.172,0,0,1,1.561-5.483,8,8,0,0,1,5.165-2.9l83.317-11.448A7.327,7.327,0,0,1,3985.3,916.479Z" transform="translate(-3887.031 -910.074)" fill="#fff"/>
        <path id="Trazado_217793" data-name="Trazado 217793" d="M4294.9,916.479a7.455,7.455,0,0,1-1.391,5.461,7.109,7.109,0,0,1-4.754,2.844l-15.077,2.072-2.012-14.644,15.078-2.072A7.327,7.327,0,0,1,4294.9,916.479Z" transform="translate(-4196.633 -910.074)" fill="#3b305d"/>
        <g id="Grupo_98532" data-name="Grupo 98532" transform="translate(80.983 2.881)">
          <g id="Grupo_98531" data-name="Grupo 98531" transform="translate(3.82)">
            <path id="Trazado_217794" data-name="Trazado 217794" d="M4326.043,932.341a3.838,3.838,0,0,1-.563.035,3.767,3.767,0,0,1-2.589-6.461h0a3.767,3.767,0,1,1,3.153,6.426Zm-2.719-5.982a3.146,3.146,0,1,0,4.449.051,3.15,3.15,0,0,0-4.449-.051Z" transform="translate(-4321.758 -924.845)" fill="#fff"/>
          </g>
          <rect id="Rectángulo_40894" data-name="Rectángulo 40894" width="0.62" height="5.14" transform="matrix(0.699, 0.715, -0.715, 0.699, 4.895, 5.959)" fill="#fff"/>
          <path id="Trazado_217795" data-name="Trazado 217795" d="M4302.334,968.732h0a.554.554,0,0,1,.01-.783l2.165-2.116a.554.554,0,0,1,.784.009h0a.554.554,0,0,1-.01.783l-2.166,2.116A.554.554,0,0,1,4302.334,968.732Z" transform="translate(-4302.177 -957.711)" fill="#fff"/>
        </g>
      </g>
    </g>
    <g id="Grupo_98537" data-name="Grupo 98537" transform="translate(3260.007 714.232)">
      <rect id="Rectángulo_40895" data-name="Rectángulo 40895" width="18.719" height="1.588" rx="0.794" fill="#eec46f"/>
      <g id="Grupo_98536" data-name="Grupo 98536" transform="translate(0 3.693)">
        <path id="Trazado_217796" data-name="Trazado 217796" d="M3590.065,1374.336h-8.588a.542.542,0,0,1-.542-.542h0a.542.542,0,0,1,.542-.542h8.588a.542.542,0,0,1,.542.542h0A.542.542,0,0,1,3590.065,1374.336Z" transform="translate(-3580.935 -1370.979)" fill="#3b305d"/>
        <g id="Grupo_98535" data-name="Grupo 98535">
          <rect id="Rectángulo_40896" data-name="Rectángulo 40896" width="16.212" height="1.084" rx="0.542" fill="#3b305d"/>
          <rect id="Rectángulo_40897" data-name="Rectángulo 40897" width="15.138" height="1.084" rx="0.542" transform="translate(17.689)" fill="#3b305d"/>
          <path id="Trazado_217797" data-name="Trazado 217797" d="M3644.982,1374.336h-8.589a.542.542,0,0,1-.542-.542h0a.542.542,0,0,1,.542-.542h8.589a.542.542,0,0,1,.542.542h0A.542.542,0,0,1,3644.982,1374.336Z" transform="translate(-3625.138 -1370.979)" fill="#3b305d"/>
        </g>
      </g>
      <path id="Rectángulo_40898" data-name="Rectángulo 40898" d="M.794,0H17.925a.794.794,0,0,1,.794.794v0a.794.794,0,0,1-.794.794H.794A.794.794,0,0,1,0,.794v0A.794.794,0,0,1,.794,0Z" transform="translate(21.196)" fill="#eec46f"/>
    </g>
    <g id="Grupo_98540" data-name="Grupo 98540" transform="translate(3260.007 726.19)">
      <path id="Rectángulo_40899" data-name="Rectángulo 40899" d="M.794,0H17.925a.794.794,0,0,1,.794.794v0a.794.794,0,0,1-.794.794H.794A.794.794,0,0,1,0,.794v0A.794.794,0,0,1,.794,0Z" transform="translate(0 0)" fill="#eec46f"/>
      <g id="Grupo_98539" data-name="Grupo 98539" transform="translate(0 3.692)">
        <path id="Trazado_217798" data-name="Trazado 217798" d="M3590.065,1435.635h-8.588a.542.542,0,0,1-.542-.542h0a.542.542,0,0,1,.542-.542h8.588a.542.542,0,0,1,.542.542h0A.542.542,0,0,1,3590.065,1435.635Z" transform="translate(-3580.935 -1432.278)" fill="#3b305d"/>
        <g id="Grupo_98538" data-name="Grupo 98538">
          <rect id="Rectángulo_40900" data-name="Rectángulo 40900" width="16.212" height="1.084" rx="0.542" fill="#3b305d"/>
          <rect id="Rectángulo_40901" data-name="Rectángulo 40901" width="15.138" height="1.084" rx="0.542" transform="translate(17.689)" fill="#3b305d"/>
          <path id="Trazado_217799" data-name="Trazado 217799" d="M3644.982,1435.635h-8.589a.542.542,0,0,1-.542-.542h0a.542.542,0,0,1,.542-.542h8.589a.542.542,0,0,1,.542.542h0A.542.542,0,0,1,3644.982,1435.635Z" transform="translate(-3625.138 -1432.278)" fill="#3b305d"/>
        </g>
      </g>
      <path id="Rectángulo_40902" data-name="Rectángulo 40902" d="M.794,0H17.925a.794.794,0,0,1,.794.794v0a.794.794,0,0,1-.794.794H.794A.794.794,0,0,1,0,.794v0A.794.794,0,0,1,.794,0Z" transform="translate(21.196 0)" fill="#eec46f"/>
    </g>
    <g id="Grupo_98541" data-name="Grupo 98541" transform="translate(3349.936 645.974)">
      <path id="Trazado_217800" data-name="Trazado 217800" d="M4060.552,1001.884l-9.941,2.313-4.916,8.945-3.753-20.386Z" transform="translate(-4041.942 -992.757)" fill="#29233d"/>
      <rect id="Rectángulo_40903" data-name="Rectángulo 40903" width="1.817" height="10.514" transform="translate(6.678 10.574) rotate(-37.154)" fill="#29233d"/>
    </g>
    <g id="Grupo_98543" data-name="Grupo 98543" transform="translate(3335.802 669.211)">
      <path id="Rectángulo_40904" data-name="Rectángulo 40904" d="M9.183,0h9.661a9.184,9.184,0,0,1,9.184,9.184v9.661a9.184,9.184,0,0,1-9.184,9.184H9.183A9.183,9.183,0,0,1,0,18.845V9.183A9.183,9.183,0,0,1,9.183,0Z" transform="translate(0 0)" fill="#e5e0f7"/>
      <g id="Grupo_98542" data-name="Grupo 98542" transform="translate(3.353 5.615)">
        <path id="Trazado_217801" data-name="Trazado 217801" d="M3986.9,1181.186l5.446-9.819a1.791,1.791,0,0,1,3.011-.19l3.141,4.285a1.792,1.792,0,0,0,2.767.15h0a1.791,1.791,0,0,1,2.825.235l3.39,5.234a1.792,1.792,0,0,1-1.5,2.765h-17.511A1.791,1.791,0,0,1,3986.9,1181.186Z" transform="translate(-3986.676 -1164.636)" fill="#3b305d"/>
        <path id="Trazado_217802" data-name="Trazado 217802" d="M4042.941,1142.809a2.143,2.143,0,1,1,2.143,2.142A2.143,2.143,0,0,1,4042.941,1142.809Z" transform="translate(-4031.965 -1140.666)" fill="#3b305d"/>
      </g>
    </g>
    <g id="Grupo_98545" data-name="Grupo 98545" transform="translate(3368.336 670.207)">
      <path id="Trazado_217803" data-name="Trazado 217803" d="M4165.828,1144.77l-24.221,3.3a1.792,1.792,0,0,1-2.018-1.533l-3.3-24.221a1.791,1.791,0,0,1,1.532-2.017l24.222-3.3a1.793,1.793,0,0,1,2.018,1.533l3.3,24.221A1.792,1.792,0,0,1,4165.828,1144.77Z" transform="translate(-4136.269 -1116.982)" fill="#e5e0f7"/>
      <g id="Grupo_98544" data-name="Grupo 98544" transform="translate(6.194 6.881)">
        <path id="Trazado_217804" data-name="Trazado 217804" d="M4168.145,1197.455l4.07-10.465a1.791,1.791,0,0,1,2.958-.6l3.691,3.821a1.792,1.792,0,0,0,2.762-.225h0a1.791,1.791,0,0,1,2.831-.149l4.066,4.728a1.792,1.792,0,0,1-1.117,2.943l-17.35,2.366A1.791,1.791,0,0,1,4168.145,1197.455Z" transform="translate(-4168.021 -1179.295)" fill="#3b305d"/>
        <path id="Trazado_217805" data-name="Trazado 217805" d="M4213.186,1154.687a2.143,2.143,0,1,1,2.413,1.833A2.144,2.144,0,0,1,4213.186,1154.687Z" transform="translate(-4204.36 -1152.255)" fill="#3b305d"/>
      </g>
    </g>
    <g id="Grupo_98546" data-name="Grupo 98546" transform="translate(3311.981 784.063)">
      <rect id="Rectángulo_40905" data-name="Rectángulo 40905" width="14.125" height="12.111" transform="translate(0.57 0.518)" fill="#eec46f"/>
      <rect id="Rectángulo_40906" data-name="Rectángulo 40906" width="15.173" height="0.936" transform="translate(0 0)" fill="#a092c9"/>
      <rect id="Rectángulo_40907" data-name="Rectángulo 40907" width="14.125" height="3.847" transform="translate(0.57 3.795)" fill="#a092c9"/>
    </g>
    <path id="Trazado_217806" data-name="Trazado 217806" d="M3952.124,1752.034h-13.337a.884.884,0,0,1-.885-.884v-1.479a.885.885,0,0,1,.981-.879l13.338,1.479a.884.884,0,0,1,.786.879h0A.884.884,0,0,1,3952.124,1752.034Z" transform="translate(-608.261 -955.333)" fill="#eec46f"/>
    <path id="Trazado_217807" data-name="Trazado 217807" d="M3510.6,1766.381l-298.359-.1a.417.417,0,0,1-.363-.453v-.232a.417.417,0,0,1,.364-.452l298.358.1a.416.416,0,0,1,.363.452v.232A.416.416,0,0,1,3510.6,1766.381Z" transform="translate(-23.862 -968.497)" fill="#29233d"/>
    <g id="Grupo_98547" data-name="Grupo 98547" transform="translate(3264.456 663.972)">
      <path id="Trazado_217808" data-name="Trazado 217808" d="M3659.852,1119.388h-1.538a.253.253,0,0,1,0-.505h1.527a.257.257,0,0,1,.258.253A.248.248,0,0,1,3659.852,1119.388Zm-3.064,0h-1.527a.253.253,0,1,1,0-.505h1.527a.253.253,0,1,1,0,.505Zm-3.054,0h-1.526a.253.253,0,1,1,0-.505h1.526a.253.253,0,1,1,0,.505Zm-3.053,0h-1.527a.253.253,0,1,1,0-.505h1.527a.253.253,0,1,1,0,.505Zm-3.053,0H3646.1a.253.253,0,1,1,0-.505h1.527a.253.253,0,1,1,0,.505Zm-3.054,0h-1.526a.253.253,0,1,1,0-.505h1.526a.253.253,0,1,1,0,.505Zm-3.053,0h-1.527a.253.253,0,1,1,0-.505h1.527a.253.253,0,0,1,0,.505Zm-3.053,0h-1.527a.253.253,0,0,1,0-.505h1.527a.253.253,0,0,1,0,.505Zm-3.053,0h-1.527a.253.253,0,0,1,0-.505h1.527a.253.253,0,1,1,0,.505Zm-3.053,0h-1.527a.253.253,0,1,1,0-.505h1.527a.253.253,0,1,1,0,.505Zm-3.053,0h-1.527a.253.253,0,1,1,0-.505h1.527a.253.253,0,1,1,0,.505Zm-3.054,0h-1.526a.253.253,0,1,1,0-.505h1.526a.253.253,0,1,1,0,.505Zm-3.053,0h-1.526a.253.253,0,1,1,0-.505h1.526a.253.253,0,1,1,0,.505Zm-3.053,0h-1.527a.253.253,0,1,1,0-.505h1.527a.253.253,0,1,1,0,.505Zm-3.053,0h-1.527a.253.253,0,1,1,0-.505h1.527a.253.253,0,0,1,0,.505Zm-3.053,0h-1.527a.253.253,0,1,1,0-.505h1.527a.253.253,0,0,1,0,.505Zm-3.053,0h-1.527a.253.253,0,0,1,0-.505h1.527a.253.253,0,1,1,0,.505Zm-3.053,0h-1.361q-.092,0-.182-.006a.253.253,0,0,1,.032-.5q.075,0,.15,0h1.361a.253.253,0,1,1,0,.505Zm53.353-.444a.253.253,0,0,1-.143-.462,2.323,2.323,0,0,0,.853-1.056.253.253,0,1,1,.469.189,2.834,2.834,0,0,1-1.037,1.285A.252.252,0,0,1,3661.289,1118.944Zm-56.287-.091a.251.251,0,0,1-.155-.053,2.823,2.823,0,0,1-.958-1.345.253.253,0,1,1,.479-.16,2.32,2.32,0,0,0,.787,1.1.253.253,0,0,1-.154.453Zm57.417-2.582a.253.253,0,0,1-.253-.253v-1.527a.253.253,0,1,1,.505,0v1.527A.253.253,0,0,1,3662.419,1116.271Zm-58.423-.155a.253.253,0,0,1-.253-.253v-1.527a.253.253,0,1,1,.505,0v1.527A.252.252,0,0,1,3604,1116.116Zm58.423-2.9a.253.253,0,0,1-.253-.253v-1.527a.253.253,0,0,1,.505,0v1.527A.253.253,0,0,1,3662.419,1113.218Zm-58.423-.155a.253.253,0,0,1-.253-.253v-1.527a.253.253,0,0,1,.505,0v1.527A.253.253,0,0,1,3604,1113.062Zm58.423-2.9a.253.253,0,0,1-.253-.253v-1.526a.253.253,0,0,1,.505,0v1.526A.253.253,0,0,1,3662.419,1110.165Zm-58.423-.155a.253.253,0,0,1-.253-.253v-1.527a.253.253,0,0,1,.505,0v1.527A.253.253,0,0,1,3604,1110.009Zm58.423-2.9a.253.253,0,0,1-.253-.253v-1.526a.253.253,0,1,1,.505,0v1.526A.253.253,0,0,1,3662.419,1107.111Zm-58.423-.155a.253.253,0,0,1-.253-.253v-1.526a.253.253,0,1,1,.505,0v1.526A.253.253,0,0,1,3604,1106.956Zm58.423-2.9a.253.253,0,0,1-.253-.253v-1.527a.253.253,0,1,1,.505,0v1.527A.252.252,0,0,1,3662.419,1104.058ZM3604,1103.9a.253.253,0,0,1-.253-.253v-1.526a.253.253,0,1,1,.505,0v1.526A.252.252,0,0,1,3604,1103.9Zm58.423-2.9a.253.253,0,0,1-.253-.253v-1.527a.253.253,0,1,1,.505,0v1.527A.252.252,0,0,1,3662.419,1101Zm-58.423-.155a.253.253,0,0,1-.253-.253v-1.527a.253.253,0,1,1,.505,0v1.527A.253.253,0,0,1,3604,1100.849Zm58.423-2.9a.253.253,0,0,1-.253-.253v-1.527a.253.253,0,0,1,.505,0v1.527A.252.252,0,0,1,3662.419,1097.951ZM3604,1097.8a.253.253,0,0,1-.253-.253v-1.527a.253.253,0,0,1,.505,0v1.527A.253.253,0,0,1,3604,1097.8Zm58.423-2.9a.253.253,0,0,1-.253-.253v-1.527a.253.253,0,0,1,.505,0v1.527A.252.252,0,0,1,3662.419,1094.9Zm-58.423-.155a.253.253,0,0,1-.253-.253v-1.527a.253.253,0,0,1,.505,0v1.527A.253.253,0,0,1,3604,1094.743Zm58.423-2.9a.253.253,0,0,1-.253-.253v-1.526a.253.253,0,1,1,.505,0v1.526A.253.253,0,0,1,3662.419,1091.845ZM3604,1091.69a.253.253,0,0,1-.253-.253v-1.526a.253.253,0,1,1,.505,0v1.526A.253.253,0,0,1,3604,1091.69Zm58.423-2.9a.253.253,0,0,1-.253-.253v-.689a2.34,2.34,0,0,0-.12-.742.252.252,0,1,1,.479-.161,2.827,2.827,0,0,1,.147.9v.689A.252.252,0,0,1,3662.419,1088.792Zm-58.423-.155a.253.253,0,0,1-.253-.253v-.534a2.823,2.823,0,0,1,.207-1.063.253.253,0,0,1,.469.19,2.312,2.312,0,0,0-.17.873v.534A.252.252,0,0,1,3604,1088.636Zm57.413-2.58a.251.251,0,0,1-.153-.052,2.312,2.312,0,0,0-1.27-.475.252.252,0,1,1,.031-.5,2.812,2.812,0,0,1,1.547.579.253.253,0,0,1-.154.453Zm-56.277-.091a.253.253,0,0,1-.142-.462,2.816,2.816,0,0,1,1.579-.485h0a.253.253,0,0,1,0,.505,2.314,2.314,0,0,0-1.3.4A.252.252,0,0,1,3605.132,1085.966Zm53.343-.441h-1.526a.253.253,0,1,1,0-.505h1.526a.253.253,0,1,1,0,.505Zm-3.053,0H3653.9a.253.253,0,1,1,0-.505h1.527a.253.253,0,1,1,0,.505Zm-3.053,0h-1.527a.253.253,0,0,1,0-.505h1.527a.253.253,0,0,1,0,.505Zm-3.053,0h-1.527a.253.253,0,0,1,0-.505h1.527a.253.253,0,0,1,0,.505Zm-3.053,0h-1.527a.253.253,0,0,1,0-.505h1.527a.253.253,0,1,1,0,.505Zm-3.053,0h-1.526a.253.253,0,1,1,0-.505h1.526a.253.253,0,1,1,0,.505Zm-3.053,0h-1.527a.253.253,0,1,1,0-.505h1.527a.253.253,0,1,1,0,.505Zm-3.054,0h-1.526a.253.253,0,1,1,0-.505h1.526a.253.253,0,1,1,0,.505Zm-3.053,0h-1.526a.253.253,0,1,1,0-.505h1.526a.253.253,0,1,1,0,.505Zm-3.053,0h-1.527a.253.253,0,1,1,0-.505H3631a.253.253,0,0,1,0,.505Zm-3.053,0h-1.527a.253.253,0,0,1,0-.505h1.527a.253.253,0,0,1,0,.505Zm-3.053,0h-1.527a.253.253,0,1,1,0-.505h1.527a.253.253,0,0,1,0,.505Zm-3.054,0h-1.526a.253.253,0,0,1,0-.505h1.526a.253.253,0,1,1,0,.505Zm-3.053,0h-1.527a.253.253,0,1,1,0-.505h1.527a.253.253,0,1,1,0,.505Zm-3.053,0H3614.2a.253.253,0,1,1,0-.505h1.527a.253.253,0,1,1,0,.505Zm-3.054,0h-1.526a.253.253,0,1,1,0-.505h1.526a.253.253,0,1,1,0,.505Zm-3.053,0H3608.1a.253.253,0,1,1,0-.505h1.527a.253.253,0,1,1,0,.505Z" transform="translate(-3603.744 -1085.019)" fill="#3b305d"/>
    </g>
    <g id="Grupo_98548" data-name="Grupo 98548" transform="translate(3380.577 731.755)">
      <path id="Trazado_217809" data-name="Trazado 217809" d="M4225.787,1441.451h-1.362a.224.224,0,0,1,0-.448h1.353a.228.228,0,0,1,.229.224A.22.22,0,0,1,4225.787,1441.451Zm-2.715,0h-1.353a.224.224,0,0,1,0-.448h1.353a.224.224,0,0,1,0,.448Zm-2.705,0h-1.352a.224.224,0,1,1,0-.448h1.352a.224.224,0,1,1,0,.448Zm-2.7,0h-1.352a.224.224,0,1,1,0-.448h1.352a.224.224,0,1,1,0,.448Zm-2.7,0h-1.353a.224.224,0,0,1,0-.448h1.353a.224.224,0,0,1,0,.448Zm-2.7,0H4210.9a.224.224,0,0,1,0-.448h1.353a.224.224,0,0,1,0,.448Zm-2.7,0H4208.2a.224.224,0,1,1,0-.448h1.353a.224.224,0,0,1,0,.448Zm-2.705,0h-1.353a.224.224,0,0,1,0-.448h1.353a.224.224,0,0,1,0,.448Zm-2.7,0h-1.354a.224.224,0,0,1,0-.448h1.354a.224.224,0,0,1,0,.448Zm-2.705,0h-1.364a.224.224,0,0,1,.022-.447h1.342a.224.224,0,0,1,0,.448Zm25.228-.857h-.008a.224.224,0,0,1-.216-.231v-1.345a.224.224,0,0,1,.449,0v1.36A.224.224,0,0,1,4226.662,1440.594Zm-27.419-.036a.224.224,0,0,1-.224-.224v-1.353a.224.224,0,0,1,.448,0v1.353A.224.224,0,0,1,4199.243,1440.559Zm27.419-2.669a.224.224,0,0,1-.224-.224v-1.353a.224.224,0,0,1,.449,0v1.353A.224.224,0,0,1,4226.662,1437.89Zm-27.419-.036a.224.224,0,0,1-.224-.224v-1.352a.224.224,0,0,1,.448,0v1.352A.223.223,0,0,1,4199.243,1437.854Zm27.419-2.669a.224.224,0,0,1-.224-.224v-1.352a.224.224,0,0,1,.449,0v1.352A.224.224,0,0,1,4226.662,1435.185Zm-27.419-.036a.224.224,0,0,1-.224-.224v-1.319c0-.014,0-.028,0-.043a.221.221,0,0,1,.233-.215.224.224,0,0,1,.215.233v1.344A.223.223,0,0,1,4199.243,1435.149Zm26.576-2.2h-1.353a.224.224,0,0,1,0-.448h1.362a.224.224,0,0,1-.009.447Zm-2.7,0h-1.353a.224.224,0,1,1,0-.448h1.353a.224.224,0,0,1,0,.448Zm-2.706,0h-1.352a.224.224,0,1,1,0-.448h1.352a.224.224,0,1,1,0,.448Zm-2.7,0h-1.353a.224.224,0,0,1,0-.448h1.353a.224.224,0,1,1,0,.448Zm-2.705,0h-1.352a.224.224,0,0,1,0-.448H4215a.224.224,0,1,1,0,.448Zm-2.705,0h-1.352a.224.224,0,0,1,0-.448h1.352a.224.224,0,1,1,0,.448Zm-2.7,0h-1.352a.224.224,0,0,1,0-.448h1.352a.224.224,0,1,1,0,.448Zm-2.7,0h-1.352a.224.224,0,1,1,0-.448h1.352a.224.224,0,0,1,0,.448Zm-2.7,0h-1.352a.224.224,0,0,1,0-.448h1.352a.224.224,0,0,1,0,.448Zm-2.7,0h-1.347a.226.226,0,0,1-.226-.224.221.221,0,0,1,.221-.224h1.352a.224.224,0,0,1,0,.448Z" transform="translate(-4199.019 -1432.497)" fill="#3b305d"/>
    </g>
    <g id="Grupo_98549" data-name="Grupo 98549" transform="translate(3288.932 639.32)">
      <path id="Trazado_217810" data-name="Trazado 217810" d="M3751.031,979.33h-1.506a.253.253,0,1,1,0-.505h1.5a.257.257,0,0,1,.258.253A.249.249,0,0,1,3751.031,979.33Zm-3,0h-1.5a.253.253,0,1,1,0-.505h1.5a.253.253,0,1,1,0,.505Zm-2.993,0h-1.5a.253.253,0,1,1,0-.505h1.5a.253.253,0,1,1,0,.505Zm-2.993,0h-1.5a.253.253,0,1,1,0-.505h1.5a.253.253,0,1,1,0,.505Zm-2.993,0h-1.5a.253.253,0,1,1,0-.505h1.5a.253.253,0,0,1,0,.505Zm-2.993,0h-1.5a.253.253,0,1,1,0-.505h1.5a.253.253,0,1,1,0,.505Zm-2.993,0h-1.5a.253.253,0,1,1,0-.505h1.5a.253.253,0,1,1,0,.505Zm-2.965-.161a.251.251,0,0,1-.124-.033,1.5,1.5,0,0,1-.759-1.3v-.183a.253.253,0,1,1,.505,0v.184a.992.992,0,0,0,.5.862.253.253,0,0,1-.125.473Zm22.087-.644a.253.253,0,0,1-.236-.342.985.985,0,0,0,.063-.349v-1.049a.253.253,0,0,1,.506,0v1.049a1.484,1.484,0,0,1-.1.527A.253.253,0,0,1,3752.185,978.525Zm-22.718-2.118a.252.252,0,0,1-.252-.253v-1.5a.253.253,0,1,1,.505,0v1.5A.253.253,0,0,1,3729.468,976.407Zm22.8-.866a.253.253,0,0,1-.253-.253v-1.5a.253.253,0,0,1,.506,0v1.5A.253.253,0,0,1,3752.265,975.542Zm-22.8-2.127a.252.252,0,0,1-.252-.253v-1.5a.253.253,0,1,1,.505,0v1.5A.253.253,0,0,1,3729.468,973.414Zm22.8-.866a.253.253,0,0,1-.253-.253v-1.5a.253.253,0,0,1,.506,0v1.5A.253.253,0,0,1,3752.265,972.549Zm-22.8-2.127a.252.252,0,0,1-.252-.253v-1.5a.253.253,0,1,1,.505,0v1.5A.253.253,0,0,1,3729.468,970.421Zm22.8-.865a.254.254,0,0,1-.253-.253v-1.5a.253.253,0,0,1,.506,0v1.5A.253.253,0,0,1,3752.265,969.556Zm-22.8-2.127a.252.252,0,0,1-.252-.253v-1.5a.253.253,0,1,1,.505,0v1.5A.253.253,0,0,1,3729.468,967.428Zm22.8-.865a.254.254,0,0,1-.253-.253v-1.5a.253.253,0,0,1,.506,0v1.5A.253.253,0,0,1,3752.265,966.563Zm-22.8-2.128a.252.252,0,0,1-.252-.253v-1.5a.253.253,0,1,1,.505,0v1.5A.253.253,0,0,1,3729.468,964.435Zm22.8-.865a.254.254,0,0,1-.253-.253v-1.5a.253.253,0,0,1,.506,0v1.5A.253.253,0,0,1,3752.265,963.57Zm-22.8-2.128a.252.252,0,0,1-.252-.253v-1.044a1.489,1.489,0,0,1,.1-.532.253.253,0,1,1,.472.18.982.982,0,0,0-.064.352v1.044A.253.253,0,0,1,3729.468,961.442Zm22.8-.866a.253.253,0,0,1-.253-.253v-.179a.993.993,0,0,0-.506-.864.253.253,0,1,1,.248-.44,1.5,1.5,0,0,1,.764,1.3v.179A.253.253,0,0,1,3752.265,960.577Zm-2.1-1.422h-1.5a.253.253,0,0,1,0-.506h1.5a.253.253,0,1,1,0,.506Zm-2.993,0h-1.5a.253.253,0,0,1,0-.506h1.5a.253.253,0,0,1,0,.506Zm-2.993,0h-1.5a.253.253,0,1,1,0-.506h1.5a.253.253,0,1,1,0,.506Zm-2.993,0h-1.5a.253.253,0,0,1,0-.506h1.5a.253.253,0,1,1,0,.506Zm-2.993,0h-1.5a.253.253,0,1,1,0-.506h1.5a.253.253,0,0,1,0,.506Zm-2.993,0h-1.5a.253.253,0,1,1,0-.506h1.5a.253.253,0,0,1,0,.506Zm-2.993,0h-1.492a.255.255,0,0,1-.255-.253.251.251,0,0,1,.251-.253h1.5a.253.253,0,0,1,0,.506Z" transform="translate(-3729.216 -958.649)" fill="#3b305d"/>
    </g>
    <g id="Grupo_98550" data-name="Grupo 98550" transform="translate(3380.577 744.236)">
      <path id="Trazado_217811" data-name="Trazado 217811" d="M4225.787,1505.435h-1.362a.224.224,0,0,1,0-.448h1.353a.228.228,0,0,1,.229.224A.22.22,0,0,1,4225.787,1505.435Zm-2.715,0h-1.353a.224.224,0,0,1,0-.448h1.353a.224.224,0,0,1,0,.448Zm-2.705,0h-1.352a.224.224,0,1,1,0-.448h1.352a.224.224,0,1,1,0,.448Zm-2.7,0h-1.352a.224.224,0,1,1,0-.448h1.352a.224.224,0,1,1,0,.448Zm-2.7,0h-1.353a.224.224,0,0,1,0-.448h1.353a.224.224,0,0,1,0,.448Zm-2.7,0H4210.9a.224.224,0,0,1,0-.448h1.353a.224.224,0,0,1,0,.448Zm-2.7,0H4208.2a.224.224,0,1,1,0-.448h1.353a.224.224,0,0,1,0,.448Zm-2.705,0h-1.353a.224.224,0,0,1,0-.448h1.353a.224.224,0,0,1,0,.448Zm-2.7,0h-1.354a.224.224,0,0,1,0-.448h1.354a.224.224,0,0,1,0,.448Zm-2.705,0h-1.364a.224.224,0,0,1-.212-.235.221.221,0,0,1,.234-.213h1.342a.224.224,0,0,1,0,.448Zm25.228-.857h-.008a.224.224,0,0,1-.216-.231V1503a.224.224,0,0,1,.449,0v1.36A.224.224,0,0,1,4226.662,1504.578Zm-27.419-.036a.224.224,0,0,1-.224-.224v-1.352a.224.224,0,1,1,.448,0v1.352A.223.223,0,0,1,4199.243,1504.542Zm27.419-2.668a.224.224,0,0,1-.224-.224V1500.3a.224.224,0,0,1,.449,0v1.352A.224.224,0,0,1,4226.662,1501.874Zm-27.419-.036a.224.224,0,0,1-.224-.224v-1.352a.224.224,0,1,1,.448,0v1.352A.224.224,0,0,1,4199.243,1501.838Zm27.419-2.669a.224.224,0,0,1-.224-.224v-1.353a.224.224,0,0,1,.449,0v1.353A.224.224,0,0,1,4226.662,1499.169Zm-27.419-.036a.224.224,0,0,1-.224-.224v-1.319c0-.014,0-.029,0-.043a.221.221,0,0,1,.233-.214.224.224,0,0,1,.215.233v1.343A.223.223,0,0,1,4199.243,1499.133Zm26.576-2.2h-1.353a.224.224,0,0,1,0-.447h1.362a.224.224,0,0,1-.009.448Zm-2.7,0h-1.353a.224.224,0,1,1,0-.447h1.353a.224.224,0,0,1,0,.447Zm-2.706,0h-1.352a.224.224,0,1,1,0-.447h1.352a.224.224,0,1,1,0,.447Zm-2.7,0h-1.353a.224.224,0,0,1,0-.447h1.353a.224.224,0,1,1,0,.447Zm-2.705,0h-1.352a.224.224,0,0,1,0-.447H4215a.224.224,0,1,1,0,.447Zm-2.705,0h-1.352a.224.224,0,0,1,0-.447h1.352a.224.224,0,1,1,0,.447Zm-2.7,0h-1.352a.224.224,0,0,1,0-.447h1.352a.224.224,0,1,1,0,.447Zm-2.7,0h-1.352a.224.224,0,1,1,0-.447h1.352a.224.224,0,0,1,0,.447Zm-2.7,0h-1.352a.224.224,0,0,1,0-.447h1.352a.224.224,0,0,1,0,.447Zm-2.7,0h-1.347a.225.225,0,0,1-.226-.224.221.221,0,0,1,.221-.224h1.352a.224.224,0,0,1,0,.447Z" transform="translate(-4199.019 -1496.481)" fill="#3b305d"/>
    </g>
    <g id="Grupo_98551" data-name="Grupo 98551" transform="translate(3256.811 709.476)">
      <path id="Trazado_217812" data-name="Trazado 217812" d="M3608.359,1352.6h-1.349a.224.224,0,1,1,0-.448h1.34a.228.228,0,0,1,.228.224A.22.22,0,0,1,3608.359,1352.6Zm-2.691,0h-1.341a.224.224,0,0,1,0-.448h1.341a.224.224,0,1,1,0,.448Zm-2.681,0h-1.341a.224.224,0,1,1,0-.448h1.341a.224.224,0,1,1,0,.448Zm-2.682,0h-1.341a.224.224,0,1,1,0-.448h1.341a.224.224,0,1,1,0,.448Zm-2.682,0h-1.341a.224.224,0,1,1,0-.448h1.341a.224.224,0,1,1,0,.448Zm-2.681,0h-1.34a.224.224,0,1,1,0-.448h1.34a.224.224,0,1,1,0,.448Zm-2.681,0h-1.341a.224.224,0,0,1,0-.448h1.341a.224.224,0,0,1,0,.448Zm-2.682,0h-1.341a.224.224,0,1,1,0-.448h1.341a.224.224,0,1,1,0,.448Zm-2.682,0h-1.34a.224.224,0,1,1,0-.448h1.34a.224.224,0,1,1,0,.448Zm-2.681,0h-1.341a.224.224,0,0,1,0-.448h1.341a.224.224,0,0,1,0,.448Zm-2.682,0h-1.341a.224.224,0,1,1,0-.448h1.341a.224.224,0,1,1,0,.448Zm-2.681,0h-1.341a.224.224,0,1,1,0-.448h1.341a.224.224,0,1,1,0,.448Zm-2.681,0h-1.341a.224.224,0,1,1,0-.448h1.341a.224.224,0,1,1,0,.448Zm-2.682,0h-1.34a.224.224,0,1,1,0-.448h1.34a.224.224,0,1,1,0,.448Zm-2.681,0h-1.341a.224.224,0,1,1,0-.448h1.341a.224.224,0,1,1,0,.448Zm-2.681,0h-1.071a2.511,2.511,0,0,1-.3-.017.224.224,0,0,1,.052-.445,2.089,2.089,0,0,0,.244.014h1.071a.224.224,0,0,1,0,.448Zm41.493-.387a.224.224,0,0,1-.125-.41,2.055,2.055,0,0,0,.756-.922.224.224,0,0,1,.414.172,2.5,2.5,0,0,1-.92,1.121A.224.224,0,0,1,3609.622,1352.214Zm-44.044-.158a.222.222,0,0,1-.145-.053,2.5,2.5,0,0,1-.787-1.219.224.224,0,0,1,.431-.123,2.052,2.052,0,0,0,.646,1,.224.224,0,0,1-.145.394Zm45.056-2.182a.224.224,0,0,1-.224-.224v-1.341a.224.224,0,1,1,.448,0v1.341A.224.224,0,0,1,3610.634,1349.874Zm-45.86-.261a.224.224,0,0,1-.223-.224v-1.341a.224.224,0,0,1,.448,0v1.341A.224.224,0,0,1,3564.774,1349.613Zm45.86-2.42a.224.224,0,0,1-.224-.224v-1.341a.224.224,0,0,1,.448,0v1.341A.224.224,0,0,1,3610.634,1347.193Zm-45.86-.262a.224.224,0,0,1-.223-.224v-1.34a.224.224,0,1,1,.448,0v1.34A.224.224,0,0,1,3564.774,1346.931Zm45.86-2.42a.224.224,0,0,1-.224-.224v-1.341a.224.224,0,1,1,.448,0v1.341A.224.224,0,0,1,3610.634,1344.511Zm-45.86-.261a.224.224,0,0,1-.223-.224v-1.341a.224.224,0,1,1,.448,0v1.341A.224.224,0,0,1,3564.774,1344.25Zm45.86-2.42a.224.224,0,0,1-.224-.224v-1.341a.224.224,0,1,1,.448,0v1.341A.224.224,0,0,1,3610.634,1341.83Zm-45.86-.261a.224.224,0,0,1-.223-.224V1340a.224.224,0,0,1,.448,0v1.341A.224.224,0,0,1,3564.774,1341.569Zm45.86-2.42a.224.224,0,0,1-.224-.224v-1.341a.224.224,0,1,1,.448,0v1.341A.224.224,0,0,1,3610.634,1339.149Zm-45.86-.261a.224.224,0,0,1-.223-.224v-1.341a.224.224,0,1,1,.448,0v1.341A.224.224,0,0,1,3564.774,1338.887Zm45.86-2.42a.224.224,0,0,1-.224-.224V1334.9a.224.224,0,1,1,.448,0v1.341A.224.224,0,0,1,3610.634,1336.467Zm-45.86-.261a.224.224,0,0,1-.223-.224v-1.341a.224.224,0,1,1,.448,0v1.341A.224.224,0,0,1,3564.774,1336.206Zm45.86-2.42a.224.224,0,0,1-.224-.224v-1.341a.224.224,0,0,1,.448,0v1.341A.224.224,0,0,1,3610.634,1333.786Zm-45.86-.261a.224.224,0,0,1-.223-.224v-1.341a.224.224,0,0,1,.448,0v1.341A.224.224,0,0,1,3564.774,1333.525Zm45.86-2.42a.224.224,0,0,1-.224-.224v-1.341a.224.224,0,1,1,.448,0v1.341A.224.224,0,0,1,3610.634,1331.1Zm-45.86-.261a.224.224,0,0,1-.223-.224v-1.341a.224.224,0,1,1,.448,0v1.341A.224.224,0,0,1,3564.774,1330.843Zm45.86-2.42a.224.224,0,0,1-.224-.224v-1.341a.224.224,0,1,1,.448,0v1.341A.224.224,0,0,1,3610.634,1328.423Zm-45.86-.261a.224.224,0,0,1-.223-.224V1326.6a.224.224,0,1,1,.448,0v1.341A.224.224,0,0,1,3564.774,1328.162Zm45.86-2.421a.224.224,0,0,1-.224-.224v-1.341a.224.224,0,1,1,.448,0v1.341A.224.224,0,0,1,3610.634,1325.741Zm-45.86-.261a.224.224,0,0,1-.223-.224v-1.341a.224.224,0,0,1,.448,0v1.341A.224.224,0,0,1,3564.774,1325.48Zm45.86-2.42a.224.224,0,0,1-.224-.224V1321.5a.224.224,0,1,1,.448,0v1.341A.224.224,0,0,1,3610.634,1323.06Zm-45.86-.261a.224.224,0,0,1-.223-.224v-1.341a.224.224,0,1,1,.448,0v1.341A.224.224,0,0,1,3564.774,1322.8Zm45.771-2.411a.225.225,0,0,1-.215-.162,2.05,2.05,0,0,0-.648-1,.224.224,0,0,1,.29-.342,2.5,2.5,0,0,1,.789,1.218.225.225,0,0,1-.216.286Zm-45.6-.246a.224.224,0,0,1-.206-.31,2.5,2.5,0,0,1,.922-1.12.224.224,0,0,1,.249.372,2.062,2.062,0,0,0-.758.92A.224.224,0,0,1,3564.949,1320.141Zm43.666-1.389-.026,0a2.084,2.084,0,0,0-.239-.014h-1.075a.224.224,0,0,1,0-.448h1.075a2.566,2.566,0,0,1,.291.017.224.224,0,0,1-.025.447Zm-2.681-.016h-1.341a.224.224,0,1,1,0-.448h1.341a.224.224,0,1,1,0,.448Zm-2.681,0h-1.341a.224.224,0,1,1,0-.448h1.341a.224.224,0,0,1,0,.448Zm-2.682,0h-1.341a.224.224,0,1,1,0-.448h1.341a.224.224,0,1,1,0,.448Zm-2.681,0h-1.34a.224.224,0,1,1,0-.448h1.34a.224.224,0,1,1,0,.448Zm-2.681,0h-1.34a.224.224,0,1,1,0-.448h1.34a.224.224,0,0,1,0,.448Zm-2.681,0h-1.341a.224.224,0,0,1,0-.448h1.341a.224.224,0,1,1,0,.448Zm-2.681,0h-1.341a.224.224,0,1,1,0-.448h1.341a.224.224,0,1,1,0,.448Zm-2.682,0h-1.34a.224.224,0,1,1,0-.448h1.34a.224.224,0,1,1,0,.448Zm-2.682,0h-1.34a.224.224,0,1,1,0-.448h1.34a.224.224,0,1,1,0,.448Zm-2.681,0h-1.341a.224.224,0,1,1,0-.448h1.341a.224.224,0,1,1,0,.448Zm-2.681,0h-1.341a.224.224,0,1,1,0-.448h1.341a.224.224,0,0,1,0,.448Zm-2.682,0h-1.34a.224.224,0,1,1,0-.448h1.34a.224.224,0,1,1,0,.448Zm-2.681,0h-1.341a.224.224,0,1,1,0-.448h1.341a.224.224,0,1,1,0,.448Zm-2.681,0h-1.341a.224.224,0,1,1,0-.448h1.341a.224.224,0,0,1,0,.448Zm-2.682,0h-1.336a.226.226,0,0,1-.227-.224.222.222,0,0,1,.222-.224h1.341a.224.224,0,1,1,0,.448Z" transform="translate(-3564.55 -1318.289)" fill="#3b305d"/>
    </g>
    <g id="Grupo_98553" data-name="Grupo 98553" transform="translate(3257.346 668.829)">
      <path id="Rectángulo_40908" data-name="Rectángulo 40908" d="M10.855,0H47.568A10.855,10.855,0,0,1,58.423,10.855V23.009A10.855,10.855,0,0,1,47.568,33.864H10.854A10.854,10.854,0,0,1,0,23.009V10.855A10.855,10.855,0,0,1,10.855,0Z" transform="translate(0 0)" fill="#e5e0f7"/>
      <path id="Trazado_217813" data-name="Trazado 217813" d="M3683.244,1157.922v13.434a1.055,1.055,0,0,0,1.635.882l10.21-6.717a1.056,1.056,0,0,0,0-1.763l-10.21-6.717A1.055,1.055,0,0,0,3683.244,1157.922Z" transform="translate(-3660.625 -1147.707)" fill="#eec46f"/>
      <g id="Grupo_98552" data-name="Grupo 98552" transform="translate(3.037 29.76)">
        <path id="Trazado_217814" data-name="Trazado 217814" d="M3582.862,1263.53a1.049,1.049,0,1,1,1.049,1.048A1.049,1.049,0,0,1,3582.862,1263.53Z" transform="translate(-3582.862 -1262.481)" fill="#3b305d"/>
        <path id="Trazado_217815" data-name="Trazado 217815" d="M3635.943,1266.974H3588.52a.282.282,0,0,1-.282-.282h0a.282.282,0,0,1,.282-.282h47.424a.282.282,0,0,1,.282.282h0A.282.282,0,0,1,3635.943,1266.974Z" transform="translate(-3587.189 -1265.643)" fill="#3b305d"/>
      </g>
    </g>
    <rect id="Rectángulo_40909" data-name="Rectángulo 40909" width="30.225" height="45.119" transform="translate(3311.981 709.7)" fill="#e5e0f7"/>
    <g id="Grupo_98559" data-name="Grupo 98559" transform="translate(3324.673 710.775)">
      <g id="Grupo_98555" data-name="Grupo 98555" transform="translate(0 3.734)">
        <g id="Grupo_98554" data-name="Grupo 98554" transform="translate(4.91 1.537)">
          <path id="Trazado_217816" data-name="Trazado 217816" d="M3938.015,1360.124h-.414v-1.859a1.211,1.211,0,0,1,1.209-1.209h5.114a.8.8,0,0,0,.769-.594l.809-3.075a.8.8,0,0,0-.769-1h-6.672v-.414h6.672a1.21,1.21,0,0,1,1.169,1.517l-.808,3.074a1.211,1.211,0,0,1-1.169.9h-5.114a.8.8,0,0,0-.8.8Z" transform="translate(-3937.601 -1351.976)" fill="#3b305d"/>
        </g>
        <path id="Rectángulo_40910" data-name="Rectángulo 40910" d="M1.744,0H9.729a1.744,1.744,0,0,1,1.744,1.744v0A1.744,1.744,0,0,1,9.729,3.489H1.744A1.744,1.744,0,0,1,0,1.744v0A1.744,1.744,0,0,1,1.744,0Z" fill="#eec46f"/>
        <path id="Trazado_217817" data-name="Trazado 217817" d="M3933.969,1395.494h0a1.137,1.137,0,0,1-1.137-1.137v-6.891a1.137,1.137,0,0,1,1.137-1.137h0a1.137,1.137,0,0,1,1.137,1.137v6.891A1.137,1.137,0,0,1,3933.969,1395.494Z" transform="translate(-3928.853 -1378.09)" fill="#3b305d"/>
      </g>
      <g id="Grupo_98556" data-name="Grupo 98556" transform="translate(30.219 13.231)">
        <path id="Trazado_217818" data-name="Trazado 217818" d="M4153.216,1509.5a15.616,15.616,0,0,1,.714,2.96,10.7,10.7,0,0,1-.908,2.916c-.352.482-.524-1.963-.8-2.33s-.057.921-.253,1.04-.6-.948-.779-1.324.429-1.764.431-2.731S4153.216,1509.5,4153.216,1509.5Z" transform="translate(-4134.808 -1486.653)" fill="#f2deb7"/>
        <path id="Trazado_217819" data-name="Trazado 217819" d="M4067.358,1396.489a3.421,3.421,0,0,1,5.154-3.22l.144.09c3.547,2.283,11.2,12.938,11.729,14s2.081,9.559,2.081,9.559-1.921.7-2.82-.026c0,0-3.116-8.053-3.577-8.456s-12.464-7.137-12.566-9.662C4067.476,1398.111,4067.423,1397.308,4067.358,1396.489Z" transform="translate(-4067.347 -1392.776)" fill="#29233d"/>
      </g>
      <g id="Grupo_98557" data-name="Grupo 98557" transform="translate(25.696 37.938)">
        <path id="Trazado_217820" data-name="Trazado 217820" d="M4155.826,1728.945s1.43,1.305,1.151,2.233-1.57,1.546-1.744,2.679-.872,1.752-1.5,1.752h-2.994s-.462-.8.654-1.038,1.538-1.573,1.468-2.809a21.668,21.668,0,0,1,.1-2.885l2.372-.55Z" transform="translate(-4129.872 -1687.578)" fill="#3b305d"/>
        <path id="Trazado_217821" data-name="Trazado 217821" d="M4052.564,1744.059s.257,2.97-.371,3.28l-8.036-.016s0-.928,1.291-1.134,3.558-.962,3.942-2.645S4052.564,1744.059,4052.564,1744.059Z" transform="translate(-4044.157 -1699.316)" fill="#3b305d"/>
        <path id="Trazado_217822" data-name="Trazado 217822" d="M4052.475,1530.718s.424,5.207.922,11.466c.678,8.5,1.492,18.947,1.573,20.925.139,3.435.7,8.931.7,8.931a4.434,4.434,0,0,0,3.976.755,88.647,88.647,0,0,0,3.039-16.146c.011-.136.021-.273.031-.41.628-8.45,1.6-26.243,1.6-26.243Z" transform="translate(-4050.852 -1527.936)" fill="#eec46f"/>
        <path id="Trazado_217823" data-name="Trazado 217823" d="M4052.475,1530.718s.424,5.207.922,11.466l9.285,14.466c.011-.136.021-.273.031-.41.628-8.45,1.6-26.243,1.6-26.243Z" transform="translate(-4050.852 -1527.936)" fill="#ebb04c"/>
        <path id="Trazado_217824" data-name="Trazado 217824" d="M4062.4,1522.833s7.64,18.858,12.663,27.72,6.593,11.335,6.593,11.335,2.878-1.134,3.14-1.906c0,0-1.921-17.109-5.286-21.28-1.9-2.357-4.134-9.429-4.238-11.9s-.68-7.368-.68-7.368Z" transform="translate(-4058.839 -1519.432)" fill="#eec46f"/>
      </g>
      <path id="Trazado_217825" data-name="Trazado 217825" d="M4062.677,1366.225s-5.119,2.6-8.116,1.73a7.027,7.027,0,0,1,1.984-1.654c-.115-.6-.206-1.113-.26-1.552a14.416,14.416,0,0,1-.158-1.589l1.963-1.608,1.861-1.538A7.622,7.622,0,0,0,4062.677,1366.225Z" transform="translate(-4026.835 -1353.174)" fill="#f2deb7"/>
      <path id="Trazado_217826" data-name="Trazado 217826" d="M4057.107,1411.618a21.078,21.078,0,0,1-6.312,2.72c-2.7.64-6.021.452-7.131.621a.463.463,0,0,1-.324-.082c-.087-.045-.577-3.339-1.068-7.5-.021-.167-.044-.336-.053-.506l-.008-.056c-.19-1.626-.357-3.333-.5-5.044-.118-1.332-.216-2.649-.283-3.886-.085-1.548-.12-2.969-.085-4.139.015-.535.047-1.015.094-1.432a10.189,10.189,0,0,1,2.542-5.456l.905-1.03a4.958,4.958,0,0,0,3.131-.8c1.105-.728,2.3-1.51,2.523-1.379,1.694.927,3.073,3.329,4.058,6.5a36.213,36.213,0,0,1,1.276,6.091c.089.681.165,1.38.223,2.075.011.129.021.257.031.384.132,1.9.35,3.683.59,5.275.324,2.146.692,3.944.953,5.21.131.645.23,1.143.289,1.5C4058.01,1411,4057.386,1411.445,4057.107,1411.618Z" transform="translate(-4016.182 -1372.188)" fill="#3b305d"/>
      <path id="Trazado_217827" data-name="Trazado 217827" d="M4066.483,1367.975a6.85,6.85,0,0,1-3.732,3.122,14.394,14.394,0,0,1-.158-1.589l1.963-1.608Z" transform="translate(-4033.301 -1359.521)" fill="#edd1a2"/>
      <path id="Trazado_217828" data-name="Trazado 217828" d="M4053.652,1342.575s4.946.709,5.349-2.331,1.312-5-1.828-5.577-3.91.5-4.295,1.483S4052.376,1342.313,4053.652,1342.575Z" transform="translate(-4025.271 -1332.64)" fill="#f2deb7"/>
      <path id="Trazado_217829" data-name="Trazado 217829" d="M4053.786,1326.545c.044-.052.146-.1.375-.113a.931.931,0,0,0-.432-.113,1.156,1.156,0,0,0-.788-1.007.691.691,0,0,1,.344.491c-.65-.641-2.024-1.09-5.8-.717-4.972.492-3.268,3.648-2.615,4.015s2.254-.707,3.457-.635,1.466,1.8,1.878,2.033.243-.188.79-.448.617.652.469,1.25.626,1.366.626,1.366l.749-.84c.749-.84,1.4-4.346,1.038-5.083Z" transform="translate(-4018.382 -1324.95)" fill="#4a390c"/>
      <path id="Trazado_217830" data-name="Trazado 217830" d="M4050.016,1435.743a22.377,22.377,0,0,1-8.592,3.868c-.085-1.548-.12-2.97-.085-4.139Z" transform="translate(-4016.182 -1413.913)" fill="#29233d"/>
      <g id="Grupo_98558" data-name="Grupo 98558" transform="translate(3.655 14.283)">
        <path id="Trazado_217831" data-name="Trazado 217831" d="M3935.737,1404.66c-.066-.071-.916-2.913-2.387-2.706-.959.136-2.528.691-2.111,1.955.164.5,3.087,2.209,3.087,2.209Z" transform="translate(-3931.171 -1401.207)" fill="#f2deb7"/>
        <path id="Trazado_217832" data-name="Trazado 217832" d="M3974.121,1399.586a3.42,3.42,0,0,1-.358,6.066l-.157.065c-3.916,1.571-17.034,1.644-18.209,1.455s-9-3.836-9-3.836.539-1.973,1.654-2.284c0,0,8.37,2.121,8.965,1.979s13.035-6.031,15.154-4.652C3972.731,1398.744,3973.417,1399.164,3974.121,1399.586Z" transform="translate(-3943.427 -1398.17)" fill="#3b305d"/>
      </g>
    </g>
    <g id="Grupo_98560" data-name="Grupo 98560" transform="translate(3436.032 631.547)">
      <path id="Trazado_217833" data-name="Trazado 217833" d="M4494.541,920.394H4484.1a.8.8,0,0,1-.8-.8h0a.8.8,0,0,1,.8-.8h10.442a.8.8,0,0,1,.8.8h0A.8.8,0,0,1,4494.541,920.394Z" transform="translate(-4483.3 -918.798)" fill="#fff"/>
      <path id="Trazado_217834" data-name="Trazado 217834" d="M4494.541,936.378H4484.1a.8.8,0,0,1-.8-.8h0a.8.8,0,0,1,.8-.8h10.442a.8.8,0,0,1,.8.8h0A.8.8,0,0,1,4494.541,936.378Z" transform="translate(-4483.3 -931.664)" fill="#fff"/>
      <path id="Trazado_217835" data-name="Trazado 217835" d="M4494.541,952.775H4484.1a.8.8,0,0,1-.8-.8h0a.8.8,0,0,1,.8-.8h10.442a.8.8,0,0,1,.8.8h0A.8.8,0,0,1,4494.541,952.775Z" transform="translate(-4483.3 -944.862)" fill="#fff"/>
    </g>
    <path id="Trazado_217836" data-name="Trazado 217836" d="M4224.338,1336.62h-24.86a1.062,1.062,0,0,1-1.059-1.058h0a1.061,1.061,0,0,1,1.059-1.058h24.86a1.061,1.061,0,0,1,1.059,1.058h0A1.061,1.061,0,0,1,4224.338,1336.62Z" transform="translate(-817.959 -621.865)" fill="#fff"/>
    <path id="Trazado_217837" data-name="Trazado 217837" d="M3601.36,964.267H3576.5a1.061,1.061,0,0,1-1.058-1.058h0a1.061,1.061,0,0,1,1.058-1.058h24.861a1.061,1.061,0,0,1,1.058,1.058h0A1.061,1.061,0,0,1,3601.36,964.267Z" transform="translate(-316.506 -322.147)" fill="#fff"/>
    <path id="Trazado_217838" data-name="Trazado 217838" d="M4224.338,1390.438h-24.86a1.062,1.062,0,0,1-1.059-1.058h0a1.062,1.062,0,0,1,1.059-1.058h24.86a1.061,1.061,0,0,1,1.059,1.058h0A1.061,1.061,0,0,1,4224.338,1390.438Z" transform="translate(-817.959 -665.185)" fill="#fff"/>
    <path id="Trazado_217839" data-name="Trazado 217839" d="M4204.23,1363.53H4174.5a1.062,1.062,0,0,1-1.059-1.058h0a1.062,1.062,0,0,1,1.059-1.058h29.734a1.062,1.062,0,0,1,1.059,1.058h0A1.062,1.062,0,0,1,4204.23,1363.53Z" transform="translate(-797.851 -643.525)" fill="#fff"/>
    <g id="Grupo_98561" data-name="Grupo 98561" transform="translate(3257.996 646.658)">
      <path id="Rectángulo_40911" data-name="Rectángulo 40911" d="M1.058,0H14.581a1.058,1.058,0,0,1,1.058,1.058v0a1.058,1.058,0,0,1-1.058,1.058H1.058A1.058,1.058,0,0,1,0,1.058v0A1.058,1.058,0,0,1,1.058,0Z" transform="translate(4.646 0)" fill="#fff"/>
      <path id="Trazado_217840" data-name="Trazado 217840" d="M3570.626,997.321a1.059,1.059,0,1,1,1.059,1.058A1.059,1.059,0,0,1,3570.626,997.321Z" transform="translate(-3570.626 -996.263)" fill="#fff"/>
    </g>
    <g id="Grupo_98562" data-name="Grupo 98562" transform="translate(3257.996 650.87)">
      <path id="Rectángulo_40912" data-name="Rectángulo 40912" d="M1.058,0H17.311a1.058,1.058,0,0,1,1.058,1.058v0a1.058,1.058,0,0,1-1.058,1.058H1.058A1.058,1.058,0,0,1,0,1.058v0A1.058,1.058,0,0,1,1.058,0Z" transform="translate(4.646 0)" fill="#fff"/>
      <path id="Trazado_217841" data-name="Trazado 217841" d="M3570.626,1018.911a1.059,1.059,0,1,1,1.059,1.058A1.059,1.059,0,0,1,3570.626,1018.911Z" transform="translate(-3570.626 -1017.853)" fill="#fff"/>
    </g>
    <g id="Grupo_98563" data-name="Grupo 98563" transform="translate(3257.996 655.441)">
      <path id="Rectángulo_40913" data-name="Rectángulo 40913" d="M1.058,0H14.581a1.058,1.058,0,0,1,1.058,1.058v0a1.058,1.058,0,0,1-1.058,1.058H1.058A1.058,1.058,0,0,1,0,1.058v0A1.058,1.058,0,0,1,1.058,0Z" transform="translate(4.646 0)" fill="#fff"/>
      <path id="Trazado_217842" data-name="Trazado 217842" d="M3570.626,1042.347a1.059,1.059,0,1,1,1.059,1.058A1.059,1.059,0,0,1,3570.626,1042.347Z" transform="translate(-3570.626 -1041.289)" fill="#fff"/>
    </g>
    <g id="Grupo_98565" data-name="Grupo 98565" transform="translate(3294.958 643.714)">
      <g id="Grupo_98564" data-name="Grupo 98564" transform="translate(3.786 0)">
        <path id="Trazado_217843" data-name="Trazado 217843" d="M3783.765,988.6a3.819,3.819,0,0,1-.56.035,3.733,3.733,0,0,1-2.566-6.4h0a3.734,3.734,0,1,1,3.125,6.369Zm-2.7-5.929a3.119,3.119,0,1,0,4.411.051,3.123,3.123,0,0,0-4.411-.051Z" transform="translate(-3779.516 -981.172)" fill="#3b305d"/>
      </g>
      <rect id="Rectángulo_40914" data-name="Rectángulo 40914" width="0.615" height="5.095" transform="translate(4.852 5.906) rotate(45.664)" fill="#3b305d"/>
      <path id="Trazado_217844" data-name="Trazado 217844" d="M3760.264,1024.673h0a.549.549,0,0,1,.01-.776l2.146-2.1a.549.549,0,0,1,.776.009h0a.549.549,0,0,1-.009.776l-2.146,2.1A.549.549,0,0,1,3760.264,1024.673Z" transform="translate(-3760.108 -1013.749)" fill="#3b305d"/>
    </g>
    <g id="Grupo_98566" data-name="Grupo 98566" transform="translate(3409.056 707.791)">
      <path id="Trazado_217845" data-name="Trazado 217845" d="M4374.85,1399.227h0a1.226,1.226,0,0,1-1.116-.769l-28.687-87.343a.576.576,0,0,1,.608-.779h0a1.226,1.226,0,0,1,1.117.769l28.686,87.342A.576.576,0,0,1,4374.85,1399.227Z" transform="translate(-4345.01 -1310.203)" fill="#3b305d"/>
      <path id="Trazado_217846" data-name="Trazado 217846" d="M4493.365,1398.542h0a1.224,1.224,0,0,1-1.116-.769l-28.687-87.342a.576.576,0,0,1,.608-.779h0a1.226,1.226,0,0,1,1.116.769l28.687,87.342A.576.576,0,0,1,4493.365,1398.542Z" transform="translate(-4440.407 -1309.652)" fill="#3b305d"/>
      <path id="Trazado_217847" data-name="Trazado 217847" d="M4388.6,1370l-23.216.134a1.16,1.16,0,0,1-1.053-.725h0a.543.543,0,0,1,.573-.735l23.216-.135a1.163,1.163,0,0,1,1.054.726h0A.545.545,0,0,1,4388.6,1370Z" transform="translate(-4360.532 -1357.055)" fill="#3b305d"/>
      <path id="Trazado_217848" data-name="Trazado 217848" d="M4414.271,1448.179l-23.215.134a1.163,1.163,0,0,1-1.054-.726h0a.544.544,0,0,1,.574-.735l23.216-.135a1.162,1.162,0,0,1,1.053.726h0A.544.544,0,0,1,4414.271,1448.179Z" transform="translate(-4381.197 -1419.98)" fill="#3b305d"/>
      <path id="Trazado_217849" data-name="Trazado 217849" d="M4439,1523.471l-23.216.135a1.163,1.163,0,0,1-1.054-.726h0a.544.544,0,0,1,.574-.735l23.216-.134a1.159,1.159,0,0,1,1.053.726h0A.544.544,0,0,1,4439,1523.471Z" transform="translate(-4401.102 -1480.585)" fill="#3b305d"/>
      <path id="Trazado_217850" data-name="Trazado 217850" d="M4466.838,1608.233l-23.216.135a1.16,1.16,0,0,1-1.053-.726h0a.544.544,0,0,1,.573-.735l23.216-.134a1.161,1.161,0,0,1,1.054.726h0A.544.544,0,0,1,4466.838,1608.233Z" transform="translate(-4423.51 -1548.812)" fill="#3b305d"/>
      <path id="Trazado_217851" data-name="Trazado 217851" d="M4495.975,1696.95l-23.216.134a1.163,1.163,0,0,1-1.054-.726h0a.545.545,0,0,1,.575-.735l23.215-.135a1.16,1.16,0,0,1,1.053.726h0A.544.544,0,0,1,4495.975,1696.95Z" transform="translate(-4446.962 -1620.223)" fill="#3b305d"/>
    </g>
    <g id="Grupo_98567" data-name="Grupo 98567" transform="translate(3404.019 641.062)">
      <path id="Trazado_217852" data-name="Trazado 217852" d="M4336.878,1098.586h0a.337.337,0,0,1-.394-.267l-.372-1.919a.338.338,0,0,1,.266-.395h0a.339.339,0,0,1,.4.267l.372,1.919A.339.339,0,0,1,4336.878,1098.586Z" transform="translate(-4332.805 -1070.947)" fill="#3b305d"/>
      <rect id="Rectángulo_40915" data-name="Rectángulo 40915" width="0.232" height="2.825" transform="matrix(0.982, -0.19, 0.19, 0.982, 2.833, 21.843)" fill="#3b305d"/>
      <path id="Trazado_217853" data-name="Trazado 217853" d="M4322.248,983.823a8.936,8.936,0,0,0-.683-2.641,3.6,3.6,0,0,0-2.324-1.092c-.343.332,1.012,1.505,1.065,1.938s-.687.133-.332.976a6.57,6.57,0,0,0,1.29,1.635Z" transform="translate(-4319.185 -977.637)" fill="#f2deb7"/>
      <path id="Trazado_217854" data-name="Trazado 217854" d="M4327.72,996.17c.638-.5.774-.491.774-.491s5.9,5.114,6.478,5.57,9.44,3.026,9.44,3.026l1.409,7.208s-12-5.795-13.431-6.977c-2.369-1.954-5.358-7.423-5.358-7.423A2.265,2.265,0,0,1,4327.72,996.17Z" transform="translate(-4325.502 -990.197)" fill="#ebb04c"/>
      <path id="Trazado_217855" data-name="Trazado 217855" d="M4387.579,1349.013s-.1,2.464-.575,3.063l-6.581.038a1.03,1.03,0,0,1,.984-1,4.415,4.415,0,0,0,3.2-2.522C4385.336,1346.992,4387.579,1349.013,4387.579,1349.013Z" transform="translate(-4368.478 -1273.77)" fill="#fff"/>
      <path id="Trazado_217856" data-name="Trazado 217856" d="M4451.349,1347.344s.458,3.272-.164,3.329c-.083.008-2.653.049-3.765.068-1.308.022-3.457-.024-3.457-.024a.341.341,0,0,1-.309-.515,1.372,1.372,0,0,1,.987-.634,5.336,5.336,0,0,0,3.726-2.594C4449.071,1345.364,4451.349,1347.344,4451.349,1347.344Z" transform="translate(-4419.334 -1272.457)" fill="#fff"/>
      <path id="Trazado_217857" data-name="Trazado 217857" d="M4399.563,1153.674a129.807,129.807,0,0,0,7.074,17.521c5.244,11.118,5.471,16.476,5.471,16.476a4.609,4.609,0,0,0,1.847.169,4.97,4.97,0,0,0,1.944-.63s-.34-13.234-2.817-18.845-2.982-20.964-2.982-20.964Z" transform="translate(-4383.883 -1112.322)" fill="#29233d"/>
      <path id="Trazado_217858" data-name="Trazado 217858" d="M4384.492,1151.319a159.586,159.586,0,0,0,1.569,22.086c1.716,12.173.914,17.833.914,17.833a3.414,3.414,0,0,0,1.853.326,4.157,4.157,0,0,0,2.476-.683s2.455-12.177,1.751-18.27,3.362-20.906,3.362-20.906Z" transform="translate(-4371.75 -1115.476)" fill="#3b305d"/>
      <path id="Trazado_217859" data-name="Trazado 217859" d="M4406.509,1012.164l-1.937,1.435-2.8-.59c.039-.255.224-1.314.393-2.272.01-.057.02-.113.03-.168.145-.816.269-1.516.269-1.516l2.615-1.3.976-.486c0,.017-.076.905-.086,1.035A8.373,8.373,0,0,0,4406.509,1012.164Z" transform="translate(-4385.66 -999.521)" fill="#f2deb7"/>
      <path id="Trazado_217860" data-name="Trazado 217860" d="M4396.668,1053.379c-.634,2.9-14.193,1.626-14.016-.143.007-.059.042-.878.091-1.981.1-2.387.259-6.117.28-6.408,0-.005,0-.01,0-.015.244-2.463.479-4.872.495-6.445a22.262,22.262,0,0,1,.45-4.026c.23-1.169.515-2.231.76-3.058a3.382,3.382,0,0,1,1.981-2.172,2.879,2.879,0,0,1,.329-.115c1.6-.463,3.8-1.036,4.4-.861,1.621.477,2.825,3.33,3.677,6.968C4396.713,1041.931,4397.083,1051.491,4396.668,1053.379Z" transform="translate(-4370.27 -1016.312)" fill="#eec46f"/>
      <path id="Trazado_217861" data-name="Trazado 217861" d="M4407.387,1010.342c-.574,1.1-2.715,2.049-3.607,2.4.01-.057.02-.113.03-.168.145-.816.268-1.516.268-1.516l2.616-1.3C4407.271,1009.744,4407.624,1009.89,4407.387,1010.342Z" transform="translate(-4387.278 -1001.525)" fill="#edd1a2"/>
      <path id="Trazado_217862" data-name="Trazado 217862" d="M4396.361,983.606s4.72,1.472,5.591-1.481,2.067-4.751-.909-5.816-3.9-.112-4.426.8S4395.157,983.147,4396.361,983.606Z" transform="translate(-4380.831 -974.228)" fill="#f2deb7"/>
      <path id="Trazado_217863" data-name="Trazado 217863" d="M4399.221,970.176s.3,3.436,1.01,3.287,1.356-.26,1.251.776-1.089,2.232,1.1,2.415,5.338-5.464,4.737-6.534C4405.584,967.035,4396.712,966.412,4399.221,970.176Z" transform="translate(-4383.25 -967.575)" fill="#4a390c"/>
      <path id="Trazado_217864" data-name="Trazado 217864" d="M4383.125,1100.437c.1-2.387.259-6.117.28-6.408,0-.005,0-.01,0-.015l8.011-4.79S4391.727,1100.405,4383.125,1100.437Z" transform="translate(-4370.652 -1065.494)" fill="#ebb04c"/>
      <path id="Trazado_217865" data-name="Trazado 217865" d="M4334.038,1089.774a21.246,21.246,0,0,0-1.937-1.2,4.064,4.064,0,0,0-1.368-.12c-.047.08-.186.324-.009.407s.4.053.332.112-.732-.259-.885.08-.289,1.5.492,1.854a8.944,8.944,0,0,0,2.848.074C4334.687,1091.327,4334.038,1089.774,4334.038,1089.774Z" transform="translate(-4327.931 -1064.854)" fill="#f2deb7"/>
      <path id="Trazado_217866" data-name="Trazado 217866" d="M4348.291,1052.856s7.946,1.351,8.649,1.008c1.124-.547-.437-8.609-.437-8.609a2.32,2.32,0,0,1,2.068-2.258,5.134,5.134,0,0,1,3.643,1.015s1.627,1.456,1.42,3.071c-.461,3.58-1.178,10.861-3.572,11.977-3.089,1.44-12.026-3.992-12.026-3.992a1.572,1.572,0,0,1-.255-1.041A2.429,2.429,0,0,1,4348.291,1052.856Z" transform="translate(-4342.2 -1028.233)" fill="#eec46f"/>
      <path id="Trazado_217867" data-name="Trazado 217867" d="M4320.525,989.1s-.508-1.011-.59-1.2.117-.149.313-.043.463.693.764.622C4321.251,988.422,4320.525,989.1,4320.525,989.1Z" transform="translate(-4319.773 -983.828)" fill="#f2deb7"/>
    </g>
  </g>
</svg>
