<svg xmlns="http://www.w3.org/2000/svg" width="400" height="159.305" viewBox="0 0 400 159.305">
  <g id="Grupo_106907" data-name="Grupo 106907" transform="translate(-84.426 -891.35)">
    <path id="Trazado_220491" data-name="Trazado 220491" d="M475.892,1909.7H84.805c-.209,0-.379-.285-.379-.633h0c0-.348.171-.633.379-.633H475.892c.208,0,.379.285.379.633h0C476.271,1909.414,476.1,1909.7,475.892,1909.7Z" transform="translate(0 -859.044)" fill="#2e3552"/>
    <path id="Trazado_220506" data-name="Trazado 220506" d="M722.86,1488.113l-1.057.514c-.045-.065-.074-.11-.085-.131S722.792,1488.134,722.86,1488.113Z" transform="translate(-499.761 -529.431)" fill="#fbae25"/>
    <g id="Grupo_106903" data-name="Grupo 106903" transform="translate(140.595 956.038)">
      <path id="Trazado_220524" data-name="Trazado 220524" d="M344.7,1478.887l0-1.633,283.17-1.395,0,1.632-260.869.98Z" transform="translate(-344.701 -1475.859)" fill="#2c3f4e"/>
    </g>
    <g id="man" transform="translate(331.688 894.608)">
      <path id="Trazado_220525" data-name="Trazado 220525" d="M1054.325,1462.994s-5.737-1.221-8.108.341-4.131,4.154-2.644,4.741,6.024-.659,6.816-1.139,3.16-1.148,3.432-1.444A10.356,10.356,0,0,0,1054.325,1462.994Z" transform="translate(-1040.417 -1403.985)" fill="#ffb48d"/>
      <path id="Trazado_220526" data-name="Trazado 220526" d="M1355.719,1293.148s23.995,17.252,23.995,24.981c0,3.891-5.836,14.449-19.392,15.962l-2.019-3.717s11.438-9.062,10.773-10-15.657-10.38-15.657-16.363A28.268,28.268,0,0,1,1355.719,1293.148Z" transform="translate(-1283.826 -1271.149)" fill="#a8a1c6"/>
      <path id="Trazado_220527" data-name="Trazado 220527" d="M1044.087,1867.568s-4.058,4.322-9.506,5.022c0,0-3.642.03-3.642,3.376h19.275a32.065,32.065,0,0,0,.447-4.5c.094-2.22,3.186-4.5,3.186-4.5Z" transform="translate(-1030.939 -1721.128)" fill="#008175"/>
      <path id="Trazado_220528" data-name="Trazado 220528" d="M1311.876,1872.579s-1.11,3.229-5.555,3.8c0,0-2.971.025-2.971,2.755h15.726a11.869,11.869,0,0,0-.778-4.047,34.628,34.628,0,0,0-1.937-4.047Z" transform="translate(-1244.563 -1724.328)" fill="#008175"/>
      <path id="Trazado_220529" data-name="Trazado 220529" d="M1295.579,1550.776s-15.461,29.193-12.965,33.782c5.3,9.739,6.851,29.671,6.256,31.057a11.6,11.6,0,0,1-9.522,1.629s-14.446-30.191-14.117-40.043c.452-13.548,16.24-34.46,16.24-34.46Z" transform="translate(-1214.665 -1466.879)" fill="#242320"/>
      <path id="Trazado_220530" data-name="Trazado 220530" d="M1326.121,1272.052s-1.844,6.939-8.154,7.375a17.856,17.856,0,0,1-3.434-4.27c-.121-.25-.239-.493-.352-.723-1.114-2.289-1.8-3.544-1.8-3.544l0,0c.195-.216,6.57-7.189,6.691-6.916C1321.876,1270.261,1326.121,1272.052,1326.121,1272.052Z" transform="translate(-1251.644 -1248.262)" fill="#ffb48d"/>
      <path id="Trazado_220531" data-name="Trazado 220531" d="M1318.982,1272.484a13.672,13.672,0,0,1-4.8,8.6c-1.114-2.289-1.8-3.544-1.8-3.544l0,0C1312.576,1277.379,1319.012,1271.96,1318.982,1272.484Z" transform="translate(-1251.644 -1254.916)" fill="#f6a071"/>
      <path id="Trazado_220532" data-name="Trazado 220532" d="M1282.215,1233.732s9.876-2.1,8.473-8.232-1.074-10.53-7.439-9.448-7.05,3.7-7.08,5.862S1279.61,1234.121,1282.215,1233.732Z" transform="translate(-1223.247 -1210.562)" fill="#ffb48d"/>
      <path id="Trazado_220533" data-name="Trazado 220533" d="M1121.242,1563.05s-26.7,47.966-41.554,66.651c0,0,4.291,3.591,11.139,1.521,0,0,22.247-18.017,28.578-28.243s20.389-27.665,29.7-34.726Z" transform="translate(-1069.168 -1482.804)" fill="#2f2e29"/>
      <path id="Trazado_220534" data-name="Trazado 220534" d="M1301.578,1331.2s-1.417,22.65-5.98,25.437c-5.243,3.2-31.963-1.2-30.272-4.271a38.763,38.763,0,0,0,3.476-8.592,55.776,55.776,0,0,0,1.557-19.924,53.391,53.391,0,0,1-.035-8.944c.454-5.539,1.809-10.432,3.97-13.069,3.288-4.009,12.284-8.691,12.284-8.691S1302.641,1299.793,1301.578,1331.2Z" transform="translate(-1214.684 -1271.147)" fill="#b8b0da"/>
      <path id="Trazado_220535" data-name="Trazado 220535" d="M1281.71,1406.466a55.777,55.777,0,0,0,1.557-19.925,53.391,53.391,0,0,1-.035-8.944,9.1,9.1,0,0,1,8.4-4.5S1298.512,1393.277,1281.71,1406.466Z" transform="translate(-1227.592 -1333.839)" fill="#a8a1c6"/>
      <path id="Trazado_220536" data-name="Trazado 220536" d="M1138.2,1322.806s-15.26,14.335-23.479,20.194c0,0-25.765,8.743-26.458,9.649a5.9,5.9,0,0,0,1.006,3.636s25.38-2.042,29.819-3.691,22.092-11.285,23.579-13.3S1145.593,1321.414,1138.2,1322.806Z" transform="translate(-1075.888 -1294.339)" fill="#b8b0da"/>
      <path id="Trazado_220537" data-name="Trazado 220537" d="M1280.44,1193.75c.076-.119.275-.236.741-.328a1.9,1.9,0,0,0-.913-.126,2.422,2.422,0,0,0-1.872-1.9,1.444,1.444,0,0,1,.83.936c-1.5-1.174-4.427-1.767-12.069-.05-10.07,2.262-5.773,8.409-4.343,9.012s4.443-2.033,6.928-2.184,3.465,3.389,4.368,3.765.452-.452,1.507-1.13,1.431,1.2,1.28,2.485,1.63,2.688,1.63,2.688l1.323-1.935c1.323-1.935,1.769-9.4.838-10.844Z" transform="translate(-1211.095 -1191.207)" fill="#4a2009"/>
    </g>
    <g id="Grupo_106904" data-name="Grupo 106904" transform="translate(420.018 955.877)">
      <path id="Trazado_220538" data-name="Trazado 220538" d="M1695,1549.938a12.05,12.05,0,0,1-8.619-3.673c-3.093-3-5.016-7.324-6.085-10.42a39.977,39.977,0,0,1-1.6-6.066c-2.807-13.4-6.613-24.522-11.311-33.046-3.753-6.81-8.083-11.992-12.869-15.4-8.143-5.8-14.848-4.444-14.915-4.429l-.108-1.621a14.169,14.169,0,0,1,4.528.007,24.522,24.522,0,0,1,10.83,4.525c4.9,3.494,9.337,8.8,13.179,15.771,4.792,8.7,8.668,20.017,11.522,33.649l.011.063a38.029,38.029,0,0,0,1.521,5.744c1.011,2.915,2.828,6.981,5.739,9.8,4.324,4.19,9.741,3.631,16.238.15.357-.192.731.194.818.846h0a1.824,1.824,0,0,1-.571,1.772A18.115,18.115,0,0,1,1695,1549.938Z" transform="translate(-1639.494 -1475.114)" fill="#2c3f4e"/>
    </g>
    <path id="Trazado_220539" data-name="Trazado 220539" d="M960.372,1481.591a25.872,25.872,0,0,0-2.784-4.387.567.567,0,0,0,.264-.1c.334-.273,1.427-1.944,1.276-2.156s-1.494-1.179-2.035-.881c0,0-1.975.621-.868,2.937-1,.358-2.61,1.179-2.533,2.725a27.543,27.543,0,0,1,0,3.481,3.027,3.027,0,0,0,2.452-2.312,22.948,22.948,0,0,0,.792-3.691c.107.01.217.017.324.018a9.146,9.146,0,0,1-.183,3.922c-.709,2.839,2.908,5.344,2.964,6.679C960.038,1487.825,961.1,1483.372,960.372,1481.591Z" transform="translate(-695.672 -518.371)" fill="#fbae25"/>
    <g id="Grupo_106905" data-name="Grupo 106905" transform="translate(95.085 955.936)">
      <path id="Trazado_220540" data-name="Trazado 220540" d="M141.783,1546.27c-.614-3.073-13.444-16.166-5.224-34.316,4.665-10.3,10.336-26.628,16.816-32.539,8.105-7.393,16.472-2.3,26.771-2.531l0,1.633c-10.091.227-17.937-5.359-25.865,1.874-6.347,5.789-12.519,21.911-16.749,32.342-7.655,18.877,5.931,29.533,5.857,33.136C143.359,1547.525,141.9,1546.877,141.783,1546.27Z" transform="translate(-133.818 -1475.389)" fill="#2c3f4e"/>
    </g>
    <g id="Grupo_106906" data-name="Grupo 106906" transform="translate(92.193 891.35)">
      <path id="Trazado_220541" data-name="Trazado 220541" d="M229.482,1871.618s1.14,3.314,5.7,3.9c0,0,3.05.025,3.05,2.828H222.091a12.18,12.18,0,0,1,.8-4.155,35.568,35.568,0,0,1,1.988-4.155Z" transform="translate(-200.149 -1720.285)" fill="#0f6972"/>
      <path id="Trazado_220542" data-name="Trazado 220542" d="M219.813,1581.75a299.516,299.516,0,0,1-11.5,27.745,11.906,11.906,0,0,1-9.775-1.672c-.61-1.423.986-21.885,6.422-31.882.851-1.565-.331-5.917-2.292-11.031-3.939-10.283-11.018-23.648-11.018-23.648l14.483-8.249s16.208,21.469,16.673,35.377C222.9,1571.427,221.637,1576.349,219.813,1581.75Z" transform="translate(-176.275 -1455.991)" fill="#5b2e20"/>
      <path id="Trazado_220543" data-name="Trazado 220543" d="M493.493,1466.994s5-.914,6.891.821,3.409,4.011.923,4.131c-2.585.125-4.157-.154-4.793-.691s-2.6-1.358-2.805-1.676A12.418,12.418,0,0,1,493.493,1466.994Z" transform="translate(-412.982 -1404.031)" fill="#ffb48d"/>
      <path id="Trazado_220544" data-name="Trazado 220544" d="M145.051,1276.787s-24.633,18.651-24.632,25.645c0,3.994,6.942,13.64,23.209,17.078l2.861-4.04s-14.238-10.75-13.555-11.717,14.479-9.676,14.479-15.818A29.017,29.017,0,0,0,145.051,1276.787Z" transform="translate(-120.419 -1255.06)" fill="#eee5e5"/>
      <path id="Trazado_220545" data-name="Trazado 220545" d="M477.608,1866.475s4.166,4.437,9.758,5.155c0,0,3.739.031,3.739,3.466H471.317a32.983,32.983,0,0,1-.458-4.623c-.1-2.279-3.27-4.623-3.27-4.623Z" transform="translate(-392.668 -1717)" fill="#0f6972"/>
      <path id="Trazado_220546" data-name="Trazado 220546" d="M219.813,1581.75l-17.149-16.841c-3.939-10.283-11.018-23.648-11.018-23.648l14.483-8.249s16.208,21.469,16.673,35.377C222.9,1571.427,221.637,1576.349,219.813,1581.75Z" transform="translate(-176.275 -1455.991)" fill="#512b1f"/>
      <path id="Trazado_220547" data-name="Trazado 220547" d="M222.271,1255.13s1.893,7.123,8.371,7.571a18.329,18.329,0,0,0,3.525-4.383c.124-.257.245-.506.361-.742,1.144-2.35,1.849-3.638,1.849-3.638l-.005,0c-.2-.221-6.745-7.38-6.868-7.1C226.629,1253.291,222.271,1255.13,222.271,1255.13Z" transform="translate(-200.291 -1231.565)" fill="#ffb48d"/>
      <path id="Trazado_220548" data-name="Trazado 220548" d="M256.229,1255.572a14.035,14.035,0,0,0,4.929,8.833c1.144-2.35,1.849-3.638,1.849-3.638l-.005,0C262.8,1260.6,256.2,1255.035,256.229,1255.572Z" transform="translate(-226.92 -1238.395)" fill="#f6a071"/>
      <path id="Trazado_220549" data-name="Trazado 220549" d="M263.931,1215.791s-10.139-2.157-8.7-8.451,1.1-10.81,7.637-9.7,7.238,3.8,7.268,6.017S266.605,1216.19,263.931,1215.791Z" transform="translate(-226.029 -1192.863)" fill="#ffb48d"/>
      <path id="Trazado_220550" data-name="Trazado 220550" d="M224.888,1553.862s27.412,49.241,42.659,68.423c0,0-4.405,3.687-11.435,1.562,0,0-22.839-18.5-29.338-28.993s-20.931-28.4-30.493-35.649Z" transform="translate(-179.91 -1472.341)" fill="#512b1f"/>
      <path id="Trazado_220551" data-name="Trazado 220551" d="M163.015,1315.851s1.455,23.253,6.139,26.113c5.383,3.287,32.813-1.233,31.077-4.385a39.782,39.782,0,0,1-3.568-8.821,57.272,57.272,0,0,1-1.6-20.454,54.863,54.863,0,0,0,.036-9.182c-.466-5.686-1.857-10.709-4.077-13.416-3.374-4.115-12.609-8.922-12.609-8.922S161.924,1283.609,163.015,1315.851Z" transform="translate(-153.782 -1255.059)" fill="#faf0f0"/>
      <path id="Trazado_220552" data-name="Trazado 220552" d="M276.907,1393.116a57.275,57.275,0,0,1-1.6-20.454,54.86,54.86,0,0,0,.036-9.182,9.346,9.346,0,0,0-8.622-4.615S259.658,1379.577,276.907,1393.116Z" transform="translate(-234.026 -1319.417)" fill="#eee5e5"/>
      <path id="Trazado_220553" data-name="Trazado 220553" d="M256.1,1306.081s14.5,15.87,22.449,22.511c0,0,25.687,10.971,26.325,11.951a6.054,6.054,0,0,1-1.314,3.643s-25.818-4.081-30.233-6.117-21.728-13.285-23.092-15.461S248.644,1304.077,256.1,1306.081Z" transform="translate(-221.636 -1277.899)" fill="#eee5e5"/>
      <path id="Trazado_220554" data-name="Trazado 220554" d="M244.208,1192.289c-.162.021-2.41-.3-2.636-9.464a7.135,7.135,0,0,1,3.162-5.723c2.409-1.581,8.059-1.054,12.427.076s4.267,3.839,4.142,6.552c-.131,2.847,1.807,6.156,1.807,6.156-4.368.3-7.229-4.425-8.886-4.651s-3.238,1.808-3.69,2.486-.9,1.2-2.411-.3-2.032,2.184-2.032,2.937C246.09,1190.356,245.563,1192.113,244.208,1192.289Z" transform="translate(-215.426 -1176.11)" fill="#4a2009"/>
    </g>
  </g>
</svg>
