<svg xmlns="http://www.w3.org/2000/svg" width="190" height="190" viewBox="0 0 190 190">
  <g id="Grupo_113393" data-name="Grupo 113393" transform="translate(-705 -6061)">
    <g id="Grupo_106975" data-name="Grupo 106975" transform="translate(705 6061)">
      <g id="Elipse_4980" data-name="Elipse 4980" fill="#fff" stroke="#005045" stroke-width="3" stroke-dasharray="3 4">
        <circle cx="95" cy="95" r="95" stroke="none"/>
        <circle cx="95" cy="95" r="93.5" fill="none"/>
      </g>
      <circle id="Elipse_4981" data-name="Elipse 4981" cx="76" cy="76" r="76" transform="translate(19 19)" fill="#bbabf5"/>
    </g>
    <g id="Grupo_106978" data-name="Grupo 106978" transform="translate(-1117.708 5598.78)">
      <path id="Trazado_220840" data-name="Trazado 220840" d="M1905.615,582.8c0,.525,0,.941,0,1.357,0,5.8-.01,11.594,0,17.392a3.4,3.4,0,0,1-1.214,2.933,2.992,2.992,0,0,1-3.106.5,3.074,3.074,0,0,1-2.045-2.522,8.148,8.148,0,0,1-.049-1.171q0-10.51,0-21.019c0-2.717,1.174-3.878,3.905-3.88,1.778,0,3.557.009,5.335,0A3.241,3.241,0,0,0,1912,572.8c.015-3.414,0-6.829.008-10.243.006-2.3.8-3.275,3.038-3.832,2.436-.6,4.87-1.218,7.452-1.865-.307-.448-.509-.767-.735-1.069-2.941-3.928-5.922-7.828-8.8-11.8a6.168,6.168,0,0,1-1.064-2.812,42.258,42.258,0,0,0-2.127-9.983,21.331,21.331,0,0,0-14.253-13.644c-8.465-2.646-16.924-2.879-25.218.8-1.005.446-1.966.993-2.944,1.5a3.2,3.2,0,1,1-3.11-5.583,37.456,37.456,0,0,1,21.288-4.972,45.066,45.066,0,0,1,13.643,2.735c9.321,3.622,15.023,10.468,17.578,20.012.622,2.325.873,4.747,1.368,7.109a5.834,5.834,0,0,0,.862,2.215c2.747,3.762,5.572,7.467,8.359,11.2,3.2,4.292,1.453,9.269-3.73,10.619-1.34.349-2.671.76-4.032,1-.99.175-1.216.631-1.188,1.574.068,2.381.041,4.765.014,7.148a9.6,9.6,0,0,1-9.924,9.887C1907.57,582.806,1906.654,582.8,1905.615,582.8Z" transform="translate(0 0)" fill="#12263f"/>
      <path id="Trazado_220841" data-name="Trazado 220841" d="M2177.152,855.075c1.4,1.382,2.681,2.618,3.933,3.878,1.484,1.493,1.593,3.413.294,4.744-1.341,1.374-3.283,1.3-4.819-.217q-3.034-3-6.03-6.037a3.181,3.181,0,0,1,0-4.742c1.3-1.317,2.62-2.606,4.07-4.044-1.242-1.223-2.457-2.4-3.646-3.6a6.07,6.07,0,0,1-1.076-1.307,3.15,3.15,0,0,1,.771-3.872,3.036,3.036,0,0,1,4.02-.066c2.373,2.248,4.694,4.557,6.931,6.94a3.053,3.053,0,0,1-.332,4.25C2179.958,852.345,2178.6,853.646,2177.152,855.075Z" transform="translate(-241.462 -259.472)" fill="#12263f"/>
      <path id="Trazado_220842" data-name="Trazado 220842" d="M2199.546,668.746c1.477,1.428,2.8,2.661,4.073,3.951a3.165,3.165,0,0,1-.013,4.883q-2.2,2.251-4.439,4.457a3.206,3.206,0,1,1-4.554-4.5c.766-.779,1.611-1.481,2.537-2.324-1.391-1.374-2.607-2.556-3.8-3.759-1.892-1.9-1.9-3.536-.035-5.425s3.761-3.778,5.654-5.655c1.544-1.53,3.49-1.623,4.821-.253s1.228,3.236-.27,4.744C2202.27,666.122,2200.986,667.341,2199.546,668.746Z" transform="translate(-259.12 -117.94)" fill="#12263f"/>
      <path id="Trazado_220843" data-name="Trazado 220843" d="M2222.552,765.945c0-1.994-.007-3.944,0-5.894a3.232,3.232,0,0,1,3.553-3.586q2.881-.021,5.761,0a3.238,3.238,0,0,1,3.49,3.226c-.013,1.859-1.455,3.155-3.544,3.174-.915.009-1.83,0-2.856,0,0,2.034.005,3.946,0,5.859-.008,2.513-1.218,3.735-3.723,3.746-2.383.01-4.766.018-7.148,0-2.109-.02-3.519-1.31-3.527-3.177-.009-1.928,1.4-3.2,3.587-3.221,1.351-.014,2.7-.017,4.053-.028A2.112,2.112,0,0,0,2222.552,765.945Z" transform="translate(-276.929 -194.476)" fill="#12263f"/>
    </g>
  </g>
</svg>
