<svg xmlns="http://www.w3.org/2000/svg" width="190" height="190" viewBox="0 0 190 190">
  <g id="Grupo_113394" data-name="Grupo 113394" transform="translate(-1125 -6061)">
    <g id="Grupo_106976" data-name="Grupo 106976" transform="translate(1125 6061)">
      <g id="Elipse_4980" data-name="Elipse 4980" fill="#fff" stroke="#005045" stroke-width="3" stroke-dasharray="3 4">
        <circle cx="95" cy="95" r="95" stroke="none"/>
        <circle cx="95" cy="95" r="93.5" fill="none"/>
      </g>
      <circle id="Elipse_4981" data-name="Elipse 4981" cx="76" cy="76" r="76" transform="translate(19 19)" fill="#f4b55b"/>
    </g>
    <g id="Grupo_106979" data-name="Grupo 106979" transform="translate(-1265.122 5392.545)">
      <path id="Trazado_220844" data-name="Trazado 220844" d="M2715.2,975.2q-8.689,0-17.377,0c-3.134,0-4.991-1.894-4.832-5.023.152-2.989.313-5.983.632-8.958a8.037,8.037,0,0,1,5.689-7.126c.724-.257.841-.6.838-1.267-.02-5.66.142-11.325-.045-16.979a14.349,14.349,0,0,1,15.02-14.971c3.525.128,6.806.682,9.643,2.854a13.365,13.365,0,0,1,5.6,10.826c.08,6.054.038,12.11.015,18.164a1.3,1.3,0,0,0,.973,1.493,7.847,7.847,0,0,1,5.318,6.762c.353,3.169.546,6.359.714,9.544a4.384,4.384,0,0,1-4.511,4.677C2726.977,975.208,2721.086,975.2,2715.2,975.2Zm.053-2.809c3.882,0,7.763-.018,11.644.016.735.006,1.043-.129,1-.952-.077-1.344-.04-2.7-.014-4.044a1.469,1.469,0,0,1,1.572-1.623c.836.008,1.349.566,1.38,1.582.032,1.052.013,2.1.014,3.157,0,2.019.062,2.072,2.079,1.8a1.589,1.589,0,0,0,1.536-1.8c-.183-2.885-.343-5.774-.615-8.651-.3-3.124-1.986-4.789-5.1-5.354-1.11-.2-2.048-.3-2.526,1.007-.105.289-.411.5-.618.756a13.161,13.161,0,0,1-21.839-1.456.938.938,0,0,0-1.186-.529c-.318.08-.647.111-.973.16-3.283.5-5.084,2.544-5.248,5.872-.111,2.265-.26,4.53-.469,6.787-.27,2.914.048,3.3,2.958,3.271a1.154,1.154,0,0,1,.2,0c.551.09.655-.194.646-.679-.025-1.348-.018-2.7-.006-4.046.01-1.194.522-1.842,1.44-1.86s1.49.682,1.5,1.907.05,2.436-.015,3.65c-.042.79.143,1.059,1,1.047C2707.485,972.358,2711.367,972.388,2715.249,972.388Zm-12.322-37.614c-.063,1.687-.065,1.7,1.594,2.053a13.973,13.973,0,0,0,5.678-.016,29.065,29.065,0,0,0,10.325-4.487c1.657-1.091,2.829-.858,3.923.765a6.343,6.343,0,0,0,2.254,2.016c.645.356.936.294.9-.54a11.077,11.077,0,0,0-4.272-8.43c-2.609-2.124-5.674-2.508-8.912-2.463A11.308,11.308,0,0,0,2702.926,934.774Zm19.726,4.425c0-1.251.032-2.337-.009-3.42-.038-.982-.471-1.2-1.281-.686a28.553,28.553,0,0,1-12.912,4.746c-.3.026-.475.081-.49.441a7.4,7.4,0,0,0,1.738,5.684,20.483,20.483,0,0,0,3.186,2.79,3.665,3.665,0,0,0,4.9-.047c.948-.7,1.816-1.516,2.7-2.3a6.543,6.543,0,0,0,1.941-3.252A18.339,18.339,0,0,0,2722.652,939.2Zm-16.122,16.449c1.131,2.641,5.067,4.942,8.591,4.932,3.582-.01,7.6-2.252,8.686-4.921-2.366-.584-5.478-.035-5.771-3.818a6.117,6.117,0,0,1-5.326.035c-.5-.234-.431.126-.485.4a3.2,3.2,0,0,1-3.072,2.941C2708.283,955.357,2707.415,955.5,2706.53,955.649Zm21.08-9.786q0-2.906,0-5.812c0-1.636-.008-1.617-1.543-2.17-.506-.182-.635-.069-.622.439.023.952,0,1.9,0,2.856a9.351,9.351,0,0,1-3.452,7.608,2.928,2.928,0,0,0-1.136,2.717c.036.587.177.89.813.974,1.724.228,3.443.5,5.157.792.628.107.8-.094.789-.707C2727.592,950.328,2727.609,948.1,2727.61,945.862Zm-24.687.5c0,2.072.012,4.144-.008,6.215-.006.552.141.777.736.676,1.685-.285,3.377-.532,5.067-.794.3-.046.578-.086.7-.432a3.538,3.538,0,0,0-.811-3.219,9.4,9.4,0,0,1-3.4-7.658c.027-1.012-.189-1.492-1.289-1.679-.916-.156-1.034.062-1.015.873C2702.954,942.352,2702.922,944.359,2702.923,946.365Z" transform="translate(-204.398 -164.347)" fill="#12263f"/>
      <path id="Trazado_220845" data-name="Trazado 220845" d="M2450.226,954.135c.14-1.363.341-1.587,1.7-1.875.932-.2,1.861-.414,2.8-.576.488-.085.6-.317.633-.791a3.329,3.329,0,0,0-1.315-3.315,8.463,8.463,0,0,1-3.029-5.285,1.682,1.682,0,0,0-.866-1.3,3.418,3.418,0,0,1-1.781-3.106c-.027-2.665-.106-5.336.034-7.994a9.548,9.548,0,0,1,9.4-9.091c1.25-.039,2.5.042,3.751-.029a8.036,8.036,0,0,1,5.5,1.478,3.764,3.764,0,0,0,1.956.6,6.389,6.389,0,0,1,6.116,6.7c.014,2.6-.017,5.2.01,7.8a3.886,3.886,0,0,1-2.1,3.83.942.942,0,0,0-.494.783,10.354,10.354,0,0,1-4.007,6.477,3.694,3.694,0,0,0-.571,2.98c.224.34.649.271.983.342,2.831.6,5.676,1.141,8.5,1.779a8.636,8.636,0,0,1,6.926,7.765c.294,3.044.48,6.1.629,9.157a4.349,4.349,0,0,1-4.436,4.646q-18.907.022-37.815,0a4.359,4.359,0,0,1-4.484-4.6c.156-3.186.323-6.381.711-9.544.458-3.726,2.708-6.1,6.229-7.285,1.255-.421,1.717-.2,2.336.917.021,1.03-.547,1.489-1.5,1.767a5.549,5.549,0,0,0-4.291,4.876c-.361,3.067-.518,6.158-.714,9.243a1.671,1.671,0,0,0,1.827,1.856c.822.023,1.648-.034,2.467.023.722.05.881-.255.867-.914-.035-1.71-.018-3.422,0-5.133.011-1.073.516-1.685,1.365-1.709.884-.026,1.426.608,1.435,1.732.014,1.711.033,3.422-.008,5.133-.016.685.2.892.89.89q11.747-.034,23.5,0c.778,0,.931-.267.916-.967-.04-1.743-.027-3.487,0-5.231.017-1,.563-1.568,1.395-1.558a1.45,1.45,0,0,1,1.4,1.591c.024,1.019-.028,2.041.011,3.06.038,1-.469,2.37.221,2.908.643.5,1.95.173,2.964.167a1.714,1.714,0,0,0,1.931-2.041c-.182-2.823-.352-5.647-.6-8.464a6,6,0,0,0-4.873-5.6c-2.766-.585-5.548-1.1-8.307-1.716-.615-.137-.783.038-.992.542a6.05,6.05,0,0,1-3.467,3.453,6.213,6.213,0,0,1-8.12-3.4c-.269-.619-.517-.776-1.153-.582-.719.22-1.491.266-2.214.475A1.775,1.775,0,0,1,2450.226,954.135Zm.951-17.111c-.113,1.01.064,1.7,1.254,1.835.846.1,1.069.843,1.149,1.624a8.971,8.971,0,0,0,7.044,7.794,4.918,4.918,0,0,0,1.467.133,9.143,9.143,0,0,0,7.768-7.767c.092-1.031.4-1.78,1.583-1.884a.886.886,0,0,0,.853-1.023c-.059-.62.411-1.393-.5-1.82a10.656,10.656,0,0,1-3.228-2.4,1.919,1.919,0,0,0-2.509-.384c-.524.276-1.036.574-1.568.831-3.868,1.864-7.887,2.972-12.216,2.2C2451.378,936,2450.926,936.016,2451.177,937.024Zm21.15-4.156c0-1.215.011-2.291,0-3.367a3.552,3.552,0,0,0-3.5-3.856,7.4,7.4,0,0,1-3.663-1.288,3.94,3.94,0,0,0-2.293-.785c-1.676.016-3.353-.017-5.028.015a6.751,6.751,0,0,0-5.017,2.367c-1.772,1.939-1.73,4.306-1.647,6.692.016.446.382.487.688.575a11.371,11.371,0,0,0,4.687.32,23.4,23.4,0,0,0,7.968-2.741,4.722,4.722,0,0,1,6.255.92A4.4,4.4,0,0,0,2472.326,932.868Zm-7.253,17.713a10.122,10.122,0,0,1-4.886.484c-.665-.121-1.511-.858-1.937-.285-.362.487-.13,1.453-.081,2.2a3.475,3.475,0,0,0,6.884.306A21.6,21.6,0,0,0,2465.073,950.581Z" transform="translate(0 -164.255)" fill="#12263f"/>
      <path id="Trazado_220846" data-name="Trazado 220846" d="M2517.83,716.061c5.167,0,10.334-.019,15.5.008a6.055,6.055,0,0,1,6.06,5.6c.079,1.094-.382,1.76-1.291,1.868-.827.1-1.389-.467-1.534-1.541a3.28,3.28,0,0,0-3.6-3.133q-15.2-.017-30.409-.02a3.349,3.349,0,0,0-3.651,3.611q-.028,6.861,0,13.722a3.319,3.319,0,0,0,3.567,3.583c1.382.008,2.765-.019,4.147.007a3.8,3.8,0,0,1,3.9,3.954c-.01,1.479-.115,2.958-.163,4.437-.007.213-.144.5.107.632.315.16.455-.166.621-.344,2.106-2.265,4.237-4.507,6.295-6.815a5.181,5.181,0,0,1,4.437-1.888c1.475.089,2.961.007,4.442.022,1.06.011,1.682.544,1.678,1.39,0,.873-.595,1.378-1.666,1.386-1.612.012-3.226.028-4.838-.008a2.075,2.075,0,0,0-1.719.744q-3.39,3.721-6.844,7.383a3.041,3.041,0,0,1-5.363-2.206c.075-1.413.149-2.826.213-4.239.06-1.324-.253-1.659-1.553-1.667-1.316-.008-2.633.013-3.949-.008a6.019,6.019,0,0,1-6.084-5.988q-.092-7.255,0-14.511a6.043,6.043,0,0,1,6.2-5.977C2507.5,716.049,2512.663,716.061,2517.83,716.061Z" transform="translate(-46.397 0)" fill="#12263f"/>
      <path id="Trazado_220847" data-name="Trazado 220847" d="M2687.107,767.563c3.851,0,7.7-.006,11.552,0a4.893,4.893,0,0,1,5.278,5.213q.026,5.183,0,10.367a4.912,4.912,0,0,1-5.2,5.211c-1.645.021-3.293.06-4.936-.015-.913-.041-1.3.148-1.223,1.154a28.884,28.884,0,0,1-.058,3.255,2.649,2.649,0,0,1-4.706,1.648c-1.57-1.818-3.145-3.632-4.689-5.471a1.46,1.46,0,0,0-1.265-.575q-3.11.043-6.22,0a4.933,4.933,0,0,1-5.218-5.2q-.04-5.183-.018-10.366a4.961,4.961,0,0,1,5.348-5.277q5.676-.007,11.353,0Zm2.41,24.394.264-.024c0-1.182-.031-2.365.007-3.545a2.717,2.717,0,0,1,2.956-2.842c1.973-.025,3.946-.027,5.919-.057a2.173,2.173,0,0,0,2.427-2.44q.007-5.032,0-10.064c0-1.763-.75-2.549-2.5-2.554q-11.4-.035-22.792-.053c-1.807,0-2.553.759-2.557,2.6q-.01,4.982,0,9.965c0,1.818.765,2.59,2.572,2.6,2.1.013,4.211.046,6.315-.015a3.493,3.493,0,0,1,2.987,1.386C2686.55,788.626,2688.049,790.279,2689.518,791.957Z" transform="translate(-186.28 -41.289)" fill="#12263f"/>
      <path id="Trazado_220848" data-name="Trazado 220848" d="M2583.353,763.637a1.532,1.532,0,0,1-1.135-.594c-1.229-1.236-2.492-2.439-3.685-3.708-.468-.5-.724-.428-1.153.02-1.183,1.234-2.409,2.427-3.625,3.629-.8.788-1.621.875-2.243.255-.644-.642-.569-1.381.258-2.222,1.2-1.219,2.4-2.441,3.63-3.624.452-.433.5-.711.019-1.168-1.238-1.178-2.431-2.4-3.631-3.623-.835-.848-.924-1.582-.3-2.222.644-.657,1.453-.566,2.314.285,1.216,1.2,2.439,2.4,3.62,3.635.425.446.665.427,1.085-.016,1.175-1.241,2.4-2.434,3.618-3.636.849-.839,1.693-.924,2.315-.258.6.641.5,1.417-.323,2.245-1.179,1.192-2.348,2.4-3.569,3.545-.486.458-.553.724-.029,1.219,1.315,1.24,2.568,2.546,3.84,3.831a1.359,1.359,0,0,1,.315,1.629A1.314,1.314,0,0,1,2583.353,763.637Z" transform="translate(-106.584 -27.197)" fill="#12263f"/>
      <path id="Trazado_220849" data-name="Trazado 220849" d="M2739.608,794.18a2.012,2.012,0,0,1-.434,1.147c-1.595,2.411-3.182,4.828-4.786,7.234-.9,1.348-1.77,1.417-2.853.252s-2.153-2.306-3.211-3.475c-.736-.813-.763-1.679-.113-2.256s1.47-.446,2.241.372c.518.55,1.064,1.081,1.524,1.677.537.7.851.76,1.361-.08,1.107-1.824,2.335-3.575,3.5-5.363a1.517,1.517,0,0,1,1.564-.8,1.309,1.309,0,0,1,1.088.882A3.443,3.443,0,0,1,2739.608,794.18Z" transform="translate(-232.298 -61.642)" fill="#12263f"/>
    </g>
  </g>
</svg>
