<svg xmlns="http://www.w3.org/2000/svg" width="666.688" height="326.408" viewBox="0 0 666.688 326.408">
  <g id="Grupo_107117" data-name="Grupo 107117" transform="translate(-41.53 -294.739)">
    <g id="Grupo_107015" data-name="Grupo 107015" transform="translate(266.696 530.088)">
      <path id="Trazado_220898" data-name="Trazado 220898" d="M1350.5,1432.814s3.576,6.489-2.13,18.022c-5.816,11.751-4.755,19.959-4.755,19.959l-5.383,5.071s-.913-13.058,4.21-22.279A73.8,73.8,0,0,0,1350.5,1432.814Z" transform="translate(-1295.2 -1432.814)" fill="#95a6db"/>
      <path id="Trazado_220899" data-name="Trazado 220899" d="M1406.12,1450.471s.954,5.378-5.486,12.849c-6.579,7.607-7.686,13.818-7.686,13.818l-4.419,3.516s1.94-10.463,7.482-16.339A63.4,63.4,0,0,0,1406.12,1450.471Z" transform="translate(-1335.143 -1446.82)" fill="#95a6db"/>
      <path id="Trazado_220900" data-name="Trazado 220900" d="M1305.407,1492.236s-4.824,3.33-7.931,16.865c-2.533,11.029-.031,16.815-1.625,23.573l6.837-7.33c.43-4.8-2.643-7.971-.83-18.083A117.884,117.884,0,0,1,1305.407,1492.236Z" transform="translate(-1261.63 -1479.948)" fill="#95a6db"/>
      <path id="Trazado_220901" data-name="Trazado 220901" d="M1130.829,1689.4s-2.15,5.471,2.817,18.425c4.047,10.57,9.55,11.994,10.6,14.432l2.39-5.32c-2.922-4.155-6.246-3.669-10.381-13.075A119.535,119.535,0,0,1,1130.829,1689.4Z" transform="translate(-1130.366 -1636.335)" fill="#95a6db"/>
      <path id="Trazado_220902" data-name="Trazado 220902" d="M1249.317,1532.932s-3.345,9.551-4.125,15.646c-1.125,8.663,2.28,13.317,1.767,22.248l-4.811,5.789a38.614,38.614,0,0,1-2.365-20.024C1242.829,1538.747,1249.317,1532.932,1249.317,1532.932Z" transform="translate(-1216.794 -1512.228)" fill="#95a6db"/>
      <path id="Trazado_220903" data-name="Trazado 220903" d="M1185.914,1554.244a58.221,58.221,0,0,1,.311,16.94,46.336,46.336,0,0,0,6.634,30.019l-3.582,3.392s-10.983-9.06-8.638-23.324C1183.133,1566.2,1185.914,1554.244,1185.914,1554.244Z" transform="translate(-1169.982 -1529.133)" fill="#95a6db"/>
      <path id="Trazado_220904" data-name="Trazado 220904" d="M1303.792,1656.525s4.037-1.4,20.757.844c10.714,1.443,7.606-2.642,17.708.492-7.707.626-10.37,6.232-20.414,5.47a154.247,154.247,0,0,0-24.13.044Z" transform="translate(-1263.106 -1609.92)" fill="#95a6db"/>
      <path id="Trazado_220905" data-name="Trazado 220905" d="M1297.074,1709.667s-6.629,8.228-21.468,7.064a83.576,83.576,0,0,0-27.189,2.409l4.531-7.449s6.181-4.423,21.494-1.731C1284.963,1711.806,1297.074,1709.667,1297.074,1709.667Z" transform="translate(-1224.005 -1651.958)" fill="#95a6db"/>
      <path id="Trazado_220906" data-name="Trazado 220906" d="M1253.806,1777.6s-6.629,8.228-21.468,7.065a83.553,83.553,0,0,0-27.189,2.408l4.531-7.449s6.181-4.423,21.494-1.732C1241.694,1779.741,1253.806,1777.6,1253.806,1777.6Z" transform="translate(-1189.684 -1705.844)" fill="#95a6db"/>
      <path id="Trazado_220907" data-name="Trazado 220907" d="M1418,1579.411s-4.767,4.259-14.117,3.171a46.293,46.293,0,0,0-16.471.887l2.689-2.776s3.906-2.8,13.586-1.1A48.3,48.3,0,0,0,1418,1579.411Z" transform="translate(-1334.259 -1548.808)" fill="#95a6db"/>
      <path id="Trazado_220908" data-name="Trazado 220908" d="M1343.332,1610.652a105.828,105.828,0,0,1,18.048.329c6.774.622,15.815-3.4,15.815-3.4s-7.017,9.662-17.141,8.1a93.274,93.274,0,0,0-23.1-.309Z" transform="translate(-1294.233 -1571.442)" fill="#95a6db"/>
      <path id="Trazado_220909" data-name="Trazado 220909" d="M1396.95,1524.892s6.133-9.48,16.339-11.3a55.158,55.158,0,0,0,17.184-6.3s-5.7,9.79-15.251,10.45a26.8,26.8,0,0,0-14.962,6.4Z" transform="translate(-1341.822 -1491.89)" fill="#95a6db"/>
      <path id="Trazado_220910" data-name="Trazado 220910" d="M1195.622,1635.335l-1.526-.649c4.006-9.412,21.981-39.956,44.437-55.094l.927,1.376C1217.316,1595.9,1199.581,1626.044,1195.622,1635.335Z" transform="translate(-1180.917 -1549.239)" fill="#95a6db"/>
    </g>
    <g id="Grupo_107016" data-name="Grupo 107016" transform="translate(565.158 527.08)">
      <path id="Trazado_220911" data-name="Trazado 220911" d="M2637.806,1498.311c-2.387,1.223-4.874,1.675-6.021,0-.992-1.444,2.571-3.9,6.021-5.326v-6a13.46,13.46,0,0,1-6.021,2.378c-3.073.2-3.048-1.549,2.2-4.547a28.5,28.5,0,0,0,3.823-2.583v-16.686c-3.568,5.736-10.887,16.778-13.4,15.212-3.509-2.165,12.281-16.1,13.152-20.672.528-2.788-5.334-14.609-5.334-14.609s-10.166,24.147-15.052,22.38c-2.353-.846,11.841-21.828,9.748-25.638s-7.956-6.951-7.956-6.951-4.832,18.47-7.361,16.33c-2.035-1.717,4.367-13.838,3.044-18.737a13.013,13.013,0,0,0-7.537-8.755s-3.157,11.146-6.821,8.852c-1.436-.9,3.681-8.814,3.22-12.314-4.911.264-9.17.184-12.377-2.378-.067,2.713-3.848,5.883-9.212,9.245,1.951,4.531,11.883,6.226,10.56,9.563-1.1,2.772-12.658-4.866-12.658-4.866s-4.187,5.514-2.094,11.18c1.641,4.4,12.385,8.855,10.576,11.062-2.236,2.726-14.01-7.47-13.713-6.49,2.278,7.445-.955,16.489-.955,16.489,5.276,13.755,26.433,17.318,23.507,20.613-2.613,2.931-22.837-11.188-22.837-11.188l2.366,9.84s11.029,11,25.542,14.186c-7.486,3.668-23.469-5.732-23.469-5.732a52.083,52.083,0,0,0,7.332,14.952h51.728Zm-55.781-57.711c.838-1.076,11.017,3.546,9.6,6.205S2580.149,1443,2582.024,1440.6Zm16.535,32.136c-.867,2.625-7.926-.05-11.891-2.542-5.092-3.2-7.717-6.992-6.067-8.709,1.8-1.88,5.25,1.742,9.919,3.969C2596.064,1468.1,2599.4,1470.2,2598.56,1472.736Zm.632-12.955c-1,2.365-7.453-.314-6.909-2.931C2592.639,1455.133,2600.193,1457.415,2599.192,1459.781Zm8.914,28.748c-1.034,2.789-8.035-.506-6.871-3.035.9-1.964,7.905.247,6.871,3.035Zm-2.361-41.925c-2.785-.938,1.762-9.965,4.292-8.479s-1.541,9.4-4.292,8.479Zm4.605-11.674a.983.983,0,1,1,.006.009l-.014,0Z" transform="translate(-2573.638 -1418.27)" fill="#95a6db"/>
      <path id="Trazado_220912" data-name="Trazado 220912" d="M2694.881,1519.994l22.414,67.819h3.019Z" transform="translate(-2669.808 -1498.958)" fill="#3a62ad"/>
      <path id="Trazado_220913" data-name="Trazado 220913" d="M2690.648,1702.4l16.405,3.685.125,1.8Z" transform="translate(-2666.451 -1643.647)" fill="#3a62ad"/>
      <path id="Trazado_220914" data-name="Trazado 220914" d="M2743.6,1596.847l8.437-15.828-9.187,13.826Z" transform="translate(-2707.856 -1547.364)" fill="#3a62ad"/>
      <path id="Trazado_220915" data-name="Trazado 220915" d="M2786.948,1739.863l10.589-10.246-10.752,7.328Z" transform="translate(-2742.707 -1665.232)" fill="#3a62ad"/>
    </g>
    <g id="Grupo_107017" data-name="Grupo 107017" transform="translate(140.123 527.08)">
      <path id="Trazado_220916" data-name="Trazado 220916" d="M518.3,1507.125h51.728a52.081,52.081,0,0,0,7.332-14.952s-15.982,9.4-23.469,5.732c14.513-3.191,25.542-14.186,25.542-14.186l2.366-9.84s-20.224,14.119-22.837,11.188c-2.927-3.3,18.231-6.858,23.507-20.613,0,0-3.232-9.044-.955-16.489.3-.98-11.477,9.216-13.713,6.49-1.809-2.207,8.935-6.666,10.577-11.062,2.094-5.666-2.094-11.18-2.094-11.18s-11.561,7.637-12.658,4.866c-1.323-3.337,8.608-5.033,10.56-9.563-5.364-3.362-9.145-6.532-9.212-9.245-3.207,2.562-7.466,2.642-12.377,2.378-.461,3.5,4.656,11.414,3.22,12.314-3.664,2.295-6.821-8.852-6.821-8.852a13.013,13.013,0,0,0-7.537,8.755c-1.323,4.9,5.079,17.021,3.044,18.737-2.529,2.14-7.361-16.33-7.361-16.33s-5.862,3.141-7.956,6.951,12.1,24.792,9.748,25.638c-4.886,1.767-15.053-22.38-15.053-22.38s-5.862,11.82-5.334,14.609c.871,4.568,16.661,18.507,13.152,20.672-2.512,1.566-9.831-9.475-13.4-15.212v16.686a28.515,28.515,0,0,0,3.823,2.583c5.246,3,5.271,4.748,2.2,4.547a13.46,13.46,0,0,1-6.021-2.378v6c3.45,1.428,7.013,3.882,6.021,5.326-1.147,1.675-3.635,1.223-6.021,0Zm46.184-60.32c-1.419-2.659,8.759-7.281,9.6-6.205C575.954,1443,565.9,1449.464,564.481,1446.805Zm1.1,18.649c4.669-2.227,8.115-5.849,9.919-3.969,1.65,1.717-.975,5.51-6.067,8.709-3.965,2.492-11.025,5.167-11.891,2.542C556.706,1470.2,560.038,1468.1,565.582,1465.454Zm-1.763-8.6c.544,2.617-5.908,5.3-6.909,2.931S563.464,1455.133,563.82,1456.85ZM548,1488.529c-1.034-2.788,5.967-5,6.871-3.035,1.164,2.529-5.837,5.824-6.871,3.035Zm2.362-41.925c-2.751.921-6.821-6.993-4.292-8.479s7.076,7.541,4.292,8.479Zm-4.6-11.669-.014,0a8.773,8.773,0,1,1,.006-.009Z" transform="translate(-518.297 -1418.27)" fill="#95a6db"/>
      <path id="Trazado_220917" data-name="Trazado 220917" d="M609.8,1519.994l-22.414,67.819h-3.019Z" transform="translate(-570.703 -1498.958)" fill="#3a62ad"/>
      <path id="Trazado_220918" data-name="Trazado 220918" d="M648.175,1702.4l-16.405,3.685-.126,1.8Z" transform="translate(-608.204 -1643.647)" fill="#3a62ad"/>
      <path id="Trazado_220919" data-name="Trazado 220919" d="M623.4,1596.847l-8.437-15.828,9.187,13.826Z" transform="translate(-594.971 -1547.364)" fill="#3a62ad"/>
      <path id="Trazado_220920" data-name="Trazado 220920" d="M574.039,1739.863l-10.589-10.246,10.752,7.328Z" transform="translate(-554.113 -1665.232)" fill="#3a62ad"/>
    </g>
    <g id="Grupo_107018" data-name="Grupo 107018" transform="translate(658.288 538.191)">
      <path id="Trazado_220921" data-name="Trazado 220921" d="M3028.472,1664.059q-7.24-9-2.8-23.786Q3033.409,1653.646,3028.472,1664.059Z" transform="translate(-3023.985 -1605.475)" fill="#95a6db"/>
      <path id="Trazado_220922" data-name="Trazado 220922" d="M3064.282,1605.367q-5.282-9.107.762-21.812Q3070.177,1596.673,3064.282,1605.367Z" transform="translate(-3053.995 -1560.486)" fill="#95a6db"/>
      <path id="Trazado_220923" data-name="Trazado 220923" d="M3100.142,1545.134q-3.69-9.3,3.762-20.39Q3106.918,1537.784,3100.142,1545.134Z" transform="translate(-3083.424 -1513.837)" fill="#95a6db"/>
      <path id="Trazado_220924" data-name="Trazado 220924" d="M3148.827,1486.618q.183,11.315-6.715,16.217Q3140.708,1494.467,3148.827,1486.618Z" transform="translate(-3117.52 -1483.595)" fill="#95a6db"/>
      <path id="Trazado_220925" data-name="Trazado 220925" d="M3192.306,1472q-1.529,9.349-7.925,12.358Q3184.455,1477.277,3192.306,1472Z" transform="translate(-3151.212 -1472.001)" fill="#95a6db"/>
      <path id="Trazado_220926" data-name="Trazado 220926" d="M3208.244,1499.593q2.6-6.585,11.826-8.708Q3215.291,1499.069,3208.244,1499.593Z" transform="translate(-3170.14 -1486.98)" fill="#95a6db"/>
      <path id="Trazado_220927" data-name="Trazado 220927" d="M3087.91,1716.588q-9.651,12.234-21.28,11.446Q3072.377,1717.926,3087.91,1716.588Z" transform="translate(-3057.811 -1666.009)" fill="#95a6db"/>
      <path id="Trazado_220928" data-name="Trazado 220928" d="M3109.906,1631.853q7.245-6.186,19.568-2.865Q3118.632,1635.683,3109.906,1631.853Z" transform="translate(-3092.138 -1595.604)" fill="#95a6db"/>
      <path id="Trazado_220929" data-name="Trazado 220929" d="M3155.475,1588.7q-9.432,5.835-17.026,2.493Q3144.749,1585.807,3155.475,1588.7Z" transform="translate(-3114.778 -1563.766)" fill="#95a6db"/>
      <path id="Trazado_220930" data-name="Trazado 220930" d="M3175.361,1554.03q6.306-5.369,17.026-2.493Q3182.949,1557.373,3175.361,1554.03Z" transform="translate(-3144.057 -1534.294)" fill="#95a6db"/>
      <path id="Trazado_220931" data-name="Trazado 220931" d="M3034.131,1597.092c4.05-17.967,4.539-16.522,8.767-26.968q1.709-4.235,3.653-8.033a80.628,80.628,0,0,1,9.755-14.449q6.46-7.957,11.231-10.485l.3-.355a.287.287,0,0,1,.317-.189.5.5,0,0,1,.395-.011.92.92,0,0,1,.255.34.494.494,0,0,1,.011.394l-.112.272a1.071,1.071,0,0,1-.339.261l0,.066-.29.122q-4.609,2.571-10.891,10.254a79.038,79.038,0,0,0-9.542,14.372,84.244,84.244,0,0,0-3.663,7.878l-.279.7q6.469-8.251,20.5-7.375-10.233,9.619-20.5,7.375c-4.093,10.286-4.461,8.537-8.4,26.054Z" transform="translate(-3032.033 -1523.215)" fill="#95a6db"/>
    </g>
    <g id="Grupo_107019" data-name="Grupo 107019" transform="translate(54.591 540.409)">
      <path id="Trazado_220932" data-name="Trazado 220932" d="M317.061,1674.786q7.24-9,2.8-23.786Q312.124,1664.373,317.061,1674.786Z" transform="translate(-271.618 -1616.202)" fill="#95a6db"/>
      <path id="Trazado_220933" data-name="Trazado 220933" d="M284.306,1616.094q5.282-9.107-.762-21.813Q278.411,1607.4,284.306,1616.094Z" transform="translate(-244.663 -1571.212)" fill="#95a6db"/>
      <path id="Trazado_220934" data-name="Trazado 220934" d="M247.3,1555.861q3.691-9.3-3.762-20.39Q240.526,1548.511,247.3,1555.861Z" transform="translate(-214.09 -1524.563)" fill="#95a6db"/>
      <path id="Trazado_220935" data-name="Trazado 220935" d="M194.725,1497.345q-.184,11.315,6.715,16.217Q202.844,1505.194,194.725,1497.345Z" transform="translate(-176.102 -1494.322)" fill="#95a6db"/>
      <path id="Trazado_220936" data-name="Trazado 220936" d="M147.417,1482.726q1.528,9.348,7.925,12.359Q155.268,1488,147.417,1482.726Z" transform="translate(-138.581 -1482.726)" fill="#95a6db"/>
      <path id="Trazado_220937" data-name="Trazado 220937" d="M116.516,1510.319q-2.6-6.586-11.826-8.708Q109.469,1509.8,116.516,1510.319Z" transform="translate(-104.69 -1497.706)" fill="#95a6db"/>
      <path id="Trazado_220938" data-name="Trazado 220938" d="M211.087,1717.968q9.651,12.234,21.28,11.446Q226.62,1719.306,211.087,1717.968Z" transform="translate(-189.085 -1669.321)" fill="#95a6db"/>
      <path id="Trazado_220939" data-name="Trazado 220939" d="M185.156,1642.579q-7.245-6.186-19.569-2.864Q176.43,1646.41,185.156,1642.579Z" transform="translate(-152.994 -1606.33)" fill="#95a6db"/>
      <path id="Trazado_220940" data-name="Trazado 220940" d="M149.34,1599.428q9.432,5.835,17.026,2.493Q160.067,1596.533,149.34,1599.428Z" transform="translate(-140.107 -1574.492)" fill="#95a6db"/>
      <path id="Trazado_220941" data-name="Trazado 220941" d="M129.455,1564.757q-6.306-5.37-17.026-2.493Q121.867,1568.1,129.455,1564.757Z" transform="translate(-110.829 -1545.02)" fill="#95a6db"/>
      <path id="Trazado_220942" data-name="Trazado 220942" d="M202.812,1607.819c-4.05-17.967-4.539-16.522-8.767-26.967q-1.71-4.235-3.653-8.033a80.623,80.623,0,0,0-9.755-14.45q-6.459-7.957-11.231-10.485l-.3-.355a.286.286,0,0,0-.317-.188.5.5,0,0,0-.394-.011.92.92,0,0,0-.255.34.5.5,0,0,0-.011.394l.112.272a1.074,1.074,0,0,0,.34.261l0,.066.29.122q4.609,2.571,10.891,10.254a79.035,79.035,0,0,1,9.542,14.371,84.3,84.3,0,0,1,3.663,7.878l.279.7q-6.469-8.25-20.5-7.375,10.233,9.619,20.5,7.375c4.093,10.286,4.461,8.537,8.4,26.054Z" transform="translate(-154.981 -1533.941)" fill="#95a6db"/>
    </g>
    <g id="Grupo_107020" data-name="Grupo 107020" transform="translate(41.53 581.181)">
      <path id="Trazado_220943" data-name="Trazado 220943" d="M159.258,1693.266q-1.652-7.591-11.266-11.51Q151.7,1691.467,159.258,1693.266Z" transform="translate(-125.976 -1681.37)" fill="#95a6db"/>
      <path id="Trazado_220944" data-name="Trazado 220944" d="M97.718,1679.887q4.788,7.372,11.36,7.54Q106.354,1681.425,97.718,1679.887Z" transform="translate(-86.099 -1679.887)" fill="#95a6db"/>
      <path id="Trazado_220945" data-name="Trazado 220945" d="M60.878,1690.988q5.039,5.362,10.467,4.528Q68.226,1690.984,60.878,1690.988Z" transform="translate(-56.877 -1688.692)" fill="#95a6db"/>
      <path id="Trazado_220946" data-name="Trazado 220946" d="M52.928,1717.543q-4.531-3.118-11.4-.484Q48.159,1720.262,52.928,1717.543Z" transform="translate(-41.53 -1708.415)" fill="#95a6db"/>
      <path id="Trazado_220947" data-name="Trazado 220947" d="M201.2,1812.2q11.525,3.7,18.678-1.85Q211.792,1806.322,201.2,1812.2Z" transform="translate(-168.182 -1782.07)" fill="#95a6db"/>
      <path id="Trazado_220948" data-name="Trazado 220948" d="M156.445,1754.72q-7.352-.845-13.854,6.639Q152.482,1760.972,156.445,1754.72Z" transform="translate(-121.692 -1739.177)" fill="#95a6db"/>
      <path id="Trazado_220949" data-name="Trazado 220949" d="M114.4,1745.421q8.609-.329,12.054-5.776Q120.061,1738.9,114.4,1745.421Z" transform="translate(-99.333 -1727.227)" fill="#95a6db"/>
      <path id="Trazado_220950" data-name="Trazado 220950" d="M86.54,1731.689q-6.392-.727-12.054,5.776Q83.1,1737.133,86.54,1731.689Z" transform="translate(-67.671 -1720.919)" fill="#95a6db"/>
      <path id="Trazado_220951" data-name="Trazado 220951" d="M151.516,1746.312c-10.4-9.823-10.089-8.68-17.343-13.579q-2.938-1.987-5.837-3.593a62.6,62.6,0,0,0-12.553-5.083q-7.613-2.328-11.785-1.887l-.348-.1a.223.223,0,0,0-.286.016.387.387,0,0,0-.259.164.721.721,0,0,0-.017.329.388.388,0,0,0,.164.259l.19.127a.841.841,0,0,0,.332.021l.027.043.239-.047q4.085-.341,11.465,1.886a61.4,61.4,0,0,1,12.382,5.125,65.507,65.507,0,0,1,5.777,3.489l.484.331q-7.747-2.512-16.409,4.135,10.766,1.763,16.409-4.135c7.1,4.854,6.577,3.568,16.714,13.148Z" transform="translate(-90.348 -1713.313)" fill="#95a6db"/>
    </g>
    <g id="Grupo_107021" data-name="Grupo 107021" transform="translate(390.667 541.43)">
      <path id="Trazado_220952" data-name="Trazado 220952" d="M1966,1678.164q7.069-9.861,1.547-25.114Q1960.216,1667.529,1966,1678.164Z" transform="translate(-1915.143 -1618.849)" fill="#95a6db"/>
      <path id="Trazado_220953" data-name="Trazado 220953" d="M1927.321,1619.032q5.009-9.861-2.072-22.836Q1920.63,1610.256,1927.321,1619.032Z" transform="translate(-1883.345 -1573.752)" fill="#95a6db"/>
      <path id="Trazado_220954" data-name="Trazado 220954" d="M1884.121,1558.337q3.328-9.966-5.137-21.169Q1876.584,1551.023,1884.121,1558.337Z" transform="translate(-1847.685 -1526.931)" fill="#95a6db"/>
      <path id="Trazado_220955" data-name="Trazado 220955" d="M1824.063,1500.233q.468,11.879,7.99,16.619Q1833.038,1507.992,1824.063,1500.233Z" transform="translate(-1804.581 -1497.634)" fill="#95a6db"/>
      <path id="Trazado_220956" data-name="Trazado 220956" d="M1773.567,1487.664q2.149,9.717,9.035,12.5Q1782.11,1492.74,1773.567,1487.664Z" transform="translate(-1764.527 -1487.664)" fill="#95a6db"/>
      <path id="Trazado_220957" data-name="Trazado 220957" d="M1742.765,1518.409q-3.111-6.757-12.913-8.444Q1735.342,1518.272,1742.765,1518.409Z" transform="translate(-1729.852 -1505.353)" fill="#95a6db"/>
      <path id="Trazado_220958" data-name="Trazado 220958" d="M1843.618,1741.118q10.837,12.269,22.99,10.764Q1859.99,1741.615,1843.618,1741.118Z" transform="translate(-1820.092 -1688.705)" fill="#95a6db"/>
      <path id="Trazado_220959" data-name="Trazado 220959" d="M1822.747,1651.206q-7.961-6.065-20.694-1.862Q1813.818,1655.734,1822.747,1651.206Z" transform="translate(-1787.122 -1614.545)" fill="#95a6db"/>
      <path id="Trazado_220960" data-name="Trazado 220960" d="M1782.625,1608.282q10.234,5.57,18,1.621Q1793.707,1604.62,1782.625,1608.282Z" transform="translate(-1771.712 -1582.15)" fill="#95a6db"/>
      <path id="Trazado_220961" data-name="Trazado 220961" d="M1759.74,1573.079q-6.928-5.264-18-1.621Q1751.976,1577.028,1759.74,1573.079Z" transform="translate(-1739.278 -1552.948)" fill="#95a6db"/>
      <path id="Trazado_220962" data-name="Trazado 220962" d="M1839.105,1615.532c-5.3-18.61-5.726-17.066-10.77-27.776q-2.041-4.342-4.3-8.213a84.681,84.681,0,0,0-11.076-14.587q-7.241-7.97-12.393-10.342l-.336-.355a.3.3,0,0,0-.344-.179.522.522,0,0,0-.414.011.967.967,0,0,0-.247.371.521.521,0,0,0,.011.414l.133.279a1.135,1.135,0,0,0,.371.253l0,.069.311.111q4.985,2.427,12.023,10.12a83.044,83.044,0,0,1,10.848,14.518,88.618,88.618,0,0,1,4.3,8.05l.334.72q-7.267-8.277-21.933-6.54,11.3,9.493,21.933,6.54c4.894,10.551,5.177,8.694,10.336,26.839Z" transform="translate(-1784.847 -1540.315)" fill="#95a6db"/>
    </g>
    <path id="Trazado_220963" data-name="Trazado 220963" d="M778.5,1846.317H170.781a3.5,3.5,0,0,1-3.5-3.5h0a3.5,3.5,0,0,1,3.5-3.5H778.5a3.5,3.5,0,0,1,3.5,3.5h0A3.5,3.5,0,0,1,778.5,1846.317Z" transform="translate(-99.749 -1225.171)" fill="#95a6db"/>
    <g id="Grupo_107028" data-name="Grupo 107028" transform="translate(143.887 324.57)">
      <g id="c" transform="translate(2.991 37.418)">
        <path id="Trazado_220964" data-name="Trazado 220964" d="M561.326,642.345l-.833-5.527s3.872-.6,3.667-3.325l-4.072-.048s-2.191-2.008.324-8.118c.582-5.747-3.209-2.865-3.725-4.683-.762-2.684-5.569,2.7-5.717,8.381a25.633,25.633,0,0,0,3.722,13.307Z" transform="translate(-550.963 -619.933)" fill="#f37a50"/>
      </g>
      <path id="Trazado_220965" data-name="Trazado 220965" d="M861.819,1778.806c1.314-3.637,4.122-4.042,4.122-4.042,5.459,7.678,18.863,2.966,18.419,13.351-20.384-.133-28.856,0-28.856,0a77.622,77.622,0,0,1,.9-10.262l1.062.2Z" transform="translate(-789.535 -1498.533)"/>
      <path id="Trazado_220966" data-name="Trazado 220966" d="M714.335,1779.778c1.314-3.637,4.122-4.042,4.122-4.042,5.459,7.678,18.863,2.967,18.42,13.352-20.385-.133-28.857,0-28.857,0a77.587,77.587,0,0,1,.9-10.262l1.062.2Z" transform="translate(-672.55 -1499.303)"/>
      <path id="Trazado_220967" data-name="Trazado 220967" d="M850.732,1207.944s3.31,49.21,1.965,60.15-6.105,24.966-5.566,61.153c-6.645,1.7-16.272,0-16.272,0s-1.427-40.918,5.6-59.194c-2.856-17.753-12.023-58.413-12.023-58.413Z" transform="translate(-764.889 -1048.928)" fill="#201d40"/>
      <path id="Trazado_220968" data-name="Trazado 220968" d="M748.515,1214.449s-6.683,55.246-9.954,65.725-9.651,19.339-15.574,54.988a67.415,67.415,0,0,1-14.967-1.425s2.7-43.794,13.336-54.077c.36-18-1.72-64.856-1.72-64.856Z" transform="translate(-672.55 -1054.088)" fill="#2c2858"/>
      <path id="Trazado_220969" data-name="Trazado 220969" d="M634.167,876.836s-.49.38-28.023-4.361a.026.026,0,0,0-.022.006l-9.741,8.3a.027.027,0,0,0,0,.039c7.26,8.028,38.556,12.938,38.556,12.938Z" transform="translate(-583.99 -782.833)" fill="#95a6db"/>
      <path id="Trazado_220970" data-name="Trazado 220970" d="M835.734,858.4l9.674-1.56,9.594,2-9.882,11.63Z" transform="translate(-773.854 -770.434)" fill="#95a6db"/>
      <path id="Trazado_220971" data-name="Trazado 220971" d="M852.912,838.781c3.826,2.988,7.876,4.266,12.086,1.239l.58-14.889-12.621-.151Z" transform="translate(-787.479 -745.16)" fill="#f37a50"/>
      <path id="Trazado_220972" data-name="Trazado 220972" d="M791.906,869.872h0l-2.962-.949.114-4.1-7.573,6.962-2.236.511-2.21-.611-7.249-7.3-.072,4.1-2.511.681h0l-10.638,1.46v47.291L752.6,939.791c12.453,3.237,31,3.412,44.271.671l-2.194-19.929,4.223-47.969Z" transform="translate(-707.909 -776.417)" fill="#95a6db"/>
      <path id="Trazado_220973" data-name="Trazado 220973" d="M870.229,928.123s-1.329,28.921-3.506,43.725l3.873,4.687s3.851-3.649,4.894-4.308c2.37-26.1-1.9-43.968-1.9-43.968Z" transform="translate(-798.434 -826.973)" fill="#e62552"/>
      <path id="Trazado_220974" data-name="Trazado 220974" d="M871.917,899.763,876,898.71l2.986,1.193-1.274,5.026-3.611-.011Z" transform="translate(-802.554 -803.642)" fill="#c4204a"/>
      <path id="Trazado_220975" data-name="Trazado 220975" d="M838.108,871.469s-3.286,4.35-6.277,6.077L824.15,869.4l2.362-5.033Z" transform="translate(-764.665 -776.401)" fill="#fff"/>
      <path id="Trazado_220976" data-name="Trazado 220976" d="M891.648,873.162a30.312,30.312,0,0,0,5.983,6.276l5.983-7.5-4.261-5.441Z" transform="translate(-818.205 -778.094)" fill="#fff"/>
      <path id="Trazado_220977" data-name="Trazado 220977" d="M564.1,719.5c4.377-1.01,6.671-1.434,9.97-1.12,5.588,23.987,10.314,33.274,7.36,39.727-2.463,5.38-8.538,4.352-11.132-.1C566.878,752.134,565.374,730.909,564.1,719.5Z" transform="translate(-558.394 -660.525)" fill="#95a6db"/>
      <path id="Trazado_220978" data-name="Trazado 220978" d="M969.037,903.933c6.525.242,14.172,30.818,14.172,30.818l12.733-13.588,5.08,11.978s-16.6,21.156-23.787,19c-6.713-2.014-10.14-26.135-10.14-26.135Z" transform="translate(-878.049 -807.785)" fill="#95a6db"/>
      <g id="Grupo_107025" data-name="Grupo 107025" transform="translate(45.33 38.917)">
        <path id="Trazado_220979" data-name="Trazado 220979" d="M771.909,667.553c-6.211.738-9.458-7.2-9.458-7.2-3.8-.629-3.163-4.418-3.163-4.418A4.9,4.9,0,0,1,755.852,650c.656-2.916,3.516-2.779,3.884-6.195.3-2.741-1.671-9.458,7.077-9.977a6.992,6.992,0,0,1,5.471-6.311c6.442-1.491,8.035,2.38,10.858,3.075,3.154.777,9.936-2.123,10.819,5.179,0,0,4.5.106,6.572,3.384a7.628,7.628,0,0,1-.5,8.39s3.61,1.231,4.439,4.652a6.381,6.381,0,0,1-2.623,6.7,6.648,6.648,0,0,1-2.834,1c-1.475.24-1.568,4.189-2.867,4.952a29.8,29.8,0,0,1-6.655,2.772Z" transform="translate(-755.703 -627.184)" fill="#2c2858"/>
        <path id="Trazado_220980" data-name="Trazado 220980" d="M838.635,686.667c.716,10.712-5.163,19.827-13.132,20.36s-15.009-7.719-15.725-18.431,5.656-17.631,13.625-18.164S837.919,675.955,838.635,686.667Z" transform="translate(-798.552 -661.463)" fill="#f37a50"/>
        <path id="Trazado_220981" data-name="Trazado 220981" d="M845.46,763.924a1.537,1.537,0,1,1,1.431-1.636A1.537,1.537,0,0,1,845.46,763.924Z" transform="translate(-825.598 -733.212)"/>
        <path id="Trazado_220982" data-name="Trazado 220982" d="M904.557,759.974a1.537,1.537,0,1,1,1.431-1.636A1.537,1.537,0,0,1,904.557,759.974Z" transform="translate(-872.475 -730.078)"/>
        <g id="Grupo_107022" data-name="Grupo 107022" transform="translate(29.504 23.94)">
          <path id="Trazado_220983" data-name="Trazado 220983" d="M903.462,745.809a.738.738,0,0,1-.658-.318,2.2,2.2,0,0,0-1.44-1.047,2.666,2.666,0,0,0-1.791.534.738.738,0,0,1-.922-1.153,4.154,4.154,0,0,1,2.919-.843,3.6,3.6,0,0,1,2.451,1.673.738.738,0,0,1-.558,1.155Z" transform="translate(-898.376 -742.949)" fill="#2c2858"/>
        </g>
        <g id="Grupo_107023" data-name="Grupo 107023" transform="translate(15.976 24.706)">
          <path id="Trazado_220984" data-name="Trazado 220984" d="M833.744,750.016a.738.738,0,0,1-.654-1.158,4.622,4.622,0,0,1,3.054-2.168,3.6,3.6,0,0,1,2.591.666.738.738,0,0,1-.917,1.157,2.121,2.121,0,0,0-1.481-.36A3.26,3.26,0,0,0,834.3,749.7.737.737,0,0,1,833.744,750.016Z" transform="translate(-832.957 -746.655)" fill="#2c2858"/>
        </g>
        <path id="Trazado_220985" data-name="Trazado 220985" d="M887.083,775.566c2.079,1.3,2.737,1.843,3.534,2.269-.411,1.806-3.129,2.871-3.932,2.719a3.771,3.771,0,0,0,2.057-2.392Z" transform="translate(-859.598 -744.881)" fill="#de623c"/>
        <path id="Trazado_220986" data-name="Trazado 220986" d="M795.591,757.34c1.488,2.221,1.36,4.917-.286,6.02s-4.188.2-5.676-2.025-1.36-4.917.286-6.02S794.1,755.119,795.591,757.34Z" transform="translate(-781.79 -728.446)" fill="#f37a50"/>
        <g id="Grupo_107024" data-name="Grupo 107024" transform="translate(8.498 28.682)">
          <path id="Trazado_220987" data-name="Trazado 220987" d="M800.631,770.3a.492.492,0,0,1-.5-.652,2.031,2.031,0,0,0-.109-1.986,3.186,3.186,0,0,0-2.687-.779.492.492,0,0,1-.1-.979,4.087,4.087,0,0,1,3.558,1.148,2.916,2.916,0,0,1,.267,2.919A.492.492,0,0,1,800.631,770.3Z" transform="translate(-796.796 -765.879)" fill="#de623c"/>
        </g>
        <path id="Trazado_220988" data-name="Trazado 220988" d="M859.129,808.766a.482.482,0,0,1,.459-.758,34.166,34.166,0,0,0,9.071.2.482.482,0,0,1,.425.778,6.013,6.013,0,0,1-9.955-.222Z" transform="translate(-837.669 -770.611)" fill="#fff"/>
        <path id="Trazado_220989" data-name="Trazado 220989" d="M785.514,666.671l17.049-14.295,19.3,9.37-2.09,13.832c-.611-6.359-4.473-4.228-6.525-6.05-2.081-1.847-3.028-4.777-7.784-2.078,0,0-3.955-2.609-5.882,1.216-1.49,2.958-3.6,2.438-5.7,2.633-2.467.23-1.832,2.619-3.343,2.571Z" transform="translate(-779.349 -647.166)" fill="#2c2858"/>
      </g>
      <g id="Grupo_107027" data-name="Grupo 107027" transform="translate(0)">
        <g id="Grupo_107026" data-name="Grupo 107026" transform="translate(9.73)">
          <path id="Trazado_220990" data-name="Trazado 220990" d="M625.12,453.527a4.472,4.472,0,0,0-.994-1.694c-3.523-5.075-11.6-2.082-23.348,1.316-1.965.568-1.571-2.076-2.471-7.325-.585-3.414-4.288-7.773-7.852-6.651-5.876,1.85,1.229,4.685-.374,17.732-.857,6.971-8.137,5.509-6.209,11.634l4.389,13.942c.75,2.384,1.707,4.6,5.194,3.919,3.38-.662,3.375,1.885,8.084.4l23.573-7.42a4.561,4.561,0,0,0,2.989-5.707,4.489,4.489,0,0,0-1.738-2.338,4.472,4.472,0,0,0-.674-6.812,4.5,4.5,0,0,0-1.146-7.126,4.507,4.507,0,0,0,.578-3.871Z" transform="translate(-583.548 -438.993)" fill="#facb32"/>
          <path id="Trazado_220991" data-name="Trazado 220991" d="M691.989,511.545l11.24-3.538a4.591,4.591,0,0,0,3.076-3.3,1.2,1.2,0,0,0-2.333-.541,2.177,2.177,0,0,1-1.461,1.568L691,509.354a2.158,2.158,0,1,1-1.3-4.118l7.691-2.421a1.193,1.193,0,1,0-.717-2.276l-7.692,2.422A4.56,4.56,0,0,0,686,508.667a4.511,4.511,0,0,0,2.616,2.813,4.49,4.49,0,0,0,2.295,6.314,4.515,4.515,0,0,0,2.627,6.435,4.5,4.5,0,0,0-.211,3.217,4.56,4.56,0,0,0,5.719,2.964l7.164-2.255a4.592,4.592,0,0,0,3.077-3.3,1.19,1.19,0,0,0-.889-1.434,1.2,1.2,0,0,0-1.441.89,2.185,2.185,0,0,1-1.463,1.57l-7.164,2.255a2.158,2.158,0,1,1-1.3-4.118l8.5-2.676a4.591,4.591,0,0,0,3.077-3.3,1.2,1.2,0,0,0-2.331-.544,2.154,2.154,0,0,1-1.462,1.571l-9.227,2.9a2.159,2.159,0,1,1-1.3-4.119l10.57-3.327a4.593,4.593,0,0,0,3.077-3.3,1.2,1.2,0,0,0-2.331-.544,2.157,2.157,0,0,1-1.463,1.57l-10.859,3.418a2.159,2.159,0,1,1-1.3-4.119Z" transform="translate(-664.646 -487.767)" fill="#eba223"/>
        </g>
        <path id="Trazado_220992" data-name="Trazado 220992" d="M553.214,580.148l-7.34,2.31a1.93,1.93,0,0,1-2.42-1.261l-6.866-21.811a1.93,1.93,0,0,1,1.261-2.42l7.34-2.31a1.93,1.93,0,0,1,2.42,1.261l6.866,21.811A1.93,1.93,0,0,1,553.214,580.148Z" transform="translate(-536.499 -530.666)" fill="#7f99eb"/>
      </g>
      <path id="Trazado_220993" data-name="Trazado 220993" d="M590.72,668.194c.986-.369,1.6-.544,1.743-2.049s.025-3.42,1.281-2.8,2.137,3.585,1.927,4.8C594.221,669.023,590.72,668.194,590.72,668.194Z" transform="translate(-579.507 -616.858)" fill="#f37a50"/>
      <path id="Trazado_220994" data-name="Trazado 220994" d="M560.7,719.1l-.887,5.442,13.724-1.514-2.983-5.253A36.008,36.008,0,0,0,560.7,719.1Z" transform="translate(-554.99 -660.127)" fill="#fff"/>
    </g>
    <g id="Grupo_107039" data-name="Grupo 107039" transform="translate(575.381 380.129)">
      <path id="Trazado_220995" data-name="Trazado 220995" d="M2629.1,715.62s.121,6.794.819,12.323c0,0,5.733-7.522,5.732-7.527a37.285,37.285,0,0,1-.963-8.847C2634.725,710.938,2623.015,710.46,2629.1,715.62Z" transform="translate(-2626.46 -710.46)" fill="#f37a50"/>
      <path id="Trazado_220996" data-name="Trazado 220996" d="M2794.244,1777.971c-5.384,7.181-18.606,2.775-18.169,12.488,20.107-.125,28.464,0,28.464,0a68.9,68.9,0,0,0-.888-9.6Z" transform="translate(-2744.426 -1556.635)"/>
      <path id="Trazado_220997" data-name="Trazado 220997" d="M2939.721,1778.879c-5.384,7.182-18.606,2.775-18.169,12.489,20.107-.125,28.464,0,28.464,0a68.9,68.9,0,0,0-.887-9.6Z" transform="translate(-2859.819 -1557.356)"/>
      <path id="Trazado_220998" data-name="Trazado 220998" d="M2810.314,1247.777s-3.265,46.03-1.938,56.264,6.022,23.353,5.49,57.2c6.554,1.587,16.051,0,16.051,0s1.408-38.274-5.521-55.369c2.818-16.606,11.859-54.639,11.859-54.639Z" transform="translate(-2769.804 -1136.083)" fill="#201d40"/>
      <path id="Trazado_220999" data-name="Trazado 220999" d="M2878.96,1253.861s6.592,51.676,9.819,61.478,6.476,16.326,12.318,49.671c6.736.326,17.806.431,17.806.431s-2.664-40.964-13.154-50.583c-.355-16.839,1.7-60.664,1.7-60.664Z" transform="translate(-2826.043 -1140.909)" fill="#2c2858"/>
      <g id="Grupo_107034" data-name="Grupo 107034" transform="translate(50.272 0)">
        <g id="Grupo_107033" data-name="Grupo 107033">
          <g id="Grupo_107032" data-name="Grupo 107032">
            <path id="Trazado_221000" data-name="Trazado 221000" d="M2905.411,760.528c-3.573,8.928-12.154,13.891-19.167,11.085s-9.8-12.319-6.228-21.248,12.155-13.891,19.167-11.085S2908.984,751.6,2905.411,760.528Z" transform="translate(-2875.919 -732.119)" fill="#f37a50"/>
            <path id="Trazado_221001" data-name="Trazado 221001" d="M2891.558,802.147a1.314,1.314,0,1,1-.328-1.828A1.313,1.313,0,0,1,2891.558,802.147Z" transform="translate(-2884.411 -780.971)"/>
            <path id="Trazado_221002" data-name="Trazado 221002" d="M2938.377,820.913a1.422,1.422,0,1,1-.355-1.979A1.422,1.422,0,0,1,2938.377,820.913Z" transform="translate(-2921.391 -795.721)"/>
            <path id="Trazado_221003" data-name="Trazado 221003" d="M2895.049,820.2c-1.776,1.4-4,3.089-4,3.089a3.447,3.447,0,0,0,2.479,3.069c-.906-.821-1.7-1.914-.758-3.175S2895.049,820.2,2895.049,820.2Z" transform="translate(-2885.907 -796.927)" fill="#de623c"/>
            <g id="Grupo_107029" data-name="Grupo 107029" transform="translate(16.364 20.738)">
              <path id="Trazado_221004" data-name="Trazado 221004" d="M2948.511,811.54a.656.656,0,0,1-.637-.5c-.017-.07-.458-1.778-1.921-1.785a.655.655,0,0,1,.006-1.311,3.5,3.5,0,0,1,3.19,2.791.657.657,0,0,1-.638.808Z" transform="translate(-2945.301 -807.941)"/>
            </g>
            <g id="Grupo_107030" data-name="Grupo 107030" transform="translate(4.829 16.336)">
              <path id="Trazado_221005" data-name="Trazado 221005" d="M2893.217,788.717a.547.547,0,0,1-.47-.267,1.587,1.587,0,0,0-.948-.685,1.786,1.786,0,0,0-1.387.5.546.546,0,0,1-.682-.853,2.8,2.8,0,0,1,2.276-.721,2.694,2.694,0,0,1,1.683,1.2.546.546,0,0,1-.47.822Z" transform="translate(-2889.523 -786.655)"/>
            </g>
            <path id="Trazado_221006" data-name="Trazado 221006" d="M2893.17,737c-2.584-8.307.684-12.721.684-12.721-2.218-.444-3.08.323-3.08.323a4.927,4.927,0,0,1-.273-4.266c-4.585-1.787-6.868,1.182-11.005,2.183-5.666,1.37-12.663-.89-13.318-7.806a1.181,1.181,0,0,1,1.842-1.09,5.208,5.208,0,0,0,3.086.9,5.564,5.564,0,0,1-1.248-3.191,1.18,1.18,0,0,1,1.95-.919c1.177.98,3.363,1.906,7.259,1.177,2.593-.486,8.529-4.639,12.226-3.828,3.023.663,5.421,3.236,6.453,6.918a9.5,9.5,0,0,1,8.175,8.947c.732,8.033-8.573,14.2-8.573,14.2Z" transform="translate(-2866.171 -707.66)"/>
            <path id="Trazado_221007" data-name="Trazado 221007" d="M2983.1,840.42c-1.968,1.115-2.823,3.324-1.91,4.934s3.247,2.012,5.215.9,2.823-3.324,1.911-4.934S2985.07,839.3,2983.1,840.42Z" transform="translate(-2957.117 -812.465)" fill="#f37a50"/>
            <g id="Grupo_107031" data-name="Grupo 107031" transform="translate(25.796 29.15)">
              <path id="Trazado_221008" data-name="Trazado 221008" d="M2991.423,852.256a.494.494,0,0,1-.151-.169,2.236,2.236,0,0,1,.227-2.737,2.383,2.383,0,0,1,2.713-.507.494.494,0,1,1-.444.884,1.411,1.411,0,0,0-1.558.311,1.266,1.266,0,0,0-.07,1.576.495.495,0,0,1-.717.642Z" transform="translate(-2990.915 -848.619)" fill="#de623c"/>
            </g>
            <path id="Trazado_221009" data-name="Trazado 221009" d="M2892.776,861.328a.418.418,0,0,1,.442-.63,29.67,29.67,0,0,0,7.853.7.418.418,0,0,1,.324.7,5.224,5.224,0,0,1-8.618-.769Z" transform="translate(-2887.224 -829.042)" fill="#fff"/>
          </g>
        </g>
      </g>
      <path id="Trazado_221010" data-name="Trazado 221010" d="M2703.587,893s-1-.438-26.405-6.581a.026.026,0,0,0-.021,0l-9.609,7.141a.025.025,0,0,0-.005.036c6.275,7.946,34.956,14.2,34.956,14.2l1.083-14.8Z" transform="translate(-2658.344 -849.449)" fill="#201d40"/>
      <path id="Trazado_221011" data-name="Trazado 221011" d="M2898.229,913.475l9.126-.852,8.829,2.462-9.948,10.237Z" transform="translate(-2841.328 -870.238)" fill="#95a6db"/>
      <path id="Trazado_221012" data-name="Trazado 221012" d="M2913.529,893.13c3.719,3.054,4.839,5.172,12.38,1.083l1.185-12.148-12.862-1.014Z" transform="translate(-2853.463 -845.195)" fill="#f37a50"/>
      <path id="Trazado_221013" data-name="Trazado 221013" d="M2858.17,923.242h0l-2.7-1.07.362-3.82-7.5,6.025-2.119.337-2.025-.709-6.31-7.264-.324,3.823-2.386.479h0l-8.606,1.394-1.024,47.767-3.4,16.252a81.9,81.9,0,0,0,36.745,3.016l-.422-16.315,8.918-46.684Z" transform="translate(-2780.969 -873.505)" fill="#95a6db"/>
      <path id="Trazado_221014" data-name="Trazado 221014" d="M2909.879,978.629l-5.391,36.471,2.985,4.148,3.892-2.99,1.324-37.326Z" transform="translate(-2846.292 -922.594)" fill="#2c2858"/>
      <path id="Trazado_221015" data-name="Trazado 221015" d="M2929.006,955.814l1.971-.519,2.007.876-.849,4.324-2.826-.253Z" transform="translate(-2865.74 -904.085)" fill="#2c2858"/>
      <g id="Grupo_107035" data-name="Grupo 107035" transform="translate(34.602 43.475)">
        <path id="Trazado_221016" data-name="Trazado 221016" d="M2812.567,918.068l-1.455,44.035-5.831,28.369s-9.222-.93-14.888-6.321l7.261-21.357,3.149-44.9Z" transform="translate(-2790.393 -917.891)" fill="#2c2858"/>
        <path id="Trazado_221017" data-name="Trazado 221017" d="M2866.32,918.745l-1.447,43.444-6.713-33.31Z" transform="translate(-2844.146 -918.568)" fill="#494c7f"/>
      </g>
      <g id="Grupo_107036" data-name="Grupo 107036" transform="translate(63.572 46.361)">
        <path id="Trazado_221018" data-name="Trazado 221018" d="M2942.462,931.849l-11.976,71.423s15.891,1.952,22.426-2.345l-3.546-23.479,4.334-39.861Z" transform="translate(-2930.486 -931.849)" fill="#2c2858"/>
        <path id="Trazado_221019" data-name="Trazado 221019" d="M2961.551,931.849l-7,41.862,12.532-31.584Z" transform="translate(-2949.575 -931.849)" fill="#494c7f"/>
      </g>
      <path id="Trazado_221020" data-name="Trazado 221020" d="M2623.07,743.3c3.987-1.329,6.085-1.927,9.185-1.927,7.329,21.841,12.553,30.07,10.375,36.34-1.816,5.228-7.564,4.809-10.375.893C2628.548,773.438,2625.266,753.807,2623.07,743.3Z" transform="translate(-2623.07 -734.401)" fill="#201d40"/>
      <g id="Grupo_107038" data-name="Grupo 107038" transform="translate(57.6 118.749)">
        <g id="Grupo_107037" data-name="Grupo 107037">
          <path id="Trazado_221021" data-name="Trazado 221021" d="M2901.732,1309.166a3.949,3.949,0,0,1-.057-1.733c.237-5.449,7.673-7.02,18.047-10.024,1.734-.5.194-2.29-1.609-6.632-1.173-2.824-.464-7.823,2.724-8.666,5.258-1.39,1.291,4.076,8.639,13.059,3.926,4.8,8.671.276,10.119,5.757l3.3,12.474c.564,2.133.9,4.239-2.029,5.373-2.835,1.1-1.63,3-5.844,4.112l-21.093,5.574a4.026,4.026,0,0,1-4.921-2.851,3.95,3.95,0,0,0-2.707-5.406,3.948,3.948,0,0,0-2.715-5.4,3.963,3.963,0,0,0-1.851-5.633Z" transform="translate(-2901.606 -1281.896)" fill="#facb32"/>
          <path id="Trazado_221022" data-name="Trazado 221022" d="M2920.082,1384.174l-10.058,2.658a4.053,4.053,0,0,1-3.852-1.015,1.057,1.057,0,0,1,1.486-1.5,1.92,1.92,0,0,0,1.829.481l10.3-2.721a1.906,1.906,0,1,0-.974-3.685l-6.881,1.818a1.053,1.053,0,1,1-.538-2.037l6.883-1.819a4.025,4.025,0,0,1,4.921,2.849,3.964,3.964,0,0,0,1.27,5.786,3.966,3.966,0,0,0,1.252,5.79,3.961,3.961,0,0,0,.861,5.894,4.024,4.024,0,0,1-2.871,4.908l-6.411,1.694a4.053,4.053,0,0,1-3.853-1.014,1.051,1.051,0,0,1-.012-1.49,1.062,1.062,0,0,1,1.5-.016,1.928,1.928,0,0,0,1.832.482l6.41-1.694a1.906,1.906,0,1,0-.974-3.685l-7.605,2.01a4.055,4.055,0,0,1-3.854-1.015,1.057,1.057,0,0,1,1.483-1.505,1.9,1.9,0,0,0,1.832.484l8.256-2.182a1.906,1.906,0,1,0-.974-3.686l-9.458,2.5a4.054,4.054,0,0,1-3.853-1.014,1.057,1.057,0,0,1,1.483-1.505,1.9,1.9,0,0,0,1.832.482l9.717-2.568a1.906,1.906,0,1,0-.974-3.686Z" transform="translate(-2904.978 -1356.712)" fill="#eba223"/>
        </g>
        <path id="Trazado_221023" data-name="Trazado 221023" d="M3078.726,1366.694l6.568-1.736a1.7,1.7,0,0,0,1.212-2.082l-5.157-19.516a1.7,1.7,0,0,0-2.083-1.212l-6.568,1.736a1.7,1.7,0,0,0-1.211,2.082l5.157,19.516A1.7,1.7,0,0,0,3078.726,1366.694Z" transform="translate(-3036.311 -1329.643)" fill="#7f99eb"/>
      </g>
      <g id="c-2" data-name="c" transform="translate(94.697 125.11)">
        <path id="Trazado_221024" data-name="Trazado 221024" d="M3084.738,1312.652l.12,5.227s-3.73-.111-3.86,2.437l3.5.108s2.132,2.754-.924,8.127c-1.219,5.264,2.639,3.037,2.9,4.785.39,2.58,5.485-1.844,6.294-7.1,1.047-6.8-.342-7.621-.342-7.621l-1.54-5.166Z" transform="translate(-3080.998 -1312.652)" fill="#f37a50"/>
      </g>
      <path id="Trazado_221025" data-name="Trazado 221025" d="M3033.66,959.6c6.074.633,21.065,38.1,21.065,38.1l-.986,37.818-9.841-1.589-2.232-32.285-10.374-20.271Z" transform="translate(-2946.874 -907.499)" fill="#201d40"/>
      <path id="Trazado_221026" data-name="Trazado 221026" d="M2899.439,924.715s-3.4,3.43-6.52,4.307l-3.673-9.715,1.858-2.564Z" transform="translate(-2834.202 -873.505)" fill="#fff"/>
      <path id="Trazado_221027" data-name="Trazado 221027" d="M2938.535,930.892a16.366,16.366,0,0,0,5.65,5.4l5.362-8.946-1.391-2.815Z" transform="translate(-2873.298 -879.682)" fill="#fff"/>
    </g>
    <g id="Grupo_107044" data-name="Grupo 107044" transform="translate(500.758 354.124)">
      <g id="Grupo_107043" data-name="Grupo 107043">
        <g id="Grupo_107042" data-name="Grupo 107042">
          <g id="Grupo_107041" data-name="Grupo 107041">
            <g id="Grupo_107040" data-name="Grupo 107040">
              <path id="Trazado_221028" data-name="Trazado 221028" d="M2262.46,595c-.106,1.734.363,3.709-.241,5.363l3.864,2.037c4.712-2.941,5.354-9.333,5.417-10.042.162-1.844.352-2.7.106-2.844s-1.888-.6-2.209,2.08c-.4,3.357-3.087,1.129-.532-5.682.64-1.706-.191-4.915-1.437-3.754C2266.053,583.434,2262.941,587.11,2262.46,595Z" transform="translate(-2262.219 -581.908)" fill="#f37a50"/>
            </g>
          </g>
        </g>
      </g>
    </g>
    <g id="Grupo_107054" data-name="Grupo 107054" transform="translate(483.845 372.367)">
      <path id="Trazado_221029" data-name="Trazado 221029" d="M2416.8,1765.574l-.544,5.594,4.681,1.421,3.76-4.013.618-2.311Z" transform="translate(-2367.487 -1539.041)" fill="#f37a50"/>
      <path id="Trazado_221030" data-name="Trazado 221030" d="M2345.707,1766.425l-.653-5.086,9.952-.669-.121,5.734Z" transform="translate(-2311.011 -1535.15)" fill="#f37a50"/>
      <path id="Trazado_221031" data-name="Trazado 221031" d="M2223.2,745.453c-5.442-4.949-15.1-4.627-16.577,3.122s-.973,12.907-10.619,11.708c-7.681-.954-15.579,5.942-15.573,16.782.007,13.868,9.615,8.467,7.39,15.318s-3.657,13.8,6.257,14.022,17.61-8.082,16.446-19.355,6.054-7.137,8.153-12.714C2221.661,766.407,2223.2,745.453,2223.2,745.453Z" transform="translate(-2180.432 -727.267)" fill="#201d40"/>
      <path id="Trazado_221032" data-name="Trazado 221032" d="M2413.444,1219.371s7.183,45.489,5.246,64.983-11.681,48.66-11.681,48.66l-8.514-.692s.536-2.991.262-14.459-1.989-27.625,4.629-35.27c-.827-14.908-10.208-63.224-10.208-63.224Z" transform="translate(-2349.183 -1105.79)" fill="#5d5aae"/>
      <path id="Trazado_221033" data-name="Trazado 221033" d="M2308.867,1211.968c-3.722,13.379-3.931,50.459-.845,71.866s5.956,42.272,5.956,42.272l9.952.141v-51.97c0-9.174,2.481-37.461,2.481-37.461l3.1-23.317Z" transform="translate(-2279.935 -1099.917)" fill="#5d5aae"/>
      <ellipse id="Elipse_5427" data-name="Elipse 5427" cx="12.043" cy="16.188" rx="12.043" ry="16.188" transform="translate(36.147 17.422)" fill="#f37a50"/>
      <path id="Trazado_221034" data-name="Trazado 221034" d="M2390.783,894.9v17.2s5.734,3.058,10.7,0c-.764-3.823-1.218-16-1.218-16Z" transform="translate(-2347.283 -848.421)" fill="#f37a50"/>
      <path id="Trazado_221035" data-name="Trazado 221035" d="M2322.466,939.782H2351s5.125,11.5,4.429,21.355-1.947,36.653-1.947,36.653-24.325,2.367-35.5-1.081a398.223,398.223,0,0,1,.344-42.334C2318.744,947.808,2322.466,939.782,2322.466,939.782Z" transform="translate(-2289.225 -884.018)" fill="#fff"/>
      <path id="Trazado_221036" data-name="Trazado 221036" d="M2269.21,726.7c-.727-.343-7.178-.6-7.178-.6s-9.9-20.66-13.362-26.8c-2.355-9.865-2.183-26.113-2.183-26.113l-3.864-2.037s-6.468,19.383-4.848,28.348c.427,2.364,12.627,33.993,12.627,33.993s-2.981,37.538-4.51,46.42c10.649,2.38,17.576.611,17.576.611Z" transform="translate(-2225.711 -670.934)" fill="#35e9d0"/>
      <path id="Trazado_221037" data-name="Trazado 221037" d="M2438.664,725.89l5.419,53.819s4.449,1.431,14.005-1.412c.382-11.37-3.683-47.1-3.683-47.1a138.1,138.1,0,0,0,13.679-34.809c-.382-7.816-3.773-25.733-3.773-25.733l-9.9-.528,3.523,25.305s-12.146,26.5-13.394,30.322A20.4,20.4,0,0,0,2438.664,725.89Z" transform="translate(-2385.263 -670.126)" fill="#35e9d0"/>
      <path id="Trazado_221038" data-name="Trazado 221038" d="M2345.992,760.509a24.557,24.557,0,0,0,16.32-9.342c2.255,5.6,8.566,9.342,8.566,9.342s4.729-10.7-3.872-16.476C2358.8,738.526,2339.223,742.289,2345.992,760.509Z" transform="translate(-2310.646 -726.899)" fill="#2c2858"/>
      <path id="Trazado_221039" data-name="Trazado 221039" d="M2384.054,839.539a1.28,1.28,0,1,1,1.28-1.28A1.28,1.28,0,0,1,2384.054,839.539Z" transform="translate(-2340.93 -802.475)"/>
      <path id="Trazado_221040" data-name="Trazado 221040" d="M2433.38,839.539a1.28,1.28,0,1,1,1.28-1.28A1.28,1.28,0,0,1,2433.38,839.539Z" transform="translate(-2380.056 -802.475)"/>
      <g id="Grupo_107045" data-name="Grupo 107045" transform="translate(51.43 32.118)">
        <path id="Trazado_221041" data-name="Trazado 221041" d="M2433.28,827.951a.615.615,0,0,1-.529-.3,1.834,1.834,0,0,0-1.138-.95,2.22,2.22,0,0,0-1.518.344.615.615,0,0,1-.7-1.009,3.457,3.457,0,0,1,2.472-.538,3,3,0,0,1,1.944,1.526.615.615,0,0,1-.528.928Z" transform="translate(-2429.131 -825.437)" fill="#2c2858"/>
      </g>
      <g id="Grupo_107046" data-name="Grupo 107046" transform="translate(40.081 32.055)">
        <path id="Trazado_221042" data-name="Trazado 221042" d="M2374.865,827.772a.615.615,0,0,1-.479-1,3.849,3.849,0,0,1,2.658-1.631,3,3,0,0,1,2.116.7.615.615,0,0,1-.826.911,1.768,1.768,0,0,0-1.211-.381,2.716,2.716,0,0,0-1.778,1.173A.612.612,0,0,1,2374.865,827.772Z" transform="translate(-2374.251 -825.134)" fill="#2c2858"/>
      </g>
      <path id="Trazado_221043" data-name="Trazado 221043" d="M2417.269,851.293c1.655,1.194,2.172,1.683,2.81,2.081-.441,1.478-2.759,2.212-3.418,2.041a3.14,3.14,0,0,0,1.842-1.874Z" transform="translate(-2367.81 -813.829)" fill="#de623c"/>
      <path id="Trazado_221044" data-name="Trazado 221044" d="M2341.785,831.731c1.38,1.748,1.449,3.994.153,5.017s-3.464.435-4.844-1.313-1.448-3.994-.153-5.017S2340.405,829.984,2341.785,831.731Z" transform="translate(-2303.839 -796.872)" fill="#f37a50"/>
      <g id="Grupo_107047" data-name="Grupo 107047" transform="translate(33.764 34.791)">
        <path id="Trazado_221045" data-name="Trazado 221045" d="M2346.675,842.208a.41.41,0,0,1-.377-.569,1.692,1.692,0,0,0,.02-1.657,2.654,2.654,0,0,0-2.189-.8.41.41,0,0,1-.028-.819,3.4,3.4,0,0,1,2.892,1.151,2.427,2.427,0,0,1,.06,2.44A.41.41,0,0,1,2346.675,842.208Z" transform="translate(-2343.704 -838.364)" fill="#de623c"/>
      </g>
      <path id="Trazado_221046" data-name="Trazado 221046" d="M2397.794,879.614a.373.373,0,0,1,.394-.561,26.437,26.437,0,0,0,6.992.624.373.373,0,0,1,.288.622,4.652,4.652,0,0,1-7.674-.685Z" transform="translate(-2352.8 -835.841)" fill="#fff"/>
      <g id="Grupo_107048" data-name="Grupo 107048" transform="translate(47.971 229.536)">
        <path id="Trazado_221047" data-name="Trazado 221047" d="M2417.992,1783.484a5.007,5.007,0,0,1,3.648-3.392c4.831,6.444,16.7,2.49,16.3,11.206-18.042-.112-25.54,0-25.54,0a61.851,61.851,0,0,1,.8-8.613l.94.167Z" transform="translate(-2412.403 -1780.092)" fill="#e62552"/>
        <path id="Rectángulo_41711" data-name="Rectángulo 41711" d="M0,0H25.549a0,0,0,0,1,0,0V0a2.566,2.566,0,0,1-2.566,2.566H2.567A2.567,2.567,0,0,1,0,0V0A0,0,0,0,1,0,0Z" transform="translate(0 10.966)" fill="#fff"/>
      </g>
      <g id="Grupo_107053" data-name="Grupo 107053" transform="translate(32.266 229.536)">
        <path id="Trazado_221048" data-name="Trazado 221048" d="M2351.445,1791.32s-1.419-5.292-1.544-5.972c-.142-.773-.559-2.6-.644-3.538a7.662,7.662,0,0,0-4.316-1.717c-2.519,0-4.815,1.463-4.862,1.739a55.7,55.7,0,0,1-.788,5.563c-.358,1.28-1.332,4.261-1.332,4.261Z" transform="translate(-2337.649 -1780.092)" fill="#e62552"/>
        <g id="Grupo_107052" data-name="Grupo 107052" transform="translate(0 10.656)">
          <g id="Grupo_107051" data-name="Grupo 107051">
            <g id="Grupo_107050" data-name="Grupo 107050">
              <g id="Grupo_107049" data-name="Grupo 107049">
                <path id="Trazado_221049" data-name="Trazado 221049" d="M2350.257,1831.78c-.331,1.051-4.409-.161-7.385-.161-2.5,0-5.733.969-6.1.592-.625,1.1-.11,3.391-.11,3.391s2.6.134,5.728,0,6.733.064,8.093-.339C2351.339,1833.828,2350.257,1831.78,2350.257,1831.78Z" transform="translate(-2336.462 -1831.619)" fill="#fff"/>
              </g>
            </g>
          </g>
        </g>
      </g>
    </g>
    <g id="Grupo_107073" data-name="Grupo 107073" transform="translate(75.422 371.434)">
      <g id="Grupo_107055" data-name="Grupo 107055" transform="translate(18.268 103.251)">
        <path id="Trazado_221050" data-name="Trazado 221050" d="M474.347,1709.633l4.812-18.951-11.938-1.643c-.409,8.963-1.08,17.787-1.021,20.177Z" transform="translate(-430.536 -1580.65)" fill="#f37a50"/>
        <path id="Trazado_221051" data-name="Trazado 221051" d="M320.052,1688.512H307.587c.409,2.988,2.044,19.162,2.044,19.162,1.053,2.39,10.342,1.845,10.342.5C319.271,1705.261,319.993,1688.885,320.052,1688.512Z" transform="translate(-304.727 -1580.232)" fill="#f37a50"/>
        <path id="Trazado_221052" data-name="Trazado 221052" d="M398.794,1303.721l12.293,1.815,8.524-50.973c-1.756-19.344-18.785-60.5-18.785-60.5l-19.195,6.722-.468,18.149,23.115,39.137C401.265,1265.641,399.2,1290.112,398.794,1303.721Z" transform="translate(-363.088 -1188.033)" fill="#e9821f"/>
        <path id="Trazado_221053" data-name="Trazado 221053" d="M319.962,1172.3c-.176-1.2-.234-1.569-1.229-2.166L300.3,1164.9l-4.389,4.332c-4.155,15.087-1.58,36.075,1.7,52.73-4.8,14.415-2.922,44.132-.99,58.1h13.109c.761-9.336.522-26.654.581-35.02h0c1.7-6.722,3.336-13.892,4.8-21.436,1.873-9.635,4.213-18.971,4.857-27.709C320.547,1187.607,320.723,1178.719,319.962,1172.3Z" transform="translate(-293.757 -1164.901)" fill="#fd8f25"/>
      </g>
      <path id="Trazado_221054" data-name="Trazado 221054" d="M258.65,722.375c7.077-1.5,22.4-6.951,16.819-17.622s-9-6.929-4.883-18.388-3-21.9-11.32-20.654-11.258,7.44-20.839,4.45-19,5.059-16.4,13.521,3.644,12.51-.414,16.437-20.265,6.526-15.232,17.968,8.1,11.2,5.1,16.3,1.351,11.968,10.483,12.37,17.765-1.883,22.459-11.495A27.266,27.266,0,0,1,258.65,722.375Z" transform="translate(-205.42 -665.61)" fill="#2c2858"/>
      <path id="Trazado_221055" data-name="Trazado 221055" d="M342.035,727.453c-.979,9.229,4.1,17.334,11.351,18.1s13.919-6.089,14.9-15.318-4.1-17.335-11.352-18.1S343.014,718.224,342.035,727.453Z" transform="translate(-313.687 -702.468)" fill="#f37a50"/>
      <path id="Trazado_221056" data-name="Trazado 221056" d="M352.384,839.845l11.444,7.094s1.015,5.058,1.522,6.7c1.046,3.386-2.962,4.866-6.35,2.758a23.7,23.7,0,0,1-5.581-4.928Z" transform="translate(-321.993 -803.814)" fill="#f37a50"/>
      <path id="Trazado_221057" data-name="Trazado 221057" d="M368.442,718.227c-3.352-.227-5.8-2.5-7.939-6-4.236,8.924-21.056,11.5-22.094,9.618.736-6.5,2.316-16.514,14.655-19.659C362.757,699.716,368.442,718.227,368.442,718.227Z" transform="translate(-310.908 -694.443)" fill="#2c2858"/>
      <path id="Trazado_221058" data-name="Trazado 221058" d="M450.694,796.767a1.268,1.268,0,1,0,.57-1.7A1.268,1.268,0,0,0,450.694,796.767Z" transform="translate(-399.866 -768.191)"/>
      <path id="Trazado_221059" data-name="Trazado 221059" d="M402.323,790.818a1.372,1.372,0,1,0,.616-1.84A1.373,1.373,0,0,0,402.323,790.818Z" transform="translate(-361.49 -763.351)"/>
      <g id="Grupo_107056" data-name="Grupo 107056" transform="translate(50.756 24.861)">
        <path id="Trazado_221060" data-name="Trazado 221060" d="M454.2,787.881a.478.478,0,0,0,.228-.742,3.35,3.35,0,0,0-3.18-1.269.477.477,0,0,0,.181.937,2.394,2.394,0,0,1,2.241.911A.477.477,0,0,0,454.2,787.881Z" transform="translate(-450.863 -785.829)" fill="#2c2858"/>
      </g>
      <path id="Trazado_221061" data-name="Trazado 221061" d="M428.76,811.7a12.709,12.709,0,0,0,1.021,2.518.5.5,0,0,1-.126.678,6.9,6.9,0,0,1-3.675.686.134.134,0,0,1-.035-.263,6.507,6.507,0,0,0,2.173-1.013.6.6,0,0,0,.223-.5c-.019-.44-.049-1.332-.019-2.046A.226.226,0,0,1,428.76,811.7Z" transform="translate(-380.266 -781.373)" fill="#de623c"/>
      <path id="Trazado_221062" data-name="Trazado 221062" d="M334.05,799.414c1.361,1.706,1.331,3.992-.065,5.106s-3.632.632-4.992-1.074-1.331-3.992.065-5.106S332.689,797.707,334.05,799.414Z" transform="translate(-302.644 -770.416)" fill="#f37a50"/>
      <g id="Grupo_107057" data-name="Grupo 107057" transform="translate(27.501 28.925)">
        <path id="Trazado_221063" data-name="Trazado 221063" d="M340.921,809.232a.476.476,0,0,0,.168-.14,2.158,2.158,0,0,0,.166-2.645,2.3,2.3,0,0,0-2.519-.865.477.477,0,1,0,.3.906,1.361,1.361,0,0,1,1.444.515,1.221,1.221,0,0,1-.154,1.515.477.477,0,0,0,.595.714Z" transform="translate(-338.408 -805.481)" fill="#de623c"/>
      </g>
      <path id="Trazado_221064" data-name="Trazado 221064" d="M325.009,913.873l-3.19-13.316c-1.778-.979-10.222-3.007-10.222-3.007l-1,3.249-9.412-4.751-11.051,1.682c-1.839,7.976-.375,10.4.177,19.92.306,4.478.169,15.429,1.15,23.2-4.047,9.165-6.546,17.776-6.607,20.435,0,0,29.49,6.605,30.471,6.605l2.207-5.807,4.23,4.618c.8-.42,5.518-6.009,5.518-6.009-1.9-7.136-2.962-18.529-2.962-18.529Z" transform="translate(-268.427 -848.395)" fill="#35e9d0"/>
      <path id="Trazado_221065" data-name="Trazado 221065" d="M332.612,888.809l-6.305,2.678c.557,6.336,16.273,10.036,16.273,10.036l.9-6.466Z" transform="translate(-301.308 -842.653)" fill="#0e6a41"/>
      <path id="Trazado_221066" data-name="Trazado 221066" d="M409.344,898.82l2.809,3.809s3.218-3.853,1.911-6.16a6.918,6.918,0,0,0-4.2-2.915Z" transform="translate(-367.173 -846.415)" fill="#0e6a41"/>
      <g id="Grupo_107058" data-name="Grupo 107058" transform="translate(40.375 35.84)">
        <path id="Trazado_221067" data-name="Trazado 221067" d="M405.21,842.226a4.846,4.846,0,0,1-.917-.088,5.956,5.956,0,0,1-3.546-2.389.534.534,0,0,1,.892-.587h0a4.941,4.941,0,0,0,2.866,1.93,4.848,4.848,0,0,0,3.7-1.019.534.534,0,1,1,.611.875A6.307,6.307,0,0,1,405.21,842.226Z" transform="translate(-400.659 -838.922)" fill="#de623c"/>
      </g>
      <g id="Grupo_107060" data-name="Grupo 107060" transform="translate(30.726 33.748)">
        <g id="Grupo_107059" data-name="Grupo 107059" transform="translate(11.775)">
          <path id="Trazado_221068" data-name="Trazado 221068" d="M464.5,854.774a5.512,5.512,0,0,0-.778-2.291c-2.988-7-13.472-5.4-28.5-4.221-2.512.2-1.379-2.9-1.159-9.452.143-4.265-3.239-10.446-7.819-9.979-7.55.77.318,5.959-4.863,21.3-2.768,8.2-11.189,4.623-10.386,12.492l1.826,17.913c.312,3.063.915,5.977,5.292,6.02,4.242.042,3.6,3.115,9.654,2.5l30.288-3.088a5.619,5.619,0,0,0,5.026-6.142,5.512,5.512,0,0,1,.878-8.392,5.509,5.509,0,0,1,.89-8.391,5.531,5.531,0,0,1-.351-8.267Z" transform="translate(-410.942 -828.805)" fill="#facb32"/>
          <path id="Trazado_221069" data-name="Trazado 221069" d="M550.7,944.708l14.442-1.473a5.656,5.656,0,0,0,4.533-3.219,1.475,1.475,0,0,0-2.68-1.233,2.681,2.681,0,0,1-2.153,1.528l-14.788,1.508a2.659,2.659,0,1,1-.54-5.291l9.882-1.008a1.47,1.47,0,1,0-.3-2.925l-9.883,1.008a5.617,5.617,0,0,0-5.027,6.14,5.532,5.532,0,0,1,1.185,8.182,5.534,5.534,0,0,1,1.21,8.177,5.527,5.527,0,0,1,1.773,8.122,5.617,5.617,0,0,0,6.163,5l9.205-.939a5.657,5.657,0,0,0,4.534-3.218,1.466,1.466,0,0,0-.716-1.951,1.482,1.482,0,0,0-1.96.715,2.693,2.693,0,0,1-2.156,1.53l-9.205.938a2.659,2.659,0,1,1-.54-5.291L564.6,959.9a5.657,5.657,0,0,0,4.534-3.22,1.474,1.474,0,0,0-2.677-1.236,2.655,2.655,0,0,1-2.156,1.532l-11.856,1.209a2.66,2.66,0,1,1-.54-5.292l13.581-1.385a5.656,5.656,0,0,0,4.534-3.218,1.474,1.474,0,0,0-2.677-1.237,2.657,2.657,0,0,1-2.156,1.53L551.237,950a2.66,2.66,0,1,1-.54-5.292Z" transform="translate(-516.608 -911.127)" fill="#eba223"/>
        </g>
        <path id="Trazado_221070" data-name="Trazado 221070" d="M368.909,990.992l-9.43.962a2.377,2.377,0,0,1-2.606-2.124l-2.857-28.025a2.377,2.377,0,0,1,2.124-2.606l9.431-.962a2.377,2.377,0,0,1,2.606,2.124l2.857,28.025A2.377,2.377,0,0,1,368.909,990.992Z" transform="translate(-354.003 -931.461)" fill="#7f99eb"/>
      </g>
      <g id="Grupo_107066" data-name="Grupo 107066" transform="translate(12.828 49.303)">
        <g id="Grupo_107065" data-name="Grupo 107065" transform="translate(33.866 36.365)">
          <g id="Grupo_107064" data-name="Grupo 107064">
            <g id="Grupo_107063" data-name="Grupo 107063">
              <g id="Grupo_107062" data-name="Grupo 107062">
                <g id="Grupo_107061" data-name="Grupo 107061">
                  <path id="Trazado_221071" data-name="Trazado 221071" d="M438.64,1088.453c-1.775-.27-3.695-1.282-5.131-.254l-2.293-4.163c4-4.122,11.328-4.234,12.059-4.143,1.9.237,2.8.231,2.9.511s.191,2.037-2.581,1.781c-3.48-.323-1.811,2.874,5.626,1.772,1.862-.276,4.925,1.261,3.481,2.268C451.107,1087.334,446.717,1089.681,438.64,1088.453Z" transform="translate(-431.216 -1079.875)" fill="#f37a50"/>
                </g>
              </g>
            </g>
          </g>
        </g>
        <path id="Trazado_221072" data-name="Trazado 221072" d="M278.246,1069.309c-2.761.936-4.377,9.613-3.606,10.281,11.8,4.738,35.084.121,35.084.121l2.01-4.3S293.765,1073.707,278.246,1069.309Z" transform="translate(-273.001 -1035.129)" fill="#f37a50"/>
        <path id="Trazado_221073" data-name="Trazado 221073" d="M268.608,912.237c-1.81,7.827-1.376,34.017.483,36.249l9.459-6.406s2.812-26.294,3.125-30.773C282.235,903.552,271.539,899.453,268.608,912.237Z" transform="translate(-267.453 -904.025)" fill="#f37a50"/>
      </g>
      <path id="Trazado_221074" data-name="Trazado 221074" d="M262.283,912.237c-1.81,7.827-3.947,29.945-2.087,32.177l13.488-6.382s1.353-22.246,1.666-26.725C275.91,903.552,265.214,899.453,262.283,912.237Z" transform="translate(-248.299 -854.722)" fill="#35e9d0"/>
      <path id="Trazado_221075" data-name="Trazado 221075" d="M258.141,1074.829l14.482-6.354s1,.005.713,1.153c0,0,2.311.428,2.782,1.737l-10.029,10.72s-3.336-.308-4.277-3.062C261.76,1079,258.319,1077.963,258.141,1074.829Z" transform="translate(-247.239 -985.164)" fill="#097a48"/>
      <path id="c-3" data-name="c" d="M615.959,909.785a1.367,1.367,0,0,1-.194-.379c-.02.015-.037.032-.057.047-1.171.889-2.638.928-3.274.087a1.409,1.409,0,0,1-.226-.455,1.968,1.968,0,0,1-2.223-.464,1.478,1.478,0,0,1-.289-.826,1.967,1.967,0,0,1-2.329-.5,2.307,2.307,0,0,1,3.621-2.747,1.649,1.649,0,0,1,.308.71,2.242,2.242,0,0,1,2.931.142,1.409,1.409,0,0,1,.226.456,1.967,1.967,0,0,1,2.224.464,1.462,1.462,0,0,1,.285.761,1.683,1.683,0,0,1,2.058.382,1.949,1.949,0,0,1-3.058,2.32Z" transform="translate(-523.978 -854.602)" fill="#f37a50"/>
      <g id="Grupo_107067" data-name="Grupo 107067" transform="translate(53.173 228.286)">
        <path id="Trazado_221076" data-name="Trazado 221076" d="M468.549,1773.175a5.378,5.378,0,0,1,3.918-3.643c5.188,6.919,17.928,2.674,17.506,12.033-19.374-.12-27.425,0-27.425,0a66.422,66.422,0,0,1,.855-9.249l1.01.179Z" transform="translate(-462.547 -1769.532)" fill="#2c2858"/>
        <path id="Rectángulo_41712" data-name="Rectángulo 41712" d="M0,0H27.435a0,0,0,0,1,0,0V0a2.756,2.756,0,0,1-2.756,2.756H2.756A2.756,2.756,0,0,1,0,0V0A0,0,0,0,1,0,0Z" transform="translate(0 11.775)" fill="#fff"/>
      </g>
      <g id="Grupo_107072" data-name="Grupo 107072" transform="translate(20.61 228.1)">
        <path id="Trazado_221077" data-name="Trazado 221077" d="M321.511,1780.943s-1.555-5.8-1.692-6.548c-.156-.848-.613-2.851-.706-3.879a8.4,8.4,0,0,0-4.732-1.883c-2.762,0-5.279,1.6-5.33,1.906a61.155,61.155,0,0,1-.864,6.1c-.393,1.4-1.46,4.671-1.46,4.671Z" transform="translate(-306.387 -1768.634)" fill="#2c2858"/>
        <g id="Grupo_107071" data-name="Grupo 107071" transform="translate(0 11.682)">
          <g id="Grupo_107070" data-name="Grupo 107070">
            <g id="Grupo_107069" data-name="Grupo 107069">
              <g id="Grupo_107068" data-name="Grupo 107068">
                <path id="Trazado_221078" data-name="Trazado 221078" d="M320.209,1825.3c-.363,1.152-4.834-.177-8.1-.176-2.74,0-6.285,1.062-6.688.649-.685,1.21-.121,3.718-.121,3.718s2.855.147,6.279,0,7.382.071,8.873-.372C321.4,1827.547,320.209,1825.3,320.209,1825.3Z" transform="translate(-305.085 -1825.125)" fill="#fff"/>
              </g>
            </g>
          </g>
        </g>
      </g>
    </g>
    <g id="Grupo_107109" data-name="Grupo 107109" transform="translate(235.795 303.333)">
      <g id="c-4" data-name="c" transform="translate(144.865 69.064)">
        <g id="Grupo_107081" data-name="Grupo 107081" transform="translate(62.359)">
          <path id="v-2" d="M2019.773,837.488h-.007l-6.3.023-1.426,13.639v1.231l7.349,3.88,7.837-3.837-1.267-14.914Z" transform="translate(-2006.04 -802.908)" fill="#f37a50"/>
          <g id="Grupo_107080" data-name="Grupo 107080">
            <g id="Grupo_107079" data-name="Grupo 107079">
              <path id="Trazado_221079" data-name="Trazado 221079" d="M2020.955,714.108c-3.875,9.683-13.181,15.065-20.786,12.022s-10.628-13.36-6.754-23.042,13.181-15.065,20.786-12.021S2024.83,704.425,2020.955,714.108Z" transform="translate(-1989.926 -686.09)" fill="#f37a50"/>
              <path id="Trazado_221080" data-name="Trazado 221080" d="M2005.93,759.242a1.424,1.424,0,1,1-.356-1.983A1.424,1.424,0,0,1,2005.93,759.242Z" transform="translate(-1999.133 -739.068)"/>
              <path id="Trazado_221081" data-name="Trazado 221081" d="M2056.7,779.593a1.542,1.542,0,1,1-.385-2.147A1.542,1.542,0,0,1,2056.7,779.593Z" transform="translate(-2039.237 -755.064)"/>
              <path id="Trazado_221082" data-name="Trazado 221082" d="M2009.717,778.82c-1.926,1.518-4.334,3.35-4.334,3.35a3.738,3.738,0,0,0,2.688,3.328c-.982-.89-1.843-2.075-.822-3.443S2009.717,778.82,2009.717,778.82Z" transform="translate(-2000.757 -756.372)" fill="#de623c"/>
              <g id="Grupo_107074" data-name="Grupo 107074" transform="translate(16.792 19.698)">
                <path id="Trazado_221083" data-name="Trazado 221083" d="M2067.695,769.428a.712.712,0,0,0,.692-.876,3.792,3.792,0,0,0-3.46-3.027.711.711,0,0,0-.007,1.422c1.605.008,2.079,1.916,2.084,1.936A.711.711,0,0,0,2067.695,769.428Z" transform="translate(-2064.213 -765.525)" fill="#201d40"/>
              </g>
              <g id="Grupo_107075" data-name="Grupo 107075" transform="translate(4.283 14.925)">
                <path id="Trazado_221084" data-name="Trazado 221084" d="M2007.73,744.678a.593.593,0,0,0,.51-.892,2.921,2.921,0,0,0-1.825-1.3,3.033,3.033,0,0,0-2.468.782.592.592,0,1,0,.74.925,1.928,1.928,0,0,1,1.513-.542,1.713,1.713,0,0,1,1.019.738A.592.592,0,0,0,2007.73,744.678Z" transform="translate(-2003.724 -742.442)" fill="#201d40"/>
              </g>
              <path id="Trazado_221085" data-name="Trazado 221085" d="M2035.984,691.055c3.277-9.33-4.706-14.695-4.706-14.695s2.141-.192,2.4-3.2a7.915,7.915,0,0,1-4.98-.108c-10.641-3.853-17.968-3.8-17.968.752,0,1.621-7.279.6-6.69,11.505.978-1.022,2.721-5.345,5.094-5.792s.231,2.724,5.189,3.405c5,.687,8.683-.527,11.74,2.294,2.392,2.461,2.985,14.985,2.621,15.739C2029.516,699.228,2034.543,695.156,2035.984,691.055Z" transform="translate(-1999.663 -670.27)" fill="#201d40"/>
              <path id="Trazado_221086" data-name="Trazado 221086" d="M1985.036,778.82s-.453,5.681.367,7.438c.853-2.279,2.683.136,4.4.364,4.155.549,11.65-.836,12.393,5.4,5.077,1.607,9.833-9.261,9.833-9.261.292,12.141-8.593,19.036-21.379,17.016C1982.228,798.442,1981.446,786.713,1985.036,778.82Z" transform="translate(-1983.011 -756.372)" fill="#201d40"/>
              <g id="Grupo_107076" data-name="Grupo 107076" transform="translate(4.037 30.726)">
                <path id="Trazado_221087" data-name="Trazado 221087" d="M2009.278,822.213a10.8,10.8,0,0,0,2.565-1.005.474.474,0,0,0-.447-.836,6.863,6.863,0,0,1-5.241.89,4.946,4.946,0,0,1-2.729-2.159.474.474,0,0,0-.84.44,5.825,5.825,0,0,0,3.274,2.62A6.4,6.4,0,0,0,2009.278,822.213Z" transform="translate(-2002.534 -818.85)" fill="#de623c"/>
              </g>
              <g id="Grupo_107078" data-name="Grupo 107078" transform="translate(26.657 25.79)">
                <path id="Trazado_221088" data-name="Trazado 221088" d="M2114.4,795.655c-2.138,1.2-3.074,3.593-2.092,5.343s3.513,2.195,5.651.994,3.075-3.593,2.092-5.343S2116.535,794.454,2114.4,795.655Z" transform="translate(-2111.915 -794.98)" fill="#f37a50"/>
                <g id="Grupo_107077" data-name="Grupo 107077" transform="translate(2.263 1.98)">
                  <path id="Trazado_221089" data-name="Trazado 221089" d="M2123.4,808.49a.537.537,0,0,1-.164-.184,2.425,2.425,0,0,1,.258-2.967,2.583,2.583,0,0,1,2.944-.539.536.536,0,0,1-.484.957,1.529,1.529,0,0,0-1.691.331,1.373,1.373,0,0,0-.082,1.709.536.536,0,0,1-.78.694Z" transform="translate(-2122.857 -804.553)" fill="#de623c"/>
                </g>
              </g>
            </g>
          </g>
        </g>
        <path id="Trazado_221090" data-name="Trazado 221090" d="M1921.768,1778.226c-5.567,7.681-19.237,2.968-18.785,13.356,20.789-.134,29.429,0,29.429,0a76.23,76.23,0,0,0-.918-10.266Z" transform="translate(-1857.165 -1549.106)"/>
        <path id="Trazado_221091" data-name="Trazado 221091" d="M2080.3,1778.226c-5.567,7.681-19.237,2.968-18.785,13.356,20.789-.134,29.428,0,29.428,0a76.17,76.17,0,0,0-.918-10.266Z" transform="translate(-1982.912 -1549.106)"/>
        <path id="Trazado_221092" data-name="Trazado 221092" d="M1929.45,1210.414s-6.028,51-4.657,61.946,8.88,23.2,8.33,59.4c6.777,1.7,16.6,0,16.6,0s1.456-40.932-5.708-59.215c2.913-17.759,12.261-58.434,12.261-58.434Z" transform="translate(-1874.312 -1098.715)" fill="#201d40"/>
        <path id="Trazado_221093" data-name="Trazado 221093" d="M2009.356,1217.711s6.815,55.266,10.151,65.748,7.888,18.426,13.928,54.088c6.964.348,15.4.919,15.4.919s-.94-45.234-11.786-55.522c-.367-18.009,1.754-64.878,1.754-64.878Z" transform="translate(-1941.549 -1104.503)" fill="#2c2858"/>
        <g id="v" transform="translate(50.48 47.288)">
          <path id="h-5" d="M1974.316,902.136s-11.837-4.144-15.784-2.244c-12.265,5.906-15.078,0-15.078,0-4.3-.955-14.464-.955-14.464-.955-1.287,17.168-3.418,72.07-3.418,72.07s13.05,3.421,25.4,3.511a116.17,116.17,0,0,0,24.911-3.372s-.66-24-1.208-32.919C1974.849,928.229,1974.316,915.313,1974.316,902.136Z" transform="translate(-1925.571 -898.938)" fill="#fd8f25"/>
        </g>
        <g id="c-5" data-name="c" transform="translate(87.904 102.356)">
          <path id="Trazado_221094" data-name="Trazado 221094" d="M2124.572,1165.78l-2.25,2.779s-.827-3.789-3.429-3.279v4.062s-1.468,2.34-7.653.611c-5.614.1-2.4,3.425-4.094,4.132-2.5,1.043,3.24,5.066,8.744,4.558,7.123-.657,7.6-2.263,7.6-2.263l4.222-3.046Z" transform="translate(-2106.542 -1165.233)" fill="#f37a50"/>
        </g>
        <path id="Trazado_221095" data-name="Trazado 221095" d="M2161.285,914.4c10.814,4.652,24.084,15.375,32.251,32.36,2.8,5.824-10.513,7-13.167,4.7s-19.083-19.443-19.083-19.443Z" transform="translate(-2062.06 -863.918)" fill="#fd6c25"/>
        <path id="Trazado_221096" data-name="Trazado 221096" d="M2185.956,1077.8c9.46-12.72,13.686-22.79,16.737-24.34,4.083-2.075,10.8-1.973,10.8,5.135s-25.949,28.643-25.949,28.643Z" transform="translate(-2081.629 -973.286)" fill="#fd6c25"/>
        <path id="Trazado_221097" data-name="Trazado 221097" d="M1735.362,835.261l-46.633-16.6-7.266,10.981,52.694,26.065Z" transform="translate(-1681.463 -787.974)" fill="#fd6c25"/>
      </g>
      <g id="Grupo_107099" data-name="Grupo 107099" transform="translate(0 73.506)">
        <g id="Grupo_107082" data-name="Grupo 107082" transform="translate(42.62 8.016)">
          <path id="Trazado_221098" data-name="Trazado 221098" d="M1344.71,762.9c.932,2.656,9.324,4.127,9.961,3.377,4.454-11.436-.239-33.868-.239-33.868l-4.176-1.9S1348.8,747.878,1344.71,762.9Z" transform="translate(-1312.104 -730.515)" fill="#f37a50"/>
          <path id="Trazado_221099" data-name="Trazado 221099" d="M1198.751,901.8c7.824-2.5,29.985-16.517,30.976-19.317l-9.269-4.965s-25.25,11.217-29.35,13.282C1184,894.364,1185.984,905.908,1198.751,901.8Z" transform="translate(-1187.035 -847.122)" fill="#f37a50"/>
        </g>
        <path id="Trazado_221100" data-name="Trazado 221100" d="M1090.234,712.115c.589-8.023-1.73-15.111-8.127-18.72-6.484-3.659-14.607-.07-14.607-.07h0s-6.875-2.446-13.106,4.418-1.518,12.9-4.067,17.909c-1.51,2.964-9.185,3.575-7.2,13.231.572,2.785,3.921,4.659,6.758,4.845,4.984.328,9.625-1.6,11.646.328,6.657,6.349,21.411,4.053,23.476-1.755.64-1.8,13.912,1.684,12.587-10.581C1096.921,715.5,1089.708,719.284,1090.234,712.115Z" transform="translate(-1030.007 -691.75)" fill="#2c2858"/>
        <g id="Grupo_107085" data-name="Grupo 107085" transform="translate(20.302 43.482)">
          <g id="Grupo_107084" data-name="Grupo 107084">
            <g id="Grupo_107083" data-name="Grupo 107083">
              <path id="Trazado_221101" data-name="Trazado 221101" d="M1119.785,945.513c0-6.707,5.813-16.755,3.026-23.526-2.03-5.447-5.42-14.59-9.572-16.115-1.959-.72-3.973-1.221-6.414-1.9,0,0,.759,4.463-2.11,4.693-5.524.443-8.426-6.639-8.426-6.639-2.978-.285-16.537,4.144-17.175,6.321.032,8.786,7.714,20.609,10.048,30.108.918,10.259-1.274,15.736-1.287,16.9,0,0,19.4,6.481,32.421-.69C1120.3,954.673,1119.785,950.044,1119.785,945.513Z" transform="translate(-1079.114 -902.018)" fill="#bbabf5"/>
            </g>
          </g>
        </g>
        <g id="Grupo_107088" data-name="Grupo 107088" transform="translate(36.848 36.413)">
          <g id="Grupo_107087" data-name="Grupo 107087">
            <g id="Grupo_107086" data-name="Grupo 107086">
              <path id="Trazado_221102" data-name="Trazado 221102" d="M1167.679,869.115l-8.556-1.281.438,7.07s2.34,7.808,7.2,7.919,3.524-5.961,3.524-5.961Z" transform="translate(-1159.123 -867.833)" fill="#f37a50"/>
            </g>
          </g>
        </g>
        <g id="Grupo_107092" data-name="Grupo 107092" transform="translate(26.609 6.073)">
          <path id="Trazado_221103" data-name="Trazado 221103" d="M1118.544,741.257c2.209,9.224,9.872,15.3,17.117,13.561s11.327-10.619,9.119-19.843-9.872-15.3-17.117-13.561S1116.335,732.033,1118.544,741.257Z" transform="translate(-1116.221 -721.119)" fill="#f37a50"/>
          <path id="Trazado_221104" data-name="Trazado 221104" d="M1230.771,792.658a1.3,1.3,0,1,0,.582-1.737A1.3,1.3,0,0,0,1230.771,792.658Z" transform="translate(-1205.608 -776.378)"/>
          <path id="Trazado_221105" data-name="Trazado 221105" d="M1181.522,804.2a1.4,1.4,0,1,0,.63-1.881A1.4,1.4,0,0,0,1181.522,804.2Z" transform="translate(-1166.534 -785.414)"/>
          <g id="Grupo_107089" data-name="Grupo 107089" transform="translate(12.731 14.613)">
            <path id="Trazado_221106" data-name="Trazado 221106" d="M1171.883,794.8a.488.488,0,0,0,.225-.231,3.714,3.714,0,0,1,2.621-1.815.488.488,0,0,0-.138-.965,4.638,4.638,0,0,0-3.368,2.37.488.488,0,0,0,.66.641Z" transform="translate(-1171.177 -791.781)" fill="#2c2858"/>
          </g>
          <g id="Grupo_107090" data-name="Grupo 107090" transform="translate(24.386 12.637)">
            <path id="Trazado_221107" data-name="Trazado 221107" d="M1231.141,783.994a.48.48,0,0,0,.129-.094.487.487,0,0,0,0-.689,3.424,3.424,0,0,0-3.4-.834.488.488,0,0,0,.316.923,2.445,2.445,0,0,1,2.4.6A.488.488,0,0,0,1231.141,783.994Z" transform="translate(-1227.539 -782.229)" fill="#2c2858"/>
          </g>
          <path id="Trazado_221108" data-name="Trazado 221108" d="M1222.893,813.194a12.969,12.969,0,0,0,2.013,1.912.514.514,0,0,1,.169.684,7.05,7.05,0,0,1-3.13,2.19.137.137,0,0,1-.144-.229,6.649,6.649,0,0,0,1.595-1.86.612.612,0,0,0,0-.555c-.2-.4-.607-1.219-.881-1.9A.231.231,0,0,1,1222.893,813.194Z" transform="translate(-1198.563 -794.096)" fill="#de623c"/>
          <path id="Trazado_221109" data-name="Trazado 221109" d="M1115.422,814.989c1.76,1.37,2.279,3.648,1.158,5.089s-3.457,1.5-5.217.129-2.279-3.648-1.158-5.088S1113.661,813.619,1115.422,814.989Z" transform="translate(-1109.613 -794.791)" fill="#f37a50"/>
          <g id="Grupo_107091" data-name="Grupo 107091" transform="translate(2.239 21.034)">
            <path id="Trazado_221110" data-name="Trazado 221110" d="M1123.008,826.668a.49.49,0,0,0,.172-.144,2.206,2.206,0,0,0,.17-2.7,2.35,2.35,0,0,0-2.574-.884.488.488,0,0,0,.306.926,1.391,1.391,0,0,1,1.476.526,1.248,1.248,0,0,1-.157,1.548.488.488,0,0,0,.608.73Z" transform="translate(-1120.44 -822.835)" fill="#de623c"/>
          </g>
          <path id="Trazado_221111" data-name="Trazado 221111" d="M1188.236,846.646a.389.389,0,0,1,.357-.62,27.566,27.566,0,0,0,7.322,0,.389.389,0,0,1,.357.62,4.852,4.852,0,0,1-8.036,0Z" transform="translate(-1171.915 -820.194)" fill="#fff"/>
        </g>
        <path id="Trazado_221112" data-name="Trazado 221112" d="M1115.006,733.711c8.647-1.158,20.747-9.968,21.739-14.489-1.673-5.431-10.584-8.161-15.616-5.645S1111.343,726.877,1115.006,733.711Z" transform="translate(-1086.253 -708.315)" fill="#2c2858"/>
        <g id="Grupo_107093" data-name="Grupo 107093" transform="translate(40.792 102.72)">
          <path id="Trazado_221113" data-name="Trazado 221113" d="M1190.817,1303.265c-.573-5.714,2.375-49.2,2.375-49.2,8.337-38.229,5.063-65.6,5.063-65.6l-14.33,1.007-5.648,21.6,2.679,36.078s-1.006,2.777-1.536,5c-2.877,12.043-.011,26.435,1.76,36.028.821,4.445,2.1,13.788,2.131,15.911l-3.6,4.654s13.029,14.42,15.034,14.51c3.9.176,2.748-3.682,2.748-3.682C1192.138,1314.079,1190.981,1304.9,1190.817,1303.265Z" transform="translate(-1178.196 -1188.471)" fill="#f37a50"/>
          <path id="Trazado_221114" data-name="Trazado 221114" d="M1180.1,1757.363l.717,9.264,1.665.075.843-8.6c4.432,1.131,7.608,9.175,7.608,9.175,3.053,1.095,10.813,1.846,13.575.423.667-2.707-6.415-4.6-6.415-4.6-.64.758-4.42,1.338-5.762.526-4.943-4.209-7.354-10.328-8.407-16.019C1183.92,1747.6,1176.109,1748.144,1180.1,1757.363Z" transform="translate(-1178.805 -1631.974)" fill="#e62552"/>
        </g>
        <g id="Grupo_107094" data-name="Grupo 107094" transform="translate(0 102.72)">
          <path id="Trazado_221115" data-name="Trazado 221115" d="M1034.71,1191.252l-20.187-2.781c-7.723,17.472-10.24,47.892-12.336,58.729-8.415,14.109-11.087,56.9-11.087,56.9l-3.6,4.654s13.029,14.42,15.034,14.51c3.9.176,2.748-3.682,2.748-3.682-5.355-5.5-6.4-12.806-6.746-14.413-.521-2.416,16.34-49.882,16.34-49.882l1.8-4.5c20.594-34.015,23.974-59.729,23.974-59.729Z" transform="translate(-986.142 -1188.471)" fill="#f37a50"/>
          <path id="Trazado_221116" data-name="Trazado 221116" d="M982.072,1757.363l.717,9.264,1.665.075.842-8.6c4.432,1.131,7.608,9.175,7.608,9.175,3.053,1.095,10.813,1.846,13.575.423.667-2.707-6.415-4.6-6.415-4.6-.64.758-4.42,1.338-5.762.526-4.943-4.209-7.354-10.328-8.407-16.019C985.9,1747.6,978.084,1748.144,982.072,1757.363Z" transform="translate(-980.938 -1631.974)" fill="#e62552"/>
        </g>
        <g id="Grupo_107098" data-name="Grupo 107098" transform="translate(11.036 92.046)">
          <g id="Grupo_107097" data-name="Grupo 107097">
            <g id="Grupo_107096" data-name="Grupo 107096">
              <g id="Grupo_107095" data-name="Grupo 107095">
                <path id="Trazado_221117" data-name="Trazado 221117" d="M1034.3,1204.273c2.016-6.745,1.181-54.289,18.979-67.418l30.584,2.49c7.077,11.456,4.481,41.266,2.1,65.8C1071.565,1210.283,1060.116,1212.346,1034.3,1204.273Z" transform="translate(-1034.304 -1136.855)" fill="#bbabf5"/>
              </g>
            </g>
          </g>
        </g>
      </g>
      <g id="Grupo_107101" data-name="Grupo 107101" transform="translate(61.485 0)">
        <g id="Grupo_107100" data-name="Grupo 107100" transform="translate(24.709)">
          <path id="Trazado_221118" data-name="Trazado 221118" d="M1503.472,373.644a11.36,11.36,0,0,0-2.5-4.314c-8.878-12.932-29.413-5.441-59.3,3.031-5,1.417-3.961-5.291-6.176-18.63-1.44-8.676-10.784-19.793-19.847-16.992-14.945,4.619,3.059,11.911-1.185,45.017-2.268,17.689-20.734,13.88-15.92,29.456l10.958,35.456c1.874,6.063,4.273,11.706,13.135,10.018,8.59-1.637,8.543,4.832,20.521,1.13l59.95-18.528a11.58,11.58,0,0,0,7.666-14.45,11.407,11.407,0,0,0-4.382-5.958,11.356,11.356,0,0,0-1.622-17.305,11.428,11.428,0,0,0-2.815-18.107,11.445,11.445,0,0,0,1.518-9.822Z" transform="translate(-1397.747 -336.297)" fill="#facb32"/>
          <path id="Trazado_221119" data-name="Trazado 221119" d="M1673.548,522.006l28.586-8.835a11.657,11.657,0,0,0,7.853-8.344,3.04,3.04,0,0,0-5.916-1.4,5.526,5.526,0,0,1-3.73,3.961l-29.271,9.046a5.481,5.481,0,1,1-3.237-10.473l19.559-6.045a3.029,3.029,0,1,0-1.789-5.788l-19.563,6.046a11.577,11.577,0,0,0-7.666,14.447,11.451,11.451,0,0,0,6.6,7.177,11.4,11.4,0,0,0,5.743,16.061,11.463,11.463,0,0,0,6.585,16.373,11.416,11.416,0,0,0-.578,8.165,11.577,11.577,0,0,0,14.481,7.6l18.22-5.631a11.659,11.659,0,0,0,7.857-8.342,3.023,3.023,0,0,0-2.24-3.653,3.055,3.055,0,0,0-3.671,2.24,5.55,5.55,0,0,1-3.735,3.967l-18.22,5.631a5.481,5.481,0,1,1-3.237-10.472l21.616-6.681a11.657,11.657,0,0,0,7.856-8.345,3.039,3.039,0,0,0-5.911-1.413,5.471,5.471,0,0,1-3.734,3.97l-23.466,7.252a5.482,5.482,0,1,1-3.238-10.475l26.882-8.308a11.659,11.659,0,0,0,7.857-8.342,3.039,3.039,0,0,0-5.911-1.413,5.476,5.476,0,0,1-3.735,3.966l-27.616,8.535a5.482,5.482,0,1,1-3.238-10.476Z" transform="translate(-1604.072 -461.377)" fill="#eba223"/>
        </g>
        <path id="Trazado_221120" data-name="Trazado 221120" d="M1320.418,694.244l-18.666,5.769a4.9,4.9,0,0,1-6.128-3.234l-17.143-55.47a4.9,4.9,0,0,1,3.234-6.128l18.667-5.769a4.9,4.9,0,0,1,6.128,3.234l17.143,55.47A4.9,4.9,0,0,1,1320.418,694.244Z" transform="translate(-1278.26 -568.622)" fill="#7f99eb"/>
      </g>
      <g id="Grupo_107108" data-name="Grupo 107108" transform="translate(18.499 114.23)">
        <g id="Grupo_107106" data-name="Grupo 107106" transform="translate(73.379)">
          <g id="Grupo_107105" data-name="Grupo 107105">
            <g id="Grupo_107104" data-name="Grupo 107104">
              <g id="Grupo_107103" data-name="Grupo 107103">
                <g id="Grupo_107102" data-name="Grupo 107102">
                  <path id="Trazado_221121" data-name="Trazado 221121" d="M1434.127,899.079c-1.946.119-4.216-.517-5.507.9l-3.386-3.9c3.3-5.289,11.063-7.084,11.86-7.154,2.07-.182,3.031-.4,3.193-.119s.669,2.12-2.335,2.48c-3.769.453-1.267,3.466,6.38.6,1.915-.718,5.518.214,4.214,1.613C1447.11,895.044,1442.984,898.539,1434.127,899.079Z" transform="translate(-1425.234 -888.679)" fill="#f37a50"/>
                </g>
              </g>
            </g>
          </g>
        </g>
        <g id="Grupo_107107" data-name="Grupo 107107" transform="translate(0 5.784)">
          <path id="Trazado_221122" data-name="Trazado 221122" d="M1276.24,932.794c-1.819,2.592,2.333,11.234,3.437,11.325,13.379-3.417,30.826-22.407,30.826-22.407l-1-5.063S1292.662,926.69,1276.24,932.794Z" transform="translate(-1233.311 -916.649)" fill="#f37a50"/>
          <path id="Trazado_221123" data-name="Trazado 221123" d="M1077.352,937.724c8.042,4.554,36.553,12.149,39.623,10.827l-2.981-11.45s-28.557-12.286-33.4-14.1C1072.226,919.853,1064.208,930.313,1077.352,937.724Z" transform="translate(-1070.393 -921.234)" fill="#f37a50"/>
        </g>
      </g>
    </g>
    <g id="Grupo_107111" data-name="Grupo 107111" transform="translate(505.229 294.739)">
      <g id="Grupo_107110" data-name="Grupo 107110" transform="translate(17.409 0)">
        <path id="Trazado_221124" data-name="Trazado 221124" d="M2450.609,343.988a8.121,8.121,0,0,0-.417-3.541c-2.154-11.006-17.755-11.92-39.77-14.846-3.681-.488-1.1-4.6,1.236-13.978,1.518-6.1-1.457-16.049-8.2-16.785-11.117-1.212-1.375,8.684-13.558,29.2-6.51,10.963-17.545,3.221-18.809,14.809l-2.875,26.376c-.492,4.51-.52,8.895,5.775,10.3,6.1,1.365,4.234,5.6,13.144,6.567l44.6,4.862a8.279,8.279,0,0,0,9.132-7.306,8.155,8.155,0,0,0-1.184-5.154,8.119,8.119,0,0,0,3.849-11.816A8.17,8.17,0,0,0,2446.825,350a8.183,8.183,0,0,0,3.784-6.014Z" transform="translate(-2368.023 -294.739)" fill="#facb32"/>
        <path id="Trazado_221125" data-name="Trazado 221125" d="M2584.026,493.677,2605.292,496a8.334,8.334,0,0,0,7.522-3.246,2.173,2.173,0,0,0-3.483-2.6,3.952,3.952,0,0,1-3.572,1.54l-21.775-2.374a3.918,3.918,0,1,1,.849-7.791l14.55,1.586a2.166,2.166,0,1,0,.469-4.306l-14.552-1.587a8.277,8.277,0,0,0-9.132,7.3,8.187,8.187,0,0,0,2.3,6.585,8.15,8.15,0,0,0-.792,12.169,8.195,8.195,0,0,0-.327,12.613,8.16,8.16,0,0,0-2.7,5.194,8.277,8.277,0,0,0,7.344,9.1l13.554,1.478a8.334,8.334,0,0,0,7.524-3.243,2.161,2.161,0,0,0-.432-3.033,2.184,2.184,0,0,0-3.045.427,3.968,3.968,0,0,1-3.577,1.542l-13.554-1.478a3.918,3.918,0,1,1,.849-7.79l16.08,1.753a8.334,8.334,0,0,0,7.524-3.246,2.172,2.172,0,0,0-3.477-2.605,3.912,3.912,0,0,1-3.577,1.545l-17.457-1.9a3.92,3.92,0,1,1,.849-7.793l20,2.18a8.335,8.335,0,0,0,7.524-3.243,2.173,2.173,0,0,0-3.478-2.605,3.915,3.915,0,0,1-3.577,1.542l-20.544-2.24a3.92,3.92,0,1,1,.85-7.793Z" transform="translate(-2531.835 -439.443)" fill="#eba223"/>
      </g>
      <path id="Trazado_221126" data-name="Trazado 221126" d="M2301.431,500.981l-13.886-1.514c-2.506-.273-3.9-2-3.686-3.926l4.5-41.265a3.5,3.5,0,0,1,3.863-3.1l13.886,1.514a3.5,3.5,0,0,1,3.1,3.862l-4.5,41.265C2304.5,499.738,2302.772,501.127,2301.431,500.981Z" transform="translate(-2283.839 -418.807)" fill="#7f99eb"/>
    </g>
    <g id="Grupo_107112" data-name="Grupo 107112" transform="translate(157.754 301.809)">
      <path id="Trazado_221127" data-name="Trazado 221127" d="M1469.771,1060.552l9.174.072-8.254,4a3.058,3.058,0,0,0-1.718,2.931l.8,13.654-5.143-12.685a3.059,3.059,0,0,0-2.8-1.909l-8.969-.111,8.052-3.952a3.059,3.059,0,0,0,1.705-2.925l-.8-13.664,5.139,12.676A3.058,3.058,0,0,0,1469.771,1060.552Z" transform="translate(-1277.233 -897.686)" fill="#facb32"/>
      <path id="Trazado_221128" data-name="Trazado 221128" d="M2000.006,348.535l7.721,4.076-8.728-.228a2.911,2.911,0,0,0-2.735,1.725l-5.3,11.889,1.206-12.97a2.91,2.91,0,0,0-1.527-2.837l-7.53-4.019,8.534.184a2.91,2.91,0,0,0,2.721-1.725l5.3-11.9-1.2,12.961A2.91,2.91,0,0,0,2000.006,348.535Z" transform="translate(-1697.828 -331.944)" fill="#facb32"/>
      <path id="Trazado_221129" data-name="Trazado 221129" d="M1330.709,338.024l5.755-.014-5.152,2.565a1.919,1.919,0,0,0-1.059,1.85l.592,8.559-3.308-7.923a1.919,1.919,0,0,0-1.766-1.179l-5.627-.012,5.025-2.531a1.918,1.918,0,0,0,1.051-1.846l-.592-8.566,3.306,7.918A1.918,1.918,0,0,0,1330.709,338.024Z" transform="translate(-1171.957 -328.927)" fill="#facb32"/>
      <path id="Trazado_221130" data-name="Trazado 221130" d="M1694.294,1284.025l5.513,3.446-6.47-.643a2.167,2.167,0,0,0-2.125,1.132l-4.58,8.543,1.6-9.568a2.167,2.167,0,0,0-.98-2.19l-5.375-3.394,6.328.6a2.168,2.168,0,0,0,2.115-1.134l4.583-8.549-1.6,9.56A2.167,2.167,0,0,0,1694.294,1284.025Z" transform="translate(-1458.885 -1077.19)" fill="#facb32"/>
      <path id="Trazado_221131" data-name="Trazado 221131" d="M2810.737,555.07l5.071,2.722-5.752-.19a1.918,1.918,0,0,0-1.81,1.125l-3.546,7.813.854-8.544a1.919,1.919,0,0,0-.994-1.877l-4.945-2.684,5.625.16a1.919,1.919,0,0,0,1.8-1.125l3.549-7.819-.853,8.538A1.919,1.919,0,0,0,2810.737,555.07Z" transform="translate(-2345.479 -500.04)" fill="#facb32"/>
      <path id="Trazado_221132" data-name="Trazado 221132" d="M613.837,1210.235l5.741-.4-4.967,2.907a1.919,1.919,0,0,0-.932,1.917l1.167,8.5-3.834-7.683a1.918,1.918,0,0,0-1.842-1.058l-5.615.367,4.843-2.864a1.919,1.919,0,0,0,.924-1.912l-1.168-8.507,3.832,7.677A1.919,1.919,0,0,0,613.837,1210.235Z" transform="translate(-603.556 -1021.057)" fill="#facb32"/>
    </g>
    <path id="Trazado_221133" data-name="Trazado 221133" d="M2610.352,1229.578a6.519,6.519,0,1,1-6.519-6.519A6.519,6.519,0,0,1,2610.352,1229.578Z" transform="translate(-2027.259 -736.348)" fill="#fff"/>
    <path id="Trazado_221134" data-name="Trazado 221134" d="M1488.6,1416.9a5.088,5.088,0,1,1,0-7.195A5.088,5.088,0,0,1,1488.6,1416.9Z" transform="translate(-1140.93 -883.212)" fill="#fff"/>
    <path id="Trazado_221135" data-name="Trazado 221135" d="M2658.989,1163.635a3.507,3.507,0,1,1-3.507,3.507,3.511,3.511,0,0,1,3.507-3.507Zm0-1.5a5.005,5.005,0,1,0,5.006,5.005,5.005,5.005,0,0,0-5.006-5.005Z" transform="translate(-2072.21 -688.024)" fill="#fff"/>
    <path id="Trazado_221136" data-name="Trazado 221136" d="M1148.183,515.128a4.993,4.993,0,1,1-4.993,4.993,5,5,0,0,1,4.993-4.993Zm0-2.132a7.125,7.125,0,1,0,7.125,7.125,7.125,7.125,0,0,0-7.125-7.125Z" transform="translate(-872.151 -173.122)" fill="#fff"/>
    <path id="Trazado_221137" data-name="Trazado 221137" d="M157.426,743.352a4.483,4.483,0,1,1-4.483,4.483,4.488,4.488,0,0,1,4.483-4.483Zm0-1.914a6.4,6.4,0,1,0,6.4,6.4,6.4,6.4,0,0,0-6.4-6.4Z" transform="translate(-86.854 -354.324)" fill="#fff"/>
  </g>
</svg>
