<svg xmlns="http://www.w3.org/2000/svg" width="284.267" height="284.268" viewBox="0 0 284.267 284.268">
  <g id="Grupo_110747" data-name="Grupo 110747" transform="translate(-8.094 -18.094)">
    <g id="Background_Complete" data-name="Background Complete" transform="translate(31.273 34.077)">
      <g id="Grupo_110658" data-name="Grupo 110658" transform="translate(2.189 36.084)">
        <path id="Trazado_222060" data-name="Trazado 222060" d="M405.949,128.713l6.187,3.839,1.174-1.895a1.731,1.731,0,0,1,1.629-.8,10.184,10.184,0,0,0,1.089.035,1.728,1.728,0,0,1,1.57.9l1.054,1.964,6.419-3.443-1.053-1.964a1.73,1.73,0,0,1,.116-1.809,9.938,9.938,0,0,0,.573-.926,1.73,1.73,0,0,1,1.571-.912l2.228.07.226-7.277-2.236-.068a1.734,1.734,0,0,1-1.507-1.015q-.114-.241-.241-.479t-.266-.466a1.728,1.728,0,0,1-.014-1.808l1.183-1.909-6.188-3.838-1.178,1.9a1.73,1.73,0,0,1-1.63.8,10.1,10.1,0,0,0-1.084-.035,1.729,1.729,0,0,1-1.569-.9l-1.054-1.965-6.418,3.443,1.053,1.965a1.728,1.728,0,0,1-.116,1.807,10.091,10.091,0,0,0-.57.923,1.731,1.731,0,0,1-1.57.914l-2.233-.069-.226,7.277,2.234.07a1.728,1.728,0,0,1,1.5,1.012q.115.242.243.482c.085.158.173.314.266.466a1.735,1.735,0,0,1,.012,1.817Zm4.595-6.162a5.964,5.964,0,1,1,8.074,2.441A5.959,5.959,0,0,1,410.543,122.551Z" transform="translate(-196.284 -106.71)" fill="#ebebeb"/>
        <path id="Trazado_222061" data-name="Trazado 222061" d="M397.814,185.737l2.549,4.418,1.353-.781a1.211,1.211,0,0,1,1.271.043,7.149,7.149,0,0,0,.66.382,1.211,1.211,0,0,1,.671,1.078v1.562h5.1v-1.562a1.211,1.211,0,0,1,.671-1.078,7.14,7.14,0,0,0,.66-.382,1.211,1.211,0,0,1,1.271-.043l1.352.781,2.549-4.418-1.358-.782a1.213,1.213,0,0,1-.593-1.125c.006-.125.009-.25.009-.376s0-.251-.009-.375a1.209,1.209,0,0,1,.59-1.121l1.362-.787-2.549-4.418-1.356.781a1.211,1.211,0,0,1-1.271-.045,7.094,7.094,0,0,0-.658-.381,1.212,1.212,0,0,1-.67-1.078V174.47h-5.1v1.562a1.212,1.212,0,0,1-.67,1.078,7.007,7.007,0,0,0-.658.381,1.212,1.212,0,0,1-1.272.045l-1.356-.781-2.549,4.418,1.356.783a1.21,1.21,0,0,1,.592,1.122c-.006.125-.009.251-.009.378s0,.251.009.376a1.215,1.215,0,0,1-.593,1.126Zm4.877-2.283a4.178,4.178,0,1,1,4.176,4.18A4.175,4.175,0,0,1,402.691,183.454Z" transform="translate(-194.2 -134.657)" fill="#ebebeb"/>
        <path id="Trazado_222062" data-name="Trazado 222062" d="M51.27,271.715l2.549,4.418,1.352-.781a1.212,1.212,0,0,1,1.271.043,7.156,7.156,0,0,0,.661.382,1.211,1.211,0,0,1,.67,1.078v1.562h5.1v-1.562a1.212,1.212,0,0,1,.67-1.078,7.08,7.08,0,0,0,.661-.382,1.212,1.212,0,0,1,1.271-.043l1.352.781,2.549-4.418-1.358-.782a1.213,1.213,0,0,1-.594-1.125q.01-.187.009-.375t-.009-.375a1.209,1.209,0,0,1,.59-1.12l1.362-.787-2.549-4.418-1.356.782a1.212,1.212,0,0,1-1.271-.045,6.951,6.951,0,0,0-.657-.381,1.212,1.212,0,0,1-.67-1.078v-1.562h-5.1v1.562a1.212,1.212,0,0,1-.669,1.078,6.879,6.879,0,0,0-.657.381,1.215,1.215,0,0,1-1.272.045l-1.356-.782L51.27,267.15l1.356.783a1.212,1.212,0,0,1,.592,1.122c-.006.125-.009.251-.009.378s0,.251.009.375a1.216,1.216,0,0,1-.593,1.126Zm4.877-2.283a4.178,4.178,0,1,1,4.176,4.18A4.175,4.175,0,0,1,56.147,269.433Z" transform="translate(-51.27 -170.119)" fill="#ebebeb"/>
      </g>
      <g id="Grupo_110665" data-name="Grupo 110665" transform="translate(0)">
        <g id="Grupo_110661" data-name="Grupo 110661">
          <rect id="Rectángulo_41871" data-name="Rectángulo 41871" width="77.413" height="118.701" fill="#ebebeb"/>
          <g id="Grupo_110660" data-name="Grupo 110660" transform="translate(4.218 4.756)">
            <rect id="Rectángulo_41872" data-name="Rectángulo 41872" width="32.693" height="52.797" fill="#fff"/>
            <rect id="Rectángulo_41873" data-name="Rectángulo 41873" width="32.687" height="52.797" transform="translate(36.289)" fill="#fff"/>
            <rect id="Rectángulo_41874" data-name="Rectángulo 41874" width="32.693" height="52.797" transform="translate(0 56.393)" fill="#fff"/>
            <rect id="Rectángulo_41875" data-name="Rectángulo 41875" width="32.687" height="52.797" transform="translate(36.289 56.393)" fill="#fff"/>
            <g id="Grupo_110659" data-name="Grupo 110659">
              <path id="Trazado_222063" data-name="Trazado 222063" d="M74.515,53.39,54.723,73.182V61.507L62.84,53.39Z" transform="translate(-54.723 -53.39)" fill="#ebebeb"/>
              <path id="Trazado_222064" data-name="Trazado 222064" d="M54.723,212.961l32.693-32.693v11.669L64.444,214.91H54.723Z" transform="translate(-54.723 -105.72)" fill="#ebebeb"/>
              <path id="Trazado_222065" data-name="Trazado 222065" d="M142.719,149.368,116.485,175.6V163.928l14.559-14.559Z" transform="translate(-80.196 -92.976)" fill="#ebebeb"/>
              <path id="Trazado_222066" data-name="Trazado 222066" d="M161.917,118.515V130.19l-2.857,2.857H147.385Z" transform="translate(-92.941 -80.251)" fill="#ebebeb"/>
              <path id="Trazado_222067" data-name="Trazado 222067" d="M163.534,218.415v11.669l-.558.558H151.307Z" transform="translate(-94.558 -121.454)" fill="#ebebeb"/>
              <path id="Trazado_222068" data-name="Trazado 222068" d="M56.595,149.368h5.835l-7.707,7.707V151.24Z" transform="translate(-54.723 -92.976)" fill="#ebebeb"/>
              <path id="Trazado_222069" data-name="Trazado 222069" d="M64.029,124.137,91.254,96.913v5.835l-21.39,21.39Z" transform="translate(-58.561 -71.341)" fill="#ebebeb"/>
              <path id="Trazado_222070" data-name="Trazado 222070" d="M144.3,53.39,116.485,81.2V75.366L138.461,53.39Z" transform="translate(-80.196 -53.39)" fill="#ebebeb"/>
              <path id="Trazado_222071" data-name="Trazado 222071" d="M84.11,53.39,54.723,82.777V81.316L82.648,53.39Z" transform="translate(-54.723 -53.39)" fill="#ebebeb"/>
              <path id="Trazado_222072" data-name="Trazado 222072" d="M85.818,229.1l14.422-14.422v1.461L87.28,229.1Z" transform="translate(-67.548 -119.913)" fill="#ebebeb"/>
              <path id="Trazado_222073" data-name="Trazado 222073" d="M149.172,152.936v1.456L116.485,187.08v-1.461Z" transform="translate(-80.196 -94.447)" fill="#ebebeb"/>
            </g>
          </g>
        </g>
        <g id="Grupo_110664" data-name="Grupo 110664" transform="translate(94.8)">
          <rect id="Rectángulo_41876" data-name="Rectángulo 41876" width="77.413" height="118.701" fill="#ebebeb"/>
          <g id="Grupo_110663" data-name="Grupo 110663" transform="translate(4.216 4.756)">
            <rect id="Rectángulo_41877" data-name="Rectángulo 41877" width="32.693" height="52.797" fill="#fff"/>
            <rect id="Rectángulo_41878" data-name="Rectángulo 41878" width="32.687" height="52.797" transform="translate(36.289)" fill="#fff"/>
            <rect id="Rectángulo_41879" data-name="Rectángulo 41879" width="32.693" height="52.797" transform="translate(0 56.393)" fill="#fff"/>
            <rect id="Rectángulo_41880" data-name="Rectángulo 41880" width="32.687" height="52.797" transform="translate(36.289 56.393)" fill="#fff"/>
            <g id="Grupo_110662" data-name="Grupo 110662">
              <path id="Trazado_222074" data-name="Trazado 222074" d="M216.066,149.368h3.082l-3.082,3.082Z" transform="translate(-216.066 -92.976)" fill="#ebebeb"/>
              <path id="Trazado_222075" data-name="Trazado 222075" d="M216.066,111.79l32.693-32.7v11.68l-26.015,26.015h-6.678Z" transform="translate(-216.066 -63.991)" fill="#ebebeb"/>
              <path id="Trazado_222076" data-name="Trazado 222076" d="M301.014,53.39,277.829,76.576V64.9L289.334,53.39Z" transform="translate(-241.54 -53.39)" fill="#ebebeb"/>
              <path id="Trazado_222077" data-name="Trazado 222077" d="M310.516,178.554v11.675L286.542,214.2h-8.714v-2.967Z" transform="translate(-241.54 -105.013)" fill="#ebebeb"/>
              <path id="Trazado_222078" data-name="Trazado 222078" d="M248.759,53.39v1.078L216.066,87.161v-5.84L244,53.39Z" transform="translate(-216.066 -53.39)" fill="#ebebeb"/>
              <path id="Trazado_222079" data-name="Trazado 222079" d="M249.63,230.121,262.6,217.148v5.835l-7.137,7.137Z" transform="translate(-229.91 -120.931)" fill="#ebebeb"/>
              <path id="Trazado_222080" data-name="Trazado 222080" d="M310.516,155.386v5.84l-32.687,32.687v-5.835Z" transform="translate(-241.54 -95.458)" fill="#ebebeb"/>
              <path id="Trazado_222081" data-name="Trazado 222081" d="M223.122,149.368h1.461l-8.517,8.517v-1.461Z" transform="translate(-216.066 -92.976)" fill="#ebebeb"/>
              <path id="Trazado_222082" data-name="Trazado 222082" d="M234.194,127.776l22.042-22.041V107.2l-20.58,20.58Z" transform="translate(-223.543 -74.979)" fill="#ebebeb"/>
              <path id="Trazado_222083" data-name="Trazado 222083" d="M306.449,53.39,277.829,82.011V80.549L304.988,53.39Z" transform="translate(-241.54 -53.39)" fill="#ebebeb"/>
              <path id="Trazado_222084" data-name="Trazado 222084" d="M216.066,214.414l32.693-32.693v1.456l-32.332,32.332h-.361Z" transform="translate(-216.066 -106.32)" fill="#ebebeb"/>
              <path id="Trazado_222085" data-name="Trazado 222085" d="M294.7,149.368l-16.869,16.869v-1.456l15.408-15.413Z" transform="translate(-241.54 -92.976)" fill="#ebebeb"/>
              <path id="Trazado_222086" data-name="Trazado 222086" d="M323.856,119.959v1.461l-12.222,12.222h-1.461Z" transform="translate(-254.88 -80.846)" fill="#ebebeb"/>
            </g>
          </g>
        </g>
      </g>
    </g>
    <g id="Shadows" transform="translate(11.831 247.122)">
      <g id="Grupo_110666" data-name="Grupo 110666" transform="translate(52.05)">
        <ellipse id="Elipse_5462" data-name="Elipse 5462" cx="86.347" cy="11.638" rx="86.347" ry="11.638" fill="#ebebeb"/>
      </g>
      <g id="Grupo_110667" data-name="Grupo 110667" transform="translate(216.905 6.993)">
        <ellipse id="Elipse_5463" data-name="Elipse 5463" cx="24.242" cy="4.801" rx="24.242" ry="4.801" fill="#ebebeb"/>
      </g>
      <g id="Grupo_110668" data-name="Grupo 110668" transform="translate(0 13.254)">
        <ellipse id="Elipse_5464" data-name="Elipse 5464" cx="90.498" cy="10.598" rx="90.498" ry="10.598" fill="#ebebeb"/>
      </g>
    </g>
    <g id="Floor" transform="translate(22.963 244.538)">
      <line id="Línea_1244" data-name="Línea 1244" x2="254.529" fill="none" stroke="#263238" stroke-linecap="round" stroke-linejoin="round" stroke-width="1"/>
    </g>
    <g id="Clock" transform="translate(8.094 18.094)">
      <g id="Grupo_110673" data-name="Grupo 110673" transform="translate(0 0)">
        <g id="Grupo_110669" data-name="Grupo 110669" transform="translate(70.692 218.063)">
          <path id="Trazado_222087" data-name="Trazado 222087" d="M136.786,389.229l-8.377,22.6h9.836l18.213-12.409Z" transform="translate(-128.409 -389.229)" fill="#ffc727"/>
          <path id="Trazado_222088" data-name="Trazado 222088" d="M136.786,389.229l-8.377,22.6h9.836l18.213-12.409Z" transform="translate(-128.409 -389.229)" opacity="0.1"/>
        </g>
        <g id="Grupo_110670" data-name="Grupo 110670" transform="translate(185.525 218.063)">
          <path id="Trazado_222089" data-name="Trazado 222089" d="M343.524,389.229l8.377,22.6h-9.836l-18.213-12.409Z" transform="translate(-323.851 -389.229)" fill="#ffc727"/>
          <path id="Trazado_222090" data-name="Trazado 222090" d="M343.524,389.229l8.377,22.6h-9.836l-18.213-12.409Z" transform="translate(-323.851 -389.229)" opacity="0.1"/>
        </g>
        <circle id="Elipse_5465" data-name="Elipse 5465" cx="100.503" cy="100.503" r="100.503" transform="translate(0 142.133) rotate(-45)" fill="#ffc727"/>
        <circle id="Elipse_5466" data-name="Elipse 5466" cx="95.9" cy="95.9" r="95.9" transform="translate(45.013 44.585)" opacity="0.1"/>
        <circle id="Elipse_5467" data-name="Elipse 5467" cx="89.844" cy="89.844" r="89.844" transform="translate(15.074 141.705) rotate(-45)" fill="#fff"/>
        <path id="Trazado_222091" data-name="Trazado 222091" d="M279.889,184.344c-40.912,24.789-108.153,65.453-145.736,87.745a89.93,89.93,0,0,1-24.55-33.01l124.3-115.2A89.95,89.95,0,0,1,279.889,184.344Z" transform="translate(-49.961 -61.724)" fill="#ebebeb"/>
        <path id="Trazado_222092" data-name="Trazado 222092" d="M310.019,264.577a89.11,89.11,0,0,1-5.938,29.2l-112.056,53a89.027,89.027,0,0,1-14.15-6.082C211.723,321.123,273.577,285.536,310.019,264.577Z" transform="translate(-78.119 -119.754)" fill="#ebebeb"/>
        <g id="Grupo_110671" data-name="Grupo 110671" transform="translate(58.811 58.382)">
          <rect id="Rectángulo_41881" data-name="Rectángulo 41881" width="1.736" height="13.618" transform="translate(82.453)" fill="#c7c7c7"/>
          <rect id="Rectángulo_41882" data-name="Rectángulo 41882" width="1.738" height="13.619" transform="translate(40.909 11.597) rotate(-29.998)" fill="#c7c7c7"/>
          <rect id="Rectángulo_41883" data-name="Rectángulo 41883" width="1.736" height="13.618" transform="matrix(0.5, -0.866, 0.866, 0.5, 10.728, 42.412)" fill="#c7c7c7"/>
          <rect id="Rectángulo_41884" data-name="Rectángulo 41884" width="13.617" height="1.736" transform="translate(0 82.454)" fill="#c7c7c7"/>
          <rect id="Rectángulo_41885" data-name="Rectángulo 41885" width="13.618" height="1.736" transform="matrix(0.866, -0.5, 0.5, 0.866, 10.728, 124.232)" fill="#c7c7c7"/>
          <rect id="Rectángulo_41886" data-name="Rectángulo 41886" width="13.618" height="1.738" transform="matrix(0.5, -0.866, 0.866, 0.5, 40.912, 155.05)" fill="#c7c7c7"/>
          <rect id="Rectángulo_41887" data-name="Rectángulo 41887" width="1.736" height="13.619" transform="translate(82.453 153.027)" fill="#c7c7c7"/>
          <rect id="Rectángulo_41888" data-name="Rectángulo 41888" width="1.738" height="13.617" transform="matrix(0.866, -0.5, 0.5, 0.866, 117.421, 144.123)" fill="#c7c7c7"/>
          <rect id="Rectángulo_41889" data-name="Rectángulo 41889" width="1.736" height="13.618" transform="matrix(0.5, -0.866, 0.866, 0.5, 143.254, 118.926)" fill="#c7c7c7"/>
          <rect id="Rectángulo_41890" data-name="Rectángulo 41890" width="13.618" height="1.736" transform="translate(153.027 82.454)" fill="#c7c7c7"/>
          <rect id="Rectángulo_41891" data-name="Rectángulo 41891" width="13.618" height="1.736" transform="matrix(0.866, -0.5, 0.5, 0.866, 143.254, 47.719)" fill="#c7c7c7"/>
          <rect id="Rectángulo_41892" data-name="Rectángulo 41892" width="13.618" height="1.738" transform="translate(117.424 22.525) rotate(-60.034)" fill="#c7c7c7"/>
        </g>
        <g id="Grupo_110672" data-name="Grupo 110672" transform="translate(137.637 80.396)">
          <path id="Trazado_222093" data-name="Trazado 222093" d="M329.487,256.967l-87.14,2.435.1-8.523,87.063,3.773Z" transform="translate(-242.348 -194.501)" fill="#ffc727"/>
          <path id="Trazado_222094" data-name="Trazado 222094" d="M247.686,154.956l3.767,66.315-8.522-.115,2.442-66.231Z" transform="translate(-242.588 -154.925)" fill="#263238"/>
          <circle id="Elipse_5468" data-name="Elipse 5468" cx="2.909" cy="2.909" r="2.909" transform="translate(1.587 58.4)" fill="#ffc727"/>
        </g>
      </g>
    </g>
    <g id="Character" transform="translate(143.298 81.793)">
      <g id="Grupo_110715" data-name="Grupo 110715">
        <g id="Grupo_110688" data-name="Grupo 110688" transform="translate(0 46.835)">
          <g id="Grupo_110680" data-name="Grupo 110680">
            <g id="Grupo_110679" data-name="Grupo 110679">
              <g id="Grupo_110677" data-name="Grupo 110677" transform="translate(45.332 6.853)">
                <path id="Trazado_222095" data-name="Trazado 222095" d="M357.175,242.147c-.323-.977-17.613-23.822-18.794-24.262-.135-.058-7.864,5.443-7.864,5.443-.319.425-15.011-2.679-15.011-2.679l-.146,17.724,26.763-.569s3.615,2.125,6.921,3.857c.006,0,.008,0,.011,0a39.943,39.943,0,0,0,4.35,2.11C354.744,244.114,357.5,243.118,357.175,242.147Z" transform="translate(-315.36 -217.883)" fill="#dd6a57"/>
                <path id="Trazado_222096" data-name="Trazado 222096" d="M361.466,243.771a39.043,39.043,0,0,1-4.349-2.11s-.008,0-.012,0c-3.3-1.732-6.92-3.859-6.92-3.859l-5.956.128L334.9,222.883a14.658,14.658,0,0,0,3.676.444s7.726-5.5,7.862-5.441c1.181.439,18.47,23.284,18.794,24.261S362.8,244.116,361.466,243.771Z" transform="translate(-323.42 -217.883)" fill="#fff"/>
                <g id="Grupo_110676" data-name="Grupo 110676" transform="translate(15.157)">
                  <path id="Trazado_222097" data-name="Trazado 222097" d="M367.973,242.176c-.34-1-17.709-23.833-18.921-24.286-.459-.174-4.24,2.162-7.895,5.436l11.215,14.707s10.347,5.481,11.731,5.834S368.313,243.177,367.973,242.176Z" transform="translate(-341.157 -217.881)" fill="#a6a6a6"/>
                  <g id="Grupo_110675" data-name="Grupo 110675" transform="translate(4.953 1.498)">
                    <g id="Grupo_110674" data-name="Grupo 110674">
                      <path id="Trazado_222098" data-name="Trazado 222098" d="M372.556,243.6c-3.005-3.756-14.773-19.188-17.459-23.13-.022-.032,0-.048.024-.018,3.061,3.658,14.7,19.186,17.5,23.1C372.678,243.63,372.62,243.674,372.556,243.6Z" transform="translate(-351.856 -220.432)" fill="#263238"/>
                      <path id="Trazado_222099" data-name="Trazado 222099" d="M376.309,256.872a3.862,3.862,0,0,1-.807-3,3.744,3.744,0,0,1,1.393-2.41c.023-.016.056.025.035.046a4.465,4.465,0,0,0-.573,5.328A.03.03,0,0,1,376.309,256.872Z" transform="translate(-360.255 -233.228)" fill="#263238"/>
                      <path id="Trazado_222100" data-name="Trazado 222100" d="M361.306,249.758a6.7,6.7,0,0,1-1.468-5.608c.021-.074.125-.044.136.019a26.619,26.619,0,0,0,1.541,5.471A.121.121,0,0,1,361.306,249.758Z" transform="translate(-353.746 -230.196)" fill="#263238"/>
                      <path id="Trazado_222101" data-name="Trazado 222101" d="M363.622,251.174a6.7,6.7,0,0,1-1.468-5.608c.021-.073.125-.043.136.02a26.618,26.618,0,0,0,1.541,5.471A.121.121,0,0,1,363.622,251.174Z" transform="translate(-354.701 -230.78)" fill="#263238"/>
                      <path id="Trazado_222102" data-name="Trazado 222102" d="M365.938,252.59a6.7,6.7,0,0,1-1.468-5.608c.02-.074.125-.043.136.02a26.544,26.544,0,0,0,1.541,5.471A.121.121,0,0,1,365.938,252.59Z" transform="translate(-355.657 -231.364)" fill="#263238"/>
                      <path id="Trazado_222103" data-name="Trazado 222103" d="M368.253,254.006a6.7,6.7,0,0,1-1.468-5.608c.02-.074.125-.043.136.02a26.622,26.622,0,0,0,1.541,5.471A.121.121,0,0,1,368.253,254.006Z" transform="translate(-356.612 -231.948)" fill="#263238"/>
                      <path id="Trazado_222104" data-name="Trazado 222104" d="M349.935,224.973a1.679,1.679,0,0,1,2.677-2.024A1.679,1.679,0,0,1,349.935,224.973Z" transform="translate(-349.586 -221.199)" fill="#263238"/>
                    </g>
                    <path id="Trazado_222105" data-name="Trazado 222105" d="M358.958,255.012a16.793,16.793,0,0,0,.076-5.073.234.234,0,0,0-.333-.181.051.051,0,0,0-.08-.015,10.093,10.093,0,0,0-2.858,4.372c-.3.986-.189,2.441,1.043,2.727C357.972,257.113,358.7,255.968,358.958,255.012Zm-1.215,1.036c-1.783,1.116-1.646-1.362-1.393-2.08a10.971,10.971,0,0,1,.608-1.345,30.2,30.2,0,0,1,1.613-2.59c-.013.82.044,1.633.061,2.453C358.653,253.463,358.726,255.434,357.743,256.048Z" transform="translate(-352.075 -232.515)" fill="#263238"/>
                    <path id="Trazado_222106" data-name="Trazado 222106" d="M351.71,241.475c-.909.881-.257,2.187.511,2.875a10.1,10.1,0,0,0,4.7,2.273.05.05,0,0,0,.061-.053.235.235,0,0,0,.192-.327,16.822,16.822,0,0,0-2.68-4.308C353.786,241.246,352.57,240.642,351.71,241.475Zm3.81,2.791c.408.712.779,1.438,1.212,2.134a30.383,30.383,0,0,1-2.717-1.388,10.919,10.919,0,0,1-1.214-.84c-.586-.485-1.981-2.538.122-2.5C354.082,241.692,355.035,243.419,355.52,244.266Z" transform="translate(-350.28 -228.944)" fill="#263238"/>
                  </g>
                </g>
              </g>
              <g id="Grupo_110678" data-name="Grupo 110678">
                <path id="Trazado_222107" data-name="Trazado 222107" d="M282.876,210.4H270.863s-12.564-6.04-22.686-3.606c-11.6,2.79-13.086,17.363-4.413,22.516,10.988,6.528,59.884,5.265,59.884,5.265L293.078,216.66s-16.26-3.423-31.005-2.926l20.8,2.836Z" transform="translate(-238.206 -206.217)" fill="#455a64"/>
                <path id="Trazado_222108" data-name="Trazado 222108" d="M305.352,222.293a.4.4,0,0,1-.022-.092l-.019-.075c-.014-.058-.03-.116-.046-.173a3.687,3.687,0,0,0-.123-.35c-.046-.116-.1-.229-.149-.341a2.589,2.589,0,0,0-.2-.317c-.007-.011-.019-.013-.028-.02l-.019-.013a.087.087,0,0,0-.026-.011.118.118,0,0,0-.026-.011c-1.789-.333-13.939-2.071-15.745-2.277s-3.649-.377-5.475-.531a108.758,108.758,0,0,0-10.965-.395c-.343.006-.686.019-1.028.032-.072-.024-.15-.038-.226-.055-.175-.042-.35-.086-.527-.12-.33-.063-.662-.112-.995-.163-.692-.106-1.386-.179-2.074-.308-.042-.008-.058.055-.016.065.692.153,1.373.354,2.065.5q.3.066.6.128c-1.341.071-2.68.174-4.018.295-.042,0-.044.069,0,.066,1.821-.107,3.656-.12,5.48-.089s3.622.07,5.431.174c3.658.21,7.314.538,10.958.919,2.045.214,14.433,2.022,16.487,2.108a.12.12,0,0,0,.025,0,1.227,1.227,0,0,0,.057.14c.056.112.113.222.173.331s.117.209.183.31c.034.05.066.1.1.149l.051.074a.406.406,0,0,1,.053.078C305.306,222.366,305.377,222.335,305.352,222.293Z" transform="translate(-249.777 -210.695)" fill="#263238"/>
                <path id="Trazado_222109" data-name="Trazado 222109" d="M336.335,241.1c-.655-1.047-1.213-2.164-1.811-3.244s-1.2-2.165-1.8-3.247c-1.2-2.158-5.52-9.416-5.946-9.924-.027-.032-.082,0-.069.042.2.562,2.9,5.367,3.518,6.439,1.24,2.143,2.543,4.243,3.828,6.36.367.6.747,1.2,1.119,1.8s.767,1.191,1.109,1.808C336.3,241.17,336.358,241.134,336.335,241.1Z" transform="translate(-274.706 -213.828)" fill="#263238"/>
                <path id="Trazado_222110" data-name="Trazado 222110" d="M302.858,224.42c-1.079-.259-2.184-.427-3.274-.634s-2.186-.412-3.279-.615q-3.281-.608-6.572-1.165c-4.375-.736-8.769-1.348-13.186-1.771-2.493-.239-4.993-.4-7.491-.58-.053,0-.051.081,0,.083,4.449.2,8.892.8,13.3,1.435q6.545.94,13.061,2.048,1.84.311,3.679.63c1.245.216,2.491.482,3.744.641C302.887,224.5,302.907,224.432,302.858,224.42Z" transform="translate(-250.914 -211.76)" fill="#263238"/>
              </g>
            </g>
          </g>
          <g id="Grupo_110687" data-name="Grupo 110687" transform="translate(36.376 0.367)">
            <g id="Grupo_110684" data-name="Grupo 110684" transform="translate(0 49.93)">
              <path id="Trazado_222111" data-name="Trazado 222111" d="M328.112,330.94c-1.053-.105-27.247-11.879-27.963-12.959-.273-.408,1.219-4.323,3.156-9,.418-1.011.856-2.052,1.307-3.106,2.919-6.85,6.176-14.051,6.176-14.051l17.546,7.825-6.659,13.836-1.46,3.038s8.013,8.994,8.67,10.263S329.165,331.045,328.112,330.94Z" transform="translate(-300.117 -291.82)" fill="#dd6a57"/>
              <path id="Trazado_222112" data-name="Trazado 222112" d="M328.112,340.8c-1.053-.105-27.247-11.879-27.963-12.959-.33-.5,1.941-6.175,4.464-12.109l17.063,7.61-1.459,3.038s8.013,8.994,8.67,10.263S329.165,340.908,328.112,340.8Z" transform="translate(-300.117 -301.684)" fill="#fff"/>
              <g id="Grupo_110683" data-name="Grupo 110683" transform="translate(0 17.158)">
                <path id="Trazado_222113" data-name="Trazado 222113" d="M328.112,342.984c-1.053-.105-27.247-11.879-27.963-12.959-.273-.408,1.219-4.323,3.156-9l16.91,7.542s8.013,8.994,8.67,10.263S329.165,343.089,328.112,342.984Z" transform="translate(-300.117 -321.022)" fill="#a6a6a6"/>
                <g id="Grupo_110682" data-name="Grupo 110682" transform="translate(1.552 3.65)">
                  <g id="Grupo_110681" data-name="Grupo 110681" transform="translate(0 1.475)">
                    <path id="Trazado_222114" data-name="Trazado 222114" d="M329.3,348.047c-4.343-2.081-22.054-10.067-26.5-11.794-.036-.014-.047.01-.012.028,4.259,2.157,22.035,10,26.485,11.839C329.359,348.158,329.389,348.091,329.3,348.047Z" transform="translate(-302.759 -332.428)" fill="#263238"/>
                    <path id="Trazado_222115" data-name="Trazado 222115" d="M343.323,348.163a3.868,3.868,0,0,0-3.109-.109,3.748,3.748,0,0,0-2.035,1.9c-.011.026.037.049.053.024a4.469,4.469,0,0,1,5.067-1.763A.03.03,0,0,0,343.323,348.163Z" transform="translate(-317.367 -337.184)" fill="#263238"/>
                    <path id="Trazado_222116" data-name="Trazado 222116" d="M332.8,335.375a6.709,6.709,0,0,0-5.8-.163c-.067.037-.014.132.05.129a26.615,26.615,0,0,1,5.685.265A.121.121,0,0,0,332.8,335.375Z" transform="translate(-312.742 -331.757)" fill="#263238"/>
                    <path id="Trazado_222117" data-name="Trazado 222117" d="M334.7,337.313a6.708,6.708,0,0,0-5.8-.163c-.068.037-.014.132.05.129a26.609,26.609,0,0,1,5.684.265A.121.121,0,0,0,334.7,337.313Z" transform="translate(-313.527 -332.556)" fill="#263238"/>
                    <path id="Trazado_222118" data-name="Trazado 222118" d="M336.6,339.252a6.707,6.707,0,0,0-5.8-.164c-.067.037-.014.132.051.129a26.61,26.61,0,0,1,5.684.265A.121.121,0,0,0,336.6,339.252Z" transform="translate(-314.313 -333.356)" fill="#263238"/>
                    <path id="Trazado_222119" data-name="Trazado 222119" d="M338.509,341.19a6.708,6.708,0,0,0-5.8-.163c-.068.036-.014.132.05.128a26.6,26.6,0,0,1,5.684.265A.121.121,0,0,0,338.509,341.19Z" transform="translate(-315.098 -334.155)" fill="#263238"/>
                    <path id="Trazado_222120" data-name="Trazado 222120" d="M306.273,329.9a1.681,1.681,0,0,0-1.368,3.069A1.681,1.681,0,0,0,306.273,329.9Z" transform="translate(-303.246 -329.745)" fill="#263238"/>
                  </g>
                  <path id="Trazado_222121" data-name="Trazado 222121" d="M339.133,328.8c-.558-1.138-2-.92-2.9-.4a10.112,10.112,0,0,0-3.616,3.776.051.051,0,0,0,.032.075c-.019.143.082.316.253.284a16.808,16.808,0,0,0,4.93-1.222C338.71,330.844,339.661,329.873,339.133,328.8Zm-3.836,2.766c-.8.169-1.609.3-2.406.5a30.183,30.183,0,0,1,2.161-2.159,10.782,10.782,0,0,1,1.175-.9c.643-.409,3.028-1.1,2.344.888C338.193,330.988,336.255,331.362,335.3,331.563Z" transform="translate(-315.072 -327.539)" fill="#263238"/>
                  <path id="Trazado_222122" data-name="Trazado 222122" d="M323.791,330.557A16.844,16.844,0,0,0,328.6,332.2c.167.046.283-.117.276-.261a.051.051,0,0,0,.039-.072,10.107,10.107,0,0,0-3.28-4.072c-.845-.594-2.266-.934-2.919.151C322.1,328.969,322.96,330.018,323.791,330.557Zm-.611-1.477c-.512-2.042,1.806-1.147,2.411-.685a10.877,10.877,0,0,1,1.093.995,30.283,30.283,0,0,1,1.968,2.336c-.777-.266-1.569-.463-2.355-.7C325.361,330.744,323.462,330.205,323.18,329.08Z" transform="translate(-310.903 -327.234)" fill="#263238"/>
                </g>
              </g>
            </g>
            <g id="Grupo_110686" data-name="Grupo 110686" transform="translate(4.896)">
              <path id="Trazado_222123" data-name="Trazado 222123" d="M308.45,269.215l19.733,8.923s23.487-45.081,24.1-58.88c.523-11.744-7.653-16.277-34.082-8.68l-6.475.082v4.467c2.843.375,10.423,1.566,10.423,1.566,5.517,2.081,7.293,2.942,7.2,3.121A423.533,423.533,0,0,0,308.45,269.215Z" transform="translate(-308.45 -206.842)" fill="#455a64"/>
              <path id="Trazado_222124" data-name="Trazado 222124" d="M335.749,220.065c-.8,1.061-1.534,2.167-2.239,3.294a47.472,47.472,0,0,0-13.445-3.543q-1.949-.241-3.911-.348c-.054,0-.051.08,0,.083a58.987,58.987,0,0,1,13.681,2.6c1.229.378,2.434.817,3.645,1.249-.847,1.356-1.645,2.744-2.412,4.142a82.8,82.8,0,0,0-3.859,8.055c-.633,1.524-1.251,3.058-1.8,4.616-.016.044.057.073.076.03q3.615-8.062,7.895-15.782c.806-1.453,1.645-2.885,2.432-4.349C335.841,220.075,335.78,220.025,335.749,220.065Z" transform="translate(-311.611 -212.049)" fill="#263238"/>
              <g id="Grupo_110685" data-name="Grupo 110685" transform="translate(2.634 10.021)">
                <path id="Trazado_222125" data-name="Trazado 222125" d="M330.461,314.848c-1.15-.447-2.266-1.008-3.392-1.515s-2.259-1.016-3.389-1.522c-2.255-1.009-10.057-4.242-10.7-4.394-.04-.01-.063.053-.029.075.5.328,5.533,2.567,6.671,3.054,2.276.975,4.577,1.878,6.873,2.805.655.265,1.317.515,1.974.774s1.327.5,1.971.785C330.476,314.928,330.5,314.864,330.461,314.848Z" transform="translate(-312.932 -258.344)" fill="#263238"/>
                <path id="Trazado_222126" data-name="Trazado 222126" d="M336.19,223.929c-1.558,2.959-2.883,6.054-4.236,9.111s-2.657,6.105-3.928,9.182q-3.8,9.191-7.076,18.585c-1.24,3.541-2.4,7.109-3.529,10.687-.016.052.064.071.081.021,2.092-6.326,4.355-12.6,6.72-18.824s4.866-12.373,7.517-18.467q1.117-2.567,2.27-5.119c.768-1.7,1.568-3.393,2.287-5.116C336.325,223.917,336.227,223.859,336.19,223.929Z" transform="translate(-314.783 -223.897)" fill="#263238"/>
              </g>
            </g>
          </g>
        </g>
        <g id="Grupo_110689" data-name="Grupo 110689" transform="translate(32.731 18.192)">
          <path id="Trazado_222127" data-name="Trazado 222127" d="M293.957,191.73c.447.442,27.883.177,28.015,0,.36-.484-3.747-17.767-6.829-24.322-3.951-8.406-6.04-9.106-7.286-9.573a9.752,9.752,0,0,0-5.134-.042c-.773.348-4.053,4.274-4.973,7.394C295.9,171.452,293.569,191.341,293.957,191.73Z" transform="translate(-293.914 -157.47)" fill="#ffc727"/>
        </g>
        <g id="Grupo_110695" data-name="Grupo 110695" transform="translate(35.703 18.526)">
          <g id="Grupo_110693" data-name="Grupo 110693" transform="translate(0 0.342)">
            <path id="Trazado_222128" data-name="Trazado 222128" d="M322.361,160.47c12.111,8.5,22.734,20.5,21.88,24.431-.9,4.16-8.925,9.046-16.11,10.223-1.472.241-6.4-10.448-4.9-10.995,1.166-.427,6.48-2.126,7.1-2.882.429-.526-8.275-11.964-11.182-17.989C316.1,156.952,319.119,158.194,322.361,160.47Z" transform="translate(-306.773 -158.619)" fill="#dd6a57"/>
            <g id="Grupo_110692" data-name="Grupo 110692" transform="translate(0 25.081)">
              <g id="Grupo_110690" data-name="Grupo 110690">
                <path id="Trazado_222129" data-name="Trazado 222129" d="M318.466,201.306s-4.5.6-7.418,1.132a18.183,18.183,0,0,0-5.478,1.819c-1.642,1.145-7.78,6.982-6.4,8.5,1.252,1.374,3-.922,3-.922s-2.146,2.331-.485,3.313,3.661-2.223,3.661-2.223-2.45,2.317-.577,3.2c1.626.763,4.314-2.689,4.314-2.689s-2.839,2.15-1.25,3.095c1.756,1.044,6.437-3.626,6.437-3.626a21.3,21.3,0,0,0,8.94-.887C323.71,211.856,318.466,201.306,318.466,201.306Z" transform="translate(-298.972 -201.306)" fill="#dd6a57"/>
              </g>
              <g id="Grupo_110691" data-name="Grupo 110691" transform="translate(2.76 6.148)">
                <path id="Trazado_222130" data-name="Trazado 222130" d="M308.432,219.183c.167-.246.34-.487.507-.732a14.639,14.639,0,0,1,1.036-1.389c.37-.425.758-.832,1.159-1.229.424-.418.892-.8,1.3-1.224a.033.033,0,1,1,.046.047,15.6,15.6,0,0,0-1.162,1.326c-.371.441-.736.888-1.1,1.334s-.74.845-1.109,1.271c-.184.212-.358.433-.533.653a4.7,4.7,0,0,1-.511.618c-.019.018-.046-.008-.038-.03A3.651,3.651,0,0,1,308.432,219.183Z" transform="translate(-305.468 -212.936)" fill="#263238"/>
                <path id="Trazado_222131" data-name="Trazado 222131" d="M303.674,216.645a23.117,23.117,0,0,1,1.864-2.621,16.185,16.185,0,0,1,2.31-2.247.033.033,0,0,1,.046.047c-.692.825-1.4,1.642-2.1,2.458-.344.4-1.85,2.258-2.032,2.433C303.719,216.757,303.652,216.694,303.674,216.645Z" transform="translate(-303.67 -211.77)" fill="#263238"/>
                <path id="Trazado_222132" data-name="Trazado 222132" d="M313.388,221.605a22.753,22.753,0,0,1,1.8-2.432,20.861,20.861,0,0,1,2.36-2c.032-.019.073.021.046.048-.733.724-1.475,1.433-2.173,2.192-.34.37-1.61,1.922-1.965,2.247C313.422,221.686,313.369,221.643,313.388,221.605Z" transform="translate(-307.676 -213.996)" fill="#263238"/>
              </g>
            </g>
          </g>
          <g id="Grupo_110694" data-name="Grupo 110694" transform="translate(10.665)">
            <path id="Trazado_222133" data-name="Trazado 222133" d="M335.548,170.754l-8.812,6.129s-7.015-10.123-8.908-14.965.129-4.919,4.968-1.524S335.548,170.754,335.548,170.754Z" transform="translate(-317.125 -158.038)" fill="#ffc727"/>
            <path id="Trazado_222134" data-name="Trazado 222134" d="M339.75,177.554a73.381,73.381,0,0,1-7.33,5.3c-.031.023-.064-.029-.031-.051.669-.438,4.252-3.257,7.327-5.306C339.751,177.474,339.782,177.526,339.75,177.554Z" transform="translate(-323.415 -166.061)" fill="#263238"/>
            <path id="Trazado_222135" data-name="Trazado 222135" d="M329.487,182.473a5.06,5.06,0,0,0-.538.3c-1.058-1.695-2.193-3.409-3.266-5.094q-.789-1.238-1.578-2.477c-.545-.86-1.046-1.761-1.638-2.589a.023.023,0,0,0-.039.024c.375.827.853,1.618,1.309,2.406-.1-.119-.188-.243-.291-.358-.231-.257-.457-.515-.667-.789-.032-.042-.1,0-.071.044.2.262.38.534.559.81s.374.539.573.8.4.494.608.733l.076.089c.291.493.575.99.877,1.477,1.058,1.705,3.444,5.132,3.475,5.121a5.039,5.039,0,0,0,.638-.454C329.541,182.5,329.513,182.468,329.487,182.473Z" transform="translate(-319.312 -164.045)" fill="#263238"/>
          </g>
        </g>
        <g id="Grupo_110700" data-name="Grupo 110700" transform="translate(16.352 18.526)">
          <g id="Grupo_110698" data-name="Grupo 110698" transform="translate(0 0.267)">
            <path id="Trazado_222136" data-name="Trazado 222136" d="M286.155,160.561c-9.433,5.3-18.245,11.654-19.8,15.92-.977,2.685.491,7.444,1.656,10.3.568,1.39,13.66-4.518,12.519-5.648-2.821-2.8-3.293-3.938-3.02-4.531.174-.379,10.377-9.836,13.189-14.041C294.619,156.7,290.283,158.243,286.155,160.561Z" transform="translate(-266.037 -158.492)" fill="#dd6a57"/>
            <g id="Grupo_110697" data-name="Grupo 110697" transform="translate(1.157 19.223)">
              <path id="Trazado_222137" data-name="Trazado 222137" d="M286.78,207.478c-1.23.744-2.807-2.444-2.807-2.444a2.655,2.655,0,0,1-.687,1.668c-.772.773-2.323-.1-2.323-.1a3.272,3.272,0,0,1-1,1.644c-.814.666-2.5.01-2.5.01a2.87,2.87,0,0,1-1.794.889c-1.838.118-3.479-2.169-4.536-3.612s-2.7-6.525-3.117-7.461l9.2-6.866s6.581,5.121,7.584,6.993C285.636,199.779,288.66,206.341,286.78,207.478Z" transform="translate(-268.007 -191.208)" fill="#dd6a57"/>
              <g id="Grupo_110696" data-name="Grupo 110696" transform="translate(6.592 8.401)">
                <path id="Trazado_222138" data-name="Trazado 222138" d="M293.5,210.884a24,24,0,0,0-2.375-5.362.033.033,0,0,0-.058.033c.947,1.679,1.468,3.65,2.347,5.363A.047.047,0,0,0,293.5,210.884Z" transform="translate(-284.109 -205.506)" fill="#263238"/>
                <path id="Trazado_222139" data-name="Trazado 222139" d="M288.067,213.9a5.1,5.1,0,0,0-.62-1.181q-.372-.6-.764-1.195-.783-1.184-1.626-2.327c-.025-.033-.082,0-.058.033.519.787,1.027,1.582,1.513,2.391q.365.606.72,1.219a6.055,6.055,0,0,0,.723,1.122A.068.068,0,0,0,288.067,213.9Z" transform="translate(-281.605 -207.021)" fill="#263238"/>
                <path id="Trazado_222140" data-name="Trazado 222140" d="M282.06,217.166a3.549,3.549,0,0,0-.615-1.034q-.368-.531-.731-1.068c-.483-.714-.966-1.429-1.424-2.159-.023-.036-.082,0-.059.033.462.744.913,1.5,1.381,2.236q.345.546.7,1.088a3.339,3.339,0,0,0,.716.93A.024.024,0,0,0,282.06,217.166Z" transform="translate(-279.227 -208.551)" fill="#263238"/>
              </g>
            </g>
          </g>
          <g id="Grupo_110699" data-name="Grupo 110699" transform="translate(6.502)">
            <path id="Trazado_222141" data-name="Trazado 222141" d="M277.1,168.3l7.249,6.659s8.973-8.481,11.5-13.024.536-4.891-4.717-2.18S277.1,168.3,277.1,168.3Z" transform="translate(-277.103 -158.038)" fill="#ffc727"/>
            <path id="Trazado_222142" data-name="Trazado 222142" d="M277.1,168.3l7.249,6.659s8.973-8.481,11.5-13.024.536-4.891-4.717-2.18S277.1,168.3,277.1,168.3Z" transform="translate(-277.103 -158.038)" fill="#ffc727"/>
            <path id="Trazado_222143" data-name="Trazado 222143" d="M287.329,179.462a70.133,70.133,0,0,1-6.4-5.971c-.028-.025.018-.066.045-.039.54.553,3.89,3.432,6.4,5.967C287.408,179.448,287.362,179.487,287.329,179.462Z" transform="translate(-278.678 -164.391)" fill="#263238"/>
          </g>
          <path id="Trazado_222144" data-name="Trazado 222144" d="M300.57,167.74c-.33.764-.657,1.526-.928,2.313,0-.052,0-.1.007-.157a9.717,9.717,0,0,1,.17-1.421c.01-.052-.071-.072-.081-.02-.092.472-.172.949-.232,1.426-.029.229-.042.46-.053.69,0,.023,0,.054-.007.083l-.009.029c-.306,1.043-.488,2.108-.747,3.161a.041.041,0,0,0,.081.02c.254-1.032.635-2.036.964-3.046s.588-2.038.9-3.052C300.647,167.729,300.585,167.7,300.57,167.74Z" transform="translate(-279.504 -162.032)" fill="#263238"/>
        </g>
        <g id="Grupo_110714" data-name="Grupo 110714" transform="translate(35.547)">
          <g id="Grupo_110713" data-name="Grupo 110713">
            <g id="Grupo_110702" data-name="Grupo 110702" transform="translate(4.99 12.828)">
              <g id="Grupo_110701" data-name="Grupo 110701">
                <path id="Trazado_222145" data-name="Trazado 222145" d="M309,158.761c1.556.375,4.241-1.994,5.3-3.919.072-.132-.125-1.527-.283-3.233-.092-1.036-.171-2.192-.166-3.252,0-.217-6.653,1.586-6.653,1.586a16.89,16.89,0,0,1,.625,4.072,2.41,2.41,0,0,1-.048.435c0,.02-.008.044-.01.072C307.628,155.347,307.493,158.4,309,158.761Z" transform="translate(-307.199 -148.339)" fill="#dd6a57"/>
              </g>
              <path id="Trazado_222146" data-name="Trazado 222146" d="M313.444,148.414c-.316,1.79-1.449,6.114-5,6.179a4,4,0,0,1-.68-.039.347.347,0,0,1,.009-.073,2.725,2.725,0,0,0,.049-.434,16.9,16.9,0,0,0-.627-4.075S312,148.671,313.444,148.414Z" transform="translate(-307.199 -148.37)" fill="#263238"/>
            </g>
            <g id="Grupo_110712" data-name="Grupo 110712">
              <g id="Grupo_110703" data-name="Grupo 110703" transform="translate(1.156 1.304)">
                <path id="Trazado_222147" data-name="Trazado 222147" d="M310.808,131.482c1.168,2.169,1.286,9.089-.059,10.907-1.95,2.635-5.81,3.623-8.217,1.127-2.334-2.42-2.328-11.441-.763-13.161C304.073,127.82,309.082,128.277,310.808,131.482Z" transform="translate(-300.675 -128.725)" fill="#dd6a57"/>
              </g>
              <path id="Trazado_222148" data-name="Trazado 222148" d="M318.08,151.811v0" transform="translate(-306.697 -136.942)" fill="none" stroke="#f5a79e" stroke-linecap="round" stroke-linejoin="round" stroke-width="0"/>
              <g id="Grupo_110709" data-name="Grupo 110709" transform="translate(1.812 7.617)">
                <g id="Grupo_110704" data-name="Grupo 110704" transform="translate(4.199 2.131)">
                  <path id="Trazado_222149" data-name="Trazado 222149" d="M308.962,143.941c0-.018.037.022.036.041,0,.467.069,1,.494,1.147.013,0,.012.028,0,.026C308.974,145.093,308.883,144.382,308.962,143.941Z" transform="translate(-308.937 -143.443)" fill="#263238"/>
                  <path id="Trazado_222150" data-name="Trazado 222150" d="M309.374,143.1c.749-.073.84,1.428.147,1.5S308.746,143.16,309.374,143.1Z" transform="translate(-308.943 -143.097)" fill="#263238"/>
                </g>
                <g id="Grupo_110705" data-name="Grupo 110705" transform="translate(0.621 2.341)">
                  <path id="Trazado_222151" data-name="Trazado 222151" d="M304.241,144.236c0-.018-.035.024-.034.043.043.464.014,1-.4,1.184-.013.005-.01.029.005.026C304.325,145.385,304.356,144.668,304.241,144.236Z" transform="translate(-303.241 -143.775)" fill="#263238"/>
                  <path id="Trazado_222152" data-name="Trazado 222152" d="M303.4,143.455c-.752-.011-.719,1.493-.022,1.5S304.032,143.464,303.4,143.455Z" transform="translate(-302.848 -143.455)" fill="#263238"/>
                </g>
                <path id="Trazado_222153" data-name="Trazado 222153" d="M309.8,140.373a6.14,6.14,0,0,1-.615-.062,1,1,0,0,1-.615-.183.32.32,0,0,1-.041-.387.79.79,0,0,1,.754-.266,1.156,1.156,0,0,1,.767.33A.34.34,0,0,1,309.8,140.373Z" transform="translate(-304.551 -139.47)" fill="#263238"/>
                <path id="Trazado_222154" data-name="Trazado 222154" d="M302.21,140.926a5.709,5.709,0,0,0,.588-.192,1,1,0,0,0,.562-.309.319.319,0,0,0-.042-.387.789.789,0,0,0-.793-.1,1.16,1.16,0,0,0-.68.485A.339.339,0,0,0,302.21,140.926Z" transform="translate(-301.791 -139.639)" fill="#263238"/>
                <path id="Trazado_222155" data-name="Trazado 222155" d="M310.116,151.216c-.1.116-.207.273-.375.3a1.225,1.225,0,0,1-.507-.087.016.016,0,0,0-.019.025.629.629,0,0,0,.606.217.5.5,0,0,0,.341-.434C310.168,151.207,310.132,151.2,310.116,151.216Z" transform="translate(-304.852 -144.311)" fill="#263238"/>
                <g id="Grupo_110707" data-name="Grupo 110707" transform="translate(1.988 0.617)">
                  <g id="Grupo_110706" data-name="Grupo 110706">
                    <path id="Trazado_222156" data-name="Trazado 222156" d="M307.877,145.445a1.588,1.588,0,0,1-1.015.77,2,2,0,0,1-.568.061.553.553,0,0,1-.109-.006c-.035,0-.065,0-.1-.009a.116.116,0,0,1-.1-.1v0a.187.187,0,0,1,0-.048v0l0-.041c-.032-.358-.03-.9-.03-.9-.127.073-.776.415-.777.227a23.876,23.876,0,0,1,.323-4.832.043.043,0,0,1,.086.006c.06,1.495-.141,2.989-.1,4.492a2.776,2.776,0,0,1,.734-.273c.052.011-.022,1.057.005,1.216a.074.074,0,0,0,0,.017,2.2,2.2,0,0,0,1.609-.609C307.864,145.378,307.9,145.406,307.877,145.445Z" transform="translate(-305.174 -140.521)" fill="#263238"/>
                  </g>
                </g>
                <g id="Grupo_110708" data-name="Grupo 110708" transform="translate(3.308 5.53)">
                  <path id="Trazado_222157" data-name="Trazado 222157" d="M307.421,149.529a1.887,1.887,0,0,0,.789.538.847.847,0,0,0,.515,0c.365-.12.354-.462.268-.75a2.02,2.02,0,0,0-.194-.437A2.436,2.436,0,0,1,307.421,149.529Z" transform="translate(-307.421 -148.881)" fill="#263238"/>
                  <path id="Trazado_222158" data-name="Trazado 222158" d="M308.763,150.373a.847.847,0,0,0,.515,0c.365-.12.354-.462.268-.75A.875.875,0,0,0,308.763,150.373Z" transform="translate(-307.974 -149.187)" fill="#ff98b9"/>
                </g>
              </g>
              <path id="Trazado_222159" data-name="Trazado 222159" d="M300.461,132.535c2.448,1.284,5.269-1.431,5.269-1.431a2.48,2.48,0,0,0,2.683,1.263s.9,3.781,1.908,3.654c1.539-.192,1.4-5.476.788-6.446a2.764,2.764,0,0,0-1.944-1.078,2.534,2.534,0,0,0-1.228-1.4c-1.147-.68-4.648.834-4.648.834a3.4,3.4,0,0,0-1.078-1.145.958.958,0,0,0-1.356.288,2.292,2.292,0,0,1,.482.9c.314,1.1-.6,1.208-.715.189a1.6,1.6,0,0,1,.233-1.091c-.531-.612-1.3-.74-1.7-.331C298.417,127.487,298.425,131.469,300.461,132.535Z" transform="translate(-298.707 -126.507)" fill="#263238"/>
              <g id="Grupo_110710" data-name="Grupo 110710" transform="translate(1.237 8.346)">
                <path id="Trazado_222160" data-name="Trazado 222160" d="M302.222,145.062c-.7.05-1.327-.767-1.4-1.821s.431-1.952,1.129-2,1.326.767,1.4,1.821S302.919,145.012,302.222,145.062Zm-.255-3.568c-.556.04-.955.815-.89,1.728s.57,1.623,1.127,1.583.955-.814.89-1.727S302.523,141.455,301.967,141.495Z" transform="translate(-300.812 -140.928)" fill="#ffc727"/>
                <path id="Trazado_222161" data-name="Trazado 222161" d="M309.152,144.54A1.921,1.921,0,1,1,310.8,142.5,1.859,1.859,0,0,1,309.152,144.54Zm-.255-3.568a1.665,1.665,0,1,0,1.647,1.546A1.6,1.6,0,0,0,308.9,140.972Z" transform="translate(-303.457 -140.712)" fill="#ffc727"/>
                <path id="Trazado_222162" data-name="Trazado 222162" d="M306.259,143.634c-.981-.267-1.391.076-1.395.08l-.173-.19c.019-.019.5-.447,1.635-.137Z" transform="translate(-302.412 -141.769)" fill="#ffc727"/>
                <path id="Trazado_222163" data-name="Trazado 222163" d="M313.026,142.54l-.065-.248c.164-.043,4.014-1.042,4.438-1.1a4.685,4.685,0,0,1,1.652.511l-.11.231a4.908,4.908,0,0,0-1.49-.489l-.019,0C317.105,141.492,314.408,142.182,313.026,142.54Z" transform="translate(-305.823 -140.909)" fill="#ffc727"/>
              </g>
              <g id="Grupo_110711" data-name="Grupo 110711" transform="translate(10.901 7.674)">
                <path id="Trazado_222164" data-name="Trazado 222164" d="M317.312,141.679s1.126-2.439,2.206-2.075.505,3.709-.572,4.347a1.193,1.193,0,0,1-1.686-.348Z" transform="translate(-317.26 -139.567)" fill="#dd6a57"/>
                <path id="Trazado_222165" data-name="Trazado 222165" d="M319.751,141.255a.016.016,0,0,1,.012.03,3.016,3.016,0,0,0-1.2,2.132.658.658,0,0,1,.938-.351c.024.011.01.048-.014.047a.734.734,0,0,0-.749.395,3.529,3.529,0,0,0-.265.711c-.025.079-.163.064-.15-.024l0-.02C318.119,143.146,318.662,141.558,319.751,141.255Z" transform="translate(-317.682 -140.263)" fill="#263238"/>
              </g>
            </g>
          </g>
        </g>
        <path id="Trazado_222166" data-name="Trazado 222166" d="M315.094,159.872a30.752,30.752,0,0,1-2.237,2.649,5.084,5.084,0,0,1-2.78,1.609,2.069,2.069,0,0,1-2.549-1.3,7.766,7.766,0,0,1-.218-3.374.04.04,0,1,0-.078-.009c-.169,1.693-.312,4.311,1.243,4.829,1.739.579,3.38-.372,4.534-1.6a15.876,15.876,0,0,0,2.117-2.775C315.138,159.876,315.109,159.854,315.094,159.872Z" transform="translate(-266.634 -140.076)" fill="#263238"/>
      </g>
      <g id="Grupo_110718" data-name="Grupo 110718" transform="translate(17.581 38.676)">
        <g id="Grupo_110716" data-name="Grupo 110716" transform="translate(9.849 19.452)">
          <rect id="Rectángulo_41893" data-name="Rectángulo 41893" width="31.523" height="1.414" fill="#263238"/>
        </g>
        <g id="Grupo_110717" data-name="Grupo 110717">
          <path id="Trazado_222167" data-name="Trazado 222167" d="M301.407,213.2H270.686l-2.558-20.865h30.721Z" transform="translate(-268.128 -192.332)" fill="#263238"/>
          <path id="Trazado_222168" data-name="Trazado 222168" d="M297,208.775a1.831,1.831,0,0,1-1.837,1.87,1.91,1.91,0,0,1-1.9-1.87,1.831,1.831,0,0,1,1.837-1.87A1.91,1.91,0,0,1,297,208.775Z" transform="translate(-278.495 -198.343)" fill="#fff"/>
        </g>
      </g>
    </g>
    <g id="Calendar" transform="translate(20.592 185.826)">
      <g id="Grupo_110731" data-name="Grupo 110731">
        <g id="Grupo_110719" data-name="Grupo 110719" transform="translate(20.134 3.909)">
          <path id="Trazado_222169" data-name="Trazado 222169" d="M196.771,392.463H83.437L63.632,310.22H176.965Z" transform="translate(-63.632 -310.22)" fill="#a6a6a6"/>
        </g>
        <path id="Trazado_222170" data-name="Trazado 222170" d="M29.365,392.463H142.7L162.5,310.22H49.17Z" transform="translate(-29.365 -306.311)" fill="#dbdbdb"/>
        <g id="Grupo_110729" data-name="Grupo 110729" transform="translate(10.697 17.137)">
          <g id="Grupo_110725" data-name="Grupo 110725" transform="translate(9.246 2.225)">
            <path id="Trazado_222171" data-name="Trazado 222171" d="M160.066,336.522l-2.523,10.506-.155.647-2.614,10.907-.155.647-2.614,10.9-.155.647-2.62,10.907-.155.647-2.562,10.687H63.308l2.562-10.687.155-.647,2.62-10.907.155-.647,2.62-10.9.155-.647,2.614-10.907.155-.647,2.523-10.506Z" transform="translate(-63.308 -336.522)" fill="#fff"/>
            <path id="Trazado_222172" data-name="Trazado 222172" d="M97.147,336.522l-2.523,10.506-.155.647-2.614,10.907-.155.647-2.614,10.9-.155.647-2.62,10.907-.155.647-2.562,10.687h-.666L85.5,382.33l.155-.647,2.614-10.907.155-.647,2.614-10.9.155-.647,2.62-10.907.155-.647,2.516-10.506Z" transform="translate(-71.4 -336.522)" fill="#ebebeb"/>
            <path id="Trazado_222173" data-name="Trazado 222173" d="M117.317,336.522l-2.523,10.506-.155.647-2.613,10.907-.155.647-2.614,10.9-.155.647-2.62,10.907-.155.647-2.562,10.687H103.1l2.568-10.687.155-.647,2.614-10.907.155-.647,2.614-10.9.155-.647,2.62-10.907.155-.647,2.516-10.506Z" transform="translate(-79.719 -336.522)" fill="#ebebeb"/>
            <path id="Trazado_222174" data-name="Trazado 222174" d="M137.5,336.522l-2.523,10.506-.155.647-2.614,10.907-.155.647-2.614,10.9-.155.647-2.62,10.907-.155.647-2.562,10.687h-.666l2.568-10.687.155-.647,2.614-10.907.155-.647,2.614-10.9.155-.647,2.62-10.907.155-.647,2.516-10.506Z" transform="translate(-88.043 -336.522)" fill="#ebebeb"/>
            <path id="Trazado_222175" data-name="Trazado 222175" d="M157.669,336.522l-2.523,10.506-.155.647-2.614,10.907-.155.647-2.614,10.9-.155.647-2.62,10.907-.155.647-2.562,10.687h-.666l2.568-10.687.155-.647,2.614-10.907.155-.647,2.614-10.9.155-.647,2.62-10.907.155-.647L157,336.522Z" transform="translate(-96.362 -336.522)" fill="#ebebeb"/>
            <path id="Trazado_222176" data-name="Trazado 222176" d="M177.851,336.522l-2.523,10.506-.155.647-2.614,10.907-.155.647-2.614,10.9-.155.647-2.62,10.907-.155.647L164.3,393.017h-.666L166.2,382.33l.155-.647,2.613-10.907.155-.647,2.614-10.9.155-.647,2.62-10.907.155-.647,2.517-10.506Z" transform="translate(-104.686 -336.522)" fill="#ebebeb"/>
            <path id="Trazado_222177" data-name="Trazado 222177" d="M198.021,336.522,195.5,347.028l-.155.647-2.614,10.907-.155.647-2.613,10.9-.155.647-2.62,10.907-.155.647-2.562,10.687H183.8l2.568-10.687.155-.647,2.614-10.907.155-.647,2.614-10.9.155-.647,2.62-10.907.156-.647,2.516-10.506Z" transform="translate(-113.005 -336.522)" fill="#ebebeb"/>
            <path id="Trazado_222178" data-name="Trazado 222178" d="M165.181,354.4l-.155.647h-83.2l.155-.647Z" transform="translate(-70.946 -343.897)" fill="#ebebeb"/>
            <path id="Trazado_222179" data-name="Trazado 222179" d="M160.468,374.066l-.155.647h-83.2l.155-.647Z" transform="translate(-69.002 -352.007)" fill="#ebebeb"/>
            <path id="Trazado_222180" data-name="Trazado 222180" d="M155.751,393.72l-.155.647H72.391l.155-.647Z" transform="translate(-67.054 -360.113)" fill="#ebebeb"/>
            <path id="Trazado_222181" data-name="Trazado 222181" d="M151.028,413.384l-.155.647H67.667l.155-.647Z" transform="translate(-65.106 -368.223)" fill="#ebebeb"/>
            <g id="Grupo_110720" data-name="Grupo 110720" transform="translate(18.802 22.975)">
              <rect id="Rectángulo_41894" data-name="Rectángulo 41894" width="1.602" height="11.529" transform="translate(1.393 1.096) rotate(-38.92)" fill="#c7c7c7"/>
              <rect id="Rectángulo_41895" data-name="Rectángulo 41895" width="13.563" height="1.603" transform="translate(0 9.137) rotate(-42.351)" fill="#c7c7c7"/>
            </g>
            <g id="Grupo_110721" data-name="Grupo 110721" transform="translate(45.106 11.739)">
              <rect id="Rectángulo_41896" data-name="Rectángulo 41896" width="1.602" height="11.528" transform="translate(1.393 1.096) rotate(-38.92)" fill="#c7c7c7"/>
              <rect id="Rectángulo_41897" data-name="Rectángulo 41897" width="13.562" height="1.603" transform="translate(0 9.136) rotate(-42.35)" fill="#c7c7c7"/>
            </g>
            <path id="Trazado_222182" data-name="Trazado 222182" d="M85.955,365.854,82.894,360.5l1.391-.795L86.2,363.05l6.98-8.418,1.234,1.023Z" transform="translate(-71.386 -343.992)" fill="#ffc727"/>
            <path id="Trazado_222183" data-name="Trazado 222183" d="M111.159,423.755,108.1,418.4l1.391-.795,1.913,3.347,6.98-8.418,1.233,1.023Z" transform="translate(-81.781 -367.872)" fill="#ffc727"/>
            <path id="Trazado_222184" data-name="Trazado 222184" d="M179.993,375.953a18.876,18.876,0,0,0-4.069,3.009,7.147,7.147,0,0,0-2.351,4.2,2.746,2.746,0,0,0,.541,2.135,3.837,3.837,0,0,0,2,1.106,10.527,10.527,0,0,0,4.864-.118,10.887,10.887,0,0,0,4.415-2.063,6.034,6.034,0,0,0,1.53-1.832,3.838,3.838,0,0,0,.479-2.235,2.868,2.868,0,0,0-1.228-1.882,6.3,6.3,0,0,0-2.238-.968,10.487,10.487,0,0,0-5,.051,10.033,10.033,0,0,1,5.09-.471,6.771,6.771,0,0,1,2.464.935,3.481,3.481,0,0,1,1.576,2.22,4.247,4.247,0,0,1-.484,2.689,6.777,6.777,0,0,1-1.687,2.088,11.94,11.94,0,0,1-9.974,2.327,4.557,4.557,0,0,1-2.366-1.38,2.783,2.783,0,0,1-.613-1.3,4.617,4.617,0,0,1-.006-1.378,7.59,7.59,0,0,1,2.71-4.425A17.2,17.2,0,0,1,179.993,375.953Z" transform="translate(-108.503 -352.785)" fill="#ffc727"/>
            <g id="Grupo_110722" data-name="Grupo 110722" transform="translate(13.883 1.846)">
              <path id="Trazado_222185" data-name="Trazado 222185" d="M96.5,340.741H87.662l.249-1.078h8.834Z" transform="translate(-87.235 -339.663)" fill="#c7c7c7"/>
              <path id="Trazado_222186" data-name="Trazado 222186" d="M92.133,343.885h-5.2l.249-1.078h5.2Z" transform="translate(-86.936 -340.96)" fill="#c7c7c7"/>
            </g>
            <g id="Grupo_110723" data-name="Grupo 110723" transform="translate(52.835 35.797)">
              <path id="Trazado_222187" data-name="Trazado 222187" d="M160.056,398.525h-5.378l.249-1.078H160.3Z" transform="translate(-153.827 -397.447)" fill="#c7c7c7"/>
              <path id="Trazado_222188" data-name="Trazado 222188" d="M158.608,404.937H153.23l.249-1.078h5.378Z" transform="translate(-153.23 -400.092)" fill="#c7c7c7"/>
              <path id="Trazado_222189" data-name="Trazado 222189" d="M162.381,401.669h-8.429l.249-1.078h8.429Z" transform="translate(-153.528 -398.744)" fill="#c7c7c7"/>
            </g>
            <g id="Grupo_110724" data-name="Grupo 110724" transform="translate(67.184 27.493)">
              <path id="Trazado_222190" data-name="Trazado 222190" d="M183.756,384.391h-5.378l.249-1.078h5.378Z" transform="translate(-177.952 -383.313)" fill="#c7c7c7"/>
              <path id="Trazado_222191" data-name="Trazado 222191" d="M186.082,387.535h-8.429l.249-1.077h8.429Z" transform="translate(-177.653 -384.61)" fill="#c7c7c7"/>
            </g>
          </g>
          <g id="Grupo_110726" data-name="Grupo 110726" transform="translate(0 2.225)">
            <path id="Trazado_222192" data-name="Trazado 222192" d="M64.521,345.15l5.189-3.874a3.154,3.154,0,0,0,1.194-1.76,1.979,1.979,0,0,0-.253-1.575,1.831,1.831,0,0,0-1.568-.775,2.954,2.954,0,0,0-1.742.6l-.541.407a.294.294,0,0,1-.443-.014.324.324,0,0,1,.116-.446l.543-.42a3.811,3.811,0,0,1,2.214-.776,2.282,2.282,0,0,1,1.979.985,2.483,2.483,0,0,1,.324,2.009,3.99,3.99,0,0,1-1.5,2.233l-4.444,3.322h4.347a.249.249,0,0,1,.239.328.427.427,0,0,1-.388.316H64.614a.237.237,0,0,1-.215-.092A.371.371,0,0,1,64.521,345.15Z" transform="translate(-54.495 -336.522)" fill="#a6a6a6"/>
            <path id="Trazado_222193" data-name="Trazado 222193" d="M60.144,367.955a7.351,7.351,0,0,1,1.622-3.217,3.765,3.765,0,0,1,2.617-1.38,2.152,2.152,0,0,1,1.979,1.38,5.349,5.349,0,0,1,.15,3.217,7.417,7.417,0,0,1-1.632,3.2,3.745,3.745,0,0,1-2.619,1.393,2.139,2.139,0,0,1-1.977-1.393A5.193,5.193,0,0,1,60.144,367.955Zm.643,0a4.685,4.685,0,0,0,.117,2.85,1.657,1.657,0,0,0,1.505,1.1,2.944,2.944,0,0,0,2.014-1.1,6.578,6.578,0,0,0,1.446-2.85,4.671,4.671,0,0,0-.13-2.85,1.626,1.626,0,0,0-1.5-1.1,2.831,2.831,0,0,0-2.015,1.1A6.543,6.543,0,0,0,60.787,367.955Z" transform="translate(-52.682 -347.59)" fill="#a6a6a6"/>
            <path id="Trazado_222194" data-name="Trazado 222194" d="M52.13,398.82l5.189-3.874a3.151,3.151,0,0,0,1.195-1.76,1.983,1.983,0,0,0-.253-1.576,1.832,1.832,0,0,0-1.568-.774,2.955,2.955,0,0,0-1.742.6l-.541.407a.294.294,0,0,1-.443-.014.324.324,0,0,1,.116-.446l.543-.42a3.811,3.811,0,0,1,2.214-.776,2.28,2.28,0,0,1,1.978.985,2.483,2.483,0,0,1,.324,2.009,3.989,3.989,0,0,1-1.5,2.233L53.2,398.741h4.347a.249.249,0,0,1,.239.328.426.426,0,0,1-.388.315H52.224a.237.237,0,0,1-.215-.092A.373.373,0,0,1,52.13,398.82Z" transform="translate(-49.384 -358.658)" fill="#a6a6a6"/>
            <path id="Trazado_222195" data-name="Trazado 222195" d="M47.753,421.625a7.358,7.358,0,0,1,1.622-3.217,3.767,3.767,0,0,1,2.617-1.38,2.152,2.152,0,0,1,1.979,1.38,5.353,5.353,0,0,1,.15,3.217,7.415,7.415,0,0,1-1.633,3.2,3.747,3.747,0,0,1-2.619,1.393,2.14,2.14,0,0,1-1.977-1.393A5.193,5.193,0,0,1,47.753,421.625Zm.643,0a4.685,4.685,0,0,0,.117,2.85,1.659,1.659,0,0,0,1.505,1.1,2.946,2.946,0,0,0,2.014-1.1,6.578,6.578,0,0,0,1.446-2.85,4.671,4.671,0,0,0-.13-2.85,1.625,1.625,0,0,0-1.5-1.1,2.831,2.831,0,0,0-2.015,1.1A6.543,6.543,0,0,0,48.4,421.625Z" transform="translate(-47.572 -369.726)" fill="#a6a6a6"/>
          </g>
          <g id="Grupo_110728" data-name="Grupo 110728" transform="translate(74.432)">
            <path id="Trazado_222196" data-name="Trazado 222196" d="M207.28,332.735,203.7,348.247c-1.065,4.614-5.445,7.558-5.445,7.558h-24s4.269-5.082,5.139-8.852,3.283-14.218,3.283-14.218Z" transform="translate(-174.253 -332.735)" fill="#ffc727"/>
            <g id="Grupo_110727" data-name="Grupo 110727" transform="translate(7.274 7.48)">
              <path id="Trazado_222197" data-name="Trazado 222197" d="M192.441,345.971l-1.256,1.32a.128.128,0,0,1-.1.046h-.008a.074.074,0,0,1-.079-.046l-.647-1.316-.563,2.44a.138.138,0,0,1-.125.1.08.08,0,0,1-.083-.1l.635-2.75a.128.128,0,0,1,.061-.081s.005,0,.01-.009a.1.1,0,0,1,.139.026l.719,1.464,1.391-1.464a.117.117,0,0,1,.15-.026.136.136,0,0,1,.022.034.118.118,0,0,1,0,.055l-.635,2.75a.138.138,0,0,1-.126.1.077.077,0,0,1-.078-.1Z" transform="translate(-187.849 -345.504)"/>
              <path id="Trazado_222198" data-name="Trazado 222198" d="M195.962,345.64a.138.138,0,0,1,.126-.1h1.528a.078.078,0,0,1,.079.1.137.137,0,0,1-.127.106h-1.422l-.271,1.176h1.243a.08.08,0,0,1,.078.106.138.138,0,0,1-.126.1h-1.243l-.27,1.171h1.421a.079.079,0,0,1,.078.106.134.134,0,0,1-.125.1h-1.536a.078.078,0,0,1-.07-.1Z" transform="translate(-190.216 -345.495)"/>
              <path id="Trazado_222199" data-name="Trazado 222199" d="M200.248,345.64a.138.138,0,0,1,.126-.1H201.9a.078.078,0,0,1,.079.1.136.136,0,0,1-.126.106h-1.422l-.271,1.176H201.4a.08.08,0,0,1,.078.106.138.138,0,0,1-.125.1h-1.244l-.27,1.171h1.422a.079.079,0,0,1,.077.106.133.133,0,0,1-.125.1h-1.536a.078.078,0,0,1-.07-.1Z" transform="translate(-191.984 -345.495)"/>
              <path id="Trazado_222200" data-name="Trazado 222200" d="M205.565,345.746h-.9a.081.081,0,0,1-.078-.106.138.138,0,0,1,.126-.1h1.995a.079.079,0,0,1,.078.1.139.139,0,0,1-.126.106h-.9l-.615,2.661a.138.138,0,0,1-.125.1.079.079,0,0,1-.079-.1Z" transform="translate(-194.039 -345.495)"/>
              <path id="Trazado_222201" data-name="Trazado 222201" d="M209.268,345.64a.138.138,0,0,1,.126-.1.08.08,0,0,1,.082.1l-.639,2.767a.139.139,0,0,1-.13.1.079.079,0,0,1-.078-.1Z" transform="translate(-195.704 -345.495)"/>
              <path id="Trazado_222202" data-name="Trazado 222202" d="M211.57,345.984l-.562,2.432a.137.137,0,0,1-.125.1.079.079,0,0,1-.078-.1l.629-2.725a.13.13,0,0,1,.065-.115c.054-.029.12-.021.139.026l1.223,2.5.559-2.419a.139.139,0,0,1,.125-.1.081.081,0,0,1,.083.1l-.632,2.737a.138.138,0,0,1-.129.1.075.075,0,0,1-.072-.038s-.011-.008-.014-.017Z" transform="translate(-196.602 -345.504)"/>
              <path id="Trazado_222203" data-name="Trazado 222203" d="M217.778,347.142a.079.079,0,0,1-.083-.1.14.14,0,0,1,.13-.106h.93a.082.082,0,0,1,.069.106l-.235,1.018,0,.017a.16.16,0,0,1-.056.076,1.87,1.87,0,0,1-1.035.327,1.175,1.175,0,0,1-1.2-1.511,2.035,2.035,0,0,1,1.892-1.5,1.25,1.25,0,0,1,.886.336.105.105,0,0,1-.021.144.119.119,0,0,1-.153.017,1.05,1.05,0,0,0-.761-.289,1.752,1.752,0,0,0-1.636,1.3,1.013,1.013,0,0,0,1.036,1.3,1.614,1.614,0,0,0,.844-.254l.2-.874Z" transform="translate(-198.852 -345.465)"/>
              <path id="Trazado_222204" data-name="Trazado 222204" d="M187.247,354.522l-.477.246a.122.122,0,0,1-.055.017.078.078,0,0,1-.078-.051.118.118,0,0,1,.07-.14l.653-.348a.093.093,0,0,1,.132.038.118.118,0,0,1-.005.076l-.63,2.729a.134.134,0,0,1-.125.1.079.079,0,0,1-.079-.1Z" transform="translate(-186.633 -349.082)"/>
              <path id="Trazado_222205" data-name="Trazado 222205" d="M190.779,354.4l-.951.789a.748.748,0,0,1,.447.271.845.845,0,0,1,.128.713,1.3,1.3,0,0,1-.461.713,1.269,1.269,0,0,1-.782.3.777.777,0,0,1-.64-.3.108.108,0,0,1,.034-.149.1.1,0,0,1,.149,0,.627.627,0,0,0,.507.23,1,1,0,0,0,.618-.23,1.038,1.038,0,0,0,.364-.564.651.651,0,0,0-.1-.561.613.613,0,0,0-.506-.233.087.087,0,0,1-.075-.042h0a.114.114,0,0,1,.035-.153l.914-.76h-1.138a.081.081,0,0,1-.082-.106.14.14,0,0,1,.13-.106h1.388a.081.081,0,0,1,.082.106.106.106,0,0,1-.024.046A.14.14,0,0,1,190.779,354.4Z" transform="translate(-187.404 -349.072)"/>
              <path id="Trazado_222206" data-name="Trazado 222206" d="M194.245,355.217a.148.148,0,0,1-.126.1h-.267l-.35,1.515a.124.124,0,0,0,.118.153.089.089,0,0,1,.082.106.152.152,0,0,1-.13.1.273.273,0,0,1-.281-.361l.35-1.515h-.259c-.1,0-.09-.051-.078-.1s.023-.1.125-.1h.259l.178-.772a.148.148,0,0,1,.126-.1.087.087,0,0,1,.087.1l-.179.772h.267A.084.084,0,0,1,194.245,355.217Z" transform="translate(-189.375 -349.084)"/>
              <path id="Trazado_222207" data-name="Trazado 222207" d="M197.49,355.921a.48.48,0,0,0-.521-.611.823.823,0,0,0-.8.611l-.267,1.159,0,.013c0,.009-.007.013-.008.017s-.007.013-.012.017a.135.135,0,0,1-.075.051.02.02,0,0,1-.009,0h-.022a.092.092,0,0,1-.073-.034.1.1,0,0,1-.009-.034.087.087,0,0,1,0-.035l.267-1.159.008-.034.364-1.575a.139.139,0,0,1,.126-.1.08.08,0,0,1,.082.1l-.253,1.095a1.1,1.1,0,0,1,.729-.306.64.64,0,0,1,.681.819l-.268,1.159a.138.138,0,0,1-.129.1.079.079,0,0,1-.078-.1Z" transform="translate(-190.368 -349.072)"/>
              <path id="Trazado_222208" data-name="Trazado 222208" d="M200.471,356.7a.1.1,0,0,1,.1-.076h.9a.06.06,0,0,1,.063.076.109.109,0,0,1-.1.085h-.9C200.485,356.786,200.459,356.751,200.471,356.7Z" transform="translate(-192.339 -350.067)"/>
              <path id="Trazado_222209" data-name="Trazado 222209" d="M203.986,354.522l-.477.246a.12.12,0,0,1-.055.017.078.078,0,0,1-.077-.051.118.118,0,0,1,.07-.14l.653-.348a.092.092,0,0,1,.131.038.117.117,0,0,1,0,.076l-.63,2.729a.134.134,0,0,1-.125.1.079.079,0,0,1-.078-.1Z" transform="translate(-193.537 -349.082)"/>
              <path id="Trazado_222210" data-name="Trazado 222210" d="M205.581,355.7a2.378,2.378,0,0,1,.525-1.04,1.217,1.217,0,0,1,.845-.446.7.7,0,0,1,.64.446,1.735,1.735,0,0,1,.049,1.04,2.4,2.4,0,0,1-.528,1.035,1.212,1.212,0,0,1-.847.45.692.692,0,0,1-.639-.45A1.68,1.68,0,0,1,205.581,355.7Zm.208,0a1.522,1.522,0,0,0,.038.921.536.536,0,0,0,.487.356.951.951,0,0,0,.651-.356,2.132,2.132,0,0,0,.468-.921,1.513,1.513,0,0,0-.042-.921.525.525,0,0,0-.486-.357.916.916,0,0,0-.651.357A2.12,2.12,0,0,0,205.789,355.7Z" transform="translate(-194.424 -349.072)"/>
              <path id="Trazado_222211" data-name="Trazado 222211" d="M212.134,356.423H210.78l-.425.7a.141.141,0,0,1-.113.068c-.008,0-.025,0-.037,0a.093.093,0,0,1-.028-.136l1.667-2.755a.151.151,0,0,1,.116-.063.08.08,0,0,1,.088.063l.4,2.755a.136.136,0,0,1-.087.136c-.016,0-.026,0-.039,0a.083.083,0,0,1-.082-.068Zm-1.23-.208h1.2l-.23-1.6Z" transform="translate(-196.336 -349.081)"/>
              <path id="Trazado_222212" data-name="Trazado 222212" d="M218.016,354.645l-1.256,1.32a.13.13,0,0,1-.1.046h-.008a.075.075,0,0,1-.079-.046l-.647-1.316-.563,2.44a.137.137,0,0,1-.125.1.08.08,0,0,1-.083-.1l.635-2.75a.127.127,0,0,1,.061-.081s.005,0,.01-.009a.1.1,0,0,1,.139.025l.719,1.465,1.391-1.465a.117.117,0,0,1,.15-.025.147.147,0,0,1,.022.034.12.12,0,0,1,0,.056l-.635,2.75a.138.138,0,0,1-.126.1.078.078,0,0,1-.078-.1Z" transform="translate(-198.397 -349.081)"/>
            </g>
          </g>
        </g>
        <g id="Grupo_110730" data-name="Grupo 110730" transform="translate(20.232)">
          <path id="Trazado_222213" data-name="Trazado 222213" d="M66.912,313.1a2.981,2.981,0,0,1-2.183-1.081c-.576-.673-1.417-2.223-.568-5.038.777-2.576,2.655-3.643,4.11-3.367,1.117.213,2.346,1.347,2.136,3.84a.7.7,0,0,1-.765.646.707.707,0,0,1-.646-.765c.109-1.3-.27-2.192-.99-2.329-.808-.15-1.959.628-2.489,2.384-.485,1.607-.382,2.925.288,3.708a1.486,1.486,0,0,0,1.2.579.708.708,0,1,1,.194,1.4A2.172,2.172,0,0,1,66.912,313.1Z" transform="translate(-63.8 -303.568)" fill="#a6a6a6"/>
          <path id="Trazado_222214" data-name="Trazado 222214" d="M81.77,313.1a2.98,2.98,0,0,1-2.183-1.081c-.577-.673-1.417-2.223-.569-5.038.777-2.576,2.656-3.643,4.111-3.367,1.116.213,2.346,1.347,2.137,3.84a.708.708,0,0,1-1.412-.119c.109-1.3-.27-2.192-.991-2.329-.813-.153-1.96.629-2.488,2.384-.485,1.607-.382,2.925.288,3.708a1.489,1.489,0,0,0,1.2.579.708.708,0,1,1,.194,1.4A2.17,2.17,0,0,1,81.77,313.1Z" transform="translate(-69.928 -303.568)" fill="#a6a6a6"/>
          <path id="Trazado_222215" data-name="Trazado 222215" d="M96.629,313.1a2.98,2.98,0,0,1-2.184-1.081c-.576-.673-1.417-2.223-.568-5.038.777-2.576,2.656-3.643,4.11-3.367,1.117.213,2.346,1.347,2.137,3.84a.708.708,0,0,1-1.412-.119c.109-1.3-.27-2.192-.991-2.329-.812-.153-1.958.629-2.488,2.384-.485,1.607-.383,2.925.288,3.708a1.487,1.487,0,0,0,1.2.579.708.708,0,1,1,.194,1.4A2.17,2.17,0,0,1,96.629,313.1Z" transform="translate(-76.056 -303.568)" fill="#a6a6a6"/>
          <path id="Trazado_222216" data-name="Trazado 222216" d="M111.487,313.1a2.982,2.982,0,0,1-2.184-1.081c-.576-.673-1.417-2.223-.568-5.038.777-2.576,2.656-3.643,4.111-3.367,1.117.213,2.346,1.347,2.136,3.84a.7.7,0,0,1-.765.646.707.707,0,0,1-.646-.765c.109-1.3-.27-2.192-.99-2.329-.809-.153-1.96.628-2.489,2.384-.485,1.607-.382,2.924.288,3.708a1.489,1.489,0,0,0,1.2.579.708.708,0,1,1,.194,1.4A2.179,2.179,0,0,1,111.487,313.1Z" transform="translate(-82.184 -303.568)" fill="#a6a6a6"/>
          <path id="Trazado_222217" data-name="Trazado 222217" d="M126.346,313.1a2.981,2.981,0,0,1-2.184-1.081c-.576-.673-1.417-2.223-.568-5.038.777-2.576,2.656-3.643,4.111-3.367,1.116.213,2.346,1.347,2.136,3.84a.7.7,0,0,1-.766.646.707.707,0,0,1-.646-.765c.109-1.3-.27-2.192-.99-2.329-.809-.153-1.96.628-2.489,2.384-.485,1.607-.383,2.924.288,3.708a1.489,1.489,0,0,0,1.2.579.708.708,0,1,1,.194,1.4A2.17,2.17,0,0,1,126.346,313.1Z" transform="translate(-88.312 -303.568)" fill="#a6a6a6"/>
          <path id="Trazado_222218" data-name="Trazado 222218" d="M141.2,313.1a2.982,2.982,0,0,1-2.184-1.081c-.576-.673-1.417-2.223-.568-5.038.777-2.576,2.658-3.643,4.111-3.367,1.116.213,2.346,1.347,2.136,3.84a.7.7,0,0,1-.765.646.707.707,0,0,1-.646-.765c.109-1.3-.27-2.192-.99-2.329-.81-.153-1.96.628-2.489,2.384-.485,1.607-.382,2.924.288,3.708a1.491,1.491,0,0,0,1.2.579.708.708,0,1,1,.194,1.4A2.179,2.179,0,0,1,141.2,313.1Z" transform="translate(-94.441 -303.568)" fill="#a6a6a6"/>
          <path id="Trazado_222219" data-name="Trazado 222219" d="M156.063,313.1a2.981,2.981,0,0,1-2.184-1.081c-.576-.673-1.417-2.223-.568-5.038.777-2.576,2.658-3.643,4.11-3.367,1.117.213,2.346,1.347,2.137,3.84a.7.7,0,0,1-.766.646.707.707,0,0,1-.646-.765c.109-1.3-.27-2.192-.99-2.329-.809-.153-1.96.628-2.489,2.384-.485,1.607-.383,2.924.288,3.708a1.49,1.49,0,0,0,1.205.579.708.708,0,1,1,.194,1.4A2.169,2.169,0,0,1,156.063,313.1Z" transform="translate(-100.569 -303.568)" fill="#a6a6a6"/>
          <path id="Trazado_222220" data-name="Trazado 222220" d="M170.921,313.1a2.981,2.981,0,0,1-2.184-1.081c-.576-.673-1.417-2.223-.568-5.038.777-2.576,2.655-3.643,4.111-3.367,1.116.213,2.346,1.347,2.136,3.84a.7.7,0,0,1-.766.646.707.707,0,0,1-.646-.765c.109-1.3-.27-2.192-.991-2.329-.81-.153-1.959.628-2.489,2.384-.484,1.607-.382,2.924.288,3.708a1.491,1.491,0,0,0,1.2.579.708.708,0,1,1,.194,1.4A2.163,2.163,0,0,1,170.921,313.1Z" transform="translate(-106.697 -303.568)" fill="#a6a6a6"/>
          <path id="Trazado_222221" data-name="Trazado 222221" d="M185.779,313.1a2.98,2.98,0,0,1-2.183-1.081c-.577-.673-1.417-2.223-.568-5.038.777-2.576,2.655-3.643,4.111-3.367,1.116.213,2.346,1.347,2.136,3.84a.7.7,0,0,1-.766.646.707.707,0,0,1-.646-.765c.109-1.3-.27-2.192-.99-2.329-.81-.153-1.959.628-2.489,2.384-.485,1.607-.382,2.924.288,3.708a1.489,1.489,0,0,0,1.2.579.708.708,0,1,1,.194,1.4A2.179,2.179,0,0,1,185.779,313.1Z" transform="translate(-112.826 -303.568)" fill="#a6a6a6"/>
          <path id="Trazado_222222" data-name="Trazado 222222" d="M200.638,313.1a2.982,2.982,0,0,1-2.184-1.081c-.576-.673-1.417-2.223-.568-5.038.777-2.576,2.655-3.643,4.111-3.367,1.116.213,2.346,1.347,2.136,3.84a.7.7,0,0,1-.766.646.707.707,0,0,1-.646-.765c.109-1.3-.27-2.192-.989-2.329-.811-.153-1.96.628-2.489,2.384-.485,1.607-.383,2.924.288,3.708a1.487,1.487,0,0,0,1.2.579.708.708,0,1,1,.194,1.4A2.163,2.163,0,0,1,200.638,313.1Z" transform="translate(-118.954 -303.568)" fill="#a6a6a6"/>
          <path id="Trazado_222223" data-name="Trazado 222223" d="M215.5,313.1a2.983,2.983,0,0,1-2.184-1.081c-.576-.673-1.417-2.223-.568-5.038.777-2.576,2.655-3.643,4.11-3.367,1.117.213,2.346,1.347,2.136,3.84a.7.7,0,0,1-.765.646.707.707,0,0,1-.646-.765c.109-1.3-.27-2.192-.99-2.329-.811-.153-1.959.628-2.489,2.384-.485,1.607-.383,2.924.288,3.708a1.49,1.49,0,0,0,1.2.579.708.708,0,1,1,.194,1.4A2.172,2.172,0,0,1,215.5,313.1Z" transform="translate(-125.082 -303.568)" fill="#a6a6a6"/>
          <path id="Trazado_222224" data-name="Trazado 222224" d="M230.355,313.1a2.98,2.98,0,0,1-2.183-1.081c-.577-.673-1.417-2.223-.569-5.038.777-2.576,2.656-3.643,4.111-3.367,1.116.213,2.346,1.347,2.136,3.84a.7.7,0,0,1-.766.646.707.707,0,0,1-.646-.765c.109-1.3-.27-2.192-.99-2.329-.811-.153-1.959.628-2.489,2.384-.485,1.607-.382,2.925.288,3.708a1.488,1.488,0,0,0,1.2.579.708.708,0,1,1,.194,1.4A2.17,2.17,0,0,1,230.355,313.1Z" transform="translate(-131.21 -303.568)" fill="#a6a6a6"/>
          <path id="Trazado_222225" data-name="Trazado 222225" d="M245.213,313.1a2.98,2.98,0,0,1-2.183-1.081c-.576-.673-1.417-2.223-.568-5.038.777-2.576,2.656-3.643,4.11-3.367,1.117.213,2.346,1.347,2.136,3.84a.7.7,0,0,1-.765.646.707.707,0,0,1-.646-.765c.109-1.3-.27-2.192-.991-2.329-.808-.15-1.958.628-2.488,2.384-.485,1.607-.382,2.925.288,3.708a1.489,1.489,0,0,0,1.2.579.708.708,0,1,1,.195,1.4A2.186,2.186,0,0,1,245.213,313.1Z" transform="translate(-137.339 -303.568)" fill="#a6a6a6"/>
        </g>
      </g>
    </g>
    <g id="Plant" transform="translate(225.062 182.538)">
      <g id="Grupo_110744" data-name="Grupo 110744">
        <g id="Grupo_110739" data-name="Grupo 110739">
          <g id="Grupo_110733" data-name="Grupo 110733" transform="translate(21.537)">
            <path id="Trazado_222226" data-name="Trazado 222226" d="M414.46,318.236a45.874,45.874,0,0,1,1.066-7.5,16.689,16.689,0,0,1,2.679-6.324,8.028,8.028,0,0,1,5.251-3.272,7.334,7.334,0,0,1,5.526,1.96,26.691,26.691,0,0,1,4.735,5.79,71.024,71.024,0,0,1,4.091,7.16c.042.081-.083.149-.123.068a44.6,44.6,0,0,0-3.658-5.991,37.682,37.682,0,0,0-4.213-5.1,8.287,8.287,0,0,0-5.25-2.732,6.451,6.451,0,0,0-5.139,2.646,15.832,15.832,0,0,0-2.589,6.078,45.565,45.565,0,0,0-1.055,7.139c-.4,4.939-.511,9.907-.622,14.859q-.1,4.2-.127,8.409-.019,2.131-.035,4.261a26.183,26.183,0,0,1-.164,4.108c-.046.276-.5.249-.544-.013a24.37,24.37,0,0,1-.189-3.892q-.027-2.019-.048-4.039-.035-3.926-.029-7.852C414.038,328.75,414.1,323.477,414.46,318.236Z" transform="translate(-414.02 -299.262)" fill="#263238"/>
            <g id="Grupo_110732" data-name="Grupo 110732" transform="translate(6.441)">
              <path id="Trazado_222227" data-name="Trazado 222227" d="M426.038,313.221a11.515,11.515,0,0,1,1.53-4.3c1.43-1.944,2.974-1.1,1.546,1.054a12.858,12.858,0,0,0-2.008,5.309,20.369,20.369,0,0,0,5.3,5.124,22.879,22.879,0,0,1-.239-5.309c.558-4.242,3.123-4,2.489-.634a29.161,29.161,0,0,0-.581,6.814,14.43,14.43,0,0,0,3.1,1.519c-.167-.491-.343-1.082-.539-1.8-1.029-3.8,1.507-4.99,1.587-2.85a30.059,30.059,0,0,0,.987,5.395c1.392.467,2.545.787,3.25,1.034a11.863,11.863,0,0,1,4.756,3.25,14.974,14.974,0,0,0,3.241-4.194c-.887-.762-2.288-1.9-4.232-3.269-3.646-2.573-2.378-5.824.515-3.8a16.661,16.661,0,0,1,4.437,5.548,22.575,22.575,0,0,0,1.653-7.592c-2.864-2.688-9.946-6.434-7.811-6.434,1.921,0,6.219,2.816,7.8,3.9a20.263,20.263,0,0,0-.243-2.207c-2.7-1.768-11.461-4.518-10.065-5.309,1.535-.867,7.649,1.964,9.5,2.86a11.1,11.1,0,0,0-1.62-3.355c-3.727-4.99-10.447-6.709-13.379-5.758-2.075.673-1.469,5.937-1.914,5.758C426.764,300.626,422.973,303,426.038,313.221Zm20.431-.576c.591-.715,3.326,1.387,2.535,2.535S445.707,313.559,446.469,312.644Zm-14.293-4.49c.72.458-.343,3.117-1.454,2.311C429.779,309.78,431.452,307.692,432.176,308.155Z" transform="translate(-424.983 -297.971)" fill="#ffc727"/>
              <path id="Trazado_222228" data-name="Trazado 222228" d="M437.64,313.365c.377-.743.769-1.484,1.2-2.2a12.825,12.825,0,0,1,1.377-2c-.119-.146-.234-.295-.356-.439-.05-.058.036-.14.087-.082.14.159.273.322.408.484a.126.126,0,0,1,.058.069c.515.617,1,1.253,1.464,1.9a22.081,22.081,0,0,1,2.421.7c.817.273,1.628.558,2.422.893.083.035.042.172-.041.135-.787-.348-1.586-.685-2.4-.961-.771-.26-1.556-.461-2.339-.682.255.359.5.721.744,1.089a28.653,28.653,0,0,1,4.28,1.746c1.447.687,2.839,1.485,4.224,2.287.079.045,0,.167-.074.12a46.57,46.57,0,0,0-4.2-2.175c-1.341-.627-2.728-1.143-4.079-1.74,3.4,5.312,5.445,11.44,8.173,17.115.04.083-.089.15-.123.068-.833-1.991-1.793-3.93-2.7-5.887-.815-1.758-1.609-3.525-2.425-5.282q-.359-.772-.734-1.54a76.529,76.529,0,0,0,.554,8.527.07.07,0,1,1-.139.015c-.2-3.031-.731-6.015-.709-9.064,0-.018.012-.025.016-.039-.578-1.159-1.193-2.3-1.857-3.415a39.8,39.8,0,0,0-2.84,8.2c-.016.087-.159.048-.135-.041a40.314,40.314,0,0,1,2.854-8.36,32.23,32.23,0,0,0-2.4-3.455c-.378.706-.863,1.373-1.293,2.047s-.833,1.322-1.221,2a28.924,28.924,0,0,0-2.129,4.5c-.031.086-.17.042-.135-.04C436.238,316.352,436.9,314.833,437.64,313.365Z" transform="translate(-429.355 -302.367)" fill="#263238"/>
            </g>
          </g>
          <g id="Grupo_110735" data-name="Grupo 110735" transform="translate(0 8.413)">
            <path id="Trazado_222229" data-name="Trazado 222229" d="M397.844,326.378c1.874-2.462,4.007-5.649,7.353-6.092,3.23-.428,5.955,1.853,7.68,4.351a27.975,27.975,0,0,1,3.561,8.756,111.329,111.329,0,0,1,2.353,11.037c.336,2.062.606,4.136.833,6.213a41.308,41.308,0,0,1,.367,6.333c-.015.343-.549.427-.618.068-.331-1.73-.5-3.491-.721-5.238q-.332-2.579-.773-5.143c-.593-3.457-1.312-6.892-2.183-10.29a50.854,50.854,0,0,0-2.753-8.823c-1.166-2.518-3.1-5.319-5.914-6.115-3.846-1.088-7.011,2.266-9.064,5.015C397.911,326.525,397.79,326.451,397.844,326.378Z" transform="translate(-385.806 -315.566)" fill="#263238"/>
            <g id="Grupo_110734" data-name="Grupo 110734">
              <path id="Trazado_222230" data-name="Trazado 222230" d="M377.368,326.793v0c0,.448,0,.891.01,1.325a7.914,7.914,0,0,1,3.646-1.311c3.112-.181,2.8,2.164.729,2.164a11.785,11.785,0,0,0-4.289.648,26.434,26.434,0,0,0,1.444,7.506,59.792,59.792,0,0,0,8.23-.643c-.691-1.678-2.34-3.941-1.439-4.075.924-.138,1.787,1.854,2.183,3.96a39.068,39.068,0,0,0,6.028-1.353c-1.306-1.244-3.341-2.812-2.507-3.4s2.407,1.559,3.336,3.108a11.967,11.967,0,0,0,2.64-1.311c-1.706-2.783-6.152-3.545-5.476-5.466.692-1.959,4.733.982,6.439,4.68a10.68,10.68,0,0,0,3.017-8.169c-1.911-.314-5.628-.086-5.294-1.454.314-1.3,2.992-.977,5.142-.066a7.685,7.685,0,0,0-1.139-3.1c-1.9-2.7-8.24.314-8.24.314s.958-6.181-1.349-7.368a7.055,7.055,0,0,0-6.2.51c1.344.176,2.955.682,3.565,1.649.781,1.234-.572,1.821-1.387,1.23a6.721,6.721,0,0,0-3.608-1.959,12.267,12.267,0,0,0-2.349,2.364c-.243.31-.472.638-.7,1a8.5,8.5,0,0,1,7.23.476c2.616,1.458.987,4.17-1.268,2.978-2.23-1.177-4.4-2.359-6.872-1.863a17.313,17.313,0,0,0-1.506,6.872,12.126,12.126,0,0,1,4.06-1.716c2.7-.572,3.427,1.058.487,1.216A11.72,11.72,0,0,0,377.368,326.793Zm3.446-4.122c-.143-.873,1.759-1.029,2.039-.315C383.087,322.966,380.952,323.542,380.814,322.67Zm15.937,5.552c.2-.462,1.439.133,1.3.715C397.851,329.714,396.555,328.684,396.751,328.222Zm-9.07,2.6c.939-.324,2.269,2.035,1.239,2.512S386.914,331.091,387.681,330.824Z" transform="translate(-377.366 -312.29)" fill="#ffc727"/>
              <path id="Trazado_222231" data-name="Trazado 222231" d="M377.368,326.793v0c0,.448,0,.891.01,1.325a7.914,7.914,0,0,1,3.646-1.311c3.112-.181,2.8,2.164.729,2.164a11.785,11.785,0,0,0-4.289.648,26.434,26.434,0,0,0,1.444,7.506,59.792,59.792,0,0,0,8.23-.643c-.691-1.678-2.34-3.941-1.439-4.075.924-.138,1.787,1.854,2.183,3.96a39.068,39.068,0,0,0,6.028-1.353c-1.306-1.244-3.341-2.812-2.507-3.4s2.407,1.559,3.336,3.108a11.967,11.967,0,0,0,2.64-1.311c-1.706-2.783-6.152-3.545-5.476-5.466.692-1.959,4.733.982,6.439,4.68a10.68,10.68,0,0,0,3.017-8.169c-1.911-.314-5.628-.086-5.294-1.454.314-1.3,2.992-.977,5.142-.066a7.685,7.685,0,0,0-1.139-3.1c-1.9-2.7-8.24.314-8.24.314s.958-6.181-1.349-7.368a7.055,7.055,0,0,0-6.2.51c1.344.176,2.955.682,3.565,1.649.781,1.234-.572,1.821-1.387,1.23a6.721,6.721,0,0,0-3.608-1.959,12.267,12.267,0,0,0-2.349,2.364c-.243.31-.472.638-.7,1a8.5,8.5,0,0,1,7.23.476c2.616,1.458.987,4.17-1.268,2.978-2.23-1.177-4.4-2.359-6.872-1.863a17.313,17.313,0,0,0-1.506,6.872,12.126,12.126,0,0,1,4.06-1.716c2.7-.572,3.427,1.058.487,1.216A11.72,11.72,0,0,0,377.368,326.793Zm3.446-4.122c-.143-.873,1.759-1.029,2.039-.315C383.087,322.966,380.952,323.542,380.814,322.67Zm15.937,5.552c.2-.462,1.439.133,1.3.715C397.851,329.714,396.555,328.684,396.751,328.222Zm-9.07,2.6c.939-.324,2.269,2.035,1.239,2.512S386.914,331.091,387.681,330.824Z" transform="translate(-377.366 -312.29)" opacity="0.1"/>
              <path id="Trazado_222232" data-name="Trazado 222232" d="M380.635,342.351c1.5-2.255,2.984-4.524,4.55-6.733q1.095-1.544,2.277-3.021c-.11-.028-.22-.066-.327-.094q-.272-.072-.548-.133c-.423-.094-.85-.176-1.279-.241-.4-.061-.809-.1-1.216-.126a6.1,6.1,0,0,0-1.306.006c-.053.009-.057-.074-.008-.069.432.038.879,0,1.314.016s.844.046,1.264.09c.395.043.786.1,1.176.18.214.043.429.092.642.145a3.878,3.878,0,0,1,.386.1q1.2-1.5,2.485-2.928a27.841,27.841,0,0,0-7.485-2.789c-.045-.009-.024-.077.021-.068a25.808,25.808,0,0,1,7.6,2.706q.705-.784,1.417-1.563c.531-.58,1.1-1.144,1.582-1.764.032-.041.09.009.054.044a26.573,26.573,0,0,0-1.865,2.073s.008,0,.012,0a26.722,26.722,0,0,1,2.717,2.4q1.326,1.294,2.58,2.663c.031.033-.02.082-.051.049-.825-.9-1.683-1.766-2.585-2.591s-1.854-1.587-2.76-2.4c0,0,0-.01-.007-.015-.229.275-.458.549-.687.82-.116.136-.231.274-.347.411a.092.092,0,0,1-.025.029q-.576.68-1.146,1.364a11.3,11.3,0,0,1,.981,1.987c.28.67.518,1.36.736,2.052a29.488,29.488,0,0,1,.95,4.4c.007.045-.062.062-.068.017a25.491,25.491,0,0,0-1.061-4.324c-.236-.723-.51-1.43-.794-2.135-.259-.642-.579-1.261-.818-1.91q-.5.6-.986,1.2c-.095.117-.185.238-.279.356.012.028,0,.063-.033.063l-.014,0c-1.018,1.286-1.991,2.606-2.94,3.944a1.251,1.251,0,0,1,.107.307q.073.256.135.514a10.373,10.373,0,0,1,.193,1.045q.065.5.091.995a9.115,9.115,0,0,0,.029,1.128.035.035,0,1,1-.068,0,3.679,3.679,0,0,0-.027-1.052q-.05-.541-.149-1.077c-.06-.323-.13-.645-.21-.962q-.06-.24-.13-.476c-.025-.083-.06-.172-.084-.261q-.666.943-1.32,1.9c-.861,1.26-1.715,2.524-2.575,3.785C380.694,342.477,380.592,342.416,380.635,342.351Z" transform="translate(-378.71 -317.966)" fill="#263238"/>
            </g>
          </g>
          <g id="Grupo_110738" data-name="Grupo 110738" transform="translate(21.368 25.756)">
            <path id="Trazado_222233" data-name="Trazado 222233" d="M413.733,362.6c.032-1.153.214-2.314.338-3.461s.256-2.3.378-3.456a52.406,52.406,0,0,1,.892-6.668,9.7,9.7,0,0,1,2.713-4.987,4.425,4.425,0,0,1,2.66-1.27,4.587,4.587,0,0,1,2.825.871,9.836,9.836,0,0,1,2.375,2.5,24.376,24.376,0,0,1,1.853,3.008c.021.04-.042.064-.063.027a15.384,15.384,0,0,0-4.007-4.491,4.726,4.726,0,0,0-2.527-1.052,3.421,3.421,0,0,0-2.449.977,9.2,9.2,0,0,0-2.587,4.576,46.506,46.506,0,0,0-1,6.16c-.163,1.22-.318,2.441-.48,3.661s-.261,2.458-.519,3.656A.2.2,0,0,1,413.733,362.6Z" transform="translate(-413.733 -342.199)" fill="#263238"/>
            <g id="Grupo_110737" data-name="Grupo 110737" transform="translate(4.202)">
              <path id="Trazado_222234" data-name="Trazado 222234" d="M422.355,353.257a6.465,6.465,0,0,0,1.254,1.281c-.19-1.126-.42-3.125.149-4.189.882-1.653,1.926-.828,1.4.609a11.654,11.654,0,0,0-.85,4.075,17.72,17.72,0,0,0,3.831,1.807,6.44,6.44,0,0,1-.126-1.972c.176-1.767,1.529-1.734,1.177.1a11.271,11.271,0,0,0-.185,2.159,39.8,39.8,0,0,0,5.97,1.346,17.446,17.446,0,0,0,2.471-4.4c-1.439-.36-4.351-.442-4.289-1.47.083-1.383,2.9-.318,4.555.685a11.009,11.009,0,0,0,.5-3.722,18.517,18.517,0,0,0-3.967-.657c-2.962-.256-2.817-1.935-.67-1.9a11.759,11.759,0,0,1,4.536,1.5c-.617-4.029-3.691-6.611-6.155-6.709-4.143-.167-2.652,4.988-2.652,4.988s-2.807-1.975-5.456-1.923S419.522,349.316,422.355,353.257ZM433.42,345.8c-.092-.579,1.757-.719,1.853.025C435.383,346.664,433.514,346.395,433.42,345.8Zm2.975,6.048c-.038-.379.76-.445.941.032C437.456,352.2,436.427,352.227,436.395,351.853Zm-9.947.353c.625.088.979,2.321-.1,2.277C425.532,354.447,425.918,352.13,426.447,352.206Z" transform="translate(-420.884 -341.807)" fill="#ffc727"/>
              <g id="Grupo_110736" data-name="Grupo 110736" transform="translate(6.423 5.196)">
                <path id="Trazado_222235" data-name="Trazado 222235" d="M431.82,363.132c.1-.277.2-.56.283-.844-.081.287-.152.575-.206.865A.04.04,0,1,1,431.82,363.132Z" transform="translate(-431.817 -355.451)" fill="#263238"/>
                <path id="Trazado_222236" data-name="Trazado 222236" d="M433.156,354.744c.194-.572.412-1.138.635-1.7.119-.3.242-.6.374-.893a3.642,3.642,0,0,1,.369-.748,5.647,5.647,0,0,1-.336-.723.022.022,0,0,1,.038-.022,8.632,8.632,0,0,1,.807,1.252c.116.2.225.394.338.59a5.818,5.818,0,0,1,.7.109q.373.068.743.151t.738.172c.244.059.487.14.734.177.058.009.034.1-.021.077a4.733,4.733,0,0,0-.776-.2c-.238-.052-.476-.093-.717-.128s-.482-.065-.724-.089c-.181-.018-.365-.028-.548-.045.1.174.2.346.3.521l.044.084a2.3,2.3,0,0,1,.6.07c.214.039.428.079.64.126.432.1.863.2,1.289.317.9.25,1.782.536,2.666.825.049.016.018.091-.031.075a25.735,25.735,0,0,0-2.678-.743c-.424-.1-.848-.193-1.273-.281-.213-.044-.425-.091-.638-.136a4.04,4.04,0,0,1-.5-.109c.456.843.885,1.7,1.28,2.571.859,1.9,1.583,3.859,2.319,5.81.019.049-.056.08-.073.032a53.257,53.257,0,0,0-2.468-5.681c-.165-.337-.336-.672-.5-1.008-.014.068-.031.137-.043.206q-.064.345-.123.692c-.078.462-.156.924-.225,1.388a16.312,16.312,0,0,0-.334,2.879c0,.06-.089.056-.08,0,.075-.459.075-.938.1-1.4.03-.484.066-.969.122-1.452.054-.465.113-.93.19-1.392.039-.232.079-.462.122-.693a1.386,1.386,0,0,1,.13-.5c-.243-.487-.483-.975-.729-1.46q-.345-.683-.7-1.361c-.1-.191-.209-.384-.315-.579a5.471,5.471,0,0,1-.275.7q-.159.392-.32.784c-.237.578-.458,1.162-.679,1.746-.313.828-.659,1.677-.917,2.54C432.658,356.441,432.872,355.579,433.156,354.744Z" transform="translate(-432.059 -350.651)" fill="#263238"/>
                <path id="Trazado_222237" data-name="Trazado 222237" d="M432.3,362.147c.019-.067.04-.133.06-.2C432.343,362.014,432.324,362.08,432.3,362.147Z" transform="translate(-432.017 -355.31)" fill="#263238"/>
              </g>
            </g>
          </g>
        </g>
        <g id="Grupo_110743" data-name="Grupo 110743" transform="translate(9.868 43.49)">
          <g id="Grupo_110740" data-name="Grupo 110740" transform="translate(2.022 3.01)">
            <path id="Trazado_222238" data-name="Trazado 222238" d="M397.6,377.112l.506,7.444,1.3,19.186h28.44l1.3-19.186.506-7.444Z" transform="translate(-397.603 -377.112)" fill="#37474f"/>
            <path id="Trazado_222239" data-name="Trazado 222239" d="M397.6,377.112l.506,7.444h31.04l.506-7.444Z" transform="translate(-397.603 -377.112)" fill="#263238"/>
          </g>
          <rect id="Rectángulo_41898" data-name="Rectángulo 41898" width="36.095" height="6.019" transform="translate(36.095 6.019) rotate(180)" fill="#37474f"/>
          <g id="Grupo_110741" data-name="Grupo 110741" transform="translate(24.973 29.64)">
            <rect id="Rectángulo_41899" data-name="Rectángulo 41899" width="4.993" height="3.151" fill="#37474f"/>
            <rect id="Rectángulo_41900" data-name="Rectángulo 41900" width="4.993" height="1.575" fill="#263238"/>
          </g>
          <g id="Grupo_110742" data-name="Grupo 110742" transform="translate(6.13 29.64)">
            <rect id="Rectángulo_41901" data-name="Rectángulo 41901" width="4.988" height="3.151" fill="#37474f"/>
            <rect id="Rectángulo_41902" data-name="Rectángulo 41902" width="4.988" height="1.575" fill="#263238"/>
          </g>
        </g>
      </g>
    </g>
    <g id="Speech_bubble" data-name="Speech bubble" transform="translate(197.979 60.1)">
      <g id="Grupo_110746" data-name="Grupo 110746">
        <g id="Grupo_110745" data-name="Grupo 110745">
          <path id="Trazado_222240" data-name="Trazado 222240" d="M363.724,105.886a14.559,14.559,0,0,1-24.332,9.211l-7.286,1.07,3.645-6.3a14.564,14.564,0,1,1,27.972-3.982Z" transform="translate(-331.615 -89.676)" fill="#fff"/>
          <path id="Trazado_222241" data-name="Trazado 222241" d="M363.379,105.8a14.663,14.663,0,0,1-2.94,7.383,13.146,13.146,0,0,1-2.857,2.82,14.355,14.355,0,0,1-3.513,1.956,14.538,14.538,0,0,1-3.921.935,14.363,14.363,0,0,1-2.023.038,12.756,12.756,0,0,1-2.015-.21,14.692,14.692,0,0,1-7.205-3.557l.172.053-7.278,1.118-.528.081.267-.465,3.623-6.312-.016.249a14.724,14.724,0,0,1,.9-12.98,14.9,14.9,0,0,1,4.561-4.857,14.816,14.816,0,0,1,12.8-1.724,14.883,14.883,0,0,1,5.616,3.444A14.65,14.65,0,0,1,363.379,105.8Zm0,0a14.406,14.406,0,0,0-16.516-15.761,14.313,14.313,0,0,0-6.014,2.376,14.993,14.993,0,0,0-4.357,4.753,14.366,14.366,0,0,0-1.848,6.162,14.55,14.55,0,0,0,1.025,6.344l.053.13-.069.119-3.667,6.286-.261-.384,7.293-1.021.1-.014.072.067a14.344,14.344,0,0,0,6.974,3.592,12.544,12.544,0,0,0,1.976.24,14.191,14.191,0,0,0,1.993,0,14.355,14.355,0,0,0,3.889-.857,13.537,13.537,0,0,0,3.513-1.893,13.1,13.1,0,0,0,2.863-2.789A14.633,14.633,0,0,0,363.379,105.8Z" transform="translate(-331.271 -89.586)" fill="#263238"/>
        </g>
        <path id="Trazado_222242" data-name="Trazado 222242" d="M354,117.136l-6.22-6.3,2.09-2.064,3.634,3.678,7.549-11.835,2.477,1.58Z" transform="translate(-338.079 -94.136)" fill="#ffc727"/>
      </g>
    </g>
  </g>
</svg>
