<svg xmlns="http://www.w3.org/2000/svg" width="295" height="242.715" viewBox="0 0 295 242.715">
  <g id="Grupo_112509" data-name="Grupo 112509" transform="translate(-22.852 -63.309)">
    <g id="Background_Complete" data-name="Background Complete" transform="translate(31.846 94.78)">
      <g id="Grupo_112382" data-name="Grupo 112382" transform="translate(43.083)">
        <g id="Grupo_112379" data-name="Grupo 112379">
          <rect id="Rectángulo_42031" data-name="Rectángulo 42031" width="242.924" height="161.947" rx="11.091" fill="#f5f5f5"/>
        </g>
        <g id="Grupo_112380" data-name="Grupo 112380" transform="translate(3.957 3.957)">
          <rect id="Rectángulo_42032" data-name="Rectángulo 42032" width="234.351" height="153.595" rx="11.091" fill="#e0e0e0"/>
        </g>
        <g id="Grupo_112381" data-name="Grupo 112381" transform="translate(7.485 51.236)">
          <rect id="Rectángulo_42033" data-name="Rectángulo 42033" width="225.297" height="84.851" fill="#fff"/>
        </g>
      </g>
      <g id="Grupo_112386" data-name="Grupo 112386" transform="translate(0 49.298)">
        <g id="Grupo_112383" data-name="Grupo 112383">
          <rect id="Rectángulo_42034" data-name="Rectángulo 42034" width="242.924" height="161.947" rx="11.091" fill="#f5f5f5"/>
        </g>
        <g id="Grupo_112384" data-name="Grupo 112384" transform="translate(3.957 3.957)">
          <rect id="Rectángulo_42035" data-name="Rectángulo 42035" width="234.351" height="153.595" rx="11.091" fill="#e0e0e0"/>
        </g>
        <g id="Grupo_112385" data-name="Grupo 112385" transform="translate(7.485 51.236)">
          <rect id="Rectángulo_42036" data-name="Rectángulo 42036" width="225.297" height="84.851" fill="#fff"/>
        </g>
      </g>
    </g>
    <g id="Plant" transform="translate(220.242 63.309)">
      <g id="Grupo_112411" data-name="Grupo 112411" transform="translate(11.408)">
        <g id="Grupo_112390" data-name="Grupo 112390">
          <g id="Grupo_112389" data-name="Grupo 112389">
            <g id="Grupo_112388" data-name="Grupo 112388">
              <g id="Grupo_112387" data-name="Grupo 112387">
                <path id="Trazado_222989" data-name="Trazado 222989" d="M357.667,124.523s.2.058.586.187.964.309,1.733.5a20.379,20.379,0,0,0,6.88.49,27.764,27.764,0,0,0,4.91-.946,31.169,31.169,0,0,0,5.555-2.123,34.343,34.343,0,0,0,11.18-9.083A10.57,10.57,0,0,0,390.5,110a5.454,5.454,0,0,0-.317-4.107,4.515,4.515,0,0,0-3.6-2.18,8.282,8.282,0,0,0-4.46.864,16.051,16.051,0,0,1-2.254.875,4.435,4.435,0,0,1-2.484.011,2.653,2.653,0,0,1-1.849-1.7,3.1,3.1,0,0,1,.42-2.525,4.727,4.727,0,0,1,1.958-1.708,19.093,19.093,0,0,1,2.424-.957,32.87,32.87,0,0,0,9.289-5.1,10.733,10.733,0,0,0,1.965-1.865,3.835,3.835,0,0,0,.953-2.435,2.545,2.545,0,0,0-1.407-2.1,6.117,6.117,0,0,0-2.666-.664,15.666,15.666,0,0,1-2.88-.306,3.239,3.239,0,0,1-2.3-1.838,1.753,1.753,0,0,1,.146-1.544,3.8,3.8,0,0,1,1.107-1.043c.8-.557,1.587-1.14,2.351-1.759a38.549,38.549,0,0,0,4.307-4.083,19.027,19.027,0,0,0,3.449-4.875,5.953,5.953,0,0,0,.527-2.9,4.389,4.389,0,0,0-1.2-2.648,5.848,5.848,0,0,0-5.472-1.62,9.58,9.58,0,0,0-4.979,3.079c-2.67,2.978-3.915,6.848-6.087,10.1a16.313,16.313,0,0,1-1.815,2.292,5.258,5.258,0,0,1-1.134.953,1.532,1.532,0,0,1-1.522.1,1.893,1.893,0,0,1-.836-1.264,5.282,5.282,0,0,1-.054-1.456,3.958,3.958,0,0,0-.093-1.348,2.413,2.413,0,0,0-.684-1.108,3.368,3.368,0,0,0-2.432-.879,3.82,3.82,0,0,0-2.349,1.092,6,6,0,0,0-1.45,2.2,9.806,9.806,0,0,0-.567,2.579c-.152,1.758-.079,3.529-.107,5.264q-.01,2.606-.019,5.141a16.279,16.279,0,0,1-.42,5,2.918,2.918,0,0,1-1.675,1.827,3.6,3.6,0,0,1-2.444-.086,9.666,9.666,0,0,1-3.827-2.724,10.358,10.358,0,0,1-1.3-1.892,19.814,19.814,0,0,0-1.086-1.929,3.086,3.086,0,0,0-1.614-1.278,2.84,2.84,0,0,0-1.994.2,4.037,4.037,0,0,0-1.548,1.282,4.63,4.63,0,0,0-.762,1.827,28.762,28.762,0,0,0-.229,3.918c-.051,1.28-.057,2.527-.038,3.74a47.173,47.173,0,0,0,.612,6.815A33.492,33.492,0,0,0,349.483,113c.268.877.648,1.669.955,2.445.373.745.7,1.472,1.085,2.118a22.108,22.108,0,0,0,4.289,5.407,7.871,7.871,0,0,0,.792.684l.59.474c.317.256.474.395.474.395s-.171-.12-.494-.367l-.6-.463a7.575,7.575,0,0,1-.8-.673,21.734,21.734,0,0,1-4.356-5.392c-.391-.647-.725-1.375-1.1-2.123-.313-.778-.7-1.573-.973-2.453a33.447,33.447,0,0,1-1.469-5.795,47.134,47.134,0,0,1-.641-6.842c-.023-1.217-.021-2.469.026-3.753a28.781,28.781,0,0,1,.221-3.956,4.861,4.861,0,0,1,.8-1.923,4.276,4.276,0,0,1,1.64-1.364,3.084,3.084,0,0,1,2.171-.219,3.337,3.337,0,0,1,1.753,1.372,19.82,19.82,0,0,1,1.107,1.952,10.02,10.02,0,0,0,1.276,1.841,9.4,9.4,0,0,0,3.716,2.638,3.324,3.324,0,0,0,2.253.085,2.631,2.631,0,0,0,1.506-1.661,16.132,16.132,0,0,0,.395-4.9q.006-2.535.012-5.141c.026-1.738-.05-3.5.1-5.294a10.084,10.084,0,0,1,.583-2.662,6.319,6.319,0,0,1,1.525-2.314,4.133,4.133,0,0,1,2.548-1.18,3.684,3.684,0,0,1,2.669.964,2.74,2.74,0,0,1,.773,1.251A4.273,4.273,0,0,1,372.4,77.6a5,5,0,0,0,.047,1.369,1.578,1.578,0,0,0,.678,1.053,1.208,1.208,0,0,0,1.2-.1,4.993,4.993,0,0,0,1.059-.9,16.014,16.014,0,0,0,1.776-2.247c2.143-3.2,3.384-7.082,6.114-10.137a9.9,9.9,0,0,1,5.158-3.183,6.182,6.182,0,0,1,5.786,1.719,4.729,4.729,0,0,1,1.293,2.846,6.277,6.277,0,0,1-.552,3.058,19.33,19.33,0,0,1-3.51,4.968,38.761,38.761,0,0,1-4.346,4.116c-.769.624-1.564,1.213-2.369,1.772a3.512,3.512,0,0,0-1.016.946,1.421,1.421,0,0,0-.118,1.257,2.922,2.922,0,0,0,2.07,1.635,15.435,15.435,0,0,0,2.82.3,6.441,6.441,0,0,1,2.8.706,3.278,3.278,0,0,1,1.1.975,2.677,2.677,0,0,1,.467,1.4,4.132,4.132,0,0,1-1.022,2.645,11.018,11.018,0,0,1-2.02,1.918,33.161,33.161,0,0,1-9.383,5.14,18.859,18.859,0,0,0-2.388.937,4.434,4.434,0,0,0-1.844,1.6,2.814,2.814,0,0,0-.394,2.284,2.363,2.363,0,0,0,1.655,1.512,4.147,4.147,0,0,0,2.327-.01,15.723,15.723,0,0,0,2.215-.856,8.552,8.552,0,0,1,4.6-.877,5.5,5.5,0,0,1,2.2.7,4.3,4.3,0,0,1,1.591,1.621,5.7,5.7,0,0,1,.329,4.3A10.8,10.8,0,0,1,388.7,113.7a34.445,34.445,0,0,1-11.282,9.1,31.224,31.224,0,0,1-5.6,2.109,27.607,27.607,0,0,1-4.942.922,20.075,20.075,0,0,1-6.907-.555,18.039,18.039,0,0,1-1.728-.534C357.859,124.6,357.667,124.523,357.667,124.523Z" transform="translate(-347.208 -63.309)" fill="#263238"/>
              </g>
            </g>
          </g>
        </g>
        <g id="Grupo_112394" data-name="Grupo 112394" transform="translate(9.946 1.644)">
          <g id="Grupo_112393" data-name="Grupo 112393">
            <g id="Grupo_112392" data-name="Grupo 112392">
              <g id="Grupo_112391" data-name="Grupo 112391">
                <path id="Trazado_222990" data-name="Trazado 222990" d="M398.277,65.864a1.2,1.2,0,0,1-.169.162l-.515.451c-.454.394-1.125.976-1.967,1.748a64.666,64.666,0,0,0-6.639,7.033c-1.3,1.583-2.642,3.376-4.054,5.328s-2.9,4.053-4.386,6.317a77.877,77.877,0,0,0-4.314,7.315c-.676,1.309-1.28,2.68-1.9,4.078s-1.235,2.816-1.866,4.251a158.1,158.1,0,0,0-6.287,16.5,76.829,76.829,0,0,0-3,14.093,56.27,56.27,0,0,0-.252,9.718c.079,1.146.159,2.036.234,2.637.03.288.055.515.073.685a1.372,1.372,0,0,1,.015.236,1.257,1.257,0,0,1-.047-.23c-.025-.169-.06-.395-.1-.682-.1-.6-.2-1.488-.294-2.636a53.82,53.82,0,0,1,.153-9.751,75.573,75.573,0,0,1,2.944-14.156,154.271,154.271,0,0,1,6.275-16.544l1.868-4.252c.616-1.394,1.227-2.777,1.908-4.092a77.022,77.022,0,0,1,4.348-7.334c1.5-2.266,3-4.362,4.416-6.311s2.784-3.737,4.094-5.315a61.06,61.06,0,0,1,6.729-6.981c.856-.76,1.539-1.326,2.008-1.7l.535-.427A1.324,1.324,0,0,1,398.277,65.864Z" transform="translate(-362.659 -65.864)" fill="#263238"/>
              </g>
            </g>
          </g>
        </g>
        <g id="Grupo_112398" data-name="Grupo 112398" transform="translate(20.994 10.887)">
          <g id="Grupo_112397" data-name="Grupo 112397">
            <g id="Grupo_112396" data-name="Grupo 112396">
              <g id="Grupo_112395" data-name="Grupo 112395">
                <path id="Trazado_222991" data-name="Trazado 222991" d="M382.164,99.177a3.505,3.505,0,0,1-.161-.735c-.086-.476-.188-1.17-.3-2.028-.227-1.716-.46-4.1-.707-6.72s-.513-5-.766-6.7c-.124-.854-.231-1.544-.312-2.02a3.457,3.457,0,0,1-.089-.748,3.4,3.4,0,0,1,.21.723c.118.47.259,1.156.411,2.008.311,1.7.613,4.08.861,6.709.237,2.59.451,4.934.615,6.725.079.809.147,1.49.2,2.037A3.44,3.44,0,0,1,382.164,99.177Z" transform="translate(-379.821 -80.222)" fill="#263238"/>
              </g>
            </g>
          </g>
        </g>
        <g id="Grupo_112402" data-name="Grupo 112402" transform="translate(23.336 25.886)">
          <g id="Grupo_112401" data-name="Grupo 112401">
            <g id="Grupo_112400" data-name="Grupo 112400">
              <g id="Grupo_112399" data-name="Grupo 112399">
                <path id="Trazado_222992" data-name="Trazado 222992" d="M405.622,103.55a4.8,4.8,0,0,1-.883.1c-.568.045-1.391.106-2.4.214-2.028.2-4.821.574-7.883,1.121s-5.813,1.172-7.788,1.677c-.991.245-1.786.465-2.338.615a4.664,4.664,0,0,1-.865.2,4.786,4.786,0,0,1,.83-.323c.541-.185,1.331-.44,2.316-.714,1.967-.563,4.719-1.219,7.791-1.773a77.945,77.945,0,0,1,7.919-1.032c1.02-.079,1.846-.106,2.419-.113A4.645,4.645,0,0,1,405.622,103.55Z" transform="translate(-383.46 -103.522)" fill="#263238"/>
              </g>
            </g>
          </g>
        </g>
        <g id="Grupo_112406" data-name="Grupo 112406" transform="translate(2.593 25.977)">
          <g id="Grupo_112405" data-name="Grupo 112405">
            <g id="Grupo_112404" data-name="Grupo 112404">
              <g id="Grupo_112403" data-name="Grupo 112403">
                <path id="Trazado_222993" data-name="Trazado 222993" d="M362.114,132.022a1.1,1.1,0,0,1-.149-.271l-.371-.8c-.319-.7-.754-1.723-1.275-3-1.044-2.545-2.375-6.1-3.791-10.053s-2.713-7.517-3.7-10.08c-.485-1.246-.884-2.27-1.18-3.032-.127-.33-.231-.6-.317-.827a.156.156,0,1,1,.059-.025l.371.8c.319.7.754,1.724,1.275,3,1.044,2.544,2.375,6.1,3.791,10.054s2.713,7.516,3.7,10.079c.485,1.245.884,2.27,1.181,3.031l.317.827A1.2,1.2,0,0,1,362.114,132.022Z" transform="translate(-351.236 -103.663)" fill="#263238"/>
              </g>
            </g>
          </g>
        </g>
        <g id="Grupo_112410" data-name="Grupo 112410" transform="translate(13.47 45.133)">
          <g id="Grupo_112409" data-name="Grupo 112409">
            <g id="Grupo_112408" data-name="Grupo 112408">
              <g id="Grupo_112407" data-name="Grupo 112407">
                <path id="Trazado_222994" data-name="Trazado 222994" d="M397.621,133.423a1.172,1.172,0,0,1-.293.118l-.856.278-3.158.991c-2.666.837-6.335,2.036-10.387,3.366s-7.738,2.5-10.422,3.279c-1.342.391-2.431.7-3.188.893l-.872.22a1.141,1.141,0,0,1-.31.055,1.225,1.225,0,0,1,.293-.118l.856-.277,3.158-.991c2.666-.837,6.336-2.036,10.389-3.367s7.736-2.5,10.42-3.279c1.342-.391,2.431-.7,3.188-.894l.873-.22A1.2,1.2,0,0,1,397.621,133.423Z" transform="translate(-368.134 -133.421)" fill="#263238"/>
              </g>
            </g>
          </g>
        </g>
      </g>
      <g id="Grupo_112427" data-name="Grupo 112427" transform="translate(0 21.941)">
        <g id="Grupo_112413" data-name="Grupo 112413" transform="translate(4.123)">
          <g id="Grupo_112412" data-name="Grupo 112412">
            <path id="Trazado_222995" data-name="Trazado 222995" d="M338.049,97.394a7.227,7.227,0,0,1,5.016,2.623,12.76,12.76,0,0,1,2.52,5.19c.939,3.635.306,7.91-.759,11.509-3.914-1.437-6.3-5.645-7.375-7.855-1.7-3.494-2.652-10.84.6-11.467" transform="translate(-335.892 -97.394)" fill="#fd8f25"/>
          </g>
        </g>
        <g id="Grupo_112415" data-name="Grupo 112415" transform="translate(17.717 13.419)">
          <g id="Grupo_112414" data-name="Grupo 112414">
            <path id="Trazado_222996" data-name="Trazado 222996" d="M357.961,128.586a6.167,6.167,0,0,1-.236-6.188,8.19,8.19,0,0,1,4.966-3.922,3.448,3.448,0,0,1,2.9.164,2.638,2.638,0,0,1,.995,2.482,5.361,5.361,0,0,1-1.151,2.528c-1.931,2.568-4.271,4.7-7.476,4.937" transform="translate(-357.008 -118.239)" fill="#fd8f25"/>
          </g>
        </g>
        <g id="Grupo_112418" data-name="Grupo 112418" transform="translate(17.921 17.784)">
          <g id="Grupo_112417" data-name="Grupo 112417">
            <g id="Grupo_112416" data-name="Grupo 112416">
              <path id="Trazado_222997" data-name="Trazado 222997" d="M358.4,143.124a4.28,4.28,0,0,1-.169-.755c-.1-.538-.23-1.234-.386-2.07a21.651,21.651,0,0,1-.37-6.945,13.261,13.261,0,0,1,2.63-6.412,9.021,9.021,0,0,1,1.5-1.492,5.4,5.4,0,0,1,.47-.332c.111-.071.171-.1.176-.1a14.011,14.011,0,0,0-2,2.039,13.678,13.678,0,0,0-2.512,6.332,23.309,23.309,0,0,0,.29,6.875c.133.879.24,1.591.3,2.085A4.092,4.092,0,0,1,358.4,143.124Z" transform="translate(-357.325 -125.02)" fill="#263238"/>
            </g>
          </g>
        </g>
        <g id="Grupo_112421" data-name="Grupo 112421" transform="translate(7.499 5.531)">
          <g id="Grupo_112420" data-name="Grupo 112420">
            <g id="Grupo_112419" data-name="Grupo 112419">
              <path id="Trazado_222998" data-name="Trazado 222998" d="M341.136,105.986a1.569,1.569,0,0,1,.155.3l.4.877c.341.763.819,1.875,1.4,3.254,1.159,2.756,2.707,6.587,4.321,10.855s2.986,8.168,3.94,11c.478,1.417.854,2.567,1.1,3.365l.283.921a.169.169,0,1,1-.052.017c-.085-.234-.2-.533-.331-.9l-1.185-3.336c-1-2.817-2.4-6.7-4.013-10.969s-3.131-8.105-4.245-10.879l-1.318-3.286-.35-.9A1.55,1.55,0,0,1,341.136,105.986Z" transform="translate(-341.135 -105.986)" fill="#263238"/>
            </g>
          </g>
        </g>
        <g id="Grupo_112423" data-name="Grupo 112423" transform="translate(0 20.756)">
          <g id="Grupo_112422" data-name="Grupo 112422">
            <path id="Trazado_222999" data-name="Trazado 222999" d="M343.892,136.711a14.427,14.427,0,0,0-11.136-7.052c-1.159-.094-2.558.089-3.084,1.127s.156,2.281.939,3.144a12.326,12.326,0,0,0,13.322,3.094" transform="translate(-329.486 -129.637)" fill="#fd8f25"/>
          </g>
        </g>
        <g id="Grupo_112426" data-name="Grupo 112426" transform="translate(5.011 23.891)">
          <g id="Grupo_112425" data-name="Grupo 112425">
            <g id="Grupo_112424" data-name="Grupo 112424">
              <path id="Trazado_223000" data-name="Trazado 223000" d="M337.27,134.516a3.724,3.724,0,0,1,.727.033,6.869,6.869,0,0,1,.846.106c.327.064.707.1,1.11.218a12.572,12.572,0,0,1,1.32.379,14.082,14.082,0,0,1,1.47.573,16.033,16.033,0,0,1,3.091,1.869,15.747,15.747,0,0,1,2.547,2.563,13.806,13.806,0,0,1,.893,1.3,11.73,11.73,0,0,1,.662,1.2,10.737,10.737,0,0,1,.453,1.037,6.474,6.474,0,0,1,.281.806,3.687,3.687,0,0,1,.183.7c-.058.02-.328-.985-1.089-2.46a12.381,12.381,0,0,0-.682-1.17,14.381,14.381,0,0,0-.9-1.266,16.312,16.312,0,0,0-2.518-2.5,16.685,16.685,0,0,0-3.028-1.855,14.979,14.979,0,0,0-1.438-.588c-.454-.179-.894-.291-1.293-.406C338.3,134.639,337.264,134.576,337.27,134.516Z" transform="translate(-337.27 -134.508)" fill="#263238"/>
            </g>
          </g>
        </g>
      </g>
    </g>
    <g id="Card" transform="translate(56.73 117.958)">
      <g id="Grupo_112432" data-name="Grupo 112432">
        <g id="Grupo_112428" data-name="Grupo 112428">
          <rect id="Rectángulo_42037" data-name="Rectángulo 42037" width="242.924" height="161.947" rx="11.091" fill="#f5f5f5"/>
        </g>
        <g id="Grupo_112429" data-name="Grupo 112429" transform="translate(3.957 3.957)">
          <rect id="Rectángulo_42038" data-name="Rectángulo 42038" width="234.351" height="153.595" rx="11.091" fill="#bbabf5"/>
        </g>
        <g id="Grupo_112430" data-name="Grupo 112430" transform="translate(7.485 51.236)">
          <rect id="Rectángulo_42039" data-name="Rectángulo 42039" width="225.297" height="84.851" fill="#fff"/>
        </g>
        <g id="Grupo_112431" data-name="Grupo 112431" transform="translate(113.051 21.863)">
          <path id="Trazado_223001" data-name="Trazado 223001" d="M265.666,182.59v15.883H261.99v-6.512h-7.216v6.512H251.1V182.59h3.676v6.262h7.216V182.59Z" transform="translate(-251.099 -182.317)" fill="#fff"/>
          <path id="Trazado_223002" data-name="Trazado 223002" d="M291.883,195.523v2.95h-12.3V182.59h12v2.95h-8.35v3.449h7.374v2.859h-7.374v3.676Z" transform="translate(-261.248 -182.317)" fill="#fff"/>
          <path id="Trazado_223003" data-name="Trazado 223003" d="M303.24,182.59h3.676v12.887h7.964v3H303.24Z" transform="translate(-269.675 -182.317)" fill="#fff"/>
          <path id="Trazado_223004" data-name="Trazado 223004" d="M324.534,182.59h3.676v12.887h7.964v3h-11.64Z" transform="translate(-277.262 -182.317)" fill="#fff"/>
          <path id="Trazado_223005" data-name="Trazado 223005" d="M343.855,190.38c0-4.719,3.676-8.214,8.69-8.214,4.991,0,8.69,3.472,8.69,8.214s-3.7,8.214-8.69,8.214C347.531,198.594,343.855,195.1,343.855,190.38Zm13.659,0a4.97,4.97,0,1,0-4.968,5.083A4.845,4.845,0,0,0,357.514,190.38Z" transform="translate(-284.145 -182.166)" fill="#fff"/>
        </g>
      </g>
    </g>
    <g id="Character" transform="translate(22.852 76.951)">
      <g id="Grupo_112508" data-name="Grupo 112508" transform="translate(0 0)">
        <g id="Grupo_112436" data-name="Grupo 112436" transform="translate(0 58.222)">
          <g id="Grupo_112433" data-name="Grupo 112433">
            <path id="Trazado_223006" data-name="Trazado 223006" d="M55.189,240.1,44.243,260.237l.9-48.894a17.159,17.159,0,0,1,3.032-8.654,18.13,18.13,0,0,1,2.633-3.142,18.954,18.954,0,0,1,4.187-2.933c1.46-.576,1.505-2.606.144-2.957s-5.421,1.14-8.965,4.768-2.741-4.218-2.5-7.082.574-11.747-.249-12.5c-1.206-1.1-2.641.019-2.815,2.883-.177,2.9-1.3,11.429-2.811,11.268-1.484-.158-.056-14.723-.056-14.723s.809-3.077-.925-3.321c-3.127-.441-3.505,15.124-3.5,16.606,0,1.031-1.645.914-1.586-.193.061-1.139,1.763-14.5-1.416-14.983-2.44-.368-.431,12.8-2.323,15.421s-.5-10.17-2.849-10.425c-.874-.095-1.542-.044-1.282,7.386.141,3.993,1.9,9.967,1.607,17.679l-.074,2h0c-1.845,14.453-10.148,90.1,18.487,88.079,0,0,21.738-3.021,33.819-42.581Z" transform="translate(-22.852 -174.945)" fill="#ffbe9d"/>
          </g>
          <g id="Grupo_112435" data-name="Grupo 112435" transform="translate(7.829 26.1)">
            <g id="Grupo_112434" data-name="Grupo 112434">
              <path id="Trazado_223007" data-name="Trazado 223007" d="M35.014,217.6c-.011.071.481.133,1.2.5a4.5,4.5,0,0,1,2.118,2.332l.221.572.254-.564a7.466,7.466,0,0,1,1.485-2.145,8.48,8.48,0,0,1,4.417-2.37c1.291-.264,2.126-.118,2.136-.222a4.032,4.032,0,0,0-2.2-.163,8.077,8.077,0,0,0-4.751,2.37,7.412,7.412,0,0,0-1.561,2.326l.474.008a4.5,4.5,0,0,0-2.465-2.429A2.176,2.176,0,0,0,35.014,217.6Z" transform="translate(-35.014 -215.49)" fill="#eb996e"/>
            </g>
          </g>
        </g>
        <g id="Grupo_112437" data-name="Grupo 112437" transform="translate(145.605 132.782)">
          <path id="Trazado_223008" data-name="Trazado 223008" d="M266.464,290.77,278.64,313.7l11.115,21.381H264.619l-15.578-32.1" transform="translate(-249.041 -290.77)" fill="#ffbe9d"/>
        </g>
        <g id="Grupo_112456" data-name="Grupo 112456" transform="translate(22.526 80.122)">
          <g id="Grupo_112441" data-name="Grupo 112441" transform="translate(0)">
            <g id="Grupo_112440" data-name="Grupo 112440">
              <g id="Grupo_112439" data-name="Grupo 112439">
                <g id="Grupo_112438" data-name="Grupo 112438">
                  <path id="Trazado_223009" data-name="Trazado 223009" d="M103,305.938c2.393-8.154.824-9.445-1.755-17.542l-5.534-17.374L83.6,288.919h0L57.846,268.24h0l8.547-19.269c15.954-36.163,41.824-33.6,41.824-33.6l32.982-6.292s21.1-1.961,34.77,10.464c4.452,4.046,24.686,40.466,24.686,40.466L175.79,277.431l-6.094-10.4-1.685,14.109c-1.331,7.705-1.245,17.55,1.688,24.8" transform="translate(-57.846 -208.967)" fill="#455a64"/>
                </g>
              </g>
            </g>
          </g>
          <g id="Grupo_112443" data-name="Grupo 112443" transform="translate(17.911 18.675)">
            <g id="Grupo_112442" data-name="Grupo 112442">
              <path id="Trazado_223010" data-name="Trazado 223010" d="M110.045,237.982c.019.091-5.423,1.287-12.154,2.671s-12.2,2.435-12.223,2.344,5.422-1.287,12.155-2.672S110.026,237.891,110.045,237.982Z" transform="translate(-85.669 -237.976)" fill="#fafafa"/>
            </g>
          </g>
          <g id="Grupo_112445" data-name="Grupo 112445" transform="translate(90.885 8.271)">
            <g id="Grupo_112444" data-name="Grupo 112444">
              <path id="Trazado_223011" data-name="Trazado 223011" d="M222.966,221.821c.017.091-5.328,1.154-11.937,2.373s-11.982,2.134-12,2.043,5.327-1.154,11.938-2.373S222.949,221.73,222.966,221.821Z" transform="translate(-199.031 -221.814)" fill="#fafafa"/>
            </g>
          </g>
          <g id="Grupo_112447" data-name="Grupo 112447" transform="translate(87.799 20.042)">
            <g id="Grupo_112446" data-name="Grupo 112446">
              <path id="Trazado_223012" data-name="Trazado 223012" d="M231.394,240.1c.02.09-8.284,1.956-18.543,4.165s-18.6,3.929-18.615,3.838,8.282-1.955,18.545-4.166S231.375,240.013,231.394,240.1Z" transform="translate(-194.236 -240.101)" fill="#fafafa"/>
            </g>
          </g>
          <g id="Grupo_112449" data-name="Grupo 112449" transform="translate(0 38.193)">
            <g id="Grupo_112448" data-name="Grupo 112448">
              <path id="Trazado_223013" data-name="Trazado 223013" d="M192.994,268.3s-.116.03-.346.073l-1.021.181-3.93.662-14.466,2.372-47.752,7.655c-18.659,2.955-35.556,5.588-47.8,7.433-6.12.922-11.075,1.649-14.5,2.12-1.715.236-3.048.407-3.954.508a4.643,4.643,0,0,1-1.38.077,8.242,8.242,0,0,0,1.372-.144l3.943-.57,14.487-2.225,47.779-7.53,47.767-7.557,14.483-2.267,3.94-.6,1.026-.148C192.874,268.3,192.994,268.3,192.994,268.3Z" transform="translate(-57.846 -268.297)" fill="#fafafa"/>
            </g>
          </g>
          <g id="Grupo_112451" data-name="Grupo 112451" transform="translate(42.288 66.375)">
            <g id="Grupo_112450" data-name="Grupo 112450">
              <path id="Trazado_223014" data-name="Trazado 223014" d="M192.107,312.079c.012.092-15.329,2.167-34.262,4.634s-34.3,4.393-34.308,4.3,15.327-2.166,34.265-4.634S192.1,311.988,192.107,312.079Z" transform="translate(-123.537 -312.076)" fill="#fafafa"/>
            </g>
          </g>
          <g id="Grupo_112453" data-name="Grupo 112453" transform="translate(46.642 90.043)">
            <g id="Grupo_112452" data-name="Grupo 112452">
              <path id="Trazado_223015" data-name="Trazado 223015" d="M191.588,349.28c0,.093-13.722.084-30.643-.018S130.3,349,130.3,348.908s13.719-.084,30.646.019S191.589,349.188,191.588,349.28Z" transform="translate(-130.301 -348.844)" fill="#fafafa"/>
            </g>
          </g>
          <g id="Grupo_112455" data-name="Grupo 112455" transform="translate(8.046 33.583)">
            <g id="Grupo_112454" data-name="Grupo 112454">
              <path id="Trazado_223016" data-name="Trazado 223016" d="M114.017,261.14a2.3,2.3,0,0,1-.442.1l-1.278.212-4.7.746c-3.97.633-9.448,1.548-15.478,2.673s-11.47,2.254-15.4,3.1l-4.655,1-1.268.263a2.254,2.254,0,0,1-.447.07,2.336,2.336,0,0,1,.432-.135l1.254-.324c1.09-.277,2.673-.656,4.633-1.107,3.92-.9,9.356-2.066,15.392-3.195s11.522-2,15.5-2.578c1.99-.287,3.6-.505,4.72-.641l1.287-.15A2.356,2.356,0,0,1,114.017,261.14Z" transform="translate(-70.344 -261.135)" fill="#fafafa"/>
            </g>
          </g>
        </g>
        <g id="Grupo_112507" data-name="Grupo 112507" transform="translate(35.241)">
          <g id="Grupo_112457" data-name="Grupo 112457" transform="translate(55.772 9.832)">
            <path id="Trazado_223017" data-name="Trazado 223017" d="M175.788,99.774c-.793,9.537,11.989,16.311,10.852,25.814-.316,2.639-1.685,5.506-.293,7.77,1.678,2.729,5.75,2.153,8.728,3.332,3.661,1.448,5.536,5.854,4.977,9.751s-3.078,7.265-6.039,9.859a29.6,29.6,0,0,1-16.74,7.187,15.446,15.446,0,0,1-8.43-1.262,8.092,8.092,0,0,1-4.608-6.8" transform="translate(-164.236 -99.774)" fill="#263238"/>
          </g>
          <g id="Grupo_112494" data-name="Grupo 112494">
            <g id="Grupo_112492" data-name="Grupo 112492">
              <g id="Grupo_112489" data-name="Grupo 112489" transform="translate(23.829 7.098)">
                <g id="Grupo_112488" data-name="Grupo 112488">
                  <g id="Grupo_112482" data-name="Grupo 112482">
                    <g id="Grupo_112459" data-name="Grupo 112459">
                      <g id="Grupo_112458" data-name="Grupo 112458">
                        <path id="Trazado_223018" data-name="Trazado 223018" d="M159.369,174.109c-1.7-8.14-3.337-16.74-3.337-16.74s10.11-3.96,9.385-18.093c-.692-13.478-9.22-43.133-9.22-43.133h0a40.165,40.165,0,0,0-41.583,19.275h0L129.5,181.3c1.728,7.649,9.68,12.254,17.856,10.342h0C155.611,189.711,160.988,181.864,159.369,174.109Z" transform="translate(-114.614 -95.527)" fill="#ffbe9d"/>
                      </g>
                    </g>
                    <g id="Grupo_112465" data-name="Grupo 112465" transform="translate(37.689 21.968)">
                      <g id="Grupo_112461" data-name="Grupo 112461" transform="translate(1.49 1.727)">
                        <g id="Grupo_112460" data-name="Grupo 112460">
                          <path id="Trazado_223019" data-name="Trazado 223019" d="M178.986,133.6a1.793,1.793,0,0,1-1.316,2.128,1.714,1.714,0,0,1-2.142-1.2,1.793,1.793,0,0,1,1.314-2.128A1.716,1.716,0,0,1,178.986,133.6Z" transform="translate(-175.478 -132.334)" fill="#263238"/>
                        </g>
                      </g>
                      <g id="Grupo_112464" data-name="Grupo 112464">
                        <g id="Grupo_112463" data-name="Grupo 112463">
                          <g id="Grupo_112462" data-name="Grupo 112462">
                            <path id="Trazado_223020" data-name="Trazado 223020" d="M180.118,130.877c-.169.274-1.706-.427-3.591-.023-1.889.377-3.069,1.642-3.322,1.454-.122-.08.012-.54.522-1.107a4.914,4.914,0,0,1,2.6-1.446,4.725,4.725,0,0,1,2.919.3C179.919,130.38,180.2,130.752,180.118,130.877Z" transform="translate(-173.162 -129.652)" fill="#263238"/>
                          </g>
                        </g>
                      </g>
                    </g>
                    <g id="Grupo_112471" data-name="Grupo 112471" transform="translate(18.413 26.366)">
                      <g id="Grupo_112467" data-name="Grupo 112467" transform="translate(1.521 1.753)">
                        <g id="Grupo_112466" data-name="Grupo 112466">
                          <path id="Trazado_223021" data-name="Trazado 223021" d="M149.089,140.472a1.792,1.792,0,0,1-1.316,2.127,1.714,1.714,0,0,1-2.142-1.2,1.794,1.794,0,0,1,1.314-2.128A1.716,1.716,0,0,1,149.089,140.472Z" transform="translate(-145.581 -139.208)" fill="#263238"/>
                        </g>
                      </g>
                      <g id="Grupo_112470" data-name="Grupo 112470">
                        <g id="Grupo_112469" data-name="Grupo 112469">
                          <g id="Grupo_112468" data-name="Grupo 112468">
                            <path id="Trazado_223022" data-name="Trazado 223022" d="M150.175,137.709c-.169.275-1.708-.426-3.592-.022-1.889.377-3.069,1.642-3.322,1.454-.122-.081.01-.54.522-1.107a4.917,4.917,0,0,1,2.6-1.446,4.724,4.724,0,0,1,2.92.3C149.974,137.213,150.259,137.584,150.175,137.709Z" transform="translate(-143.218 -136.485)" fill="#263238"/>
                          </g>
                        </g>
                      </g>
                    </g>
                    <g id="Grupo_112474" data-name="Grupo 112474" transform="translate(31.179 24.249)">
                      <g id="Grupo_112473" data-name="Grupo 112473">
                        <g id="Grupo_112472" data-name="Grupo 112472">
                          <path id="Trazado_223023" data-name="Trazado 223023" d="M167.254,148.737a12.778,12.778,0,0,1,2.948-1.2c.471-.152.907-.344.919-.69a2.507,2.507,0,0,0-.624-1.36q-1.05-1.6-2.2-3.367c-3.085-4.8-5.427-8.8-5.233-8.919s2.853,3.672,5.938,8.477q1.124,1.781,2.147,3.4a2.846,2.846,0,0,1,.651,1.838,1.234,1.234,0,0,1-.643.872,3.321,3.321,0,0,1-.794.287A12.537,12.537,0,0,1,167.254,148.737Z" transform="translate(-163.049 -133.197)" fill="#263238"/>
                        </g>
                      </g>
                    </g>
                    <g id="Grupo_112476" data-name="Grupo 112476" transform="translate(22.073 60.837)">
                      <g id="Grupo_112475" data-name="Grupo 112475">
                        <path id="Trazado_223024" data-name="Trazado 223024" d="M168.248,191.039a35.559,35.559,0,0,1-19.345-1s6.432,8.451,19.845,4.272Z" transform="translate(-148.903 -190.034)" fill="#eb996e"/>
                      </g>
                    </g>
                    <g id="Grupo_112478" data-name="Grupo 112478" transform="translate(30.126 43.714)">
                      <g id="Grupo_112477" data-name="Grupo 112477">
                        <path id="Trazado_223025" data-name="Trazado 223025" d="M166.837,164.226a3.475,3.475,0,0,0-3.316-.617,3.171,3.171,0,0,0-1.9,1.6,2.01,2.01,0,0,0,.327,2.281,2.333,2.333,0,0,0,2.606.1,7.308,7.308,0,0,0,2.107-1.951,2.151,2.151,0,0,0,.421-.672.646.646,0,0,0-.152-.7" transform="translate(-161.413 -163.434)" fill="#e8505b"/>
                      </g>
                    </g>
                    <g id="Grupo_112481" data-name="Grupo 112481" transform="translate(29.951 42.269)">
                      <g id="Grupo_112480" data-name="Grupo 112480">
                        <g id="Grupo_112479" data-name="Grupo 112479">
                          <path id="Trazado_223026" data-name="Trazado 223026" d="M161.3,161.192c.3-.082.741,1.965,2.8,3.047s4.194.4,4.271.678c.056.122-.4.5-1.318.721a5.217,5.217,0,0,1-3.54-.45,4.542,4.542,0,0,1-2.218-2.583C161.034,161.765,161.155,161.21,161.3,161.192Z" transform="translate(-161.142 -161.189)" fill="#263238"/>
                        </g>
                      </g>
                    </g>
                  </g>
                  <g id="Grupo_112484" data-name="Grupo 112484" transform="translate(1.166 33.908)">
                    <g id="Grupo_112483" data-name="Grupo 112483">
                      <path id="Trazado_223027" data-name="Trazado 223027" d="M123.477,148.2a8.343,8.343,0,0,0-4.342,1.214,5.818,5.818,0,0,0-2.6,3.606,6.079,6.079,0,0,0,.888,4.379,10.292,10.292,0,0,0,3.27,3.149,6.98,6.98,0,0,0,3.027,1.2,3.33,3.33,0,0,0,2.945-1.118" transform="translate(-116.425 -148.201)" fill="#ffbe9d"/>
                    </g>
                  </g>
                  <g id="Grupo_112487" data-name="Grupo 112487" transform="translate(4.199 36.221)">
                    <g id="Grupo_112486" data-name="Grupo 112486">
                      <g id="Grupo_112485" data-name="Grupo 112485">
                        <path id="Trazado_223028" data-name="Trazado 223028" d="M126.225,158.516c.178.019-.27,1.038-1.683.961a2.942,2.942,0,0,1-1.958-1.092,6.649,6.649,0,0,1-1.242-2.272,3.9,3.9,0,0,1,.073-2.7,2.6,2.6,0,0,1,1.681-1.542c1.368-.322,2,.541,1.846.6-.086.135-.724-.243-1.578.164a2.521,2.521,0,0,0-.926,3.147c.482,1.47,1.352,2.724,2.225,2.9C125.587,158.924,126.107,158.414,126.225,158.516Z" transform="translate(-121.137 -151.795)" fill="#eb996e"/>
                      </g>
                    </g>
                  </g>
                </g>
              </g>
              <g id="Grupo_112490" data-name="Grupo 112490">
                <path id="Trazado_223029" data-name="Trazado 223029" d="M139.018,89.2a10.156,10.156,0,0,1-2.088,11.992c-3.271,2.945-8,3.363-12.231,4.594s-8.745,4.339-8.553,8.737c.117,2.665,2,5.221,1.325,7.8-.8,3.015-4.65,4.307-5.737,7.23-1.746,4.7,4.643,8.924,4.361,13.926-.167,2.968-2.679,5.387-2.958,8.347-.4,4.21,3.732,8.681,1.436,12.232-1.761,2.724-5.866,2.335-8.885,1.147s-6.3-2.87-9.324-1.687c-1.816.712-3.1,2.334-4.716,3.425a9.022,9.022,0,0,1-13.906-9.157c.485-2.57,2.044-4.78,3.3-7.074s2.254-4.982,1.5-7.485c-.581-1.92-2.089-3.385-3.286-4.995s-2.133-3.729-1.363-5.58c1.352-3.246,6.536-2.968,8.416-5.94,2.585-4.085-3.4-9.286-1.866-13.87,1.736-5.19,10.944-4.265,12.693-9.45.638-1.891-.023-3.967.177-5.953.456-4.532,5.212-7.432,9.7-8.213s9.171-.2,13.575-1.359c2.413-.637,4.661-1.779,7.031-2.559a11.24,11.24,0,0,1,7.337-.316c2.34.867,4.221,3.32,3.75,5.771" transform="translate(-77.597 -84.501)" fill="#263238"/>
              </g>
              <g id="Grupo_112491" data-name="Grupo 112491" transform="translate(55.514 1.556)">
                <path id="Trazado_223030" data-name="Trazado 223030" d="M167.709,99.731a17.037,17.037,0,0,0,12.475,8.34,41.437,41.437,0,0,0-1.2-10.242,16.3,16.3,0,0,0-5.41-8.6,10.247,10.247,0,0,0-9.737-1.725" transform="translate(-163.835 -86.919)" fill="#263238"/>
              </g>
            </g>
            <g id="Grupo_112493" data-name="Grupo 112493" transform="translate(27.645 79.578)">
              <path id="Trazado_223031" data-name="Trazado 223031" d="M168.861,209.08c1.166.156,7.677,38.364-17.331,42.61-23.671,4.018-30.989-35.242-30.989-35.242S136.483,204.754,168.861,209.08Z" transform="translate(-120.542 -208.12)" fill="#ffbe9d"/>
            </g>
          </g>
          <g id="Grupo_112496" data-name="Grupo 112496" transform="translate(61.621 26.767)">
            <g id="Grupo_112495" data-name="Grupo 112495">
              <path id="Trazado_223032" data-name="Trazado 223032" d="M173.335,127.534c.147.279,1.433-.136,3.034-.311,1.6-.2,2.946-.092,3.024-.4.091-.28-1.318-.919-3.152-.7S173.182,127.283,173.335,127.534Z" transform="translate(-173.322 -126.082)" fill="#263238"/>
            </g>
          </g>
          <g id="Grupo_112498" data-name="Grupo 112498" transform="translate(42.105 28.876)">
            <g id="Grupo_112497" data-name="Grupo 112497">
              <path id="Trazado_223033" data-name="Trazado 223033" d="M143.422,131.661c.054-.047.048-.16-.016-.329l-.017.285a13.263,13.263,0,0,1,2.907-1.065c1.781-.391,3.281.039,3.405-.255.056-.132-.269-.436-.927-.675a5.112,5.112,0,0,0-2.7-.152,4.45,4.45,0,0,0-2.963,1.844l-.111.235.094.051C143.256,131.686,143.367,131.709,143.422,131.661Z" transform="translate(-143.004 -129.359)" fill="#263238"/>
            </g>
          </g>
          <g id="Grupo_112500" data-name="Grupo 112500" transform="translate(23.028 29.152)">
            <g id="Grupo_112499" data-name="Grupo 112499">
              <path id="Trazado_223034" data-name="Trazado 223034" d="M122.059,130.7a28.591,28.591,0,0,1-4.361-.276,28.632,28.632,0,0,1-4.328-.61,28.566,28.566,0,0,1,4.363.277A28.6,28.6,0,0,1,122.059,130.7Z" transform="translate(-113.369 -129.787)" fill="#e8505b"/>
            </g>
          </g>
          <g id="Grupo_112502" data-name="Grupo 112502" transform="translate(23.032 32.124)">
            <g id="Grupo_112501" data-name="Grupo 112501">
              <path id="Trazado_223035" data-name="Trazado 223035" d="M119.938,134.785a15.418,15.418,0,0,1-6.562-.355c.017-.1,1.475.1,3.28.2S119.932,134.687,119.938,134.785Z" transform="translate(-113.376 -134.404)" fill="#e8505b"/>
            </g>
          </g>
          <g id="Grupo_112504" data-name="Grupo 112504" transform="translate(27.817 12.495)">
            <g id="Grupo_112503" data-name="Grupo 112503">
              <path id="Trazado_223036" data-name="Trazado 223036" d="M154.621,103.912a1.949,1.949,0,0,1-.13.4,3.694,3.694,0,0,1-.651,1.015,6.219,6.219,0,0,1-3.993,1.768,11.922,11.922,0,0,1-3.058-.057c-1.087-.134-2.236-.335-3.45-.425a8.619,8.619,0,0,0-3.727.406,7.577,7.577,0,0,0-3.116,2.5c-.877,1.095-1.619,2.272-2.491,3.3a10.252,10.252,0,0,1-1.421,1.4,7.2,7.2,0,0,1-1.661.966,16.751,16.751,0,0,1-3.4.882,18.292,18.292,0,0,0-2.928.7,6.1,6.1,0,0,0-3.342,2.61,4.3,4.3,0,0,0-.435,1.522,1.913,1.913,0,0,1-.009-.42,3.468,3.468,0,0,1,.328-1.162,6.108,6.108,0,0,1,3.374-2.772,17.983,17.983,0,0,1,2.96-.753,16.782,16.782,0,0,0,3.33-.893,7.65,7.65,0,0,0,2.95-2.294c.85-1.013,1.587-2.186,2.481-3.3a7.86,7.86,0,0,1,3.26-2.6,8.852,8.852,0,0,1,3.868-.406c2.463.219,4.619.807,6.459.553a6.209,6.209,0,0,0,3.924-1.622A5.274,5.274,0,0,0,154.621,103.912Z" transform="translate(-120.809 -103.911)" fill="#455a64"/>
            </g>
          </g>
          <g id="Grupo_112506" data-name="Grupo 112506" transform="translate(7.095 33.629)">
            <g id="Grupo_112505" data-name="Grupo 112505">
              <path id="Trazado_223037" data-name="Trazado 223037" d="M89.431,186.164a3.525,3.525,0,0,0,.574-.157,2.3,2.3,0,0,0,1.147-1.195A3.5,3.5,0,0,0,91.2,182.2c-.308-1.007-.91-2.079-1.367-3.353a17.1,17.1,0,0,1-.917-9.349,12.346,12.346,0,0,1,2.356-5.078,10.674,10.674,0,0,1,2.158-2.063,12.85,12.85,0,0,1,2.722-1.408,8.487,8.487,0,0,0,2.57-1.468,3.2,3.2,0,0,0,1-2.529c-.111-1.878-1.134-3.592-1.1-5.451a5.658,5.658,0,0,1,.682-2.552,9.488,9.488,0,0,1,1.472-2,33.9,33.9,0,0,1,3.3-2.917,10.33,10.33,0,0,0,3.682-5,5.119,5.119,0,0,0,.023-2.291.5.5,0,0,1,.05.145c.026.1.073.244.111.439a4.6,4.6,0,0,1-.057,1.737,7.113,7.113,0,0,1-1.166,2.491,14.886,14.886,0,0,1-2.489,2.661,34.477,34.477,0,0,0-3.255,2.926,9.241,9.241,0,0,0-1.415,1.943,5.373,5.373,0,0,0-.633,2.419,8.988,8.988,0,0,0,.5,2.624,12.115,12.115,0,0,1,.628,2.81,3.529,3.529,0,0,1-1.092,2.783,8.752,8.752,0,0,1-2.67,1.535,12.546,12.546,0,0,0-2.66,1.371,10.383,10.383,0,0,0-2.093,1.995,12.086,12.086,0,0,0-2.312,4.939,17.031,17.031,0,0,0,.837,9.2c.436,1.262,1.022,2.335,1.324,3.38a4.766,4.766,0,0,1,.208,1.494,3.054,3.054,0,0,1-.319,1.231,2.322,2.322,0,0,1-1.24,1.2A1.317,1.317,0,0,1,89.431,186.164Z" transform="translate(-88.618 -136.742)" fill="#455a64"/>
            </g>
          </g>
        </g>
      </g>
    </g>
  </g>
</svg>
