<svg xmlns="http://www.w3.org/2000/svg" width="295" height="196.854" viewBox="0 0 295 196.854">
  <g id="Grupo_112855" data-name="Grupo 112855" transform="translate(-56.265 -39.375)">
    <g id="Background_Complete" data-name="Background Complete" transform="translate(63.493 39.374)">
      <path id="Trazado_223038" data-name="Trazado 223038" d="M174.8,53.554a7.277,7.277,0,0,0-2.73,1.318,3.835,3.835,0,0,1-.895.52l-3.558-14.5a1.99,1.99,0,0,0-2.407-1.459l-15.088,3.7.42,1.712a3.172,3.172,0,0,0,.51,1.1A6.59,6.59,0,0,1,147,56.257a6.651,6.651,0,0,1-7.591-4.448,6.542,6.542,0,0,1-.186-3.3,3.279,3.279,0,0,0-.017-1.425l-.295-1.2-15.3,3.7a2.444,2.444,0,0,0-1.791,2.956l3.285,13.452-1.042.256c-.118.029-.239.055-.361.076A8.042,8.042,0,1,0,126.2,79.594a3.087,3.087,0,0,1,.616-.224l1.337-.328,3.683,15.01a2.444,2.444,0,0,0,2.956,1.791L176.539,85.6A1.991,1.991,0,0,0,178,83.191l-3.75-15.283a3.957,3.957,0,0,1,.816.091,7.3,7.3,0,0,0,4.478-.453A7.419,7.419,0,0,0,174.8,53.554Z" transform="translate(-112.614 -39.374)" fill="#ebebeb"/>
      <path id="Trazado_223039" data-name="Trazado 223039" d="M628.358,218.561a4.592,4.592,0,0,0,1.862.428,2.4,2.4,0,0,1,.645.1L626.9,227.62a1.254,1.254,0,0,0,.609,1.666l8.881,4.125.468-1.007a2,2,0,0,0,.182-.741,4.111,4.111,0,0,1,.378-1.532,4.159,4.159,0,0,1,7.658,3.235,4.115,4.115,0,0,1-1.208,1.7,2.065,2.065,0,0,0-.553.708l-.328.706,8.984,4.208a1.54,1.54,0,0,0,2.046-.748l3.686-7.912.613.285c.07.032.14.067.208.1a5.069,5.069,0,1,0,4-7.507,1.935,1.935,0,0,1-.391-.132l-.787-.366,4.1-8.835a1.54,1.54,0,0,0-.748-2.046l-24.575-11.415a1.254,1.254,0,0,0-1.666.609l-4.178,9a2.494,2.494,0,0,1-.366-.366,4.6,4.6,0,0,0-2.382-1.542,4.676,4.676,0,0,0-3.182,8.751Z" transform="translate(-380.255 -124.207)" fill="#ebebeb"/>
      <path id="Trazado_223040" data-name="Trazado 223040" d="M653.559,405.948a3.59,3.59,0,0,0,.9-1.2,1.9,1.9,0,0,1,.274-.431l4.859,5.551a.984.984,0,0,0,1.388.092l5.776-5.056-.573-.655a1.57,1.57,0,0,0-.474-.365,3.256,3.256,0,0,1-.57-5.444,3.286,3.286,0,0,1,4.341.224,3.232,3.232,0,0,1,.832,1.4,1.614,1.614,0,0,0,.332.621l.4.46,5.868-5.1a1.207,1.207,0,0,0,.113-1.7l-4.5-5.153.4-.349c.045-.04.092-.079.141-.115a3.973,3.973,0,1,0-4.11-5.254,1.537,1.537,0,0,1-.219.239l-.512.448-5.03-5.746a1.207,1.207,0,0,0-1.7-.113l-15.982,13.99a.984.984,0,0,0-.092,1.388l5.121,5.85a1.985,1.985,0,0,1-.378.146,3.6,3.6,0,0,0-1.861,1.217,3.665,3.665,0,0,0,5.262,5.059Z" transform="translate(-390.424 -216.019)" fill="#f5f5f5"/>
      <path id="Trazado_223041" data-name="Trazado 223041" d="M487.583,66.056a5.737,5.737,0,0,0-2.385-.146,3.006,3.006,0,0,1-.816.012l3.147-11.343a1.569,1.569,0,0,0-1.092-1.931l-11.8-3.275-.372,1.339a2.5,2.5,0,0,0-.073.952,5.2,5.2,0,0,1-6.762,5.528,5.243,5.243,0,0,1-3.5-5.987,5.154,5.154,0,0,1,1.144-2.34,2.576,2.576,0,0,0,.538-.987l.261-.939-11.947-3.356a1.926,1.926,0,0,0-2.372,1.341L448.619,55.44l-.815-.226c-.093-.025-.186-.054-.277-.087a6.34,6.34,0,1,0-3.408,10.082,2.429,2.429,0,0,1,.51.083l1.046.29-3.258,11.741a1.926,1.926,0,0,0,1.341,2.372l32.658,9.063a1.569,1.569,0,0,0,1.931-1.092l3.318-11.954a3.115,3.115,0,0,1,.526.377,5.753,5.753,0,0,0,3.254,1.416,5.849,5.849,0,0,0,2.138-11.449Z" transform="translate(-281.423 -41.533)" fill="#f5f5f5"/>
    </g>
    <g id="Puzzle" transform="translate(56.265 98.239)">
      <g id="Grupo_112514" data-name="Grupo 112514" transform="translate(0)">
        <g id="Grupo_112511" data-name="Grupo 112511">
          <path id="Trazado_223043" data-name="Trazado 223043" d="M222.6,227.172a14.268,14.268,0,0,1,7.192,1.575,8.007,8.007,0,0,0,3.263.8l2.914-.066.034-32.388a5.556,5.556,0,0,0-5.572-5.539l-30.788.114V191a8.557,8.557,0,0,1,.9-3.743,17.028,17.028,0,0,0,1.463-10.4,17.313,17.313,0,0,0-34.35,2.965,16.977,16.977,0,0,0,1.469,6.92,8.542,8.542,0,0,1,.77,3.468l.182,1.456h-37.1a5.556,5.556,0,0,0-5.573,5.538v31.669H124.76a8.106,8.106,0,0,1-3.541-.855,16.69,16.69,0,0,0-10.026-1.384,16.382,16.382,0,0,0,2.806,32.5,16.069,16.069,0,0,0,6.549-1.391,8.081,8.081,0,0,1,3.281-.729h3.4l.068,38.737a4.524,4.524,0,0,0,4.538,4.51h99.312c2.506,0,4.47-3.147,4.47-5.637V259.421h-4.02a7.26,7.26,0,0,0-2.708.529,15.036,15.036,0,0,1-20.637-14.479C208.549,237.948,215.047,227.7,222.6,227.172Z" transform="translate(-97.62 -162.533)" fill="#e0e0e0"/>
          <g id="Grupo_112510" data-name="Grupo 112510">
            <path id="Trazado_223044" data-name="Trazado 223044" d="M222.487,227.071s-.088.013-.263.034a7.263,7.263,0,0,0-.778.118,10.609,10.609,0,0,0-2.913,1.036c-2.423,1.237-5.6,4.061-8,8.777a20.908,20.908,0,0,0-2.353,8.406,15.436,15.436,0,0,0,.685,4.978,14.757,14.757,0,0,0,2.549,4.809,14.927,14.927,0,0,0,10.46,5.573,14.707,14.707,0,0,0,6.571-.905,7.836,7.836,0,0,1,3.444-.65l3.6,0h.077v.077q0,8.352.009,17.735,0,4.685,0,9.612,0,2.463,0,4.984,0,1.261,0,2.536a7.162,7.162,0,0,1-.087,1.29,6.884,6.884,0,0,1-.356,1.252,6.576,6.576,0,0,1-1.384,2.215,4.061,4.061,0,0,1-2.3,1.283,13.015,13.015,0,0,1-1.333.034h-4l-10.968,0-23.16.007-50.672.01h-6.7c-1.127-.01-2.236.023-3.386-.023a4.657,4.657,0,0,1-4.19-4.761q0-1.71-.007-3.427-.006-3.436-.012-6.905-.026-13.877-.052-28.249l.124.123H124.99c-.708.011-1.423-.032-2.116.049a8.145,8.145,0,0,0-2.042.521,20.936,20.936,0,0,1-2.019.782,16.291,16.291,0,0,1-16.423-3.991,15.827,15.827,0,0,1-3.718-5.623c-.13-.355-.29-.7-.4-1.065l-.3-1.1a16.485,16.485,0,0,1,8.467-18.651,16.493,16.493,0,0,1,5.173-1.638,17.047,17.047,0,0,1,5.395.127,16.567,16.567,0,0,1,2.6.705c.422.153.839.32,1.245.51a12.755,12.755,0,0,0,1.215.522c1.651.652,3.456.413,5.217.458l-.123.123q0-10.274,0-20.284,0-5,0-9.933a15.333,15.333,0,0,1,.1-2.476,5.482,5.482,0,0,1,.981-2.28,5.675,5.675,0,0,1,4.215-2.332l37.5-.013-.112.127c-.062-.5-.122-.978-.182-1.456v-.014a8.168,8.168,0,0,0-.444-2.616c-.139-.422-.323-.821-.5-1.239s-.325-.839-.464-1.266a17.125,17.125,0,0,1-.828-5.264l.072-1.325c.016-.22.014-.442.046-.659l.107-.652c.081-.431.12-.872.236-1.295l.351-1.265a3.983,3.983,0,0,1,.211-.619l.241-.607a8.51,8.51,0,0,1,.528-1.19l.6-1.15.714-1.08a16.921,16.921,0,0,1,3.511-3.712l.495-.4.53-.35c.356-.228.7-.469,1.066-.684a18.421,18.421,0,0,1,2.275-1.075,17.2,17.2,0,0,1,4.823-1.156,16.94,16.94,0,0,1,2.457-.038c.408.027.816.034,1.22.078l1.2.182a17.528,17.528,0,0,1,8.449,4.224,17.2,17.2,0,0,1,5.255,16.492,18.131,18.131,0,0,1-1.455,4.054,8.843,8.843,0,0,0-.626,1.995,10.16,10.16,0,0,0-.131,2.071l-.089-.089,23.422-.075,5.328-.017,1.3,0c.43,0,.858-.005,1.291.026a5.664,5.664,0,0,1,2.4.81,5.589,5.589,0,0,1,2.627,4,21.69,21.69,0,0,1,.056,2.363q0,1.165,0,2.3c-.025,12.107-.044,21.732-.058,28.5v.036h-.035c-1.174.016-2.265.07-3.287.049a8.239,8.239,0,0,1-2.726-.714,18.115,18.115,0,0,0-4.025-1.427,12.375,12.375,0,0,0-2.5-.269c-.277,0-.484.005-.622.012s-.206.005-.206.005a7.953,7.953,0,0,1,.828-.036,12.086,12.086,0,0,1,2.511.252,18.052,18.052,0,0,1,4.04,1.414,8.2,8.2,0,0,0,2.708.7c1.012.018,2.11-.039,3.281-.058l-.035.036c0-6.77,0-16.394,0-28.5q0-1.135,0-2.3a21.682,21.682,0,0,0-.059-2.344,5.448,5.448,0,0,0-2.566-3.9,5.521,5.521,0,0,0-2.343-.787c-.418-.029-.845-.028-1.277-.023l-1.3.006-5.328.022-23.421.1h-.088v-.089a10.325,10.325,0,0,1,.132-2.1,9,9,0,0,1,.637-2.036,17.924,17.924,0,0,0,1.44-4.021,17.011,17.011,0,0,0-5.208-16.306,17.332,17.332,0,0,0-8.353-4.17l-1.191-.179c-.4-.043-.8-.05-1.206-.077a16.75,16.75,0,0,0-2.429.039,17.031,17.031,0,0,0-4.765,1.145,18.318,18.318,0,0,0-2.246,1.063c-.357.213-.7.452-1.052.676l-.523.345-.488.4a16.713,16.713,0,0,0-3.466,3.668l-.705,1.066-.6,1.137a8.377,8.377,0,0,0-.521,1.175l-.237.6a3.878,3.878,0,0,0-.208.611l-.345,1.249c-.115.417-.153.852-.233,1.279l-.105.643c-.032.215-.029.434-.045.651l-.07,1.308a16.917,16.917,0,0,0,.82,5.2c.138.42.29.838.459,1.249s.363.821.506,1.252a8.4,8.4,0,0,1,.457,2.687V190.1c.06.478.12.956.182,1.456l.016.127h-.128l-37.487.025a5.433,5.433,0,0,0-4.037,2.235,5.237,5.237,0,0,0-.939,2.183,15.214,15.214,0,0,0-.094,2.433q0,4.93,0,9.933,0,10.005,0,20.284v.123h-2.775a7.937,7.937,0,0,1-2.648-.472,13,13,0,0,1-1.235-.531c-.4-.187-.81-.351-1.226-.5a16.336,16.336,0,0,0-2.562-.694,16.8,16.8,0,0,0-5.316-.124,16.161,16.161,0,0,0-12.439,9.3,16.455,16.455,0,0,0-.992,10.687l.295,1.082c.1.359.262.7.39,1.049a15.578,15.578,0,0,0,3.662,5.538,16.039,16.039,0,0,0,16.171,3.931,20.781,20.781,0,0,0,2-.775,8.4,8.4,0,0,1,2.1-.537c.726-.084,1.437-.038,2.144-.05h2.242v.123q.024,14.36.047,28.249.006,3.469.011,6.905,0,1.718.006,3.427a4.417,4.417,0,0,0,3.973,4.524c1.1.045,2.246.013,3.363.023h6.7l50.672.01,23.16.006,10.968,0h4a13.054,13.054,0,0,0,1.305-.032,3.876,3.876,0,0,0,2.189-1.225,6.388,6.388,0,0,0,1.346-2.151,6.689,6.689,0,0,0,.347-1.216,6.964,6.964,0,0,0,.085-1.257q0-1.275,0-2.536,0-2.521,0-4.984,0-4.926,0-9.612.005-9.371.009-17.735l.077.077-3.6,0a7.673,7.673,0,0,0-3.393.637,14.848,14.848,0,0,1-6.634.905,15.048,15.048,0,0,1-10.542-5.634,14.866,14.866,0,0,1-2.561-4.851,15.529,15.529,0,0,1-.681-5.014A20.975,20.975,0,0,1,210.462,237c2.413-4.725,5.613-7.548,8.051-8.777a10.452,10.452,0,0,1,2.929-1.019,6.644,6.644,0,0,1,.781-.107C222.4,227.077,222.487,227.071,222.487,227.071Z" transform="translate(-97.504 -162.433)" fill="#263238"/>
          </g>
        </g>
        <g id="Grupo_112513" data-name="Grupo 112513" transform="translate(105.747 29.25)">
          <path id="Trazado_223045" data-name="Trazado 223045" d="M468.032,260.425a16.586,16.586,0,0,0-6.761,1.436,8.71,8.71,0,0,1-2.264.665V228.481a4.538,4.538,0,0,0-4.538-4.538H419.045v4.02a7.226,7.226,0,0,0,.533,2.708,15.026,15.026,0,0,1-14.569,20.637,15.165,15.165,0,0,1-14.394-13.974,14.907,14.907,0,0,1,1.38-7.406,7.458,7.458,0,0,0,.736-3.166v-2.818l-35.889-.114a5.573,5.573,0,0,0-5.573,5.573l-.034,31.574h-2.447c-.277,0-.56-.008-.84-.028a18.336,18.336,0,1,0-1.7,30.734,7.025,7.025,0,0,1,1.486-.163h3.14v35.24a5.572,5.572,0,0,0,5.572,5.572H454.47a4.538,4.538,0,0,0,4.538-4.538v-35.88a9.02,9.02,0,0,1,1.758.644,16.633,16.633,0,0,0,10.164,1.429,16.915,16.915,0,0,0-2.9-33.56Z" transform="translate(-318.698 -223.71)" fill="#f5f5f5"/>
          <g id="Grupo_112512" data-name="Grupo 112512">
            <path id="Trazado_223046" data-name="Trazado 223046" d="M467.9,260.3s.359.012,1.065.047a8.34,8.34,0,0,1,1.311.125l.841.135a6,6,0,0,1,.952.217l1.064.292c.368.123.744.287,1.146.439.2.08.407.155.613.245l.613.319a10.978,10.978,0,0,1,1.282.72A16.928,16.928,0,0,1,484.7,276.07c.017.409.054.823.056,1.241q-.034.627-.068,1.269c-.016.213-.012.43-.045.644s-.065.429-.1.645-.067.433-.1.651l-.154.648a16.879,16.879,0,0,1-2.15,5.11,16.784,16.784,0,0,1-9.7,7.273c-.527.162-1.079.246-1.624.374-.552.087-1.111.165-1.679.2a16.643,16.643,0,0,1-6.9-.945,35.044,35.044,0,0,0-3.374-1.325l.1-.075q0,8.267.009,17.526,0,4.624,0,9.481,0,2.428,0,4.913,0,1.242,0,2.5,0,.628,0,1.259c0,.209-.012.426-.022.64a4.88,4.88,0,0,1-.108.638,4.645,4.645,0,0,1-3.558,3.463,6.432,6.432,0,0,1-1.313.1h-3.94l-10.791,0-22.763.006-49.747.01h-9.881a8.371,8.371,0,0,1-1.679-.115,6.257,6.257,0,0,1-1.592-.587,5.751,5.751,0,0,1-2.337-2.422,5.448,5.448,0,0,1-.532-1.623,9.491,9.491,0,0,1-.085-1.7q0-3.371,0-6.774,0-13.614,0-27.712l.123.123h-2.264c-.387,0-.789-.007-1.173.007a7.044,7.044,0,0,0-1.162.153l.035-.014a18.39,18.39,0,0,1-7.459,2.356,18.426,18.426,0,0,1-19.143-12.379,18.918,18.918,0,0,1-1.009-5.842,19.711,19.711,0,0,1,.889-5.832,18.412,18.412,0,0,1,2.682-5.218,19.766,19.766,0,0,1,1.9-2.23l1.084-.985c.365-.322.774-.592,1.158-.891a19.106,19.106,0,0,1,5.182-2.609,20.277,20.277,0,0,1,5.707-.85,18.375,18.375,0,0,1,10.717,3.54l-.064-.023c1.083.055,2.191.016,3.279.028l-.122.122q.012-10.118.023-19.971.006-4.924.012-9.775v-1.212c0-.4,0-.807.034-1.22a5.7,5.7,0,0,1,4.69-5,15.478,15.478,0,0,1,2.4-.084l2.372.008,4.713.016,9.3.031,18.075.061h.111v.111q0,1.268,0,2.528a7.488,7.488,0,0,1-.356,2.509,9.709,9.709,0,0,1-.471,1.171c-.174.375-.324.76-.465,1.146a14.728,14.728,0,0,0,.813,11.778,14.982,14.982,0,0,0,2.8,3.806,15.526,15.526,0,0,0,3.784,2.719,14.716,14.716,0,0,0,8.886,1.444,14.926,14.926,0,0,0,7.885-3.765,14.663,14.663,0,0,0,2.724-3.341,14.23,14.23,0,0,0,1.635-3.909,14.682,14.682,0,0,0-.177-8.173c-.185-.652-.488-1.259-.674-1.923a7.278,7.278,0,0,1-.275-2.016q0-2.007,0-3.974v-.089h.089l25.925.012,5.827,0,2.811,0c.463,0,.921-.012,1.386.033a4.77,4.77,0,0,1,1.33.361,4.619,4.619,0,0,1,2.748,4.245q0,2.567,0,4.991c-.014,12.923-.025,22.756-.032,29.025l-.035-.03a23.491,23.491,0,0,0,3.932-1.295,16.466,16.466,0,0,1,2.836-.638,15.884,15.884,0,0,1,1.7-.136c.375-.008.558,0,.558,0s-.183,0-.558.018a16.976,16.976,0,0,0-1.7.151,16.64,16.64,0,0,0-2.826.651,23.34,23.34,0,0,1-3.937,1.311l-.035,0V262.4c-.007-6.269-.018-16.1-.032-29.025q0-2.423,0-4.991a4.486,4.486,0,0,0-2.673-4.119,4.641,4.641,0,0,0-1.29-.348c-.445-.043-.908-.029-1.37-.031l-2.811,0-5.827,0-25.925.012.088-.088q0,1.967,0,3.974a7.1,7.1,0,0,0,.269,1.966c.178.639.485,1.256.674,1.918a14.873,14.873,0,0,1,.185,8.275,14.425,14.425,0,0,1-1.654,3.96,14.856,14.856,0,0,1-2.757,3.387,15.125,15.125,0,0,1-7.988,3.821,14.924,14.924,0,0,1-9.01-1.458,15.732,15.732,0,0,1-3.838-2.754,15.2,15.2,0,0,1-2.843-3.858,14.947,14.947,0,0,1-.83-11.951c.143-.392.3-.783.471-1.163a9.468,9.468,0,0,0,.461-1.148,7.272,7.272,0,0,0,.344-2.442v-2.528l.111.111-18.075-.054-9.3-.028-4.713-.014-2.372-.007a15.338,15.338,0,0,0-2.356.081,5.466,5.466,0,0,0-4.493,4.79c-.031.39-.037.79-.032,1.2V231.1q0,4.85-.01,9.775-.009,9.848-.02,19.971v.124h-.123c-1.1-.012-2.178.027-3.3-.028l-.034,0-.03-.021a18.128,18.128,0,0,0-10.574-3.491,20.049,20.049,0,0,0-5.63.84,18.846,18.846,0,0,0-5.112,2.575c-.379.294-.783.561-1.143.879l-1.07.972a19.527,19.527,0,0,0-1.877,2.2,18.173,18.173,0,0,0-2.645,5.148,19.454,19.454,0,0,0-.877,5.754,18.311,18.311,0,0,0,5.277,12.665,18.348,18.348,0,0,0,14.6,5.31,18.156,18.156,0,0,0,7.359-2.323l.017-.01.019,0a7.347,7.347,0,0,1,1.2-.158c.407-.014.793,0,1.185-.007h2.388v.124q0,14.086,0,27.712,0,3.4,0,6.774a9.283,9.283,0,0,0,.081,1.659,5.228,5.228,0,0,0,.509,1.554,5.513,5.513,0,0,0,2.238,2.321,6.024,6.024,0,0,0,1.525.562,8.129,8.129,0,0,0,1.631.111h9.881l49.747.01,22.763.007,10.791,0h3.94a6.213,6.213,0,0,0,1.274-.092,4.454,4.454,0,0,0,3.413-3.318,4.884,4.884,0,0,0,.126-1.234q0-.632,0-1.259,0-1.256,0-2.5,0-2.485,0-4.913,0-4.855,0-9.481.005-9.248.009-17.526v-.1l.1.022a34.9,34.9,0,0,1,3.388,1.333,16.506,16.506,0,0,0,6.837.944c.563-.035,1.117-.113,1.665-.2.54-.126,1.087-.209,1.61-.368a16.858,16.858,0,0,0,11.781-12.276q.077-.324.154-.644.05-.325.1-.647t.1-.641c.033-.212.03-.428.046-.64q.036-.637.071-1.261c0-.416-.037-.827-.054-1.234a16.867,16.867,0,0,0-7.836-13.188,10.974,10.974,0,0,0-1.275-.722l-.609-.32c-.2-.091-.411-.166-.609-.247-.4-.154-.774-.318-1.141-.443l-1.06-.3a6.091,6.091,0,0,0-.949-.221l-.838-.14a8.476,8.476,0,0,0-1.308-.135C468.264,260.322,467.9,260.3,467.9,260.3Z" transform="translate(-318.571 -223.581)" fill="#263238"/>
          </g>
        </g>
      </g>
    </g>
    <g id="Characters" transform="translate(105.414 67.644)">
      <g id="Grupo_112521" data-name="Grupo 112521" transform="translate(72.924 102.253)">
        <path id="Trazado_223047" data-name="Trazado 223047" d="M381.045,312.824a5.265,5.265,0,0,1,3.029-.518c1.421.311,6.579,3.675,6.579,3.675l4.156-.776,2.45,11.736-16.214,6.738Z" transform="translate(-367.487 -312.236)" fill="#ae7461"/>
        <path id="Trazado_223048" data-name="Trazado 223048" d="M354.265,316.992a23.863,23.863,0,0,0,5.06-1.142c1.346-.673,4.554-3.519,5.227-3.467s3.1.518,3.1.518l-.983,2.949s4.864,2.95,6.313,4.036,6,5.951,6.21,7.142a3.678,3.678,0,0,1-.724,3.053c-.569.466-2.639-.465-2.639-.465a2.587,2.587,0,0,1-.465,2.121c-.776,1.035-2.587.673-2.587.673s-.156,1.708-.984,2.018-2.691-.621-2.691-.621-.563,1.449-1.238,1.6-2.591-.983-2.591-.983-8.28-5.951-10.143-6.831a9.545,9.545,0,0,0-2.432-.932Z" transform="translate(-352.701 -312.312)" fill="#ffbe9d"/>
        <g id="Grupo_112515" data-name="Grupo 112515" transform="translate(15.193 19.123)">
          <path id="Trazado_223049" data-name="Trazado 223049" d="M385.673,354.584c-.037,0-.061-.146-.148-.364a6.532,6.532,0,0,0-.416-.827,5.256,5.256,0,0,1-.641-1.18,2.912,2.912,0,0,1,.856,1.055,3.076,3.076,0,0,1,.37.9C385.745,354.424,385.7,354.587,385.673,354.584Z" transform="translate(-384.462 -352.212)" fill="#eb996e"/>
        </g>
        <g id="Grupo_112516" data-name="Grupo 112516" transform="translate(17.669 17.43)">
          <path id="Trazado_223050" data-name="Trazado 223050" d="M391.815,351.732a13.18,13.18,0,0,1-1.044-1.563c-.566-.862-1.172-1.437-1.129-1.491a3.648,3.648,0,0,1,1.335,1.351A5.025,5.025,0,0,1,391.815,351.732Z" transform="translate(-389.639 -348.674)" fill="#eb996e"/>
        </g>
        <g id="Grupo_112517" data-name="Grupo 112517" transform="translate(21.109 13.99)">
          <path id="Trazado_223051" data-name="Trazado 223051" d="M398.888,344.993c-.073.018-.3-.877-.876-1.843s-1.231-1.611-1.179-1.666a5.081,5.081,0,0,1,2.055,3.509Z" transform="translate(-396.83 -341.481)" fill="#eb996e"/>
        </g>
        <g id="Grupo_112518" data-name="Grupo 112518" transform="translate(20.711 11.042)">
          <path id="Trazado_223052" data-name="Trazado 223052" d="M396.029,335.321a4.659,4.659,0,0,1,.124,2.794,28.229,28.229,0,0,1-.124-2.794Z" transform="translate(-395.998 -335.321)" fill="#eb996e"/>
        </g>
        <path id="Trazado_223053" data-name="Trazado 223053" d="M370.875,318.7a32.411,32.411,0,0,1,1.76-4.657c.466-.518,4.793-1.657,4.793-1.657l1.341,3.468-.96,1.016-2.069-.136A3.545,3.545,0,0,1,370.875,318.7Z" transform="translate(-362.181 -312.312)" fill="#ae7461"/>
        <path id="Trazado_223054" data-name="Trazado 223054" d="M353.989,342.694s-.592.456,0,1.543,2.2.31,2.714,0c0,0-.776,1.811.207,2.38a3.863,3.863,0,0,0,2.173.414,2.114,2.114,0,0,0,1.346,1.812c1.4.724,1.759,0,1.759,0s.155,1.811,1.76,1.966a2.8,2.8,0,0,0,2.169-.4l-.72-1.07s.931-1.9.207-2.726a2.479,2.479,0,0,0-1.914-.725s.317-1.681-.607-2.15a1.7,1.7,0,0,0-2.447.753s-.1-1.843-1.449-1.8a2.994,2.994,0,0,0-2.07.87Z" transform="translate(-353.236 -328.124)" fill="#ae7461"/>
        <g id="Grupo_112519" data-name="Grupo 112519" transform="translate(5.87 16.37)">
          <path id="Trazado_223055" data-name="Trazado 223055" d="M366.5,346.46a6.808,6.808,0,0,1-1.524,2.59,5.621,5.621,0,0,1,.692-1.337A5.558,5.558,0,0,1,366.5,346.46Z" transform="translate(-364.971 -346.458)" fill="#6f4439"/>
        </g>
        <g id="Grupo_112520" data-name="Grupo 112520" transform="translate(8.698 18)">
          <path id="Trazado_223056" data-name="Trazado 223056" d="M372.673,349.868a5.638,5.638,0,0,1-1.784,2.608,53.818,53.818,0,0,1,1.784-2.608Z" transform="translate(-370.884 -349.866)" fill="#6f4439"/>
        </g>
      </g>
      <g id="Grupo_112689" data-name="Grupo 112689" transform="translate(0 5.186)">
        <g id="Grupo_112523" data-name="Grupo 112523" transform="translate(2.343 134.597)">
          <g id="Grupo_112522" data-name="Grupo 112522" transform="translate(39.154)">
            <path id="Trazado_223057" data-name="Trazado 223057" d="M296.862,390.693h-7.85L287,419.238h7.87c1.34-4.348,4.689-27,4.689-27Z" transform="translate(-287.003 -390.693)" fill="#263238"/>
          </g>
          <path id="Trazado_223058" data-name="Trazado 223058" d="M209.706,390.693s-5.024,11.78-4.521,16.548,3.323,12,3.323,12h38.878a89.347,89.347,0,0,0,1.922-9.873c.837-5.89,3.1-18.672,3.1-18.672Z" transform="translate(-205.15 -390.693)" fill="#263238"/>
        </g>
        <g id="Grupo_112678" data-name="Grupo 112678" transform="translate(8.472)">
          <g id="Grupo_112525" data-name="Grupo 112525">
            <g id="Grupo_112524" data-name="Grupo 112524">
              <path id="Trazado_223059" data-name="Trazado 223059" d="M267.766,130.224c-1.313-1.657-2.936-3.253-3.272-5.34-.309-1.919.53-4.02-.33-5.763-1.059-2.144-4.1-2.563-5.422-4.558-.639-.965-.79-2.189-1.421-3.16-1.075-1.655-3.281-2.187-5.252-2.074s-3.892.726-5.865.767c-2.707.057-5.447-.959-8.076-.31-2.9.716-4.771,3.159-6.75,5.517l-2.563,2.721a10.649,10.649,0,0,1-1.679,1.232,19.257,19.257,0,0,0-3.159,1.806,4.781,4.781,0,0,0-.022,6.895,5.111,5.111,0,0,0-3.685,4.84,14.683,14.683,0,0,0,.756,3.511,5.106,5.106,0,0,1-.074,3.523,2.246,2.246,0,0,1-2.991,1.123,5.378,5.378,0,0,0,2.755,3.722,3.217,3.217,0,0,1-2.207.855c1.94,5.244,7.763,8.231,13.346,8.527s11.031-1.567,16.312-3.4l15.224-3.193c1.335-.239,1.961-1.818,2.006-3.174s-.231-2.781.313-4.023c.745-1.7,2.806-2.529,3.582-4.219C270.176,134.122,269.078,131.881,267.766,130.224Z" transform="translate(-217.962 -109.313)" fill="#263238"/>
            </g>
          </g>
          <g id="Grupo_112675" data-name="Grupo 112675" transform="translate(7.81 1.214)">
            <g id="Grupo_112674" data-name="Grupo 112674">
              <g id="Grupo_112667" data-name="Grupo 112667" transform="translate(0 1.055)">
                <g id="Grupo_112666" data-name="Grupo 112666">
                  <g id="Grupo_112531" data-name="Grupo 112531" transform="translate(3.483 5.937)">
                    <g id="Grupo_112530" data-name="Grupo 112530">
                      <g id="Grupo_112529" data-name="Grupo 112529">
                        <g id="Grupo_112528" data-name="Grupo 112528">
                          <g id="Grupo_112527" data-name="Grupo 112527">
                            <g id="Grupo_112526" data-name="Grupo 112526">
                              <path id="Trazado_223060" data-name="Trazado 223060" d="M243.85,151.2a62.02,62.02,0,0,1-2.162-10.483,21.661,21.661,0,0,1,1.392-10.515c.214-.5,2-3.816,2.531-3.735.383.058-.77,3.18-.593,3.524a18.375,18.375,0,0,1,1.513,10.805,48.372,48.372,0,0,1-2.682,10.4" transform="translate(-241.571 -126.468)" fill="#263238"/>
                            </g>
                          </g>
                        </g>
                      </g>
                    </g>
                  </g>
                  <g id="Grupo_112532" data-name="Grupo 112532" transform="translate(4.478 1.116)">
                    <path id="Trazado_223061" data-name="Trazado 223061" d="M245.285,132.314c.17-8.958,5.525-16.325,14.475-15.907l.825.087a16.018,16.018,0,0,1,14.336,16.32c-.191,7.764-.5,16.339-.987,20.464-1.007,8.538-9.7,8.967-9.7,8.967-.019,0-.233,14.1-.233,14.1l-20.351-14.1Z" transform="translate(-243.651 -116.39)" fill="#ffbe9d"/>
                  </g>
                  <g id="Grupo_112540" data-name="Grupo 112540" transform="translate(14.278 42.505)">
                    <g id="Grupo_112539" data-name="Grupo 112539">
                      <g id="Grupo_112538" data-name="Grupo 112538">
                        <g id="Grupo_112537" data-name="Grupo 112537">
                          <g id="Grupo_112536" data-name="Grupo 112536">
                            <g id="Grupo_112535" data-name="Grupo 112535">
                              <g id="Grupo_112534" data-name="Grupo 112534">
                                <g id="Grupo_112533" data-name="Grupo 112533">
                                  <path id="Trazado_223062" data-name="Trazado 223062" d="M274.922,207.38a20.767,20.767,0,0,1-10.785-4.465s2,7.226,10.616,7.356Z" transform="translate(-264.137 -202.915)" fill="#eb996e"/>
                                </g>
                              </g>
                            </g>
                          </g>
                        </g>
                      </g>
                    </g>
                  </g>
                  <g id="Grupo_112554" data-name="Grupo 112554" transform="translate(30.333 22.929)">
                    <g id="Grupo_112553" data-name="Grupo 112553">
                      <g id="Grupo_112552" data-name="Grupo 112552">
                        <g id="Grupo_112551" data-name="Grupo 112551">
                          <g id="Grupo_112550" data-name="Grupo 112550">
                            <g id="Grupo_112549" data-name="Grupo 112549">
                              <g id="Grupo_112548" data-name="Grupo 112548">
                                <g id="Grupo_112547" data-name="Grupo 112547">
                                  <g id="Grupo_112546" data-name="Grupo 112546">
                                    <g id="Grupo_112545" data-name="Grupo 112545">
                                      <g id="Grupo_112544" data-name="Grupo 112544">
                                        <g id="Grupo_112543" data-name="Grupo 112543">
                                          <g id="Grupo_112542" data-name="Grupo 112542">
                                            <g id="Grupo_112541" data-name="Grupo 112541">
                                              <path id="Trazado_223063" data-name="Trazado 223063" d="M300.153,163.227a1.228,1.228,0,0,1-1.307,1.108A1.175,1.175,0,0,1,297.7,163.1a1.228,1.228,0,0,1,1.306-1.108A1.175,1.175,0,0,1,300.153,163.227Z" transform="translate(-297.7 -161.991)" fill="#263238"/>
                                            </g>
                                          </g>
                                        </g>
                                      </g>
                                    </g>
                                  </g>
                                </g>
                              </g>
                            </g>
                          </g>
                        </g>
                      </g>
                    </g>
                  </g>
                  <g id="Grupo_112569" data-name="Grupo 112569" transform="translate(28.728 19.342)">
                    <g id="Grupo_112568" data-name="Grupo 112568">
                      <g id="Grupo_112567" data-name="Grupo 112567">
                        <g id="Grupo_112566" data-name="Grupo 112566">
                          <g id="Grupo_112565" data-name="Grupo 112565">
                            <g id="Grupo_112564" data-name="Grupo 112564">
                              <g id="Grupo_112563" data-name="Grupo 112563">
                                <g id="Grupo_112562" data-name="Grupo 112562">
                                  <g id="Grupo_112561" data-name="Grupo 112561">
                                    <g id="Grupo_112560" data-name="Grupo 112560">
                                      <g id="Grupo_112559" data-name="Grupo 112559">
                                        <g id="Grupo_112558" data-name="Grupo 112558">
                                          <g id="Grupo_112557" data-name="Grupo 112557">
                                            <g id="Grupo_112556" data-name="Grupo 112556">
                                              <g id="Grupo_112555" data-name="Grupo 112555">
                                                <path id="Trazado_223064" data-name="Trazado 223064" d="M299.164,156.045c-.168.143-1.021-.639-2.335-.774-1.311-.154-2.346.42-2.472.245-.063-.079.122-.35.574-.611a3.369,3.369,0,0,1,2-.393,3.238,3.238,0,0,1,1.838.815C299.14,155.679,299.246,155.981,299.164,156.045Z" transform="translate(-294.345 -154.491)" fill="#263238"/>
                                              </g>
                                            </g>
                                          </g>
                                        </g>
                                      </g>
                                    </g>
                                  </g>
                                </g>
                              </g>
                            </g>
                          </g>
                        </g>
                      </g>
                    </g>
                  </g>
                  <g id="Grupo_112583" data-name="Grupo 112583" transform="translate(18.442 22.929)">
                    <g id="Grupo_112582" data-name="Grupo 112582">
                      <g id="Grupo_112581" data-name="Grupo 112581">
                        <g id="Grupo_112580" data-name="Grupo 112580">
                          <g id="Grupo_112579" data-name="Grupo 112579">
                            <g id="Grupo_112578" data-name="Grupo 112578">
                              <g id="Grupo_112577" data-name="Grupo 112577">
                                <g id="Grupo_112576" data-name="Grupo 112576">
                                  <g id="Grupo_112575" data-name="Grupo 112575">
                                    <g id="Grupo_112574" data-name="Grupo 112574">
                                      <g id="Grupo_112573" data-name="Grupo 112573">
                                        <g id="Grupo_112572" data-name="Grupo 112572">
                                          <g id="Grupo_112571" data-name="Grupo 112571">
                                            <g id="Grupo_112570" data-name="Grupo 112570">
                                              <path id="Trazado_223065" data-name="Trazado 223065" d="M275.3,163.227a1.228,1.228,0,0,1-1.307,1.108,1.174,1.174,0,0,1-1.143-1.234,1.228,1.228,0,0,1,1.306-1.108A1.175,1.175,0,0,1,275.3,163.227Z" transform="translate(-272.843 -161.991)" fill="#263238"/>
                                            </g>
                                          </g>
                                        </g>
                                      </g>
                                    </g>
                                  </g>
                                </g>
                              </g>
                            </g>
                          </g>
                        </g>
                      </g>
                    </g>
                  </g>
                  <g id="Grupo_112598" data-name="Grupo 112598" transform="translate(15.802 18.517)">
                    <g id="Grupo_112597" data-name="Grupo 112597">
                      <g id="Grupo_112596" data-name="Grupo 112596">
                        <g id="Grupo_112595" data-name="Grupo 112595">
                          <g id="Grupo_112594" data-name="Grupo 112594">
                            <g id="Grupo_112593" data-name="Grupo 112593">
                              <g id="Grupo_112592" data-name="Grupo 112592">
                                <g id="Grupo_112591" data-name="Grupo 112591">
                                  <g id="Grupo_112590" data-name="Grupo 112590">
                                    <g id="Grupo_112589" data-name="Grupo 112589">
                                      <g id="Grupo_112588" data-name="Grupo 112588">
                                        <g id="Grupo_112587" data-name="Grupo 112587">
                                          <g id="Grupo_112586" data-name="Grupo 112586">
                                            <g id="Grupo_112585" data-name="Grupo 112585">
                                              <g id="Grupo_112584" data-name="Grupo 112584">
                                                <path id="Trazado_223066" data-name="Trazado 223066" d="M272.142,154.321c-.168.143-1.023-.639-2.336-.774-1.311-.154-2.346.42-2.472.244-.062-.078.121-.35.575-.611a3.368,3.368,0,0,1,2-.393,3.239,3.239,0,0,1,1.838.815C272.116,153.955,272.223,154.257,272.142,154.321Z" transform="translate(-267.323 -152.767)" fill="#263238"/>
                                              </g>
                                            </g>
                                          </g>
                                        </g>
                                      </g>
                                    </g>
                                  </g>
                                </g>
                              </g>
                            </g>
                          </g>
                        </g>
                      </g>
                    </g>
                  </g>
                  <g id="Grupo_112612" data-name="Grupo 112612" transform="translate(24.27 19.652)">
                    <g id="Grupo_112611" data-name="Grupo 112611">
                      <g id="Grupo_112610" data-name="Grupo 112610">
                        <g id="Grupo_112609" data-name="Grupo 112609">
                          <g id="Grupo_112608" data-name="Grupo 112608">
                            <g id="Grupo_112607" data-name="Grupo 112607">
                              <g id="Grupo_112606" data-name="Grupo 112606">
                                <g id="Grupo_112605" data-name="Grupo 112605">
                                  <g id="Grupo_112604" data-name="Grupo 112604">
                                    <g id="Grupo_112603" data-name="Grupo 112603">
                                      <g id="Grupo_112602" data-name="Grupo 112602">
                                        <g id="Grupo_112601" data-name="Grupo 112601">
                                          <g id="Grupo_112600" data-name="Grupo 112600">
                                            <g id="Grupo_112599" data-name="Grupo 112599">
                                              <path id="Trazado_223067" data-name="Trazado 223067" d="M285.026,166.151a8.721,8.721,0,0,1,2.175-.16c.339,0,.664-.033.744-.255a1.717,1.717,0,0,0-.119-1.018q-.345-1.267-.723-2.659a44.147,44.147,0,0,1-1.524-6.917,44.212,44.212,0,0,1,2.077,6.779q.356,1.4.68,2.67a1.953,1.953,0,0,1,.035,1.335.847.847,0,0,1-.6.432,2.281,2.281,0,0,1-.578.019A8.615,8.615,0,0,1,285.026,166.151Z" transform="translate(-285.026 -155.14)" fill="#263238"/>
                                            </g>
                                          </g>
                                        </g>
                                      </g>
                                    </g>
                                  </g>
                                </g>
                              </g>
                            </g>
                          </g>
                        </g>
                      </g>
                    </g>
                  </g>
                  <g id="Grupo_112626" data-name="Grupo 112626" transform="translate(20.005 31.163)">
                    <g id="Grupo_112625" data-name="Grupo 112625">
                      <g id="Grupo_112624" data-name="Grupo 112624">
                        <g id="Grupo_112623" data-name="Grupo 112623">
                          <g id="Grupo_112622" data-name="Grupo 112622">
                            <g id="Grupo_112621" data-name="Grupo 112621">
                              <g id="Grupo_112620" data-name="Grupo 112620">
                                <g id="Grupo_112619" data-name="Grupo 112619">
                                  <g id="Grupo_112618" data-name="Grupo 112618">
                                    <g id="Grupo_112617" data-name="Grupo 112617">
                                      <g id="Grupo_112616" data-name="Grupo 112616">
                                        <g id="Grupo_112615" data-name="Grupo 112615">
                                          <g id="Grupo_112614" data-name="Grupo 112614">
                                            <g id="Grupo_112613" data-name="Grupo 112613">
                                              <path id="Trazado_223068" data-name="Trazado 223068" d="M276.413,179.205c.215.01.067,1.436,1.182,2.578s2.649,1.144,2.639,1.344c.011.092-.367.242-1.011.191a3.572,3.572,0,0,1-2.211-1.042,3.112,3.112,0,0,1-.9-2.152C276.12,179.523,276.316,179.187,276.413,179.205Z" transform="translate(-276.111 -179.204)" fill="#263238"/>
                                            </g>
                                          </g>
                                        </g>
                                      </g>
                                    </g>
                                  </g>
                                </g>
                              </g>
                            </g>
                          </g>
                        </g>
                      </g>
                    </g>
                  </g>
                  <g id="Grupo_112636" data-name="Grupo 112636" transform="translate(15.053 13.449)">
                    <g id="Grupo_112635" data-name="Grupo 112635">
                      <g id="Grupo_112634" data-name="Grupo 112634">
                        <g id="Grupo_112633" data-name="Grupo 112633">
                          <g id="Grupo_112632" data-name="Grupo 112632">
                            <g id="Grupo_112631" data-name="Grupo 112631">
                              <g id="Grupo_112630" data-name="Grupo 112630">
                                <g id="Grupo_112629" data-name="Grupo 112629">
                                  <g id="Grupo_112628" data-name="Grupo 112628">
                                    <g id="Grupo_112627" data-name="Grupo 112627">
                                      <path id="Trazado_223069" data-name="Trazado 223069" d="M271.815,143.454c-.167.344-1.461.036-3.023.059-1.561-.008-2.852.312-3.023-.03-.075-.163.177-.476.716-.769a5.255,5.255,0,0,1,4.606-.023C271.633,142.98,271.888,143.29,271.815,143.454Z" transform="translate(-265.757 -142.172)" fill="#263238"/>
                                    </g>
                                  </g>
                                </g>
                              </g>
                            </g>
                          </g>
                        </g>
                      </g>
                    </g>
                  </g>
                  <g id="Grupo_112646" data-name="Grupo 112646" transform="translate(29.015 14.85)">
                    <g id="Grupo_112645" data-name="Grupo 112645">
                      <g id="Grupo_112644" data-name="Grupo 112644">
                        <g id="Grupo_112643" data-name="Grupo 112643">
                          <g id="Grupo_112642" data-name="Grupo 112642">
                            <g id="Grupo_112641" data-name="Grupo 112641">
                              <g id="Grupo_112640" data-name="Grupo 112640">
                                <g id="Grupo_112639" data-name="Grupo 112639">
                                  <g id="Grupo_112638" data-name="Grupo 112638">
                                    <g id="Grupo_112637" data-name="Grupo 112637">
                                      <path id="Trazado_223070" data-name="Trazado 223070" d="M299.394,146.722c-.263.274-1.135-.131-2.222-.26-1.082-.167-2.031-.011-2.21-.346-.077-.161.1-.444.532-.685a3.239,3.239,0,0,1,3.571.488C299.418,146.266,299.512,146.587,299.394,146.722Z" transform="translate(-294.945 -145.101)" fill="#263238"/>
                                    </g>
                                  </g>
                                </g>
                              </g>
                            </g>
                          </g>
                        </g>
                      </g>
                    </g>
                  </g>
                  <g id="Grupo_112652" data-name="Grupo 112652" transform="translate(0 22.945)">
                    <g id="Grupo_112651" data-name="Grupo 112651">
                      <g id="Grupo_112650" data-name="Grupo 112650">
                        <g id="Grupo_112649" data-name="Grupo 112649">
                          <g id="Grupo_112648" data-name="Grupo 112648">
                            <g id="Grupo_112647" data-name="Grupo 112647">
                              <path id="Trazado_223071" data-name="Trazado 223071" d="M240.432,162.523c-.139-.078-5.692-2.357-6.121,3.508s5.547,5.086,5.569,4.919S240.432,162.523,240.432,162.523Z" transform="translate(-234.289 -162.023)" fill="#ffbe9d"/>
                            </g>
                          </g>
                        </g>
                      </g>
                    </g>
                  </g>
                  <g id="Grupo_112659" data-name="Grupo 112659" transform="translate(1.496 24.796)">
                    <g id="Grupo_112658" data-name="Grupo 112658">
                      <g id="Grupo_112657" data-name="Grupo 112657">
                        <g id="Grupo_112656" data-name="Grupo 112656">
                          <g id="Grupo_112655" data-name="Grupo 112655">
                            <g id="Grupo_112654" data-name="Grupo 112654">
                              <g id="Grupo_112653" data-name="Grupo 112653">
                                <path id="Trazado_223072" data-name="Trazado 223072" d="M239.883,170.616c-.024-.021-.108.064-.286.131a1.025,1.025,0,0,1-.765-.04,2.534,2.534,0,0,1-1-2.354,3.393,3.393,0,0,1,.393-1.442,1.184,1.184,0,0,1,.826-.728.521.521,0,0,1,.582.324c.067.17.021.284.052.3.015.016.133-.089.1-.335a.654.654,0,0,0-.2-.385.775.775,0,0,0-.554-.19,1.439,1.439,0,0,0-1.134.831,3.479,3.479,0,0,0-.474,1.609,2.659,2.659,0,0,0,1.3,2.641,1.1,1.1,0,0,0,.946-.087C239.862,170.757,239.9,170.628,239.883,170.616Z" transform="translate(-237.415 -165.893)" fill="#eb996e"/>
                              </g>
                            </g>
                          </g>
                        </g>
                      </g>
                    </g>
                  </g>
                  <g id="Grupo_112665" data-name="Grupo 112665" transform="translate(3.66)">
                    <g id="Grupo_112664" data-name="Grupo 112664">
                      <g id="Grupo_112663" data-name="Grupo 112663">
                        <g id="Grupo_112662" data-name="Grupo 112662">
                          <g id="Grupo_112661" data-name="Grupo 112661">
                            <g id="Grupo_112660" data-name="Grupo 112660">
                              <path id="Trazado_223073" data-name="Trazado 223073" d="M270.858,121.63c.983-.463-1.669-3.722-3.935-4.931-3.424-1.827-8.747-3.159-12.059-2.446-3.987.858-7.366,2.6-9.561,6.034a23.127,23.127,0,0,0-3.349,11.619,7.023,7.023,0,0,0,.6,3.638c.736,1.35,2.256,2.269,2.072,4.054a2.461,2.461,0,0,0,.494,1.831c1,1.212,2.383.223,3.056-.814,1.438-2.216,1.758-4.95,2.041-7.577a17.174,17.174,0,0,0-.012-5.6c-.224-1-.626-1.951-.794-2.958a3.533,3.533,0,0,1,.6-2.9,3.67,3.67,0,0,1,.508-.452,6.132,6.132,0,0,1,6.146-.765c3.229,1.382,8.76,3.491,10.306,2.464a9.064,9.064,0,0,0,2.8-2.5Z" transform="translate(-241.94 -114.057)" fill="#263238"/>
                            </g>
                          </g>
                        </g>
                      </g>
                    </g>
                  </g>
                </g>
              </g>
              <g id="Grupo_112673" data-name="Grupo 112673" transform="translate(8.302)">
                <g id="Grupo_112672" data-name="Grupo 112672">
                  <g id="Grupo_112671" data-name="Grupo 112671">
                    <g id="Grupo_112670" data-name="Grupo 112670">
                      <g id="Grupo_112669" data-name="Grupo 112669">
                        <g id="Grupo_112668" data-name="Grupo 112668">
                          <path id="Trazado_223074" data-name="Trazado 223074" d="M260.283,112.325a12.914,12.914,0,0,1,9.879,1.182,6.719,6.719,0,0,1,3.287,4.124,3.853,3.853,0,0,1-2.218,4.432l-.12.065c-2.558.682-4.164.242-6.6-.783-2.054-.862-3.838-2.279-5.9-3.131a11.953,11.953,0,0,0-6.967-.652A19.508,19.508,0,0,1,260.283,112.325Z" transform="translate(-251.644 -111.851)" fill="#263238"/>
                        </g>
                      </g>
                    </g>
                  </g>
                </g>
              </g>
            </g>
          </g>
          <g id="Grupo_112676" data-name="Grupo 112676" transform="translate(26.235 0.663)">
            <path id="Trazado_223075" data-name="Trazado 223075" d="M272.808,110.706a2.566,2.566,0,0,1,.6.059,9.682,9.682,0,0,1,1.579.43,10.063,10.063,0,0,1,2.161,1.114,8.374,8.374,0,0,1,2.154,2.061,7.975,7.975,0,0,1,1.184,2.737,14.335,14.335,0,0,1,.361,2.4c.048.688.05,1.246.043,1.631a2.605,2.605,0,0,1-.043.6,2.966,2.966,0,0,1-.055-.6c-.022-.383-.051-.938-.122-1.618a15.853,15.853,0,0,0-.408-2.359,8.038,8.038,0,0,0-1.165-2.649,8.45,8.45,0,0,0-2.08-2.016,10.671,10.671,0,0,0-2.095-1.139A21.252,21.252,0,0,0,272.808,110.706Z" transform="translate(-272.808 -110.7)" fill="#455a64"/>
          </g>
          <g id="Grupo_112677" data-name="Grupo 112677" transform="translate(31.636 0.34)">
            <path id="Trazado_223076" data-name="Trazado 223076" d="M284.1,110.028a2.118,2.118,0,0,1,.507.141,4.189,4.189,0,0,1,.579.217l.733.372a7.562,7.562,0,0,1,3.042,3.578,7.689,7.689,0,0,1,.623,2.542,8.612,8.612,0,0,1,.022,1.145,8.426,8.426,0,0,1-.134.988,5.07,5.07,0,0,1-.218.793,3.638,3.638,0,0,1-.236.573,2.1,2.1,0,0,1-.272.452,10.664,10.664,0,0,0,.552-1.849,7.212,7.212,0,0,0,.056-2.081,7.817,7.817,0,0,0-.624-2.466,7.772,7.772,0,0,0-2.905-3.524l-.7-.4a5.167,5.167,0,0,0-.554-.252A2.155,2.155,0,0,1,284.1,110.028Z" transform="translate(-284.098 -110.025)" fill="#455a64"/>
          </g>
        </g>
        <g id="Grupo_112688" data-name="Grupo 112688" transform="translate(0 45.844)">
          <path id="Trazado_223077" data-name="Trazado 223077" d="M244.185,221.235c0,.805,4.034,18.524,5.578,22.877s6.434,48,5.79,51.109-2.316,2.984-2.316,2.984-39.5-2.487-43.75-2.114-6.048.249-7.077-4.6.031-30.055-.87-36.149-.908-9.047-1.257-18.1c-.3-7.846,1.483-14.139,5.215-18.681s11.992-9.135,11.992-9.135l2.93-4.273,20.734,10.966.474-2.5,1.258,3.886Z" transform="translate(-200.251 -205.153)" fill="#455a64"/>
          <g id="Grupo_112679" data-name="Grupo 112679" transform="translate(4.646 32.265)" opacity="0.3">
            <path id="Trazado_223078" data-name="Trazado 223078" d="M258.164,310.429c-.345-.88-1.465-1.1-2.405-1.206-8.785-.974-17.929-3.168-24.345-9.247a45.525,45.525,0,0,1-6.4-8.136c-4.17-6.3-8.09-12.771-12.008-19.235l-3.043,1.151a122.988,122.988,0,0,0,6.742,23.216c3.042,7.489,5.4,14.739,13.1,17.189,4.98,1.584,14.436.37,19.646-.038a30.475,30.475,0,0,0,6.453-1.011,4.21,4.21,0,0,0,1.746-.888A1.722,1.722,0,0,0,258.164,310.429Z" transform="translate(-209.965 -272.605)"/>
          </g>
          <g id="Grupo_112684" data-name="Grupo 112684" transform="translate(3.112 11.05)">
            <path id="Trazado_223079" data-name="Trazado 223079" d="M207.22,248.86c.228.4,17.808,37.953,25.657,39.5s32.243,1.9,37,1,9.419-1.739,9.419-1.739,3.447-8.188.3-15.165l-6.552.207s-18.219-.983-20.793-1.687-4.8-3.117-7.113-2.989l-13.86-32.254s-9.007-8.364-15.441-5.79S205.335,245.506,207.22,248.86Z" transform="translate(-206.758 -228.879)" fill="#455a64"/>
            <g id="Grupo_112680" data-name="Grupo 112680" transform="translate(66.126 44.011)">
              <path id="Trazado_223080" data-name="Trazado 223080" d="M345.666,336.294a3.262,3.262,0,0,1,.13-.631c.1-.4.233-.984.37-1.708s.261-1.594.348-2.564a27.525,27.525,0,0,0,.068-3.165,25.886,25.886,0,0,0-.892-5.676c-.2-.71-.374-1.282-.51-1.671a3.152,3.152,0,0,1-.181-.618,3.222,3.222,0,0,1,.272.585,17.009,17.009,0,0,1,.588,1.657,23.116,23.116,0,0,1,.972,5.714,25,25,0,0,1-.089,3.2,22.372,22.372,0,0,1-.4,2.578,17,17,0,0,1-.45,1.7A3.174,3.174,0,0,1,345.666,336.294Z" transform="translate(-344.997 -320.26)" fill="#263238"/>
            </g>
            <g id="Grupo_112681" data-name="Grupo 112681" transform="translate(0.463 6.856)">
              <path id="Trazado_223081" data-name="Trazado 223081" d="M231.787,242.586s.093.192.262.572l.74,1.685,2.8,6.458,10.145,23.5-.1-.059a6,6,0,0,1,3.073.941c.956.527,1.882,1.14,2.9,1.6a9.746,9.746,0,0,0,3.3.767c1.154.137,2.332.238,3.527.342,4.781.4,9.847.706,15.122,1h-.01l6.552-.21.082,0,.033.075a16.875,16.875,0,0,1,1.312,7.52,24.612,24.612,0,0,1-1.608,7.743l-.023.062-.069.013-4.166.769-4.561.842a30.434,30.434,0,0,1-4.565.47c-3.031.138-6.019.15-8.954.135s-5.817-.085-8.638-.189-5.582-.246-8.272-.451c-1.345-.1-2.672-.226-3.979-.369a27.687,27.687,0,0,1-3.853-.64,6.7,6.7,0,0,1-1.668-.962,14.133,14.133,0,0,1-1.417-1.243,30.606,30.606,0,0,1-2.433-2.743,100.731,100.731,0,0,1-7.385-11.11c-4.121-7.041-7.1-12.938-9.137-17.014-1.015-2.042-1.784-3.636-2.3-4.72s-.774-1.659-.774-1.659.078.137.215.413l.6,1.224,2.342,4.7c2.068,4.062,5.065,9.945,9.2,16.968a101.264,101.264,0,0,0,7.4,11.07,30.283,30.283,0,0,0,2.42,2.72,13.885,13.885,0,0,0,1.4,1.223,6.5,6.5,0,0,0,1.613.929,28.005,28.005,0,0,0,3.8.623c1.3.141,2.628.268,3.971.363q4.028.3,8.263.442c2.819.1,5.7.168,8.631.182s5.917,0,8.94-.138a30.19,30.19,0,0,0,4.531-.467l4.562-.842,4.167-.769-.093.074a24.409,24.409,0,0,0,1.591-7.656,16.64,16.64,0,0,0-1.287-7.411l.115.072-6.552.2h-.011c-5.277-.3-10.343-.616-15.128-1.018-1.2-.106-2.375-.209-3.534-.348-.58-.066-1.153-.141-1.723-.249a6.451,6.451,0,0,1-1.636-.542c-1.036-.475-1.963-1.093-2.909-1.617a5.817,5.817,0,0,0-2.963-.922l-.069,0-.027-.063-10.066-23.535-2.755-6.479-.713-1.7C231.862,242.786,231.787,242.586,231.787,242.586Z" transform="translate(-207.725 -242.586)" fill="#263238"/>
            </g>
            <g id="Grupo_112682" data-name="Grupo 112682" transform="translate(2.441)">
              <path id="Trazado_223082" data-name="Trazado 223082" d="M232.109,232.577c-.017.015-.245-.226-.683-.631A13.171,13.171,0,0,0,226,228.952a12.2,12.2,0,0,0-8.872.887,13.169,13.169,0,0,0-4.724,4.009c-.349.484-.525.765-.544.754a.882.882,0,0,1,.106-.217c.081-.135.185-.347.358-.593a11.6,11.6,0,0,1,1.629-1.956,12.527,12.527,0,0,1,15.553-1.555,11.575,11.575,0,0,1,1.985,1.6c.218.207.361.394.468.51A.894.894,0,0,1,232.109,232.577Z" transform="translate(-211.861 -228.253)" fill="#263238"/>
            </g>
            <g id="Grupo_112683" data-name="Grupo 112683" transform="translate(36.318 39.138)">
              <path id="Trazado_223083" data-name="Trazado 223083" d="M284.7,310.074a32.929,32.929,0,0,1-2.007,5.361,33.034,33.034,0,0,1,2.007-5.361Z" transform="translate(-282.682 -310.073)" fill="#263238"/>
            </g>
          </g>
          <g id="Grupo_112685" data-name="Grupo 112685" transform="translate(72.336 56.324)">
            <path id="Trazado_223084" data-name="Trazado 223084" d="M352.427,322.95c0-.014.067-.033.18.007a.685.685,0,0,1,.353.345.754.754,0,0,1-.018.745.861.861,0,0,1-.832.385.807.807,0,0,1-.627-.669.771.771,0,0,1,.239-.707.63.63,0,0,1,.471-.154c.115.011.172.041.169.056.008.047-.279-.018-.518.224a.611.611,0,0,0-.136.536.6.6,0,0,0,.443.466.656.656,0,0,0,.6-.266.59.59,0,0,0,.047-.548C352.676,323.03,352.417,322.982,352.427,322.95Z" transform="translate(-351.472 -322.901)" fill="#263238"/>
          </g>
          <g id="Grupo_112686" data-name="Grupo 112686" transform="translate(18.542 4.842)">
            <path id="Trazado_223085" data-name="Trazado 223085" d="M261.871,222.648a3.305,3.305,0,0,1-.473-.244l-1.308-.748.092-.041c-.258,1.308-.508,3.232-.948,5.537l-.029.153-.133-.084c-1.925-1.213-4.235-2.6-6.7-4.089-1.837-1.1-3.555-2.21-5.136-3.169s-3.042-1.776-4.265-2.461l-2.9-1.615-.788-.443a1.505,1.505,0,0,1-.267-.168,1.478,1.478,0,0,1,.29.124l.81.4c.7.355,1.707.88,2.942,1.546s2.7,1.476,4.3,2.419l5.148,3.153c2.462,1.489,4.768,2.888,6.684,4.121l-.163.068c.458-2.287.741-4.214,1.037-5.518l.02-.086.073.045,1.278.8A3.3,3.3,0,0,1,261.871,222.648Z" transform="translate(-239.014 -215.275)" fill="#263238"/>
          </g>
          <g id="Grupo_112687" data-name="Grupo 112687" transform="translate(21.456 6.392)" opacity="0.3">
            <path id="Trazado_223086" data-name="Trazado 223086" d="M245.106,218.515l10.82,8.062a27.075,27.075,0,0,0,7.645,4.484l-.156-7.519-1.107,5.278Z" transform="translate(-245.106 -218.515)"/>
          </g>
        </g>
      </g>
      <g id="Grupo_112798" data-name="Grupo 112798" transform="translate(98.281 0)">
        <g id="Grupo_112782" data-name="Grupo 112782" transform="translate(30.212)">
          <g id="Grupo_112767" data-name="Grupo 112767">
            <g id="Grupo_112766" data-name="Grupo 112766">
              <g id="Grupo_112691" data-name="Grupo 112691">
                <g id="Grupo_112690" data-name="Grupo 112690">
                  <path id="Trazado_223087" data-name="Trazado 223087" d="M473.251,118.232a3.878,3.878,0,0,1-1.787-7.508,4.035,4.035,0,0,1,3.386-6.869,4.828,4.828,0,0,1,7.2-4.1,5.429,5.429,0,0,1,6.681-.263,3.861,3.861,0,0,1,3.534,6.484" transform="translate(-468.87 -98.473)" fill="#263238"/>
                </g>
              </g>
              <g id="Grupo_112765" data-name="Grupo 112765" transform="translate(3.035 1.751)">
                <g id="Grupo_112759" data-name="Grupo 112759" transform="translate(0 2.031)">
                  <g id="Grupo_112694" data-name="Grupo 112694" transform="translate(0 1.052)">
                    <g id="Grupo_112693" data-name="Grupo 112693">
                      <g id="Grupo_112692" data-name="Grupo 112692">
                        <path id="Trazado_223088" data-name="Trazado 223088" d="M476.008,124.058A16.453,16.453,0,0,1,492.1,108.6l.852-.018c9.2.35,14.037,8.356,13.434,17.539l.547,32.764h0L484.584,166.9l-.2-11.8s-8.859-1.193-9.147-10.02C475.1,140.821,475.529,132.019,476.008,124.058Z" transform="translate(-475.215 -108.578)" fill="#ae7461"/>
                      </g>
                    </g>
                  </g>
                  <g id="Grupo_112699" data-name="Grupo 112699" transform="translate(9.101 43.945)">
                    <g id="Grupo_112698" data-name="Grupo 112698">
                      <g id="Grupo_112697" data-name="Grupo 112697">
                        <g id="Grupo_112696" data-name="Grupo 112696">
                          <g id="Grupo_112695" data-name="Grupo 112695">
                            <path id="Trazado_223089" data-name="Trazado 223089" d="M494.241,201.87a21.42,21.42,0,0,0,11.5-3.622s-2.591,6.409-11.418,5.794Z" transform="translate(-494.241 -198.248)" fill="#6f4439"/>
                          </g>
                        </g>
                      </g>
                    </g>
                  </g>
                  <g id="Grupo_112707" data-name="Grupo 112707" transform="translate(3.273 23.35)">
                    <g id="Grupo_112706" data-name="Grupo 112706">
                      <g id="Grupo_112705" data-name="Grupo 112705">
                        <g id="Grupo_112704" data-name="Grupo 112704">
                          <g id="Grupo_112703" data-name="Grupo 112703">
                            <g id="Grupo_112702" data-name="Grupo 112702">
                              <g id="Grupo_112701" data-name="Grupo 112701">
                                <g id="Grupo_112700" data-name="Grupo 112700">
                                  <path id="Trazado_223090" data-name="Trazado 223090" d="M482.058,156.358A1.26,1.26,0,0,0,483.3,157.6a1.206,1.206,0,0,0,1.277-1.163,1.262,1.262,0,0,0-1.24-1.248A1.207,1.207,0,0,0,482.058,156.358Z" transform="translate(-482.058 -155.192)" fill="#263238"/>
                                </g>
                              </g>
                            </g>
                          </g>
                        </g>
                      </g>
                    </g>
                  </g>
                  <g id="Grupo_112716" data-name="Grupo 112716" transform="translate(2.758 19.436)">
                    <g id="Grupo_112715" data-name="Grupo 112715">
                      <g id="Grupo_112714" data-name="Grupo 112714">
                        <g id="Grupo_112713" data-name="Grupo 112713">
                          <g id="Grupo_112712" data-name="Grupo 112712">
                            <g id="Grupo_112711" data-name="Grupo 112711">
                              <g id="Grupo_112710" data-name="Grupo 112710">
                                <g id="Grupo_112709" data-name="Grupo 112709">
                                  <g id="Grupo_112708" data-name="Grupo 112708">
                                    <path id="Trazado_223091" data-name="Trazado 223091" d="M481,148.387c.16.162,1.1-.565,2.457-.589,1.355-.044,2.365.634,2.509.465.071-.075-.095-.369-.534-.675a3.463,3.463,0,0,0-2.013-.576,3.325,3.325,0,0,0-1.952.674C481.058,148.015,480.923,148.315,481,148.387Z" transform="translate(-480.981 -147.011)" fill="#263238"/>
                                  </g>
                                </g>
                              </g>
                            </g>
                          </g>
                        </g>
                      </g>
                    </g>
                  </g>
                  <g id="Grupo_112724" data-name="Grupo 112724" transform="translate(15.635 23.35)">
                    <g id="Grupo_112723" data-name="Grupo 112723">
                      <g id="Grupo_112722" data-name="Grupo 112722">
                        <g id="Grupo_112721" data-name="Grupo 112721">
                          <g id="Grupo_112720" data-name="Grupo 112720">
                            <g id="Grupo_112719" data-name="Grupo 112719">
                              <g id="Grupo_112718" data-name="Grupo 112718">
                                <g id="Grupo_112717" data-name="Grupo 112717">
                                  <path id="Trazado_223092" data-name="Trazado 223092" d="M507.9,156.357a1.261,1.261,0,0,0,1.242,1.247,1.206,1.206,0,0,0,1.276-1.163,1.262,1.262,0,0,0-1.24-1.248A1.207,1.207,0,0,0,507.9,156.357Z" transform="translate(-507.901 -155.192)" fill="#263238"/>
                                </g>
                              </g>
                            </g>
                          </g>
                        </g>
                      </g>
                    </g>
                  </g>
                  <g id="Grupo_112733" data-name="Grupo 112733" transform="translate(16.1 19.418)">
                    <g id="Grupo_112732" data-name="Grupo 112732">
                      <g id="Grupo_112731" data-name="Grupo 112731">
                        <g id="Grupo_112730" data-name="Grupo 112730">
                          <g id="Grupo_112729" data-name="Grupo 112729">
                            <g id="Grupo_112728" data-name="Grupo 112728">
                              <g id="Grupo_112727" data-name="Grupo 112727">
                                <g id="Grupo_112726" data-name="Grupo 112726">
                                  <g id="Grupo_112725" data-name="Grupo 112725">
                                    <path id="Trazado_223093" data-name="Trazado 223093" d="M508.894,148.349c.16.162,1.1-.565,2.458-.589,1.355-.043,2.364.634,2.508.465.071-.075-.093-.368-.535-.675a3.46,3.46,0,0,0-2.012-.576,3.325,3.325,0,0,0-1.952.674C508.952,147.976,508.815,148.277,508.894,148.349Z" transform="translate(-508.873 -146.973)" fill="#263238"/>
                                  </g>
                                </g>
                              </g>
                            </g>
                          </g>
                        </g>
                      </g>
                    </g>
                  </g>
                  <g id="Grupo_112741" data-name="Grupo 112741" transform="translate(7.925 19.639)">
                    <g id="Grupo_112740" data-name="Grupo 112740">
                      <g id="Grupo_112739" data-name="Grupo 112739">
                        <g id="Grupo_112738" data-name="Grupo 112738">
                          <g id="Grupo_112737" data-name="Grupo 112737">
                            <g id="Grupo_112736" data-name="Grupo 112736">
                              <g id="Grupo_112735" data-name="Grupo 112735">
                                <g id="Grupo_112734" data-name="Grupo 112734">
                                  <path id="Trazado_223094" data-name="Trazado 223094" d="M495.259,158.752a8.951,8.951,0,0,0-2.211-.353c-.347-.029-.677-.091-.74-.326a1.766,1.766,0,0,1,.211-1.032l.971-2.659a45.35,45.35,0,0,0,2.161-6.947,45.442,45.442,0,0,0-2.715,6.757q-.485,1.4-.927,2.674a2.006,2.006,0,0,0-.152,1.363.869.869,0,0,0,.58.5,2.351,2.351,0,0,0,.59.07A8.886,8.886,0,0,0,495.259,158.752Z" transform="translate(-491.782 -147.435)" fill="#263238"/>
                                </g>
                              </g>
                            </g>
                          </g>
                        </g>
                      </g>
                    </g>
                  </g>
                  <g id="Grupo_112745" data-name="Grupo 112745" transform="translate(15.598 14.672)">
                    <g id="Grupo_112744" data-name="Grupo 112744">
                      <g id="Grupo_112743" data-name="Grupo 112743">
                        <g id="Grupo_112742" data-name="Grupo 112742">
                          <path id="Trazado_223095" data-name="Trazado 223095" d="M507.84,138.564c.186.34,1.341-.056,2.771-.132,1.429-.108,2.641.138,2.764-.222.053-.172-.208-.475-.729-.74a4.294,4.294,0,0,0-2.157-.408,4.142,4.142,0,0,0-2.06.678C507.961,138.068,507.757,138.4,507.84,138.564Z" transform="translate(-507.822 -137.052)" fill="#263238"/>
                        </g>
                      </g>
                    </g>
                  </g>
                  <g id="Grupo_112749" data-name="Grupo 112749" transform="translate(2.472 14.549)">
                    <g id="Grupo_112748" data-name="Grupo 112748">
                      <g id="Grupo_112747" data-name="Grupo 112747">
                        <g id="Grupo_112746" data-name="Grupo 112746">
                          <path id="Trazado_223096" data-name="Trazado 223096" d="M480.428,138.258c.292.3,1.405-.041,2.752-.083,1.345-.081,2.491.156,2.747-.171.112-.159-.074-.464-.578-.746a4.377,4.377,0,0,0-2.248-.459,4.317,4.317,0,0,0-2.183.664C480.449,137.79,480.3,138.11,480.428,138.258Z" transform="translate(-480.383 -136.794)" fill="#263238"/>
                        </g>
                      </g>
                    </g>
                  </g>
                  <g id="Grupo_112752" data-name="Grupo 112752" transform="translate(1.536)">
                    <g id="Grupo_112751" data-name="Grupo 112751">
                      <g id="Grupo_112750" data-name="Grupo 112750">
                        <path id="Trazado_223097" data-name="Trazado 223097" d="M478.45,118.844s2.216-5.577,4.856-6.921c3.2-1.628,4.658,1.887,7.716.964s6.109-2.484,9.3-.17c3.494,2.532,1.919,4.391,2.211,8.3,1.185,15.865,4.177,20.3,4.85,12.8.074-.821,2.335-1.52,2.6-4.989.346-4.5.408-9.955-.66-13.121-.9-2.669-2.468-4.493-5.256-6.483-4.4-3.141-10.357-3.09-14.393-2.6S477.94,111.928,478.45,118.844Z" transform="translate(-478.426 -106.379)" fill="#263238"/>
                      </g>
                    </g>
                  </g>
                  <g id="Grupo_112755" data-name="Grupo 112755" transform="translate(29.801 24.844)">
                    <g id="Grupo_112754" data-name="Grupo 112754">
                      <g id="Grupo_112753" data-name="Grupo 112753">
                        <path id="Trazado_223098" data-name="Trazado 223098" d="M537.64,160.686a2.4,2.4,0,0,1,2.541-2.362c1.65.123,3.5,1.021,3.462,4.426-.07,6.04-6.119,4.724-6.128,4.551C537.509,167.182,537.588,163.213,537.64,160.686Z" transform="translate(-537.514 -158.317)" fill="#ae7461"/>
                      </g>
                    </g>
                  </g>
                  <g id="Grupo_112758" data-name="Grupo 112758" transform="translate(31.136 26.804)">
                    <g id="Grupo_112757" data-name="Grupo 112757">
                      <g id="Grupo_112756" data-name="Grupo 112756">
                        <path id="Trazado_223099" data-name="Trazado 223099" d="M540.311,167.18c.027-.019.1.075.281.158a1.052,1.052,0,0,0,.786.025,2.605,2.605,0,0,0,1.232-2.322,3.477,3.477,0,0,0-.277-1.51,1.215,1.215,0,0,0-.782-.817.536.536,0,0,0-.625.281c-.083.168-.046.289-.078.3-.017.015-.128-.1-.077-.352a.672.672,0,0,1,.242-.376.794.794,0,0,1,.584-.147,1.479,1.479,0,0,1,1.088.949,3.568,3.568,0,0,1,.345,1.688,2.73,2.73,0,0,1-1.565,2.591,1.127,1.127,0,0,1-.961-.171C540.32,167.326,540.29,167.191,540.311,167.18Z" transform="translate(-540.305 -162.414)" fill="#6f4439"/>
                      </g>
                    </g>
                  </g>
                </g>
                <g id="Grupo_112761" data-name="Grupo 112761" transform="translate(5.475)">
                  <g id="Grupo_112760" data-name="Grupo 112760">
                    <path id="Trazado_223100" data-name="Trazado 223100" d="M510.756,119.684a5.73,5.73,0,0,1-2.533,1.233,1.969,1.969,0,0,1-2.212-1.34c-.08-.419.013-.908-.27-1.227-.337-.381-.943-.247-1.447-.183a3.855,3.855,0,0,1-4.055-2.681,1.618,1.618,0,0,1-2.165.249,8.667,8.667,0,0,1-1.679-1.725,2.483,2.483,0,0,0-2.093-.994,5.961,5.961,0,0,1-1.307.316c-.795-.055-1.2-.975-1.337-1.759s-.248-1.7-.927-2.114a3.16,3.16,0,0,0-2.16-.016c-.727.122-1.673-.03-1.875-.74a1.434,1.434,0,0,1,.248-1.1,3.91,3.91,0,0,1,4.584-1.574,5.3,5.3,0,0,1,9.714-1.225,5.379,5.379,0,0,1,8.636,1.786,3.9,3.9,0,0,1,4.51,5.58,3.7,3.7,0,0,1,2.1,2.906,2.12,2.12,0,0,1-2.356,2.214,2.159,2.159,0,0,1-3.689,2.229" transform="translate(-486.66 -102.133)" fill="#263238"/>
                  </g>
                </g>
                <g id="Grupo_112764" data-name="Grupo 112764" transform="translate(9.926 5.68)">
                  <g id="Grupo_112763" data-name="Grupo 112763">
                    <g id="Grupo_112762" data-name="Grupo 112762">
                      <path id="Trazado_223101" data-name="Trazado 223101" d="M495.97,114.008c-.005,0,0,.038,0,.111s.016.182.045.321a3.8,3.8,0,0,0,.462,1.154,4.315,4.315,0,0,0,1.368,1.4,4.023,4.023,0,0,0,2.487.655l-.105-.132a2.186,2.186,0,0,0,.156,1.664,6.237,6.237,0,0,0,1.063,1.464,4.509,4.509,0,0,0,.69.679,2.106,2.106,0,0,0,.964.335,2.2,2.2,0,0,0,1.929-.736l-.227-.06a4.529,4.529,0,0,0,1.984,3.093,3.3,3.3,0,0,0,2,.609,5.964,5.964,0,0,0,1.944-.468l-.163-.068a4.758,4.758,0,0,0,1.467,1.834,2.532,2.532,0,0,0,2.114.53,3.324,3.324,0,0,0,2.507-2.654l-.135.066a3.109,3.109,0,0,0,2.08.263,3.377,3.377,0,0,0,1.433-.674,2.931,2.931,0,0,0,.66-.751,1.432,1.432,0,0,0,.146-.315,3.625,3.625,0,0,1-.869.986,3.354,3.354,0,0,1-1.4.611,2.978,2.978,0,0,1-1.964-.282l-.114-.062-.021.128a3.137,3.137,0,0,1-2.374,2.461,2.3,2.3,0,0,1-1.92-.5,4.533,4.533,0,0,1-1.378-1.741l-.05-.111-.113.043a5.751,5.751,0,0,1-1.86.446,3.049,3.049,0,0,1-1.843-.567,4.283,4.283,0,0,1-1.876-2.915l-.044-.285-.183.225a1.96,1.96,0,0,1-1.7.649,1.876,1.876,0,0,1-.854-.29,4.419,4.419,0,0,1-.65-.636,6.105,6.105,0,0,1-1.039-1.4,1.982,1.982,0,0,1-.162-1.506l.046-.145-.151.013a3.881,3.881,0,0,1-2.383-.59,4.3,4.3,0,0,1-1.358-1.324A4.654,4.654,0,0,1,495.97,114.008Z" transform="translate(-495.966 -114.007)" fill="#455a64"/>
                    </g>
                  </g>
                </g>
              </g>
            </g>
          </g>
          <g id="Grupo_112781" data-name="Grupo 112781" transform="translate(15.55 35.204)">
            <g id="Grupo_112780" data-name="Grupo 112780">
              <g id="Grupo_112779" data-name="Grupo 112779">
                <g id="Grupo_112778" data-name="Grupo 112778">
                  <g id="Grupo_112777" data-name="Grupo 112777">
                    <g id="Grupo_112776" data-name="Grupo 112776">
                      <g id="Grupo_112775" data-name="Grupo 112775">
                        <g id="Grupo_112774" data-name="Grupo 112774">
                          <g id="Grupo_112773" data-name="Grupo 112773">
                            <g id="Grupo_112772" data-name="Grupo 112772">
                              <g id="Grupo_112771" data-name="Grupo 112771">
                                <g id="Grupo_112770" data-name="Grupo 112770">
                                  <g id="Grupo_112769" data-name="Grupo 112769">
                                    <g id="Grupo_112768" data-name="Grupo 112768">
                                      <path id="Trazado_223102" data-name="Trazado 223102" d="M504.942,172.069c-.215.025.034,1.449-1.006,2.674s-2.582,1.337-2.558,1.538c0,.093.386.217,1.03.121a3.6,3.6,0,0,0,2.15-1.2,3.136,3.136,0,0,0,.752-2.226C505.26,172.368,505.038,172.044,504.942,172.069Z" transform="translate(-501.378 -172.068)" fill="#263238"/>
                                    </g>
                                  </g>
                                </g>
                              </g>
                            </g>
                          </g>
                        </g>
                      </g>
                    </g>
                  </g>
                </g>
              </g>
            </g>
          </g>
        </g>
        <g id="Grupo_112797" data-name="Grupo 112797" transform="translate(0 47.442)">
          <g id="Grupo_112783" data-name="Grupo 112783" transform="translate(0 44.429)">
            <path id="Trazado_223103" data-name="Trazado 223103" d="M405.711,302.562c.765-.306,26.045-3.344,26.045-3.344l10.257-8.684-.963,25.139-32.279,3.112Z" transform="translate(-405.711 -290.534)" fill="#fd8f25"/>
            <path id="Trazado_223104" data-name="Trazado 223104" d="M469.024,298.561c-.308.153-2.841,2.4-2.841,2.4l.773,19.358Z" transform="translate(-437.256 -294.721)" fill="#fd8f25" opacity="0.3"/>
          </g>
          <g id="Grupo_112792" data-name="Grupo 112792" transform="translate(27.182)">
            <path id="Trazado_223105" data-name="Trazado 223105" d="M515.6,393.731H472.9s2.261,12.048,3.1,17.6a71.118,71.118,0,0,0,2.061,9.491H516.73s2.887-7,3.389-11.493S515.6,393.731,515.6,393.731Z" transform="translate(-467.941 -299.938)" fill="#263238"/>
            <path id="Trazado_223106" data-name="Trazado 223106" d="M465.669,396.771a161.665,161.665,0,0,0,0,25.637H480.46V411.44Z" transform="translate(-463.893 -301.524)" fill="#263238"/>
            <path id="Trazado_223107" data-name="Trazado 223107" d="M483.426,225.58l4.6-10.077.572-6.224s8.824-5.546,13.01-7.639a91.456,91.456,0,0,1,9.826-3.988v5.873Z" transform="translate(-473.433 -197.653)" fill="#ebebeb"/>
            <path id="Trazado_223108" data-name="Trazado 223108" d="M510.991,279.337s2.5-33.589,2.668-36.085c0,0,1.476-17.947-1.711-24.78s-10.317-12.84-10.317-12.84l-.656-3.588-13.928,8.779-6.438,5.6a64.329,64.329,0,0,0-6.075,7.559,26.668,26.668,0,0,0-4.764,9.873c-.331,1.5-4.163,19.375-4.277,31.839,0,0-.589,10.873-1.217,17.032-.777,7.623-1.962,25-1.7,35.3l45.134-1.379c11.154-1.7,9.192-2.81,9.192-2.81Z" transform="translate(-462.535 -199.944)" fill="#fd8f25"/>
            <g id="Grupo_112784" data-name="Grupo 112784" transform="translate(2.64 5.873)">
              <path id="Trazado_223109" data-name="Trazado 223109" d="M503.416,209.93s-.1.054-.313.143l-.921.385c-.394.189-.872.44-1.434.731-.539.333-1.182.679-1.848,1.153a51.26,51.26,0,0,0-9.917,9.166l-.026.03-.037.007-4.331.8.093-.108-.213,6.308,0,.049-.037.035a59.879,59.879,0,0,0-6.367,6.98,27.425,27.425,0,0,0-2.183,3.3l-.236.426-.18.444a7.753,7.753,0,0,0-.327.9c-.193.611-.383,1.218-.541,1.832-.668,2.439-1.22,4.82-1.736,7.088-1.028,4.539-1.883,8.642-2.593,12.089-1.416,6.9-2.214,11.176-2.214,11.176a6.877,6.877,0,0,1,.1-.785c.078-.513.21-1.266.382-2.235.35-1.938.877-4.738,1.563-8.191s1.526-7.561,2.542-12.105c.511-2.272,1.058-4.654,1.725-7.1.157-.614.348-1.226.542-1.844a7.925,7.925,0,0,1,.334-.922l.187-.459.239-.431a27.545,27.545,0,0,1,2.2-3.331,59.492,59.492,0,0,1,6.4-7.007l-.039.085c.078-2.185.155-4.3.227-6.308l0-.092.09-.016,4.333-.782-.063.037a50.136,50.136,0,0,1,10.012-9.134c.674-.468,1.325-.807,1.871-1.134.569-.285,1.054-.527,1.453-.707l.936-.357C503.3,209.963,503.416,209.93,503.416,209.93Z" transform="translate(-468.054 -209.93)" fill="#263238"/>
            </g>
            <g id="Grupo_112786" data-name="Grupo 112786" transform="translate(16.423 20.339)">
              <path id="Trazado_223110" data-name="Trazado 223110" d="M503.452,252.247l.542,44.819-6.825,43.652h17.993s8.177-33.144,10.082-40.109c1.849-6.763,4.62-40.806,4.865-42.478.1-.655,2.047-12.412-3.7-17.959" transform="translate(-497.024 -240.173)" fill="#fd8f25"/>
              <g id="Grupo_112785" data-name="Grupo 112785">
                <path id="Trazado_223111" data-name="Trazado 223111" d="M526.256,240.173s.13.123.376.374a9.972,9.972,0,0,1,.983,1.208,15.035,15.035,0,0,1,2.248,5.523,30.894,30.894,0,0,1,.342,9.457c-.27,1.836-.405,3.8-.6,5.89s-.39,4.3-.6,6.617c-.43,4.639-.914,9.721-1.5,15.174-.3,2.726-.612,5.545-1,8.444a68.986,68.986,0,0,1-1.585,8.885c-3.006,11.973-6.315,25.149-9.793,39l-.024.095H496.867l.022-.142c2.525-16.1,4.856-30.96,6.846-43.648v.017c-.146-13.572-.266-24.775-.35-32.591-.035-3.9-.063-6.958-.081-9.044-.006-1.037-.011-1.832-.014-2.374s.006-.812.006-.812.014.276.026.812.024,1.336.044,2.373c.032,2.086.078,5.141.137,9.043.1,7.816.255,19.019.437,32.59v.017c-1.978,12.69-4.294,27.553-6.8,43.655l-.122-.142,16.052,0H515l-.121.095c3.486-13.854,6.8-27.03,9.815-39a68.9,68.9,0,0,0,1.589-8.854c.388-2.895.7-5.713,1.009-8.437.594-5.45,1.089-10.531,1.529-15.168q.326-3.479.619-6.616c.2-2.083.349-4.068.624-5.891a30.983,30.983,0,0,0-.3-9.422,15.181,15.181,0,0,0-2.194-5.514,10.7,10.7,0,0,0-.961-1.219C526.374,240.309,526.256,240.173,526.256,240.173Z" transform="translate(-496.867 -240.173)" fill="#263238"/>
              </g>
            </g>
            <g id="Grupo_112787" data-name="Grupo 112787" transform="translate(23.366 77.646)">
              <path id="Trazado_223112" data-name="Trazado 223112" d="M520.382,363.972a7.361,7.361,0,0,1-1.391-.4c-.846-.288-2-.729-3.248-1.281s-2.349-1.116-3.13-1.549a7.348,7.348,0,0,1-1.231-.762,9.59,9.59,0,0,1,1.313.605c.8.393,1.908.927,3.149,1.478s2.381,1.015,3.208,1.344A9.551,9.551,0,0,1,520.382,363.972Z" transform="translate(-511.382 -359.974)" fill="#263238"/>
            </g>
            <g id="Grupo_112788" data-name="Grupo 112788" transform="translate(1.558 39.518)">
              <path id="Trazado_223113" data-name="Trazado 223113" d="M465.8,325.364a.408.408,0,0,1,0-.117c0-.092.007-.205.012-.343q.026-.483.071-1.318c.074-1.166.179-2.816.309-4.845.276-4.09.67-9.74,1.222-15.972s1.189-11.864,1.707-15.931c.261-2.033.482-3.678.648-4.812q.124-.827.2-1.305l.057-.339a.42.42,0,0,1,.028-.114.414.414,0,0,1,0,.118c-.009.091-.02.2-.033.342l-.149,1.311c-.137,1.16-.331,2.8-.569,4.821-.474,4.071-1.082,9.7-1.635,15.931s-.973,11.875-1.294,15.962l-.388,4.839c-.049.555-.088.994-.117,1.315-.015.138-.027.25-.037.342A.4.4,0,0,1,465.8,325.364Z" transform="translate(-465.793 -280.267)" fill="#263238"/>
            </g>
            <g id="Grupo_112789" data-name="Grupo 112789" transform="translate(33.824 8.039)">
              <path id="Trazado_223114" data-name="Trazado 223114" d="M537.424,221.1a16.722,16.722,0,0,0-4.176-6.644,4.038,4.038,0,0,1,.912.738,11.941,11.941,0,0,1,2.995,4.765A4,4,0,0,1,537.424,221.1Z" transform="translate(-533.245 -214.459)" fill="#263238"/>
            </g>
            <g id="Grupo_112790" data-name="Grupo 112790" transform="translate(3.671 68.965)">
              <path id="Trazado_223115" data-name="Trazado 223115" d="M472.79,343.231c.013,0,.058.11.044.326a1.3,1.3,0,0,1-.391.811,1.24,1.24,0,0,1-1.3.295,1.44,1.44,0,0,1-.667-.477,1.32,1.32,0,0,1-.27-.841,1.74,1.74,0,0,1,.346-1.043,1.073,1.073,0,0,1,.419-.331c.172-.064.3-.094.44-.139l.018-.005h.016a1.505,1.505,0,0,1,.868.25,1.12,1.12,0,0,1,.4.57,1.136,1.136,0,0,1,.073.585c-.029.006-.056-.21-.192-.538a1.038,1.038,0,0,0-.384-.469,1.37,1.37,0,0,0-.766-.179l.033-.005c-.13.046-.3.1-.413.143a.85.85,0,0,0-.322.267,1.541,1.541,0,0,0-.287.9,1.141,1.141,0,0,0,.764,1.1,1.064,1.064,0,0,0,1.1-.207,1.31,1.31,0,0,0,.416-.7A2.487,2.487,0,0,1,472.79,343.231Z" transform="translate(-470.209 -341.827)" fill="#263238"/>
            </g>
            <g id="Grupo_112791" data-name="Grupo 112791" transform="translate(3.001 84.813)">
              <path id="Trazado_223116" data-name="Trazado 223116" d="M471.391,376.361c.013,0,.058.11.044.326a1.3,1.3,0,0,1-.391.811,1.239,1.239,0,0,1-1.3.295,1.436,1.436,0,0,1-.667-.477,1.318,1.318,0,0,1-.27-.841,1.737,1.737,0,0,1,.346-1.042,1.07,1.07,0,0,1,.42-.331c.172-.064.3-.094.44-.139l.018-.006h.016a1.509,1.509,0,0,1,.868.249,1.33,1.33,0,0,1,.475,1.155c-.029.006-.055-.21-.193-.538a1.037,1.037,0,0,0-.384-.469,1.369,1.369,0,0,0-.766-.179l.033-.005c-.13.046-.3.1-.413.143a.85.85,0,0,0-.322.267,1.542,1.542,0,0,0-.288.9,1.142,1.142,0,0,0,.765,1.1,1.063,1.063,0,0,0,1.1-.207,1.309,1.309,0,0,0,.416-.7A2.514,2.514,0,0,1,471.391,376.361Z" transform="translate(-468.81 -374.957)" fill="#263238"/>
            </g>
          </g>
          <g id="Grupo_112793" data-name="Grupo 112793" transform="translate(59.091 15.944)">
            <path id="Trazado_223117" data-name="Trazado 223117" d="M541.119,232.727c-.025.043-.619-.338-1.669-.74a11.617,11.617,0,0,0-1.893-.539,11.69,11.69,0,0,0-4.788.066,11.609,11.609,0,0,0-1.878.591c-1.039.431-1.622.828-1.648.785a1.9,1.9,0,0,1,.4-.3,4.2,4.2,0,0,1,.5-.3,7.039,7.039,0,0,1,.686-.348,10.467,10.467,0,0,1,1.9-.653,11.1,11.1,0,0,1,4.885-.067,10.431,10.431,0,0,1,1.913.6,7,7,0,0,1,.7.329,4.19,4.19,0,0,1,.5.288A1.873,1.873,0,0,1,541.119,232.727Z" transform="translate(-529.243 -230.984)" fill="#263238"/>
          </g>
          <g id="Grupo_112794" data-name="Grupo 112794" transform="translate(31.555 13.867)" opacity="0.3">
            <path id="Trazado_223118" data-name="Trazado 223118" d="M471.678,272.386c1.949-2.836,2.664-5.511,3.706-8.791,1.547-4.874,1.979-10.382,4.408-14.882,1.43-2.651,3.112-5.37,5.6-7.069,2.425-1.657,2.784-3.765,2.737-9.465a6.671,6.671,0,0,0,3.783-1.553,9.648,9.648,0,0,0,2.126-3.984c-1.216,1.323-3.244,3.516-3.244,3.516s-4.4.817-4.332.789c-.108,2.193-.112,4.116-.22,6.308,0,0-8.434,8.948-9.09,10.747S471.678,272.386,471.678,272.386Z" transform="translate(-471.678 -226.642)"/>
          </g>
          <g id="Grupo_112795" data-name="Grupo 112795" transform="translate(62.869 43.309)" opacity="0.3">
            <path id="Trazado_223119" data-name="Trazado 223119" d="M537.141,360.36c10.688-20.231,14.01-46.831,13.374-72.169,0,0-3.068,30.8-4.1,36.085C545.386,329.525,537.141,360.36,537.141,360.36Z" transform="translate(-537.141 -288.191)"/>
          </g>
          <g id="Grupo_112796" data-name="Grupo 112796" transform="translate(42.274 2.616)">
            <path id="Trazado_223120" data-name="Trazado 223120" d="M516.313,203.122a1.341,1.341,0,0,1-.239.183l-.713.484-2.644,1.738-8.774,5.654-3.786,2.414.008-.006-1.209.936a9.77,9.77,0,0,0-1.08.922c-.663.64-1.252,1.262-1.783,1.827l-.1.1-.055-.126-1.38-3.191c-.149-.359-.27-.649-.364-.874a.166.166,0,1,1,.048-.021l.408.853,1.455,3.158-.151-.024c.523-.575,1.106-1.206,1.768-1.858a9.841,9.841,0,0,1,1.094-.951l1.2-.94,0,0,0,0,3.781-2.425,8.815-5.594,2.686-1.671.737-.444A1.394,1.394,0,0,1,516.313,203.122Z" transform="translate(-494.087 -203.122)" fill="#263238"/>
          </g>
        </g>
      </g>
    </g>
    <g id="Speech_Bubble" data-name="Speech Bubble" transform="translate(170.073 62.149)">
      <g id="Grupo_112846" data-name="Grupo 112846">
        <g id="Grupo_112839" data-name="Grupo 112839" transform="translate(15.079)">
          <g id="Grupo_112838" data-name="Grupo 112838">
            <g id="Grupo_112837" data-name="Grupo 112837">
              <g id="Grupo_112836" data-name="Grupo 112836">
                <g id="Grupo_112835" data-name="Grupo 112835">
                  <g id="Grupo_112831" data-name="Grupo 112831" transform="translate(0.109 0.115)">
                    <g id="Grupo_112830" data-name="Grupo 112830">
                      <path id="Trazado_223145" data-name="Trazado 223145" d="M405.991,120.58l-5.976-.7a19.212,19.212,0,1,1,3.873-5.69l.007-.009Z" transform="translate(-367.176 -87.226)" fill="#fff"/>
                    </g>
                  </g>
                  <g id="Grupo_112834" data-name="Grupo 112834">
                    <g id="Grupo_112833" data-name="Grupo 112833">
                      <g id="Grupo_112832" data-name="Grupo 112832">
                        <path id="Trazado_223146" data-name="Trazado 223146" d="M405.872,120.454s-.054-.146-.148-.423l-.416-1.226-1.589-4.729.1.019-.007.009a.06.06,0,0,1-.084.01.061.061,0,0,1-.017-.071,19.178,19.178,0,0,0,1.553-9.322,18.819,18.819,0,0,0-.477-2.919,21.565,21.565,0,0,0-1.019-2.994,19.049,19.049,0,0,0-36.4,5,19.407,19.407,0,0,0,.882,8.723,18.771,18.771,0,0,0,4.339,7.025,19.12,19.12,0,0,0,13.11,5.781l.818.011a5.174,5.174,0,0,0,.8-.026l1.565-.138a26.47,26.47,0,0,0,2.907-.638,19.116,19.116,0,0,0,8.061-4.833.058.058,0,0,1,.047-.016l4.422.552,1.149.147c.26.033.4.055.4.055s-.122-.009-.376-.035l-1.136-.12-4.47-.486.047-.017a19.106,19.106,0,0,1-8.091,4.923,26.527,26.527,0,0,1-2.931.657l-1.581.146a5.274,5.274,0,0,1-.812.029l-.827-.007a19.305,19.305,0,0,1-13.28-5.814,18.982,18.982,0,0,1-4.408-7.112,19.638,19.638,0,0,1-.9-8.842,19.193,19.193,0,0,1,3.4-8.662,8.578,8.578,0,0,1,.708-.929l.741-.9.818-.821a7.924,7.924,0,0,1,.846-.783l.886-.73c.288-.252.625-.436.933-.656s.622-.435.95-.621l1-.534a19.026,19.026,0,0,1,8.441-2.153,19.368,19.368,0,0,1,14.323,5.941,19.178,19.178,0,0,1,3.814,5.8,21.715,21.715,0,0,1,1.018,3.029,18.9,18.9,0,0,1,.468,2.949,19.177,19.177,0,0,1-1.623,9.385l-.1-.062.007-.008a.059.059,0,0,1,.084-.01.066.066,0,0,1,.02.029l1.532,4.793c.167.53.3.935.385,1.217S405.872,120.454,405.872,120.454Z" transform="translate(-366.947 -86.985)" fill="#263238"/>
                      </g>
                    </g>
                  </g>
                </g>
              </g>
            </g>
          </g>
        </g>
        <g id="Grupo_112843" data-name="Grupo 112843" transform="translate(25.539 12.808)">
          <g id="Grupo_112842" data-name="Grupo 112842">
            <g id="Grupo_112841" data-name="Grupo 112841">
              <g id="Grupo_112840" data-name="Grupo 112840">
                <path id="Trazado_223147" data-name="Trazado 223147" d="M388.813,120.7l2.3-2.539,4.87,3.909,7.233-8.306,2.366,2.3-9.709,10.681Z" transform="translate(-388.813 -113.761)" fill="#263238"/>
              </g>
            </g>
          </g>
        </g>
        <g id="Grupo_112845" data-name="Grupo 112845" transform="translate(0 6.706)">
          <path id="Trazado_223148" data-name="Trazado 223148" d="M336.836,129.557l3.791-.473a.05.05,0,0,1,.04.014,16.392,16.392,0,0,0,6.912,4.144,22.74,22.74,0,0,0,2.493.547l1.342.118a4.408,4.408,0,0,0,.689.022l.7-.009a16.362,16.362,0,0,0,5.819-1.264,16.129,16.129,0,0,0,1.479-.71c-.149-.058-.3-.112-.447-.174a19.017,19.017,0,0,1-6.284-4.259,18.6,18.6,0,0,1-4.32-6.97,19.246,19.246,0,0,1-.884-8.667,18.809,18.809,0,0,1,3.331-8.491,8.446,8.446,0,0,1,.694-.91l.727-.88.312-.313c-.179-.009-.358-.021-.537-.023a16.339,16.339,0,0,0-15.383,9.911,18.491,18.491,0,0,0-.874,2.567,16.133,16.133,0,0,0-.409,2.5,16.443,16.443,0,0,0,1.331,7.992.053.053,0,0,1-.014.06l-1.352,4.024-.356,1.051c-.081.237-.127.363-.127.363s.119-.019.342-.048Z" transform="translate(-335.468 -101.136)" fill="#f5f5f5"/>
          <g id="Grupo_112844" data-name="Grupo 112844">
            <path id="Trazado_223149" data-name="Trazado 223149" d="M336.792,129.427s-.111.024-.332.057l-.99.144-.045.006.014-.044,1.8-5.448.02-.028c-.01,0,0,.031-.01,0l-.033-.078-.067-.156-.131-.32c-.088-.216-.169-.44-.251-.668q-.242-.687-.433-1.448a16.222,16.222,0,0,1-.48-3.3,15.647,15.647,0,0,1,.779-5.679,13.993,13.993,0,0,1,.766-1.958,16.356,16.356,0,0,1,5.983-6.859,16.523,16.523,0,0,1,9.81-2.609l.272.015-.192.193-.312.313.008-.008a19.324,19.324,0,0,0-4.541,9.05A18.763,18.763,0,0,0,360.1,131.717l.233.088-.221.1a20.31,20.31,0,0,1-2.586,1.125,16.729,16.729,0,0,1-2.6.643,17.367,17.367,0,0,1-4.9.068h-.01c-.551-.111-1.095-.2-1.622-.32a13.856,13.856,0,0,1-1.512-.443,16.691,16.691,0,0,1-2.622-1.181,16.365,16.365,0,0,1-3.645-2.779c-.007-.045-.108,0-.179,0l-.224.026-.428.051-.774.091-1.213.139-.746.081c-.168.017-.255.019-.255.019s.085-.019.252-.044l.743-.1,1.21-.163.773-.1.427-.056.223-.03.114-.015a.267.267,0,0,1,.072,0,.1.1,0,0,1,.05.026l.022.021a16.462,16.462,0,0,0,9.367,4.619h-.01a20.646,20.646,0,0,0,2.358.13,16.08,16.08,0,0,0,2.5-.218,16.624,16.624,0,0,0,2.568-.644,20.228,20.228,0,0,0,2.55-1.119l.012.193a18.963,18.963,0,0,1-11.837-21.369,19.536,19.536,0,0,1,4.6-9.159l.006-.007h0l.312-.313.08.208a16.269,16.269,0,0,0-15.6,9.31,13.79,13.79,0,0,0-.764,1.931,15.5,15.5,0,0,0-.8,5.615,16.141,16.141,0,0,0,.455,3.276c.124.5.263.983.419,1.439.08.227.158.45.243.665l.128.319.065.156.033.077c.016.014.031.118-.025.15l.019-.028c-.845,2.476-1.474,4.333-1.869,5.427l-.031-.037.995-.117C336.678,129.432,336.792,129.427,336.792,129.427Z" transform="translate(-335.424 -101.006)" fill="#263238"/>
          </g>
        </g>
      </g>
    </g>
    <g id="Chart_" data-name="Chart
" transform="translate(289.939 50.702)">
      <g id="Grupo_112854" data-name="Grupo 112854">
        <rect id="Rectngulo_42044" data-name="Rectngulo 42044" width="10.209" height="36.791" rx="4.45" transform="translate(34.168 12.671)" fill="#455a64"/>
        <g id="Grupo_112853" data-name="Grupo 112853">
          <g id="Grupo_112847" data-name="Grupo 112847" transform="translate(2.185 34.322)">
            <rect id="Rectngulo_42045" data-name="Rectngulo 42045" width="10.209" height="16.702" rx="4.603" fill="#455a64"/>
          </g>
          <g id="Grupo_112848" data-name="Grupo 112848" transform="translate(17.961 25.24)">
            <path id="Rectngulo_42046" data-name="Rectngulo 42046" d="M4.919,0H5.29a4.918,4.918,0,0,1,4.918,4.918V20.866A4.918,4.918,0,0,1,5.29,25.784H4.919A4.919,4.919,0,0,1,0,20.866V4.919A4.919,4.919,0,0,1,4.919,0Z" fill="#455a64"/>
          </g>
          <g id="Grupo_112850" data-name="Grupo 112850" transform="translate(0 0.513)">
            <g id="Grupo_112849" data-name="Grupo 112849">
              <path id="Trazado_223150" data-name="Trazado 223150" d="M626.609,64.129a1.812,1.812,0,0,1-.245.325l-.758.894-2.881,3.3L612.714,79.935l-.111.126-.142-.093L606.2,75.877l.266-.038-.239.282L592.977,91.661l-.088.1-.107-.079-4.981-3.7-1.342-1.022a3.143,3.143,0,0,1-.452-.379,3.217,3.217,0,0,1,.5.312l1.387.961,5.057,3.594-.194.023,13.157-15.618.239-.282.116-.137.15.1,6.256,4.1-.253.033,10.119-11.189,2.966-3.226.806-.851A1.849,1.849,0,0,1,626.609,64.129Z" transform="translate(-586.007 -64.128)" fill="#263238"/>
            </g>
          </g>
          <g id="Grupo_112852" data-name="Grupo 112852" transform="translate(32.585)">
            <g id="Grupo_112851" data-name="Grupo 112851">
              <path id="Trazado_223151" data-name="Trazado 223151" d="M662.469,71.336a13.6,13.6,0,0,1-.142-2.348c-.037-1.452-.06-3.463-.061-5.694l.236.2-.2.034c-2.248.371-4.286.684-5.765.891a14.265,14.265,0,0,1-2.407.252,14.235,14.235,0,0,1,2.36-.535c1.467-.279,3.5-.638,5.745-1.008l.2-.033.237-.039v.24c0,2.231-.025,4.242-.061,5.694A13.728,13.728,0,0,1,662.469,71.336Z" transform="translate(-654.128 -63.055)" fill="#263238"/>
            </g>
          </g>
        </g>
      </g>
    </g>
  </g>
</svg>
